<?xml version="1.0" encoding="UTF-8" standalone="no"?>
<!-- Created with Inkscape (http://www.inkscape.org/) -->

<svg
   version="1.1"
   id="svg1"
   width="762.75934"
   height="713.01556"
   viewBox="0 0 762.75934 713.01556"
   sodipodi:docname="ChatGPT Image 2 kwi 2025, 19_11_57.png"
   xmlns:inkscape="http://www.inkscape.org/namespaces/inkscape"
   xmlns:sodipodi="http://sodipodi.sourceforge.net/DTD/sodipodi-0.dtd"
   xmlns="http://www.w3.org/2000/svg"
   xmlns:svg="http://www.w3.org/2000/svg">
  <defs
     id="defs1" />
  <sodipodi:namedview
     id="namedview1"
     pagecolor="#ffffff"
     bordercolor="#000000"
     borderopacity="0.25"
     inkscape:showpageshadow="2"
     inkscape:pageopacity="0.0"
     inkscape:pagecheckerboard="0"
     inkscape:deskcolor="#d1d1d1">
    <inkscape:page
       x="0"
       y="0"
       width="762.75934"
       height="713.01556"
       id="page2"
       margin="0"
       bleed="0" />
  </sodipodi:namedview>
  <g
     inkscape:groupmode="layer"
     inkscape:label="Image"
     id="g1"
     transform="translate(-126.34846,-159.75375)">
    <path
       style="fill:#000000"
       d="m 130.27494,869.96742 c -3.33164,-3.33164 -4.67237,-11.47826 -3.52127,-21.3962 0.56798,-4.89373 1.30902,-6.78776 3.52127,-9 2.73937,-2.73937 3.05467,-2.8019 14.12882,-2.80194 l 11.32692,-3e-5 V 612.01928 387.26932 l 2.05407,-3.4966 c 1.12973,-1.92313 3.55878,-4.51063 5.39788,-5.75 l 3.34382,-2.2534 h 78.69286 78.69287 l 0.6568,-21.75 c 0.36123,-11.9625 0.70574,-40.2 0.76556,-62.75 0.0598,-22.55 0.39842,-59 0.75245,-81 0.64321,-39.96998 0.64549,-40.0029 3.04616,-43.86473 1.35127,-2.17372 3.85312,-4.47086 5.71788,-5.25 2.781,-1.16198 30.76338,-1.38502 173.59753,-1.38372 192.62356,0.002 175.15491,-0.78617 179.5664,8.09945 l 2.28429,4.60101 0.62929,101.64899 0.6293,101.649 h 78.87626 c 76.23032,0 79.00449,0.0654 82.69881,1.95012 2.40361,1.22623 4.52323,3.36065 5.71016,5.75 1.83328,3.6905 1.88761,10.26915 1.88761,228.54996 v 224.75007 l 10.29966,-7e-5 c 10.83276,-8e-5 15.27232,1.25352 16.6906,4.71293 0.40294,0.98285 0.95914,5.83699 1.23599,10.78699 0.63979,11.43898 -0.72278,16.92973 -4.71334,18.99332 -2.58037,1.33436 -45.70206,1.50668 -377.04017,1.50668 H 133.07683 Z m 467.95574,-82.56324 c 0,-50.45054 -0.0369,-51.41206 -2.07258,-54 l -2.07258,-2.63486 h -85.49316 c -58.34989,0 -86.12247,0.33679 -87.47529,1.0608 -3.96282,2.12084 -4.10281,4.48486 -3.35686,56.6892 l 0.71803,50.25 h 89.87622 89.87622 z M 318.04212,677.73036 c 2.13501,-1.98906 2.19468,-2.70472 2.43856,-29.25 0.1375,-14.96607 0.2421,-31.19469 0.23245,-36.0636 -0.0267,-13.49434 2.56195,-12.64744 -38.65898,-12.64744 -22.41061,0 -34.64136,0.36736 -35.97387,1.08049 -4.44677,2.37984 -4.8496,5.77993 -4.8496,40.93285 v 33.07757 l 2.45455,2.45454 2.45454,2.45455 h 34.85689 c 33.69663,0 34.92975,-0.0679 37.04546,-2.03896 z m 151.73401,-0.41559 2.45455,-2.45454 v -33.07757 c 0,-35.15292 -0.40283,-38.55301 -4.8496,-40.93285 -2.86734,-1.53455 -65.17556,-1.48178 -68.55516,0.0581 -5.48223,2.49787 -5.81033,4.96467 -5.43674,40.87568 l 0.3415,32.82634 2.42431,2.57971 2.42432,2.57971 h 34.37114 34.37114 z m 150.59377,0.54387 2.36078,-1.91067 0.28853,-34.28919 c 0.30718,-36.50484 0.0676,-38.72273 -4.40317,-40.75974 -1.68031,-0.7656 -12.95544,-1.12972 -34.98207,-1.12972 -36.82467,0 -37.45722,0.11025 -39.48619,6.88237 -0.81412,2.71728 -1.03963,13.42927 -0.75676,35.94729 l 0.40294,32.07657 2.39267,2.54689 2.39268,2.54688 h 34.7149 c 32.68354,0 34.85304,-0.1118 37.07569,-1.91068 z m 152.81842,-0.54423 c 2.28458,-2.43183 2.31105,-2.75434 2.81564,-34.30676 0.55387,-34.63462 0.18989,-37.90467 -4.56625,-41.02375 -2.31007,-1.51495 -6.46671,-1.75067 -35.69964,-2.02456 -32.49184,-0.30443 -33.13378,-0.27175 -35.79627,1.82258 l -2.71112,2.13256 v 36.09868 c 0,32.18688 0.17934,36.29685 1.65499,37.92742 1.54356,1.70562 4.02287,1.82874 36.82568,1.82874 h 35.1707 z M 318.1581,540.13446 c 2.00533,-2.54936 2.07258,-3.74846 2.07258,-36.95295 0,-36.76457 -0.25823,-38.87319 -4.92144,-40.18617 -1.41821,-0.39931 -17.52874,-0.72602 -35.80118,-0.72602 h -33.22261 l -2.27739,2.27663 c -2.27043,2.26968 -2.27816,2.38102 -2.53293,36.5 -0.2742,36.7215 -0.1282,37.9579 4.77526,40.43892 1.84148,0.93175 11.154,1.25876 36.15771,1.26971 l 33.67742,0.0147 z m 149.12797,1.60522 c 1.05815,-0.56631 2.66573,-2.46416 3.57239,-4.21746 1.46468,-2.83237 1.5939,-6.8752 1.15893,-36.25848 -0.51983,-35.1162 -0.75214,-36.77038 -5.41261,-38.54229 -1.38988,-0.52843 -16.28467,-0.95213 -33.47132,-0.95213 -34.06666,0 -37.22475,0.45034 -38.48926,5.48853 -0.36171,1.44117 -0.71522,18.06944 -0.78559,36.9517 -0.12093,32.45393 -0.0238,34.447 1.77706,36.44558 1.86809,2.07324 2.5618,2.11419 35.81574,2.11419 21.3457,0 34.62362,-0.38152 35.83466,-1.02964 z m 152.74992,-1.26312 c 2.08257,-2.21679 2.17634,-3.36864 2.83018,-34.76272 0.73703,-35.38922 0.39954,-38.56622 -4.43293,-41.72994 -2.34041,-1.53221 -6.08017,-1.71162 -35.16076,-1.68678 -35.77362,0.0306 -36.14806,0.0889 -38.62646,6.02057 -1.80756,4.3261 -2.07433,63.26279 -0.30928,68.32604 2.05803,5.90365 2.96291,6.04142 39.96963,6.08555 l 33.57568,0.04 z m 152.19469,0.29276 c 1.92498,-1.92498 2,-3.33333 2,-37.54545 v -35.54546 l -2.34629,-2.34629 c -2.08291,-2.0829 -3.62645,-2.42442 -13.75,-3.04224 -6.27204,-0.38277 -21.62959,-0.54398 -34.12788,-0.35825 -21.66148,0.3219 -22.82427,0.43788 -24.86459,2.48005 -2.10448,2.1064 -2.14193,2.74764 -2.2306,38.19499 -0.0846,33.81482 0.0252,36.18018 1.76957,38.10764 1.80858,1.99845 2.81883,2.05501 36.70478,2.05501 33.51168,0 34.92154,-0.0765 36.84501,-2 z m -231,-127 c 1.91111,-1.91111 2,-3.33333 2,-32 0,-28.66667 0.0889,-30.08889 2,-32 1.9127,-1.9127 3.33333,-2 32.54545,-2 30.53308,0 30.54639,-9.3e-4 32.84361,-2.29815 2.209,-2.209 2.32567,-3.15075 3.00742,-24.27559 0.82151,-25.45542 0.0735,-40.08877 -2.18139,-42.67626 -1.39131,-1.59651 -4.25473,-1.75 -32.64757,-1.75 -26.54983,0 -31.44905,-0.22872 -33.34501,-1.5567 -2.2063,-1.54536 -2.22251,-1.75998 -2.22251,-29.4349 0,-15.33301 -0.42846,-29.00513 -0.95213,-30.3825 -0.52368,-1.37736 -1.76118,-2.93126 -2.75,-3.45309 -0.98883,-0.52184 -14.99687,-1.1117 -31.12899,-1.31081 l -29.33112,-0.362 -2.41888,2.80576 -2.41888,2.80577 v 28.44423 c 0,27.11091 -0.0937,28.53799 -2,30.44424 -1.91534,1.91534 -3.33333,2 -33.5,2 -30.16667,0 -31.58466,0.0847 -33.5,2 -1.91367,1.91367 -2,3.33333 -2,32.88922 0,28.91464 0.12211,31.04012 1.91021,33.25 l 1.91021,2.36078 31.6721,0.5 c 29.88429,0.47178 31.75212,0.60957 33.08979,2.44113 1.14731,1.57091 1.41769,7.53962 1.41769,31.29545 v 29.35433 l 2.45455,2.45454 2.45454,2.45455 h 30.54546 c 29.21212,0 30.63275,-0.0873 32.54545,-2 z"
       id="path1" />
  </g>
</svg>
