<?xml version="1.0" encoding="UTF-8" standalone="no"?>
<!-- Created with Inkscape (http://www.inkscape.org/) -->

<svg
   version="1.1"
   id="svg1"
   width="877.34363"
   height="876.11469"
   viewBox="0 0 877.34363 876.11469"
   xmlns="http://www.w3.org/2000/svg"
   xmlns:svg="http://www.w3.org/2000/svg">
  <defs
     id="defs1" />
  <g
     id="g1"
     transform="translate(-62.192024,-67.217789)">
    <path
       style="fill:#000000"
       d="m 173.55881,942.64912 c -14.02631,-1.4995 -27.54471,-5.7287 -42.24204,-13.2152 -34.309356,-17.47651 -58.833821,-50.16746 -67.304241,-89.71613 -1.739665,-8.12255 -1.820505,-23.04276 -1.820505,-336 0,-312.9199 0.08102,-327.87841 1.819953,-336 8.95801,-41.83794 37.072393,-76.006538 75.730213,-92.038098 4.09741,-1.69921 12.17484,-4.29827 17.94984,-5.77569 l 10.5,-2.68621 h 331.5 c 319.51148,0 331.8074,0.0673 340,1.86064 49.29994,10.7917 86.27146,47.866628 97.79015,98.063658 1.47642,6.43405 1.6543,36.36653 1.96155,330.0757 0.23921,228.65984 0.0195,325.81856 -0.7523,332.65014 -5.44483,48.19581 -38.08785,90.01299 -82.9994,106.32609 -4.125,1.4983 -11.55,3.6817 -16.5,4.8521 l -9,2.128 -324.5,0.1455 c -178.475,0.08 -327.93495,-0.2216 -332.13322,-0.6705 z m 662.08967,-30.72805 c 9.43942,-2.53569 24.40079,-9.28893 31.6906,-14.30445 8.25814,-5.68175 20.26626,-17.9594 26.01436,-26.59826 9.0354,-13.57937 14.07812,-27.39045 16.36951,-44.83307 0.71539,-5.4457 0.95527,-109.2508 0.75788,-327.9675 l -0.2888,-320 -2.75366,-9.99149 c -9.94174,-36.07303 -34.90618,-60.45191 -71.43936,-69.763728 l -8.80698,-2.24478 h -326 c -313.95109,0 -326.29568,0.0686 -334,1.8548 -18.69159,4.333638 -33.0721,12.157908 -46.70186,25.409928 -12.63676,12.28654 -21.565816,27.52413 -26.117886,44.57068 l -2.18026,8.16459 v 328.5 328.5 l 2.78973,9 c 8.757486,28.25263 24.781576,48.20808 48.967036,60.98062 9.06972,4.7898 21.95869,9.09054 31.24324,10.42511 3.3,0.4744 151.35,0.7965 329,0.7158 l 323,-0.1466 z m -670.65069,-62.61515 -2.80576,-2.41187 -0.29905,-25.116 -0.29906,-25.116 2.97213,-2.97213 2.97213,-2.97213 20.32693,-0.0171 c 70.90988,-0.0597 601.83193,-0.10026 621.94056,-0.0475 l 24.61363,0.0646 2.63637,2.63636 2.63636,2.63637 v 24.94056 24.94056 l -2.92308,2.92307 -2.92307,2.92308 H 500.82472 167.80356 Z m 45.74088,-85.98756 c 0.62746,-9.44947 2.62091,-13.46254 8.7877,-17.69075 3.49425,-2.3958 3.68822,-2.41152 33.34018,-2.70189 l 29.82548,-0.29207 v -51.95793 c 0,-28.57686 -0.17529,-51.95793 -0.38953,-51.95793 -2.83601,0 -18.95984,-3.81978 -25.99442,-6.15815 -45.99455,-15.28908 -80.0051,-54.24385 -88.00138,-100.79442 -1.1551,-6.72447 -1.61467,-15.71158 -1.61467,-31.57576 0,-21.35389 0.0834,-22.29809 2.25,-25.47218 6.29043,-9.21554 18.14974,-9.03523 25.18821,0.38297 1.9014,2.54427 2.10809,4.60096 2.65698,26.43821 0.50301,20.01204 0.94094,24.99575 2.82763,32.17933 7.46778,28.43356 27.34777,52.28753 54.57718,65.48707 27.22869,13.19919 61.92701,12.94831 88.94889,-0.64312 26.47206,-13.3149 45.08154,-36.16172 52.75313,-64.76489 1.64626,-6.138 2.15305,-12.04727 2.66537,-31.07906 0.56583,-21.01927 0.84374,-23.85844 2.63261,-26.89547 3.22501,-5.47521 6.8651,-7.60453 13,-7.60453 6.1349,0 9.77499,2.12932 13,7.60453 1.84891,3.13896 1.99552,5.13297 1.94064,26.39547 -0.0649,25.15273 -1.02018,32.3398 -6.47446,48.7115 -14.9106,44.75607 -54.28914,78.36653 -101.71618,86.81701 l -7.25,1.2918 v 51.83984 51.83985 h 28.4349 c 17.61715,0 29.50588,0.40377 31.25,1.06133 3.81811,1.43949 9.25163,6.73496 10.93434,10.65655 0.75942,1.76984 1.38076,6.38234 1.38076,10.25 v 7.03212 h -87.75555 -87.75554 z m 268.45336,7.01058 c -4.61475,-2.01597 -9.35946,-6.43607 -11.79385,-10.98694 l -2.20615,-4.12421 v -204.5 -204.5 l 2.21551,-4.14255 c 2.90452,-5.43087 9.32012,-10.83355 14.57635,-12.27498 3.11244,-0.85353 41.83242,-1.0796 148.70814,-0.86824 161.434,0.31926 146.7079,-0.39331 154.3539,7.46887 7.12909,7.33066 6.6461,-8.26741 6.6461,214.63238 0,149.61041 -0.29652,201.94216 -1.16056,204.82608 -1.55066,5.17565 -7.2902,11.70423 -12.28363,13.97231 -3.88128,1.76293 -10.33838,1.84147 -150.05581,1.82503 -118.17628,-0.0139 -146.57172,-0.26694 -149,-1.32775 z m 176,-32.03734 c 43.95076,-12.90087 72.30024,-48.3383 74.25754,-92.82347 1.02617,-23.32271 -4.68554,-43.16744 -17.97354,-62.44708 -5.32141,-7.72088 -18.40823,-20.8875 -25.8441,-26.00171 -7.40216,-5.09102 -19.90375,-10.99939 -29.49101,-13.93772 -8.33642,-2.55498 -10.21504,-2.74683 -27.44889,-2.80326 -19.84987,-0.065 -23.92144,0.58799 -37.82709,6.06654 -16.95053,6.67817 -35.95882,22.02087 -46.15458,37.25406 -24.26958,36.26044 -23.08865,83.36042 2.95672,117.92523 14.51238,19.25938 36.19728,33.11915 59.92996,38.30387 12.89237,2.8165 35.22096,2.09569 47.59499,-1.53646 z m -40.5,-42.15647 c -19.76275,-5.21392 -36.45309,-21.70223 -41.47161,-40.96964 -1.96206,-7.53286 -1.96067,-22.36787 0.003,-29.90615 4.83095,-18.54725 21.44917,-34.99298 40.47637,-40.05624 7.16318,-1.90617 21.03716,-1.88515 28.44014,0.0431 31.99708,8.33418 50.40886,41.82436 40.54704,73.75322 -5.37187,17.3921 -21.70514,32.40996 -40.45484,37.19677 -7.39799,1.88872 -20.25761,1.86021 -27.5399,-0.061 z m 29.39052,-191.38934 c 18.09788,-4.62866 33.82634,-17.20733 41.39491,-33.10515 5.35842,-11.2554 6.71724,-17.41228 6.60393,-29.92285 -0.0806,-8.90532 -0.54804,-11.80882 -3.07751,-19.11775 -6.87975,-19.87914 -21.44203,-34.49773 -41.47725,-41.63764 -6.36226,-2.2673 -8.92543,-2.6132 -19.3346,-2.60919 -10.38624,0.004 -12.9864,0.35553 -19.33492,2.61401 -10.58583,3.76589 -17.62848,8.26195 -25.878,16.52063 -5.76466,5.77106 -8.17508,9.17317 -11.69032,16.5 -5.2911,11.02824 -6.59676,16.78171 -6.59676,29.06906 0,17.93038 5.66751,31.54236 18.40642,44.20776 16.8203,16.72326 39.04172,23.09304 60.9841,17.48112 z m -23.58731,-34.3724 c -12.90582,-3.62544 -20.80321,-14.12416 -20.80321,-27.6556 0,-11.41225 5.73623,-20.75912 15.76115,-25.68191 14.18472,-6.96548 30.86715,-1.34608 38.47008,12.95847 1.81498,3.41481 2.24707,5.85087 2.25677,12.72344 0.0107,7.58492 -0.31097,9.08381 -2.988,13.92289 -6.29676,11.3822 -20.2309,17.23456 -32.69679,13.73271 z M 266.33698,573.1338 c -13.82305,-3.34622 -29.50033,-15.04552 -36.92054,-27.55227 -2.07657,-3.50006 -5.00157,-9.96374 -6.5,-14.36374 l -2.72441,-8 v -85.5 c 0,-95.4816 -0.36775,-90.1253 7.13275,-103.88832 4.99884,-9.17262 10.76712,-15.56561 19.0327,-21.09396 14.46851,-9.67714 23.79618,-11.44028 57.03459,-10.78086 20.14164,0.39959 23.61611,0.71481 29.79996,2.70354 18.65117,5.99825 31.97665,18.79611 39.37718,37.81805 l 2.62282,6.74155 0.282,85.16049 c 0.24063,72.66414 0.0616,86.21768 -1.2202,92.36509 -4.64051,22.25602 -22.56259,40.75032 -45.0219,46.45939 -8.16644,2.07587 -54.24345,2.02536 -62.89495,-0.069 z M 714.6649,298.71813 c -44.77734,-7.07033 -70.1877,-56.37157 -49.84565,-96.71065 8.57026,-16.99515 24.62631,-30.01567 42.95803,-34.83648 9.52144,-2.50391 25.47994,-2.24843 34.41475,0.55094 24.1699,7.5727 41.84809,26.1944 47.04568,49.55659 2.61788,11.76686 1.66647,27.44408 -2.31429,38.13438 -7.45166,20.01139 -22.45679,34.46255 -42.32864,40.76591 -8.62714,2.73653 -21.67176,3.84326 -29.92988,2.53931 z m 21.69803,-39.42746 c 22.40281,-10.43078 23.06593,-41.09875 1.14795,-53.09 -4.50738,-2.46598 -6.46308,-2.91549 -12.81885,-2.9464 -6.23984,-0.0303 -8.46015,0.43501 -13.21444,2.76967 -11.39226,5.59432 -17.4572,16.06276 -16.56119,28.58559 0.78142,10.92139 6.28496,19.20785 15.97211,24.04858 8.09479,4.04501 17.63643,4.28195 25.47442,0.63256 z"
       id="path1" />
  </g>
</svg>
