<?xml version="1.0" encoding="UTF-8" standalone="no"?>
<!-- Created with Inkscape (http://www.inkscape.org/) -->

<svg
   version="1.1"
   id="svg1"
   width="877.69727"
   height="876.29724"
   viewBox="0 0 877.69727 876.29724"
   sodipodi:docname="ChatGPT Image 28 mar 2025, 08_38_30.png"
   xmlns:inkscape="http://www.inkscape.org/namespaces/inkscape"
   xmlns:sodipodi="http://sodipodi.sourceforge.net/DTD/sodipodi-0.dtd"
   xmlns="http://www.w3.org/2000/svg"
   xmlns:svg="http://www.w3.org/2000/svg">
  <defs
     id="defs1" />
  <sodipodi:namedview
     id="namedview1"
     pagecolor="#ffffff"
     bordercolor="#000000"
     borderopacity="0.25"
     inkscape:showpageshadow="2"
     inkscape:pageopacity="0.0"
     inkscape:pagecheckerboard="0"
     inkscape:deskcolor="#d1d1d1">
    <inkscape:page
       x="0"
       y="0"
       width="877.69727"
       height="876.29724"
       id="page2"
       margin="0"
       bleed="0" />
  </sodipodi:namedview>
  <g
     inkscape:groupmode="layer"
     inkscape:label="Image"
     id="g1"
     transform="translate(-60.593445,-55.567299)">
    <path
       style="fill:#000000"
       d="m 211.93558,931.41543 c -55.26702,-0.7146 -54.65541,-0.6471 -72.48698,-8.0002 -33.30527,-13.734 -60.636288,-42.88875 -71.998534,-76.80278 -6.954871,-20.7589 -6.366998,9.5136 -6.761881,-348.20262 -0.242017,-219.23902 -0.0227,-325.40715 0.684969,-331.57949 3.358467,-29.29285 17.392678,-57.4569 38.412808,-77.087395 16.859628,-15.74504 34.613708,-25.28078 59.649618,-32.037914 6.12332,-1.65266 25.50806,-1.77209 334.5,-2.06081 230.2584,-0.21516 330.46761,0.0146 336.28079,0.77089 31.42306,4.088344 63.59256,23.108664 83.28504,49.242569 7.70811,10.22944 17.18153,29.58067 20.36632,41.60201 1.36237,5.14242 2.96763,13.69242 3.56724,19 0.77135,6.82787 0.99757,104.26051 0.77349,333.15014 l -0.3167,323.5 -2.12789,9 c -11.80862,49.94515 -48.79711,87.1403 -97.00887,97.5509 l -9.81942,2.1204 -283.5,0.2404 c -155.925,0.1323 -306,-0.051 -333.5,-0.4061 z m 612.35427,-29.0466 c 15.27974,-1.9159 31.93363,-8.43181 44.70767,-17.49209 8.60163,-6.1009 21.10052,-19.75562 26.81777,-29.29772 5.79376,-9.66981 11.09128,-24.63811 12.56101,-35.49155 1.49633,-11.0498 1.48197,-641.45467 -0.0149,-652.35528 -3.82804,-27.87765 -21.39999,-54.75953 -45.16182,-69.089375 -8.59765,-5.18491 -21.93836,-10.18218 -32.80669,-12.28901 -9.80357,-1.90043 -17.21577,-1.94398 -330.86178,-1.94398 -277.58131,0 -321.96341,0.19787 -329.21454,1.46777 -39.85132,6.97922 -68.84685,34.503975 -78.514838,74.532235 -1.72562,7.14454 -1.82671,22.61872 -2.13294,326.5 -0.2285,226.74627 -0.004,321.80763 0.77483,328.70838 1.94648,17.23707 6.6637,30.51202 15.640808,44.01552 16.53012,24.86486 40.80685,39.4341 71.85115,43.1202 8.02771,0.9532 638.67784,0.5775 646.35427,-0.3851 z m -661.54851,-70.37101 -2.80576,-2.41201 -0.29686,-27.26775 c -0.21067,-19.35026 0.0471,-28.09819 0.88781,-30.12781 2.5753,-6.21731 -10.70342,-5.78042 175.68684,-5.78042 h 170.33277 l 18.19472,15.29847 c 22.44198,18.86963 23.11309,19.33772 30.40299,21.2053 6.74905,1.72903 13.6144,0.91257 20.02438,-2.38139 3.48489,-1.79081 29.33349,-26.9164 32.83734,-31.91884 l 1.54342,-2.20354 h 111.88753 111.88753 l 2.80577,2.41342 2.80576,2.41341 v 29.17317 29.17317 l -2.80576,2.41341 -2.80577,2.41342 H 499.43558 165.54711 Z m 393.66675,-46.30758 c -1.35988,-0.94577 -9.68195,-7.80827 -18.49349,-15.25 -8.81154,-7.44172 -17.354,-14.57773 -18.98324,-15.85779 l -2.96225,-2.32738 3.28121,-12.54131 c 1.80467,-6.89772 3.12314,-12.69939 2.92993,-12.8926 -0.19321,-0.1932 -3.89107,3.20938 -8.21746,7.5613 l -7.86617,7.91258 -7.08052,-6.09878 c -22.66043,-19.51847 -74.49235,-64.69329 -76.82688,-66.95951 -1.98827,-1.9301 -2.75364,-3.66223 -2.75364,-6.23188 0,-3.76079 -1.01252,-2.46185 28.32593,-36.33865 l 8.82593,-10.1912 11.67407,10.26366 c 6.42074,5.64502 19.77407,17.24046 29.67407,25.76765 9.9,8.5272 25.2,21.72447 34,29.32728 8.8,7.60281 29.1148,25.12242 45.144,38.93246 l 29.14401,25.10917 -18.14401,18.92273 c -9.9792,10.4075 -19.494,19.7511 -21.144,20.76356 -3.75627,2.30488 -7.33557,2.34864 -10.52749,0.12871 z M 258.48529,748.3217 c -17.54533,-2.26996 -30.89899,-15.57893 -34.0558,-33.9418 -0.78118,-4.54405 -1.00763,-26.8969 -0.7446,-73.5 0.34256,-60.6978 0.54658,-67.57885 2.17828,-73.47007 3.80514,-13.73832 12.80879,-29.72067 23.04276,-40.90311 2.21631,-2.42171 12.80465,-12.35797 23.52965,-22.08057 22.63806,-20.52222 31.38227,-29.66519 35.52514,-37.14519 2.794,-5.04458 2.97486,-6.03991 2.97486,-16.37113 0,-12.24301 -0.31477,-13.16755 -8.06932,-23.70136 -6.49146,-8.81802 -6.9619,-11.22 -5.80507,-29.63944 0.85655,-13.63818 1.30114,-16.25655 3.39198,-19.97671 4.8198,-8.57567 1.94921,-8.18249 59.74018,-8.18249 h 51.02171 l 16.56167,38.75 c 36.98288,86.53028 48.6005,118.17469 51.60836,140.57236 1.80045,13.40683 2.17117,12.49108 -7.94168,19.61714 -14.79812,10.42753 -20.53095,17.72384 -21.3862,27.2187 -0.26478,2.93957 -1.10339,4.81243 -2.75125,6.14437 -5.3391,4.3155 -40.04578,45.53148 -42.50912,50.48177 -2.28122,4.58431 -2.56024,6.14796 -2.10627,11.80348 0.8098,10.08843 3.4284,13.37792 27.3939,34.41218 11.59294,10.175 24.177,21.28073 27.96459,24.67941 l 6.88652,6.17941 -5.5,5.62645 c -6.92441,7.08362 -16.84118,12.13202 -26.5,13.49055 -8.52722,1.19937 -165.12937,1.14196 -174.45029,-0.0639 z m 379.10762,-3.74577 c 3.00072,-3.34015 9.47938,-14.85098 20.96548,-37.25 9.14254,-17.82886 17.21293,-34.2161 17.93419,-36.4161 1.98757,-6.06251 1.60299,-16.21956 -0.82168,-21.70092 -2.62848,-5.94212 -7.51193,-11.19964 -21.76686,-23.43419 -6.30765,-5.41366 -11.46846,-10.14127 -11.46846,-10.5058 0,-0.36453 14.5125,-16.30673 32.25,-35.4271 l 32.25,-34.76432 0.27245,80.41616 c 0.16407,48.42741 -0.11347,82.93803 -0.69771,86.75585 -2.10582,13.76087 -11.07868,26.6009 -22.46974,32.15384 -7.34339,3.57978 -17.88078,4.98624 -37.44767,4.99828 l -13.34267,0.008 z m -21.3306,-11.91321 c -1.8297,-1.51091 -18.62673,-15.99885 -37.32673,-32.19541 -73.59578,-63.74324 -110.2463,-96.20526 -111.34774,-98.62266 -1.56262,-3.42958 -1.44822,-6.56726 0.33212,-9.10905 1.43688,-2.05144 31.41372,-24.31922 50.25403,-37.33034 8.33276,-5.75461 9.72785,-6.38005 14.23123,-6.38005 5.94667,0 6.4917,0.36992 27.68343,18.78908 8.16581,7.09746 15.6834,13.62246 16.70575,14.5 1.74383,1.49684 2.13994,1.28623 6.40323,-3.40446 42.68736,-46.96686 144.07538,-160.65372 187.07395,-209.7669 17.1584,-19.5984 25.53872,-28.41874 28.48696,-29.98269 3.29638,-1.74863 5.86371,-2.21944 12.17704,-2.2331 7.00918,-0.0152 8.66047,0.34855 13.33272,2.93664 6.33348,3.5083 9.62064,7.16145 12.93834,14.37887 3.04186,6.61735 2.82609,15.26034 -0.55496,22.23023 -2.39241,4.93185 -86.35349,97.32051 -181.24453,199.43695 -32.29118,34.74995 -36.97157,39.91782 -36.97157,40.82227 0,0.30703 8.2125,7.73299 18.25,16.50214 23.67631,20.68455 23.92723,20.95991 24.49354,26.87884 0.43839,4.582 -0.28914,6.27418 -16.25024,37.79675 -9.19004,18.15 -17.81069,34.0125 -19.157,35.25 -3.21631,2.95638 -5.47011,2.83856 -9.50957,-0.49711 z M 564.86372,548.93993 c -6.90954,-6.09258 -14.54609,-11.83462 -18.15045,-13.64759 -5.87152,-2.95336 -6.71714,-3.10463 -15,-2.68331 -10.19621,0.51864 -14.34842,2.29798 -26.24651,11.24741 l -7.46881,5.61785 -1.30678,-7.73665 c -1.97221,-11.67631 -3.89537,-18.39623 -9.92006,-34.66268 -3.02195,-8.15918 -5.94132,-17.70511 -6.48747,-21.21319 -0.61522,-3.95167 -0.82916,-30.45591 -0.56234,-69.66513 0.35649,-52.38567 0.69854,-64.50243 1.98573,-70.34412 6.01662,-27.3053 23.68262,-50.40774 47.72855,-62.4163 14.81928,-7.40075 12.2167,-7.13258 66.11863,-6.81312 l 48.38137,0.28673 7.64085,3.10064 c 11.02304,4.47313 21.00788,11.46254 31.93479,22.35442 10.02808,9.99593 15.19703,17.79215 18.99202,28.64528 4.31318,12.33506 4.93234,18.91822 4.93234,52.44292 v 31.86733 l -16.96448,18.46373 c -9.33046,10.15506 -17.43046,18.75173 -18,19.10373 -0.70636,0.43655 -1.03552,-10.28873 -1.03552,-33.74089 0,-38.3889 -0.24785,-40.16189 -6.66172,-47.65506 -5.42931,-6.34292 -10.22557,-8.37654 -20.9438,-8.88017 -12.83877,-0.60327 -19.35831,1.39048 -25.58706,7.82483 -7.84024,8.09901 -7.80742,7.82562 -7.80742,65.03991 0,57.0928 -0.0177,56.94869 7.98007,64.92534 2.48596,2.47939 5.30572,4.95799 6.26613,5.50799 1.50181,0.86005 -1.62021,4.6387 -22.30811,27 -13.22987,14.3 -24.398,26.12328 -24.81806,26.27395 -0.42006,0.15068 -6.13141,-4.45906 -12.69189,-10.24385 z M 308.00284,346.15983 c 0.27061,-3.4375 0.89782,-13.80559 1.3938,-23.04019 0.97723,-18.19492 1.78367,-20.94559 7.36039,-25.10528 2.7156,-2.02557 4.08505,-2.11655 36.5,-2.42488 42.81813,-0.40729 45.18194,-0.18098 50.56869,4.84144 l 4.10986,3.83189 0.30052,24.07351 0.30051,24.07351 h -50.51289 -50.51289 z m -104.35469,-6.28086 c -2.14511,-0.91618 -3.79565,-2.62041 -4.75,-4.90449 -2.90161,-6.94451 -2.27405,-8.44332 8.67084,-20.70868 5.57337,-6.24578 11.71366,-13.79891 13.64508,-16.78473 9.38302,-14.50538 21.6562,-46.04447 25.85626,-66.44429 l 1.82685,-8.87305 6.1946,0.57846 c 7.0107,0.65467 12.2082,2.5641 17.06675,6.2699 3.78093,2.88385 12.27705,15.02231 12.27705,17.54028 0,3.08266 -7.1031,22.10225 -11.6768,31.26636 -6.68265,13.38969 -14.43229,24.55196 -24.0959,34.70676 -12.50788,13.14364 -30.80328,26.29295 -39.2273,28.19352 -1.375,0.31022 -3.97934,-0.0678 -5.78743,-0.84004 z M 315.65159,270.1962 c -3.01924,-10.83767 -9.81165,-24.98688 -17.63878,-36.74315 -13.95623,-20.96211 -26.73977,-28.04322 -50.62645,-28.04322 h -9.95078 v -28.5 c 0,-15.675 -0.1125,-28.74621 -0.25,-29.04713 -0.1375,-0.30092 33.61253,-0.51564 75.00008,-0.47714 80.34577,0.0747 84.13133,0.27271 99.24992,5.19092 23.00008,7.48213 44.0463,26.32346 57.8991,51.83335 3.39277,6.24779 4.07512,8.44719 4.08683,13.17308 0.0124,4.99666 -0.34855,6.0357 -3.02726,8.71441 -4.36028,4.36027 -8.35113,5.10067 -27.52717,5.10693 -20.53748,0.007 -25.27111,1.08048 -31.28796,7.09733 -6.9268,6.9268 -11.18103,18.08101 -12.6466,33.15825 l -0.65613,6.75 -40.1704,-0.008 -40.17041,-0.008 z M 543.64102,231.481 c 0.27999,-26.5477 0.39823,-28.06834 2.39096,-30.75 3.93548,-5.29606 3.88683,-5.29058 47.1188,-5.30643 l 40.21521,-0.0147 3.5105,3.08227 c 1.96929,1.72905 3.95776,4.69251 4.52922,6.75 0.56711,2.04178 1.02119,14.86134 1.02429,28.91773 l 0.006,25.25 H 592.89102 543.34647 Z M 186.70527,204.92724 c -1.77666,-0.77236 -4.13748,-2.89225 -5.24626,-4.71086 -1.84498,-3.02613 -2.01502,-5.00272 -2.00495,-23.30655 0.0118,-21.54143 0.34186,-23.21629 5.30102,-26.9036 2.53515,-1.88497 4.42617,-2.12855 18.75,-2.41521 l 15.9305,-0.31881 v 29.56881 29.56881 l -14.75,-0.0391 c -10.38897,-0.0276 -15.70508,-0.45434 -17.98031,-1.44345 z"
       id="path1" />
  </g>
</svg>
