<svg xmlns="http://www.w3.org/2000/svg" width="1024" height="1024" viewBox="0 0 1024 1024" version="1.1">
	<path d="M 0 12 L 0 24 9.500 24 L 19 24 19 12 L 19 0 9.500 0 L 0 0 0 12 M 50 10 L 50 20 53 20 C 54.898 20, 56 19.488, 56 18.606 C 56 17.479, 56.813 17.401, 60.250 18.196 C 62.587 18.736, 67.115 18.954, 70.312 18.678 C 75.717 18.213, 76.201 18.348, 77.225 20.593 C 77.830 21.922, 77.965 23.344, 77.526 23.754 C 77.086 24.164, 76.524 23.935, 76.278 23.244 C 75.779 21.848, 74 22.541, 74 24.131 C 74 24.687, 75.237 24.998, 76.750 24.822 L 79.500 24.500 80 14.500 C 80.797 -1.432, 82.290 -0, 64.883 -0 L 50 0 50 10 M 171.232 3 C 171.232 4.925, 171.438 5.713, 171.689 4.750 C 171.941 3.788, 171.941 2.212, 171.689 1.250 C 171.438 0.288, 171.232 1.075, 171.232 3 M 202.286 4.500 C 202.294 7.250, 202.488 8.256, 202.718 6.736 C 202.947 5.216, 202.941 2.966, 202.704 1.736 C 202.467 0.506, 202.279 1.750, 202.286 4.500 M 232.310 5.500 C 232.315 8.800, 232.502 10.029, 232.725 8.232 C 232.947 6.435, 232.943 3.735, 232.715 2.232 C 232.486 0.729, 232.304 2.200, 232.310 5.500 M 291.272 4 C 291.272 6.475, 291.467 7.488, 291.706 6.250 C 291.944 5.012, 291.944 2.988, 291.706 1.750 C 291.467 0.512, 291.272 1.525, 291.272 4 M 884 6.167 C 884 13.625, 884.510 13.478, 885.447 5.750 C 885.914 1.892, 885.791 0, 885.072 0 C 884.425 0, 884 2.446, 884 6.167 M 917 12.500 L 917 25 922.750 25.005 C 925.913 25.008, 932.888 25.301, 938.250 25.656 L 948 26.302 948 41.151 L 948 56 932.500 56 L 917 56 917 52.218 C 917 48.794, 916.740 48.423, 914.250 48.292 C 912.737 48.213, 912.063 48.378, 912.750 48.658 C 913.438 48.938, 914 49.606, 914 50.142 C 914 50.679, 913.550 50.840, 913 50.500 C 912.450 50.160, 912 50.436, 912 51.112 C 912 51.789, 911.255 53.165, 910.345 54.171 C 908.767 55.915, 908.883 56, 912.845 56 C 917.494 56, 917.184 55.228, 917.269 67 C 917.310 72.821, 917.356 72.965, 917.704 68.380 L 918.092 63.259 922.686 62.630 C 926.344 62.128, 927.532 62.345, 928.519 63.694 C 929.676 65.278, 929.924 65.280, 932.298 63.724 C 934.498 62.283, 935.520 62.221, 939.919 63.266 C 942.714 63.930, 945 64.817, 945 65.237 C 945 65.656, 945.675 66, 946.500 66 C 947.629 66, 948 64.789, 948 61.098 C 948 56.636, 948.247 56.114, 950.750 55.291 C 953.957 54.236, 976.447 55.106, 977.670 56.332 C 978.127 56.790, 978.756 64.215, 979.069 72.832 C 979.383 81.449, 979.720 88.050, 979.818 87.500 C 979.931 86.870, 985.269 86.624, 994.249 86.834 C 1002.087 87.018, 1008.554 87.243, 1008.620 87.334 C 1008.740 87.499, 1009.938 113.893, 1009.979 117.250 C 1009.997 118.754, 1011.020 119, 1017.250 119.001 L 1024.500 119.003 1024.201 103.501 L 1023.902 88 1018.701 87.986 C 1008.427 87.959, 1009 88.941, 1009 71.383 L 1009 56 1016.500 56 L 1024 56 1024 70.667 C 1024 78.733, 1024.281 85.053, 1024.624 84.709 C 1024.967 84.366, 1024.916 70.810, 1024.511 54.584 L 1023.773 25.083 1016.637 24.792 L 1009.500 24.500 1009.763 12.250 L 1010.025 0 994.013 0 L 978 0 978 12.474 L 978 24.948 993.250 25.224 L 1008.500 25.500 1008.776 40.750 L 1009.052 56 994.169 56 L 979.285 56 978.642 49.853 C 978.289 46.473, 978 39.723, 978 34.853 L 978 26 972.154 26 C 968.938 26, 962.188 25.708, 957.154 25.350 L 948 24.701 948 12.350 L 948 0 932.500 0 L 917 0 917 12.500 M 163.543 1.931 C 163.226 2.443, 163.425 3.144, 163.984 3.490 C 164.543 3.835, 165 3.416, 165 2.559 C 165 0.802, 164.400 0.544, 163.543 1.931 M 142.079 7.583 C 142.127 8.748, 142.364 8.985, 142.683 8.188 C 142.972 7.466, 142.936 6.603, 142.604 6.271 C 142.272 5.939, 142.036 6.529, 142.079 7.583 M 291.079 10.583 C 291.127 11.748, 291.364 11.985, 291.683 11.188 C 291.972 10.466, 291.936 9.603, 291.604 9.271 C 291.272 8.939, 291.036 9.529, 291.079 10.583 M 19.630 25.790 C 19.343 26.254, 19.059 32.004, 18.999 38.567 C 18.855 54.267, 18.837 54, 20.059 54 C 20.641 54, 20.840 53.550, 20.500 53 C 20.160 52.450, 20.359 52, 20.941 52 C 21.523 52, 22 52.505, 22 53.122 C 22 53.890, 22.482 53.845, 23.525 52.980 C 24.363 52.284, 27.524 51.714, 30.548 51.714 C 36.839 51.714, 36.921 50.936, 30.731 49.968 C 28.071 49.553, 30.489 49.343, 37.244 49.404 C 43.153 49.457, 47.991 49.837, 47.994 50.250 C 47.997 50.663, 46.763 51.053, 45.250 51.118 L 42.500 51.237 45.500 52 C 47.468 52.501, 44.201 52.859, 36 53.042 C 22.343 53.346, 23.755 53.787, 39.776 54.221 L 50.051 54.500 49.553 52 C 49.279 50.625, 48.957 45.900, 48.836 41.500 C 48.568 31.678, 48.238 30.225, 46.147 29.670 C 44.982 29.360, 45.133 29.198, 46.662 29.116 C 48.118 29.038, 48.740 28.429, 48.567 27.250 C 48.340 25.694, 46.754 25.469, 34.232 25.223 C 26.487 25.071, 19.917 25.326, 19.630 25.790 M 144.813 25.683 C 145.534 25.972, 146.397 25.936, 146.729 25.604 C 147.061 25.272, 146.471 25.036, 145.417 25.079 C 144.252 25.127, 144.015 25.364, 144.813 25.683 M 173.143 31.500 C 173.143 37.646, 174.707 39.042, 175.190 33.327 C 175.377 31.107, 176.093 29.495, 177 29.251 C 178.333 28.893, 178.333 28.977, 177 30.008 C 175.806 30.931, 176.189 31.049, 178.875 30.584 C 180.731 30.263, 182.591 30, 183.008 30 C 183.425 30, 184.002 29.100, 184.290 28 C 184.769 26.169, 184.320 26, 178.978 26 L 173.143 26 173.143 31.500 M 909.917 26.413 C 909.512 26.814, 907.955 27.021, 893.750 28.559 C 887.325 29.254, 887.001 29.415, 887.015 31.895 C 887.024 33.379, 887.347 34.008, 887.765 33.357 C 888.169 32.729, 890.975 32.054, 894 31.857 L 899.500 31.500 900.827 35.692 L 902.154 39.885 907.882 39.804 L 913.610 39.722 914.805 34.582 C 915.462 31.755, 916 28.667, 916 27.721 C 916 25.743, 913.417 25.379, 912.662 27.250 C 912.259 28.250, 912.142 28.250, 912.079 27.250 C 912.003 26.042, 910.771 25.566, 909.917 26.413 M 185.459 28.067 C 184.286 29.964, 185.996 30.432, 187.738 28.690 C 189.297 27.132, 189.300 27, 187.773 27 C 186.863 27, 185.821 27.480, 185.459 28.067 M 198.597 27.686 C 200.403 28.042, 200.720 28.886, 200.879 33.748 C 201.140 41.736, 202 41.673, 202 33.667 C 202 27.028, 201.989 27.001, 199.250 27.136 C 197.133 27.241, 196.983 27.367, 198.597 27.686 M 892 30 L 887.500 30.700 891.500 30.750 C 893.700 30.778, 896.625 30.440, 898 30 C 901.158 28.989, 898.506 28.989, 892 30 M 911.651 33.468 C 911.341 34.275, 911.518 35.202, 912.044 35.527 C 912.570 35.852, 913 35.191, 913 34.059 C 913 31.644, 912.444 31.401, 911.651 33.468 M 45.079 38.583 C 45.127 39.748, 45.364 39.985, 45.683 39.188 C 45.972 38.466, 45.936 37.603, 45.604 37.271 C 45.272 36.939, 45.036 37.529, 45.079 38.583 M 1 70.482 L 1 86 10 86 L 19 86 18.993 70.750 L 18.987 55.500 9.993 55.232 L 1 54.964 1 70.482 M 51 56.799 C 51 57.239, 52.688 57.438, 54.750 57.242 C 61.181 56.630, 61.705 56.237, 56.250 56.116 C 53.362 56.052, 51 56.360, 51 56.799 M 147.280 56.736 C 149.909 56.943, 153.959 56.940, 156.280 56.731 C 158.601 56.521, 156.450 56.352, 151.500 56.355 C 146.550 56.358, 144.651 56.530, 147.280 56.736 M 143.158 60 C 143.158 61.375, 143.385 61.938, 143.662 61.250 C 143.940 60.563, 143.940 59.438, 143.662 58.750 C 143.385 58.063, 143.158 58.625, 143.158 60 M 920.813 61.683 C 921.534 61.972, 922.397 61.936, 922.729 61.604 C 923.061 61.272, 922.471 61.036, 921.417 61.079 C 920.252 61.127, 920.015 61.364, 920.813 61.683 M 16.625 62.798 C 16.354 63.237, 16.545 64.249, 17.051 65.048 C 17.768 66.182, 17.973 66.007, 17.985 64.250 C 18 61.937, 17.492 61.394, 16.625 62.798 M 920 65 C 920 65.550, 920.423 66, 920.941 66 C 921.459 66, 922.160 65.550, 922.500 65 C 922.840 64.450, 922.416 64, 921.559 64 C 920.702 64, 920 64.450, 920 65 M 15.250 67.820 C 12.590 68.197, 12.239 70.654, 14.750 71.311 C 16.356 71.730, 16.350 71.778, 14.677 71.884 C 13.542 71.956, 12.976 72.630, 13.177 73.667 C 14.042 78.127, 18.468 74.338, 17.812 69.701 C 17.579 68.057, 16.931 67.581, 15.250 67.820 M 943.750 86.662 C 944.438 86.940, 945.563 86.940, 946.250 86.662 C 946.938 86.385, 946.375 86.158, 945 86.158 C 943.625 86.158, 943.063 86.385, 943.750 86.662 M 25.500 88 L 19.500 88.664 26.309 88.832 C 30.633 88.939, 32.892 88.635, 32.500 88 C 32.160 87.450, 31.796 87.076, 31.691 87.168 C 31.586 87.261, 28.800 87.635, 25.500 88 M 37.250 87.728 C 39.313 87.944, 42.688 87.944, 44.750 87.728 C 46.813 87.513, 45.125 87.336, 41 87.336 C 36.875 87.336, 35.188 87.513, 37.250 87.728 M 894.500 88.918 C 895.600 89.352, 901 89.393, 906.500 89.008 L 916.500 88.308 904.500 88.217 C 897.697 88.166, 893.366 88.469, 894.500 88.918 M 948 103.167 C 948 111.508, 948.326 118.007, 948.725 117.609 C 949.123 117.210, 949.533 113.873, 949.635 110.192 C 949.736 106.511, 950.027 102.150, 950.281 100.500 C 950.535 98.850, 950.800 97.093, 950.871 96.594 C 950.942 96.096, 952.068 96.932, 953.374 98.452 C 955.145 100.512, 956.289 101.043, 957.874 100.540 C 959.136 100.140, 960 100.299, 960 100.933 C 960 101.520, 959.325 102, 958.500 102 C 957.675 102, 957 102.450, 957 103 C 957 103.550, 958.288 104, 959.861 104 C 962.374 104, 962.664 103.696, 962.245 101.500 C 961.907 99.731, 962.206 99, 963.268 99 C 964.094 99, 965.507 100.125, 966.408 101.500 C 967.701 103.473, 968.884 104, 972.023 104 C 975.996 104, 976 104.004, 976 108 C 976 111.600, 975.750 112, 973.500 112 C 972.125 112, 971 112.450, 971 113 C 971 113.550, 970.433 114, 969.741 114 C 969.048 114, 967.919 114.900, 967.232 116 C 966.033 117.920, 966.234 118, 972.242 118.001 L 978.500 118.003 978.200 103.001 L 977.900 88 962.950 88 L 948 88 948 103.167 M 958 96 C 955.673 96.745, 955.651 96.808, 957.691 96.900 C 958.896 96.955, 960.160 96.550, 960.500 96 C 960.840 95.450, 960.979 95.045, 960.809 95.100 C 960.639 95.155, 959.375 95.560, 958 96 M 1012.750 114.662 C 1013.438 114.940, 1014.563 114.940, 1015.250 114.662 C 1015.938 114.385, 1015.375 114.158, 1014 114.158 C 1012.625 114.158, 1012.063 114.385, 1012.750 114.662 M 969.813 115.683 C 970.534 115.972, 971.397 115.936, 971.729 115.604 C 972.061 115.272, 971.471 115.036, 970.417 115.079 C 969.252 115.127, 969.015 115.364, 969.813 115.683 M 8.500 119 L 0.500 119.633 8 119.801 C 12.125 119.894, 16.175 119.533, 17 119 C 17.825 118.467, 18.050 118.106, 17.500 118.199 C 16.950 118.291, 12.900 118.652, 8.500 119 M 225.750 118.706 C 226.988 118.944, 229.012 118.944, 230.250 118.706 C 231.488 118.467, 230.475 118.272, 228 118.272 C 225.525 118.272, 224.512 118.467, 225.750 118.706 M 979.136 127.837 C 979.211 132.602, 979.467 135.488, 979.706 134.250 C 980.267 131.337, 984 131.120, 984 134 C 984 135.290, 984.667 136, 985.878 136 C 988.529 136, 990.550 138.632, 989.173 140.291 C 988.378 141.250, 988.603 141.896, 990.051 142.800 C 991.123 143.469, 992 144.839, 992 145.843 C 992 147.389, 993.264 147.809, 1000.250 148.584 L 1008.500 149.500 1008.783 160.789 C 1008.957 167.732, 1009.438 171.847, 1010.033 171.480 C 1010.565 171.151, 1011.006 169.446, 1011.014 167.691 C 1011.021 165.936, 1011.288 163.529, 1011.606 162.342 C 1012.270 159.867, 1016 158.382, 1016 160.594 C 1016 161.367, 1016.681 162, 1017.514 162 C 1018.346 162, 1019.901 162.545, 1020.968 163.212 C 1022.036 163.879, 1023.092 164.216, 1023.315 163.962 C 1023.538 163.708, 1023.992 160.463, 1024.323 156.750 L 1024.925 150 1016.962 150 L 1009 150 1009 134.468 L 1009 118.936 994 119.055 L 979 119.174 979.136 127.837 M 922 121.131 C 923.375 121.684, 925.706 121.898, 927.180 121.607 C 928.772 121.293, 930.091 121.570, 930.430 122.289 C 930.871 123.225, 931.132 123.216, 931.583 122.250 C 932.301 120.712, 942.296 120.553, 945.066 122.035 C 946.588 122.850, 947 122.743, 947 121.535 C 947 120.226, 944.973 120.009, 933.250 120.063 C 922.999 120.111, 920.136 120.382, 922 121.131 M 227.892 127.450 C 213.464 131.426, 204.188 141.131, 199.604 157.043 C 198.191 161.951, 198.056 188.311, 198.266 419 L 198.500 675.500 201.135 681.120 C 206.378 692.301, 214.966 698.849, 227.933 701.553 C 238.617 703.781, 290.578 704.990, 399.499 705.545 C 452.848 705.816, 504.598 706.491, 514.499 707.043 C 550.256 709.037, 562.334 709.268, 568 708.067 C 571.647 707.293, 598.262 706.590, 647 705.979 C 724.217 705.012, 765.982 703.710, 775.060 701.989 C 782.159 700.642, 791.434 696.177, 796.750 691.546 C 801.799 687.148, 807.352 676.240, 808.906 667.667 C 809.630 663.672, 809.969 582.846, 809.982 411.076 C 810.001 167.715, 809.946 160.156, 808.111 154.822 C 803.817 142.341, 798.664 136.668, 786.168 130.665 L 777.500 126.500 505 126.340 C 287.439 126.213, 231.571 126.437, 227.892 127.450 M 979.079 147.583 C 979.127 148.748, 979.364 148.985, 979.683 148.188 C 979.972 147.466, 979.936 146.603, 979.604 146.271 C 979.272 145.939, 979.036 146.529, 979.079 147.583 M 968.756 150.664 C 969.447 150.943, 969.718 151.648, 969.357 152.231 C 968.923 152.933, 969.597 153.067, 971.351 152.627 C 973.280 152.143, 974 152.346, 974 153.374 C 974 154.513, 975.964 156, 977.468 156 C 977.636 156, 977.971 154.650, 978.213 153 L 978.654 150 973.077 150.079 C 970.010 150.122, 968.065 150.386, 968.756 150.664 M 1.079 153.250 C 1.122 154.488, 1.385 154.938, 1.662 154.250 C 1.940 153.563, 3.479 153, 5.083 153 C 6.688 153, 8 152.550, 8 152 C 8 151.450, 6.425 151, 4.500 151 C 1.514 151, 1.012 151.330, 1.079 153.250 M 948.699 152.657 C 949.066 153.615, 949.520 153.939, 949.708 153.376 C 949.895 152.814, 951.500 152.556, 953.274 152.804 C 957.650 153.416, 956.428 152.433, 951.765 151.590 C 948.485 150.997, 948.112 151.127, 948.699 152.657 M 957.813 151.683 C 958.534 151.972, 959.397 151.936, 959.729 151.604 C 960.061 151.272, 959.471 151.036, 958.417 151.079 C 957.252 151.127, 957.015 151.364, 957.813 151.683 M 963 152 C 964.976 153.277, 968.289 153.277, 967.500 152 C 967.160 151.450, 965.671 151.007, 964.191 151.015 C 962.086 151.027, 961.827 151.242, 963 152 M 236.896 163.743 C 236.587 165.996, 237.184 661.517, 237.496 661.829 C 239.727 664.060, 353.417 665.017, 580 664.712 C 660.025 664.605, 736.075 664.513, 749 664.508 L 772.500 664.500 772.457 480 C 772.433 378.525, 772.321 265.762, 772.207 229.416 L 772 163.333 504.500 163.160 C 357.375 163.065, 236.953 163.327, 236.896 163.743 M 976.922 176 C 976.609 178.443, 976.995 180.017, 978.200 181.214 C 979.150 182.156, 980.171 182.532, 980.470 182.049 C 980.768 181.566, 980.504 181.001, 979.883 180.794 C 979.261 180.587, 978.442 178.636, 978.062 176.459 L 977.371 172.500 976.922 176 M 983.500 181.984 C 987.242 183.572, 989.496 184.264, 991.990 184.590 C 993.868 184.835, 994.114 184.683, 992.990 183.973 C 991.893 183.279, 992.422 183.031, 995 183.031 C 997.338 183.031, 998.050 183.316, 997.143 183.890 C 996.197 184.490, 996.122 184.957, 996.893 185.434 C 997.502 185.810, 998.368 185.891, 998.818 185.613 C 999.268 185.334, 1000.823 186.208, 1002.274 187.554 C 1003.725 188.899, 1005.607 190, 1006.456 190 C 1007.524 190, 1008.008 191.001, 1008.030 193.250 C 1008.098 200.480, 1008.848 210.619, 1009.454 212.500 C 1010.034 214.303, 1010.824 214.468, 1017.488 214.173 C 1023.568 213.904, 1024.776 213.580, 1024.302 212.345 C 1023.852 211.171, 1022.286 210.915, 1017.113 211.172 L 1010.500 211.500 1009.868 198 C 1009.521 190.575, 1009.183 183.713, 1009.118 182.750 C 1009.012 181.170, 1007.661 181.007, 995.250 181.068 C 986.751 181.110, 982.264 181.460, 983.500 181.984 M 350.500 185.121 C 348.850 185.474, 335.091 185.817, 319.924 185.882 L 292.348 186 292.688 218.250 C 293.193 266.090, 293.293 267.858, 295.730 272.500 C 300.464 281.515, 311.667 289, 320.427 289 C 331.308 289, 345.364 279.213, 350.207 268.265 C 352.873 262.239, 354.143 240.951, 353.773 208.490 L 353.500 184.479 350.500 185.121 M 473.410 186.500 C 473.134 187.600, 473.042 205.825, 473.204 227 L 473.500 265.500 476.150 270.500 C 482.081 281.689, 492.425 288.341, 504.050 288.443 C 509.655 288.492, 511.683 287.965, 518.096 284.797 C 526.185 280.799, 530.684 276.229, 534.074 268.566 C 535.848 264.555, 536.065 260.802, 536.627 224.461 L 537.240 184.740 531.870 185.323 C 528.917 185.643, 514.667 185.590, 500.205 185.203 C 474.447 184.514, 473.900 184.541, 473.410 186.500 M 656.938 186.191 C 656.903 187.461, 656.930 204.875, 656.996 224.888 C 657.092 253.599, 657.420 262.168, 658.551 265.498 C 665.390 285.642, 682.421 294.658, 699.425 287.136 C 705.625 284.393, 712.520 277.706, 715.401 271.642 L 717.844 266.500 718.172 226.500 L 718.500 186.500 689 185.964 C 672.775 185.670, 658.938 185.081, 658.250 184.655 C 657.392 184.125, 656.980 184.606, 656.938 186.191 M 256.753 413.750 C 257.029 539.563, 257.461 642.725, 257.714 643 C 257.967 643.275, 277.147 643.507, 300.337 643.516 C 323.527 643.525, 434.878 643.654, 547.784 643.804 C 660.690 643.953, 753.390 643.877, 753.784 643.634 C 754.178 643.392, 754.175 618.737, 753.779 588.846 C 752.682 506.236, 753.451 274.030, 754.870 259.500 C 755.999 247.927, 755.108 212.899, 753.166 192.518 L 752.500 185.537 748.001 185.863 C 745.526 186.042, 743.229 186.629, 742.896 187.168 C 742.563 187.706, 742.026 203.976, 741.703 223.323 C 740.952 268.212, 739.987 274.146, 731.303 287.267 C 726.751 294.144, 718.538 301.689, 712.071 304.934 C 695.521 313.239, 675.257 312.117, 660.382 302.072 C 654.457 298.071, 646.724 288.723, 644.988 283.464 C 644.359 281.559, 643.456 280, 642.981 280 C 642.506 280, 640.651 282.752, 638.858 286.115 C 630.590 301.628, 618.042 309.532, 599.815 310.709 C 587.257 311.520, 576.706 308.293, 567.122 300.709 C 562.381 296.956, 555.385 288.058, 553.295 283.118 C 552.507 281.259, 551.541 280.134, 551.148 280.618 C 550.754 281.103, 548.691 284.107, 546.564 287.294 C 536.806 301.910, 521.998 310, 505 310 C 486.578 310, 468.977 299.755, 461.271 284.547 C 458.980 280.026, 458.601 279.700, 457.608 281.392 C 446.094 301.009, 434.680 308.881, 416.455 309.776 C 406.540 310.263, 398.070 308.640, 390.063 304.719 C 384.013 301.755, 373.734 291.382, 370.475 284.950 C 369.027 282.094, 367.521 280.149, 367.128 280.628 C 366.734 281.108, 363.879 284.875, 360.782 289 C 355.207 296.425, 348.769 302.093, 342 305.533 C 329.586 311.842, 312.121 311.367, 297.203 304.314 C 290.229 301.018, 279.339 290.132, 275.379 282.500 C 269.950 272.036, 269.754 270.051, 269.827 226.353 L 269.894 186.205 267.697 185.616 C 266.489 185.292, 263.419 185.021, 260.875 185.014 L 256.250 185 256.753 413.750 M 383.494 193.500 C 383.140 197.900, 382.996 216.125, 383.175 234 L 383.500 266.500 386.172 271.563 C 395.743 289.697, 417.953 293.975, 432.815 280.548 C 437.259 276.533, 441.141 270.474, 442.775 265 C 443.373 262.997, 444.064 245.141, 444.390 223.265 L 444.959 185.030 414.549 185.265 L 384.138 185.500 383.494 193.500 M 571.824 185.802 L 567.148 186.104 566.517 192.302 C 566.170 195.711, 566.046 213.350, 566.243 231.500 C 566.598 264.407, 566.607 264.516, 569.151 270.046 C 575.635 284.139, 587.511 291.028, 601.532 288.830 C 612.081 287.175, 620.196 281.387, 624.607 272.370 L 627.295 266.877 627.502 226.189 L 627.708 185.500 602.104 185.500 C 588.022 185.500, 574.396 185.636, 571.824 185.802 M 1007.083 245.283 C 1007.313 245.439, 1008.298 246.177, 1009.273 246.924 C 1010.816 248.107, 1010.964 248.070, 1010.416 246.641 C 1010.069 245.739, 1009.084 245, 1008.226 245 C 1007.369 245, 1006.854 245.127, 1007.083 245.283 M 504.128 335.030 C 502.141 335.864, 501.856 336.512, 502.378 339.013 C 502.720 340.656, 503.265 343.267, 503.588 344.815 C 504.074 347.141, 503.392 348.549, 499.663 352.917 C 494.637 358.805, 492.676 364.761, 492.670 374.149 C 492.667 379.155, 493.207 380.665, 497.423 387.429 C 501.834 394.506, 502.135 395.403, 501.571 399.780 C 500.750 406.151, 501.635 407.190, 507.564 406.811 C 511.857 406.537, 512.715 406.085, 514.804 403 C 516.808 400.043, 517.117 398.548, 516.797 393.359 C 516.489 388.349, 515.701 386.055, 512.517 380.897 C 507.753 373.178, 507.593 369.499, 511.766 363.648 C 515.779 358.021, 517.605 354.205, 518.409 349.765 C 519.235 345.202, 517.666 338.913, 515.128 336.616 C 512.792 334.502, 507.278 333.707, 504.128 335.030 M 473.797 339.680 C 471.594 340.260, 470.677 343.252, 471.522 347.101 C 472.117 349.808, 471.675 350.654, 467.658 354.503 C 462.475 359.470, 460 366.001, 460 374.714 C 460 380.984, 461.665 385.413, 466.494 391.992 C 469.423 395.982, 470 397.610, 470 401.884 L 470 407 474.927 407 C 479.060 407, 480.189 406.575, 481.927 404.365 C 485.313 400.061, 484.659 394.826, 479.456 384.562 C 474.143 374.084, 474.164 373.667, 480.607 361.349 C 484.016 354.832, 485 351.879, 485 348.164 C 485 340.706, 481.105 337.757, 473.797 339.680 M 539.282 341.118 C 538.654 341.746, 538.403 343.707, 538.708 345.590 C 539.191 348.564, 538.675 349.575, 534.148 354.528 C 530.683 358.320, 528.555 361.759, 527.522 365.238 C 524.633 374.968, 525.753 381.210, 531.982 390.090 C 535.511 395.120, 536 396.499, 536 401.409 L 536 407 540.326 407 C 545.913 407, 549.029 403.920, 549.730 397.704 C 550.156 393.925, 549.631 392.150, 546.114 385.475 C 540.690 375.181, 540.640 371.416, 545.816 363.405 C 552.358 353.281, 553.553 347.244, 549.927 342.635 C 548.351 340.630, 546.963 340, 544.127 340 C 542.077 340, 539.897 340.503, 539.282 341.118 M 305.323 357.601 C 304.972 358.515, 304.953 410.729, 305.280 473.632 L 305.875 588 292.327 588 L 278.779 588 279.153 598.930 C 279.359 604.942, 279.746 610.064, 280.013 610.313 C 280.492 610.759, 356.916 612.155, 377.138 612.088 C 382.837 612.069, 400.100 611.551, 415.500 610.936 C 436.653 610.092, 447.972 610.107, 461.785 610.998 C 481.059 612.242, 489.488 611.776, 490.394 609.416 C 490.693 608.637, 490.456 608, 489.868 608 C 489.214 608, 488.938 606.251, 489.157 603.500 C 489.353 601.025, 489.119 599, 488.635 599 C 488.151 599, 488.272 598.378, 488.903 597.617 C 489.788 596.550, 489.702 596.100, 488.526 595.648 C 487.686 595.326, 487 594.432, 487 593.660 C 487 592.721, 485.266 592.034, 481.750 591.581 C 478.863 591.209, 475.150 590.465, 473.500 589.927 C 471.850 589.390, 461.415 588.614, 450.311 588.203 C 439.208 587.792, 429.804 587.138, 429.415 586.748 C 429.026 586.359, 428.796 582.671, 428.905 578.554 C 429.014 574.436, 428.813 569.522, 428.459 567.634 C 427.874 564.512, 427.263 563.999, 421.732 561.983 C 418.387 560.763, 413.662 558.655, 411.233 557.299 L 406.817 554.833 407.158 569.590 L 407.500 584.346 404.313 585.185 C 402.560 585.647, 384.391 585.906, 363.936 585.762 L 326.746 585.500 326.244 532.089 L 325.742 478.678 339.529 479.339 C 347.112 479.702, 360.174 480, 368.555 480 L 383.795 480 384.147 488.537 C 384.404 494.745, 384.909 497.332, 386 498.021 C 389.159 500.018, 401.007 498.380, 402.696 495.713 C 403.119 495.046, 403.747 492.250, 404.091 489.500 L 404.718 484.500 404.859 489.683 C 404.974 493.909, 405.367 494.982, 406.991 495.497 C 409.464 496.282, 410.995 495.405, 411.015 493.191 C 411.029 491.721, 411.171 491.696, 412.102 493 C 412.963 494.205, 413.077 494.058, 412.680 492.250 C 412.409 491.012, 412.567 490, 413.031 490 C 413.496 490, 413.876 489.212, 413.877 488.250 C 413.878 487.288, 413.928 484.025, 413.988 481 C 414.049 477.916, 413.086 471.986, 411.795 467.500 L 409.493 459.500 394.496 459.500 C 386.248 459.500, 367.761 459.387, 353.413 459.250 L 327.325 459 326.663 418.333 C 326.298 395.967, 326.140 377.526, 326.312 377.355 C 326.483 377.184, 344.714 377.014, 366.825 376.978 L 407.027 376.912 407.464 392.073 C 407.704 400.411, 408.128 407.461, 408.406 407.740 C 408.685 408.018, 410.942 406.216, 413.423 403.735 C 416.155 401.002, 419.917 398.512, 422.966 397.415 L 428 395.605 428 375.975 L 428 356.346 366.980 356.142 C 310.904 355.956, 305.909 356.074, 305.323 357.601 M 583.756 357.220 C 583.615 357.636, 583.632 366.082, 583.794 375.988 C 584.068 392.823, 584.210 394, 585.961 394 C 586.991 394, 590.803 395.575, 594.431 397.500 C 598.060 399.425, 601.697 401, 602.514 401 C 603.750 401, 604 398.884, 604 388.441 C 604 378.704, 604.279 376.054, 605.240 376.648 C 605.921 377.069, 623.469 377.434, 644.235 377.457 L 681.991 377.500 682.245 481.239 C 682.456 566.883, 682.268 585.067, 681.168 585.489 C 679.237 586.230, 622.954 586.117, 612.154 585.350 L 603 584.701 602.991 576.100 C 602.987 571.370, 602.704 565.183, 602.364 562.351 L 601.745 557.202 597.043 559.975 C 594.456 561.500, 590.576 563.352, 588.420 564.090 C 586.264 564.828, 584.311 565.562, 584.080 565.719 C 583.849 565.877, 583.765 570.884, 583.892 576.846 L 584.124 587.686 571.905 588.343 C 565.185 588.704, 555.369 589.011, 550.093 589.024 C 544.817 589.037, 538.700 589.484, 536.500 590.017 C 534.300 590.550, 526.946 591.286, 520.158 591.652 C 512.308 592.076, 507.654 592.739, 507.372 593.473 C 507.128 594.109, 507.282 598.063, 507.714 602.260 L 508.500 609.892 538 610.460 C 554.225 610.773, 575.576 611.175, 585.446 611.354 C 597.925 611.579, 603.511 612.032, 603.780 612.839 C 604.283 614.349, 627.744 614.428, 631.676 612.933 C 633.517 612.233, 650.914 611.855, 682.272 611.834 L 730.062 611.802 729.781 600.151 L 729.500 588.500 716.750 588.220 C 709.061 588.051, 704 587.541, 704 586.935 C 704 586.383, 703.719 570.759, 703.376 552.215 C 703.033 533.672, 702.782 482.050, 702.819 437.500 L 702.887 356.500 643.449 356.482 C 610.759 356.473, 583.897 356.805, 583.756 357.220 M 447.327 413.674 L 430.154 414.047 429.506 420.273 C 428.458 430.339, 430.651 461.376, 433.007 469.829 C 437.034 484.269, 443.331 493.452, 457.127 504.999 L 462.754 509.709 451.627 510.350 C 445.507 510.702, 435.775 510.997, 430 511.004 C 424.225 511.011, 417.137 511.301, 414.250 511.648 C 409.161 512.259, 409 512.375, 409 515.429 C 409 521.078, 412.007 530.387, 415.574 535.785 C 419.405 541.582, 431.596 551.180, 440.981 555.789 L 446.500 558.500 506.866 558.287 C 575.170 558.047, 573.524 558.216, 583.970 550.363 C 591.217 544.915, 599.354 533.913, 601.514 526.642 C 603.609 519.586, 603.490 513.272, 601.250 512.645 C 600.288 512.376, 591.175 511.880, 581 511.542 C 570.825 511.205, 560.250 510.683, 557.500 510.383 L 552.500 509.836 560.967 501.168 C 565.624 496.401, 569.895 492.649, 570.458 492.830 C 571.022 493.012, 575.855 493.187, 581.200 493.218 C 589.794 493.269, 591.555 492.963, 596.435 490.575 C 602.514 487.601, 609.429 480.436, 612.871 473.545 C 617.969 463.336, 618.250 447.904, 613.496 439.170 C 608.949 430.815, 597.016 424, 586.935 424 C 583.198 424, 583.186 423.986, 582.503 419.018 L 581.817 414.037 575.659 414.160 C 572.271 414.228, 545.875 414.063, 517 413.792 C 488.125 413.522, 456.772 413.469, 447.327 413.674 M 448.358 433.510 C 447.343 436.155, 450.097 457.113, 452.592 465.720 C 459.542 489.705, 475.798 503.769, 500.345 507.036 C 520.254 509.685, 535.999 503.097, 548.045 487.078 C 557.208 474.892, 561.894 459.634, 561.965 441.750 L 562 433 539.750 432.870 C 527.513 432.799, 502.059 432.611, 483.187 432.452 C 455.167 432.217, 448.779 432.411, 448.358 433.510 M 581.567 447.250 C 581.965 451.239, 581.614 456.756, 580.598 462.500 C 578.321 475.376, 578.238 475, 583.350 475 C 588.797 475, 594.827 470.917, 597.577 465.366 C 600.270 459.932, 600.228 450.015, 597.500 446.999 C 594.571 443.760, 588.595 441, 584.512 441 L 580.944 441 581.567 447.250 M 466.212 526.735 L 432.923 527.027 436.695 531.539 C 438.769 534.021, 442.124 537.200, 444.149 538.603 L 447.832 541.156 504.166 541.624 C 545.921 541.971, 561.614 541.784, 564.803 540.901 C 567.323 540.204, 571.167 537.857, 574.081 535.238 C 583.399 526.860, 585.846 527.478, 542.167 527.173 C 520.900 527.025, 502.600 526.800, 501.500 526.673 C 500.400 526.546, 484.520 526.574, 466.212 526.735 M 1.250 559.689 C 2.212 559.941, 3.788 559.941, 4.750 559.689 C 5.713 559.438, 4.925 559.232, 3 559.232 C 1.075 559.232, 0.288 559.438, 1.250 559.689 M 474.711 793.312 C 474.434 794.033, 475.051 795.721, 476.081 797.062 L 477.956 799.500 477.978 795.750 C 478 792.011, 475.831 790.392, 474.711 793.312 M 1006.500 814 C 1006.840 814.550, 1007.541 815, 1008.059 815 C 1008.577 815, 1009 814.550, 1009 814 C 1009 813.450, 1008.298 813, 1007.441 813 C 1006.584 813, 1006.160 813.450, 1006.500 814 M 237.388 845.795 C 234.030 846.284, 229.842 851.422, 228.922 856.182 C 227.645 862.789, 227.803 933.737, 229.105 938.500 C 230.361 943.095, 232.506 945.849, 235.811 947.113 C 237.097 947.605, 282.761 947.967, 338.811 947.930 C 394.190 947.893, 498.902 947.876, 571.505 947.891 L 703.511 947.918 703.152 897.709 C 702.955 870.094, 702.577 847.275, 702.313 847 C 702.049 846.725, 679.033 846.673, 651.166 846.884 C 623.300 847.095, 593.975 847.222, 586 847.167 C 568.721 847.047, 360.523 846.024, 289.500 845.709 C 262 845.588, 238.549 845.626, 237.388 845.795 M 1005.750 847.662 C 1006.438 847.940, 1007.563 847.940, 1008.250 847.662 C 1008.938 847.385, 1008.375 847.158, 1007 847.158 C 1005.625 847.158, 1005.063 847.385, 1005.750 847.662 M 241.083 858.949 C 240.547 859.280, 240.049 875.488, 239.904 897.345 C 239.693 929.160, 239.879 935.315, 241.076 936.095 C 241.904 936.634, 257.891 936.913, 279.287 936.761 C 309.458 936.547, 316.229 936.249, 316.935 935.106 C 317.883 933.570, 318.291 861.922, 317.365 859.510 C 316.864 858.204, 311.862 858.031, 279.399 858.191 C 258.835 858.293, 241.592 858.634, 241.083 858.949 M 244.812 863.750 C 244.709 864.163, 244.597 879.687, 244.562 898.249 L 244.500 931.997 278.140 931.999 L 311.780 932 312.357 911.750 C 312.674 900.612, 312.836 885.383, 312.717 877.906 L 312.500 864.312 288.588 863.656 C 257.403 862.801, 245.043 862.827, 244.812 863.750 M 366 866.706 C 360.649 868.662, 357 875.046, 357 882.450 L 357 888 352.631 888 C 348.359 888, 348.248 888.083, 347.642 891.750 C 346.471 898.832, 346.904 922.823, 348.217 923.634 C 350.084 924.788, 395.823 925.096, 396.525 923.960 C 397.089 923.046, 395.486 898.256, 394.409 891.250 C 393.934 888.163, 393.693 888, 389.597 888 L 385.285 888 384.647 881.895 C 383.843 874.204, 382.383 871.169, 378.102 868.287 C 374.852 866.100, 369.553 865.407, 366 866.706 M 271.389 871.042 C 268.937 871.961, 268.411 873.077, 267.467 879.372 L 266.773 884 260.778 884 L 254.783 884 255.433 886.750 C 257.211 894.274, 262.121 908.773, 263.597 910.859 C 265.202 913.128, 265.662 913.202, 275.734 912.829 C 285.774 912.458, 286.284 912.331, 288.185 909.721 C 289.335 908.142, 291.119 907, 292.436 907 C 293.683 907, 296.233 905.972, 298.102 904.716 C 301.204 902.630, 301.526 901.943, 301.797 896.826 L 302.093 891.221 298.297 890.329 C 294.948 889.542, 294.462 889.046, 294.180 886.123 C 293.865 882.870, 293.781 882.816, 289.532 883.155 L 285.204 883.500 284.782 877.671 C 284.524 874.092, 283.809 871.492, 282.930 870.936 C 279.801 868.955, 279.094 869.949, 278.796 876.750 L 278.500 883.500 275.359 883.805 L 272.219 884.110 273.180 879.602 C 273.709 877.123, 273.997 874.005, 273.821 872.673 C 273.555 870.667, 273.138 870.387, 271.389 871.042 M 365.998 873.801 C 364.113 875.327, 363.561 876.922, 363.202 881.880 L 362.755 888.057 370.963 887.779 L 379.171 887.500 378.548 882.500 C 378.205 879.750, 377.110 876.375, 376.114 875 C 373.791 871.795, 369.154 871.245, 365.998 873.801 M 1009.015 873.691 C 1009.024 874.136, 1009.467 875.175, 1010 876 C 1010.835 877.293, 1010.971 877.266, 1010.985 875.809 C 1010.993 874.879, 1010.550 873.840, 1010 873.500 C 1009.450 873.160, 1009.007 873.246, 1009.015 873.691 M 725 875.998 C 722.156 876.406, 721.444 876.977, 721.203 879.045 C 720.918 881.494, 721.108 881.589, 726.203 881.545 C 731.226 881.502, 731.516 881.639, 731.811 884.198 C 732.075 886.481, 731.487 887.221, 727.998 889.001 C 723.095 891.502, 722.988 893.981, 727.728 895.209 C 731.411 896.164, 733.416 899.113, 732.451 902.155 C 731.847 904.058, 731.290 904.178, 725.895 903.568 C 720.160 902.919, 720 902.966, 720 905.290 C 720 908.221, 723.445 910, 729.124 910 C 734.678 910, 738.996 905.774, 739.009 900.327 C 739.016 897.222, 738.403 895.989, 735.759 893.792 L 732.500 891.085 735.250 888.502 C 737.323 886.554, 738 884.975, 738 882.082 C 738 879.972, 737.438 877.793, 736.750 877.241 C 735.147 875.953, 729.485 875.354, 725 875.998 M 743 882.272 C 743 886.351, 743.292 894.459, 743.649 900.290 L 744.297 910.891 747.399 910.359 C 753.180 909.367, 753.317 909.219, 751.075 906.368 C 749.252 904.050, 749 902.353, 749 892.365 C 749 881.777, 749.133 881, 750.943 881 C 755.171 881, 757.258 888.093, 754.965 894.670 C 754.345 896.448, 754.276 898.572, 754.792 899.967 C 755.633 902.241, 755.710 902.206, 758.008 898.487 C 760.464 894.514, 761.751 886.128, 760.606 881.564 C 759.799 878.350, 756.034 876.441, 748.750 875.555 L 743 874.856 743 882.272 M 1017.250 875.689 C 1018.212 875.941, 1019.788 875.941, 1020.750 875.689 C 1021.712 875.438, 1020.925 875.232, 1019 875.232 C 1017.075 875.232, 1016.288 875.438, 1017.250 875.689 M 766 889.351 C 766 904.431, 766.989 908.708, 770.689 909.637 C 774.161 910.508, 784.166 909.350, 785.013 907.978 C 785.399 907.355, 785.792 904.010, 785.887 900.547 C 786.046 894.766, 785.873 894.199, 783.780 893.638 C 778.193 892.141, 776.103 894.247, 779.477 897.975 C 780.289 898.872, 781.077 900.708, 781.227 902.053 C 781.450 904.052, 781.005 904.557, 778.799 904.812 C 777.314 904.983, 775.177 904.630, 774.049 904.026 C 772.222 903.049, 772.002 901.985, 772.015 894.215 C 772.035 882.997, 772.700 881.845, 777.619 884.494 C 779.651 885.589, 781.521 887.275, 781.774 888.242 C 782.636 891.542, 785 890.217, 785 886.434 C 785 879.307, 780.737 876, 771.550 876 L 766 876 766 889.351 M 1017.250 877.689 C 1018.212 877.941, 1019.788 877.941, 1020.750 877.689 C 1021.712 877.438, 1020.925 877.232, 1019 877.232 C 1017.075 877.232, 1016.288 877.438, 1017.250 877.689 M 534.357 879.954 C 531.352 881.219, 529 884.918, 529 888.378 C 529 890.619, 530.181 892.398, 534 895.909 C 537.011 898.677, 539 901.357, 539 902.646 C 539 905.159, 536.416 906.526, 535.614 904.437 C 535.309 903.641, 533.758 903, 532.138 903 C 526.474 903, 527.349 908.970, 533.301 910.934 C 540.184 913.206, 546 908.463, 546 900.580 C 546 897.408, 545.458 896.715, 540.500 893.543 C 534.853 889.931, 533.902 888.156, 536.469 886.026 C 537.653 885.043, 538.457 885.214, 540.604 886.903 C 544.350 889.850, 545.890 889.627, 545.124 886.250 C 544.781 884.737, 544.037 882.721, 543.471 881.769 C 542.232 879.685, 537.318 878.706, 534.357 879.954 M 550.069 879.958 C 548.535 880.905, 555.487 907.790, 557.915 910.300 C 559.591 912.033, 559.734 912.033, 561.780 910.300 C 563.310 909.003, 564.896 904.586, 567.452 894.500 C 569.403 886.800, 571 880.163, 571 879.750 C 571 879.337, 569.687 879, 568.082 879 C 565.205 879, 565.134 879.135, 563.015 888.750 C 559.987 902.484, 559.987 902.484, 557.877 892.500 C 556.831 887.550, 555.741 882.761, 555.455 881.858 C 554.860 879.984, 551.783 878.898, 550.069 879.958 M 628.008 879.893 C 622.857 881.326, 621.467 888.733, 625.687 892.257 C 634.387 899.521, 635.519 900.863, 634.433 902.630 C 632.500 905.777, 630.373 906.515, 628.535 904.678 C 625.966 902.109, 623 902.511, 623 905.429 C 623 909.137, 625.548 911, 630.617 911 C 636.773 911, 640 907.808, 640 901.720 C 640 896.955, 638.209 894.603, 632.313 891.624 C 628.521 889.708, 627.789 888.715, 628.604 886.590 C 629.572 884.068, 633.517 884.646, 634.818 887.500 C 636.261 890.667, 637.787 890.696, 638.571 887.572 C 639.445 884.089, 638.341 881.476, 635.434 880.152 C 632.665 878.890, 631.727 878.858, 628.008 879.893 M 643 880.290 C 643 880.999, 643.733 884.262, 644.629 887.540 C 645.525 890.818, 647.249 897.325, 648.462 902 C 650.562 910.096, 650.806 910.514, 653.617 910.797 L 656.568 911.094 660.205 898.297 C 662.206 891.259, 664.146 884.003, 664.517 882.174 C 665.164 878.988, 665.074 878.862, 662.385 879.174 C 659.690 879.487, 659.477 879.927, 657.039 890.247 C 655.643 896.158, 654.245 900.996, 653.933 900.997 C 653.621 900.999, 652.558 897.573, 651.570 893.384 C 648.231 879.221, 648.137 879, 645.453 879 C 644.104 879, 643 879.580, 643 880.290 M 437.388 880.980 C 434.615 882.101, 431 886.759, 431 889.212 C 431 891.389, 435 895.477, 440.108 898.521 C 444.293 901.014, 444.610 904.059, 440.791 905.080 C 438.950 905.573, 437.710 905.356, 436.919 904.402 C 436.279 903.631, 434.685 903, 433.378 903 C 429.953 903, 430.306 906.238, 434.077 909.411 C 438.358 913.013, 443.247 912.907, 447.026 909.128 C 452.973 903.180, 451.670 898.071, 442.897 892.940 C 440.480 891.526, 438.364 889.650, 438.194 888.770 C 437.730 886.361, 441.763 885.476, 443.997 887.498 C 445.980 889.292, 449.093 889.225, 449.709 887.376 C 449.914 886.758, 448.899 884.845, 447.452 883.126 C 444.738 879.900, 441.677 879.247, 437.388 880.980 M 453.365 881.491 C 453.050 882.312, 453.967 887.599, 455.403 893.241 C 456.839 898.884, 458.011 904.443, 458.007 905.595 C 457.992 910.077, 465.047 912.810, 468.282 909.575 C 469.665 908.192, 473.635 891.076, 474.214 884 C 474.454 881.068, 474.150 880.450, 472.343 880.193 C 470.541 879.936, 469.825 880.840, 467.988 885.693 C 466.778 888.887, 465.546 893.234, 465.249 895.354 C 464.719 899.133, 464.653 899.036, 461.863 890.419 C 460.299 885.585, 458.452 881.270, 457.759 880.830 C 455.798 879.585, 453.992 879.857, 453.365 881.491 M 484.325 881.459 C 479.955 883.360, 478.117 886.591, 477.377 893.670 C 476.598 901.116, 478.089 906.056, 482.143 909.467 C 485.470 912.266, 487.939 912.548, 494.557 910.881 L 499 909.763 499 902.940 C 499 899.188, 498.663 895.937, 498.250 895.715 C 497.837 895.493, 495.587 895.514, 493.250 895.761 C 489.964 896.108, 489 896.625, 489 898.038 C 489 899.043, 489.900 900.151, 491 900.500 C 493.979 901.445, 493.538 904.827, 490.331 905.632 C 486.157 906.679, 484 903.258, 484 895.589 C 484 892.109, 484.525 888.875, 485.200 888.200 C 486.654 886.746, 491.641 886.610, 492.500 888 C 493.488 889.599, 497.003 889.155, 497.698 887.344 C 498.519 885.206, 492.827 879.985, 489.734 880.039 C 488.505 880.061, 486.071 880.700, 484.325 881.459 M 577.127 882.096 C 573.953 885.053, 573 888.172, 573 895.597 C 573 907.957, 576.986 912.645, 586.485 911.459 L 592.080 910.760 591.790 903.130 L 591.500 895.500 588.123 895.177 C 583.395 894.725, 582.068 896.379, 584.813 899.301 C 588.855 903.604, 586.603 907.507, 581.436 905.153 C 579.157 904.114, 579 903.539, 579 896.221 C 579 891.471, 579.471 887.929, 580.200 887.200 C 582.111 885.289, 585.788 885.756, 586.500 888 C 587.732 891.881, 591 889.756, 591 885.073 C 591 880.137, 581.434 878.084, 577.127 882.096 M 672.655 881.133 C 667.905 883.895, 665.496 896.464, 668.390 903.390 C 670.867 909.320, 673.582 911, 680.689 911 L 687 911 687 903 L 687 895 682.500 895 C 677.570 895, 676.541 896.608, 680.062 898.807 C 681.490 899.699, 682.028 900.925, 681.812 902.797 C 681.411 906.269, 677.922 906.922, 675.061 904.061 C 673.384 902.384, 673 900.734, 673 895.200 C 673 891.244, 673.502 887.898, 674.200 887.200 C 675.710 885.690, 682.230 885.630, 683.713 887.113 C 684.325 887.725, 685.351 887.901, 685.994 887.504 C 687.367 886.655, 686.431 881.895, 684.671 880.775 C 682.922 879.663, 674.767 879.906, 672.655 881.133 M 259.492 888.013 C 258.655 889.368, 261.659 899.568, 264.274 904.250 L 266.368 908 273.493 908 C 277.642 908, 281.310 907.478, 282.275 906.750 C 284.277 905.240, 288.600 895.650, 289.542 890.628 L 290.223 887 275.170 887 C 266.084 887, 259.870 887.402, 259.492 888.013 M 293.102 897.136 C 291.731 901.071, 292.896 902.661, 295.953 901.025 C 297.506 900.194, 298.032 899.108, 297.810 897.191 C 297.351 893.232, 294.475 893.199, 293.102 897.136 M 366.700 898.779 C 365.211 900.425, 365.275 900.885, 367.545 904.881 C 368.895 907.259, 370.010 909.946, 370.022 910.852 C 370.034 911.758, 370.863 910.700, 371.863 908.500 C 372.864 906.300, 374.444 903.870, 375.375 903.100 C 376.950 901.797, 376.914 901.537, 374.859 899.350 C 372.232 896.554, 368.923 896.322, 366.700 898.779 M 18.172 910.348 C 18.404 912.339, 18.123 914.165, 17.547 914.405 C 16.971 914.646, 17.288 914.878, 18.250 914.921 C 19.593 914.982, 20 914.200, 20 911.559 C 20 909.666, 19.494 907.805, 18.875 907.423 C 18.094 906.940, 17.879 907.836, 18.172 910.348 M 1008.175 908.250 C 1008.079 909.212, 1007.550 910, 1007 910 C 1006.450 910, 1006 911.087, 1006 912.417 C 1006 913.746, 1005.438 915.060, 1004.750 915.338 C 1003.975 915.650, 1004.138 915.872, 1005.179 915.921 C 1008.198 916.063, 1009.996 918.948, 1010.102 923.821 L 1010.205 928.500 1011.068 925 C 1011.543 923.075, 1011.713 920.877, 1011.446 920.116 C 1011.069 919.042, 1011.754 918.861, 1014.502 919.307 C 1016.605 919.648, 1017.809 919.499, 1017.463 918.941 C 1017.144 918.423, 1015.614 918, 1014.063 918 C 1010.397 918, 1009.225 916.454, 1008.743 910.980 C 1008.527 908.516, 1008.271 907.288, 1008.175 908.250 M 0.618 911.715 C 0.278 912.055, -0 912.933, -0 913.667 C -0 914.653, 1.627 914.958, 6.250 914.837 L 12.500 914.674 7 914 C 3.014 913.511, 2.440 913.281, 4.917 913.163 C 6.796 913.073, 8.146 912.840, 7.917 912.644 C 7.015 911.873, 1.200 911.133, 0.618 911.715 M 253.250 919.031 C 252.012 919.529, 251 920.625, 251 921.468 C 251 922.795, 253.774 922.999, 271.750 922.991 C 297.451 922.981, 303 922.425, 303 919.861 C 303 918.097, 301.763 918.003, 279.250 918.063 C 266.188 918.098, 254.488 918.534, 253.250 919.031 M 1010.195 933.500 C 1010.215 935.150, 1010.439 935.704, 1010.693 934.731 C 1010.947 933.758, 1010.930 932.408, 1010.656 931.731 C 1010.382 931.054, 1010.175 931.850, 1010.195 933.500 M 1021.137 936.894 C 1019.986 937.623, 1019.986 937.842, 1021.137 938.300 C 1021.887 938.598, 1020.925 938.922, 1019 939.021 C 1015.755 939.186, 1015.682 939.258, 1018 940 C 1022.680 941.499, 1024 941.169, 1024 938.500 C 1024 935.853, 1023.353 935.490, 1021.137 936.894 M -0 951.640 C -0 956.459, 0.413 959, 1.250 959.338 C 2.250 959.741, 2.250 959.858, 1.250 959.921 C 0.447 959.972, 0 961.609, 0 964.500 C 0 968.742, 0.157 969, 2.750 969 L 5.500 969.001 5.332 960.037 C 5.239 955.107, 4.875 950.607, 4.523 950.037 C 4.157 949.445, 4.872 948.949, 6.191 948.882 C 8.126 948.783, 8.015 948.640, 5.500 948 L 2.500 947.237 5.250 947.118 C 9.442 946.938, 8.527 945.260, 4 944.829 L -0 944.447 -0 951.640 M 9 946 C 9 946.550, 10.462 946.968, 12.250 946.930 C 14.974 946.871, 15.176 946.720, 13.500 946 C 10.737 944.813, 9 944.813, 9 946 M 993.762 945.707 C 995.006 945.946, 996.806 945.937, 997.762 945.687 C 998.718 945.437, 997.700 945.241, 995.500 945.252 C 993.300 945.263, 992.518 945.468, 993.762 945.707 M 1001 946 C 1001.825 946.533, 1003.850 947.050, 1005.500 947.148 C 1007.267 947.253, 1006.240 947.603, 1003 948 C 997.853 948.631, 997.766 948.684, 1001.639 948.837 L 1005.778 949 1005.778 955.708 C 1005.778 963.958, 1005.404 965, 1002.443 965 C 1001.154 965, 999.659 965.786, 999.122 966.747 C 998.420 968.002, 996.363 968.663, 991.822 969.094 C 986.134 969.635, 986.520 969.710, 995.668 969.848 C 1007.645 970.027, 1009 970.415, 1009 973.666 C 1009 975.277, 1009.399 975.871, 1010.165 975.398 C 1010.805 975.002, 1014.290 974.786, 1017.909 974.917 C 1025.899 975.207, 1025.727 974.448, 1017.635 973.707 C 1014.410 973.412, 1011.260 972.661, 1010.635 972.038 C 1009.943 971.347, 1009.372 965.854, 1009.171 957.953 L 1008.841 945 1004.171 945.015 C 1000.786 945.026, 999.913 945.298, 1001 946 M 52.750 946.662 C 53.438 946.940, 54.563 946.940, 55.250 946.662 C 55.938 946.385, 55.375 946.158, 54 946.158 C 52.625 946.158, 52.063 946.385, 52.750 946.662 M 51.503 950.297 C 51.094 951.835, 51.039 953.372, 51.380 953.713 C 51.721 954.054, 52.007 953.246, 52.015 951.917 C 52.025 950.425, 52.322 949.958, 52.792 950.697 C 53.294 951.487, 54.055 951.577, 55.026 950.963 C 56.280 950.170, 56.252 950.028, 54.833 950.015 C 53.917 950.007, 52.960 949.438, 52.707 948.750 C 52.454 948.063, 51.912 948.758, 51.503 950.297 M 17 969.110 C 15.734 970.020, 15.773 970.101, 17.250 969.626 C 18.212 969.316, 19 969.471, 19 969.971 C 19 970.471, 17.313 971.056, 15.250 971.272 L 11.500 971.664 15.750 971.832 C 19.389 971.976, 20 971.713, 20 970 C 20 967.758, 19.207 967.522, 17 969.110 M 7.813 969.683 C 8.534 969.972, 9.397 969.936, 9.729 969.604 C 10.061 969.272, 9.471 969.036, 8.417 969.079 C 7.252 969.127, 7.015 969.364, 7.813 969.683 M 0 971 C 0 971.550, 1.237 971.993, 2.750 971.985 C 4.893 971.973, 5.169 971.755, 4 971 C 2.043 969.736, 0 969.736, 0 971 M 947.116 970.695 C 947.050 971.379, 944.966 972.051, 942.250 972.265 L 937.500 972.640 942.750 972.820 L 948 973 948.116 977.250 C 948.180 979.587, 948.431 980.600, 948.675 979.500 C 949.642 975.130, 950.007 974.607, 951.233 975.833 C 951.875 976.475, 952.872 976.993, 953.450 976.985 C 954.028 976.976, 953.825 976.533, 953 976 C 951.804 975.227, 951.989 975.028, 953.917 975.015 C 955.246 975.007, 956.060 975.273, 955.727 975.606 C 955.393 975.940, 956.050 977.177, 957.186 978.356 C 958.651 979.877, 959.387 980.129, 959.717 979.225 C 959.974 978.524, 961.682 977.324, 963.513 976.559 C 966.245 975.417, 967.711 975.388, 971.672 976.397 L 976.500 977.626 976.786 986.687 C 977.051 995.084, 976.923 995.787, 975.036 996.280 C 973.916 996.573, 973 997.530, 973 998.406 C 973 999.644, 971.828 1000.032, 967.750 1000.142 C 962.612 1000.281, 962.585 1000.297, 966.500 1000.892 C 968.700 1001.226, 972.144 1001.344, 974.154 1001.154 C 977.640 1000.824, 977.827 1000.617, 978.212 996.654 C 978.433 994.369, 978.423 987.757, 978.188 981.960 L 977.760 971.421 972.130 972.126 C 969.034 972.514, 962.370 972.869, 957.323 972.916 C 949.382 972.989, 948.085 972.764, 947.689 971.250 C 947.438 970.288, 947.180 970.038, 947.116 970.695 M 32.500 973.741 C 23.043 974.236, 21.266 974.831, 20.443 977.776 C 20.024 979.274, 19.633 985.388, 19.573 991.362 L 19.465 1002.224 24.483 1001.620 C 27.242 1001.289, 34.112 1001.013, 39.750 1001.009 L 50 1001 49.970 996.250 C 49.945 992.390, 49.739 991.845, 48.870 993.339 C 48.282 994.351, 48.008 996.263, 48.262 997.589 C 48.692 999.839, 48.431 1000, 44.361 1000 C 41.265 1000, 40 999.589, 40 998.583 C 40 997.804, 39.438 996.940, 38.750 996.662 C 37.750 996.259, 37.750 996.142, 38.750 996.079 C 39.438 996.036, 40 995.133, 40 994.073 C 40 993.014, 40.788 991.972, 41.750 991.758 C 42.712 991.544, 40.013 991.570, 35.750 991.816 C 30.613 992.112, 28 991.901, 28 991.188 C 28 989.585, 32.024 987.072, 33.615 987.682 C 34.518 988.029, 35 987.499, 35 986.157 C 35 985.025, 35.766 983.671, 36.703 983.146 C 38.104 982.362, 38.181 981.923, 37.138 980.667 C 36.086 979.399, 36.211 978.958, 37.870 978.070 C 38.969 977.481, 40.825 977, 41.993 977 C 43.162 977, 43.840 976.550, 43.500 976 C 43.130 975.402, 44.379 975, 46.608 975 C 48.657 975, 50.146 974.836, 49.917 974.635 C 49.237 974.041, 37.896 973.458, 32.500 973.741 M 81.432 973.902 C 81.211 974.122, 82.091 974.854, 83.389 975.527 C 85.928 976.844, 92.072 977.281, 89.994 975.996 C 89.058 975.418, 89.092 975.095, 90.137 974.610 C 90.887 974.262, 90.487 974.166, 89.250 974.395 C 88.013 974.625, 87 974.517, 87 974.156 C 87 973.454, 82.104 973.230, 81.432 973.902 M 913 973.933 C 913 974.486, 912.251 974.650, 911.336 974.299 C 910.217 973.869, 909.909 974.043, 910.395 974.830 C 910.902 975.651, 909.980 975.970, 907.309 975.900 C 903.931 975.812, 903.783 975.710, 906 975 C 908.379 974.238, 908.344 974.195, 905.281 974.100 C 902.896 974.026, 902.203 974.366, 902.604 975.412 C 902.943 976.295, 905.083 976.972, 908.323 977.221 C 911.170 977.439, 914.148 977.816, 914.941 978.059 C 917.243 978.764, 917.347 975.256, 915.060 974.032 C 913.747 973.330, 913 973.294, 913 973.933 M 36.269 975.693 C 37.242 975.947, 38.592 975.930, 39.269 975.656 C 39.946 975.382, 39.150 975.175, 37.500 975.195 C 35.850 975.215, 35.296 975.439, 36.269 975.693 M 966 977.893 C 966 979.625, 969.362 980.067, 970.892 978.537 C 972.274 977.154, 972.106 977, 969.214 977 C 967.446 977, 966 977.402, 966 977.893 M 886.158 982 C 886.158 983.375, 886.385 983.938, 886.662 983.250 C 886.940 982.563, 886.940 981.438, 886.662 980.750 C 886.385 980.063, 886.158 980.625, 886.158 982 M 21.079 995.691 C 21.036 997.996, 21.356 1000.102, 21.791 1000.371 C 22.226 1000.640, 22.418 999.204, 22.219 997.180 C 21.672 991.646, 21.168 990.987, 21.079 995.691 M 1008 993.883 C 1008 995.914, 1005.453 996.964, 1000.472 996.986 C 998.733 996.994, 996.742 997.821, 995.794 998.928 C 994.241 1000.741, 990.563 1001.626, 982 1002.246 L 978.500 1002.500 978.212 1012.412 C 978.053 1017.863, 978.278 1022.679, 978.712 1023.113 C 979.145 1023.547, 979.342 1019.867, 979.150 1014.935 L 978.800 1005.968 991.083 1006.501 C 997.839 1006.794, 1003.573 1007.240, 1003.826 1007.492 C 1004.078 1007.745, 1003.792 1008.546, 1003.189 1009.272 C 1001.846 1010.890, 1002.224 1015.360, 1003.872 1017.345 C 1004.579 1018.198, 1004.814 1019.891, 1004.435 1021.404 C 1003.858 1023.702, 1004.083 1024, 1006.392 1024 L 1009 1024 1009 1008 C 1009 999.200, 1008.775 992, 1008.500 992 C 1008.225 992, 1008 992.848, 1008 993.883 M 914.355 998.518 C 914.035 999.352, 913.261 999.974, 912.636 999.899 C 910.230 999.611, 908.905 1000.038, 909.453 1000.924 C 909.767 1001.433, 909.231 1002.055, 908.262 1002.308 C 907.293 1002.561, 908.638 1002.820, 911.250 1002.884 C 915.887 1002.997, 916 1002.929, 916 1000 C 916 996.749, 915.282 996.102, 914.355 998.518 M 112.764 1003.544 C 113.172 1005.682, 113.775 1005.878, 120.853 1006.177 C 131.201 1006.614, 140.451 1005.761, 140.719 1004.344 C 140.867 1003.558, 137.509 1002.992, 130.219 1002.574 C 124.323 1002.236, 117.885 1001.797, 115.911 1001.597 C 112.625 1001.264, 112.359 1001.428, 112.764 1003.544 M 0 1012.893 L 0 1024 10.451 1024 L 20.903 1024 20.315 1015.250 C 19.496 1003.057, 19.450 1003, 10.547 1003 C 6.486 1003, 2.452 1002.727, 1.582 1002.393 C 0.198 1001.862, 0 1003.176, 0 1012.893 M 51 1006.200 C 51 1009.304, 51.293 1010.107, 52.122 1009.278 C 52.739 1008.661, 53.938 1008.423, 54.786 1008.748 C 55.634 1009.074, 56.072 1008.926, 55.760 1008.420 C 55.447 1007.914, 57.283 1007.470, 59.845 1007.433 C 65.618 1007.349, 81 1004.022, 81 1002.858 C 81 1002.386, 74.250 1002, 66 1002 L 51 1002 51 1006.200 M 855 1005.750 C 855 1007.336, 856.356 1007.500, 869.463 1007.500 C 883.125 1007.500, 883.948 1007.611, 884.327 1009.500 C 884.547 1010.600, 884.789 1009.824, 884.864 1007.775 C 884.995 1004.197, 884.901 1004.087, 882.500 1005 C 880.893 1005.611, 880 1005.602, 880 1004.975 C 880 1004.394, 874.955 1004, 867.500 1004 C 856.262 1004, 855 1004.177, 855 1005.750 M 943.915 1005.418 C 943.647 1005.687, 937.481 1005.990, 930.214 1006.092 L 917 1006.277 917 1015.139 C 917 1020.924, 917.382 1024, 918.101 1024 C 918.851 1024, 919.033 1021.684, 918.670 1016.750 C 918.323 1012.020, 918.415 1010.717, 918.937 1013 C 919.489 1015.414, 919.778 1015.802, 919.868 1014.250 C 920.007 1011.872, 921.525 1011.490, 926 1012.707 C 928.387 1013.356, 928.404 1013.412, 926.374 1013.944 C 924.644 1014.397, 924.405 1014.918, 925.092 1016.750 C 925.710 1018.399, 926.740 1019, 928.949 1019 C 931.329 1019, 932.094 1019.525, 932.589 1021.500 C 933.188 1023.886, 933.556 1024, 940.646 1024 L 948.075 1024 947.788 1014.761 C 947.557 1007.367, 947.191 1005.464, 945.951 1005.227 C 945.099 1005.064, 944.183 1005.150, 943.915 1005.418 M 929 1011 C 929 1012.100, 929.450 1013, 930 1013 C 930.550 1013, 931 1012.100, 931 1011 C 931 1009.900, 930.550 1009, 930 1009 C 929.450 1009, 929 1009.900, 929 1011 M 884.320 1018 C 884.320 1021.575, 884.502 1023.038, 884.723 1021.250 C 884.945 1019.462, 884.945 1016.538, 884.723 1014.750 C 884.502 1012.962, 884.320 1014.425, 884.320 1018 M 942.021 1013.987 C 940.772 1014.759, 940.810 1014.990, 942.278 1015.553 C 943.246 1015.925, 944.060 1017.372, 944.136 1018.857 C 944.241 1020.898, 944.365 1021.034, 944.679 1019.453 C 945.332 1016.170, 943.751 1012.918, 942.021 1013.987 M 935.813 1015.683 C 936.534 1015.972, 937.397 1015.936, 937.729 1015.604 C 938.061 1015.272, 937.471 1015.036, 936.417 1015.079 C 935.252 1015.127, 935.015 1015.364, 935.813 1015.683" stroke="none" fill="#000000" fill-rule="evenodd"/>
</svg>