<svg xmlns="http://www.w3.org/2000/svg" width="1024" height="1024" viewBox="0 0 1024 1024" version="1.1">
	<path d="M 350.361 185.339 C 345.717 189.985, 345.132 191.069, 344.491 196.208 C 343.467 204.428, 345.295 210.917, 350.205 216.496 C 356.193 223.298, 358.687 224.232, 372.368 224.795 C 381.674 225.179, 383.838 225.524, 382.371 226.392 C 380.509 227.495, 373.309 227.678, 309.500 228.243 C 277.041 228.531, 277.438 228.452, 270.675 235.938 C 268.499 238.347, 266.946 241.126, 266.867 242.753 C 266.794 244.264, 266.823 308.050, 266.930 384.500 C 267.064 479.042, 267.466 524.619, 268.187 527 C 271.657 538.452, 281.231 542.592, 290.801 536.779 C 297.961 532.429, 297.415 544.802, 297.112 393.966 C 296.915 295.523, 297.147 257.594, 297.955 256.084 C 299.048 254.042, 299.687 254, 329.785 253.991 C 346.678 253.986, 368.825 253.554, 379 253.031 C 423.555 250.742, 509.418 252.019, 512.417 255.017 C 513.179 255.778, 513.648 296.352, 514 391.800 C 514.566 545.392, 513.762 532.005, 522.772 537.973 C 528.462 541.741, 530.419 541.754, 536.240 538.063 C 544.635 532.739, 543.867 547.562, 544.079 386.843 L 544.268 243.186 542.048 238.600 C 540.827 236.078, 538.543 233.099, 536.972 231.980 C 530.293 227.224, 529.367 227.122, 488.586 226.652 C 467.294 226.407, 449.633 225.966, 449.339 225.672 C 449.045 225.378, 450.886 224.080, 453.430 222.787 C 459.349 219.779, 465.414 211.138, 467.013 203.436 C 468.898 194.355, 466.517 187.694, 459.795 183.246 L 455.645 180.500 405.582 180.339 L 355.518 180.177 350.361 185.339 M 414.035 191.934 C 413.466 192.998, 413 197.428, 413 201.779 C 413 208.173, 413.351 210.007, 414.829 211.345 C 415.835 212.255, 417.354 213, 418.206 213 C 421.335 213, 422.225 210.292, 421.845 201.921 C 421.524 194.851, 421.173 193.559, 419.127 191.902 C 416.175 189.511, 415.329 189.517, 414.035 191.934 M 369.043 192.248 C 364.722 194.478, 363.891 205.961, 367.740 210.250 C 369.797 212.543, 378.196 212.661, 380.429 210.429 C 382.595 208.262, 382.396 205.283, 380 204 C 377.630 202.732, 377.302 199, 379.560 199 C 380.752 199, 381.047 198.114, 380.810 195.250 C 380.505 191.563, 380.424 191.496, 376 191.240 C 373.525 191.097, 370.394 191.551, 369.043 192.248 M 393.495 193.414 C 390.074 196.835, 389.470 200.324, 391.417 205.421 C 393.558 211.029, 396.188 213.421, 399.341 212.629 C 405.065 211.193, 406.774 198.582, 401.942 193.438 C 399.046 190.356, 396.560 190.349, 393.495 193.414 M 432.200 192.200 C 430.752 193.648, 430.589 200, 432 200 C 432.550 200, 433 202.385, 433 205.300 C 433 210.994, 434.172 213, 437.500 213 C 440.765 213, 442 211.017, 442 205.775 C 442 201.549, 442.310 200.833, 444.500 200 C 447.362 198.912, 447.704 196.450, 445.443 193.223 C 444.171 191.406, 442.928 191, 438.643 191 C 435.759 191, 432.860 191.540, 432.200 192.200 M 644.500 260.808 C 635.372 265.104, 630.065 272.389, 630.022 280.685 C 629.979 288.878, 626.725 284.998, 678.115 338.047 L 704.800 365.594 644.413 365.715 C 602.110 365.800, 582.989 366.178, 580.563 366.979 C 576.659 368.268, 571.435 373.715, 569.375 378.645 C 568.619 380.455, 568 384.508, 568 387.652 C 568 395.094, 570.957 401.281, 576.159 404.724 L 580.077 407.316 643.016 406.729 L 705.956 406.141 703.966 408.820 C 702.872 410.294, 698.380 414.650, 693.983 418.500 C 685.049 426.324, 636.475 475.843, 633.757 479.899 C 632.593 481.635, 632.011 484.459, 632.007 488.390 C 631.999 495.480, 634.550 501.180, 640.199 506.692 C 643.998 510.399, 644.293 510.499, 651.301 510.464 C 656.264 510.439, 659.587 509.862, 662 508.605 C 663.925 507.602, 677.157 494.793, 691.405 480.141 C 705.652 465.488, 729.863 441.012, 745.207 425.748 C 762.466 408.578, 773.656 396.674, 774.552 394.530 C 776.613 389.597, 776.392 382.370, 774.064 378.604 C 773 376.882, 768.157 371.654, 763.303 366.986 C 748.937 353.172, 688.575 289.573, 670.488 269.195 C 662.676 260.392, 652.418 257.081, 644.500 260.808 M 438.739 268.512 C 427.870 269.789, 414.370 271.530, 408.739 272.380 C 403.107 273.230, 388.600 275.101, 376.500 276.538 C 355.953 278.977, 328.735 284.028, 324.750 286.142 C 323.306 286.908, 323 288.473, 323 295.101 C 323 299.518, 323.531 304.114, 324.180 305.316 C 325.939 308.569, 325.309 333.986, 323.418 336.084 C 322.207 337.427, 322.060 345.882, 322.447 391.968 C 322.902 446.086, 322.910 446.276, 325.084 448.589 C 327.158 450.797, 327.241 451.577, 326.799 464.610 C 326.374 477.157, 326.152 478.458, 324.167 480.066 C 322.202 481.657, 322.005 482.736, 322.058 491.660 C 322.089 497.072, 322.433 503.291, 322.821 505.480 C 323.506 509.341, 323.691 509.496, 329.014 510.702 C 332.031 511.385, 341.925 513.079, 351 514.466 C 380.385 518.956, 392.205 521.124, 408.500 525.011 C 417.300 527.110, 427.875 529.352, 432 529.992 C 436.125 530.633, 444.450 532.437, 450.500 534.001 C 467.177 538.313, 468.777 538.435, 473.992 535.783 C 476.462 534.528, 479.500 531.971, 480.742 530.102 L 483 526.704 483.005 479.602 C 483.008 453.696, 483.052 396.346, 483.104 352.158 L 483.197 271.815 480.411 268.908 C 477.700 266.078, 477.370 266.003, 468.063 266.095 C 462.803 266.148, 449.607 267.236, 438.739 268.512 M 439.035 380.306 C 431.659 382.847, 428.657 392.912, 433.250 399.703 C 436.364 404.307, 442.973 407.415, 447.745 406.520 C 452.329 405.660, 457.679 400.226, 458.559 395.536 C 459.711 389.395, 456.440 383.279, 450.316 380.125 C 447.562 378.707, 443.489 378.772, 439.035 380.306 M 440.500 592.941 C 429.652 593.529, 425 594.850, 425 597.344 C 425 598.045, 426.646 601.291, 428.659 604.559 C 430.671 607.826, 435.341 615.675, 439.037 622 C 449.846 640.500, 460.140 657.366, 461.749 659.212 C 463.090 660.750, 462.982 661.232, 460.696 663.950 C 459.295 665.614, 455.794 671.368, 452.914 676.738 C 450.034 682.107, 443.552 693.025, 438.508 701 C 427.190 718.895, 424 724.350, 424 725.812 C 424 728.735, 429.828 730, 443.295 730 C 458.463 730, 458.332 730.059, 461.942 721.635 C 463.089 718.959, 464.961 715.459, 466.102 713.856 C 467.243 712.254, 468.592 709.440, 469.099 707.604 C 469.606 705.767, 471.125 702.743, 472.474 700.882 C 473.824 699.022, 476.233 695.340, 477.828 692.700 L 480.728 687.900 483.737 692.700 C 486.697 697.422, 494.487 710.715, 501.200 722.500 L 504.618 728.500 514.559 729.402 C 523.902 730.249, 536.072 729.262, 537.819 727.514 C 538.790 726.543, 533.554 717.167, 524.227 703.175 C 519.580 696.204, 512.622 684.948, 508.766 678.163 C 504.910 671.378, 500.749 664.657, 499.519 663.228 L 497.284 660.629 501.111 654.564 C 503.216 651.229, 505.571 647.825, 506.343 647 C 507.116 646.175, 508.726 643.566, 509.920 641.201 C 511.114 638.837, 512.737 636.654, 513.528 636.351 C 514.319 636.047, 515.950 633.101, 517.152 629.802 C 518.355 626.504, 520.201 623.287, 521.255 622.653 C 522.308 622.019, 524.321 619.250, 525.727 616.500 C 527.133 613.750, 529.345 610.108, 530.642 608.406 C 531.939 606.704, 533 604.852, 533 604.290 C 533 603.729, 533.933 602.084, 535.073 600.634 C 538.410 596.392, 537.332 594.601, 530.990 593.849 C 527.970 593.491, 521.355 593.153, 516.289 593.099 C 507.976 593.010, 506.875 593.218, 504.997 595.233 C 502.742 597.654, 497.828 606.002, 488.062 624 C 484.630 630.325, 481.508 635.832, 481.124 636.238 C 480.739 636.643, 478.745 633.092, 476.691 628.346 C 474.638 623.601, 469.875 614.494, 466.107 608.109 C 462.340 601.724, 458.733 595.487, 458.093 594.250 C 457.274 592.666, 456.126 592.051, 454.215 592.173 C 452.722 592.268, 446.550 592.614, 440.500 592.941 M 325.973 594.843 C 323.993 596.469, 323.951 597.669, 323.728 659.542 C 323.472 730.300, 323.117 726.782, 330.746 729.018 C 333.267 729.756, 346.585 730.016, 371.287 729.809 C 402.668 729.545, 408.214 729.280, 409.022 728 C 410.505 725.653, 410.265 701.290, 408.750 700.309 C 408.063 699.864, 396.821 699.650, 383.768 699.833 C 370.716 700.017, 358.678 699.869, 357.018 699.504 L 354 698.841 354.011 690.671 C 354.017 686.177, 354.282 680.925, 354.600 679 L 355.179 675.500 378.620 675.802 L 402.061 676.103 401.780 663.302 L 401.500 650.500 377.738 650.232 L 353.975 649.964 354.238 635.919 L 354.500 621.875 381.751 622.187 L 409.002 622.500 409.001 608.809 C 409 600.132, 408.607 594.875, 407.926 594.454 C 407.335 594.089, 389.108 593.655, 367.422 593.488 C 331.912 593.216, 327.791 593.351, 325.973 594.843 M 560.599 594.115 C 560.356 594.877, 559.940 624.639, 559.674 660.253 L 559.192 725.006 561.731 727.003 C 563.971 728.765, 565.791 729, 577.201 729 C 584.313 729, 591.002 728.534, 592.066 727.965 C 593.948 726.958, 594 725.166, 594 661.587 C 594 603.970, 593.818 596.094, 592.460 594.967 C 590.109 593.016, 561.197 592.242, 560.599 594.115 M 615.355 595.234 C 614.936 595.913, 614.420 601.651, 614.210 607.984 C 613.672 624.201, 612.861 623.511, 632.387 623.457 L 647.932 623.415 648.572 626.327 C 648.924 627.929, 649.053 638.074, 648.859 648.870 C 648.310 679.470, 650.003 725.860, 651.732 727.589 C 653.667 729.524, 680.225 729.638, 681.818 727.719 C 682.562 726.822, 682.610 716.246, 681.977 692.469 C 681.480 673.786, 681.057 650.513, 681.037 640.750 L 681 623 698.369 623 L 715.738 623 716.358 619.250 C 716.699 617.188, 716.978 612.350, 716.978 608.500 C 716.978 604.650, 716.699 599.813, 716.358 597.750 L 715.738 594 665.928 594 C 627.499 594, 615.944 594.282, 615.355 595.234" stroke="none" fill="#000000" fill-rule="evenodd"/>
</svg>