<svg xmlns="http://www.w3.org/2000/svg" width="1024" height="1024" viewBox="0 0 1024 1024" version="1.1">
	<path d="M 733.500 66.031 C 715.800 68.761, 695.588 80.062, 683.270 94.115 C 668.322 111.169, 662.034 127.853, 662.020 150.500 C 661.997 188.660, 688.368 222.360, 725.907 232.140 C 736.150 234.809, 756.589 235.065, 766.500 232.649 C 795.494 225.580, 821.317 199.837, 829.139 170.203 C 831.775 160.215, 831.937 140.930, 829.477 130 C 825.741 113.400, 814.136 95.112, 800.216 83.884 C 791.824 77.116, 778.052 70.060, 768.407 67.588 C 760.859 65.654, 741.534 64.792, 733.500 66.031 M 733.181 84.053 C 726.173 85.305, 715.212 90.524, 706.338 96.836 C 697.289 103.271, 688.505 115.795, 684.305 128.251 C 681.789 135.712, 681.529 137.790, 681.583 150 C 681.637 162.382, 681.894 164.223, 684.687 172.230 C 688.796 184.011, 693.221 191.043, 701.133 198.363 C 713.349 209.666, 723.466 214.298, 739.824 216.077 C 760.800 218.359, 775.203 213.631, 792.247 198.867 C 799.820 192.307, 804.425 185.059, 808.513 173.265 C 814.789 155.157, 814.296 140.253, 806.858 123.293 C 801.658 111.436, 796.609 104.452, 788.668 98.134 C 776.324 88.311, 764.848 84.075, 749 83.490 C 743.225 83.277, 736.106 83.531, 733.181 84.053 M 753 101 L 753 112 747.139 112 L 741.279 112 740.648 106.750 C 740.301 103.862, 740.013 99.849, 740.009 97.832 C 739.994 91.690, 739.339 90.930, 734.645 91.613 C 729.557 92.352, 715.145 99.077, 712.586 101.905 C 710.744 103.940, 710.761 104.048, 713.557 108.083 C 715.123 110.341, 718.112 113.652, 720.202 115.441 C 722.291 117.229, 723.982 119.099, 723.959 119.596 C 723.936 120.093, 722.138 122.469, 719.963 124.875 L 716.007 129.249 708.985 122.625 C 705.123 118.981, 701.302 116, 700.494 116 C 697.401 116, 689.498 131.946, 688.848 139.500 L 688.503 143.500 698.752 143.785 L 709 144.070 709 150.384 L 709 156.698 698.867 157.315 C 693.294 157.655, 688.492 158.175, 688.196 158.470 C 686.253 160.414, 695.393 183.169, 698.614 184.405 C 700.503 185.130, 705.190 181.850, 712.119 174.955 L 716.737 170.358 721.160 174.537 L 725.584 178.717 722.186 182.608 C 713.486 192.573, 711.975 194.771, 712.636 196.495 C 713.698 199.261, 724.237 205.522, 731.049 207.434 C 738.348 209.482, 738.961 209.054, 738.985 201.890 C 738.993 199.354, 739.286 195.191, 739.636 192.640 L 740.272 188 746.500 188 L 752.728 188 753.364 192.640 C 753.714 195.191, 754 198.980, 754 201.058 C 754 207.453, 754.415 207.830, 760.301 206.789 C 766.548 205.684, 782 198.467, 782 196.655 C 782 195.946, 778.911 191.643, 775.135 187.092 L 768.271 178.817 772.262 174.659 L 776.254 170.500 783.818 177.750 C 787.978 181.738, 792.164 185, 793.119 185 C 795.206 185, 797.526 182.818, 799.501 178.998 C 801.652 174.839, 805.245 161.081, 804.611 159.430 C 804.189 158.328, 801.868 158, 794.500 158 C 783.802 158, 784.349 158.419, 783.740 149.750 L 783.335 144 794.808 144 L 806.280 144 805.728 138.649 C 805.124 132.805, 799.923 121.439, 795.383 116.043 C 793.148 113.387, 792.426 113.032, 791.514 114.139 C 790.896 114.888, 787.377 118.413, 783.693 121.974 L 776.994 128.448 773.974 124.784 C 772.312 122.769, 770.103 120.850, 769.064 120.520 C 767.416 119.997, 767.770 119.320, 771.841 115.210 C 774.408 112.620, 777.943 108.667, 779.699 106.426 L 782.890 102.351 776.695 98.790 C 769.470 94.637, 758.068 90, 755.079 90 C 753.100 90, 753 90.527, 753 101 M 92 106.932 L 92 117.798 112.409 117.252 L 132.818 116.706 133.159 137.271 C 133.347 148.582, 133.725 158.036, 134 158.279 C 134.275 158.523, 139.787 159.012, 146.250 159.366 L 158 160.009 158 138.374 L 158 116.738 177.630 117.119 L 197.260 117.500 197.068 107.553 C 196.962 102.083, 196.647 97.238, 196.369 96.788 C 196.091 96.337, 172.494 95.991, 143.931 96.018 L 92 96.067 92 106.932 M 382.939 101.309 C 375.986 103.269, 372.629 106.244, 366.300 116.054 C 338.743 158.764, 309.134 201.127, 248.500 284.596 C 243.550 291.410, 233.063 305.944, 225.197 316.894 C 211.930 335.360, 204.920 343.999, 203.202 344.001 C 202.816 344.001, 202.641 332.526, 202.812 318.501 L 203.125 293 145.907 293 L 88.689 293 89.341 307.250 C 89.699 315.087, 89.994 331.255, 89.996 343.178 L 90 364.856 95.272 365.515 C 98.172 365.877, 118.534 366.552, 140.522 367.014 C 162.510 367.476, 182.089 368.150, 184.032 368.511 C 188.500 369.342, 193.831 367.046, 213.142 355.972 C 249.521 335.110, 254.984 332.008, 272.500 322.265 C 289.813 312.634, 302.546 306.120, 308.093 304.055 C 314.805 301.557, 317.346 298.628, 325.492 284 C 328.708 278.225, 333.213 270.350, 335.504 266.500 C 337.795 262.650, 342.287 255, 345.485 249.500 C 348.684 244, 353.217 236.350, 355.558 232.500 C 357.899 228.650, 363.616 218.525, 368.262 210 C 388.670 172.556, 394.750 161.749, 402.021 150 C 415.546 128.142, 416.481 125.448, 413.480 116.944 C 411.294 110.747, 407.957 106.839, 402.156 103.682 C 396.116 100.394, 389.211 99.541, 382.939 101.309 M 843.500 148.001 C 843.500 167.327, 843.567 168.001, 845.500 168.021 C 850.745 168.075, 860.268 170.913, 864.107 173.566 C 868.818 176.823, 873.581 183.607, 874.933 188.985 C 875.713 192.091, 876.917 208.226, 876.985 216.500 L 877.010 219.500 895.505 219.865 L 914 220.229 914 205.072 C 914 188.657, 912.480 178.603, 908.528 168.877 C 900.755 149.748, 881.421 133.619, 863 130.897 C 858.875 130.287, 854.719 129.386, 853.764 128.894 C 852.809 128.402, 850.109 128, 847.764 128 L 843.500 128.001 843.500 148.001 M 738.411 131.891 C 725.579 139.716, 726.275 158.678, 739.624 164.953 C 745.441 167.688, 750.078 167.316, 756.404 163.609 C 768.335 156.617, 767.406 137.964, 754.800 131.405 C 750.865 129.358, 742.141 129.616, 738.411 131.891 M 120.181 171.750 L 120.500 180 146.750 180 L 173 180 173.009 177.250 C 173.013 175.738, 173.299 172.152, 173.644 169.282 L 174.271 164.064 147.066 163.782 L 119.862 163.500 120.181 171.750 M 558.500 169.393 C 552.843 171.173, 529.791 184.564, 507.500 199.018 C 485.597 213.221, 465.048 225.828, 439.500 240.740 C 429.600 246.518, 416.550 254.274, 410.500 257.975 C 404.450 261.677, 395 267.102, 389.500 270.032 C 384 272.962, 374.550 278.362, 368.500 282.032 C 344.399 296.651, 290.731 327.895, 272 338.211 C 254.210 348.008, 237.458 357.585, 221.483 367.091 C 214.324 371.351, 198.462 379.768, 186.236 385.795 C 162.198 397.644, 155.925 402.021, 148.470 412.149 C 140.079 423.546, 139.032 436.116, 145.359 449.506 C 152.110 463.794, 162.311 470.336, 178 470.443 C 189.020 470.517, 191.474 469.359, 219.621 450.810 C 231.655 442.880, 248.250 432.397, 256.500 427.514 C 264.750 422.630, 276 415.950, 281.500 412.668 C 294.013 405.200, 326.818 386.314, 369 362.291 C 426.218 329.706, 503.166 284.377, 515.500 275.991 C 524.597 269.805, 556.770 252.031, 574.618 243.330 C 595.829 232.990, 599.963 229.691, 604.714 219.314 C 612.540 202.218, 605.083 181.337, 587.993 172.496 C 579.631 168.169, 566.707 166.810, 558.500 169.393 M 129.250 189.679 L 119 190.070 119.001 201.785 L 119.002 213.500 146.751 213.441 L 174.500 213.382 174.782 201.691 L 175.063 190 166.782 189.995 C 162.227 189.992, 154.225 189.832, 149 189.639 C 143.775 189.446, 134.887 189.464, 129.250 189.679 M 562.421 191.896 C 549.556 197.740, 548.910 215.905, 561.353 221.929 C 572.697 227.421, 583.992 220.935, 585.737 207.927 C 586.487 202.335, 582.942 195.636, 577.566 192.486 C 572.539 189.540, 567.999 189.363, 562.421 191.896 M 133.290 223.747 L 119.080 224.054 118.427 227.538 C 117.145 234.373, 117.084 234.361, 147.484 233.545 C 162.343 233.147, 174.555 232.748, 174.622 232.660 C 174.689 232.572, 175.054 230.363, 175.433 227.750 L 176.123 223 161.811 223.220 C 153.940 223.341, 141.106 223.579, 133.290 223.747 M 862 247.575 L 862 260.150 870.750 259.562 C 875.563 259.239, 890.413 259.317, 903.751 259.737 L 928.002 260.500 928.008 254.500 C 928.011 251.200, 928.301 245.463, 928.652 241.750 L 929.289 235 895.645 235 L 862 235 862 247.575 M 195.808 241.181 C 195.186 242.692, 192.643 242.862, 170.808 242.856 C 157.438 242.852, 135.137 243.170, 121.250 243.563 L 96 244.277 96 260.288 L 96 276.299 105.154 275.650 C 110.188 275.292, 133.138 275, 156.154 275 L 198 275 197.883 263.750 C 197.738 249.739, 196.742 238.912, 195.808 241.181 M 776.500 245.228 C 766.276 248.041, 764.301 248.256, 748.500 248.273 C 734.876 248.287, 729.514 247.867, 721.500 246.155 C 708.686 243.418, 703.952 243.455, 695.406 246.362 C 676.134 252.917, 668.715 259.918, 661.746 278.126 L 658.541 286.500 658.205 317.250 L 657.870 348 670.806 348 L 683.742 348 684.458 339.792 C 684.851 335.278, 684.847 317.728, 684.447 300.792 L 683.721 270 694.414 270 L 705.108 270 704.804 309.001 L 704.500 348.001 770.326 348.001 L 836.153 348 835.786 317.250 L 835.420 286.500 832.577 279 C 826.584 263.193, 818.192 254.146, 804.702 248.948 C 800.191 247.210, 795.375 245.217, 794 244.520 C 789.291 242.134, 787.483 242.207, 776.500 245.228 M 567 263.034 C 556.825 269, 547.889 273.908, 547.143 273.941 C 546.325 273.976, 546.027 274.628, 546.393 275.582 C 546.727 276.452, 547 290.101, 547 305.912 L 547 334.661 553.250 333.351 C 561.390 331.646, 567.303 331.681, 579.413 333.506 C 584.865 334.328, 589.365 335, 589.413 335.001 C 589.461 335.001, 589.189 317.789, 588.809 296.751 C 588.140 259.687, 587.686 251.897, 586.205 252.094 C 585.817 252.145, 577.175 257.069, 567 263.034 M 862.003 282.250 L 862.006 292.500 896.003 292.541 L 930 292.581 930 282.291 L 930 272 896 272 L 862 272 862.003 282.250 M 890.750 306.748 L 876 307.053 876 428.620 C 876 545.761, 875.928 550.537, 874.024 559.843 C 870.045 579.293, 858.760 604.289, 845.699 622.583 C 826.029 650.133, 808.386 665.734, 781.777 679.105 C 772.434 683.800, 758.381 688.482, 755.626 687.818 C 754.670 687.588, 755.518 684.679, 758.698 677.283 C 765.254 662.034, 766.053 657.130, 766.706 628.144 C 767.178 607.146, 767.038 602.638, 765.888 601.910 C 764.331 600.924, 745.900 600.897, 736.102 601.867 L 729.705 602.500 729.886 611.500 C 729.986 616.450, 729.622 627.731, 729.077 636.569 C 728.061 653.073, 726.288 660.520, 720.784 671.392 C 716.463 679.930, 702.850 691.587, 689.249 698.396 C 674.504 705.778, 697.873 705.185, 424.500 705.118 C 264.442 705.079, 175.530 705.412, 170 706.071 C 158.769 707.408, 141.538 713.355, 131.020 719.525 C 114.819 729.029, 98.602 748.032, 91.331 766.033 C 82.434 788.060, 81.641 815.840, 89.251 838.902 C 95.954 859.216, 116.593 887.298, 134.891 901.001 C 144.009 907.830, 159.022 915.460, 168.500 918.083 C 178.268 920.787, 142.602 920.536, 475.856 920.247 C 625.102 920.118, 747.614 920.262, 748.106 920.565 C 749.143 921.206, 749.317 896.051, 748.354 884.661 L 747.708 877.021 469.104 876.760 C 206.213 876.515, 190.170 876.400, 184.646 874.736 C 167.249 869.492, 155.539 862.669, 144 851.051 C 132.515 839.488, 126.492 827.499, 123.956 811.154 C 120.564 789.289, 131.542 765.557, 150.074 754.697 C 156.948 750.668, 167.786 746.886, 175.500 745.823 C 179.857 745.222, 274.626 744.902, 426.500 744.976 C 696.509 745.106, 674.350 745.642, 695 738.476 C 711.051 732.906, 720.083 727.708, 729.934 718.369 C 734.652 713.896, 740.513 707.730, 742.958 704.665 L 747.404 699.094 751.952 699.711 C 757.212 700.424, 762.701 703.611, 763.645 706.500 C 764.005 707.600, 764.345 711.419, 764.400 714.987 C 764.481 720.254, 764.820 721.535, 766.204 721.801 C 769.570 722.449, 787.700 716.819, 797.825 711.983 C 829.648 696.782, 859.701 669.383, 882.264 635 C 896.089 613.932, 905.884 591.861, 910.665 571 C 913.300 559.506, 913.301 559.472, 913.649 508 C 913.840 479.675, 914.110 422.637, 914.248 381.250 L 914.500 305.999 910 306.221 C 907.525 306.343, 898.862 306.580, 890.750 306.748 M 553.116 344.944 C 542.889 348.746, 538.437 353, 533.175 364 C 529.944 370.755, 529.594 372.301, 529.652 379.560 C 529.738 390.293, 533.150 398.225, 540.418 404.588 C 547.830 411.078, 554.388 413.345, 566 413.430 C 574.763 413.495, 576.016 413.248, 582.149 410.247 C 589.992 406.410, 594.183 401.971, 598.331 393.107 C 601.905 385.469, 602.725 378.406, 601.047 369.728 C 598.884 358.544, 593.863 352.082, 583.245 346.820 C 577.925 344.184, 575.609 343.663, 567.745 343.331 C 560.277 343.017, 557.465 343.327, 553.116 344.944 M 559.502 364.518 C 552.231 368.448, 549.591 373.055, 550.225 380.705 C 550.768 387.252, 553.115 390.732, 559.020 393.750 C 567.213 397.936, 575.611 395.806, 579.718 388.500 C 583.772 381.290, 582.321 372.391, 576.145 366.584 C 572.273 362.943, 564.257 361.948, 559.502 364.518 M 769.500 364.749 L 704.500 365.013 704.780 393.026 C 705.002 415.113, 704.790 421.123, 703.780 421.436 C 703.076 421.655, 698.563 422.074, 693.750 422.368 L 685 422.903 685 406.108 C 685 396.871, 684.706 383.843, 684.346 377.157 L 683.693 365 670.596 365 L 657.500 364.999 657.776 399 L 658.051 433 745.276 433.014 C 793.249 433.021, 833.400 433.269, 834.500 433.565 C 836.472 434.096, 836.500 433.616, 836.500 399.052 C 836.500 376.190, 836.152 364.085, 835.500 364.243 C 834.950 364.376, 805.250 364.604, 769.500 364.749 M 89.470 428.102 L 89.500 478.067 101.866 477.381 C 113.710 476.724, 114.209 476.775, 113.695 478.597 C 113.400 479.644, 112.879 484.100, 112.536 488.500 C 112.194 492.900, 111.657 498.413, 111.344 500.750 L 110.773 505 105.886 505 L 101 505 101 508.853 C 101 510.973, 101.292 515.499, 101.649 518.911 L 102.297 525.116 152.899 524.758 L 203.500 524.399 230 510.694 C 244.575 503.156, 275.527 487.521, 298.783 475.951 C 322.038 464.381, 340.823 454.522, 340.526 454.043 C 339.960 453.127, 317.637 442, 316.365 442 C 314.866 442, 295.403 430.574, 292.728 428.123 L 289.956 425.583 282.244 429.399 C 268.662 436.120, 235.824 456.125, 225.500 463.969 C 205.777 478.953, 194.610 484.008, 181.282 483.988 C 155.736 483.949, 134.097 466.389, 128.376 441.055 C 123.538 419.630, 137.411 394.355, 160.408 382.697 L 165.266 380.235 137.383 379.621 C 122.047 379.283, 104.986 378.811, 99.470 378.572 L 89.440 378.137 89.470 428.102 M 505.500 385.104 C 500 388.379, 488.300 394.594, 479.500 398.914 C 441.680 417.484, 395.421 440.611, 368 454.659 C 351.775 462.972, 317.575 480.348, 292 493.273 C 266.425 506.199, 241.988 518.625, 237.696 520.887 L 229.892 525 284.196 524.988 L 338.500 524.976 343 522.299 C 349.710 518.307, 368.391 508.561, 397.452 493.891 C 411.726 486.686, 427.251 478.467, 431.952 475.626 C 440.623 470.388, 460.314 460.383, 476.264 453.112 C 481.084 450.914, 486.422 448.124, 488.125 446.911 C 492.324 443.921, 525.333 426.867, 531.250 424.630 C 533.862 423.643, 536 422.290, 536 421.626 C 536 420.961, 533.952 418.410, 531.449 415.958 C 523.285 407.960, 518.473 397.897, 516.321 384.325 L 515.500 379.150 505.500 385.104 M 355 386.408 C 351.975 388.245, 339.600 395.490, 327.500 402.508 C 315.400 409.526, 303.268 416.665, 300.539 418.373 L 295.579 421.479 299.103 422.052 C 301.041 422.367, 306.423 425.136, 311.063 428.206 C 315.703 431.276, 324.626 436.346, 330.891 439.473 C 337.156 442.600, 344.021 446.309, 346.147 447.716 L 350.013 450.274 384.028 433.132 L 418.044 415.990 413.458 412.745 C 410.937 410.960, 399.360 404.430, 387.733 398.233 C 376.107 392.037, 365.644 386.074, 364.482 384.983 C 361.753 382.420, 361.504 382.457, 355 386.408 M 176.500 414.481 C 168.507 417.310, 162.725 428.067, 164.976 435.917 C 167.473 444.622, 173.311 449.175, 182.147 449.309 C 185.978 449.367, 187.866 448.765, 191.144 446.441 C 197.092 442.225, 199.210 437.850, 198.746 430.737 C 198.318 424.163, 196.367 420.908, 190.406 416.823 C 185.375 413.375, 181.477 412.719, 176.500 414.481 M 578.500 424.643 C 572.865 425.942, 555.692 425.763, 550.727 424.354 C 549.069 423.883, 548.971 425.015, 549.227 441.675 L 549.500 459.500 553.392 459.819 L 557.284 460.138 556.596 473.389 L 555.909 486.640 568.055 486.570 L 580.200 486.500 579.568 479.500 C 579.221 475.650, 578.667 469.913, 578.339 466.750 L 577.742 461 581.299 461 L 584.856 461 585.386 455.750 C 587.011 439.640, 586.881 422.771, 585.133 423.130 C 584.785 423.202, 581.800 423.883, 578.500 424.643 M 770.250 449.757 L 705 450.014 704.838 456.257 C 704.748 459.691, 704.806 473.188, 704.966 486.250 L 705.256 510 694.628 510 L 684 510 684 480 L 684 450 670.916 450 L 657.833 450 658.198 477.250 C 658.555 503.957, 658.618 504.660, 661.328 512.500 C 665.917 525.778, 675.168 536.994, 686.680 543.238 L 691.728 545.977 746.461 546.017 L 801.194 546.058 806.777 543.502 C 818.410 538.176, 826.260 528.791, 832.108 513.217 L 835.381 504.500 835.770 481 C 835.984 468.075, 836.011 455.700, 835.829 453.500 L 835.500 449.500 770.250 449.757 M 469 462.956 C 464.235 467.038, 457.452 470.816, 428.571 485.473 C 418.711 490.477, 410.465 495.105, 410.247 495.758 C 409.728 497.315, 422.149 505.304, 431.840 509.645 C 443.409 514.829, 453.085 520.035, 457.130 523.254 L 460.760 526.142 482.624 524.993 C 494.649 524.362, 504.637 523.696, 504.819 523.515 C 505.001 523.333, 505.409 518.830, 505.727 513.510 C 506.279 504.248, 506.414 503.792, 508.902 502.835 C 513.361 501.118, 544.741 500.535, 552.578 502.023 C 558.983 503.240, 559.276 503.403, 556.500 504.211 C 554.850 504.690, 545.288 504.784, 535.250 504.420 L 517 503.757 517 508.732 C 517 511.468, 517.277 516.360, 517.616 519.603 L 518.233 525.500 570.366 525.279 L 622.500 525.058 622.785 515.011 L 623.070 504.964 602.285 505.599 C 589.649 505.984, 577.880 505.816, 572.267 505.169 C 563.792 504.192, 561.740 503.474, 547.267 496.422 C 538.595 492.196, 528.299 486.805, 524.386 484.441 C 514.199 478.289, 476.601 458.990, 474.917 459.051 C 474.138 459.078, 471.475 460.836, 469 462.956 M 83 584.110 L 83 629.721 222.031 630.464 C 298.498 630.873, 424.502 630.873, 502.041 630.464 L 643.020 629.721 642.760 584.110 L 642.500 538.500 362.750 538.500 L 83.001 538.500 83 584.110 M 747.250 558.761 L 706 559.022 706 572.511 L 706 586 748 586 L 790 586 790 572.559 C 790 565.166, 789.663 558.979, 789.250 558.809 C 788.837 558.639, 769.938 558.617, 747.250 558.761 M 154.500 565.207 C 146.347 568.057, 140.984 575.419, 141.022 583.710 C 141.060 591.947, 146.421 600.332, 153.315 602.936 C 159.338 605.212, 168.519 603.506, 173.355 599.212 C 176.212 596.675, 179.982 588.004, 179.968 584 C 179.941 576.201, 172.827 567.163, 165 564.985 C 160.721 563.794, 158.400 563.843, 154.500 565.207 M 557.491 565.865 C 552.323 568.213, 547.281 573.987, 546.427 578.535 C 543.616 593.523, 552.840 604.831, 567.040 603.803 C 571.768 603.461, 573.732 602.760, 576.735 600.342 C 582.226 595.920, 584.964 590.563, 584.984 584.200 C 585.003 577.971, 583.555 574.839, 578.332 569.810 C 571.974 563.687, 565.135 562.392, 557.491 565.865 M 98.546 644.801 C 98.728 645.735, 99.126 651.337, 99.429 657.250 L 99.981 668 91.490 668 C 82.159 668, 82.237 667.933, 83.608 674.790 L 84.216 677.831 159.608 677.665 C 225.877 677.520, 235.001 677.318, 235.011 676 C 235.017 675.175, 235.301 672.813, 235.642 670.750 L 236.262 667 228.631 667 L 221 667 221 654.980 L 221 642.960 159.607 643.031 C 102.396 643.097, 98.236 643.217, 98.546 644.801 M 499.550 655.149 L 500.257 667 492.722 667 C 486.079 667, 485.229 667.207, 485.538 668.750 C 485.732 669.712, 486.143 672.098, 486.453 674.051 L 487.016 677.602 565.248 677.551 L 643.480 677.500 644.122 674.500 C 645.602 667.579, 645.922 667.826, 635.900 668.179 L 626.800 668.500 627.515 655.697 L 628.229 642.895 563.536 643.096 L 498.842 643.298 499.550 655.149 M 816.750 762.745 L 808 763.078 808 810.539 L 808 858 827.750 857.985 C 838.612 857.976, 848.144 857.562, 848.931 857.064 C 850.160 856.286, 850.193 853.492, 849.166 837.329 C 848.508 826.973, 847.977 806.069, 847.985 790.875 L 848 763.250 844.875 762.625 C 841.849 762.020, 835.017 762.049, 816.750 762.745 M 891.012 764.749 C 879.930 765.059, 879.416 765.172, 876.512 767.938 C 874.855 769.515, 870.169 773.293, 866.099 776.332 L 858.698 781.859 858.841 811.108 L 858.985 840.358 866.243 845.774 C 870.234 848.753, 875.159 852.786, 877.186 854.736 L 880.873 858.282 896.548 858.076 L 912.222 857.871 917.277 853.875 C 920.057 851.678, 923.607 849.220, 925.166 848.414 C 927.881 847.010, 928 846.646, 928 839.724 L 928 832.500 910.750 832.207 C 900.168 832.028, 893.363 831.520, 893.145 830.893 C 892.950 830.331, 890.588 827.127, 887.895 823.772 C 883.140 817.847, 883 817.483, 883 811.039 C 883 804.585, 883.111 804.299, 887.094 800.453 C 889.346 798.279, 891.599 795.449, 892.102 794.164 L 893.016 791.829 910.520 792.164 C 924.787 792.438, 927.929 792.254, 927.512 791.168 C 927.230 790.436, 927 787.645, 927 784.966 C 927 780.274, 926.827 779.979, 922.250 776.884 C 919.638 775.118, 915.164 771.496, 912.310 768.836 C 908.805 765.571, 906.370 764.069, 904.810 764.214 C 903.539 764.331, 897.330 764.572, 891.012 764.749 M 718.250 776.706 L 716 777.139 716 806.570 L 716 836 732.750 836.001 L 749.500 836.001 749.221 806.001 L 748.943 776 734.721 776.136 C 726.900 776.211, 719.487 776.467, 718.250 776.706 M 766.750 781.716 L 764 782.133 764 809.566 L 764 837 780.631 837 L 797.262 837 796.642 833.250 C 796.301 831.188, 796.017 818.587, 796.011 805.250 L 796 781 782.750 781.150 C 775.462 781.232, 768.263 781.487, 766.750 781.716 M 179.384 787.798 L 174.268 788.095 173.816 797.298 C 173.288 808.068, 174.165 826.505, 175.258 827.594 C 177.177 829.506, 220.883 829.876, 452.096 829.936 L 699.692 830 700.279 809.267 C 700.603 797.864, 700.654 788.321, 700.394 788.060 C 699.888 787.555, 188 787.296, 179.384 787.798 M 760.622 881.397 C 760.280 884.640, 760 895.102, 760 904.647 L 760 922 779.826 922 L 799.651 922 799.268 900.250 C 799.057 888.288, 798.790 877.825, 798.675 877 C 798.497 875.728, 795.638 875.500, 779.854 875.500 L 761.243 875.500 760.622 881.397" stroke="none" fill="#000000" fill-rule="evenodd"/>
</svg>