<svg xmlns="http://www.w3.org/2000/svg" width="1024" height="1024" viewBox="0 0 1024 1024" version="1.1">
	<path d="M 531.500 159.127 C 507.688 159.864, 504.735 160.387, 490.509 166.381 C 474.597 173.087, 456.427 186.839, 447.610 198.850 C 439.939 209.301, 429 235.281, 429 243.052 L 429 246 462.379 246 L 495.757 246 497.081 242.804 C 499.509 236.944, 510.150 226.817, 518.138 222.766 L 525.500 219.032 558.500 218.442 C 602.577 217.653, 636.332 218.967, 644.500 221.788 C 668.297 230.007, 687.661 251.270, 692.095 274.052 C 693.085 279.137, 693.312 334.656, 693.170 536.623 C 693.026 741.280, 693.243 792.957, 694.248 793.791 C 694.939 794.364, 697.979 795.876, 701.002 797.150 C 705.896 799.210, 708.094 799.465, 721 799.467 C 729.806 799.468, 737.561 798.945, 740.750 798.135 L 746 796.801 746.049 791.650 C 746.733 719.208, 746.646 272.506, 745.946 264.249 C 743.782 238.727, 732.150 215.116, 711.542 194.411 C 694.119 176.907, 673.742 165.537, 651.742 161.042 C 643.671 159.393, 636.801 159.111, 597.500 158.816 C 572.750 158.630, 543.050 158.770, 531.500 159.127 M 493 257.153 C 484.475 257.613, 457.025 257.734, 432 257.422 L 386.500 256.854 382.059 259.177 C 374.669 263.042, 373.553 265.424, 373.159 278.176 C 372.971 284.247, 373.083 290.628, 373.407 292.357 L 373.997 295.500 463.748 295 L 553.500 294.500 553.174 284 C 552.787 271.533, 551.695 266.662, 548.276 262.144 C 544.192 256.747, 541.051 255.980, 523.782 256.158 C 515.377 256.244, 501.525 256.692, 493 257.153 M 351.488 309.926 C 341.304 313.455, 338.711 314.814, 326.500 323.026 C 313.737 331.608, 299.164 346.967, 293.701 357.592 C 291.071 362.709, 288.001 371.359, 288.001 373.655 L 288 375.810 458.250 375.843 C 551.888 375.862, 629.720 375.630, 631.212 375.329 L 633.923 374.782 631.338 369.681 C 621.705 350.671, 608.957 335.652, 590.914 322.056 C 582.645 315.825, 568.867 308.523, 563.264 307.403 C 560.608 306.872, 559.707 307.229, 557.636 309.635 L 555.170 312.500 471.835 312.646 C 426.001 312.727, 383.852 312.558, 378.172 312.272 C 368.511 311.784, 367.773 311.597, 366.761 309.375 C 365.326 306.225, 361.806 306.352, 351.488 309.926 M 267.685 386.958 C 256.773 390.461, 250.352 403.778, 254.428 414.450 C 256.516 419.917, 262.633 425.601, 267.693 426.777 C 269.834 427.274, 354.006 427.626, 460 427.580 L 648.500 427.500 653.500 424.421 C 656.250 422.728, 659.962 419.431, 661.750 417.094 C 664.408 413.619, 665 411.942, 665 407.889 C 665 401.021, 661.214 393.815, 655.735 390.253 C 651.849 387.727, 650.718 387.504, 642 387.550 C 636.197 387.580, 628.609 388.440, 622.500 389.760 C 617 390.949, 608.675 392.365, 604 392.907 C 586.341 394.956, 484.441 396.358, 460.161 394.887 C 450.559 394.306, 447.560 393.781, 446.640 392.522 C 445.657 391.177, 441.662 390.713, 423.039 389.779 C 403.884 388.817, 395.847 388.919, 367.800 390.481 C 344.516 391.777, 328.386 392.139, 312.296 391.724 C 290.346 391.158, 289.559 391.067, 287.933 388.912 C 286.489 386.997, 285.145 386.640, 278.376 386.369 C 274.044 386.196, 269.233 386.461, 267.685 386.958 M 280.395 438.977 C 275.165 441.091, 269.837 455.946, 271.980 462.440 C 273.511 467.079, 279.218 472, 283.067 472 C 294.681 472, 299.875 461.758, 294.944 448.579 C 291.751 440.046, 286.434 436.537, 280.395 438.977 M 328.720 441.347 C 324.154 445.912, 321.709 451.403, 321.193 458.248 C 320.771 463.848, 320.862 464.098, 324.762 467.998 C 328.152 471.387, 329.403 472, 332.932 472 C 345.211 472, 350.778 459.974, 344.412 447.200 C 339.642 437.626, 334.397 435.670, 328.720 441.347 M 378.934 440.709 C 374.400 444.524, 371.022 452.266, 371.010 458.868 C 371.001 463.775, 371.333 464.568, 374.882 468.118 C 377.981 471.216, 379.505 472, 382.432 472 C 389.426 472, 395.825 466.764, 396.671 460.348 C 397.706 452.504, 389.789 438, 384.473 438 C 383.197 438, 380.705 439.219, 378.934 440.709 M 428.634 440.073 C 425.229 442.752, 421.020 449.965, 419.866 455.099 C 417.101 467.405, 428.401 476.321, 438.759 470.005 C 446.495 465.289, 447.553 458.439, 442.341 446.825 C 438.374 437.984, 434.017 435.839, 428.634 440.073 M 478.365 439.919 C 474.637 442.192, 470.292 450.508, 469.398 457.081 C 468.631 462.715, 470.686 467.228, 475.299 470.040 C 479.167 472.399, 481.731 472.491, 486.821 470.455 C 491.056 468.761, 495 463.093, 495 458.703 C 495 451.972, 486.816 437.993, 482.882 438.004 C 482.122 438.006, 480.089 438.868, 478.365 439.919 M 527.310 440.250 C 520.550 447.709, 517.366 458.940, 520.367 464.742 C 523.062 469.954, 527.341 472.318, 533.083 471.766 C 543.690 470.747, 547.953 461.056, 542.940 449.361 C 539.542 441.433, 536.424 438, 532.623 438 C 530.498 438, 528.633 438.790, 527.310 440.250 M 576.250 441.769 C 572.458 445.581, 568.968 453.413, 569.017 458 C 569.032 459.375, 569.899 462.383, 570.943 464.684 C 574.127 471.696, 582.087 474.074, 588.759 470.005 C 592.485 467.734, 595.991 462.541, 595.996 459.288 C 596.003 455.244, 591.806 445.791, 588.263 441.869 C 583.774 436.901, 581.115 436.879, 576.250 441.769 M 628.355 438.992 C 627.175 439.468, 625.052 441.376, 623.636 443.233 C 615.830 453.467, 616.131 464.828, 624.344 469.903 C 631.508 474.331, 640.231 471.170, 643.985 462.786 C 646.003 458.277, 645.398 453.660, 641.886 446.777 C 637.898 438.960, 633.997 436.716, 628.355 438.992 M 329.199 491.750 C 325.122 496.072, 321.020 504.432, 320.284 509.920 C 319.581 515.159, 322.949 522.628, 326.696 524.139 C 331.459 526.061, 338.295 525.638, 341.702 523.212 C 345.230 520.700, 348.008 515.452, 347.982 511.349 C 347.958 507.730, 341.932 494.367, 338.693 490.750 C 335.400 487.073, 333.413 487.282, 329.199 491.750 M 379.054 491.250 C 377.303 493.038, 374.550 497.264, 372.935 500.643 C 368.267 510.413, 369.223 518.674, 375.580 523.484 C 378.629 525.791, 388.164 525.446, 391.385 522.912 C 398.014 517.697, 398.456 510.989, 392.957 499.059 C 389.798 492.204, 386.197 488, 383.484 488 C 382.798 488, 380.805 489.462, 379.054 491.250 M 478.135 490.540 C 474.756 493.383, 469.394 503.385, 468.395 508.707 C 467.473 513.621, 469.487 519.391, 473.220 522.532 C 476.069 524.929, 477.030 525.166, 482.347 524.781 C 487.660 524.397, 488.646 523.963, 491.645 520.690 C 494.481 517.596, 495 516.284, 495 512.212 C 495 504.241, 486.182 488, 481.854 488 C 481.469 488, 479.795 489.143, 478.135 490.540 M 580.388 489.047 C 575.208 490.976, 568.714 503.533, 568.714 511.622 C 568.714 518.147, 570.776 521.579, 576.364 524.356 C 583.963 528.132, 594.151 523.757, 595.899 515.968 C 596.895 511.526, 595.225 505.803, 590.240 496.581 C 586.392 489.463, 584.060 487.679, 580.388 489.047 M 626.519 492.110 C 615.599 504.198, 615.126 519.510, 625.521 524.443 C 634.739 528.817, 645.986 521.953, 645.996 511.947 C 646 507.980, 639.373 493.373, 636.070 490.070 C 633.017 487.017, 630.668 487.519, 626.519 492.110 M 278.528 492.149 C 274.044 497.478, 270 506.527, 270.004 511.221 C 270.011 519.671, 275.822 525.414, 284.174 525.223 C 292.894 525.025, 298.428 519.195, 297.722 510.950 C 297.310 506.146, 292.244 495.041, 288.734 491.250 C 285.708 487.981, 281.742 488.330, 278.528 492.149 M 427.037 492.750 C 419.238 502.159, 416.741 512.447, 420.638 519.120 C 423.194 523.497, 426.259 524.967, 432.868 524.985 C 437.778 524.999, 438.566 524.669, 442.118 521.118 C 445.570 517.665, 446 516.693, 446 512.339 C 446 508.822, 445.035 505.431, 442.575 500.297 C 436.686 488.008, 432.609 486.028, 427.037 492.750 M 526.868 491.250 C 523.949 494.566, 518.040 508.043, 518.018 511.434 C 517.989 516.192, 521.665 522.613, 525.445 524.407 C 535.057 528.968, 544.987 522.651, 544.996 511.972 C 545 507.401, 539.731 494.591, 536.268 490.750 C 534.035 488.273, 529.265 488.527, 526.868 491.250 M 279.890 542.872 C 278.556 543.921, 275.760 548.183, 273.676 552.344 C 267.705 564.265, 268.720 573.741, 276.357 577.365 C 280.853 579.498, 284.520 579.401, 289.793 577.008 C 293.173 575.474, 294.516 574.089, 296.105 570.497 C 298.004 566.203, 298.033 565.627, 296.602 560.717 C 295.295 556.232, 289.267 544.806, 287.184 542.862 C 285.284 541.091, 282.149 541.095, 279.890 542.872 M 379.781 542.958 C 376.573 545.481, 370.267 557.477, 369.445 562.621 C 368.552 568.202, 370.888 573.236, 375.915 576.563 C 379.345 578.832, 380.645 579.153, 384.152 578.592 C 393.153 577.152, 397.751 571.499, 396.623 563.263 C 395.551 555.447, 386.711 541, 383 541 C 382.598 541, 381.150 541.881, 379.781 542.958 M 530 541.741 C 527.837 542.582, 526.495 544.533, 522.001 553.366 C 516.119 564.929, 516.618 572.472, 523.567 577.054 C 532.219 582.757, 545 575.905, 545 565.562 C 545 560.770, 539.622 547.877, 536.010 544.011 C 533.131 540.929, 532.603 540.729, 530 541.741 M 578.516 543.166 C 575.517 545.525, 569.394 557.385, 568.377 562.806 C 566.159 574.625, 577.159 582.490, 588.339 577.078 C 593.992 574.341, 596.515 569.642, 595.562 563.622 C 594.262 555.406, 585.626 541, 582 541 C 581.598 541, 580.031 541.975, 578.516 543.166 M 627.582 544.344 C 622.471 549.764, 618 559.864, 618 565.990 C 618 570.750, 618.359 571.595, 621.882 575.118 C 625.281 578.516, 626.345 579, 630.422 579 C 639.656 579, 646 573.160, 646 564.659 C 646 559.751, 637.695 543.638, 634.389 542.131 C 631.027 540.600, 631.152 540.559, 627.582 544.344 M 328.893 545.250 C 323.991 550.570, 320 559.959, 320 566.170 C 320 574.791, 324.501 579, 333.718 579 C 342.935 579, 349.293 571.612, 347.620 562.846 C 346.787 558.478, 342.524 549.375, 339.383 545.257 C 336.116 540.975, 332.834 540.972, 328.893 545.250 M 427.429 545.250 C 424.153 549.124, 419.207 559.487, 418.957 563 C 418.527 569.031, 419.146 571.188, 422.284 574.613 C 424.875 577.440, 426.528 578.305, 430.108 578.709 C 439.155 579.728, 447.602 572.573, 446.641 564.703 C 446.082 560.121, 440.006 547.006, 437.094 544.094 C 434.039 541.039, 430.647 541.445, 427.429 545.250 M 477.045 544.936 C 474.057 549.133, 469.166 560.055, 468.957 563 C 468.542 568.826, 469.168 571.122, 472.076 574.434 C 475.798 578.673, 480.241 579.750, 486.187 577.855 C 495.071 575.024, 497.457 565.685, 492.154 554.500 C 486.397 542.357, 481.217 539.078, 477.045 544.936 M 278.195 597.750 C 274.480 603.012, 269.955 613.053, 269.401 617.263 C 268.606 623.305, 272.243 629.938, 277.434 631.914 C 280.568 633.107, 282.020 633.142, 285.848 632.118 C 291.302 630.660, 293.777 628.678, 295.638 624.282 C 297.794 619.189, 297.264 615.183, 293.399 607.362 C 287.277 594.971, 282.354 591.859, 278.195 597.750 M 329.151 597.838 C 327.693 599.399, 325.038 603.513, 323.250 606.979 C 320.677 611.969, 320 614.494, 320 619.106 C 320 624.176, 320.396 625.381, 323.057 628.413 C 327.147 633.070, 332.853 634.043, 339.316 631.184 C 348.076 627.309, 349.441 618.682, 343.250 606.326 C 337.196 594.243, 334.196 592.437, 329.151 597.838 M 379.825 596.923 C 376 599.932, 370 612.950, 370 618.242 C 370 623.820, 373.142 628.821, 378.208 631.306 C 383.460 633.883, 388.455 632.742, 393.376 627.842 C 397.034 624.201, 397.226 623.706, 396.782 619.086 C 396.266 613.710, 390.404 600.404, 387.094 597.094 C 384.499 594.499, 382.953 594.463, 379.825 596.923 M 428.313 597.750 C 425.176 601.078, 419.331 613.165, 418.520 618 C 417.763 622.516, 420.359 627.698, 424.898 630.730 C 429.041 633.498, 433.126 633.580, 438.793 631.008 C 442.145 629.486, 443.518 628.083, 445.057 624.605 C 446.931 620.368, 446.948 619.914, 445.395 615.325 C 441.689 604.368, 435.431 595, 431.817 595 C 431.315 595, 429.738 596.237, 428.313 597.750 M 528.735 595.704 C 525.999 596.399, 518 613.644, 518 618.846 C 518 626.775, 522.276 631.569, 530.242 632.572 C 538.194 633.574, 545.200 627.421, 545.200 619.435 C 545.200 616.068, 538.923 601.559, 535.861 597.851 C 534.298 595.957, 531.296 595.053, 528.735 595.704 M 577.771 596.965 C 576.397 598.046, 573.636 602.242, 571.636 606.290 C 567.164 615.341, 566.740 621.835, 570.280 627.088 C 573.459 631.804, 576.503 633.156, 582.911 632.697 C 587.769 632.348, 588.727 631.875, 592.281 628.065 C 595.888 624.198, 596.191 623.457, 595.689 619.721 C 595.068 615.087, 588.225 600.662, 585.029 597.250 C 582.443 594.488, 580.993 594.431, 577.771 596.965 M 627.179 598.449 C 622.421 603.868, 618 614.019, 618 619.525 C 618 623.786, 618.440 624.703, 622.368 628.632 C 626.149 632.413, 627.306 633, 630.967 633 C 639.519 633, 646 627.227, 646 619.610 C 646 615.678, 639.336 601.185, 635.719 597.250 C 632.851 594.129, 630.707 594.430, 627.179 598.449 M 476.039 600.105 C 472.912 604.422, 469.170 613.364, 468.302 618.595 C 467.308 624.588, 473.162 631.810, 479.729 632.690 C 482.553 633.069, 484.819 632.623, 487.807 631.099 C 492.557 628.675, 495 624.718, 495 619.447 C 495 615.367, 487.944 599.258, 485.278 597.250 C 482.122 594.874, 479.167 595.787, 476.039 600.105 M 628.428 650.672 C 624.279 655.149, 618 668.742, 618 673.248 C 618 679.804, 622.670 685.742, 629.061 687.313 C 635.407 688.874, 644.150 683.570, 646.131 676.958 C 647.246 673.237, 647.058 672.566, 641.920 661.928 C 637.101 651.949, 634.212 648, 631.730 648 C 631.276 648, 629.790 649.202, 628.428 650.672 M 278.734 650.750 C 275.661 654.163, 269 669.363, 269 672.963 C 269 680.741, 275.389 687, 283.330 687 C 291.290 687, 297.619 680.180, 296.756 672.531 C 296.241 667.954, 290.122 653.897, 287.278 650.754 C 285.239 648.502, 280.760 648.500, 278.734 650.750 M 329.561 651.529 C 325.868 655.513, 320.041 667.391, 319.439 672.159 C 318.386 680.508, 324.465 687.112, 333.329 687.246 C 338.542 687.325, 342.750 685.038, 345.930 680.397 C 348.870 676.106, 348.366 670.968, 344.076 661.508 C 338.282 648.728, 334.540 646.156, 329.561 651.529 M 378.535 652.141 C 375.432 655.828, 370.340 666.671, 369.428 671.533 C 368.969 673.977, 369.394 676.183, 370.939 679.374 C 373.443 684.546, 377.656 687, 384.033 687 C 387.694 687, 388.851 686.413, 392.632 682.632 C 396.461 678.803, 397 677.722, 396.999 673.882 C 396.998 669.376, 393.706 661.248, 388.619 653.189 C 385.318 647.959, 382.316 647.647, 378.535 652.141 M 431.249 650.063 C 428.308 651.204, 421.461 661.861, 419.334 668.609 C 417.961 672.964, 417.867 674.614, 418.813 677.770 C 420.670 683.969, 423.983 686.340, 431.452 686.816 C 437.751 687.217, 437.898 687.167, 442.169 683.183 C 446.136 679.483, 446.500 678.732, 446.500 674.253 C 446.500 670.439, 445.509 667.407, 442 660.481 C 437.134 650.876, 434.852 648.666, 431.249 650.063 M 478.240 651.250 C 475.519 654.154, 469.279 667.474, 468.520 672 C 467.349 678.979, 474.422 687, 481.747 687 C 489.412 687, 496 680.638, 496 673.237 C 496 669.653, 488.872 654.781, 485.573 651.482 C 482.505 648.414, 480.944 648.364, 478.240 651.250 M 527.373 651.536 C 523.592 655.317, 518 668.114, 518 672.984 C 518 681.453, 523.636 686.989, 532.265 686.996 C 536.298 686.999, 537.603 686.475, 540.765 683.577 C 544.324 680.315, 544.500 679.856, 544.500 673.827 C 544.500 668.350, 543.922 666.361, 540.196 659.025 C 537.828 654.364, 535.353 650.209, 534.696 649.791 C 532.475 648.379, 529.921 648.988, 527.373 651.536 M 578.731 650.067 C 576.012 651.687, 568.956 666.572, 568.307 672.060 C 567.170 681.654, 572.175 687, 582.291 687 C 589.061 687, 593.327 683.977, 595.152 677.887 C 596.593 673.076, 595.001 667.322, 589.232 656.500 C 585.324 649.170, 582.816 647.634, 578.731 650.067 M 628.702 705.406 C 624.927 709.531, 618.704 723.030, 618.210 728.164 C 616.832 742.506, 637.222 747.525, 645.005 734.759 C 647.896 730.018, 647.521 727.427, 642.423 716.927 C 635.641 702.960, 632.983 700.729, 628.702 705.406 M 276.434 710.210 C 268.929 721.821, 267.188 729.731, 270.898 735.359 C 273.774 739.721, 277.908 741.986, 283 741.990 C 288.991 741.993, 293.209 739.266, 295.941 733.621 C 298.077 729.209, 298.099 728.860, 296.569 723.774 C 295.696 720.873, 293.299 715.350, 291.241 711.500 C 287.801 705.063, 287.218 704.477, 284 704.210 C 280.698 703.935, 280.270 704.275, 276.434 710.210 M 328.956 707.703 C 327.168 709.739, 324.369 714.260, 322.736 717.750 C 316.092 731.948, 320.687 742, 333.820 742 C 340.940 742, 348.435 734.960, 348.193 728.501 C 348.053 724.784, 341.158 708.938, 338.313 705.793 C 335.749 702.960, 332.546 703.614, 328.956 707.703 M 378.932 706.250 C 375.765 709.571, 369.948 722.803, 369.305 728.152 C 368.779 732.518, 368.987 733.063, 372.688 737.031 C 376.073 740.660, 377.329 741.323, 381.565 741.718 C 385.586 742.093, 387.144 741.741, 389.976 739.815 C 395.264 736.221, 398.262 731.209, 397.512 727.215 C 396.638 722.551, 393.670 715.951, 389.558 709.523 C 385.560 703.274, 382.631 702.372, 378.932 706.250 M 428.161 707.621 C 423.470 713.312, 418.758 723.460, 418.224 729.024 C 417.758 733.867, 417.897 734.212, 421.816 737.940 C 428.841 744.623, 435.035 744.509, 442.715 737.556 C 446.822 733.838, 447.454 732.747, 447.447 729.383 C 447.434 722.219, 437.112 704, 433.067 704 C 432.010 704, 429.803 705.629, 428.161 707.621 M 474.923 711.131 C 470.578 718.572, 468 725.489, 468 729.709 C 468 735.730, 475.001 742, 481.726 742 C 488.537 742, 496 734.798, 496 728.225 C 496 724.588, 491.854 715.334, 487.164 708.500 C 485.336 705.836, 483.540 704.397, 481.788 704.191 C 479.468 703.919, 478.656 704.740, 474.923 711.131 M 528.169 705.831 C 524.510 709.490, 518.684 722.764, 518.206 728.532 C 517.768 733.807, 517.887 734.122, 521.759 737.994 C 525.359 741.594, 526.269 742, 530.734 742 C 536.878 742, 541.729 739.046, 544.344 733.713 C 546.716 728.874, 545.596 723.762, 539.693 712.500 C 536.203 705.842, 535.049 704.448, 532.811 704.189 C 531.148 703.997, 529.376 704.624, 528.169 705.831 M 577.878 706.122 C 576.711 707.289, 574.011 711.968, 571.878 716.519 C 566.055 728.945, 566.767 736.310, 574.157 740.080 C 579.238 742.672, 584.901 742.547, 589.010 739.750 C 593.907 736.417, 596.411 732.529, 596.295 728.439 C 596.193 724.842, 589.181 708.967, 586.272 705.750 C 584.132 703.382, 580.455 703.545, 577.878 706.122 M 278.652 762.250 C 277.305 764.038, 274.538 768.650, 272.505 772.500 C 269.245 778.671, 268.859 780.141, 269.249 784.915 C 269.631 789.582, 270.189 790.785, 273.297 793.633 C 279.410 799.235, 286.276 799.331, 292.460 793.901 C 299.050 788.115, 299.131 782.215, 292.792 769.525 C 287.221 758.371, 283.153 756.278, 278.652 762.250 M 330.119 761.553 C 326.381 764.699, 320.346 776.507, 319.461 782.410 C 318.180 790.954, 324.826 798, 334.166 798 C 341.675 798, 349.934 788.574, 348.444 781.703 C 347.310 776.472, 340.292 763.375, 337.407 761.106 C 334.031 758.450, 333.790 758.465, 330.119 761.553 M 379.595 761.104 C 378.124 762.261, 375.313 766.401, 373.347 770.303 C 366.912 783.082, 367.961 792.381, 376.283 796.330 C 383.348 799.682, 391.318 797.469, 395.838 790.898 C 397.715 788.170, 398.065 786.666, 397.610 783.272 C 396.982 778.575, 390.058 764.058, 386.978 760.978 C 384.460 758.460, 382.923 758.487, 379.595 761.104 M 478.194 761.022 C 477.244 762.042, 474.561 766.541, 472.233 771.020 C 468.751 777.718, 468 780.141, 468 784.681 C 468 789.624, 468.355 790.555, 471.400 793.600 C 474.493 796.693, 475.328 797, 480.650 796.996 C 489.916 796.990, 496.200 791.975, 496.200 784.585 C 496.200 780.914, 489.299 766.144, 485.809 762.344 C 483.015 759.303, 480.244 758.822, 478.194 761.022 M 578.111 761.881 C 576.631 763.465, 573.863 767.829, 571.960 771.579 C 569.208 777.001, 568.500 779.569, 568.500 784.132 C 568.500 789.106, 568.887 790.273, 571.415 792.911 C 578.225 800.020, 589.804 798.908, 594.903 790.656 C 598.004 785.639, 597.526 782.399, 592.023 771.145 C 588.285 763.501, 586.402 760.723, 584.458 759.984 C 580.985 758.664, 581.167 758.609, 578.111 761.881 M 627.628 762.250 C 623.933 767.103, 618 780.047, 618 783.254 C 618 797.517, 637.945 802.576, 645.250 790.165 C 647.952 785.573, 647.385 781.973, 642.387 771.989 C 635.447 758.124, 632.333 756.069, 627.628 762.250 M 426.005 765.993 C 416.851 779.472, 415.809 787.276, 422.295 793.762 C 430.931 802.398, 447 796.430, 447 784.587 C 447 779.766, 441.303 767.015, 437.243 762.750 C 433.103 758.400, 430.688 759.096, 426.005 765.993 M 528.473 761.385 C 527.388 762.146, 524.748 766.179, 522.607 770.347 C 515.812 783.572, 516.722 791.947, 525.413 796.170 C 528.568 797.703, 530.691 798.093, 533.258 797.611 C 541.387 796.086, 547.642 788.716, 546.453 782.062 C 545.732 778.024, 540.819 767.884, 537.339 763.250 C 534.693 759.726, 531.724 759.102, 528.473 761.385 M 447 906.180 C 447 906.943, 477.109 906.071, 477.996 905.283 C 478.269 905.040, 471.406 904.976, 462.746 905.141 C 454.086 905.306, 447 905.773, 447 906.180 M 511.539 905.937 C 511.104 906.640, 515.602 906.898, 525.479 906.738 C 541.817 906.471, 541.871 906.493, 542.101 913.500 C 542.173 915.700, 542.424 916.784, 542.659 915.909 C 543.158 914.046, 553.104 911.939, 562.663 911.672 C 567.467 911.538, 568.598 911.224, 567.791 910.250 C 567.074 909.384, 567.082 909, 567.819 909 C 568.403 909, 569.160 909.450, 569.500 910 C 570.574 911.738, 571.750 911.085, 571.750 908.750 C 571.750 906.526, 571.578 906.497, 556.625 906.278 C 548.306 906.155, 534.903 905.795, 526.840 905.477 C 517.177 905.096, 511.962 905.253, 511.539 905.937 M 479.188 910.591 L 479.500 914.234 493.452 914.162 C 501.976 914.119, 507.905 914.506, 508.690 915.158 C 510.322 916.512, 511.283 914.339, 510.825 910.334 L 510.500 907.500 494.688 907.224 L 478.876 906.949 479.188 910.591 M 424 908.892 C 424 910.180, 428.543 911.189, 436 911.557 C 439.575 911.733, 443.063 911.905, 443.750 911.939 C 444.438 911.972, 445.032 912.788, 445.070 913.750 C 445.130 915.246, 445.265 915.210, 446 913.500 C 448.276 908.205, 447.885 908, 435.500 908 C 429.175 908, 424 908.401, 424 908.892" stroke="none" fill="#000000" fill-rule="evenodd"/>
</svg>