<svg xmlns="http://www.w3.org/2000/svg" width="1024" height="1024" viewBox="0 0 1024 1024" version="1.1">
	<path d="M 427.457 211.730 C 427.777 215.453, 428.209 281.275, 428.417 358 L 428.795 497.500 445.147 497.801 C 454.141 497.966, 463.413 497.826, 465.750 497.489 L 470 496.877 470 468.633 C 470 442.728, 470.171 439.882, 472.066 434.270 C 476.275 421.808, 486.070 412.131, 499.660 407.011 C 508.197 403.794, 521.243 404.416, 529.450 408.432 C 540.270 413.726, 549.585 425.450, 553.664 438.909 C 554.618 442.057, 555.004 450.208, 555.014 467.409 C 555.021 480.659, 555.283 492.454, 555.596 493.620 C 556.081 495.425, 557.119 495.816, 562.582 496.255 C 568.471 496.727, 574.967 499.366, 573.602 500.731 C 573.288 501.045, 573.765 501.839, 574.663 502.496 C 576.721 504, 575.766 508.643, 573.248 509.375 C 566.082 511.459, 539.650 512.222, 486.616 511.877 L 428.732 511.500 428.795 590.500 C 428.829 633.950, 428.890 670.532, 428.929 671.794 L 429 674.088 449.451 673.870 L 469.902 673.652 470.201 640.576 L 470.500 607.500 474.594 599 C 479.077 589.692, 481.520 586.841, 489.618 581.466 C 498.292 575.708, 505.039 573.790, 515.081 574.226 C 522.026 574.529, 524.790 575.151, 529.581 577.492 C 536.499 580.871, 544.840 588.807, 548.014 595.027 C 554.241 607.233, 554.359 608.030, 554.951 642 L 555.500 673.500 575.750 673.771 L 596 674.041 596.085 611.771 C 596.132 577.522, 596.245 471.987, 596.335 377.250 L 596.500 205 575.750 205 L 555 205 555 214 L 555 223 512.539 223 L 470.078 223 469.789 214.250 L 469.500 205.500 448.187 205.230 L 426.875 204.960 427.457 211.730 M 612.241 234.831 L 612.125 248.932 619.813 255.874 C 624.041 259.691, 628.708 263.869, 630.184 265.158 L 632.869 267.500 633.348 381 C 633.612 443.425, 633.866 494.613, 633.914 494.750 C 633.961 494.887, 637.148 495, 640.995 495 L 647.991 495 648.245 387.796 L 648.500 280.591 657 288.334 C 661.675 292.592, 667.626 297.521, 670.224 299.288 L 674.948 302.500 674.974 398.750 L 675 495 682.495 495 L 689.989 495 690.245 404.521 L 690.500 314.042 700.178 320.873 C 705.501 324.630, 711.463 328.466, 713.428 329.399 L 717 331.094 717 413.315 L 717 495.537 724.495 495.519 L 731.990 495.500 731.995 418.167 C 731.998 375.633, 732.364 340.983, 732.810 341.167 C 733.255 341.350, 739.330 344.343, 746.310 347.819 L 759 354.138 759 424.866 L 759 495.595 765.750 495.181 C 769.462 494.954, 772.725 494.558, 773 494.301 C 773.275 494.044, 773.500 463.947, 773.500 427.418 C 773.500 388.536, 773.875 361.001, 774.404 361.001 C 774.900 361, 777.631 362.100, 780.472 363.443 C 783.313 364.787, 788.981 367.013, 793.068 368.389 L 800.500 370.892 800.757 433.196 L 801.015 495.500 808.507 495.500 L 816 495.500 816 436.250 C 816 403.663, 816.169 377, 816.376 377 C 816.582 377, 819.295 378.125, 822.404 379.500 C 825.513 380.875, 828.157 381.995, 828.279 381.990 C 828.400 381.984, 828.624 377.259, 828.776 371.490 C 828.986 363.477, 828.748 361, 827.768 361 C 827.062 361, 821.538 359.422, 815.492 357.493 C 778.663 345.742, 733.844 323.407, 700.500 300.187 C 688.928 292.128, 666.997 275.001, 656 265.435 C 645.915 256.662, 627.073 237.718, 617.888 227.115 L 612.357 220.731 612.241 234.831 M 408.500 228.179 C 399.097 240.165, 358.199 276.665, 337.282 291.740 C 299.280 319.128, 260.112 338.758, 206.940 357.067 L 194.379 361.392 194.810 369.946 C 195.046 374.651, 195.382 378.658, 195.555 378.852 C 195.816 379.143, 202.742 377.096, 207.750 375.247 C 208.741 374.881, 209 387.328, 209 435.393 L 209 496 215.883 496 C 222.176 496, 222.818 495.807, 223.370 493.750 C 223.701 492.512, 223.979 463.991, 223.986 430.369 L 224 369.237 228.750 368.043 C 231.362 367.386, 237.193 365.262, 241.707 363.324 C 246.221 361.386, 250.228 359.845, 250.612 359.900 C 250.996 359.956, 251.208 390.501, 251.084 427.780 L 250.858 495.558 257.816 495.768 L 264.773 495.978 265.524 468.239 C 265.936 452.982, 266.043 420.896, 265.761 396.937 L 265.249 353.373 279.124 346.253 L 293 339.133 293 417.588 L 293 496.044 299.750 495.772 L 306.500 495.500 307 413.586 L 307.500 331.672 311 329.724 C 312.925 328.653, 318.903 324.677, 324.284 320.888 C 329.666 317.100, 334.278 314, 334.534 314 C 334.790 314, 335 354.837, 335 404.750 L 334.999 495.500 342.250 495.347 L 349.500 495.194 349.755 398.597 C 349.928 333.086, 350.342 302, 351.041 302 C 351.608 302, 357.118 297.868, 363.286 292.817 C 369.454 287.766, 374.952 283.303, 375.504 282.899 C 376.174 282.408, 376.472 315.636, 376.400 382.832 C 376.341 438.199, 376.486 486.200, 376.722 489.500 L 377.151 495.500 384.073 495.500 L 390.995 495.500 391.224 436 C 391.349 403.275, 391.463 352.351, 391.476 322.835 L 391.500 269.169 398.430 262.603 C 402.241 258.992, 407.539 254.342, 410.203 252.269 C 414.678 248.787, 415.008 248.233, 414.534 245 C 414.253 243.075, 414.017 237.338, 414.011 232.250 C 414.005 227.162, 413.663 223.018, 413.250 223.040 C 412.837 223.062, 410.700 225.375, 408.500 228.179 M 502.024 264.537 C 489.680 268.003, 480.789 275.587, 474.723 287.824 L 470.500 296.343 470.202 331.171 L 469.904 366 505.702 366.007 C 525.391 366.011, 544.538 366.301, 548.250 366.652 L 555 367.289 555 334.250 C 555 304.236, 554.820 300.629, 553.036 294.855 C 549.260 282.637, 540.796 272.486, 529.925 267.136 C 521.886 263.180, 510.601 262.129, 502.024 264.537 M 289.750 511.750 L 195 512.010 195 524.642 L 195 537.274 201.400 536.760 L 207.799 536.246 208.400 539.248 C 208.730 540.899, 209 580.219, 209 626.625 L 209 711 216.500 711 L 224 711 224 624.056 L 224 537.111 236.951 536.806 C 249.190 536.517, 249.931 536.610, 250.437 538.500 C 250.732 539.600, 250.979 578.826, 250.986 625.668 L 251 710.836 258.002 711.168 L 265.005 711.500 265.097 687.500 C 265.147 674.300, 265.108 635.038, 265.009 600.250 L 264.829 537 278.320 537 L 291.812 537 292.535 542.250 C 292.932 545.138, 293.120 557.850, 292.952 570.500 C 292.784 583.150, 292.726 619.938, 292.823 652.250 L 293 711 300.250 711 L 307.500 711 307.228 624 L 306.956 537 320.339 537 L 333.721 537 334.352 542.250 C 334.699 545.138, 334.987 584.400, 334.991 629.500 L 335 711.500 341.860 711.500 L 348.720 711.500 349.360 699.593 C 349.712 693.044, 350 653.782, 350 612.343 L 350 537 362.383 537 C 374.380 537, 374.786 537.070, 375.370 539.250 C 375.701 540.487, 375.979 570.790, 375.986 606.589 C 375.994 642.388, 376.295 680.492, 376.656 691.263 L 377.312 710.848 384.158 711.174 L 391.005 711.500 391.002 624.250 L 391 537 402.500 537 L 414 537 414 524 L 414 511 399.250 511.245 C 391.137 511.380, 341.863 511.607, 289.750 511.750 M 717.250 511.750 L 612 512.009 612 524.005 L 612 536 622.354 536 L 632.709 536 633.435 560.676 C 633.834 574.247, 633.833 613.760, 633.434 648.482 L 632.707 711.613 639.603 711.191 C 643.397 710.958, 646.725 710.558, 647 710.301 C 647.275 710.044, 647.645 671, 647.823 623.536 L 648.146 537.238 651.823 536.630 C 653.845 536.296, 659.888 536.017, 665.250 536.011 L 675 536 675.002 596.250 C 675.003 629.388, 675.297 668.875, 675.654 684 L 676.305 711.500 683.152 711.168 L 690 710.836 689.998 623.668 L 689.997 536.500 703.498 536.804 L 717 537.108 717.090 547.304 C 717.139 552.912, 717.102 592.220, 717.008 634.655 L 716.836 711.810 724.409 711.655 L 731.982 711.500 731.991 624.250 L 732 537 745.500 537 L 759 537 759 624.297 L 759 711.595 765.750 711.181 C 769.462 710.954, 772.603 710.679, 772.730 710.571 C 772.856 710.463, 773.081 671.366, 773.230 623.688 L 773.500 537.003 787.250 537.001 L 801 537 801 618.353 C 801 663.098, 801.280 702.360, 801.621 705.603 L 802.243 711.500 809.121 711.532 L 816 711.563 816 628.921 C 816 583.468, 816.286 544.191, 816.636 541.640 L 817.272 537 822.982 537 L 828.691 537 828.655 524 L 828.619 511 825.560 511.245 C 823.877 511.380, 775.138 511.607, 717.250 511.750 M 409.005 700.013 L 409 711.525 451.999 711.513 L 494.999 711.500 494.999 699.821 L 495 688.142 452.005 688.321 L 409.009 688.500 409.005 700.013 M 565.894 688.749 L 531.288 689.026 530.687 696.190 C 530.357 700.130, 530.338 705.187, 530.645 707.427 L 531.203 711.500 573.601 711.500 L 615.999 711.500 616 699.750 L 616 688 608.250 688.237 C 603.987 688.367, 584.927 688.598, 565.894 688.749 M 194.768 756.500 L 195.037 785.500 198.010 791.605 C 204.004 803.914, 216.678 812.246, 232.107 814.020 C 243.624 815.344, 785.402 815.332, 793.500 814.007 C 806.781 811.835, 818.808 802.927, 824.747 790.863 L 827.942 784.373 828.030 756.205 L 828.119 728.037 511.309 727.768 L 194.500 727.500 194.768 756.500 M 540.500 743.917 C 538.300 744.275, 524.843 744.376, 510.596 744.140 L 484.691 743.711 485.314 747.546 C 486.638 755.708, 491.500 756.993, 521 756.979 C 541.875 756.970, 543.745 756.605, 547.271 751.854 C 548.840 749.740, 549.044 748.633, 548.285 746.354 C 547.240 743.216, 546.402 742.954, 540.500 743.917 M 566.417 743.917 C 565.187 745.146, 566.300 750.238, 568.310 752.574 C 571.459 756.235, 576.226 756.868, 601.179 756.940 C 619.064 756.992, 622.079 756.778, 623.497 755.360 C 626.889 751.968, 628.179 749.091, 627.564 746.291 L 626.951 743.500 596.892 743.500 C 580.360 743.500, 566.646 743.688, 566.417 743.917 M 646.419 744.349 C 645.308 747.245, 647.998 752.943, 651.333 754.760 C 654.051 756.241, 658.213 756.534, 680.710 756.828 L 706.920 757.171 709.517 754.574 C 711.641 752.450, 712.058 751.205, 711.807 747.739 C 711.548 744.163, 711.187 743.541, 709.500 743.760 C 705.441 744.288, 653.390 743.951, 650.261 743.376 C 647.853 742.934, 646.867 743.184, 646.419 744.349 M 255.250 744.772 L 236 745.043 236 748.069 C 236 750.004, 236.892 751.922, 238.475 753.389 C 240.802 755.546, 242.030 755.722, 259.135 756.341 C 285.224 757.286, 297.839 757.157, 300.150 755.920 C 302.555 754.633, 305.308 748.544, 304.556 746.177 C 303.975 744.348, 297.786 744.171, 255.250 744.772 M 324 747.795 C 324 750.388, 324.652 752.280, 325.951 753.456 C 328.780 756.016, 341.847 757.178, 363.685 756.811 L 382.177 756.500 384.643 753.631 C 386.317 751.683, 387.011 749.819, 386.804 747.824 L 386.500 744.886 355.250 744.393 L 324 743.899 324 747.795 M 406.421 745.128 C 406.080 745.679, 406.092 747.674, 406.446 749.562 C 406.912 752.045, 407.976 753.480, 410.295 754.748 C 413.106 756.284, 416.555 756.500, 438.337 756.500 L 463.174 756.500 465.137 754.077 C 466.460 752.444, 467.002 750.489, 466.800 748.077 L 466.500 744.500 436.770 744.313 C 417.790 744.194, 406.816 744.488, 406.421 745.128 M 729 746.907 C 729 748.363, 729.734 750.603, 730.631 751.883 C 733.835 756.458, 737.207 757, 762.468 757 C 784.667 757, 786.113 756.887, 788 755 C 789.374 753.626, 789.999 751.670, 789.997 748.750 L 789.994 744.500 759.497 744.379 L 729 744.258 729 746.907 M 258 853.012 C 244.344 854.173, 260.826 856.075, 288.087 856.484 C 298.310 856.637, 307.760 857.129, 309.087 857.577 C 310.414 858.025, 312.063 858.284, 312.750 858.152 C 313.438 858.020, 314 858.333, 314 858.848 C 314 860.665, 319.108 861.093, 322.226 859.537 C 323.921 858.692, 327.376 857.989, 329.904 857.976 C 332.432 857.963, 336.300 857.525, 338.500 857.004 C 341.041 856.401, 343.594 856.406, 345.500 857.019 C 349.262 858.227, 374 858.917, 374 857.814 C 374 857.366, 373.438 856.944, 372.750 856.875 C 372.063 856.806, 373.525 856.306, 376 855.764 C 380.913 854.688, 425.045 854.108, 424.418 855.128 C 424.206 855.474, 425.488 856.061, 427.266 856.434 C 433.700 857.782, 437.858 858.038, 438.424 857.122 C 438.742 856.608, 440.014 856.410, 441.251 856.681 C 443.115 857.089, 443.243 856.975, 442 856.012 C 440.812 855.092, 441.261 854.976, 444.157 855.453 C 446.169 855.785, 447.969 855.682, 448.157 855.226 C 448.346 854.769, 451.200 854.644, 454.500 854.948 C 457.800 855.252, 460.306 855.725, 460.068 856 C 459.830 856.275, 459.901 857.513, 460.224 858.750 C 460.918 861.404, 462.993 861.776, 463.015 859.250 C 463.025 858.150, 463.304 857.917, 463.765 858.622 C 464.494 859.736, 473.270 860.488, 497.999 861.557 C 504.873 861.854, 510.925 862.525, 511.449 863.049 C 511.972 863.572, 512.872 863.993, 513.450 863.985 C 514.027 863.976, 513.838 863.551, 513.029 863.039 C 510.153 861.220, 513.134 860.650, 520.266 861.654 C 524.245 862.215, 527.725 862.374, 528 862.007 C 529.174 860.444, 547.105 859.392, 559 860.189 C 581.908 861.724, 600 862.087, 600 861.013 C 600 860.423, 603.030 859.994, 607.250 859.986 C 615.832 859.970, 619 859.268, 619 857.383 C 619 856.623, 619.638 856, 620.417 856 C 621.196 856, 622.096 855.438, 622.417 854.750 C 622.883 853.750, 623.117 853.750, 623.583 854.750 C 624.422 856.546, 638.761 856.352, 642 854.500 C 645.414 852.548, 651.666 852.582, 652.772 854.557 C 653.869 856.516, 662.677 857.676, 681.750 858.371 C 693.749 858.808, 696 858.662, 696 857.445 C 696 856.429, 697.171 856, 699.941 856 C 702.109 856, 704.160 855.550, 704.500 855 C 704.840 854.450, 706.554 853.932, 708.309 853.849 C 710.064 853.766, 707.225 853.353, 702 852.931 C 691.344 852.070, 268.166 852.147, 258 853.012 M 728.550 852.871 C 729.072 853.351, 732.875 853.417, 737 853.018 L 744.500 852.293 736.050 852.147 C 731.196 852.062, 728.004 852.371, 728.550 852.871 M 712.813 853.683 C 713.534 853.972, 714.397 853.936, 714.729 853.604 C 715.061 853.272, 714.471 853.036, 713.417 853.079 C 712.252 853.127, 712.015 853.364, 712.813 853.683 M 664.750 855.662 C 665.438 855.940, 666.563 855.940, 667.250 855.662 C 667.938 855.385, 667.375 855.158, 666 855.158 C 664.625 855.158, 664.063 855.385, 664.750 855.662 M 452 856.941 C 452 858.643, 453.490 858.846, 455.452 857.411 C 457.290 856.068, 457.253 856, 454.691 856 C 453.211 856, 452 856.423, 452 856.941 M 640 857.500 C 640 858.549, 640.976 858.965, 643.250 858.884 C 645.038 858.820, 645.707 858.561, 644.738 858.308 C 643.769 858.055, 643.233 857.433, 643.547 856.924 C 643.861 856.416, 643.191 856, 642.059 856 C 640.895 856, 640 856.652, 640 857.500 M 648.813 856.683 C 649.534 856.972, 650.397 856.936, 650.729 856.604 C 651.061 856.272, 650.471 856.036, 649.417 856.079 C 648.252 856.127, 648.015 856.364, 648.813 856.683 M 624.750 858.662 C 625.438 858.940, 626.563 858.940, 627.250 858.662 C 627.938 858.385, 627.375 858.158, 626 858.158 C 624.625 858.158, 624.063 858.385, 624.750 858.662 M 652.269 858.693 C 653.242 858.947, 654.592 858.930, 655.269 858.656 C 655.946 858.382, 655.150 858.175, 653.500 858.195 C 651.850 858.215, 651.296 858.439, 652.269 858.693" stroke="none" fill="#000000" fill-rule="evenodd"/>
</svg>