<svg xmlns="http://www.w3.org/2000/svg" width="1024" height="1024" viewBox="0 0 1024 1024" version="1.1">
	<path d="M 606.053 161.602 C 610.224 169.530, 610.004 173.354, 605.112 178.008 C 600.066 182.809, 595.092 184, 580.095 184 C 567.894 184, 560.655 182.388, 554.282 178.252 C 550.597 175.860, 549.822 177.274, 552.587 181.343 C 556.894 187.682, 563.766 204.245, 565.353 212.117 C 567.399 222.261, 568.532 261.346, 567.043 270.418 C 566.419 274.223, 564.592 280.724, 562.984 284.865 C 561.376 289.006, 560.226 292.559, 560.428 292.761 C 560.629 292.963, 565.228 292.342, 570.647 291.381 C 585.046 288.827, 594.762 289.098, 604.500 292.324 C 608.900 293.782, 613.028 294.980, 613.672 294.987 C 616.550 295.019, 618.111 284.005, 618.063 264.011 C 618.042 255.480, 618.400 247.150, 618.858 245.500 C 619.634 242.704, 619.988 242.514, 624.053 242.710 C 629.616 242.978, 633.111 245.581, 634.969 250.841 C 636.229 254.408, 636.845 255, 639.299 255 C 643.214 255, 664.730 252.222, 674.500 250.455 C 678.900 249.659, 693.525 247.410, 707 245.458 C 720.475 243.506, 733.161 241.469, 735.192 240.931 C 739.811 239.709, 745.836 232.954, 750.278 224.018 C 753.300 217.938, 753.499 216.881, 753.476 207.018 C 753.455 197.472, 753.189 195.976, 750.601 190.826 C 741.566 172.847, 733.702 169.403, 685 162.090 C 665.475 159.159, 626.483 156, 609.820 156 L 603.107 156 606.053 161.602 M 553.750 157.719 C 551.138 157.934, 549 158.456, 549 158.880 C 549 160.668, 554.019 164.122, 560.527 166.814 C 564.362 168.400, 570.382 171.566, 573.905 173.849 C 580.367 178.037, 584.595 179.005, 586.800 176.800 C 589.082 174.518, 588.043 170.190, 583.682 163.814 L 579.363 157.500 568.932 157.415 C 563.194 157.368, 556.362 157.505, 553.750 157.719 M 494.500 163.125 C 489 163.591, 476.175 164.660, 466 165.500 C 455.825 166.340, 441.425 167.904, 434 168.976 C 426.575 170.047, 416.225 171.408, 411 172 C 394.734 173.841, 370.609 183.201, 338 200.322 C 309.929 215.059, 302.471 223.982, 301.248 244.287 L 300.718 253.073 305.244 257.409 C 320.570 272.094, 352.550 286.802, 384 293.631 C 412.430 299.804, 434.612 297.161, 477 282.549 C 499.565 274.770, 513.253 269.108, 541.359 255.926 L 548.218 252.709 547.753 231.605 C 547.350 213.361, 547 209.710, 545.170 204.670 C 542.629 197.672, 527.774 175.085, 522.071 169.547 C 519.832 167.373, 518 164.785, 518 163.797 C 518 162.231, 517.130 162.018, 511.250 162.138 C 507.538 162.214, 500 162.658, 494.500 163.125 M 766.410 190 C 770.216 198.058, 771.181 210.086, 768.623 217.592 L 767.044 222.228 773.772 221.535 C 777.472 221.154, 788.551 219.546, 798.391 217.963 C 813.275 215.567, 816.695 214.698, 818.738 212.792 C 824.746 207.186, 827.048 196.275, 823.492 190.256 C 819.814 184.030, 818.494 183.772, 789.561 183.629 L 763.340 183.500 766.410 190 M 397.760 185.486 C 387.069 188.211, 377.122 195.089, 374.372 201.659 C 369.922 212.287, 371.048 220.365, 378.094 228.370 C 386.321 237.716, 398.742 242.467, 415 242.487 C 430.381 242.506, 439.697 239.430, 447.833 231.645 C 458.923 221.034, 459.940 207.711, 450.464 197.172 C 442.828 188.678, 433.191 185.232, 415 184.492 C 406.832 184.159, 401.837 184.447, 397.760 185.486 M 494.595 190.471 C 490.651 192.604, 489.070 194.913, 489.032 198.595 C 488.993 202.329, 491.143 204.430, 496.500 205.895 C 505.767 208.429, 516.142 206.029, 516.827 201.192 C 517.871 193.825, 502.287 186.310, 494.595 190.471 M 400.857 201.569 C 390.741 204.683, 386.878 212.636, 392.750 218.259 C 399.048 224.290, 410.193 226.957, 421 225.020 C 431.675 223.106, 439 217.480, 439 211.196 C 439 208.127, 434.775 204.434, 428.638 202.137 C 421.821 199.587, 408.199 199.308, 400.857 201.569 M 607.500 216.699 C 604.418 217.477, 599.150 221.803, 597.633 224.802 C 594.964 230.075, 594.732 234.816, 596.921 239.337 C 599.463 244.588, 603.825 247.277, 609.613 247.161 C 615.543 247.042, 617.459 245.809, 619.450 240.833 C 624.351 228.583, 621.212 218.399, 612 216.665 C 610.625 216.406, 608.600 216.421, 607.500 216.699 M 538.852 275.862 C 516.212 289.524, 471.787 305.487, 438 312.100 C 424.853 314.674, 406.687 315.076, 393.500 313.086 C 364.233 308.669, 323.219 292.950, 308.598 280.546 C 301.122 274.204, 299 273.971, 299 279.491 C 299 284.278, 303.304 293.280, 311.845 306.357 C 315.745 312.328, 319.890 319.753, 321.056 322.857 C 324.051 330.829, 325.239 345.197, 324.780 367.904 C 324.440 384.735, 324.046 388.716, 321.987 396.115 L 319.590 404.731 323.951 411.424 C 330.451 421.401, 337.594 427.256, 351.500 434.005 C 382.238 448.923, 413.223 453.033, 446.500 446.605 C 462.801 443.456, 470.790 441.183, 484.310 435.843 C 505.104 427.630, 513.301 422.346, 521.004 412.191 C 526.752 404.613, 526.932 403.023, 523.406 391 C 521.748 385.346, 521.503 381.180, 521.520 359 C 521.538 335.538, 521.716 332.939, 523.743 326.483 C 526.577 317.457, 533.357 304.131, 541.543 291.500 C 549.238 279.626, 552.694 269.920, 549.191 270.020 C 548.811 270.031, 544.158 272.660, 538.852 275.862 M 705 295.386 C 691.382 300.214, 675.262 306.178, 662 311.293 C 645.898 317.504, 599.060 335.777, 577 344.454 C 566.825 348.456, 556.889 352.304, 554.919 353.005 C 551.282 354.300, 547.295 356.765, 548.073 357.240 C 548.308 357.383, 551.463 359.012, 555.084 360.859 C 562.177 364.479, 576.389 374.674, 588.463 384.805 C 592.596 388.273, 601.413 394.243, 608.056 398.073 C 620.875 405.462, 626.054 410.014, 629.022 416.500 C 630.029 418.700, 632.733 427.007, 635.033 434.961 C 637.332 442.914, 641.613 454.924, 644.546 461.649 C 647.479 468.374, 650.755 476.942, 651.825 480.688 C 655.807 494.620, 662.859 521.626, 663.473 525.300 C 664.033 528.642, 664.374 529.020, 666.305 528.435 C 670.916 527.038, 686.219 520.958, 704.500 513.260 C 740.318 498.177, 752.527 493.158, 771.579 485.688 C 782.073 481.573, 793.093 476.973, 796.068 475.465 C 804.261 471.314, 811.661 463.012, 817.500 451.424 L 822.500 441.500 822.473 403 C 822.449 368.678, 822.249 363.850, 820.626 358.513 C 816.813 345.967, 811.565 340.081, 796.500 331.454 C 791 328.304, 781.550 322.568, 775.500 318.708 C 747.878 301.085, 741.152 297.321, 731.098 293.862 C 722.956 291.061, 716.065 291.463, 705 295.386 M 492 331.645 C 481.253 336.196, 472.822 338.658, 461.802 340.462 C 452.996 341.904, 448.704 343.816, 446.959 347.076 C 445.420 349.953, 445.855 355.250, 447.909 358.618 C 450.774 363.318, 453.839 363.584, 462.275 359.866 C 466.249 358.115, 473.325 355.450, 478 353.945 C 488.283 350.635, 502.033 345.212, 503.750 343.790 C 506.213 341.751, 504.706 328.717, 501.956 328.278 C 501.155 328.149, 496.675 329.665, 492 331.645 M 768.500 375.084 C 759.150 378.916, 747.900 383.362, 743.500 384.966 C 735.842 387.757, 726.369 391.448, 706.275 399.470 C 695.192 403.894, 692 407.014, 692 413.422 C 692 417.746, 693.495 419.984, 697.286 421.330 C 699.211 422.014, 699.764 421.815, 726 411.014 C 735.625 407.051, 749.125 401.566, 756 398.824 C 787.213 386.378, 791.569 384.363, 794.027 381.238 C 796.965 377.503, 796.566 373.654, 792.923 370.589 C 791.231 369.165, 788.869 368.027, 787.673 368.059 C 786.478 368.092, 777.850 371.253, 768.500 375.084 M 537.885 376.142 C 537.618 379.290, 538.427 381.907, 543.008 392.717 C 545.663 398.983, 549.724 407.007, 552.032 410.549 C 554.340 414.092, 557.409 419.805, 558.851 423.245 C 561.341 429.183, 561.474 430.387, 561.487 447 C 561.499 463.153, 561.311 465, 559.050 471 C 555.926 479.290, 554.025 482.564, 546.297 492.972 L 540.007 501.444 548.753 505.685 C 560.947 511.596, 590.050 534.370, 592.014 539.538 C 592.490 540.789, 593.193 544.668, 593.577 548.157 C 593.960 551.646, 595.146 556.740, 596.212 559.478 C 597.278 562.217, 598.793 569.642, 599.579 575.978 C 601.750 593.504, 601.815 593.723, 605.539 596.024 C 612.625 600.404, 617.275 608.726, 619.493 621 C 620.667 627.501, 622.041 629.715, 626.011 631.505 C 632.435 634.402, 639.480 633.233, 654.500 626.779 C 683.804 614.188, 710.459 602.418, 726.500 594.986 C 745.276 586.287, 769.877 575.935, 785.954 569.967 C 798.417 565.340, 801.211 563.445, 802.385 558.823 C 803.806 553.229, 801.671 550.236, 793 545.663 C 788.875 543.488, 778.300 537.546, 769.500 532.459 C 760.700 527.373, 751.250 522.109, 748.500 520.762 C 745.750 519.414, 742.150 517.513, 740.500 516.537 C 737.521 514.773, 737.465 514.783, 732.325 517.983 C 725.054 522.511, 704.540 531.586, 679.199 541.487 C 669.666 545.211, 667.030 546.635, 667.483 547.816 C 668.415 550.244, 671.965 593.247, 671.320 594.291 C 670.625 595.416, 648.747 606.081, 648.219 605.552 C 648.017 605.351, 647.892 596.256, 647.940 585.343 C 648.152 537.143, 642.065 507.109, 623.574 465.129 C 611.020 436.627, 601.024 423.502, 582.958 411.803 C 573.568 405.722, 570.322 402.859, 564.474 395.500 C 562.288 392.750, 559.712 389.912, 558.750 389.193 C 557.788 388.475, 557 387.272, 557 386.520 C 557 385.769, 553.954 383.129, 550.232 380.654 C 542.702 375.648, 538.070 373.956, 537.885 376.142 M 781 405.179 C 775.225 407.445, 759.025 414.013, 745 419.775 C 730.975 425.536, 716.686 431.312, 713.248 432.610 C 698.403 438.211, 693 442.441, 693 448.461 C 693 452.474, 696.539 456, 700.564 455.999 C 702.179 455.999, 706.425 454.606, 710 452.903 C 718.858 448.686, 745.141 437.339, 752.500 434.555 C 767.578 428.851, 789.805 419.603, 792.774 417.798 C 796.289 415.661, 799 411.396, 799 408.004 C 799 405.681, 794.821 400.983, 792.795 401.030 C 792.083 401.046, 786.775 402.913, 781 405.179 M 306.735 420.750 C 301.342 434.397, 300.070 450.916, 303.409 463.951 C 306.803 477.198, 315.846 489.982, 327.491 497.994 C 343.074 508.715, 375.799 519.554, 400.345 522.124 C 416.093 523.773, 437.758 522.722, 452.649 519.585 C 478.222 514.199, 502.102 505.117, 516.623 495.256 C 529.592 486.449, 540.308 471.450, 543.052 458.263 C 544.837 449.686, 543.776 431.944, 541.049 424.769 C 539.851 421.617, 538.472 418.792, 537.984 418.490 C 537.497 418.189, 535.560 420.318, 533.680 423.221 C 529.803 429.210, 524.152 435.335, 518.984 439.149 C 507.989 447.265, 478.935 458.307, 454.500 463.655 C 442.276 466.330, 440.156 466.496, 419 466.431 C 399.823 466.371, 394.999 466.039, 386.336 464.179 C 371.136 460.916, 359.263 456.724, 343.403 449.021 C 331.672 443.322, 327.900 440.927, 322.216 435.565 C 318.044 431.629, 314.028 426.653, 312.092 423.021 C 310.327 419.709, 308.733 417, 308.550 417 C 308.367 417, 307.550 418.688, 306.735 420.750 M 784.500 439.024 C 782.300 440.069, 773.750 443.599, 765.500 446.869 C 757.250 450.139, 743.300 455.809, 734.500 459.469 C 693.719 476.432, 693.657 476.466, 692.398 482.758 C 691.867 485.415, 692.267 486.421, 694.908 489.062 C 698.840 492.994, 698.416 493.085, 721.500 483.353 C 758.274 467.850, 786.611 455.689, 790.289 453.832 C 794.191 451.862, 797.990 446.871, 797.996 443.705 C 798.002 441.138, 793.503 436.989, 790.795 437.062 C 789.533 437.096, 786.700 437.979, 784.500 439.024 M 273.384 457.901 C 250.227 471.529, 236.770 487.620, 233.741 505.303 C 231.965 515.672, 233.831 527.858, 238.678 537.533 C 256.225 572.566, 318.829 600.466, 392.615 606.136 C 416.872 607.999, 447.366 604.811, 479.500 597.050 C 506.952 590.421, 537.142 576.263, 551.159 563.445 C 559.039 556.239, 569 544.842, 569 543.032 C 569 539.748, 563.413 534.461, 555.760 530.505 C 551.767 528.440, 546.328 525.388, 543.673 523.722 C 538.265 520.328, 531.807 511.689, 532.765 509.129 C 533.254 507.822, 533.091 507.727, 531.937 508.651 C 529.442 510.650, 500.841 524.699, 492.676 527.936 C 479.151 533.298, 463.001 537.725, 448.528 540.036 C 436.701 541.924, 432.094 542.183, 418.528 541.721 C 388.967 540.714, 358.937 533.987, 337.266 523.518 C 313.039 511.815, 299.957 500.617, 292.939 485.576 C 288.415 475.879, 286.131 468.281, 285.196 459.820 C 284.701 455.348, 284.066 453.468, 283 453.325 C 282.175 453.215, 277.848 455.274, 273.384 457.901 M 213.270 510.500 C 205.879 528.665, 199.019 552.374, 199.007 559.798 C 198.994 567.936, 205.745 577.793, 223.476 595.524 C 253.885 625.933, 297.325 646.018, 352.026 654.960 C 386.901 660.662, 429.616 659.903, 466.489 652.927 C 479.563 650.454, 510.819 641.551, 523.622 636.653 C 540.227 630.301, 567.811 612.996, 581.893 600.096 L 586.287 596.072 585.766 585.089 C 585.184 572.806, 583.432 568.228, 578.675 566.555 C 576.170 565.674, 575.424 566.121, 569.228 572.213 C 562.643 578.687, 541.731 593.092, 531.194 598.412 C 511.326 608.442, 484.552 616.131, 448.500 622.159 C 436.257 624.206, 431.237 624.495, 408.500 624.457 C 383.838 624.417, 381.548 624.250, 364 621.203 C 306.585 611.233, 266.207 593.481, 238.355 565.962 C 223.341 551.128, 217.866 539.737, 215.671 518.773 C 214.583 508.379, 214.396 507.734, 213.270 510.500 M 196.272 585.500 C 196.747 591.305, 201.090 601.743, 208.337 614.500 C 213.971 624.416, 228.003 639.471, 235.833 644 C 238.210 645.375, 242.258 647.944, 244.828 649.709 C 264.679 663.343, 308.650 679.924, 343.500 686.918 C 365.722 691.378, 404.336 693.743, 427.500 692.064 C 469.753 689.001, 496.918 683.131, 529.673 669.987 C 554.428 660.052, 569.115 651.263, 586.606 635.915 C 597.403 626.440, 601.944 619.166, 599.885 614.646 C 598.235 611.026, 595.333 611.278, 591.042 615.414 C 586.789 619.513, 565.675 634.688, 554.392 641.756 C 533.789 654.663, 487.196 669.350, 453.696 673.497 C 423.794 677.199, 386.939 677.365, 359.500 673.920 C 344.157 671.993, 320.703 666.308, 301.519 659.865 C 264.684 647.494, 240.980 633.258, 218.159 609.801 C 208.962 600.349, 205.943 596.517, 199.010 585.500 L 195.863 580.500 196.272 585.500" stroke="none" fill="#000000" fill-rule="evenodd"/>
</svg>