<svg xmlns="http://www.w3.org/2000/svg" width="1024" height="1024" viewBox="0 0 1024 1024" version="1.1">
	<path d="M 85.557 60.228 C 84.701 60.707, 84 61.771, 84 62.592 C 84 64.262, 90.573 73.464, 93.867 76.405 C 95.040 77.453, 96 78.890, 96 79.598 C 96 81.249, 85.218 94, 83.821 94 C 83.242 94, 79.669 91.252, 75.881 87.894 C 68.971 81.768, 66.680 81.064, 65.307 84.643 C 63.625 89.024, 73.672 109.546, 79.132 112.881 C 80.375 113.640, 84.116 114.473, 87.446 114.730 C 92.977 115.158, 93.858 114.937, 97.637 112.175 C 99.913 110.512, 104.914 105.404, 108.752 100.825 C 112.589 96.246, 116.690 91.643, 117.864 90.595 C 123.661 85.424, 115.692 68.680, 104.877 63.307 C 99.880 60.824, 87.902 58.916, 85.557 60.228 M 170.524 63.041 C 161.309 67.689, 156 76.029, 156 85.859 L 156 91.739 148.021 99.620 L 140.042 107.500 148.271 116.105 C 159.996 128.365, 159 127.965, 165.006 122.840 C 167.802 120.453, 170.961 117.112, 172.024 115.416 C 173.953 112.340, 173.971 112.335, 179.465 113.331 C 189.933 115.229, 198.770 109.675, 205.420 97.020 C 209.457 89.337, 210.099 85.408, 207.843 82.186 C 206.421 80.156, 206.223 80.250, 198.823 86.451 C 187.400 96.025, 188.341 95.906, 181.167 88.669 C 177.775 85.246, 175 81.692, 175 80.770 C 175 79.848, 177.929 75.810, 181.508 71.797 C 185.087 67.784, 187.895 63.825, 187.748 63 C 187.303 60.516, 175.474 60.544, 170.524 63.041 M 353 62.907 C 345.278 63.925, 336.598 69.541, 332.258 76.330 C 329.921 79.985, 329.607 81.450, 329.715 88.193 L 329.838 95.887 323.919 102.592 C 320.664 106.279, 318.009 109.792, 318.020 110.398 C 318.031 111.004, 321.117 114.865, 324.877 118.978 L 331.714 126.456 337.933 120.478 C 345.623 113.086, 347.392 112.080, 352.782 112.035 C 362.104 111.958, 369.662 106.151, 374.748 95.159 C 379.937 83.945, 377.577 81.790, 368.552 89.500 C 362.090 95.020, 359.026 95.273, 353.889 90.708 C 351.903 88.944, 349.964 86.499, 349.580 85.276 C 348.578 82.084, 351.218 77.187, 357.557 70.485 C 365.506 62.078, 365.050 61.319, 353 62.907 M 266.524 64.093 C 266.984 64.867, 270.251 69.225, 273.784 73.777 C 279.978 81.757, 280.150 82.134, 278.593 84.277 C 277.705 85.500, 275.853 88.188, 274.477 90.250 C 273.101 92.313, 271.224 94, 270.306 94 C 269.389 94, 265.457 91.594, 261.569 88.654 C 250.161 80.026, 249.588 80.058, 251.701 89.203 C 253.624 97.528, 260.303 107, 266.296 109.901 C 268.812 111.119, 272.602 112, 275.326 112 C 280.014 112, 280.041 112.020, 296.760 127.805 C 313.972 144.056, 328.814 160.428, 341.245 176.877 C 354.190 194.006, 363.867 196.532, 372.892 185.136 C 375.296 182.102, 375.999 180.225, 375.996 176.856 C 375.990 169.289, 374.683 167.806, 350 147.354 C 341.475 140.291, 329.775 129.995, 324 124.474 C 318.225 118.954, 311.525 112.708, 309.112 110.596 C 306.698 108.484, 302.786 104.574, 300.417 101.907 L 296.111 97.059 296.683 90.239 C 297.157 84.589, 296.905 82.741, 295.215 79.460 C 292.333 73.865, 287.441 69.520, 280.646 66.519 C 273.491 63.359, 265.246 61.942, 266.524 64.093 M 563.832 68.750 C 556.790 75.975, 556 77.560, 556 84.466 C 556 91.407, 557.717 95.640, 562.782 101.190 C 564.946 103.560, 567.230 106.483, 567.858 107.684 C 568.633 109.167, 569 118.694, 569 137.353 L 569 164.837 564.551 170.049 C 562.104 172.916, 559.809 176.594, 559.451 178.223 C 557.950 185.059, 561.688 195.227, 567.207 199.319 C 571.025 202.150, 584.309 202.926, 588.841 200.582 C 593.149 198.355, 597.550 192.042, 598.995 186.020 C 600.470 179.871, 599.245 175.430, 594.299 169 L 590.838 164.500 591.169 136.413 L 591.500 108.325 596.845 102.478 C 599.785 99.262, 602.652 95.477, 603.217 94.066 C 604.854 89.974, 604.554 77.944, 602.726 74.425 C 601.027 71.152, 593.666 64, 591.997 64 C 591.395 64, 591 68.335, 591 74.941 C 591 80.959, 590.663 86.029, 590.250 86.208 C 589.837 86.387, 585.422 86.384, 580.438 86.201 L 571.376 85.868 571.814 74.434 C 572.339 60.712, 571.943 60.430, 563.832 68.750 M 429.142 80.750 L 429.356 97.500 449.428 97.300 L 469.500 97.100 469.774 80.550 L 470.048 64 449.488 64 L 428.927 64 429.142 80.750 M 892.500 64.657 C 891.400 64.891, 886.969 65.761, 882.654 66.591 C 871.897 68.660, 864.260 71.674, 862.336 74.609 C 860.851 76.877, 860.870 77.199, 862.602 79.113 C 864.330 81.022, 865.139 81.121, 873.484 80.440 C 891.321 78.984, 896.462 79.957, 900.929 85.637 C 903.286 88.633, 902.959 91.199, 899.779 94.677 L 897.788 96.855 900.330 100.177 C 901.729 102.005, 905.939 106.201, 909.686 109.502 C 920.502 119.029, 919.715 118.616, 922.344 116.147 C 925.315 113.356, 926.048 113.425, 931.345 117 C 933.790 118.650, 936.753 120, 937.930 120 C 939.834 120, 939.940 120.248, 938.885 122.250 C 938.234 123.487, 937.238 124.801, 936.672 125.169 C 935.709 125.796, 949.407 142.028, 950.856 141.978 C 951.210 141.966, 956.445 137.030, 962.489 131.009 L 973.478 120.063 969.356 115.781 C 967.089 113.427, 964.718 110.493, 964.088 109.262 C 962.669 106.489, 958.653 105.381, 955.399 106.864 C 953.122 107.902, 952.734 107.650, 950.021 103.372 C 947.793 99.859, 947.241 98.044, 947.701 95.743 C 948.260 92.950, 947.564 92.013, 938.403 83.227 C 922.981 68.438, 921.146 67.138, 913.362 65.489 C 906.880 64.115, 896.919 63.718, 892.500 64.657 M 406.015 79.750 C 406.024 87.313, 406.387 94.061, 406.822 94.746 C 407.272 95.455, 410.889 96.270, 415.206 96.635 L 422.797 97.276 423.504 88.792 C 423.893 84.125, 423.962 77.651, 423.659 74.404 C 423.355 71.157, 423.082 67.938, 423.053 67.250 C 423.015 66.352, 420.605 66, 414.500 66 L 406 66 406.015 79.750 M 475.649 72.472 C 475.292 73.403, 475 77.052, 475 80.582 L 475 87 483.514 87 C 494.221 87, 495.611 86.220, 495.154 80.474 C 494.769 75.629, 494.953 75.726, 483.760 74.492 C 480.158 74.094, 477.700 73.286, 477.159 72.320 C 476.400 70.963, 476.221 70.981, 475.649 72.472 M 698.568 73.532 C 688.579 76.273, 674 85.131, 674 88.459 C 674 89.147, 676.379 91.913, 679.287 94.605 C 692.695 107.020, 693.736 107.414, 694.195 100.250 C 694.474 95.900, 694.732 95.473, 697.250 95.184 C 699.886 94.880, 700 95.052, 700 99.327 C 700 102.346, 699.521 103.970, 698.517 104.355 C 697.701 104.668, 697.287 105.585, 697.598 106.394 C 698.386 108.448, 694.306 113.631, 690.736 115.109 C 687.792 116.329, 687.660 116.241, 679.628 107.732 C 671.341 98.953, 668.176 96.611, 665.820 97.516 C 665.091 97.795, 663.049 100.156, 661.283 102.762 C 658.058 107.521, 655.570 115.221, 654.395 124.081 C 653.775 128.754, 653.817 128.850, 656.631 129.172 C 658.209 129.352, 662.523 129.101, 666.217 128.614 C 671.822 127.874, 673.354 128.002, 675.467 129.387 C 678.570 131.419, 678.854 135.473, 676.001 136.999 C 673.704 138.229, 665.507 137.404, 659.624 135.352 C 657.493 134.608, 654.856 134, 653.765 134 C 651.609 134, 651.599 133.357, 653.956 146.500 C 654.980 152.205, 660.211 164.202, 663.550 168.500 C 665.093 170.487, 665.134 170.483, 669.802 167.904 C 672.386 166.476, 675.980 163.326, 677.789 160.904 C 679.598 158.482, 682.140 155.150, 683.439 153.500 L 685.800 150.500 691.150 153.421 C 694.092 155.027, 696.815 156.817, 697.200 157.398 C 697.584 157.980, 697.649 160.283, 697.343 162.516 C 696.930 165.531, 697.200 166.921, 698.393 167.911 C 700.385 169.564, 700.491 172, 698.571 172 C 697.786 172, 696.420 171.278, 695.537 170.395 C 694.018 168.875, 694.059 167.815, 695.824 163 C 696.280 161.757, 696.107 161.717, 694.816 162.766 C 693.959 163.462, 691.060 164.684, 688.375 165.481 C 684.931 166.504, 682.044 168.402, 678.578 171.921 C 675.875 174.665, 673.177 176.619, 672.582 176.263 C 671.105 175.380, 674.028 179.065, 676.500 181.202 C 680.233 184.430, 691.506 189.856, 698.517 191.800 C 702.358 192.865, 706.214 194.040, 707.087 194.412 C 708.480 195.006, 708.629 194.071, 708.303 186.795 C 708.098 182.233, 707.688 176.548, 707.391 174.162 C 706.886 170.102, 706.739 169.926, 705.097 171.412 C 702.596 173.676, 702 173.404, 702 170 C 702 168, 702.500 167, 703.500 167 C 704.325 167, 705 167.456, 705 168.013 C 705 168.606, 706.504 168.398, 708.622 167.513 C 712.504 165.892, 719.538 165.373, 717.154 166.884 C 716.124 167.536, 715.838 170.872, 715.938 181.070 C 716.010 188.402, 716.267 194.601, 716.510 194.844 C 716.753 195.086, 717.559 194.781, 718.300 194.166 C 719.042 193.550, 722.885 192.366, 726.841 191.534 C 730.796 190.701, 737.634 188.374, 742.036 186.362 C 749.048 183.157, 749.962 182.443, 749.406 180.602 C 747.355 173.806, 737.317 163.453, 733.667 164.369 C 731.014 165.035, 729.703 164.265, 728.004 161.044 C 726.789 158.739, 727.001 158.322, 731.451 154.294 C 734.059 151.932, 736.712 150.019, 737.347 150.043 C 738.595 150.089, 744.912 157.940, 746.968 162 C 748.438 164.904, 756.017 173, 757.264 173 C 757.731 173, 759.020 171.088, 760.129 168.750 C 761.238 166.412, 763.675 162.274, 765.545 159.554 C 767.533 156.662, 769.407 152.302, 770.058 149.054 C 770.671 145.999, 771.584 142.719, 772.086 141.764 C 772.589 140.809, 773 138.398, 773 136.407 C 773 133.516, 772.681 132.908, 771.418 133.393 C 770.548 133.727, 769.423 134, 768.918 134 C 768.413 134, 768 134.477, 768 135.059 C 768 135.641, 768.419 135.859, 768.931 135.543 C 769.443 135.226, 770.144 135.425, 770.490 135.984 C 770.901 136.649, 767.295 137, 760.059 137 L 749 137 749 133.019 C 749 129.570, 749.346 128.951, 751.591 128.388 C 753.015 128.030, 755.880 128.247, 757.957 128.869 C 760.033 129.491, 763.620 130, 765.927 130 L 770.123 130 769.499 125.250 C 769.157 122.638, 768.447 118.306, 767.922 115.624 C 766.638 109.070, 756 89.536, 756 93.734 C 756 94.203, 753.379 97.282, 750.175 100.576 C 746.972 103.871, 743.120 109.166, 741.617 112.345 C 738.088 119.804, 736.037 119.704, 730.616 111.808 C 726.886 106.374, 726.770 105.970, 728.047 102.886 C 728.783 101.109, 729.562 100.186, 729.778 100.834 C 729.994 101.482, 730.582 101.758, 731.085 101.447 C 731.588 101.136, 732 101.574, 732 102.421 C 732 103.267, 733.756 104.855, 735.902 105.950 L 739.804 107.941 738.704 105.026 C 737.672 102.292, 737.916 101.782, 742.647 96.780 C 745.421 93.847, 748.270 90.364, 748.978 89.041 C 750.128 86.892, 750.011 86.427, 747.883 84.703 C 741.638 79.644, 722.775 72.090, 716.200 72.015 C 715.178 72.003, 715.015 74.406, 715.439 83.250 C 715.735 89.438, 716.261 96.370, 716.608 98.655 L 717.238 102.810 711.369 103.216 C 708.141 103.438, 704.712 103.979, 703.750 104.417 C 702.190 105.128, 702 104.566, 702 99.232 C 702 93.385, 702.068 93.236, 705 92.650 L 708 92.050 708 82.025 C 708 70.593, 708.299 70.862, 698.568 73.532 M 117.130 99.068 C 116.412 100.691, 112.503 105.052, 108.444 108.759 L 101.063 115.500 119.782 134.089 C 149.184 163.288, 165.217 180.511, 167.852 185.727 C 171.573 193.090, 175.613 197.634, 180.575 200.036 C 184.700 202.033, 185.529 202.117, 189.803 200.971 C 196.705 199.120, 200.883 196.254, 204.121 191.148 C 207.673 185.548, 207.956 178.707, 204.916 172 C 202.077 165.738, 199.531 163.342, 193.195 160.972 C 189.113 159.445, 185.018 156.442, 177.110 149.181 C 171.274 143.823, 164.025 137.373, 161 134.847 C 157.975 132.320, 150.100 124.997, 143.500 118.573 C 133.018 108.370, 125.262 101.356, 119.968 97.293 C 118.704 96.322, 118.208 96.632, 117.130 99.068 M 438.827 109.059 C 438.591 113.228, 437.917 116.433, 437.179 116.889 C 435.653 117.833, 433.716 183.523, 435.074 188.260 C 436.353 192.716, 438.490 195.521, 442.491 197.994 C 447.602 201.153, 453.465 200.180, 458.090 195.405 L 461.500 191.884 461.136 154.692 C 460.937 134.236, 460.374 116.742, 459.886 115.816 C 459.399 114.889, 458.994 112.414, 458.986 110.316 C 458.957 102.066, 458.874 102, 448.496 102 L 439.226 102 438.827 109.059 M 879.497 113.250 C 875.164 117.237, 859.105 132.909, 843.809 148.075 C 812.349 179.269, 813.296 177.753, 819.029 187.749 C 823.818 196.099, 833.495 201.347, 838.925 198.539 C 842.408 196.737, 910.294 127.369, 909.843 126.072 C 909.027 123.727, 890.746 106, 889.144 106 C 888.171 106, 883.830 109.263, 879.497 113.250 M 706.343 120.452 C 702.796 121.995, 697.987 129.296, 698.022 133.088 C 698.067 138.036, 701.645 143.778, 706.098 146.050 C 718.815 152.538, 730.638 140.012, 724.028 127.055 C 720.184 119.519, 713.889 117.169, 706.343 120.452 M 906 119.378 C 906 119.585, 906.788 120.373, 907.750 121.128 C 909.336 122.371, 909.371 122.336, 908.128 120.750 C 906.821 119.084, 906 118.555, 906 119.378 M 289 136.195 C 255.617 166.942, 251.251 171.999, 252.334 178.674 C 253.558 186.214, 261.956 192.794, 268.734 191.522 C 272.552 190.806, 279.618 184.257, 288.741 172.979 C 291.623 169.416, 297.798 162.471, 302.463 157.548 C 312.179 147.291, 312.281 149.387, 301.529 138.261 C 298.213 134.829, 295.050 132.028, 294.500 132.036 C 293.950 132.044, 291.475 133.915, 289 136.195 M 104.834 140.182 C 91.546 155.345, 87.021 159.673, 83.106 160.965 C 78.543 162.471, 71.890 168.606, 69.610 173.409 C 67.060 178.784, 67.561 183.855, 71.250 190.011 C 73.037 192.993, 75.995 196.438, 77.823 197.666 C 81.542 200.165, 88.630 201.561, 92.574 200.571 C 96.714 199.532, 104.708 191.316, 107.602 185.126 C 109.531 181.001, 113.151 176.632, 121.173 168.750 C 127.189 162.838, 132.537 158, 133.056 158 C 135.382 158, 133.511 154.715, 127.467 148.187 C 123.874 144.306, 118.737 139.291, 116.051 137.043 L 111.168 132.954 104.834 140.182 M 344.037 159.931 C 342.892 162.070, 344.935 165, 347.571 165 C 349.506 165, 349.394 161.365, 347.437 160.614 C 346.577 160.284, 346.153 159.561, 346.496 159.007 C 346.838 158.453, 346.657 158, 346.094 158 C 345.531 158, 344.605 158.869, 344.037 159.931 M 99.667 161.667 C 98.389 162.945, 99.015 166.212, 101.098 169.137 C 102.771 171.487, 103.479 171.847, 104.598 170.919 C 106.706 169.170, 106.287 165.619, 103.686 163.174 C 101.189 160.829, 100.691 160.642, 99.667 161.667 M 169.595 163.168 C 167.486 166.179, 167.583 167.706, 169.966 168.982 C 171.587 169.849, 172.215 169.601, 173.549 167.566 C 176.712 162.739, 172.881 158.476, 169.595 163.168 M 442.500 162.727 C 438.248 163.332, 437.067 164.815, 439.441 166.567 C 442.199 168.602, 456.298 168.551, 458 166.500 C 461.102 162.762, 454.146 161.069, 442.500 162.727 M 357.750 169.080 C 356.787 169.641, 355.296 171.461, 354.435 173.126 C 353.013 175.875, 353.015 176.373, 354.449 178.562 C 355.317 179.888, 357.147 181.705, 358.514 182.601 C 360.804 184.102, 361.194 184.103, 363.465 182.615 C 367.145 180.204, 368.151 177.733, 366.908 174.165 C 365.945 171.403, 362.223 167.955, 360.285 168.030 C 359.853 168.047, 358.712 168.519, 357.750 169.080 M 262.655 171.829 C 260.256 174.479, 260.603 178.694, 263.455 181.545 C 266.449 184.540, 267.951 184.613, 271.365 181.927 C 274.401 179.539, 274.771 176.106, 272.385 172.465 C 270.395 169.428, 265.139 169.084, 262.655 171.829 M 83.072 173.668 C 78.555 177.740, 77.967 182.619, 81.490 186.805 C 88.087 194.646, 100.342 186.364, 95.629 177.250 C 92.373 170.953, 87.597 169.590, 83.072 173.668 M 184.090 172.265 C 182.765 172.944, 180.820 175.164, 179.769 177.199 C 177.945 180.727, 177.936 181.062, 179.564 184.493 C 182.795 191.304, 190.126 192.390, 194.382 186.690 C 197.543 182.456, 197.065 177.341, 193.184 173.873 C 189.664 170.728, 187.749 170.389, 184.090 172.265 M 576.357 176.954 C 573.376 178.210, 571 181.910, 571 185.299 C 571 188.954, 575.876 194, 579.407 194 C 582.771 194, 587.693 189.318, 588.482 185.368 C 589.636 179.587, 582.259 174.468, 576.357 176.954 M 445.035 180.934 C 443.658 183.507, 443.726 186.326, 445.200 187.800 C 447.109 189.709, 450.750 189.195, 452.443 186.777 C 454.420 183.955, 454.408 183.815, 451.961 181.189 C 449.440 178.482, 446.407 178.371, 445.035 180.934 M 189.195 182.500 C 189.215 184.150, 189.439 184.704, 189.693 183.731 C 189.947 182.758, 189.930 181.408, 189.656 180.731 C 189.382 180.054, 189.175 180.850, 189.195 182.500 M 504.429 244.578 C 501.718 246.631, 483.300 264.597, 463.500 284.502 C 443.700 304.408, 421.889 325.825, 415.031 332.097 C 408.173 338.369, 389.048 356.817, 372.531 373.092 C 356.014 389.368, 337.775 407.140, 332 412.586 C 326.225 418.032, 318.350 425.663, 314.500 429.543 C 306.465 437.641, 299.233 444.342, 275.217 465.939 C 265 475.126, 257.384 482.779, 256.407 484.838 C 253.929 490.058, 254.822 503.132, 258.048 508.872 C 261.272 514.608, 264.752 516.256, 274.793 516.803 L 283.085 517.255 290.293 510.353 C 302.048 499.095, 322.424 482, 324.087 482 C 325.064 482, 332 493.061, 332 494.619 C 332 495.269, 326.262 500.973, 319.250 507.295 C 312.238 513.616, 303.225 522.176, 299.222 526.317 L 291.943 533.845 292.222 631.673 L 292.500 729.500 294.829 734.228 C 297.667 739.992, 305.258 747, 312.497 750.542 L 317.878 753.175 512.279 753.064 C 626.703 752.998, 707.995 752.575, 709.875 752.036 C 714.608 750.678, 719.258 747.529, 723.794 742.608 C 732.209 733.479, 731.465 743.621, 731.783 633.694 L 732.066 535.888 728.283 532.762 C 723.379 528.711, 696.344 501.278, 693.950 497.924 C 692.127 495.370, 692.139 495.301, 695.362 489.924 C 697.270 486.742, 699.417 484.394, 700.557 484.244 C 702.676 483.965, 725.107 503.179, 731.659 510.886 C 735.757 515.706, 742.469 519.332, 744.949 518.066 C 745.802 517.630, 748.506 516.967, 750.958 516.592 C 753.409 516.217, 757.234 515.104, 759.458 514.119 C 765.168 511.590, 767.421 505.238, 766.800 493.414 C 766.272 483.346, 768.544 486.162, 738 457.714 C 726.725 447.213, 711.371 432.744, 703.880 425.560 C 696.389 418.377, 682.927 405.750, 673.964 397.500 C 659.109 383.826, 583.457 308.994, 574.891 299.500 C 572.906 297.300, 567.098 291.689, 561.985 287.032 C 556.871 282.375, 549.799 275.175, 546.270 271.032 C 542.740 266.889, 534.545 258.694, 528.058 252.820 C 513.585 239.713, 511.712 239.060, 504.429 244.578 M 928.908 242.140 C 915.710 243.422, 904.443 251.816, 901.945 262.229 C 901.295 264.939, 901.042 269.259, 901.382 271.828 C 901.986 276.380, 901.837 276.718, 895.592 285 C 887.100 296.260, 844.834 337.051, 827.500 350.716 C 819.577 356.962, 816.222 361.340, 815.459 366.426 C 814.352 373.804, 817.262 380.004, 824.186 385.020 C 827.591 387.486, 829.270 388, 833.928 388 C 841.265 388, 843.895 386.127, 853.584 374 C 863.595 361.468, 900.479 320.946, 910.374 311.606 C 924.672 298.110, 923.242 299, 930.641 299 C 941.784 299, 949.520 293.657, 955.601 281.760 C 958.791 275.519, 960.867 262.750, 959.048 260.558 C 956.887 257.954, 953.698 258.723, 951.152 262.462 C 947.998 267.093, 939.449 275, 937.595 275 C 935.491 275, 924.284 265.470, 923.506 263.020 C 923.012 261.461, 924.328 259.335, 929.148 253.912 C 932.607 250.021, 936.238 246.408, 937.218 245.883 C 939.273 244.783, 939.584 242.403, 937.750 241.809 C 937.063 241.586, 933.084 241.735, 928.908 242.140 M 115.781 245.604 C 114.972 247.433, 114.500 252.921, 114.500 260.500 C 114.500 274.037, 116.147 280.258, 121.129 285.548 C 123.077 287.615, 124 289.641, 124 291.847 C 124 300.074, 133.395 308.899, 140.695 307.529 C 145.231 306.679, 152.553 299.915, 154.075 295.170 C 154.723 293.151, 155.819 290.825, 156.510 290 C 158.439 287.698, 162.040 280.198, 164.123 274.142 C 165.491 270.167, 165.973 266.083, 165.900 259.093 C 165.787 248.167, 165.070 244.637, 162.879 244.215 C 161.209 243.894, 155.505 251.587, 150.061 261.500 C 148.249 264.800, 146.065 268.298, 145.207 269.274 C 144.011 270.633, 143.922 271.322, 144.824 272.224 C 147.027 274.427, 146.005 274.708, 140.750 273.344 C 137.863 272.594, 134.914 272.205, 134.198 272.479 C 133.482 272.753, 133.162 272.547, 133.487 272.020 C 134.300 270.705, 122.342 247.670, 119.422 244.927 L 117.061 242.709 115.781 245.604 M 834.667 244.667 C 833.390 245.943, 834.015 247.934, 836.407 250.210 C 840.659 254.256, 848 263.343, 848 264.560 C 848 266.447, 840.108 275.831, 837.943 276.518 C 835.535 277.282, 830.808 274.497, 826 269.481 C 822.813 266.156, 818.143 263, 816.411 263 C 814.917 263, 816.941 275.191, 819.285 280.311 C 824.810 292.380, 834.161 299, 845.682 299 L 852.431 299 858 305 C 861.063 308.300, 863.832 311, 864.153 311 C 864.887 311, 883.391 292.195, 883.805 291.028 C 883.973 290.555, 883.444 290.018, 882.629 289.834 C 881.814 289.650, 878.383 286.361, 875.005 282.524 C 869.611 276.397, 868.932 275.174, 869.438 272.478 C 870.406 267.317, 867.552 259.955, 862.783 255.309 C 855.820 248.528, 837.674 241.659, 834.667 244.667 M 385.641 254.710 C 383.959 255.143, 383.848 255.889, 384.477 262.594 L 385.171 270 382.456 270 L 379.742 270 380.437 262.943 L 381.132 255.885 376.316 256.193 L 371.500 256.500 371.206 263.750 C 370.958 269.886, 370.643 271, 369.156 271 C 366.240 271, 365 268.852, 365 263.800 L 365 259 360.500 259 L 356 259 356 265 C 356 270.721, 355.885 271, 353.519 271 C 350.783 271, 350.211 269.628, 349.764 262 L 349.500 257.500 345.566 257.500 L 341.631 257.500 341.885 263.714 C 342.125 269.607, 342.009 269.960, 339.626 270.558 C 335.694 271.545, 335 270.387, 335 262.834 C 335 256.818, 334.768 255.875, 333.418 256.393 C 332.548 256.727, 330.748 257, 329.418 257 C 327.091 257, 327 257.263, 327 264 L 327 271 323.572 271 L 320.145 271 320.712 265.500 L 321.280 260 316.640 260 L 312 260 312 265.383 C 312 270.318, 311.794 270.806, 309.524 271.240 C 308.161 271.501, 306.811 271.478, 306.524 271.190 C 306.236 270.902, 306 267.612, 306 263.879 L 306 257.091 302.453 256.425 C 300.503 256.059, 298.628 256.039, 298.287 256.380 C 297.946 256.721, 297.773 259.925, 297.902 263.500 L 298.138 270 295.069 270 L 292 270 292 264 L 292 258 287.399 258 L 282.798 258 283.149 264.230 C 283.451 269.591, 283.249 270.508, 281.702 270.812 C 278.482 271.444, 277 269.101, 277 263.378 L 277 258 269.500 258 L 262 258 262 262.346 C 262 264.737, 261.303 268.090, 260.451 269.798 C 259.428 271.849, 259.004 274.963, 259.201 278.970 L 259.500 285.037 324.250 285.026 C 359.863 285.020, 390.194 285.012, 391.654 285.007 L 394.308 285 393.692 271.250 C 393.134 258.799, 392.872 257.335, 390.927 255.750 C 389.745 254.787, 388.491 254.052, 388.139 254.116 C 387.788 254.180, 386.664 254.447, 385.641 254.710 M 641.140 270.786 L 630.780 271.072 631.260 298.101 L 631.739 325.129 634.119 326.794 C 635.429 327.710, 641.686 333.643, 648.024 339.980 C 654.362 346.316, 662.912 354.761, 667.024 358.746 C 671.136 362.731, 677.307 369.097, 680.738 372.891 C 684.169 376.685, 689.414 381.408, 692.394 383.386 C 695.374 385.364, 704.465 393.286, 712.597 400.991 C 720.729 408.696, 727.918 415, 728.574 415 C 730.571 415, 730.891 405.454, 731.202 336.500 L 731.500 270.500 691.500 270.500 C 669.500 270.500, 646.838 270.629, 641.140 270.786 M 135.223 283.557 C 133.644 284.662, 133 286.130, 133 288.622 C 133 295.712, 137.592 299.296, 143.056 296.471 C 147.194 294.331, 147.204 289.050, 143.077 284.923 C 139.750 281.596, 138.365 281.355, 135.223 283.557 M 266 301.465 C 266 310.906, 265.804 312.034, 264 313 C 262.516 313.794, 262 315.094, 262 318.035 C 262 320.258, 262.485 322, 263.103 322 C 263.841 322, 264.090 324.559, 263.857 329.750 C 263.666 334.012, 263.871 338.063, 264.314 338.750 C 265.352 340.364, 275.197 340.403, 276.800 338.800 C 277.494 338.106, 278 334.780, 278 330.911 L 278 324.223 281.321 323.600 C 284.987 322.912, 289.530 317.823, 288.612 315.431 C 288.310 314.644, 286.811 313.994, 285.281 313.986 C 277.986 313.951, 277.992 313.960, 278.682 301.891 L 279.306 291 272.653 291 L 266 291 266 301.465 M 900.602 295.635 C 898.301 299.021, 898.238 299.434, 899.681 301.635 C 902.256 305.566, 905.890 304.096, 909.086 297.831 C 911.427 293.242, 910.747 292.043, 905.786 292.015 C 903.776 292.004, 902.432 292.943, 900.602 295.635 M 121 300.169 C 121 301.362, 119.635 304.756, 117.967 307.712 C 116.299 310.667, 115.146 313.428, 115.405 313.846 C 115.663 314.264, 118.603 316.750, 121.937 319.370 C 127.335 323.610, 128 323.897, 128 321.980 C 128 320.796, 129.437 317.826, 131.194 315.379 L 134.388 310.932 129.253 306.440 C 126.429 303.970, 123.836 301.060, 123.492 299.974 C 122.652 297.329, 121 297.458, 121 300.169 M 155.508 300.974 C 155.164 302.060, 152.583 304.959, 149.773 307.417 L 144.664 311.886 148.332 315.946 C 150.350 318.179, 152 320.454, 152 321.003 C 152 322.869, 154.078 322.006, 159.570 317.859 C 164.411 314.204, 164.892 313.529, 163.669 312.109 C 162.906 311.224, 161.119 307.913, 159.697 304.750 C 158.274 301.587, 156.891 299, 156.623 299 C 156.354 299, 155.853 299.888, 155.508 300.974 M 367.961 302.603 C 367.432 303.993, 367 305.690, 367 306.374 C 367 308.785, 364.255 311.323, 359.911 312.928 C 354.345 314.984, 353.869 317.135, 358.391 319.803 C 360.310 320.936, 363.077 323.671, 364.540 325.882 C 366.003 328.092, 368.272 330.603, 369.581 331.461 C 371.889 332.974, 372.039 332.899, 374.493 329.010 C 375.886 326.805, 377.627 325, 378.364 325 C 379.100 325, 381.861 326.148, 384.499 327.550 C 387.137 328.953, 389.842 329.891, 390.510 329.634 C 391.890 329.105, 393.436 316.300, 392.435 313.691 C 391.902 312.303, 390.389 312, 384 312 C 375.449 312, 375 311.677, 375 305.516 C 375 302.716, 374.523 302.030, 371.961 301.136 C 369.182 300.167, 368.839 300.293, 367.961 302.603 M 325.901 305.730 C 323.654 310.974, 322.591 311.962, 319.179 311.985 C 316.483 312.002, 314.559 313.663, 313.549 316.845 C 312.635 319.726, 314.490 322, 317.754 322 C 320.086 322, 320.227 322.271, 319.749 325.834 C 318.888 332.258, 322.007 334.909, 326.533 331.599 C 327.707 330.741, 329.718 330.404, 331.724 330.730 C 334.535 331.186, 335 330.970, 335 329.207 C 335 328.078, 336.575 325.090, 338.500 322.568 C 340.425 320.046, 342 317.510, 342 316.932 C 342 316.355, 342.450 316.160, 343 316.500 C 343.550 316.840, 344 316.641, 344 316.059 C 344 315.477, 343.372 315, 342.604 315 C 340.717 315, 335.334 308.735, 333.549 304.463 C 331.383 299.279, 328.459 299.764, 325.901 305.730 M 884.949 310.583 C 882.926 313.856, 882.847 314.506, 884.038 318.114 L 885.341 322.062 888.670 318.835 C 892.423 315.198, 892.638 314.135, 890.474 309.950 C 888.500 306.133, 887.638 306.232, 884.949 310.583 M 101.591 322.965 C 99.118 326.788, 96.395 331.270, 95.539 332.925 C 94.683 334.581, 90.499 339.894, 86.241 344.734 C 67.651 365.863, 65.086 372.200, 70.455 383.732 C 73.389 390.034, 77.648 392.991, 83.800 392.996 C 89.213 393.001, 92.330 391.363, 98 385.534 C 102.470 380.938, 102.498 380.864, 102.255 374.494 C 102.019 368.310, 102.178 367.840, 106.733 361.291 C 109.331 357.556, 116.161 348.650, 121.911 341.500 C 127.661 334.350, 131.621 329.107, 130.711 329.849 C 128.815 331.395, 127.082 330.524, 113.793 321.341 L 106.087 316.016 101.591 322.965 M 170.450 316.928 C 169.928 317.438, 164.689 320.738, 158.809 324.261 L 148.119 330.666 149.937 333.583 C 150.937 335.187, 153.419 338.075, 155.453 340 C 157.487 341.925, 161.465 346.650, 164.292 350.500 C 167.120 354.350, 171.361 359.904, 173.717 362.842 C 177.712 367.824, 178.001 368.598, 178.016 374.342 C 178.044 384.688, 183.498 391.738, 192.236 392.723 C 203.881 394.036, 214.759 382.127, 212.079 371 C 210.581 364.781, 209.303 362.623, 202.846 355.409 C 192.332 343.661, 185 334.882, 185 334.039 C 185 333.601, 182.300 329.722, 179 325.418 C 175.700 321.114, 173 317.234, 173 316.796 C 173 315.719, 171.615 315.790, 170.450 316.928 M 900.551 327.471 C 896.180 331.992, 892.432 336.204, 892.223 336.831 C 891.726 338.323, 895.216 343.361, 900.730 349.112 C 904.800 353.356, 905.225 354.297, 906.056 360.918 C 907.253 370.451, 909.242 374.375, 916.339 381.201 C 926.005 390.500, 934.307 392.185, 944.745 386.970 C 957.934 380.379, 962.710 367.001, 956.031 355.356 C 951.186 346.909, 941.140 340, 933.702 340 C 930.371 340, 929.085 339.038, 919.662 329.500 C 913.956 323.725, 909.111 319.056, 908.894 319.125 C 908.677 319.194, 904.923 322.949, 900.551 327.471 M 868.250 330.170 C 862.553 334.402, 861.884 336.410, 864.926 340.139 L 866.852 342.500 870.419 339.061 C 874.594 335.035, 875.159 333.593, 874.206 329.385 L 873.500 326.270 868.250 330.170 M 850.712 343.784 C 848.121 346.416, 846 349.271, 846 350.129 C 846 352.267, 849.212 355, 851.725 355 C 853.722 355, 860.421 348.490, 859.797 347.156 C 859.628 346.795, 858.839 344.813, 858.044 342.750 C 857.249 340.688, 856.334 339, 856.012 339 C 855.689 339, 853.304 341.153, 850.712 343.784 M 140.720 357.963 C 140.085 360.391, 142.593 362.807, 144.142 361.258 C 145.482 359.918, 144.296 356, 142.549 356 C 141.825 356, 141.002 356.883, 140.720 357.963 M 928.206 360.480 C 923.747 364.232, 922.470 368.075, 924.427 371.858 C 926.490 375.848, 934.180 380.423, 937.446 379.603 C 940.830 378.754, 946.728 372.932, 947.559 369.623 C 949.781 360.769, 935.744 354.137, 928.206 360.480 M 829.077 364.589 C 826.979 366.354, 826 368.076, 826 370 C 826 373.343, 830.914 378, 834.442 378 C 841.238 378, 844.482 369.391, 839.545 364.455 C 836.388 361.297, 832.937 361.341, 829.077 364.589 M 127.166 370.061 C 127.350 371.316, 128.027 372.517, 128.671 372.729 C 129.418 372.974, 129.646 372.362, 129.301 371.042 C 128.534 368.109, 126.761 367.294, 127.166 370.061 M 191.637 370.250 C 188.142 373.427, 187.702 375.980, 189.996 379.753 C 192.433 383.760, 196.032 384.059, 199.545 380.545 C 201.953 378.138, 202.772 373.702, 201.235 371.400 C 200.374 370.111, 196.578 368, 195.122 368 C 194.566 368, 192.998 369.012, 191.637 370.250 M 79.455 371.455 C 76.345 374.564, 76.369 376.097, 79.589 379.923 C 82.624 383.531, 84.747 383.773, 88.365 380.927 C 91.542 378.428, 91.737 375.207, 88.927 371.635 C 86.305 368.300, 82.678 368.231, 79.455 371.455 M 415.500 380.424 C 414.950 380.651, 412.877 381.106, 410.894 381.436 C 402.201 382.883, 391.860 394.322, 393.465 400.716 C 394.253 403.856, 404.021 414.142, 417.250 425.761 C 422.613 430.470, 427 434.743, 427 435.254 C 427 436.656, 423.648 440.666, 415.253 449.305 L 407.669 457.110 402.085 451.692 C 392.990 442.869, 380.304 432.372, 376.625 430.627 C 368.844 426.934, 360.814 430.356, 355.317 439.708 C 352.626 444.285, 352.502 445.061, 352.536 457 C 352.580 472.250, 354.392 480.003, 360.765 492.211 C 372.712 515.094, 392.486 527.603, 421.094 530.376 C 431.184 531.354, 433.218 531.868, 436.767 534.332 L 440.845 537.165 433.108 544.832 C 428.853 549.050, 419.877 558.622, 413.162 566.104 L 400.953 579.709 391.727 580.300 C 365.120 582.006, 349.258 592.623, 337.940 616.300 C 333.157 626.307, 330.109 637.767, 329.304 648.776 C 328.736 656.556, 328.843 657.204, 331.100 659.606 C 332.420 661.011, 337.048 664.262, 341.384 666.831 C 353.115 673.779, 359.122 679.423, 381.335 704.370 C 389.190 713.192, 393.076 715.498, 402.784 717.101 C 418.971 719.775, 438.284 711.706, 451.465 696.763 C 458.105 689.235, 464.710 675.422, 466.653 665 C 467.524 660.325, 468.434 655.600, 468.674 654.500 C 468.915 653.400, 471.674 650.295, 474.806 647.599 C 477.938 644.904, 488.216 635.152, 497.646 625.928 L 514.793 609.157 522.646 616.853 C 526.966 621.086, 536.394 629.810, 543.597 636.241 L 556.694 647.932 557.317 657.716 C 558.747 680.166, 567.438 695.825, 584.921 707.447 C 593.262 712.993, 598.577 715.303, 607.528 717.274 C 622.993 720.681, 636.125 720.250, 645.680 716.023 C 651.161 713.599, 658.666 706.046, 659.788 701.824 C 661.635 694.875, 659.046 691.133, 640.533 674 L 628.106 662.500 637.784 652.750 C 643.107 647.388, 647.921 643.008, 648.481 643.017 C 649.042 643.027, 650.602 644.196, 651.949 645.615 C 658.376 652.387, 677.291 663, 682.933 663 C 686.971 663, 693.419 659.095, 696.394 654.848 C 698.728 651.515, 698.409 643.201, 695.483 631.123 C 689.365 605.868, 675.081 590.073, 651.075 582.017 C 646.468 580.471, 641.092 579.701, 632.075 579.298 L 619.500 578.735 610 569.066 C 604.775 563.748, 598.475 557.566, 596 555.329 C 593.525 553.091, 589.503 549.187, 587.063 546.652 L 582.626 542.044 587.213 537.522 L 591.799 533 600.650 532.985 C 623.873 532.946, 643.360 522.595, 658.809 502.093 C 674.264 481.583, 680.432 455.806, 672.685 444.100 C 668.476 437.739, 659.347 433.122, 653.755 434.525 C 650.416 435.363, 635.816 447.408, 626.578 456.946 L 618.655 465.125 606.871 453.371 L 595.087 441.618 599.288 438.059 C 614.668 425.031, 629.546 407.936, 632.015 400.454 C 634.110 394.106, 628.755 387.103, 618.931 383.343 C 611.667 380.562, 593.035 381.051, 580.570 384.349 C 554.730 391.186, 534.974 405.944, 526.076 425.057 C 522.038 433.732, 520.144 441.524, 519.359 452.692 C 518.708 461.957, 518.680 462.034, 515.301 464.123 C 513.429 465.280, 511.203 467.287, 510.354 468.583 L 508.810 470.939 504.033 465.341 L 499.256 459.743 498.577 449.121 C 497.734 435.928, 495.785 427.587, 491.368 418.266 C 485.394 405.658, 474.516 394.790, 461.105 388.027 C 453.871 384.380, 438.501 380.975, 427 380.472 C 421.225 380.219, 416.050 380.198, 415.500 380.424 M 132.729 384.092 C 131.755 384.659, 131.219 385.545, 131.538 386.061 C 132.538 387.680, 135.465 387.086, 136.768 385 C 137.840 383.283, 137.768 383.004, 136.258 383.030 C 135.291 383.047, 133.703 383.525, 132.729 384.092 M 145.669 383.665 C 145.377 383.957, 145.380 384.827, 145.676 385.598 C 146.246 387.085, 151 387.587, 151 386.161 C 151 385.106, 146.387 382.947, 145.669 383.665 M 416.882 399.779 C 417.405 400.757, 425.296 408.853, 434.417 417.769 C 443.538 426.685, 451 434.464, 451 435.056 C 451 440.616, 414.083 481, 409.001 481 C 406.560 481, 398.816 474.697, 379.213 456.754 C 370.820 449.071, 369.589 449.142, 370.525 457.250 C 372.285 472.489, 377.731 485.355, 386.371 494.687 C 397.736 506.963, 407.183 510.875, 427.500 511.722 C 441.813 512.318, 443.450 512.849, 449.573 518.876 L 453.645 522.886 461.020 516.193 C 465.076 512.512, 471.118 506.780, 474.447 503.455 C 483.787 494.128, 493.490 485.340, 495.071 484.777 C 496.054 484.427, 493.924 481.611, 488.250 475.756 L 480 467.244 479.992 458.872 C 479.972 436.587, 476.571 425.788, 466.353 415.570 C 456.145 405.362, 436.862 398, 420.334 398 C 416.422 398, 416.036 398.199, 416.882 399.779 M 599 399.694 C 591.354 400.985, 576.429 405.670, 569.160 409.063 C 562.603 412.123, 559.235 414.540, 553.410 420.364 C 542.064 431.711, 538.026 442.338, 538.008 460.909 C 538 468.006, 537.834 468.533, 534.050 473.409 C 529.336 479.487, 502.466 506.661, 449.315 559.106 L 410.189 597.713 398.845 598.278 C 385.527 598.941, 377.445 600.910, 371.636 604.906 C 361.694 611.747, 355.698 620.731, 350.405 636.716 C 348.532 642.374, 347 647.482, 347 648.069 C 347 650.935, 352.748 646.539, 366 633.540 C 374.756 624.951, 381.593 619.047, 383.259 618.637 C 386.510 617.836, 390.389 619.603, 394 623.528 C 395.375 625.022, 398.962 628.078, 401.971 630.318 C 410.889 636.956, 429 654.062, 428.999 655.847 C 428.998 658.715, 423.449 669.318, 419.500 674 C 417.412 676.475, 412.340 683, 408.227 688.500 C 404.115 694, 400.384 698.962, 399.937 699.527 C 399.385 700.226, 402.030 700.323, 408.194 699.830 C 414.957 699.290, 418.661 698.422, 422.755 696.419 C 429.752 692.996, 441.470 681.979, 444.523 675.954 C 446.872 671.320, 449.345 660.529, 450.504 649.860 L 451.116 644.220 473.808 622.402 C 486.289 610.402, 513.150 583.889, 533.500 563.484 C 553.850 543.079, 573.650 523.884, 577.500 520.828 L 584.500 515.271 597 514.678 C 617.657 513.699, 626.844 510.189, 638.004 499.013 C 645.571 491.436, 653.056 478.107, 655.452 467.942 C 657.210 460.484, 657.411 456.693, 656.024 457.167 C 655.487 457.350, 647.633 464.363, 638.570 472.750 C 629.507 481.137, 621.572 488, 620.936 488 C 620.300 488, 617.017 486.552, 613.640 484.782 C 609.097 482.401, 603.312 477.394, 591.397 465.532 C 582.540 456.714, 574.778 448.517, 574.147 447.316 C 573.516 446.114, 573 443.716, 573 441.986 C 573 439.265, 575.459 436.293, 591.245 419.937 C 601.279 409.539, 609.642 400.575, 609.828 400.016 C 610.162 399.013, 604.101 398.833, 599 399.694 M 931.500 439.950 C 930.400 440.403, 928.412 442.287, 927.082 444.137 C 925.752 445.987, 921.170 450.773, 916.900 454.774 C 909.362 461.835, 901.286 471.619, 902.222 472.556 C 902.476 472.810, 905.568 472.033, 909.092 470.829 C 914.707 468.911, 917.418 468.659, 931 468.795 C 939.525 468.880, 948.171 468.624, 950.213 468.225 L 953.926 467.500 945.213 453.278 C 940.144 445.004, 935.873 439.071, 935 439.091 C 934.175 439.111, 932.600 439.497, 931.500 439.950 M 836.232 443.169 C 833.280 443.830, 831.462 444.953, 830.334 446.812 C 829.437 448.291, 826.295 453.208, 823.352 457.740 C 820.408 462.272, 818 466.435, 818 466.990 C 818 467.624, 823.125 467.980, 831.750 467.945 L 845.500 467.890 849.750 461.479 C 855.095 453.415, 855.125 452.204, 850 451.384 C 846.260 450.786, 846 450.527, 846 447.407 C 846 445.132, 845.385 443.741, 844.066 443.035 C 841.888 441.870, 842.052 441.867, 836.232 443.169 M 85.994 452.833 C 85.447 453.017, 85 453.795, 85 454.563 C 85 455.332, 82.268 458.975, 78.929 462.659 C 75.590 466.344, 71.993 471.053, 70.937 473.124 L 69.016 476.889 82.010 477.195 C 90.763 477.400, 95.003 477.151, 95.002 476.430 C 95.001 475.841, 96.496 473.591, 98.325 471.430 C 102.694 466.267, 110 455.394, 110 454.055 C 110 453.412, 106.973 452.972, 102.250 452.928 C 97.987 452.888, 92.810 452.775, 90.744 452.678 C 88.678 452.580, 86.541 452.650, 85.994 452.833 M 132.509 452.866 C 131.414 453.322, 129.389 455.490, 128.009 457.682 C 126.629 459.875, 123.592 464.556, 121.260 468.085 C 118.927 471.613, 117.017 474.950, 117.015 475.500 C 117.011 476.462, 124.052 476.687, 139.224 476.211 C 145.528 476.013, 146.042 475.820, 147.436 473.124 C 148.254 471.542, 152.316 466.641, 156.462 462.234 C 160.608 457.827, 163.998 453.834, 163.995 453.360 C 163.989 452.238, 135.106 451.784, 132.509 452.866 M 188.500 452.491 C 187.950 452.675, 186.353 453.075, 184.950 453.381 C 183.364 453.727, 181.798 455.178, 180.807 457.219 C 179.931 459.023, 176.916 463.343, 174.106 466.817 C 165.665 477.257, 165.542 476.798, 176.644 476.217 C 184.138 475.825, 186.397 476.018, 187.088 477.108 C 187.720 478.106, 187.974 478.146, 187.985 477.250 C 187.995 476.438, 189.574 476, 192.498 476 L 196.996 476 203.998 465.433 C 207.849 459.621, 211 454.509, 211 454.072 C 211 452.634, 192.061 451.303, 188.500 452.491 M 871.467 455.064 C 870.595 456.749, 867.862 461.137, 865.392 464.814 L 860.902 471.500 870.587 472.349 C 876.998 472.910, 881.049 472.843, 882.571 472.150 C 884.598 471.226, 892.582 460.489, 895.881 454.250 L 897.070 452 885.061 452 L 873.051 452 871.467 455.064 M 833.250 473.726 L 814 474.043 814.076 487.772 C 814.121 495.959, 814.651 502.879, 815.387 504.917 L 816.622 508.333 840.561 508.234 C 853.728 508.179, 872.600 508.069, 882.500 507.990 C 900.762 507.843, 903.126 508.124, 906.250 510.807 C 907.819 512.154, 908 512.136, 908 510.630 C 908 508.451, 912.673 506.693, 916.500 507.433 C 918.150 507.752, 924.900 508.239, 931.500 508.515 C 938.100 508.791, 945.603 509.213, 948.174 509.452 C 955.159 510.103, 955.417 509.466, 956 490.092 L 956.500 473.482 938.500 473.846 C 926.985 474.079, 919.994 474.622, 919.097 475.355 C 918.203 476.084, 912.668 476.526, 903.873 476.571 C 892.404 476.630, 889.738 476.927, 888.198 478.321 C 886.669 479.705, 884.141 480, 873.816 480 L 861.289 480 860.363 476.750 C 859.287 472.976, 861.800 473.257, 833.250 473.726 M 832.589 487.077 C 829.482 490.769, 829.428 491.550, 831.989 495.750 C 833.340 497.966, 834.736 499, 836.375 499 C 842.660 499, 845.496 491.286, 840.979 486.477 C 837.897 483.198, 835.722 483.353, 832.589 487.077 M 927.750 487.470 C 925.504 490.559, 925.574 493.909, 927.944 496.750 C 930.360 499.647, 934.069 499.620, 936.826 496.686 C 939.553 493.782, 939.585 491.013, 936.927 487.635 C 934.261 484.245, 930.149 484.171, 927.750 487.470 M 835.570 489.887 C 835.269 490.374, 835.652 491.296, 836.422 491.935 C 837.981 493.229, 839.577 491.742, 838.500 490 C 837.735 488.762, 836.300 488.706, 835.570 489.887 M 931 489.941 C 931 490.459, 931.457 491.165, 932.016 491.510 C 932.575 491.856, 932.774 492.557, 932.457 493.069 C 932.141 493.581, 932.332 494, 932.882 494 C 934.607 494, 935.225 491.975, 933.964 490.456 C 932.595 488.807, 931 488.530, 931 489.941 M 877.050 491.440 C 875.307 493.540, 876.131 498.413, 878.299 498.824 C 880.761 499.291, 885 496.351, 885 494.177 C 885 490.337, 879.529 488.453, 877.050 491.440 M 67.591 492 C 67.471 492.275, 67.557 498.126, 67.782 505.001 L 68.192 517.503 128.346 517.213 C 161.431 517.053, 193.978 516.940, 200.674 516.961 L 212.848 517 213.174 508.750 C 213.353 504.212, 213.352 498.475, 213.170 496 L 212.841 491.500 140.325 491.500 C 100.441 491.500, 67.711 491.725, 67.591 492 M 84.895 500.147 C 82.866 502.998, 82.789 503.530, 84.077 505.798 C 86.372 509.838, 88.546 510.721, 90.916 508.576 C 94.088 505.705, 94.347 503.388, 91.868 500.035 C 89.030 496.197, 87.693 496.218, 84.895 500.147 M 138.557 500.223 C 136.405 503.294, 136.594 504.685, 139.566 507.657 L 142.133 510.224 144.566 507.938 C 147.523 505.160, 147.660 502.660, 145 500 C 142.404 497.404, 140.485 497.470, 138.557 500.223 M 188.655 499.829 C 186.316 502.413, 186.600 505.276, 189.463 507.965 C 191.810 510.171, 192.044 510.201, 194.447 508.627 C 198.143 506.205, 198.881 502.132, 196.040 499.831 C 193.169 497.506, 190.757 497.506, 188.655 499.829 M 110.557 501.223 C 108.393 504.311, 108.654 506.202, 111.531 508.296 C 113.946 510.054, 114.052 510.039, 116.499 507.592 C 119.522 504.569, 119.596 503.596, 117 501 C 114.404 498.404, 112.485 498.470, 110.557 501.223 M 165.557 501.223 C 163.550 504.087, 163.596 505.279, 165.817 508.022 C 167.342 509.905, 167.974 510.084, 169.749 509.134 C 172.737 507.535, 173.403 504.545, 171.438 501.546 C 169.385 498.413, 167.594 498.314, 165.557 501.223 M 818.213 532.099 L 818.500 542.500 832.500 542.217 C 840.200 542.061, 851.200 541.445, 856.945 540.848 C 867.053 539.797, 867.445 539.831, 869.112 541.890 C 870.710 543.863, 871.559 543.985, 880.820 543.577 C 888.376 543.244, 891.254 543.477, 892.652 544.537 C 893.669 545.307, 895.749 545.951, 897.275 545.968 C 899.595 545.995, 900.153 545.486, 900.677 542.864 L 901.305 539.727 909.402 540.412 C 919.650 541.278, 950.371 542.962, 950.659 542.674 C 950.779 542.555, 951.148 538.944, 951.480 534.649 C 952.478 521.755, 958.149 523.087, 903.201 523.308 C 876.965 523.414, 847.046 523.095, 836.713 522.599 L 817.927 521.699 818.213 532.099 M 188.664 526.500 C 188.448 527.152, 167.639 527.500, 128.916 527.500 L 69.500 527.500 69.215 537.161 L 68.930 546.823 76.215 547.496 C 80.222 547.866, 92.231 547.673, 102.902 547.067 C 120.586 546.063, 122.468 546.113, 124.152 547.638 C 125.168 548.557, 126.001 549.803, 126.003 550.405 C 126.004 551.140, 130.112 551.500, 138.486 551.500 L 150.966 551.500 152.127 548.696 L 153.288 545.892 169.894 546.610 C 189.361 547.451, 188.719 547.439, 201.177 547.192 L 210.853 547 211.182 538.250 C 211.671 525.226, 212.528 526.170, 199.897 525.811 C 193.236 525.621, 188.866 525.889, 188.664 526.500 M 836.250 549.749 L 818 550.045 818 565.987 C 818 580.726, 818.146 582.008, 819.934 582.965 C 822.971 584.590, 949.638 584.382, 950.682 582.750 C 951.122 582.063, 951.645 574.479, 951.843 565.899 L 952.203 550.298 941.048 549.592 C 934.913 549.203, 924.493 549.202, 917.892 549.588 L 905.892 550.290 905.350 552.998 C 904.811 555.695, 904.760 555.710, 893.154 556.550 C 886.744 557.014, 877.675 557.418, 873 557.447 L 864.500 557.500 863.558 553.250 C 862.626 549.048, 862.570 549.003, 858.558 549.226 C 856.326 549.350, 846.288 549.585, 836.250 549.749 M 96 555.173 C 85.825 555.651, 75.588 555.917, 73.250 555.764 L 69 555.486 69 567.678 C 69 574.383, 69.402 580.928, 69.894 582.222 L 70.789 584.575 139.874 584.507 C 186.761 584.462, 209.297 584.103, 210.011 583.389 C 210.668 582.732, 210.957 577.496, 210.781 569.419 L 210.500 556.500 198 555.857 C 191.125 555.503, 179.425 554.991, 172 554.718 L 158.500 554.222 156.500 557.303 L 154.500 560.383 137.618 560.525 L 120.736 560.667 118.769 557.334 C 117.688 555.500, 116.284 554.068, 115.651 554.152 C 115.018 554.235, 106.175 554.695, 96 555.173 M 568.297 558.247 C 567.693 559.572, 559.053 568.494, 549.097 578.072 C 539.142 587.650, 531.109 595.790, 531.248 596.161 C 531.387 596.532, 541.513 606.998, 553.750 619.420 L 576 642.004 576 651.321 C 576 665.941, 579.926 676.502, 588.651 685.351 C 594.865 691.654, 600.306 695.344, 606.500 697.458 C 613.470 699.836, 628.838 701.474, 633.606 700.346 L 637.450 699.437 621.778 683.856 C 605.507 667.679, 603.648 664.895, 606.080 660.351 C 606.814 658.979, 615.201 650.239, 624.718 640.928 C 638.707 627.241, 642.552 624, 644.798 624 C 646.570 624, 652.807 627.290, 662.037 633.094 C 669.992 638.096, 676.909 642.441, 677.408 642.751 C 679.691 644.165, 676.727 632.159, 672.706 623.704 C 667.874 613.545, 662.710 607.912, 654.340 603.674 C 645.378 599.136, 639.278 597.880, 623.500 597.326 L 608.500 596.800 601 588.664 C 596.875 584.190, 588.076 574.973, 581.448 568.183 C 569.732 556.181, 569.365 555.904, 568.297 558.247 M 94.660 619.955 C 88.467 626.810, 86.549 631.533, 86.523 640 C 86.502 646.744, 86.846 648.098, 89.931 653.438 C 92.472 657.836, 93.380 660.616, 93.431 664.158 L 93.500 668.940 98.308 669.972 C 100.953 670.539, 105.565 670.716, 108.558 670.364 L 114 669.725 114 666.177 C 114 664.019, 115.454 659.863, 117.714 655.565 C 121.186 648.959, 121.430 647.915, 121.464 639.500 C 121.496 631.415, 121.207 629.971, 118.619 625.301 C 112.069 613.483, 107.787 613.195, 109.926 624.717 C 111.794 634.779, 109.601 639.121, 103.432 637.572 C 99.176 636.504, 97.789 631.666, 99.560 624.074 C 101.716 614.832, 100.336 613.672, 94.660 619.955 M 169.252 620.767 C 163.102 626.451, 159.927 633.036, 159.246 641.523 L 158.753 647.667 164.626 649.986 C 170.305 652.227, 191 662.818, 191 663.483 C 191 663.662, 189.284 663.579, 187.186 663.298 C 183.699 662.830, 182.905 663.216, 177.936 667.783 L 172.500 672.780 171.994 708.140 C 171.636 733.171, 171.124 744.322, 170.244 746.315 C 165.993 755.935, 172.890 768.211, 183 769.021 C 188.275 769.444, 189.859 768.876, 194.289 764.976 C 200.493 759.516, 201.576 755.925, 199.507 747.676 C 198.116 742.129, 197.966 736.125, 198.411 704.021 L 198.928 666.798 201.505 662.649 C 202.922 660.367, 205.461 656.641, 207.146 654.369 C 209.608 651.051, 210.315 648.943, 210.740 643.654 C 211.201 637.906, 210.926 636.369, 208.578 631.570 C 206.241 626.794, 198.092 618, 196.002 618 C 195.608 618, 195.508 623.400, 195.780 630 C 196.319 643.087, 196.179 643.385, 190.787 640.572 C 189.295 639.794, 185.583 638.640, 182.537 638.008 L 177 636.858 177 626.429 C 177 618.560, 176.682 616, 175.705 616 C 174.993 616, 172.089 618.145, 169.252 620.767 M 869.667 616.667 C 869.300 617.033, 869 620.167, 869 623.631 C 869 629.782, 868.914 629.986, 865.268 632.464 C 863.215 633.859, 861.071 635, 860.503 635 C 859.935 635, 857.776 635.908, 855.704 637.019 C 851.442 639.303, 850.181 638.939, 845.563 634.086 C 843.948 632.389, 842.087 631, 841.429 631 C 839.895 631, 831.510 640.579, 822.576 652.539 C 821.948 653.380, 822.864 655.464, 825.437 659.045 C 828.980 663.976, 829.152 664.545, 828.127 667.907 C 827.524 669.883, 826.131 672.962, 825.030 674.750 C 823.102 677.881, 822.791 678, 816.489 678 L 809.949 678 810.225 693.739 L 810.500 709.477 815.345 710.169 C 820.998 710.977, 823.582 712.975, 826.119 718.500 C 828.766 724.264, 828.480 727.384, 824.933 731.423 L 821.867 734.916 824.446 739.318 C 827.697 744.864, 838.233 755, 840.748 755 C 841.790 755, 844.411 753.663, 846.572 752.028 C 848.732 750.393, 851.111 749.043, 851.857 749.028 C 853.491 748.994, 867.194 756.083, 868.235 757.500 C 868.639 758.050, 868.976 760.322, 868.985 762.550 C 868.993 764.777, 869.540 767.140, 870.200 767.800 C 871.025 768.625, 876.003 769, 886.113 769 L 900.825 769 901.663 762.793 L 902.500 756.586 911 752.419 C 920.411 747.805, 920.964 747.842, 928.668 753.606 L 931.836 755.977 936.577 750.738 C 939.184 747.857, 943.016 742.889, 945.093 739.697 L 948.868 733.894 946.434 730.308 C 943.496 725.978, 943.491 725.864, 945.988 719.034 C 948.623 711.824, 949.888 710.757, 956.449 710.213 L 962 709.752 962.205 698.376 C 962.317 692.119, 962.430 685.087, 962.455 682.750 L 962.500 678.500 955.532 677.811 C 947.708 677.038, 946.971 676.439, 944.429 668.786 L 942.796 663.870 946.890 659.015 L 950.984 654.160 946.895 648.987 C 944.646 646.142, 939.958 640.818, 936.476 637.157 L 930.146 630.500 926.281 634.250 C 924.155 636.313, 921.535 637.985, 920.458 637.966 C 919.381 637.947, 914.900 636.034, 910.500 633.716 L 902.500 629.500 902.236 625 C 901.667 615.289, 902.978 616, 885.648 616 C 877.225 616, 870.033 616.300, 869.667 616.667 M 189.232 632 C 189.232 633.925, 189.438 634.712, 189.689 633.750 C 189.941 632.788, 189.941 631.212, 189.689 630.250 C 189.438 629.288, 189.232 630.075, 189.232 632 M 379.882 641.750 C 375.706 646.117, 370.326 652.792, 368.642 655.696 C 368.227 656.412, 371.070 660.245, 375.724 665.246 C 380.001 669.840, 384.820 675.129, 386.434 676.997 L 389.367 680.395 396.271 672.947 C 400.068 668.851, 403.830 664.247, 404.631 662.715 C 406.077 659.950, 406.024 659.862, 396.794 649.887 C 391.682 644.363, 387.140 639.204, 386.700 638.422 C 385.489 636.269, 384.805 636.603, 379.882 641.750 M 100.408 648.500 C 98.888 650.820, 98.891 651.184, 100.448 653.560 C 102.591 656.832, 106.912 656.593, 108.640 653.107 C 110.132 650.098, 109.561 648.577, 106.398 647.135 C 102.885 645.535, 102.257 645.678, 100.408 648.500 M 878.500 655.659 C 870.663 657.468, 863.240 662.644, 858.230 669.793 C 852.706 677.674, 851.167 681.838, 850.468 690.788 C 849.678 700.900, 852.184 709.253, 858.355 717.074 C 869.499 731.198, 885.049 734.858, 900.088 726.895 C 908.326 722.533, 914.094 716.587, 918.215 708.210 C 921.192 702.157, 921.500 700.684, 921.499 692.515 C 921.499 684.828, 921.104 682.658, 918.819 677.782 C 914.773 669.147, 908.417 662.966, 899.269 658.769 C 889.761 654.407, 886.218 653.877, 878.500 655.659 M 161.022 656.750 C 161.053 659.221, 164.530 666.591, 166.131 667.581 C 168.075 668.782, 173.976 668.062, 176.675 666.293 C 181.563 663.090, 178.549 659.697, 168.068 656.603 C 161.288 654.602, 160.995 654.608, 161.022 656.750 M 113.500 676 C 111.300 677.018, 108.648 677.885, 107.608 677.926 C 105.905 677.993, 105.776 678.580, 106.317 683.762 C 106.941 689.726, 111.089 703.184, 117.643 720.500 C 121.404 730.438, 121.429 730.598, 121.571 746.307 C 121.650 755.001, 122.145 762.545, 122.670 763.070 C 123.195 763.595, 125.081 763.734, 126.861 763.378 C 130.747 762.601, 132.905 758.876, 135.481 748.500 C 136.821 743.101, 137.068 739.441, 136.559 732.500 C 135.715 720.969, 134.040 715.060, 127.775 701.500 C 122.357 689.773, 120.031 682.507, 120.012 677.250 C 119.998 673.518, 119.195 673.364, 113.500 676 M 182.891 674.750 C 182.356 678.414, 183.360 723.702, 183.990 724.357 C 185.949 726.394, 187.023 719.997, 187.520 703.327 C 187.812 693.522, 188.258 682.913, 188.511 679.750 L 188.969 674 185.985 674 C 184.343 674, 182.951 674.337, 182.891 674.750 M 85.182 680.449 C 84.580 683.447, 81.415 692.784, 78.150 701.199 C 71.196 719.120, 69.605 726.958, 70.153 740.598 C 70.499 749.217, 70.965 751.418, 73.527 756.548 C 76 761.499, 76.983 762.555, 79.372 762.828 C 80.951 763.009, 82.751 762.648, 83.372 762.026 C 84.110 761.286, 84.500 755.646, 84.500 745.698 C 84.500 728.881, 84.788 727.642, 96.414 694.500 C 98.922 687.350, 100.980 680.786, 100.987 679.914 C 100.996 678.777, 99.048 677.856, 94.107 676.664 C 90.316 675.749, 87.003 675, 86.745 675 C 86.487 675, 85.784 677.452, 85.182 680.449 M 179.073 748.635 C 176.342 752.107, 176.458 754.203, 179.589 757.923 C 182.760 761.691, 186.185 761.905, 189.545 758.545 C 192.265 755.826, 192.574 753.946, 190.837 750.684 C 188.012 745.380, 182.401 744.403, 179.073 748.635 M 419.627 798.250 C 418.847 799.487, 417.910 801.501, 417.545 802.724 C 416.717 805.501, 412.377 809, 409.759 809 C 408.676 809, 406.452 807.875, 404.818 806.500 C 401.056 803.335, 400.481 803.365, 396.923 806.923 C 393.348 810.498, 393.264 812.337, 396.500 816.182 C 400.297 820.695, 399.787 822.734, 394.270 825.099 C 391.669 826.214, 389.200 827.660, 388.785 828.313 C 386.360 832.127, 390.549 839, 395.300 839 C 397.669 839, 401 841.726, 401 843.665 C 401 844.219, 399.351 846.789, 397.335 849.376 L 393.670 854.081 395.684 856.790 C 398.067 859.996, 402.095 860.747, 405.210 858.565 C 410.225 855.053, 418 857.931, 418 863.300 C 418 866.573, 419.845 868, 424.078 868 C 428.399 868, 429.568 866.854, 430.537 861.671 C 431.556 856.214, 434.452 855.090, 440.749 857.707 C 446.423 860.065, 449.531 859.365, 451.043 855.387 C 451.847 853.271, 451.638 851.918, 450.028 848.830 C 446.494 842.048, 447.577 838.518, 453.401 837.838 C 455.109 837.639, 457.116 836.404, 458.281 834.837 C 461.147 830.981, 459.957 827.293, 455.214 825.335 C 450.847 823.531, 448 821.198, 448 819.422 C 448 818.724, 449.181 816.750, 450.625 815.034 C 453.455 811.671, 453.999 807.908, 452.003 805.503 C 450.209 803.342, 447.614 803.643, 443.405 806.500 C 441.379 807.875, 438.984 809, 438.083 809 C 434.873 809, 432.019 805.971, 431.363 801.867 C 430.880 798.848, 430.114 797.614, 428.295 796.922 C 424.226 795.375, 421.142 795.847, 419.627 798.250 M 512 810.870 L 512 821.740 507.666 822.953 C 502.787 824.320, 496.177 823.123, 493.980 820.476 C 493.203 819.539, 492.684 815.554, 492.613 809.985 C 492.481 799.471, 491.570 798.775, 485.758 804.750 C 476.224 814.549, 475.566 826.445, 483.943 837.541 L 488.084 843.025 488.645 880.263 L 489.206 917.500 502.103 917.779 L 515 918.058 515.080 888.279 C 515.123 871.901, 515.462 854.861, 515.833 850.413 C 516.435 843.197, 516.857 841.927, 519.748 838.635 C 528.097 829.125, 529.218 820.658, 523.485 810.407 C 519.981 804.140, 515.955 800, 513.365 800 C 512.295 800, 512 802.352, 512 810.870 M 352.021 807.250 C 350.253 809.038, 348.430 811.462, 347.970 812.637 C 347.113 814.832, 347.733 884.758, 348.623 886.198 C 348.895 886.639, 350.554 886.999, 352.309 886.999 L 355.500 886.998 355.500 859.081 C 355.500 843.727, 355.837 830.827, 356.250 830.416 C 356.663 830.004, 357.337 830.004, 357.750 830.416 C 358.163 830.828, 358.500 843.692, 358.500 859.002 L 358.500 886.839 361.750 887.219 L 365 887.598 365.190 874.049 C 366.032 813.934, 365.706 809.008, 360.647 805.465 C 357.505 803.265, 355.568 803.665, 352.021 807.250 M 648.925 809.667 C 642.372 815.796, 640.995 818.591, 641.022 825.700 C 641.049 832.862, 643.452 838.433, 648.378 842.759 C 652.027 845.963, 652.187 846, 662.322 846 L 672.575 846 677.172 841.250 C 679.700 838.638, 682.271 835.517, 682.884 834.316 C 684.881 830.407, 684.227 821.847, 681.516 816.408 C 679.187 811.735, 672.533 804.114, 671.615 805.068 C 671.387 805.306, 671.555 809.089, 671.989 813.476 C 672.977 823.456, 672.211 825.682, 667.482 826.569 C 662.774 827.452, 655.937 826.507, 654.871 824.826 C 653.840 823.199, 653.855 817.106, 654.906 810.714 C 655.339 808.082, 655.318 805.697, 654.859 805.413 C 654.400 805.129, 651.730 807.044, 648.925 809.667 M 725.667 806.667 C 725.300 807.033, 725 813.946, 725 822.027 L 725 836.721 730.250 837.352 C 733.138 837.699, 739.888 837.987, 745.250 837.991 L 755 838 755 822 L 755 806 740.667 806 C 732.783 806, 726.033 806.300, 725.667 806.667 M 760.005 811.250 C 760.007 814.138, 760.301 821.563, 760.657 827.750 C 761.236 837.789, 761.504 839, 763.153 839 C 765.195 839, 765.238 838.588, 765.410 817.253 L 765.500 806.005 762.750 806.003 C 760.098 806, 760 806.188, 760.005 811.250 M 553.750 807.669 L 551 808.133 551 820.066 L 551 832 558.965 832 C 565.906 832, 567.067 832.257, 568 834 C 569.001 835.870, 570.094 836, 584.875 836 C 600.483 836, 600.692 835.971, 601.747 833.655 C 602.695 831.576, 603.703 831.241, 610.658 830.693 C 614.971 830.354, 619.875 829.795, 621.556 829.452 L 624.613 828.827 624.489 821.164 L 624.366 813.500 616.433 810.615 C 608.544 807.746, 608.354 807.728, 582.500 807.467 C 568.200 807.323, 555.263 807.414, 553.750 807.669 M 869.820 809.437 C 865.596 810.181, 860.074 811.822, 857.549 813.083 C 851.878 815.915, 829.580 838.030, 828.003 842.386 C 825.981 847.972, 822.743 854, 821.765 854 C 821.239 854, 819.535 853.093, 817.978 851.984 L 815.148 849.969 809.074 855.592 C 805.733 858.685, 803 861.755, 803 862.415 C 803 863.075, 807.949 868.493, 813.999 874.454 L 824.998 885.292 830.749 879.896 C 833.912 876.928, 836.647 873.932, 836.826 873.237 C 837.206 871.762, 831.533 863.799, 827.084 859.563 C 825.388 857.948, 824 856.166, 824 855.605 C 824 855.043, 825.930 856.477, 828.288 858.792 C 832.757 863.178, 835.884 864.050, 838 861.500 C 839.679 859.477, 841.861 859.618, 845.774 862.004 C 847.575 863.102, 849.801 864, 850.721 864 C 852.357 864, 875.223 842.519, 875.784 840.456 C 875.940 839.882, 874.927 838.341, 873.534 837.032 C 870.168 833.870, 870.323 832.802, 874.704 828.955 C 880.275 824.064, 887.765 821.082, 900.247 818.788 C 906.436 817.650, 912.079 816.187, 912.787 815.537 C 914.883 813.611, 913.155 811.291, 908.683 810.028 C 902.265 808.215, 878.781 807.858, 869.820 809.437 M 935.811 809.470 C 929.970 811.079, 924.861 814.188, 921.506 818.175 C 916.164 824.524, 915.490 827.150, 915.008 843.500 C 914.992 844.050, 911.176 848.550, 906.529 853.500 C 901.882 858.450, 898.061 862.942, 898.040 863.483 C 897.994 864.614, 918.073 885, 919.232 885 C 919.654 885, 920.022 884.438, 920.050 883.750 C 920.077 883.063, 924.101 878.259, 928.992 873.076 L 937.885 863.653 945.693 863.033 C 954.862 862.304, 959.989 859.969, 965.283 854.108 C 970.013 848.873, 974.003 840.934, 973.990 836.783 C 973.979 833.092, 969.643 823, 968.069 823 C 967.506 823, 964.566 826.487, 961.537 830.750 C 958.508 835.013, 954.716 840.062, 953.111 841.970 C 950.389 845.206, 950.023 845.350, 947.698 844.106 C 943.008 841.596, 935 833.872, 935 831.858 C 935 829.922, 938.986 824.657, 947.868 814.859 L 952.236 810.040 949.553 809.020 C 946.101 807.708, 941.686 807.852, 935.811 809.470 M 154.750 810.734 L 120 811.026 120 836.013 L 120 861 165.481 861 L 210.962 861 211.488 858.750 C 211.777 857.513, 211.673 846.150, 211.257 833.500 L 210.500 810.500 200 810.471 C 194.225 810.455, 173.863 810.573, 154.750 810.734 M 295.493 812.412 C 292.190 813.684, 286.780 816.092, 283.472 817.762 C 274.975 822.051, 266.215 825.509, 260.178 826.957 C 257.330 827.640, 255 828.549, 255 828.976 C 255 829.403, 257.045 835.545, 259.545 842.626 C 262.045 849.707, 264.807 858.200, 265.684 861.500 C 266.560 864.800, 267.569 867.831, 267.924 868.235 C 268.280 868.640, 270.847 868.106, 273.628 867.049 C 279.888 864.671, 309.686 856, 311.600 856 C 313.325 856, 313.328 856.216, 311.487 846.596 C 310.655 842.249, 310.093 838.605, 310.237 838.498 C 311.007 837.931, 325.465 836, 328.943 836 C 332.532 836, 333 835.730, 333 833.655 C 333 830.418, 330.479 828.462, 323.837 826.544 C 316.291 824.365, 310.447 819.974, 307.776 814.476 C 305.229 809.234, 304.194 809.060, 295.493 812.412 M 703.750 812.719 L 697 813.091 697 821.455 L 697 829.818 707.750 830.193 C 713.663 830.400, 718.725 830.404, 719 830.203 C 719.275 830.002, 719.500 825.937, 719.500 821.169 L 719.500 812.500 715 812.424 C 712.525 812.382, 707.462 812.515, 703.750 812.719 M 354.039 814.928 C 352.592 817.631, 353.810 820.169, 356.377 819.803 C 359.433 819.367, 360.108 813, 357.099 813 C 355.983 813, 354.606 813.867, 354.039 814.928 M 93.500 815.229 C 89.888 816.519, 89.035 817.651, 89.015 821.191 C 89.007 822.671, 88.550 824.160, 88 824.500 C 87.450 824.840, 87 824.719, 87 824.232 C 87 822.647, 80.631 824.234, 79.023 826.220 C 77.653 827.912, 75.595 828.236, 62.479 828.826 L 47.500 829.500 47.500 835 L 47.500 840.500 62.917 840.777 L 78.334 841.054 85.417 847.380 L 92.500 853.707 103.250 852.666 L 114 851.624 114 834.394 C 114 824.917, 113.727 816.452, 113.393 815.582 C 112.905 814.309, 111.195 814.015, 104.643 814.079 C 100.164 814.122, 95.150 814.640, 93.500 815.229 M 418.008 818.228 C 411.985 821.274, 409 825.907, 409 832.206 C 409 836.618, 409.436 837.577, 413.290 841.657 C 416.900 845.478, 418.326 846.282, 422.274 846.727 C 430.366 847.640, 436.628 843.311, 439.087 835.105 C 441.309 827.687, 434.510 818.412, 425.500 816.570 C 423.412 816.143, 421.134 816.647, 418.008 818.228 M 197.538 820.250 C 196.764 822.672, 196.351 849.099, 197.081 849.550 C 197.487 849.801, 198.535 849.732, 199.410 849.396 C 201.755 848.496, 201.812 819, 199.469 819 C 198.626 819, 197.757 819.563, 197.538 820.250 M 165.570 820.887 C 165.268 821.375, 164.744 826.887, 164.404 833.137 C 163.758 845.042, 164.661 850, 167.475 850 C 168.774 850, 169 847.775, 169 835 C 169 822.606, 168.750 820, 167.559 820 C 166.766 820, 165.871 820.399, 165.570 820.887 M 175 828.853 C 175 833.723, 175.289 840.473, 175.642 843.853 C 176.181 849.007, 176.593 850, 178.191 850 C 179.979 850, 180.087 849.161, 179.941 836.303 C 179.856 828.769, 179.561 822.019, 179.286 821.303 C 179.011 820.586, 177.934 820, 176.893 820 C 175.178 820, 175 820.833, 175 828.853 M 186.993 827.750 C 186.989 832.013, 186.699 838.538, 186.348 842.250 C 185.750 848.585, 185.836 849, 187.750 849 C 190.274 849, 190.720 845.580, 190.162 830.509 C 189.862 822.403, 189.456 820, 188.387 820 C 187.324 820, 186.998 821.813, 186.993 827.750 M 141.323 827.250 C 138.048 830.888, 137.835 831.781, 139.485 834.971 C 141.606 839.072, 146.856 839.270, 149.927 835.365 C 152.613 831.951, 152.540 830.449, 149.545 827.455 C 146.492 824.401, 143.945 824.338, 141.323 827.250 M 289.750 829.112 C 287.310 830.489, 287.548 832.542, 290.992 839.820 C 293.653 845.446, 294.230 846.064, 296.241 845.446 C 297.483 845.064, 298.599 844.671, 298.721 844.572 C 299.064 844.292, 292.974 829.585, 292.194 828.812 C 291.812 828.434, 290.712 828.569, 289.750 829.112 M 280.059 833.750 C 280.092 834.712, 281.105 838.200, 282.309 841.500 C 284.190 846.651, 284.889 847.545, 287.250 847.816 C 288.762 847.990, 289.995 847.990, 289.989 847.816 C 289.943 846.481, 286.845 837.601, 285.553 835.102 C 283.785 831.684, 279.957 830.742, 280.059 833.750 M 272.515 834.366 C 270.926 835.527, 270.873 836.088, 272.019 839.583 C 274.890 848.338, 276.880 851.983, 278.458 851.378 C 280.595 850.558, 280.400 846.144, 277.935 839.557 C 275.548 833.175, 274.939 832.593, 272.515 834.366 M 572.240 886.750 L 572.500 931.500 574.832 931.830 C 576.115 932.012, 577.994 931.410, 579.008 930.493 C 580.022 929.575, 581.672 928.999, 582.676 929.213 C 584.113 929.518, 583.757 930.011, 581 931.532 C 579.075 932.595, 575.700 934.158, 573.500 935.006 C 569.049 936.723, 567.528 940.450, 570.416 942.562 C 571.844 943.607, 571.855 943.876, 570.511 944.991 C 568.249 946.868, 568.565 951.727, 571 952.500 C 573.160 953.186, 573.602 954.510, 572 955.500 C 569.525 957.030, 571.420 959.301, 577.572 962.180 C 582.993 964.717, 584.557 965.067, 586.506 964.179 C 588.262 963.379, 588.975 963.410, 589.288 964.302 C 589.582 965.141, 590.300 964.975, 591.683 963.750 C 592.769 962.788, 594.106 962, 594.654 962 C 595.203 962, 596.662 960.924, 597.898 959.609 C 601.268 956.021, 602.223 945.039, 599.679 939.127 C 597.678 934.476, 597.550 930.784, 597.150 866.250 L 597 842 584.490 842 L 571.979 842 572.240 886.750 M 739.714 846.748 C 726.189 847.051, 725.912 847.102, 725.011 849.470 C 723.612 853.152, 722.905 863.858, 722.038 894.500 C 721.263 921.893, 721.186 922.639, 718.521 928.903 C 716.201 934.355, 715.851 936.388, 716.165 942.590 C 716.475 948.735, 717.003 950.543, 719.542 954.155 C 721.197 956.510, 724.557 959.967, 727.008 961.837 C 731.238 965.063, 731.787 965.211, 737.767 964.731 C 745.183 964.135, 750.570 960.938, 754.995 954.507 C 758.613 949.249, 759.492 943.137, 758.119 932.783 C 757.515 928.228, 756.838 907.625, 756.615 887 C 756.238 852.225, 755.839 845.641, 754.143 846.219 C 753.789 846.340, 747.296 846.578, 739.714 846.748 M 652.481 885.142 C 652.650 904.589, 652.836 920.950, 652.895 921.500 C 652.953 922.050, 656.037 922.530, 659.750 922.566 C 663.463 922.602, 667.666 922.930, 669.091 923.295 L 671.681 923.958 672.290 889.642 C 672.624 870.768, 672.643 854.353, 672.332 853.163 C 671.823 851.215, 671.095 851, 665.008 851 C 661.291 851, 656.883 850.727, 655.212 850.392 L 652.174 849.785 652.481 885.142 M 499.529 852.614 C 497.168 854.974, 497.512 863.099, 500.089 865.865 C 502.840 868.818, 504.087 868.239, 505.756 863.233 C 506.972 859.583, 506.941 858.677, 505.491 855.622 C 503.533 851.495, 501.615 850.528, 499.529 852.614 M 871 858.305 C 867.425 861.753, 862.836 865.916, 860.802 867.556 L 857.105 870.538 878.604 892.519 C 901.980 916.419, 925.779 942.084, 940.754 959.541 L 945.007 964.500 956.504 952.706 C 962.827 946.220, 968 940.084, 968 939.070 C 968 937.021, 933.808 903.123, 920.791 892.267 C 916.328 888.545, 908.194 881.315, 902.715 876.200 C 897.237 871.084, 890.539 865.009, 887.832 862.700 C 885.124 860.390, 881.993 857.038, 880.873 855.250 C 879.753 853.462, 878.536 852.008, 878.168 852.018 C 877.801 852.028, 874.575 854.857, 871 858.305 M 585 860.059 C 585 863.177, 585.384 864.881, 586 864.500 C 586.550 864.160, 587 861.884, 587 859.441 C 587 856.998, 586.550 855, 586 855 C 585.450 855, 585 857.277, 585 860.059 M 295 866.951 C 291.425 867.958, 284.675 870.068, 280 871.641 L 271.500 874.500 271.250 909.500 C 271.112 928.750, 270.937 946.309, 270.861 948.519 C 270.683 953.718, 274.133 960.484, 278.290 963.091 C 280.899 964.727, 282.845 965.045, 288.687 964.786 C 296.892 964.422, 299.498 962.734, 302.991 955.518 C 304.908 951.559, 305 949.388, 305 908.184 C 305 867.700, 304.891 865.004, 303.250 865.060 C 302.288 865.093, 298.575 865.944, 295 866.951 M 142.627 869.770 C 142.340 871.271, 141.848 879.925, 141.536 889 C 141.223 898.075, 140.701 910.337, 140.374 916.250 L 139.781 927 160.391 927 L 181 927 180.992 923.250 C 180.982 918.815, 179.170 902.220, 178.436 899.843 C 178.155 898.932, 176.039 897.433, 173.735 896.511 C 170.040 895.032, 169.764 894.711, 171.399 893.797 C 172.693 893.072, 174.382 893.097, 176.992 893.880 C 184.595 896.157, 184.376 896.532, 183.706 882.354 C 183.378 875.399, 182.732 869.332, 182.270 868.870 C 181.809 868.409, 172.818 867.808, 162.291 867.535 L 143.150 867.039 142.627 869.770 M 121.764 883.250 C 122.106 893.638, 122.535 896.763, 123.748 897.718 C 124.599 898.388, 125.659 898.711, 126.103 898.436 C 126.548 898.161, 128.586 898.636, 130.633 899.491 C 133.603 900.732, 134.517 900.789, 135.162 899.773 C 135.606 899.073, 135.976 893.494, 135.985 887.375 C 135.993 881.256, 136.281 874.844, 136.625 873.125 L 137.250 870 129.288 870 L 121.327 870 121.764 883.250 M 425.882 881.750 C 425.816 882.163, 425.828 882.871, 425.906 883.324 C 425.985 883.778, 425.554 883.842, 424.948 883.468 C 424.342 883.094, 422.980 883.717, 421.921 884.854 C 420.862 885.991, 418.084 887.419, 415.748 888.027 C 406.754 890.369, 406.506 890.498, 406.150 893.005 C 405.899 894.765, 406.645 896.187, 408.759 897.985 C 412.970 901.564, 413.855 903.771, 414.099 911.312 L 414.314 917.974 409.223 923.358 C 403.312 929.608, 400.387 937.411, 401.496 943.974 C 402.112 947.622, 407.543 957.891, 410.392 960.796 C 411.092 961.509, 414.102 962.789, 417.082 963.642 C 427.003 966.478, 427.282 966.463, 429.891 962.933 L 432.273 959.711 434.030 962.040 C 435.684 964.232, 435.929 964.277, 438.187 962.797 C 439.507 961.932, 442.124 958.195, 444.004 954.493 C 450.410 941.871, 449.137 931.529, 439.951 921.563 C 435.789 917.048, 435.732 916.888, 436.250 911.176 C 436.792 905.205, 441.350 894.480, 442.931 895.457 C 443.404 895.749, 444.091 895.206, 444.458 894.250 C 445.258 892.164, 441.564 888.866, 435.238 886.020 C 432.894 884.965, 430.709 883.404, 430.381 882.551 C 429.785 880.996, 426.104 880.341, 425.882 881.750 M 583.943 886.500 C 582.148 890.926, 581.423 911.600, 582.997 913.496 C 584.985 915.891, 587.878 915.332, 588.612 912.412 C 589.593 908.503, 588.024 888.922, 586.499 886.034 L 585.160 883.500 583.943 886.500 M 340 893.115 C 340 895.258, 340.844 897.803, 342.073 899.365 C 344.120 901.968, 344.300 902, 357.047 902 L 369.949 902 371.474 899.050 C 372.313 897.427, 372.999 894.614, 372.999 892.800 L 372.998 889.500 356.498 889.500 L 339.999 889.500 340 893.115 M 424.335 891.777 C 421.089 892.287, 420.775 894.639, 423.540 897.737 L 426.006 900.500 428.003 898.139 C 431.689 893.782, 430.017 890.884, 424.335 891.777 M 859.614 900.051 C 854.877 905.029, 849.988 910.876, 848.751 913.044 C 846.987 916.133, 845.742 917.115, 843 917.578 C 833.563 919.171, 826.295 924.229, 821.373 932.627 C 819.116 936.477, 818.827 937.940, 819.160 943.833 C 819.495 949.756, 820.007 951.241, 823.219 955.617 C 826.883 960.609, 833.512 965.041, 839.383 966.425 C 846.227 968.039, 859.711 957.318, 864.573 946.397 C 865.823 943.590, 869.176 938.640, 872.025 935.397 C 874.875 932.154, 880.054 925.716, 883.534 921.092 L 889.863 912.683 879.763 901.842 C 874.208 895.879, 869.340 891, 868.945 891 C 868.550 891, 864.351 895.073, 859.614 900.051 M 739.444 894.286 C 738.744 896.110, 739.437 906.281, 740.364 907.780 C 741.828 910.148, 743 907.874, 742.986 902.691 C 742.979 899.836, 742.701 896.487, 742.370 895.250 C 741.706 892.772, 740.213 892.280, 739.444 894.286 M 344.277 906 C 342.907 910.422, 341.210 914.043, 337.293 920.904 C 331.931 930.295, 330.686 934.733, 331.191 942.660 C 331.489 947.336, 332.520 950.693, 335.401 956.369 C 340.105 965.638, 342.257 967.862, 344.620 965.900 C 346.058 964.707, 346.193 963.037, 345.636 953.282 C 345.080 943.560, 345.256 941.347, 346.935 936.929 C 348.852 931.883, 354.905 922.076, 356.133 922.026 C 357.091 921.987, 364.674 933.956, 366.567 938.497 C 367.854 941.585, 368.063 943.858, 367.487 948.497 C 366.074 959.861, 366.320 965.157, 368.317 966.384 C 369.830 967.313, 370.547 966.997, 372.596 964.500 C 373.950 962.850, 376.477 958.645, 378.213 955.155 C 380.948 949.655, 381.362 947.789, 381.322 941.155 C 381.271 932.684, 378.439 923.682, 373.563 916.498 C 372.071 914.299, 370.601 911.253, 370.296 909.729 C 369.991 908.205, 369.237 906.634, 368.621 906.238 C 368.004 905.842, 362.379 905.288, 356.121 905.009 C 346.576 904.582, 344.667 904.742, 344.277 906 M 493.769 923.702 C 486.404 924.065, 485.920 924.238, 483.549 927.347 C 479.034 933.266, 476.727 939.804, 477.246 945.205 C 477.734 950.286, 483.559 963.076, 487.130 966.909 C 490.930 970.988, 491.675 969.734, 492.260 958.281 C 492.772 948.249, 492.977 947.417, 495.459 945.281 C 498.854 942.362, 506.350 942.161, 509.906 944.894 C 512.265 946.708, 512.298 946.948, 511.624 957.372 C 510.938 967.981, 510.941 968, 513.226 968 C 514.919 968, 516.616 966.369, 519.732 961.750 C 527.534 950.182, 528.962 941.331, 524.478 932.331 C 520.560 924.470, 519.264 923.693, 509.736 923.493 C 505.206 923.399, 498.021 923.493, 493.769 923.702 M 186.813 927.683 C 187.534 927.972, 188.397 927.936, 188.729 927.604 C 189.061 927.272, 188.471 927.036, 187.417 927.079 C 186.252 927.127, 186.015 927.364, 186.813 927.683 M 651.009 928.855 C 642.201 933.579, 638.696 943.563, 642.931 951.865 C 644.115 954.185, 646.918 957.864, 649.162 960.041 C 653.165 963.926, 653.378 964, 660.618 964 C 667.622 964, 668.187 963.826, 671.809 960.554 C 677.622 955.301, 681.348 947.778, 680.752 942.493 C 680.162 937.256, 675.695 930.620, 671.349 928.521 C 666.791 926.321, 655.386 926.508, 651.009 928.855 M 418.085 933.641 C 414.627 937.569, 414 938.957, 414 942.681 C 414 950.261, 420.202 959.198, 423.307 956.093 C 423.908 955.492, 426.027 955, 428.016 955 C 431.443 955, 431.779 954.692, 434.451 949.104 C 437.939 941.804, 437.464 939.201, 431.562 933.299 C 425.828 927.565, 423.379 927.627, 418.085 933.641 M 591 930.826 C 591 931.280, 592.125 932.708, 593.500 934 C 595.372 935.759, 596 935.967, 596 934.829 C 596 933.994, 595.177 932.565, 594.171 931.655 C 592.173 929.846, 591 929.540, 591 930.826 M 733.828 932.037 C 731 933.687, 728 939.544, 728 943.416 C 728 946.119, 728.709 947.752, 730.672 949.572 C 734.259 952.896, 737.016 953.438, 741.277 951.657 C 745.357 949.953, 747.164 947.183, 747.299 942.426 C 747.520 934.643, 739.699 928.611, 733.828 932.037 M 837.411 933.891 C 833.124 936.505, 830 940.762, 830 943.989 C 830 949.283, 837.519 954.704, 843.147 953.468 C 846.247 952.787, 850.687 948.096, 851.573 944.565 C 852.509 940.837, 849.666 935.544, 845.722 933.672 C 841.333 931.590, 841.178 931.594, 837.411 933.891 M 580.535 940.104 C 576.803 943.380, 576.096 946.377, 578.125 950.316 C 580.077 954.105, 583.271 957, 585.500 957 C 588.998 957, 594 950.236, 594 945.506 C 594 943.561, 587.572 937, 585.667 937 C 584.788 937, 582.479 938.397, 580.535 940.104 M 657.171 940.035 C 650.635 942.961, 650.641 949.465, 657.186 954.308 C 659.519 956.034, 660.263 956.134, 662.838 955.067 C 671.971 951.284, 672.659 942.168, 664.039 939.163 C 661.930 938.428, 660.297 938.635, 657.171 940.035 M 283.455 941.455 C 280.305 944.604, 280.246 948.943, 283.314 951.826 C 286.347 954.674, 289.513 954.578, 292.545 951.545 C 295.666 948.425, 295.667 945.011, 292.548 941.646 C 289.489 938.345, 286.624 938.285, 283.455 941.455 M 120.921 941.792 C 116.865 943.817, 116.535 945.262, 117.496 956.791 L 118.190 965.127 155.013 964.812 C 175.265 964.639, 192.175 964.159, 192.589 963.744 C 193.468 962.865, 193.778 942.455, 192.925 941.596 C 192.609 941.278, 187.434 941.496, 181.425 942.081 C 175.416 942.666, 160.677 943.225, 148.670 943.322 C 129.115 943.481, 126.710 943.322, 125.591 941.792 C 124.413 940.182, 124.146 940.182, 120.921 941.792" stroke="none" fill="#000000" fill-rule="evenodd"/>
</svg>