<svg xmlns="http://www.w3.org/2000/svg" width="1024" height="1024" viewBox="0 0 1024 1024" version="1.1">
	<path d="M 524.609 14.250 L 521.051 18.500 517.078 16.250 C 510.197 12.354, 507.082 13.823, 504.689 22.091 C 503.524 26.114, 503.093 26.532, 499.516 27.114 C 493.725 28.055, 491 31.720, 491 38.565 L 491 44.019 486.250 46.268 C 480.686 48.903, 479.951 51.303, 482.416 58.783 C 483.870 63.198, 483.842 63.910, 481.967 69.898 C 480.142 75.726, 480.100 76.504, 481.501 78.642 C 482.347 79.933, 484.605 81.644, 486.520 82.444 C 490.186 83.976, 490.393 84.539, 490.051 92.063 C 489.799 97.610, 491.363 99.214, 497.759 99.967 C 502.442 100.518, 503.453 101.469, 504.466 106.275 C 505.758 112.404, 511.081 114.561, 517.159 111.418 C 520.088 109.903, 520.331 109.939, 522.859 112.264 C 530.810 119.578, 534.184 119.778, 541.062 113.345 L 546.038 108.690 551.617 109.939 C 557.126 111.172, 557.232 111.152, 560.180 108.344 C 561.821 106.780, 563.760 104.083, 564.489 102.350 C 565.223 100.606, 568.311 97.356, 571.407 95.069 C 576.524 91.288, 577 90.607, 577 87.063 C 577 84.091, 577.825 82.201, 580.546 78.944 C 584.392 74.342, 584.494 72.200, 581.198 65.289 C 579.937 62.644, 579.871 61.373, 580.831 58.169 C 582.607 52.241, 582.277 50.411, 578.923 47.589 C 575.495 44.704, 573.495 44.331, 572.300 46.354 C 571.349 47.964, 567.667 50.014, 565.816 49.965 C 565.092 49.945, 565.568 49.337, 566.874 48.613 C 569.188 47.330, 569.142 47.282, 565.086 46.738 C 556.060 45.528, 554.437 42.183, 557.599 31.307 C 559.082 26.207, 559.074 25.481, 557.489 21.332 C 555.219 15.388, 552.385 14.072, 547.045 16.480 C 542.324 18.608, 538.968 17.663, 534.430 12.927 C 532.888 11.317, 530.847 10, 529.896 10 C 528.944 10, 526.565 11.912, 524.609 14.250 M 935 11.721 C 931.248 12.394, 930.751 13.363, 931.924 17.719 C 934.528 27.388, 944.564 36, 953.228 36 C 959.103 36, 964.546 33.885, 965.165 31.362 C 966.819 24.621, 959.852 14.164, 952.314 12.070 C 948.548 11.024, 939.859 10.849, 935 11.721 M 51.001 18.881 L 51 25.262 61.269 24.805 C 68.425 24.487, 72.290 23.857, 74.019 22.726 C 75.384 21.833, 79.525 20.794, 83.223 20.416 C 89.877 19.736, 89.957 19.757, 90.980 22.449 C 91.549 23.944, 91.760 25.580, 91.448 26.084 C 91.137 26.588, 82.246 27.007, 71.691 27.015 C 61.136 27.024, 52.012 27.361, 51.416 27.765 C 49.681 28.941, 41.959 44.371, 42.767 45.047 C 43.170 45.385, 55.975 45.461, 71.222 45.217 L 98.944 44.772 102.972 37.433 C 105.188 33.397, 107 29.355, 107 28.451 C 107 27.548, 107.835 25.614, 108.856 24.154 C 109.876 22.694, 111.007 19.587, 111.367 17.250 L 112.024 13 103.762 12.865 C 99.218 12.790, 85.488 12.678, 73.251 12.615 L 51.002 12.500 51.001 18.881 M 822.594 13.989 C 814.328 16.609, 808.287 27.809, 807.337 42.277 C 806.667 52.485, 807.142 53.657, 811.310 52.072 C 813.470 51.251, 813.875 50.317, 814.461 44.815 C 815.551 34.573, 817.804 27.996, 821.480 24.320 C 826.821 18.979, 833.172 20.452, 836.929 27.903 C 839.111 32.229, 842 43.465, 842 47.623 C 842 51.837, 844.101 54.420, 846.826 53.555 C 848.697 52.961, 849 52.128, 849 47.569 C 849 35.137, 843.863 21.285, 837.433 16.381 C 833.641 13.489, 827.365 12.477, 822.594 13.989 M 979.500 15.719 C 973.623 17.151, 970.053 24.485, 970.022 35.191 C 970.010 39.480, 970.462 43.167, 971.044 43.527 C 971.618 43.882, 973.127 43.492, 974.396 42.660 C 976.116 41.533, 976.856 39.867, 977.299 36.120 C 977.627 33.355, 979.316 28.145, 981.053 24.543 C 982.790 20.941, 983.953 17.321, 983.637 16.497 C 983.042 14.946, 982.834 14.907, 979.500 15.719 M 705.391 20.219 C 702.701 22.539, 695.222 29.484, 688.771 35.652 C 675.862 47.993, 665.796 56.552, 650.246 68.404 C 640.332 75.961, 635 81.109, 635 83.123 C 635 83.657, 636.347 84.860, 637.994 85.797 C 641.938 88.041, 641.783 89, 637.478 89 C 634.371 89, 633.605 89.554, 630.978 93.696 C 625.055 103.036, 628.265 110.573, 638.106 110.426 C 644.421 110.332, 645.247 109.478, 643.862 104.470 C 642.647 100.081, 643.433 87.389, 645.038 85.454 C 645.583 84.797, 647.889 84.010, 650.161 83.705 C 654.954 83.062, 670.779 72.679, 677.949 65.472 C 680.396 63.012, 682.695 61, 683.058 61 C 683.421 61, 689.294 55.011, 696.109 47.691 C 707.472 35.485, 708.769 33.694, 711.743 26.084 C 713.527 21.521, 714.738 17.385, 714.434 16.894 C 713.263 14.999, 710.090 16.165, 705.391 20.219 M 723.285 19.968 C 720.676 21.558, 717.104 26.765, 714.172 33.250 C 713.986 33.663, 715.880 34, 718.382 34 C 722.010 34, 723.622 34.607, 726.347 37 C 728.226 38.650, 730.216 40, 730.768 40 C 732.087 40, 734.996 33.800, 735.693 29.503 C 736.512 24.459, 735.325 21.219, 732.035 19.518 C 728.231 17.551, 727.159 17.606, 723.285 19.968 M 362 25.941 C 357.325 26.931, 351.378 28.742, 348.784 29.965 C 339.163 34.501, 331.159 44.155, 329.471 53.259 L 328.774 57.018 380.637 56.759 L 432.500 56.500 432.820 53.711 C 433.568 47.198, 424.508 35.318, 415.194 30.599 C 401.909 23.866, 380.605 22.001, 362 25.941 M 216.500 25.626 C 215.400 25.842, 212.025 26.515, 209 27.121 C 200.779 28.767, 189.475 34.627, 185.452 39.327 C 181.280 44.201, 178 50.730, 178 54.161 L 178 56.691 199.750 57.246 C 211.713 57.552, 234.995 57.509, 251.488 57.151 C 279.586 56.541, 281.498 56.383, 281.830 54.650 C 283.237 47.314, 275.158 37.061, 263.632 31.554 C 253.995 26.949, 243.613 24.974, 229.792 25.116 C 223.581 25.180, 217.600 25.409, 216.500 25.626 M 514.500 26 C 514.840 26.550, 517.090 27, 519.500 27 C 521.910 27, 524.160 26.550, 524.500 26 C 524.884 25.379, 522.991 25, 519.500 25 C 516.009 25, 514.116 25.379, 514.500 26 M 110.481 35.250 C 110.108 37.038, 108.779 40.367, 107.528 42.650 L 105.253 46.800 113.376 47.218 C 117.844 47.448, 121.642 47.539, 121.815 47.419 C 121.989 47.300, 120.763 44.569, 119.091 41.351 C 113.795 31.159, 111.651 29.640, 110.481 35.250 M 229.548 33.922 C 228.710 35.279, 230.724 39.004, 232.285 38.985 C 232.953 38.976, 234.175 38.539, 235 38.013 C 236.158 37.275, 236.249 36.652, 235.398 35.278 C 234.130 33.233, 230.495 32.390, 229.548 33.922 M 245.425 35.443 C 244.668 38.459, 245.536 40, 247.992 40 C 250.707 40, 251.722 36.001, 249.431 34.326 C 246.867 32.451, 246.124 32.658, 245.425 35.443 M 358.713 33.621 C 357.490 34.844, 357.931 37.698, 359.550 39.042 C 360.821 40.096, 361.348 40.073, 362.472 38.914 C 363.226 38.136, 363.991 36.600, 364.171 35.500 C 364.419 33.995, 363.872 33.427, 361.963 33.204 C 360.567 33.041, 359.104 33.229, 358.713 33.621 M 374.229 34.171 C 372.536 35.864, 372.684 39.665, 374.471 40.351 C 376.493 41.126, 379.172 38.211, 378.803 35.636 C 378.451 33.178, 376.005 32.395, 374.229 34.171 M 214.332 35.578 C 213.999 36.445, 214.440 37.869, 215.313 38.742 C 216.621 40.049, 217.172 40.102, 218.450 39.042 C 219.302 38.334, 220 36.910, 220 35.878 C 220 33.505, 215.224 33.252, 214.332 35.578 M 349.450 35.407 C 345.739 37.023, 341 42.446, 341 45.077 C 341 49.212, 345.551 46.702, 351.983 39.021 C 356.494 33.633, 355.799 32.641, 349.450 35.407 M 388.941 36.111 C 387.938 37.985, 388.040 38.556, 389.583 39.684 C 392.169 41.575, 393.500 40.809, 393.500 37.430 C 393.500 33.775, 390.635 32.946, 388.941 36.111 M 531.783 36.578 C 530.481 39.436, 531.672 42.500, 534.085 42.500 C 536.192 42.500, 537.621 37.453, 536.050 35.560 C 534.220 33.355, 533.133 33.614, 531.783 36.578 M 198.500 36.659 C 193.785 39.140, 190 43.160, 190 45.687 C 190 46.959, 190.571 48, 191.269 48 C 193.085 48, 205 37.842, 205 36.294 C 205 34.564, 202.179 34.723, 198.500 36.659 M 784.661 54.250 C 784.301 64.287, 783.591 77.450, 783.084 83.500 C 782.577 89.550, 781.870 99.450, 781.513 105.500 L 780.863 116.500 826.162 116.220 C 851.076 116.066, 871.805 115.595, 872.227 115.173 C 872.951 114.449, 872.206 95.579, 870.028 59.500 C 869.497 50.700, 869.049 41.813, 869.031 39.750 C 869.007 36.783, 868.615 36, 867.155 36 C 866.140 36, 864.495 36.900, 863.500 38 C 862.153 39.489, 860.420 40, 856.721 40 L 851.752 40 852.293 45.250 C 852.590 48.138, 853.142 51.487, 853.519 52.694 C 854.021 54.303, 853.523 55.568, 851.647 57.444 C 848.497 60.594, 845.900 60.681, 842.505 57.750 C 840.380 55.916, 839.706 54.113, 838.863 48 C 838.294 43.875, 837.601 40.275, 837.323 40 C 836.357 39.044, 818.927 39.673, 817.898 40.702 C 817.329 41.271, 816.517 44.292, 816.093 47.414 C 815.669 50.536, 814.418 54.308, 813.312 55.796 C 810.710 59.297, 806.106 59.879, 803.531 57.034 C 801.862 55.190, 801.788 54.432, 802.832 49.909 C 803.474 47.125, 804 43.560, 804 41.987 C 804 39.286, 803.808 39.157, 800.563 39.683 C 798.080 40.086, 796.174 39.653, 793.695 38.121 C 791.808 36.954, 789.151 36, 787.790 36 L 785.316 36 784.661 54.250 M 503.667 37.667 C 502.191 39.142, 503.022 43.872, 504.859 44.455 C 507.335 45.241, 510 44.138, 510 42.327 C 510 38.454, 505.898 35.435, 503.667 37.667 M 712.412 39.077 C 710.269 39.699, 706.826 42.962, 701.166 49.737 C 696.679 55.107, 689.480 62.725, 685.168 66.666 C 676.747 74.364, 657.961 87.390, 651.782 89.818 C 647.707 91.418, 647.492 92.051, 647.974 101 C 648.270 106.513, 650.276 110.635, 653.097 111.531 C 659.278 113.493, 674.262 108.407, 688.563 99.493 C 701.813 91.235, 718.694 73.781, 727.246 59.500 C 732.544 50.652, 732.854 48.513, 729.375 44.809 C 726.411 41.653, 719.646 37.992, 717 38.112 C 716.175 38.150, 714.110 38.584, 712.412 39.077 M 951 41.891 C 942.091 44.767, 934.246 51.781, 929.810 60.838 C 927.946 64.642, 927.523 67.169, 927.513 74.572 C 927.501 83.269, 927.679 84.005, 931.825 92.375 C 936.340 101.490, 943.250 109.490, 951.091 114.679 C 956.058 117.966, 962.744 118.316, 968.318 115.581 C 972.096 113.727, 972.175 113.730, 975.954 115.854 C 980.893 118.630, 984.278 118.550, 990.826 115.501 C 1001.949 110.323, 1011.482 96.879, 1014.569 82.017 C 1017.415 68.318, 1014.266 57.239, 1005.120 48.772 C 996.195 40.509, 989.728 39.215, 979.746 43.695 L 973.741 46.389 967.621 44.222 C 960.277 41.621, 954.394 40.796, 951 41.891 M 513.922 51.862 C 512.337 53.145, 511.935 54.219, 512.440 55.812 C 513.713 59.823, 519 57.885, 519 53.407 C 519 50.447, 516.579 49.710, 513.922 51.862 M 48.950 51.742 L 40.400 52.072 40.146 83.794 L 39.893 115.516 68.651 115.220 C 84.468 115.057, 97.481 114.829, 97.570 114.712 C 97.658 114.595, 98.040 100.213, 98.418 82.750 L 99.105 51 78.303 51.206 C 66.861 51.319, 53.652 51.560, 48.950 51.742 M 104 83.510 L 104 116.233 106.250 115.630 C 107.487 115.299, 111.650 115.020, 115.500 115.011 L 122.500 114.995 122.770 84.142 L 123.040 53.289 115.270 52.734 C 110.996 52.429, 106.713 51.866, 105.750 51.483 C 104.105 50.828, 104 52.746, 104 83.510 M 950.500 52.872 C 945.465 55.233, 941.768 59.287, 939.650 64.770 C 936.496 72.932, 938.240 83, 942.807 83 C 944.207 83, 944.500 81.977, 944.500 77.093 C 944.500 71.998, 944.923 70.657, 947.574 67.343 C 949.265 65.229, 953.203 61.974, 956.324 60.110 C 962.043 56.694, 963.052 55.118, 960.744 53.203 C 958.235 51.120, 954.495 50.999, 950.500 52.872 M 551.015 55.215 C 551.041 57.355, 552.706 59.300, 553.888 58.569 C 555.564 57.533, 555.230 56.194, 553 55 C 551.482 54.187, 551.004 54.239, 551.015 55.215 M 538.081 57.402 C 536.041 59.861, 537.121 63.500, 539.891 63.500 C 543.005 63.500, 544.901 60.653, 543.388 58.250 C 541.928 55.932, 539.609 55.562, 538.081 57.402 M 494.615 62.873 C 492.090 65.663, 494.023 69.248, 497.817 68.810 C 500.158 68.540, 500.500 68.053, 500.500 65 C 500.500 62.231, 500.071 61.439, 498.445 61.206 C 497.314 61.044, 495.591 61.794, 494.615 62.873 M 562.200 63.200 C 558.533 66.867, 562.978 72.458, 566.982 69.216 L 569.150 67.460 567.002 64.730 C 564.603 61.680, 563.934 61.466, 562.200 63.200 M 175 69.965 C 175 77.526, 175.800 78, 188.557 78 C 197.277 78, 198.114 77.842, 196.932 76.418 C 196.210 75.549, 193.118 73.569, 190.060 72.019 C 187.002 70.469, 183.409 68.030, 182.076 66.600 C 180.742 65.170, 178.605 64, 177.326 64 C 175.151 64, 175 64.388, 175 69.965 M 186.593 65.265 C 201.111 73.833, 227.327 88, 228.664 88 C 231.723 88, 255.982 75.533, 269.946 66.785 L 274.392 64 229.446 64.015 C 193.307 64.027, 184.910 64.272, 186.593 65.265 M 341.554 67.138 C 346.777 70.453, 359.811 77.866, 371.500 84.171 C 375.350 86.248, 379.671 87.959, 381.102 87.974 C 384.360 88.007, 402.030 79.337, 416.468 70.621 L 427.436 64 382.022 64 L 336.608 64 341.554 67.138 M 429.844 66.750 C 428.005 68.320, 424.034 71.381, 421.019 73.552 L 415.538 77.500 424.936 77.790 C 431.770 78, 434.563 77.728, 435.176 76.790 C 436.393 74.927, 435.715 64.729, 434.344 64.277 C 433.708 64.067, 431.683 65.180, 429.844 66.750 M 277.407 67.103 C 276.361 68.259, 272.358 71.071, 268.513 73.353 L 261.523 77.500 270.011 77.804 C 274.680 77.972, 279.962 77.839, 281.750 77.509 C 284.986 76.912, 285 76.883, 285 70.955 C 285 65.077, 284.963 65, 282.155 65 C 280.534 65, 278.492 65.904, 277.407 67.103 M 327 70.300 C 327 73.215, 327.540 76.140, 328.200 76.800 C 329.595 78.195, 349 78.509, 349 77.136 C 349 75.446, 331.728 65, 328.934 65 C 327.265 65, 327 65.727, 327 70.300 M 66.500 68.203 C 65.400 68.832, 62.138 71.082, 59.250 73.204 C 54.154 76.950, 54 77.207, 54 81.973 C 54 84.673, 54.399 87.128, 54.886 87.429 C 55.373 87.730, 55.542 90.835, 55.262 94.327 L 54.752 100.678 68.566 101.341 C 79.128 101.847, 82.567 101.708, 83.175 100.752 C 84.332 98.929, 84.175 92.196, 82.920 89.851 C 82.086 88.292, 82.199 87.437, 83.420 86.088 C 84.300 85.116, 85 82.588, 85 80.384 C 85 76.980, 84.329 75.764, 80.216 71.712 C 76.340 67.895, 74.773 67.006, 71.966 67.030 C 70.060 67.047, 67.600 67.575, 66.500 68.203 M 222 70.132 C 222 72.523, 226.232 78, 228.079 78 C 229.132 78, 231.863 76.313, 234.148 74.250 L 238.301 70.500 235.401 69.868 C 230.281 68.753, 222 68.916, 222 70.132 M 376.673 69.892 L 372.846 70.500 375.205 74 C 378.478 78.857, 382.872 79.281, 387.013 75.141 C 391.505 70.649, 391.011 68.970, 385.250 69.142 C 382.637 69.220, 378.778 69.557, 376.673 69.892 M 523.919 71.081 C 521.936 73.064, 521.920 73.254, 523.574 75.081 C 527.208 79.097, 531.397 76.360, 529.153 71.436 C 527.795 68.456, 526.624 68.376, 523.919 71.081 M 546.571 78.571 C 544.581 80.562, 544.557 83.388, 546.519 85.016 C 547.762 86.047, 548.397 85.950, 550.019 84.483 C 552.262 82.453, 552.571 79.971, 550.800 78.200 C 549.219 76.619, 548.457 76.685, 546.571 78.571 M 507.655 81.829 C 505.701 83.988, 505.537 86.137, 507.200 87.800 C 509.236 89.836, 511.988 89.163, 513.050 86.368 C 515.096 80.986, 511.304 77.796, 507.655 81.829 M 252.500 84.929 C 248.969 85.781, 245.972 87.299, 240.500 91.006 C 238.300 92.497, 234.849 94.308, 232.832 95.030 C 229.242 96.314, 228.962 96.226, 219.832 90.921 L 210.500 85.500 193.750 85.166 C 178.781 84.867, 177 85.005, 177 86.465 C 177 89.314, 179.880 93.807, 183.454 96.533 C 190.140 101.632, 193.839 102.125, 229.631 102.689 C 258.520 103.144, 263.490 102.999, 268.447 101.558 C 276.033 99.353, 280.943 94.842, 281.672 89.407 L 282.221 85.316 272.360 84.663 C 260.726 83.893, 256.562 83.949, 252.500 84.929 M 400.224 86.514 C 398.176 87.693, 393.618 90.535, 390.095 92.829 C 386.572 95.123, 382.949 97, 382.044 97 C 381.138 97, 376.145 94.439, 370.949 91.309 L 361.500 85.617 346.002 85.900 C 336.546 86.073, 330.251 86.594, 329.854 87.236 C 327.559 90.950, 335.305 99.104, 343.432 101.529 C 350.694 103.696, 412.389 103.668, 419.707 101.494 C 426.005 99.624, 432 93.539, 432 89.016 C 432 85.357, 431.470 85.217, 415.724 84.732 C 405.123 84.406, 403.577 84.583, 400.224 86.514 M 556.200 89.200 C 554.611 90.789, 554.669 93, 556.300 93 C 557.972 93, 560 90.972, 560 89.300 C 560 87.669, 557.789 87.611, 556.200 89.200 M 529.565 93.928 C 526.825 96.956, 528.350 100.194, 532.335 99.807 C 536.030 99.449, 537.132 96.275, 534.482 93.625 C 532.393 91.536, 531.691 91.579, 529.565 93.928 M 80.752 153.250 C 80.041 154.488, 78.780 156.850, 77.950 158.500 C 76.896 160.596, 75.182 161.901, 72.262 162.832 C 68.224 164.119, 66.140 166.799, 67.485 168.975 C 67.822 169.521, 70.052 170.538, 72.440 171.234 C 74.828 171.930, 76.943 172.950, 77.141 173.500 C 77.755 175.210, 73.292 175.202, 69.977 173.488 C 65.606 171.228, 64 172.132, 64 176.855 C 64 180.062, 64.675 181.427, 67.721 184.386 C 71.040 187.609, 71.208 188, 69.280 188 C 68.091 188, 66.840 187.550, 66.500 187 C 65.622 185.580, 60.437 185.759, 59.248 187.250 C 58.700 187.938, 57.997 189.850, 57.686 191.500 C 57.375 193.150, 56.803 195.808, 56.414 197.406 C 55.173 202.508, 57.076 203, 78.066 203 C 88.342 203, 98.187 202.713, 99.943 202.361 C 103.700 201.610, 105.820 198.790, 106.215 194.017 C 106.587 189.529, 104.425 189.028, 99.303 192.418 C 97.193 193.814, 93.900 195.224, 91.984 195.551 C 88.570 196.134, 88.599 196.089, 93.418 193.323 C 96.123 191.770, 99.204 189.323, 100.263 187.884 C 102.801 184.439, 102.931 178.686, 100.530 176.034 L 98.667 173.974 95.847 177.237 L 93.027 180.500 94.513 176.782 C 96.255 172.427, 96.412 168.639, 94.965 165.934 C 93.871 163.890, 90.540 163.317, 89.503 164.995 C 89.165 165.542, 88.050 166.438, 87.025 166.987 C 85.252 167.936, 85.236 167.835, 86.697 164.905 C 88.511 161.270, 87.899 155.651, 85.388 152.876 C 83.185 150.442, 82.327 150.511, 80.752 153.250 M 964.500 158.837 C 956.197 163.900, 950.597 176.011, 951.196 187.608 C 951.471 192.938, 951.726 193.532, 953.865 193.835 C 955.166 194.019, 956.592 193.794, 957.035 193.335 C 957.477 192.876, 958.556 188.304, 959.432 183.176 C 961.177 172.962, 962.820 168.940, 966.217 166.561 C 974.260 160.927, 983.348 170.769, 985.554 187.500 C 986.318 193.296, 988.262 195.465, 991.256 193.863 C 993.020 192.919, 993.162 192.148, 992.558 186.814 C 990.993 172.975, 985.158 161.218, 978.470 158.423 C 973.807 156.475, 968.096 156.644, 964.500 158.837 M 785.636 166.475 C 786.042 170.079, 787.597 175.038, 789.554 178.975 C 791.339 182.564, 793.092 187.300, 793.450 189.500 C 793.807 191.700, 794.563 194.963, 795.128 196.750 C 796.080 199.763, 796.473 200, 800.519 200 C 802.927 200, 805.231 199.440, 805.661 198.750 C 806.089 198.063, 806.737 194.645, 807.100 191.155 C 807.866 183.807, 809.589 181.429, 813.446 182.397 C 818.387 183.637, 819.992 188.148, 819.996 200.802 L 820 212.105 825.250 211.802 L 830.500 211.500 831.361 204.500 C 832.738 193.305, 833.817 190.040, 836.551 188.795 C 842.775 185.959, 846.224 192.002, 845.892 205.165 C 845.729 211.597, 845.954 212.544, 848.042 214.235 C 849.643 215.532, 851.175 215.922, 852.931 215.481 C 857.424 214.353, 857.998 213.192, 858.044 205.128 C 858.097 195.731, 859.276 189.296, 861.316 187.255 C 862.715 185.856, 863.265 186.109, 866.981 189.862 C 870.439 193.355, 871.408 193.852, 873.048 192.974 C 874.781 192.047, 875 190.826, 875 182.112 C 875 176.712, 874.707 169.494, 874.350 166.073 L 873.700 159.852 829.331 160.176 L 784.962 160.500 785.636 166.475 M 209.300 163.800 C 196.119 168.512, 185.615 181.033, 184.805 193 L 184.500 197.500 208.500 198.269 C 234.926 199.115, 258.752 198.450, 260.728 196.811 C 262.498 195.342, 262.315 189.284, 260.324 183.428 C 257.946 176.435, 249.359 168.044, 241.493 165.027 C 233.043 161.786, 216.678 161.162, 209.300 163.800 M 209.732 171.207 C 207.660 171.757, 203.911 174.073, 201.400 176.353 C 197.799 179.625, 196.800 181.231, 196.668 183.964 C 196.348 190.559, 200.143 188.805, 214.409 175.760 C 217.799 172.660, 218.243 171.849, 217 171.025 C 215.249 169.864, 214.743 169.877, 209.732 171.207 M 233.200 176.200 C 231.082 178.318, 231.853 180, 234.941 180 C 238.392 180, 239.666 178.507, 237.964 176.456 C 236.495 174.686, 234.804 174.596, 233.200 176.200 M 932.585 187.750 C 931.866 199.584, 930.672 213.669, 928.454 236.500 C 927.652 244.750, 926.997 252.031, 926.998 252.679 C 927 253.569, 937.780 253.814, 970.998 253.679 L 1014.995 253.500 1014.998 246.136 C 1015 238.637, 1010.188 177.855, 1009.541 177.208 C 1009.346 177.012, 1007.816 177.561, 1006.143 178.426 C 1004.469 179.292, 1000.987 180, 998.405 180 L 993.711 180 994.296 186.262 C 994.617 189.707, 995.173 193.287, 995.530 194.218 C 996.269 196.143, 992.024 201, 989.601 201 C 986.395 201, 982.891 196.627, 982.387 191.998 C 981.130 180.448, 981.446 181, 976.094 181 C 973.446 181, 969.238 181.280, 966.742 181.622 L 962.205 182.244 961.152 189.372 C 960.313 195.052, 959.569 196.957, 957.494 198.750 C 954.408 201.415, 952.270 201.578, 949.142 199.387 C 946.943 197.847, 946.871 197.396, 947.538 189.387 L 948.237 181 945.078 181 C 943.341 181, 940.156 180.100, 938 179 C 935.844 177.900, 933.891 177, 933.659 177 C 933.428 177, 932.945 181.838, 932.585 187.750 M 296.800 188.750 C 296.625 189.162, 296.629 194.149, 296.809 199.831 C 297.086 208.561, 297.371 210.072, 298.650 209.581 C 299.482 209.261, 402.277 209, 527.082 209 L 754 209 754 198.500 L 754 188 525.559 188 C 399.916 188, 296.975 188.338, 296.800 188.750 M 192.250 205.746 L 182 206.070 182 211.406 L 182 216.742 188.136 217.436 C 197.144 218.455, 206.703 217.244, 207.287 215.010 C 207.914 212.613, 212.460 213.186, 218.960 216.480 C 221.695 217.866, 224.681 219, 225.594 219 C 226.507 219, 230.515 217.200, 234.500 215 C 238.485 212.800, 241.934 211, 242.163 211 C 242.392 211, 242.561 212.238, 242.539 213.750 L 242.500 216.500 252.651 216.784 L 262.802 217.068 263.221 211.784 C 263.451 208.878, 263.469 206.162, 263.260 205.750 C 262.904 205.043, 214.567 205.040, 192.250 205.746 M 64 209.670 C 64 211.115, 67.058 216.949, 68.182 217.648 C 68.936 218.117, 70.389 222.100, 71.411 226.500 C 74.269 238.797, 78.119 250.109, 79.647 250.695 C 81.793 251.518, 83.887 249.154, 84.560 245.150 C 84.898 243.142, 86.260 238.565, 87.587 234.979 C 90.969 225.839, 90.769 223.927, 85.974 219.595 C 81.768 215.796, 80.097 215.768, 77.045 219.445 C 75.165 221.712, 72 221.432, 72 219 C 72 217.431, 72.667 217, 75.094 217 C 77.346 217, 78.329 216.456, 78.710 215 C 79.556 211.765, 82.931 212.666, 86.955 217.200 L 90.682 221.399 93.341 216.862 C 97.990 208.929, 98.202 209.051, 80 209.170 C 71.200 209.228, 64 209.453, 64 209.670 M 795.990 214.677 C 790.077 224.001, 791.089 231.213, 798.395 231.817 C 804.015 232.282, 807.351 228.951, 806.744 223.481 C 806.128 217.931, 802.475 210, 800.534 210 C 799.666 210, 797.621 212.104, 795.990 214.677 M 826.808 221.750 C 825.397 223.262, 823.947 226.163, 823.586 228.196 C 823.044 231.250, 823.272 232.075, 824.899 232.946 C 827.541 234.360, 832.318 234.282, 833.800 232.800 C 835.421 231.179, 835.312 226.683, 833.551 222.468 C 831.802 218.282, 830.203 218.112, 826.808 221.750 M 76.667 222.667 C 75.426 223.907, 75.990 226, 77.565 226 C 78.425 226, 80.265 227.350, 81.653 229 C 83.042 230.650, 84.588 232, 85.089 232 C 85.590 232, 86 230.650, 86 229 C 86 226.478, 85.607 226, 83.535 226 C 82.094 226, 80.626 225.170, 80 224 C 78.895 221.936, 77.825 221.508, 76.667 222.667 M 459.367 222.749 L 428.234 223.028 426.606 233.764 C 425.710 239.669, 424.078 252.809, 422.979 262.964 C 421.880 273.119, 419.828 291.092, 418.417 302.904 C 415.519 327.182, 415.794 331.704, 420.817 342.402 C 424.586 350.428, 427.705 353.966, 434.167 357.546 C 439.029 360.239, 440.343 360.500, 449.039 360.500 C 458.159 360.500, 458.835 360.346, 464.431 357 C 473.095 351.820, 478.104 344.216, 481.426 331.202 C 483.510 323.035, 485.162 306.630, 491.640 229.750 C 492.014 225.315, 491.910 222.101, 491.397 222.235 C 490.904 222.365, 476.490 222.596, 459.367 222.749 M 694.992 223.500 C 694.978 224.950, 704.448 264.557, 709.698 285 C 712.169 294.625, 715.996 309.700, 718.203 318.500 C 724.763 344.662, 730.762 354.487, 743 359.114 C 751.051 362.158, 762.531 361.469, 769.816 357.504 C 780.614 351.627, 787.183 340.860, 787.818 328 C 788.134 321.591, 787.647 318.681, 784.471 308 C 776.664 281.748, 772.071 267.105, 768.162 256 C 765.935 249.675, 762.625 239.613, 760.807 233.639 L 757.500 222.778 726.251 222.639 C 705.998 222.549, 694.998 222.852, 694.992 223.500 M 284.772 254.750 C 278.911 272.212, 271.794 294.348, 268.956 303.940 C 262.761 324.877, 262.568 330.269, 267.630 341.047 C 271.808 349.944, 275.790 354.170, 283.223 357.597 C 288.595 360.073, 290.725 360.489, 298 360.481 C 305.259 360.473, 307.230 360.085, 311.500 357.822 C 317.778 354.496, 323.041 349.008, 326.391 342.294 C 327.820 339.431, 330.808 329.306, 333.032 319.794 C 335.255 310.282, 339.074 294.400, 341.518 284.500 C 345.054 270.176, 353.504 233.919, 355.443 224.750 C 355.789 223.114, 353.849 223, 325.620 223 L 295.428 223 284.772 254.750 M 561.005 226.250 C 561.016 233.148, 563.059 268.395, 564.526 287 C 568.036 331.525, 568.537 334.523, 574.252 345.296 C 579.651 355.470, 589.507 361.276, 601.571 361.386 C 607.629 361.442, 609.604 360.977, 615.364 358.142 C 623.972 353.904, 629.147 347.620, 632.138 337.772 C 634.052 331.469, 634.221 329.162, 633.723 316.109 C 633.250 303.723, 628.781 260.837, 624.881 231.250 L 623.793 223 592.397 223 L 561 223 561.005 226.250 M 184.501 226.998 C 183.525 230.071, 185.008 235.659, 187.393 237.900 C 188.604 239.037, 192.274 240.897, 195.548 242.033 C 200.609 243.788, 204.893 244.188, 224.162 244.703 C 248.964 245.366, 253.611 244.771, 258.419 240.312 C 262.779 236.270, 264.589 228.564, 261.736 226.196 C 260.905 225.506, 247.567 225.136, 222.790 225.116 C 186.534 225.085, 185.085 225.156, 184.501 226.998 M 850.542 232.338 C 845.917 240.230, 847.880 247, 854.794 247 C 858.835 247, 860.411 244.228, 859.568 238.603 C 858.906 234.189, 855.689 228, 854.057 228 C 853.522 228, 851.940 229.952, 850.542 232.338 M 195.675 231.658 C 194.537 232.796, 197.140 235, 199.622 235 C 201.333 235, 202 234.439, 202 233 C 202 231.471, 201.333 231, 199.167 231 C 197.608 231, 196.037 231.296, 195.675 231.658 M 77 235.465 C 77 238.336, 80.094 240.506, 81.782 238.818 C 82.565 238.035, 82.436 237.070, 81.320 235.365 C 79.286 232.261, 77 232.314, 77 235.465 M 244 234 C 244 234.550, 245.152 235, 246.559 235 C 248.010 235, 248.851 234.567, 248.500 234 C 248.160 233.450, 247.009 233, 245.941 233 C 244.873 233, 244 233.450, 244 234 M 0 269 C 0 269.550, 0.675 270, 1.500 270 C 2.325 270, 3 269.550, 3 269 C 3 268.450, 2.325 268, 1.500 268 C 0.675 268, 0 268.450, 0 269 M 49.745 284.588 C 49.335 284.998, 49 287.674, 49 290.534 C 49 294.814, 48.266 297.003, 44.857 302.891 C 42.578 306.827, 40.999 310.333, 41.348 310.682 C 41.697 311.031, 55.760 311.357, 72.599 311.408 L 103.215 311.500 106.626 305 C 109.852 298.853, 112.852 286.520, 111.460 285.125 C 110.558 284.221, 50.633 283.700, 49.745 284.588 M 67.500 292.663 C 66.400 292.900, 63.765 293.838, 61.644 294.747 C 58.418 296.129, 58.091 296.519, 59.644 297.129 C 62.574 298.282, 86.566 298.116, 89.685 296.922 L 92.500 295.845 90.139 293.922 C 88.165 292.315, 86.281 292.019, 78.639 292.116 C 73.613 292.180, 68.600 292.426, 67.500 292.663 M 112.944 306.176 C 111.749 308.554, 109.790 311.850, 108.591 313.500 C 106.426 316.477, 106.414 316.737, 107.032 347.744 C 107.375 364.929, 107.845 379.171, 108.078 379.394 C 108.310 379.617, 111.739 379.065, 115.698 378.169 L 122.896 376.539 123.198 345.519 L 123.500 314.500 120.700 309.331 C 116.421 301.431, 115.513 301.062, 112.944 306.176 M 916.580 318.750 C 918.185 334.201, 923.058 345.061, 932.172 353.499 C 944.442 364.859, 957.631 369.601, 974.500 368.719 C 993.504 367.726, 1011.224 355.754, 1019.690 338.187 C 1022.888 331.553, 1023.454 329.302, 1023.820 321.750 L 1024.245 313 1020.622 313 C 1017.342 313, 1016.998 313.259, 1016.983 315.750 C 1016.953 320.421, 1014.154 332.050, 1011.977 336.547 C 1007.741 345.298, 995.533 356.136, 986.206 359.427 C 970.808 364.860, 950.652 360.405, 938.459 348.873 C 930.478 341.325, 925.814 331.507, 925.204 320.970 L 924.743 313 920.363 313 L 915.983 313 916.580 318.750 M 929.017 315.750 C 929.052 321.162, 931.957 332.150, 934.673 337.140 C 939.898 346.741, 954.552 355.473, 967.460 356.678 C 978.952 357.752, 987.647 354.597, 998.447 345.434 C 1005.743 339.244, 1010.527 331.342, 1011.528 323.826 C 1011.845 321.447, 1012.326 318.038, 1012.598 316.250 L 1013.091 313 994.652 313 C 974.591 313, 975.019 312.873, 974.985 318.832 C 974.965 322.341, 974.054 323.557, 970.864 324.336 C 966.999 325.281, 965.817 323.302, 966.873 317.650 L 967.742 313 948.371 313 L 929 313 929.017 315.750 M 40.236 347.093 L 40.500 378.456 67.500 378.649 C 82.350 378.755, 95.983 378.990, 97.796 379.171 L 101.092 379.500 101.019 348.556 C 100.978 331.537, 100.762 317.428, 100.537 317.203 C 100.312 316.978, 86.592 316.555, 70.049 316.262 L 39.971 315.730 40.236 347.093 M 941.496 321.004 C 938.032 324.832, 943.162 330.438, 946.800 326.800 C 948.533 325.067, 948.276 322.560, 946.171 320.655 C 943.863 318.566, 943.691 318.579, 941.496 321.004 M 995.204 320.570 C 990.763 323.680, 994.118 328.940, 999.656 327.550 C 1001.612 327.059, 1002.061 326.388, 1001.813 324.329 C 1001.641 322.898, 1000.579 321.119, 999.454 320.377 C 997.713 319.228, 997.078 319.257, 995.204 320.570 M 342.501 333.250 C 343.448 340.462, 347.437 349.046, 351.831 353.327 C 357.833 359.174, 364.091 361.479, 374 361.490 C 381.563 361.499, 383.091 361.173, 387.855 358.534 C 395.843 354.109, 400.537 348.192, 403.502 338.806 C 406.580 329.062, 406.579 329, 403.460 329 C 401.709 329, 398.754 331.036, 393.937 335.560 C 386.080 342.939, 380.434 345.946, 374.376 345.978 C 366.717 346.019, 362.047 343.567, 354.407 335.495 C 348.927 329.703, 346.689 328, 344.563 328 C 341.824 328, 341.815 328.022, 342.501 333.250 M 494.015 330.183 C 494.049 333.239, 497.137 344.345, 498.908 347.781 C 501.432 352.678, 506.568 357.510, 511.384 359.519 C 516.802 361.779, 527.934 362.558, 533.307 361.054 C 543.354 358.241, 552.219 348.092, 555.295 335.883 L 556.836 329.765 553.387 330.325 C 551.381 330.650, 548.098 332.504, 545.538 334.758 C 543.118 336.888, 538.189 340.127, 534.585 341.957 C 528.907 344.839, 527.371 345.204, 523.070 344.695 C 517.030 343.979, 513.599 342.279, 507.437 336.945 C 499.851 330.380, 493.984 327.424, 494.015 330.183 M 647 331.786 C 647 337.170, 650.822 347.432, 654.371 351.578 C 656.251 353.775, 660.425 356.906, 663.645 358.536 C 668.856 361.174, 670.489 361.498, 678.500 361.483 C 685.772 361.469, 688.268 361.054, 691.500 359.320 C 697.903 355.886, 703.585 350.415, 705.930 345.426 C 707.977 341.070, 710.576 330.243, 709.768 329.435 C 709.565 329.231, 707.762 329.567, 705.762 330.181 C 703.424 330.898, 700.506 333.172, 697.596 336.543 C 686.453 349.449, 672.357 349.113, 658.193 335.603 C 655.055 332.609, 651.253 329.851, 649.744 329.472 C 647.208 328.835, 647 329.011, 647 331.786 M 952.223 334.557 C 949.155 336.705, 949.370 339.810, 952.672 341.066 C 957.294 342.823, 959.829 340.438, 958.589 335.498 C 957.865 332.616, 955.494 332.265, 952.223 334.557 M 984.031 334.942 C 982.190 338.382, 984.327 341, 988.976 341 C 993.669 341, 994.545 339.913, 992.800 336.254 C 991.073 332.633, 985.697 331.828, 984.031 334.942 M 70 337.659 C 68.625 338.380, 66.698 338.977, 65.718 338.985 C 63.233 339.006, 56.729 341.828, 55.800 343.289 C 55.377 343.955, 55.024 345.738, 55.015 347.250 L 55 350 69 350.179 C 76.700 350.277, 84.013 350.389, 85.250 350.429 C 87.258 350.492, 87.490 350.039, 87.411 346.211 C 87.362 343.852, 86.840 341.440, 86.252 340.852 C 85.663 340.263, 82.328 339.009, 78.841 338.064 C 73.485 336.614, 72.111 336.551, 70 337.659 M 968.183 341.280 C 966.387 343.443, 966.341 347.114, 968.095 348.256 C 968.973 348.827, 970.911 348.988, 972.404 348.614 C 974.826 348.006, 975.084 347.534, 974.808 344.216 C 974.547 341.060, 974.110 340.455, 971.914 340.199 C 970.492 340.034, 968.813 340.520, 968.183 341.280 M 334 356.348 C 334 358.788, 322.197 369.021, 316.281 371.710 C 311.404 373.927, 309.015 374.350, 301 374.419 C 295.775 374.463, 290.208 374.275, 288.629 374 L 285.759 373.500 285.938 508.475 C 286.036 582.711, 286.238 643.571, 286.386 643.720 C 286.535 643.868, 349.930 644.104, 427.264 644.245 L 567.873 644.500 567.553 534.500 C 567.343 462.380, 567.578 423.811, 568.235 422.500 C 569.742 419.491, 576.141 413.023, 579.200 411.418 C 581.450 410.236, 592.731 410, 646.842 410 L 711.784 410 715.764 413.250 C 717.953 415.038, 720.814 418.042, 722.122 419.926 L 724.500 423.353 724.763 534.176 L 725.026 645 746.657 645 L 768.288 645 767.530 611.750 C 765.950 542.446, 765.521 500.643, 766.132 475.500 C 766.480 461.200, 767.114 432.212, 767.540 411.082 C 768.299 373.515, 768.273 372.683, 766.408 373.465 C 761.126 375.679, 754.613 376.274, 748.338 375.118 C 736.079 372.859, 731.139 370.355, 723.296 362.421 C 717.239 356.294, 715.997 355.433, 715.496 357.012 C 714.698 359.527, 704.640 368.633, 700.118 370.937 C 681.983 380.173, 657.018 375.952, 644.271 361.495 L 639.770 356.389 634.346 362.076 C 621.303 375.750, 602.269 379.472, 583 372.115 C 574.985 369.055, 571.610 366.713, 567.224 361.165 L 563.315 356.218 558.993 361.235 C 545.361 377.062, 521.144 380.612, 500.748 369.775 C 495.364 366.914, 487.984 360.151, 486.729 356.927 C 486.326 355.890, 485.397 356.452, 483.337 358.979 C 478.133 365.360, 474.552 368.258, 468.112 371.300 C 462.757 373.830, 460.147 374.394, 451.965 374.788 C 436.495 375.532, 424.684 371.038, 415.500 360.911 L 411.500 356.500 405.666 362.717 C 392.155 377.116, 372.964 379.828, 351.797 370.329 C 346.314 367.868, 336 358.552, 336 356.060 C 336 355.477, 335.550 355, 335 355 C 334.450 355, 334 355.607, 334 356.348 M 61.626 359.728 L 53.753 360.089 54.365 363.794 C 54.702 365.832, 54.983 368.444, 54.989 369.598 C 54.999 371.598, 55.670 371.729, 69.250 372.394 C 77.088 372.777, 84.400 373.183, 85.500 373.295 C 87.329 373.482, 87.500 372.902, 87.500 366.500 L 87.500 359.500 78.500 359.434 C 73.550 359.398, 65.957 359.530, 61.626 359.728 M 0 396 C 0 396.550, 0.477 397, 1.059 397 C 1.641 397, 1.840 396.550, 1.500 396 C 1.160 395.450, 0.684 395, 0.441 395 C 0.198 395, 0 395.450, 0 396 M 340.500 411.543 C 338.300 412.300, 334.693 414.850, 332.484 417.210 L 328.467 421.500 328.484 501.200 C 328.496 561.535, 328.790 581.190, 329.692 582.092 C 331.397 583.797, 516.684 583.404, 521.689 581.685 L 525.138 580.500 525.127 501.663 C 525.115 415.529, 525.457 420.819, 519.576 415.749 C 514.239 411.148, 517.003 411.300, 428.500 410.718 C 358.707 410.259, 343.823 410.399, 340.500 411.543 M 961.568 413.165 C 958.856 413.683, 953.325 415.638, 949.276 417.508 C 926.337 428.106, 916.648 457.047, 928.654 479.105 C 934.792 490.384, 950.333 500.808, 964.250 502.983 C 991.531 507.247, 1015.909 485.878, 1016.138 457.500 C 1016.319 435.212, 1000.172 416.139, 978.500 413.040 C 970.350 411.875, 968.243 411.891, 961.568 413.165 M 66.924 414.792 L 60.348 415.083 58.257 427.150 C 56.540 437.062, 55.711 439.692, 53.614 441.881 C 51.099 444.506, 51.088 444.586, 52.861 447.288 C 57.232 453.951, 60.763 454.472, 66.008 449.227 C 70.385 444.850, 71.619 441.127, 73.093 427.844 C 74.621 414.066, 74.799 414.442, 66.924 414.792 M 38 415.933 C 38 416.446, 35.255 422.763, 31.901 429.971 C 25.095 444.595, 24.919 446.761, 30.277 450.027 C 34.842 452.811, 40.068 452.593, 43.429 449.478 C 45.602 447.464, 46.024 446.385, 45.525 444.116 C 45.139 442.355, 46.061 436.680, 47.951 429.196 C 49.628 422.552, 51 416.641, 51 416.058 C 51 415.422, 48.406 415, 44.500 415 C 40.925 415, 38 415.420, 38 415.933 M 87.188 424.250 C 88.238 436.859, 89.675 444.855, 91.350 447.412 C 92.121 448.589, 94.394 450.436, 96.401 451.517 C 99.739 453.314, 100.283 453.353, 102.775 451.971 C 104.274 451.140, 106.278 448.909, 107.229 447.015 C 108.780 443.925, 108.803 443.361, 107.451 441.535 C 104.643 437.744, 103.203 433.524, 101.980 425.500 C 101.309 421.100, 100.603 416.938, 100.412 416.250 C 100.176 415.406, 97.846 415, 93.240 415 L 86.418 415 87.188 424.250 M 111 416.869 C 111 417.897, 111.707 422.734, 112.572 427.619 C 113.436 432.504, 114.136 438.708, 114.128 441.406 C 114.114 445.680, 114.558 446.758, 117.577 449.777 C 120.528 452.728, 121.508 453.148, 124.187 452.613 C 128.980 451.654, 134 447.392, 134 444.281 C 134 442.842, 131.786 436.901, 129.081 431.079 C 126.375 425.257, 123.852 419.257, 123.473 417.747 C 122.818 415.140, 122.483 415, 116.892 415 C 111.804 415, 111 415.255, 111 416.869 M 961.500 423.618 C 944.773 427.769, 933.875 441.870, 933.875 459.362 C 933.875 463.738, 934.560 467.432, 935.988 470.751 C 938.641 476.917, 947.756 486.005, 954.813 489.522 C 960.790 492.500, 971.506 494.371, 976.846 493.369 C 981.683 492.462, 991.245 487.602, 995.439 483.920 C 1002.680 477.561, 1007.753 464.060, 1006.596 454.221 C 1005.364 443.737, 997.027 432.062, 986.774 426.464 C 982.217 423.976, 980.276 423.553, 972.500 423.353 C 967.550 423.226, 962.600 423.345, 961.500 423.618 M 605.246 424.768 L 581.991 425.037 582.246 534.444 L 582.500 643.851 646.500 644.228 L 710.500 644.606 710.204 535.091 C 710.042 474.857, 709.817 425.501, 709.704 425.409 C 709.235 425.028, 626.671 424.521, 605.246 424.768 M 968.077 428.589 C 964.128 431.911, 964.067 435.200, 967.904 437.932 C 971.671 440.614, 974.139 440.546, 976.826 437.686 C 979.553 434.782, 979.585 432.013, 976.927 428.635 C 974.317 425.316, 971.980 425.304, 968.077 428.589 M 947.566 437.076 C 943.948 440.253, 941.855 446.255, 943.716 448.116 C 944.248 448.648, 947.712 449.555, 951.414 450.131 C 957.338 451.053, 958.376 450.970, 960.072 449.434 C 961.133 448.475, 962 446.598, 962 445.263 C 962 442.208, 955.379 434, 952.914 434 C 951.900 434, 949.493 435.384, 947.566 437.076 M 986.299 439.960 C 982.703 442.152, 979.715 447.093, 980.596 449.388 C 981.961 452.948, 995.061 454.087, 997.129 450.826 C 998.884 448.057, 998.014 443.861, 995.077 440.923 C 991.632 437.478, 990.561 437.361, 986.299 439.960 M 395.500 456.715 C 387.250 465.891, 376.563 477.559, 371.750 482.646 C 366.938 487.732, 363 492.504, 363 493.251 C 363 493.997, 364.600 496.158, 366.555 498.054 L 370.111 501.500 375.805 495.477 C 378.937 492.165, 390.163 480.346, 400.750 469.212 C 411.337 458.078, 420 448.336, 420 447.561 C 420 445.185, 414.956 439.999, 412.661 440.016 C 411.142 440.027, 406.046 444.986, 395.500 456.715 M 76.250 442.701 C 74.463 442.935, 73 443.514, 73 443.987 C 73 445.838, 78.288 451, 80.185 451 C 83.465 451, 88.154 447.088, 87.805 444.642 C 87.555 442.884, 86.784 442.480, 83.500 442.388 C 81.300 442.326, 78.037 442.467, 76.250 442.701 M 443.235 447.662 C 439.182 449.651, 380 509.714, 380 511.839 C 380 513.390, 399.771 533, 401.334 533 C 401.793 533, 405.618 529.485, 409.834 525.189 C 414.051 520.893, 427.786 507.375, 440.358 495.149 C 466.230 469.988, 464.381 473.480, 459.215 459.537 C 455.126 448.504, 449.715 444.483, 443.235 447.662 M 605 475.433 C 605 507.806, 603.844 504.385, 615.154 505.489 C 624.448 506.396, 625.337 507.268, 625.827 515.948 L 626.232 523.115 631.866 522.364 C 634.965 521.952, 648.617 521.605, 662.204 521.593 L 686.908 521.573 687.204 519.036 C 687.367 517.641, 687.376 500.863, 687.225 481.750 L 686.950 447 645.975 447 L 605 447 605 475.433 M 49 450.994 C 49 451.540, 47.087 453.377, 44.750 455.075 C 41.192 457.661, 39.890 458.067, 36.750 457.570 L 33 456.976 33 472.929 C 33 481.703, 33.337 489.061, 33.750 489.279 C 34.163 489.498, 39.900 489.373, 46.500 489.003 C 56.200 488.459, 57.087 488.298, 51.128 488.165 L 43.756 488 45.298 485.750 C 46.145 484.512, 47.213 483.575, 47.671 483.667 C 48.128 483.759, 55.027 484.154, 63.001 484.545 C 70.976 484.936, 77.950 485.607, 78.500 486.036 C 79.944 487.163, 91.319 490.014, 91.931 489.403 C 92.214 489.119, 92.459 483.100, 92.473 476.027 C 92.488 468.954, 92.725 462.957, 93 462.700 C 93.275 462.443, 94.509 462.615, 95.743 463.082 C 97.921 463.906, 97.971 464.237, 97.472 474.715 C 97.189 480.647, 96.746 488.787, 96.487 492.804 L 96.016 500.109 100.758 499.804 L 105.500 499.500 105.500 486.251 L 105.500 473.001 108.645 473.592 C 111.848 474.194, 116 472.711, 116 470.965 C 116 470.434, 113.897 470, 111.328 470 C 106.222 470, 99.067 467.237, 99.026 465.250 C 99.007 464.328, 101.753 464, 109.500 464 L 120 464 120 481.441 C 120 491.034, 120.412 499.136, 120.915 499.447 C 121.418 499.758, 124.568 500.299, 127.915 500.649 L 134 501.285 134 497.222 C 134 493.521, 133.733 493.100, 131 492.500 L 128 491.841 128 474.375 L 128 456.909 124.605 457.546 C 120.660 458.286, 117.440 456.927, 114.292 453.192 L 112.084 450.572 109.792 452.661 C 104.250 457.712, 98.313 458.380, 92.719 454.584 C 89.234 452.219, 89.122 452.208, 87.442 454.064 C 83.756 458.137, 74.764 457.357, 71.488 452.680 C 70.083 450.674, 69.989 450.704, 66.480 454.318 C 61.588 459.354, 58.276 459.276, 53 454 C 50.800 451.800, 49 450.447, 49 450.994 M 966.526 453.950 C 964.347 458.163, 964.633 460.713, 967.493 462.587 C 972.682 465.987, 979.129 461.099, 976.964 455.405 C 975.650 451.949, 974.363 451.035, 970.776 451.015 C 968.762 451.004, 967.653 451.770, 966.526 453.950 M 943.455 459.455 C 942.105 460.805, 941 462.378, 941 462.952 C 941 464.185, 949.686 476.170, 951.351 477.235 C 955.036 479.590, 960 475.408, 960 469.947 C 960 467.564, 949.590 457.043, 947.205 457.015 C 946.492 457.007, 944.805 458.105, 943.455 459.455 M 985.230 462.551 C 984.012 463.404, 982.519 465.029, 981.913 466.162 C 980.968 467.928, 981.352 468.776, 984.608 472.111 C 986.697 474.250, 989.183 476, 990.132 476 C 992.521 476, 999 469.684, 999 467.354 C 999 466.304, 998.299 464.445, 997.443 463.223 C 995.548 460.517, 988.674 460.139, 985.230 462.551 M 53.500 467.685 C 45.527 468.379, 44.999 468.696, 45.014 472.769 C 45.021 474.821, 45.301 477.523, 45.636 478.773 C 46.200 480.877, 46.340 480.917, 47.516 479.309 C 48.855 477.477, 57.953 476.216, 70.858 476.071 L 77.217 476 76.538 473.250 C 75.613 469.505, 74.842 468.892, 69.830 467.924 C 65.512 467.089, 61.079 467.024, 53.500 467.685 M 411.607 490.184 C 401.373 500.735, 393 509.647, 393 509.988 C 393 510.699, 399.353 517, 400.070 517 C 400.964 517, 441 476.765, 441 475.867 C 441 474.505, 434.786 471.008, 432.357 471.004 C 430.885 471.001, 424.389 477.005, 411.607 490.184 M 966.973 476.250 C 963.371 484.187, 964.887 487.242, 972.511 487.405 C 977.945 487.521, 981.615 484.569, 980.668 480.841 C 979.711 477.074, 974.454 472, 971.507 472 C 969.412 472, 968.525 472.831, 966.973 476.250 M 38.250 491.673 L 27 492.066 27 496.349 L 27 500.633 56.250 500.815 C 72.338 500.916, 87.638 500.731, 90.250 500.405 C 94.334 499.895, 95 499.497, 95 497.561 C 95 492.587, 93.053 492.121, 70.471 491.685 C 58.937 491.463, 44.438 491.458, 38.250 491.673 M 379.831 521.774 C 374.622 525.209, 361 539.086, 361 540.956 C 361 544.030, 365.827 549, 368.812 549 C 371.876 549, 381.867 539.160, 384.912 533.144 C 390.097 522.899, 387.372 516.800, 379.831 521.774 M 597.073 523.635 C 595.205 526.009, 595 527.624, 595 539.980 C 595 551.992, 595.226 553.895, 596.829 555.345 C 599.464 557.730, 603.293 557.382, 605.989 554.512 C 608.126 552.237, 608.364 550.934, 608.774 539.262 C 609.194 527.289, 609.087 526.330, 607.038 523.750 C 604.136 520.095, 599.895 520.046, 597.073 523.635 M 30.753 549.414 C 24.363 565.076, 24.369 566.935, 30.824 570.159 C 36.411 572.951, 43.982 569.471, 44.017 564.095 C 44.027 562.668, 44.914 558.125, 45.989 554 C 47.064 549.875, 48.226 544.025, 48.571 541 L 49.199 535.500 42.821 535.484 L 36.444 535.468 30.753 549.414 M 66.217 535.741 C 62.024 535.979, 60.008 536.497, 60.157 537.299 C 60.612 539.762, 58.811 558.636, 57.780 562.205 C 56.894 565.276, 57.009 566.364, 58.454 568.570 C 59.963 570.873, 60.678 571.152, 63.789 570.647 C 70.953 569.484, 72.355 565.994, 73.590 546.250 C 73.998 539.728, 73.917 535.081, 73.397 535.193 C 72.904 535.299, 69.673 535.546, 66.217 535.741 M 85.635 542 C 85.294 545.575, 85.011 551.283, 85.007 554.685 C 85.003 558.087, 84.576 561.986, 84.057 563.350 C 83.289 565.371, 83.557 566.309, 85.509 568.415 C 88.724 571.885, 92.164 571.692, 97.404 567.750 L 101.723 564.500 101.332 558 C 101.117 554.425, 100.687 547.770, 100.377 543.211 L 99.814 534.923 93.035 535.211 L 86.256 535.500 85.635 542 M 116.607 535.720 L 112.714 536.138 113.373 543.819 C 115.300 566.268, 121.866 575.922, 131.025 569.770 C 133.203 568.307, 134.612 566.482, 134.801 564.881 C 134.966 563.476, 132.667 556.290, 129.692 548.913 C 123.875 534.486, 124.282 534.897, 116.607 535.720 M 995.495 540.253 C 994.522 547.631, 991.960 552.950, 987.490 556.875 C 980.330 563.161, 974.457 564.206, 967.292 560.469 C 963.329 558.402, 962 558.644, 962 561.435 C 962 568.382, 957.293 572.237, 952.092 569.548 C 947.894 567.377, 943.243 561.564, 941.865 556.767 C 941.191 554.420, 940.565 552.382, 940.473 552.237 C 940.382 552.092, 938.579 552.696, 936.466 553.579 C 933.741 554.717, 931.153 555, 927.562 554.552 L 922.500 553.920 922.500 581.210 L 922.500 608.500 970.233 608.760 L 1017.966 609.019 1017.902 580.094 L 1017.839 551.169 1011.326 547.361 C 1007.745 545.266, 1003.437 541.965, 1001.753 540.026 C 996.816 534.339, 996.272 534.359, 995.495 540.253 M 624.666 553.736 C 624.970 557.456, 624.807 562.075, 624.305 564 C 623.464 567.222, 622.959 567.599, 617.946 568.741 C 614.951 569.423, 610.813 570.231, 608.750 570.536 L 605 571.091 605 595.545 L 605 620 646.451 620 L 687.903 620 687.506 583.750 L 687.109 547.500 655.611 547.236 L 624.114 546.972 624.666 553.736 M 44 571.711 C 40.857 574.855, 37.244 576.278, 34.289 575.536 L 32 574.962 32 592.497 L 32 610.032 63.067 609.879 L 94.135 609.725 93.907 596.762 L 93.679 583.800 107.972 583.650 L 122.266 583.500 121.563 601.604 L 120.860 619.709 125.570 620.354 C 133.892 621.495, 134 621.452, 134 617 C 134 613.425, 133.741 613, 131.557 613 L 129.114 613 129.462 594.500 L 129.811 576 126.440 576 C 124.088 576, 121.990 575.052, 119.496 572.862 L 115.922 569.724 113.663 571.847 C 112.420 573.014, 110.004 574.249, 108.294 574.591 C 105.778 575.094, 104.968 574.808, 104.048 573.090 L 102.912 570.967 98.618 573.484 C 93.106 576.714, 90.808 576.638, 83.609 572.987 C 80.369 571.344, 77.092 570, 76.326 570 C 75.560 570, 72.595 571.185, 69.736 572.634 C 64.893 575.088, 64.145 575.194, 58.755 574.192 C 55.574 573.600, 51.671 572.190, 50.082 571.058 C 46.672 568.630, 47.130 568.581, 44 571.711 M 976.430 575.322 C 976.116 576.140, 976.003 578.315, 976.180 580.155 C 976.423 582.698, 977.019 583.574, 978.664 583.808 C 981.487 584.210, 982.571 580.947, 980.812 577.340 C 979.265 574.165, 977.233 573.229, 976.430 575.322 M 992.411 577.498 C 991.635 580.591, 992.482 583, 994.346 583 C 996.644 583, 998.277 580.240, 997.593 577.513 C 996.741 574.122, 993.261 574.112, 992.411 577.498 M 1007 578.083 C 1007 581.909, 1009.356 581.566, 1009.816 577.673 C 1010.041 575.779, 1009.677 575, 1008.566 575 C 1007.483 575, 1007 575.951, 1007 578.083 M 959.317 578.617 C 958.318 581.220, 960.303 585.500, 962.510 585.500 C 964.695 585.500, 965.499 583.125, 964.570 579.421 C 963.867 576.620, 960.293 576.073, 959.317 578.617 M 942.611 579.572 C 941.742 581.837, 943.738 585, 946.035 585 C 947.614 585, 948 584.312, 948 581.500 C 948 578.475, 947.675 578, 945.607 578 C 944.291 578, 942.942 578.708, 942.611 579.572 M 931.667 579.667 C 930.125 581.208, 931.083 583.127, 933.240 582.820 C 936.071 582.416, 936.965 579, 934.240 579 C 933.191 579, 932.033 579.300, 931.667 579.667 M 43.250 584.622 C 42.387 584.998, 42 587.877, 42 593.929 L 42 602.692 60.423 603.273 C 70.555 603.592, 79.740 603.619, 80.834 603.333 C 82.612 602.868, 82.820 601.973, 82.789 594.927 C 82.764 589.105, 82.355 586.709, 81.226 585.771 C 80.141 584.869, 74.593 584.439, 62.099 584.288 C 52.419 584.172, 43.938 584.322, 43.250 584.622 M 98.756 603.868 C 99.032 612.466, 99.457 619.719, 99.699 619.987 C 99.942 620.255, 103.677 620.474, 108 620.474 C 112.323 620.474, 116.065 620.255, 116.317 619.987 C 116.568 619.719, 116.953 612.525, 117.172 604 L 117.571 588.500 107.912 588.368 L 98.253 588.236 98.756 603.868 M 47.560 594.618 C 47.198 596.058, 47.094 597.427, 47.328 597.661 C 48.028 598.361, 73.978 598.355, 74.678 597.655 C 75.034 597.299, 74.811 595.882, 74.184 594.504 C 73.055 592.028, 72.906 592, 60.630 592 L 48.217 592 47.560 594.618 M 932.392 595.422 C 931.671 597.300, 933.702 601, 935.453 601 C 937.892 601, 940 599.825, 940 598.464 C 940 594.967, 933.555 592.390, 932.392 595.422 M 952.709 594.624 C 950.281 597.053, 953.444 602.811, 956.551 601.619 C 958.995 600.681, 958.096 594.585, 955.459 594.208 C 954.336 594.047, 953.099 594.235, 952.709 594.624 M 970.081 595.402 C 967.995 597.915, 969.123 601.500, 972 601.500 C 974.189 601.500, 974.500 601.066, 974.500 598.014 C 974.500 594.160, 972.227 592.817, 970.081 595.402 M 985 596.878 C 985 600.155, 987.019 602.314, 989.275 601.448 C 993.046 600.001, 991.576 594, 987.450 594 C 985.418 594, 985 594.490, 985 596.878 M 1002.425 596.443 C 1001.622 599.640, 1002.558 601, 1005.559 601 C 1007.584 601, 1008 600.508, 1008 598.107 C 1008 595.465, 1006.550 594, 1003.937 594 C 1003.443 594, 1002.762 595.099, 1002.425 596.443 M 27 617 L 27 621 61.031 621 C 98.014 621, 97.010 621.160, 95.589 615.498 L 94.962 613 60.981 613 L 27 613 27 617 M 922 617.250 L 922 621 970 621 L 1018 621 1018 617.250 L 1018 613.500 970 613.500 L 922 613.500 922 617.250 M 255 671.250 L 255 684.500 528 684.246 L 801 683.993 801 675.636 C 801 671.040, 800.714 665.191, 800.364 662.640 L 799.728 658 527.364 658 L 255 658 255 671.250 M 960.898 660.284 C 956.832 663.018, 956.128 666.128, 958.939 668.939 C 962.405 672.405, 977.488 671.369, 981.466 667.391 C 984.765 664.092, 983.396 662.203, 976.142 660.042 C 967.399 657.438, 965.076 657.475, 960.898 660.284 M 62.750 659.706 L 59 660.121 59 672.732 C 59 682.726, 58.678 685.698, 57.448 687.058 C 56.023 688.632, 56.176 688.946, 59.316 690.886 C 63.769 693.638, 68.229 693.588, 71.412 690.750 C 73.872 688.557, 73.941 688.131, 74.128 674 L 74.319 659.500 70.410 659.396 C 68.259 659.338, 64.813 659.478, 62.750 659.706 M 86.874 659.459 C 86.622 659.712, 86.744 663.199, 87.146 667.209 C 87.548 671.219, 87.904 677.538, 87.938 681.250 L 88 688 81.500 688 C 74.443 688, 73.333 689.087, 77.950 691.474 C 81.862 693.497, 83.677 693.399, 86.727 691 C 90.089 688.356, 92.448 688.478, 96.411 691.500 C 100.737 694.800, 103.272 694.654, 106.411 690.923 C 109.845 686.842, 109.751 685, 106.107 685 C 104.391 685, 102.967 684.356, 102.607 683.417 C 102.273 682.547, 101.706 676.697, 101.347 670.417 L 100.695 659 94.014 659 C 90.340 659, 87.127 659.207, 86.874 659.459 M 110.293 662 C 110.539 663.375, 111.508 669.225, 112.447 675 C 113.385 680.775, 114.356 686.526, 114.603 687.781 C 115.146 690.530, 120.476 693.991, 124.173 693.996 C 127.776 694.001, 133 689.493, 133 686.378 C 133 685.033, 131.796 681.586, 130.325 678.717 C 128.854 675.848, 126.491 670.391, 125.073 666.591 L 122.494 659.681 116.170 659.591 C 109.953 659.502, 109.853 659.542, 110.293 662 M 35.941 663.250 C 35.225 665.038, 32.670 670.757, 30.264 675.961 C 27.387 682.182, 26.084 686.200, 26.459 687.693 C 27.164 690.501, 31.786 693, 36.276 693 C 42.622 693, 44.386 689.318, 47.053 670.500 C 47.598 666.650, 48.290 662.712, 48.590 661.750 C 49.067 660.218, 48.393 660, 43.189 660 C 37.414 660, 37.205 660.094, 35.941 663.250 M 994.452 671.646 C 991.543 674.786, 991.399 676.146, 993.752 678.275 C 996.968 681.186, 1000.753 682.105, 1002.466 680.391 C 1004.619 678.238, 1004.374 673.779, 1001.961 671.189 C 999.283 668.315, 997.435 668.427, 994.452 671.646 M 958.276 675.923 C 954.853 676.902, 949.916 678.802, 947.305 680.146 C 942.999 682.362, 942.307 683.234, 939.842 689.544 C 934.735 702.621, 936.505 717.997, 944.163 727.078 C 950.102 734.121, 958.524 738.245, 968.101 738.800 C 977.590 739.349, 983.486 737.562, 992.457 731.420 L 998.910 727.001 999.559 730.465 C 1000.780 736.973, 1004.923 737.429, 1006.479 731.227 C 1007.026 729.046, 1006.636 728.121, 1004.423 726.357 C 1001.719 724.201, 1001.705 724.127, 1003.070 719.339 C 1003.829 716.678, 1004.462 710.675, 1004.475 706 C 1004.498 698.163, 1004.217 696.954, 1000.880 690.500 C 997.871 684.682, 996.435 683.036, 992.380 680.755 C 980.752 674.212, 969.720 672.649, 958.276 675.923 M 957.129 685.623 C 950.494 688.930, 947.208 693.739, 945.743 702.290 C 944.416 710.039, 945.961 715.258, 951.498 721.726 C 958.243 729.607, 967.829 732.225, 978.204 729.019 C 986.479 726.463, 990.106 723.506, 992.882 717.053 C 996.304 709.099, 996.583 704.227, 993.968 698.147 C 988.270 684.903, 970.618 678.901, 957.129 685.623 M 48.069 691.164 C 46.627 695.976, 42.920 698.500, 37.294 698.500 L 33 698.500 33 713.250 L 33 728 37.757 728 L 42.514 728 42.154 716.646 L 41.793 705.291 45.022 704.646 C 46.797 704.291, 53.594 704, 60.125 704 L 72 704 72 716.500 L 72 729 74.407 729 C 76.730 729, 76.838 728.672, 77.527 719.478 C 77.920 714.241, 77.973 708.616, 77.646 706.978 L 77.050 704 88.775 704.014 C 106.333 704.034, 105.400 703.395, 104.697 714.927 C 104.375 720.218, 103.806 725.341, 103.434 726.312 C 102.821 727.908, 103.443 728.061, 109.878 727.899 C 116.251 727.738, 117 727.511, 117 725.737 C 117 724.236, 116.688 724.014, 115.715 724.822 C 114.705 725.660, 114.361 724.883, 114.108 721.194 C 113.328 709.833, 113.368 709.519, 115.648 709.194 C 117.526 708.926, 117.883 709.512, 118.477 713.830 C 118.851 716.549, 118.845 720.849, 118.465 723.387 L 117.773 728 122.386 728 L 127 728 127 713 L 127 698 122.687 698 C 119.219 698, 117.822 697.424, 115.554 695.056 L 112.734 692.113 109.790 695.056 C 107.282 697.564, 106.072 698, 101.614 698 C 98.562 698, 95.574 697.388, 94.441 696.532 C 92.303 694.915, 89.560 694.479, 90.435 695.895 C 91.291 697.280, 88.395 698, 81.968 698 C 77.445 698, 75.877 697.603, 75.132 696.271 C 74.214 694.632, 74.064 694.632, 72.253 696.271 C 70.734 697.645, 68.616 697.976, 61.921 697.882 C 57.290 697.817, 52.150 697.460, 50.500 697.090 C 47.618 696.444, 47.583 696.371, 49.597 695.255 C 51.041 694.455, 52.016 694.416, 52.728 695.128 C 53.440 695.840, 53.779 694.924, 53.817 692.185 C 53.864 688.796, 53.528 688.143, 51.546 687.764 C 49.574 687.387, 49.046 687.903, 48.069 691.164 M 959.355 689.992 C 953.859 692.210, 949.281 703.481, 951.106 710.303 C 952.137 714.158, 957.575 720.177, 961.877 722.224 C 966.672 724.505, 973.201 724.448, 977.835 722.084 C 982.253 719.830, 989.944 711.814, 990.128 709.272 C 990.985 697.399, 985.783 691.011, 975.250 691.004 C 972.362 691.002, 970 691.450, 970 692 C 970 693.687, 967.411 693.111, 965.500 691 C 963.533 688.826, 962.617 688.676, 959.355 689.992 M 956.667 701.667 C 955.330 703.003, 956.049 706.735, 957.981 708.483 C 959.603 709.950, 960.238 710.047, 961.481 709.016 C 963.543 707.305, 963.390 705.390, 961 703 C 958.902 700.902, 957.777 700.556, 956.667 701.667 M 979.667 704.667 C 978.302 706.031, 979.069 707.129, 981.172 706.820 C 983.920 706.415, 984.843 704, 982.250 704 C 981.196 704, 980.033 704.300, 979.667 704.667 M 92.500 710.160 C 87.844 712.720, 80 721.687, 80 724.450 C 80 724.753, 80.787 724.998, 81.750 724.996 C 86.185 724.987, 97 715.345, 97 711.400 C 97 708.804, 95.646 708.431, 92.500 710.160 M 60.273 714.944 C 53.624 719.614, 49 724.204, 49 726.135 C 49 726.611, 50.274 727, 51.831 727 C 54.037 727, 56.244 725.369, 61.831 719.607 C 68.455 712.775, 70.282 710, 68.157 710 C 67.693 710, 64.145 712.225, 60.273 714.944 M 967.163 710.878 C 966.427 711.345, 965.977 712.800, 966.163 714.113 C 966.413 715.883, 967.226 716.583, 969.310 716.822 C 972.795 717.222, 975 715.499, 975 712.378 C 975 710.359, 974.510 710.002, 971.750 710.015 C 969.962 710.024, 967.898 710.412, 967.163 710.878 M 26.205 735 L 26.500 738.500 79.845 738.500 C 109.185 738.500, 133.406 738.152, 133.670 737.726 C 133.933 737.300, 133.876 735.711, 133.543 734.194 L 132.937 731.438 79.424 731.469 L 25.911 731.500 26.205 735 M 675.180 776.682 C 669.067 779.694, 664.715 787.308, 663.499 797.116 L 662.803 802.732 658.152 802.254 C 655.593 801.991, 651.559 800.833, 649.188 799.680 C 643.838 797.079, 643.467 797.540, 642.590 807.867 C 641.604 819.488, 640.038 854.309, 640.021 865 L 640.006 874.500 682.253 874.557 L 724.500 874.614 724.256 866.057 C 724.046 858.672, 722.139 828.815, 720.373 805.250 C 720.074 801.263, 719.518 798, 719.137 798 C 718.756 798, 717.502 798.661, 716.349 799.468 C 715.197 800.275, 712.284 801.244, 709.877 801.620 C 707.470 801.996, 705.229 802.717, 704.897 803.223 C 704.566 803.728, 704.659 806.022, 705.104 808.321 C 706.364 814.830, 706.156 816.844, 704 819 C 701.435 821.565, 699.570 821.529, 697.089 818.865 C 695.064 816.691, 694.611 815.162, 693.503 806.750 L 692.877 802 681.907 802 C 669.730 802, 670.081 801.793, 669.643 809.227 C 669.324 814.631, 666.907 818.734, 663.544 819.578 C 660.311 820.390, 659 819.433, 659 816.262 C 659 813.073, 661.099 807, 662.201 807 C 662.640 807, 663 808.350, 663 810 C 663 811.650, 663.337 812.993, 663.750 812.985 C 666.066 812.937, 667.321 810.465, 668.513 803.601 C 669.988 795.108, 674.105 786.757, 678.397 783.553 C 680.868 781.708, 681.314 781.666, 683.762 783.040 C 688.303 785.589, 691.805 791.899, 694.562 802.500 C 697.033 812.002, 698.743 815, 701.691 815 C 703.604 815, 703.330 808.934, 700.971 799.095 C 696.327 779.724, 686.441 771.132, 675.180 776.682 M 821.263 776.967 C 813.420 780.527, 808.124 791.902, 807.733 806.027 C 807.537 813.111, 807.756 814.487, 809.129 814.767 C 812.043 815.363, 813.639 812.347, 814.816 804.024 C 819.051 774.078, 835.146 776.711, 842.174 808.500 C 843.371 813.915, 843.768 814.531, 846.250 814.816 C 848.525 815.078, 849 814.746, 849 812.894 C 849 808.597, 845.826 793.759, 843.990 789.477 C 841.375 783.375, 835.517 777.238, 831.152 776.025 C 826.383 774.701, 826.222 774.716, 821.263 776.967 M 575.500 777.896 L 569.500 778.500 568.181 784.051 L 566.862 789.603 537.681 791.826 C 521.631 793.049, 506.700 794.459, 504.500 794.960 C 502.300 795.461, 496.559 796.298, 491.741 796.820 C 486.924 797.342, 482.312 798.326, 481.491 799.007 C 479.569 800.603, 479.559 804, 481.477 804 C 484.016 804, 485.970 808.338, 489.554 821.924 C 491.461 829.152, 493.579 836.398, 494.260 838.028 L 495.500 840.991 529.144 841.323 L 562.788 841.656 564.860 833.578 C 565.999 829.135, 569.033 816.725, 571.602 806 C 574.170 795.275, 576.773 786.149, 577.386 785.720 C 577.999 785.292, 580.975 785.067, 584 785.220 L 589.500 785.500 589.500 781.500 C 589.500 777.517, 589.483 777.500, 585.500 777.396 C 583.300 777.338, 578.800 777.563, 575.500 777.896 M 967.292 779.655 C 962.262 782.092, 953.505 790.554, 951.567 794.851 C 949.845 798.669, 949.456 798.924, 944.368 799.560 C 940.450 800.049, 937.864 801.122, 934.849 803.507 C 929.856 807.458, 921 817.656, 921 819.454 C 921 820.164, 923.138 822.669, 925.750 825.020 C 928.362 827.371, 939.371 838.003, 950.213 848.647 C 961.055 859.291, 970.429 868, 971.043 868 C 971.658 868, 980.555 859.788, 990.815 849.750 C 1001.074 839.712, 1011.838 829.206, 1014.734 826.402 C 1017.630 823.598, 1020 820.863, 1020 820.324 C 1020 818.386, 1013.432 809.408, 1008.608 804.750 C 1004.126 800.423, 1003.259 800, 998.875 800 C 994.235 800, 993.923 799.813, 990.143 794.750 C 985.894 789.060, 981.227 784.467, 976.500 781.321 C 971.962 778.302, 970.597 778.055, 967.292 779.655 M 324.950 781.093 C 324.334 782.244, 324.091 784.226, 324.410 785.498 C 324.922 787.539, 325.838 787.908, 332.245 788.655 L 339.500 789.500 342.613 802.500 C 344.325 809.650, 346.955 820.900, 348.457 827.500 C 350.067 834.570, 351.845 840.014, 352.785 840.750 C 353.988 841.691, 361.562 841.971, 383.441 841.882 C 399.424 841.817, 413.850 841.479, 415.500 841.132 C 418.466 840.507, 418.546 840.316, 422.607 824 C 424.866 814.925, 427.729 804.866, 428.968 801.646 C 432.442 792.621, 432.203 792.510, 409.214 792.458 C 398.921 792.435, 380.988 792.322, 369.361 792.208 L 348.223 792 347.579 788.571 C 346.537 783.013, 344.263 781.179, 337 780.037 C 327.784 778.588, 326.217 778.725, 324.950 781.093 M 27.441 783.500 C 27.274 784.050, 26.960 796.471, 26.743 811.102 L 26.349 837.704 51.158 838.406 C 64.803 838.791, 79.777 838.798, 84.434 838.420 C 92.858 837.736, 92.903 837.718, 93.570 834.681 C 93.939 833.003, 94.074 820.701, 93.870 807.343 L 93.500 783.056 60.622 782.778 C 39.329 782.598, 27.637 782.852, 27.441 783.500 M 180 782.851 C 178.625 783.044, 177.169 783.719, 176.765 784.351 C 176.361 784.983, 176.024 797.053, 176.015 811.174 L 176 836.849 208.849 836.913 L 241.697 836.978 242.349 826.333 C 242.707 820.479, 243 808.347, 243 799.373 L 243 783.057 212.750 782.778 C 196.113 782.625, 181.375 782.658, 180 782.851 M 964.127 793.478 C 961.857 795.940, 960 798.554, 960 799.287 C 960 802.930, 966.145 807, 971.646 807 C 975.003 807, 976.464 806.382, 978.923 803.923 C 980.615 802.231, 982 800.019, 982 799.008 C 982 796.557, 973.307 789, 970.487 789 C 969.124 789, 966.647 790.744, 964.127 793.478 M 968.571 796.571 C 966.692 798.450, 966.570 800.170, 968.200 801.800 C 970.165 803.765, 972.966 803.169, 974.168 800.530 C 976.147 796.187, 971.935 793.208, 968.571 796.571 M 249 821.470 C 249 834.458, 249.388 844, 249.917 844 C 250.421 844, 250.983 843.646, 251.167 843.214 C 251.882 841.527, 257.730 838.150, 261.863 837.037 C 265.834 835.968, 266.676 836.096, 271.641 838.525 C 277.602 841.442, 279.556 843.772, 281.452 850.224 C 282.464 853.669, 283.209 854.560, 285.288 854.810 L 287.867 855.120 287.280 838.310 C 286.827 825.327, 286.330 820.953, 285.097 819.097 C 284.218 817.775, 281.475 812.825, 279 808.097 L 274.500 799.500 261.750 799.220 L 249 798.940 249 821.470 M 787.527 800.305 C 787.156 801.511, 783.947 865.932, 783.981 871.500 L 784 874.500 827 874.500 L 870 874.500 869.992 862.500 C 869.988 855.900, 869.319 841.500, 868.506 830.500 C 867.693 819.500, 867.022 807.913, 867.014 804.750 C 866.999 798.449, 866.259 797.864, 862.273 801 C 860.731 802.213, 858.216 803, 855.884 803 C 852.591 803, 851.946 803.368, 851.395 805.560 C 851.042 806.969, 850.990 809.888, 851.280 812.049 C 851.677 815.012, 851.321 816.593, 849.831 818.488 C 845.608 823.856, 840.514 819.883, 838.919 809.976 C 838.358 806.494, 837.670 803.276, 837.391 802.823 C 837.111 802.370, 832.869 802, 827.964 802 C 817.794 802, 816.799 802.713, 815.589 810.855 C 814.364 819.108, 810.848 823.039, 806.051 821.516 C 803.409 820.678, 802.677 817.825, 803.938 813.284 C 804.516 811.203, 804.991 808.134, 804.994 806.465 C 805 803.607, 804.694 803.367, 799.750 802.346 C 796.862 801.749, 793.014 800.777, 791.198 800.185 C 788.716 799.377, 787.804 799.406, 787.527 800.305 M 528.180 801.039 C 524.154 801.462, 520.644 802.023, 520.380 802.287 C 520.116 802.551, 520.206 805.069, 520.579 807.883 L 521.258 813 529.160 813 C 537.915 813, 537.543 813.313, 538.368 805.250 C 538.831 800.729, 538.669 800.019, 537.203 800.136 C 536.266 800.210, 532.206 800.617, 528.180 801.039 M 547.659 800.750 C 547.406 801.163, 546.876 804.107, 546.479 807.294 L 545.758 813.088 553.567 812.794 L 561.375 812.500 562.668 807.500 C 564.676 799.737, 564.907 800, 556.059 800 C 551.691 800, 547.911 800.337, 547.659 800.750 M 352 801.951 C 352 802.474, 352.487 805.174, 353.083 807.951 L 354.166 813 361.708 813 L 369.250 813 368.625 809.875 C 368.281 808.156, 368 805.456, 368 803.875 L 368 801 360 801 C 355.600 801, 352 801.428, 352 801.951 M 376.375 804.125 C 376.719 805.844, 377 808.563, 377 810.167 L 377 813.084 384.750 812.792 L 392.500 812.500 393.012 806.750 L 393.524 801 384.637 801 L 375.750 801 376.375 804.125 M 410.019 801.930 L 402.538 802.500 401.368 807.789 L 400.198 813.078 408.286 812.789 L 416.375 812.500 417.668 807.500 C 419.187 801.629, 419.250 800.940, 418.250 801.180 C 417.837 801.279, 414.134 801.617, 410.019 801.930 M 99 823.129 L 99 843.060 101.969 840.865 C 103.852 839.473, 106.904 838.507, 110.313 838.224 C 114.843 837.848, 116.338 838.188, 119.819 840.386 C 124.742 843.494, 127.133 846.867, 127.933 851.836 C 128.457 855.089, 128.886 855.535, 131.761 855.813 L 135 856.127 135 840.607 C 135 825.100, 134.998 825.084, 131.946 819.908 C 130.266 817.059, 127.552 812.075, 125.915 808.832 L 122.939 802.936 110.969 803.067 L 99 803.199 99 823.129 M 500.888 803.735 L 495.275 804.092 496.120 808.613 C 496.584 811.099, 497.192 813.502, 497.471 813.953 C 497.918 814.677, 510.955 814.205, 511.853 813.432 C 512.047 813.265, 511.892 810.849, 511.509 808.064 C 510.905 803.673, 510.526 803.025, 508.656 803.189 C 507.470 803.293, 503.974 803.539, 500.888 803.735 M 258 812.375 C 258 814.781, 258.281 818.156, 258.625 819.875 L 259.250 823 267.125 823 C 271.821 823, 275 822.587, 275 821.978 C 275 821.416, 273.678 818.041, 272.063 814.478 L 269.125 808 263.563 808 L 258 808 258 812.375 M 938.311 812.144 C 935.665 814.423, 933.397 816.785, 933.270 817.394 C 932.898 819.182, 969.257 856.003, 971.393 856.002 C 974.132 855.999, 1008 820.837, 1008 817.995 C 1008 816.419, 996.004 808, 993.759 808 C 989.127 808, 984.144 816.619, 985.982 821.452 C 987.021 824.185, 990.682 825.718, 992.301 824.099 C 994.380 822.020, 995.049 823.004, 993.541 825.921 C 991.637 829.602, 987.309 832.725, 983.504 833.162 C 981.157 833.433, 980.449 834.101, 979.962 836.505 C 979.627 838.157, 978.089 841.420, 976.544 843.755 C 973.338 848.599, 970.074 849.340, 967.240 845.866 C 966.283 844.693, 964.263 842.427, 962.750 840.832 C 959.601 837.510, 959.575 837.368, 961.500 834 C 962.286 832.625, 962.945 830.455, 962.965 829.177 C 963.018 825.641, 959.701 826.823, 958.543 830.752 C 957.398 834.641, 956.163 834.807, 952.646 831.548 C 949.199 828.353, 949.301 825.154, 953 820.500 C 956.543 816.041, 956.718 814.183, 953.927 810.635 C 952.254 808.507, 951.014 808, 947.488 808 C 943.809 808, 942.364 808.653, 938.311 812.144 M 110.651 810.734 C 107.255 811.086, 106.870 811.390, 107.387 813.316 C 107.709 814.517, 107.979 817.638, 107.986 820.250 L 108 825 116 825 C 125.333 825, 125.538 824.674, 121.250 816.647 C 118.383 811.281, 117.179 809.927, 115.500 810.183 C 114.950 810.267, 112.768 810.515, 110.651 810.734 M 943.667 812.667 C 942.288 814.045, 943.077 816.971, 945.122 818.065 C 946.873 819.002, 947.601 818.843, 949.290 817.155 C 950.996 815.448, 951.122 814.852, 950.045 813.555 C 948.739 811.980, 944.889 811.444, 943.667 812.667 M 988.667 812.667 C 987.133 814.200, 988.206 817.016, 991.222 819.377 C 993.549 821.198, 994.657 821.565, 995.207 820.699 C 996.376 818.861, 996.141 814.541, 994.800 813.200 C 993.506 811.906, 989.753 811.580, 988.667 812.667 M 972 820 C 972 820.550, 972.450 821, 973 821 C 973.550 821, 974 820.550, 974 820 C 974 819.450, 973.550 819, 973 819 C 972.450 819, 972 819.450, 972 820 M 362.644 821.742 L 356.789 822.106 357.492 826.803 C 357.878 829.386, 358.402 831.837, 358.656 832.250 C 358.910 832.663, 361.850 833, 365.190 833 L 371.262 833 370.642 829.250 C 370.301 827.188, 370.017 824.487, 370.011 823.250 C 370.005 822.013, 369.663 821.085, 369.250 821.189 C 368.837 821.293, 365.865 821.542, 362.644 821.742 M 378.667 821.667 C 377.685 822.648, 377.856 827.490, 378.975 830.435 C 379.786 832.568, 380.587 832.997, 383.725 832.985 C 389.080 832.963, 390.249 831.853, 390.989 826.087 L 391.641 821 385.487 821 C 382.103 821, 379.033 821.300, 378.667 821.667 M 523 824.918 C 523 831.363, 523.584 832, 529.490 832 C 535.283 832, 535.957 831.195, 535.986 824.250 L 536 821 529.500 821 L 523 821 523 824.918 M 550.500 821.491 C 549.950 821.675, 548.263 822.098, 546.750 822.432 C 544.252 822.983, 544 823.446, 544 827.500 C 544 832.540, 545.400 833.413, 552.529 832.820 C 556.585 832.482, 556.735 832.260, 558.311 824.250 C 558.942 821.041, 558.903 821.001, 555.225 821.079 C 553.176 821.122, 551.050 821.308, 550.500 821.491 M 402.250 822.723 C 399.077 823.117, 399 823.243, 399 828.063 L 399 833 404.941 833 C 408.209 833, 411.076 832.663, 411.314 832.250 C 411.551 831.837, 412.055 829.362, 412.434 826.750 L 413.123 822 409.311 822.160 C 407.215 822.248, 404.038 822.502, 402.250 822.723 M 506.198 822.799 C 500.822 823.054, 499.966 823.348, 500.374 824.799 C 500.636 825.735, 501.156 828.014, 501.530 829.864 C 502.182 833.095, 502.353 833.204, 505.854 832.625 C 507.860 832.293, 510.695 832.017, 512.155 832.011 C 514.694 832, 514.786 831.814, 514.279 827.750 C 513.986 825.413, 513.467 823.275, 513.124 823 C 512.781 822.725, 509.664 822.635, 506.198 822.799 M 679.500 836.841 C 677.850 837.849, 675.825 839.971, 675 841.556 C 674.175 843.142, 672.712 845.240, 671.750 846.220 C 669.614 848.393, 669.549 850.226, 671.476 853.953 C 673.077 857.049, 677.894 860.443, 682.219 861.523 C 687.637 862.875, 695 855.912, 695 849.436 C 695 845.520, 691.103 839.258, 687.250 836.985 C 683.156 834.569, 683.215 834.570, 679.500 836.841 M 197.542 841.729 C 189.601 843.746, 185.748 853.451, 189.635 861.643 C 192.848 868.414, 200.970 869.978, 207.680 865.117 C 214.671 860.053, 215.757 852.430, 210.396 846.059 C 208.333 843.607, 202.116 840.654, 200 841.122 C 199.725 841.182, 198.619 841.456, 197.542 841.729 M 258.241 843.995 C 254.597 846.216, 250.998 851.456, 251.026 854.500 C 251.036 855.600, 251.899 858.383, 252.943 860.684 C 257.080 869.794, 267.278 870.401, 274.381 861.959 C 276.372 859.593, 277 857.748, 277 854.268 C 277 850.220, 276.532 849.245, 272.958 845.845 C 268.222 841.340, 263.557 840.753, 258.241 843.995 M 42.881 844.503 C 39.903 846.122, 37 851.525, 37 855.451 C 37 861.511, 42.465 867, 48.500 867 C 54.377 867, 60.987 860.732, 60.996 855.151 C 61.002 851.380, 57.961 846.031, 54.915 844.456 C 51.383 842.630, 46.292 842.650, 42.881 844.503 M 104.143 845.533 C 102.488 846.926, 100.606 849.663, 99.962 851.615 C 97.632 858.674, 103.336 867, 110.503 867 C 117.057 867, 124.007 860.812, 123.982 855 C 123.940 845.539, 111.303 839.508, 104.143 845.533 M 176 848.500 L 176 854 179.455 854 C 182.660 854, 182.958 853.729, 183.586 850.250 C 183.959 848.188, 184.670 845.712, 185.167 844.750 C 185.969 843.195, 185.508 843, 181.035 843 L 176 843 176 848.500 M 217.489 846.970 C 218.320 849.325, 219 852.095, 219 853.126 C 219 854.857, 219.944 855, 231.417 855 L 243.834 855 244.938 849.854 C 245.545 847.024, 245.887 844.554, 245.699 844.366 C 245.511 844.177, 238.747 843.723, 230.668 843.356 L 215.979 842.688 217.489 846.970 M 26.654 844.751 C 26.398 845.164, 26.430 847.639, 26.725 850.251 C 27.188 854.360, 27.565 855, 29.523 855 C 31.815 855, 33 853.310, 33 850.041 C 33 849.053, 33.675 847.685, 34.500 847 C 35.325 846.315, 36 845.360, 36 844.878 C 36 843.811, 27.308 843.693, 26.654 844.751 M 63.526 845.750 C 63.933 846.712, 64.736 849.432, 65.311 851.792 L 66.356 856.085 80.209 855.844 L 94.061 855.603 94.613 853.052 C 94.917 851.648, 95.578 849.195, 96.083 847.601 C 96.587 846.006, 97 844.544, 97 844.351 C 97 844.158, 89.302 844, 79.893 844 C 63.985 844, 62.838 844.123, 63.526 845.750 M 348.845 852.042 C 345.697 855.352, 345 856.811, 345 860.092 C 345 862.296, 345.705 865.462, 346.566 867.128 C 348.426 870.725, 354.033 873.371, 357.964 872.508 C 361.635 871.702, 366.810 866.513, 367.817 862.629 L 368.629 859.500 383.216 859.318 L 397.803 859.135 398.441 862.538 C 398.792 864.410, 400.227 867.304, 401.629 868.971 C 406.859 875.187, 417.487 871.783, 420.102 863.055 C 423.314 852.332, 411.835 843.818, 402.500 850 C 399.816 851.778, 397.784 851.988, 383.210 851.993 C 368.886 851.999, 366.447 851.759, 363 850 C 356.785 846.830, 353.329 847.328, 348.845 852.042 M 550.503 850.282 C 547.645 852.397, 546.682 852.491, 529.799 852.299 C 516.067 852.144, 511.419 851.751, 509.096 850.549 C 503.040 847.418, 496.946 848.945, 493.100 854.558 C 488.472 861.313, 492.872 871.306, 501.050 872.612 C 505.859 873.380, 510.840 869.857, 512.873 864.250 L 514.413 860 529.707 860 C 543.054 860, 545 860.203, 545 861.599 C 545 865.029, 548.258 869.894, 551.624 871.492 C 558.047 874.540, 564.690 870.657, 566.873 862.580 C 568.205 857.654, 566.120 852.654, 561.580 849.886 C 557.553 847.430, 554.193 847.550, 550.503 850.282 M 197.750 850.080 C 195.687 851.282, 195.465 854.886, 197.299 857.395 C 199.318 860.156, 204.226 859.179, 205.414 855.780 C 207.066 851.055, 202.239 847.465, 197.750 850.080 M 45.035 851.935 C 43.473 854.853, 45.375 859, 48.275 859 C 51.164 859, 53 857.251, 53 854.500 C 53 850.107, 47.040 848.188, 45.035 851.935 M 108.571 851.571 C 106.484 853.659, 106.584 856.314, 108.829 858.345 C 111.112 860.411, 112.426 860.431, 114.429 858.429 C 116.601 856.256, 116.406 852.288, 114.066 851.035 C 111.438 849.629, 110.414 849.729, 108.571 851.571 M 259.990 852.019 C 258.539 854.731, 260.755 859.391, 263.696 859.811 C 266.920 860.272, 269.665 855.755, 268.163 852.459 C 266.714 849.278, 261.604 849.003, 259.990 852.019 M 353.667 856.667 C 352.562 857.772, 352.917 862.517, 354.200 863.800 C 356.060 865.660, 358.731 865.223, 360.443 862.777 C 362.382 860.009, 362.381 859.524, 360.429 857.571 C 358.834 855.977, 354.885 855.449, 353.667 856.667 M 406.667 856.667 C 405.609 857.724, 405.893 862.493, 407.084 863.684 C 409.757 866.357, 414.739 861.905, 413.488 857.962 C 412.874 856.029, 408.193 855.140, 406.667 856.667 M 499.392 858.574 C 499.037 859.989, 499.258 862.270, 499.883 863.642 C 501.360 866.885, 504.889 866.473, 506.933 862.818 C 508.303 860.370, 508.271 859.957, 506.562 858.068 C 503.869 855.092, 500.201 855.351, 499.392 858.574 M 552.964 858.067 C 552.101 859.680, 552.217 860.682, 553.492 862.628 C 555.745 866.066, 559.382 865.527, 559.822 861.690 C 560.415 856.516, 555.253 853.790, 552.964 858.067 M 819.350 917.928 C 815.520 920.263, 808 931.275, 808 934.547 C 808 934.796, 810.414 935, 813.364 935 L 818.728 935 820.448 930.498 C 822.211 925.881, 824.899 924.214, 829.500 924.887 C 832.403 925.311, 835.799 928.809, 836.528 932.126 C 837.056 934.533, 837.674 935.011, 840.329 935.067 C 842.073 935.105, 845 935.330, 846.834 935.568 C 848.667 935.807, 849.993 935.664, 849.781 935.251 C 849.568 934.838, 848.587 932.700, 847.599 930.500 C 843.152 920.593, 836.872 915.997, 827.790 916.004 C 824.338 916.006, 821.405 916.675, 819.350 917.928 M 371 918.821 C 357.562 922.346, 352.425 927.107, 349.229 939 C 347.535 945.299, 347.374 945.510, 343.995 945.832 C 339.980 946.214, 338 947.549, 338 949.872 C 338 951.350, 341.909 951.500, 380.500 951.500 C 409.742 951.500, 423 951.170, 423 950.441 C 423 947.794, 420.107 945.600, 416.617 945.600 C 413.484 945.600, 413 945.285, 413 943.243 C 413 932.523, 405.038 922.637, 393.547 919.087 C 385.479 916.595, 379.741 916.527, 371 918.821 M 487.536 918 C 487.386 918.275, 486.698 920.300, 486.008 922.500 C 485.318 924.700, 482.757 931.124, 480.317 936.776 C 475.542 947.841, 475.472 949.653, 479.694 952.974 C 483.723 956.143, 489.164 955.682, 493 951.847 C 494.997 949.849, 495.977 948.021, 495.673 946.858 C 495.409 945.849, 496.037 941.756, 497.068 937.762 C 498.993 930.308, 500.633 918.891, 499.907 918 C 499.683 917.725, 496.870 917.500, 493.655 917.500 C 490.440 917.500, 487.686 917.725, 487.536 918 M 513 918.122 C 513 919.627, 510.091 939.931, 509.483 942.672 C 509.174 944.066, 507.747 945.258, 505.500 946 C 501.161 947.432, 501.085 949.052, 505.195 952.510 C 509.286 955.953, 513.949 955.411, 518.543 950.959 C 522.315 947.302, 523.750 941.650, 524.688 926.750 L 525.302 917 519.151 917 C 515.272 917, 513 917.414, 513 918.122 M 538.158 932.116 L 538.500 947.231 542.340 950.549 C 548.005 955.445, 551.296 956.342, 554.459 953.854 C 555.863 952.749, 557.507 950.922, 558.111 949.793 C 559.040 948.056, 558.778 947.398, 556.397 945.499 C 553.683 943.335, 553.551 942.801, 552.602 930.129 L 551.619 917 544.718 917 L 537.817 917 538.158 932.116 M 563.004 920.250 C 563.006 922.038, 563.673 927.550, 564.486 932.500 C 565.300 937.450, 565.973 943.372, 565.983 945.661 C 566.025 955.835, 580.001 958.340, 584.966 949.064 C 585.671 947.747, 584.616 943.668, 580.911 933.392 C 578.157 925.751, 575.715 918.938, 575.483 918.250 C 575.209 917.435, 572.966 917, 569.031 917 L 563 917 563.004 920.250 M 667.500 919.892 C 656.204 923.780, 653.325 925.490, 646.384 932.430 C 634.138 944.677, 629.560 960.021, 633.522 975.540 C 636.139 985.791, 640.425 993.233, 647.552 999.900 C 655.825 1007.639, 661.383 1010.436, 672.861 1012.636 L 682.029 1014.393 693.169 1011.129 C 713.169 1005.268, 721.963 997.151, 727.896 979.078 C 731.647 967.653, 730.068 953.992, 723.495 940.998 C 718.340 930.807, 704.528 921.484, 690.185 918.515 C 680.281 916.464, 676.855 916.672, 667.500 919.892 M 25.465 924.285 C 25.118 925.666, 24.984 927.855, 25.167 929.148 C 25.474 931.317, 26.026 931.523, 32.250 931.796 C 35.962 931.958, 39.001 932.183, 39.003 932.296 C 39.033 934.555, 50.276 983.676, 50.908 984.308 C 51.854 985.254, 116.423 984.911, 117.379 983.955 C 117.679 983.655, 120.249 974.880, 123.090 964.455 C 125.931 954.030, 128.723 943.881, 129.294 941.903 C 131.366 934.721, 132.621 935.001, 98.281 934.995 C 81.352 934.992, 63.189 934.704, 57.920 934.355 L 48.340 933.721 47.167 929.334 C 45.778 924.140, 44.525 923.501, 33.759 922.492 C 26.157 921.780, 26.090 921.794, 25.465 924.285 M 205.863 922.727 L 177.225 923.030 176.626 925.265 C 176.297 926.494, 176.021 937.962, 176.014 950.750 L 176 974 208.531 974 C 238.513 974, 241.115 973.864, 241.730 972.261 C 242.097 971.304, 242.421 959.717, 242.449 946.511 L 242.500 922.500 238.500 922.462 C 236.300 922.441, 221.613 922.560, 205.863 922.727 M 669.321 925.883 C 665.923 926.772, 662.849 927.800, 662.489 928.166 C 661.207 929.471, 670.570 927.710, 674.500 925.908 C 679.297 923.708, 677.666 923.700, 669.321 925.883 M 916.986 929.536 C 915.057 934.611, 916.137 936, 922.017 936 C 928.837 936, 929.499 936.880, 931.917 949.166 C 935.379 966.753, 939.912 985.189, 941.136 986.664 C 942.019 987.728, 948.739 988, 974.103 988 L 1005.962 988 1006.581 985.250 C 1006.922 983.737, 1007.596 980.912, 1008.079 978.971 C 1008.563 977.030, 1009.669 971.630, 1010.539 966.971 C 1011.408 962.312, 1012.993 955.526, 1014.060 951.892 C 1015.127 948.258, 1016 944.607, 1016 943.778 C 1016 942.481, 1011.359 942.170, 982.602 941.539 C 964.234 941.136, 946.833 940.513, 943.935 940.153 C 938.669 939.500, 938.666 939.498, 937.583 935.008 C 936.284 929.619, 934.369 928.514, 924.736 927.590 C 918.122 926.956, 917.951 926.999, 916.986 929.536 M 362.942 929.472 C 359.912 931.119, 357.696 935.466, 358.536 938.113 C 359.432 940.937, 363.968 941.743, 365.765 939.397 C 367.957 936.535, 370.930 929.696, 370.373 928.794 C 369.619 927.574, 365.788 927.923, 362.942 929.472 M 382.200 929.200 C 379.580 931.820, 382.300 935.674, 385.952 934.515 C 388.542 933.693, 388.611 930.397, 386.066 929.035 C 383.655 927.745, 383.655 927.745, 382.200 929.200 M 678.837 932.459 C 677.939 934.428, 678.048 935.424, 679.381 937.459 C 681.351 940.466, 683.081 940.673, 685.345 938.171 C 687.496 935.794, 687.440 933.709, 685.171 931.655 C 682.567 929.298, 680.136 929.607, 678.837 932.459 M 392.459 932.067 C 392.096 932.653, 392.040 933.373, 392.333 933.667 C 393.050 934.383, 395 933.121, 395 931.941 C 395 930.663, 393.274 930.748, 392.459 932.067 M 255.250 937.743 L 248 938.088 248 958.490 L 248 978.893 253.602 975.947 C 261.079 972.013, 266.081 972.031, 272.361 976.014 C 277.418 979.221, 280 983.600, 280 988.968 C 280 991.766, 280.270 992, 283.500 992 L 287 992 287 976.518 L 287 961.035 283.046 954.575 C 280.871 951.022, 277.967 945.895, 276.592 943.182 C 273.779 937.631, 272.594 936.916, 266.668 937.199 C 264.376 937.308, 259.238 937.553, 255.250 937.743 M 804.466 940.348 C 804.249 940.982, 803.942 942.850, 803.785 944.500 L 803.500 947.500 820 947.827 C 829.075 948.007, 840.212 947.854, 844.750 947.487 L 853 946.820 853 942.866 L 853 938.912 828.931 939.054 C 811.778 939.156, 804.748 939.527, 804.466 940.348 M 657.050 942.440 C 656.393 943.231, 656.001 945.144, 656.178 946.690 C 656.583 950.227, 659.849 950.929, 662.464 948.040 C 664.001 946.342, 664.123 945.565, 663.180 943.496 C 661.920 940.730, 658.901 940.210, 657.050 942.440 M 702.750 941.748 C 700.064 942.360, 700.550 946.659, 703.526 948.609 C 705.888 950.156, 706.177 950.150, 707.993 948.506 C 709.477 947.164, 709.701 946.311, 708.945 944.897 C 707.706 942.583, 705.039 941.227, 702.750 941.748 M 51.358 944.750 C 51.629 945.712, 52.161 948.075, 52.541 950 C 53.597 955.358, 54.572 956, 61.657 956 L 68.069 956 67.454 950.750 C 66.509 942.688, 66.871 943, 58.464 943 C 51.706 943, 50.920 943.194, 51.358 944.750 M 75.512 947.750 C 76.937 956.612, 76.303 956, 84.050 956 C 91.738 956, 91.487 956.216, 92.487 948.750 L 93.123 944 84.016 944 L 74.909 944 75.512 947.750 M 101.554 945.250 C 101.343 945.938, 100.915 948.638, 100.604 951.250 L 100.038 956 107.812 956 L 115.585 956 116.725 951.750 C 117.352 949.413, 118.168 946.712, 118.539 945.750 C 119.150 944.166, 118.393 944, 110.576 944 C 104.536 944, 101.822 944.376, 101.554 945.250 M 258.638 945.711 C 256.994 946.134, 256.842 946.912, 257.341 952.345 C 257.652 955.730, 257.928 958.612, 257.953 958.750 C 258.062 959.330, 275 958.943, 275 958.361 C 275 958.009, 273.733 955.646, 272.185 953.111 C 270.636 950.575, 269.076 947.712, 268.716 946.750 C 268.067 945.012, 263.275 944.518, 258.638 945.711 M 523 948.411 C 523 950.814, 528.554 954.150, 531.375 953.442 C 533.883 952.813, 537.711 949.378, 536.857 948.524 C 536.602 948.268, 533.380 947.812, 529.696 947.509 C 524.254 947.061, 523 947.230, 523 948.411 M 942 950.360 C 942 951.109, 942.286 953.809, 942.636 956.360 L 943.272 961 950.136 961 C 957.786 961, 957.733 961.069, 956.358 952.750 L 955.738 949 948.869 949 C 943.743 949, 942 949.345, 942 950.360 M 967.248 949.704 C 964.051 950.120, 964.006 950.197, 964.582 954.313 C 965.532 961.115, 965.398 961, 972.410 961 C 975.969 961, 979.086 960.663, 979.336 960.250 C 979.586 959.837, 979.950 957.250, 980.145 954.500 L 980.500 949.500 975.500 949.390 C 972.750 949.330, 969.037 949.471, 967.248 949.704 M 989.488 951.250 C 989.241 951.938, 988.918 954.525, 988.769 957 L 988.500 961.500 995.428 961.500 C 1003.057 961.500, 1002.605 961.920, 1004.311 953.250 L 1004.950 950 997.444 950 C 992.345 950, 989.793 950.401, 989.488 951.250 M 801.236 982.750 L 801.500 1013.500 809.500 1013.484 C 813.900 1013.475, 826.388 1013.362, 837.250 1013.234 L 857 1013 857 982.500 L 857 952 828.986 952 L 800.971 952 801.236 982.750 M 495.147 956.314 C 492.427 959.035, 491.241 959.500, 487.024 959.500 L 482.087 959.500 481.793 976.251 L 481.500 993.003 511.750 993.001 C 528.388 993.001, 542.337 993.112, 542.750 993.250 C 543.163 993.388, 543.625 987.103, 543.777 979.285 L 544.054 965.070 546.592 966.035 C 547.988 966.566, 554.276 967, 560.565 967 L 572 967 572.221 975.750 C 572.343 980.563, 572.295 989.078, 572.115 994.673 L 571.787 1004.845 576.276 1005.519 C 583.446 1006.594, 584.456 1006.088, 584.807 1001.241 C 585.109 997.082, 585.054 997, 581.951 997 C 579.278 997, 578.919 996.728, 579.640 995.250 C 580.110 994.288, 580.628 985.850, 580.790 976.500 L 581.086 959.500 576.145 959.840 C 571.678 960.147, 570.833 959.844, 567.334 956.683 L 563.464 953.187 559.747 956.593 C 554.691 961.227, 548.989 961.362, 543.474 956.979 L 539.673 953.959 537.480 956.019 C 534.078 959.215, 528.795 959.655, 524.642 957.088 L 521.157 954.934 517.829 956.963 C 512.735 960.069, 506.312 959.706, 501.894 956.064 L 498.333 953.129 495.147 956.314 M 334.338 958.561 C 333.106 961.771, 335.202 964.457, 340.351 966.268 C 340.818 966.432, 341.493 971.052, 341.851 976.534 L 342.500 986.500 345.372 986.828 C 346.951 987.009, 348.700 986.700, 349.257 986.143 C 349.815 985.585, 350.357 980.712, 350.463 975.314 C 350.675 964.388, 351.560 960, 353.549 960 C 355.476 960, 355.969 961.221, 356.026 966.134 C 356.086 971.214, 355.544 975.825, 354.200 981.689 C 353.403 985.168, 353.506 985.980, 354.813 986.482 C 355.678 986.814, 367.814 986.770, 381.783 986.386 L 407.181 985.686 406.610 982.593 C 405.199 974.948, 404.748 961.274, 405.883 960.573 C 408.165 959.162, 410 966.468, 410 976.968 L 410 987 414.500 987 L 419 987 419 977.023 C 419 967.484, 419.110 966.974, 421.500 965.408 C 423.159 964.321, 424 962.849, 424 961.031 L 424 958.293 406.238 957.591 C 376.801 956.429, 334.939 956.994, 334.338 958.561 M 677.077 959.589 C 673.396 962.686, 673.040 966.509, 676.073 970.365 C 678.728 973.741, 681.441 973.706, 684.639 970.256 C 686.695 968.037, 687.075 966.839, 686.622 964.006 C 686.114 960.831, 683.021 957, 680.966 957 C 680.519 957, 678.769 958.165, 677.077 959.589 M 645.655 960.829 C 642.576 964.231, 644.079 970, 648.045 970 C 650.237 970, 653 966.836, 653 964.326 C 653 962.258, 650.141 959, 648.326 959 C 647.767 959, 646.565 959.823, 645.655 960.829 M 370.196 960.775 C 367.338 961.244, 366.444 963.531, 365.525 972.716 L 364.804 979.931 373.888 979.722 C 380.241 979.576, 383.122 979.124, 383.470 978.219 C 384.205 976.302, 381.666 975.722, 377.535 976.863 C 373.218 978.055, 372.720 977.369, 373.187 970.873 C 373.399 967.919, 373.983 966.455, 375 966.325 C 375.825 966.220, 378.300 965.824, 380.500 965.447 C 383.812 964.879, 384.156 964.622, 382.500 963.951 C 381.400 963.505, 379.200 963.109, 377.610 963.070 C 376.021 963.032, 374.221 962.414, 373.610 961.698 C 373 960.982, 371.463 960.566, 370.196 960.775 M 713.751 960.729 C 709.943 961.637, 710.498 969.064, 714.432 969.838 C 716.778 970.299, 720.154 967.046, 719.794 964.670 C 719.436 962.309, 716.140 960.159, 713.751 960.729 M 386.641 969.250 C 387.349 979.016, 387.340 979, 391.910 979 C 396.565 979, 397.853 977.601, 395.546 975.051 C 394.439 973.828, 393.971 971.772, 394.125 968.805 C 394.419 963.133, 393.648 962, 389.499 962 L 386.116 962 386.641 969.250 M 83.661 963.744 C 78.010 964.034, 76.925 964.362, 77.411 965.629 C 77.735 966.473, 78 969.152, 78 971.582 L 78 976 83.433 976 C 87.745 976, 88.970 975.639, 89.376 974.250 C 90.115 971.717, 91.293 962.965, 90.864 963.196 C 90.664 963.304, 87.423 963.550, 83.661 963.744 M 55.423 966.250 C 55.677 967.487, 56.156 970.188, 56.488 972.250 L 57.091 976 63.670 976 L 70.250 976 69.625 972.875 C 69.281 971.156, 69 968.456, 69 966.875 L 69 964 61.981 964 C 55.232 964, 54.980 964.087, 55.423 966.250 M 103.372 964.726 C 99.482 965.081, 99.210 965.316, 98.633 968.802 C 97.429 976.088, 97.359 976, 104.317 976 L 110.635 976 112.317 970.662 C 113.243 967.726, 114 965.026, 114 964.662 C 114 964, 111.136 964.017, 103.372 964.726 M 491.656 973.700 C 491.303 977.440, 491.011 981.962, 491.007 983.750 L 491 987 512.500 987 C 530.944 987, 534 986.787, 534 985.500 C 534 984.675, 533.042 983.042, 531.871 981.871 C 530.011 980.011, 529.819 979.001, 530.356 973.871 L 530.969 968 513.066 968 C 503.220 968, 494.519 967.753, 493.731 967.450 C 492.609 967.020, 492.159 968.373, 491.656 973.700 M 970.250 968.732 C 966.393 969.080, 966.001 969.364, 966.014 971.807 C 966.044 977.722, 966.860 978.724, 972.232 979.436 C 975.015 979.806, 977.649 979.746, 978.084 979.304 C 978.520 978.862, 979.187 976.138, 979.567 973.250 L 980.258 968 977.379 968.175 C 975.795 968.271, 972.587 968.522, 970.250 968.732 M 820 970.306 C 816.194 971.604, 815.261 974.250, 816.424 980.447 L 817.012 983.579 830.132 983.869 L 843.252 984.160 842.802 977.946 C 842.473 973.390, 841.854 971.367, 840.485 970.366 C 838.152 968.659, 824.942 968.621, 820 970.306 M 946.438 969.577 C 945.693 969.903, 945.687 971.379, 946.415 974.521 L 947.455 979 953.282 979 L 959.110 979 958.805 974.250 L 958.500 969.500 953 969.307 C 949.975 969.200, 947.022 969.322, 946.438 969.577 M 990.750 969.728 C 987.055 970.115, 987 970.185, 987 974.444 C 987 979.140, 988.132 979.975, 994.500 979.971 C 998.760 979.969, 999.818 978.990, 1000.558 974.364 C 1001.149 970.669, 1000.989 970.229, 998.855 969.658 C 997.560 969.311, 996.050 969.097, 995.500 969.182 C 994.950 969.267, 992.813 969.513, 990.750 969.728 M 548.930 972 C 548.595 974.395, 549.256 1002.504, 549.673 1003.589 C 550.085 1004.663, 552.427 1005, 559.490 1005 C 568.173 1005, 568.803 1004.861, 569.335 1002.826 C 570.163 999.660, 569.560 999.214, 563.412 998.446 C 556.703 997.608, 556 996.378, 556 985.483 L 556 978.095 562.250 977.798 C 567.867 977.530, 568.532 977.272, 568.820 975.246 C 568.996 974.006, 568.546 972.793, 567.820 972.551 C 565.884 971.905, 549.012 971.413, 548.930 972 M 496 977.973 C 496 980.959, 496.072 981, 501.250 980.995 C 504.137 980.992, 510.910 980.698, 516.299 980.341 C 525.507 979.731, 526.081 979.565, 525.799 977.596 C 525.513 975.591, 524.860 975.488, 510.750 975.223 L 496 974.947 496 977.973 M 195.304 979.956 C 190.836 982.680, 188.832 986.181, 188.753 991.397 C 188.577 1003.036, 200.994 1007.940, 209.387 999.546 C 215.218 993.715, 214.615 984.669, 208.102 980.287 C 203.944 977.489, 199.537 977.375, 195.304 979.956 M 256.500 979.861 C 251.241 983.109, 249.776 985.498, 249.694 990.961 C 249.508 1003.297, 262.810 1008.089, 271.778 998.916 C 275.428 995.182, 276.352 991.224, 274.725 986.288 C 272.341 979.056, 263.086 975.792, 256.500 979.861 M 657.046 980.445 C 656.386 981.240, 655.994 982.927, 656.173 984.195 C 656.639 987.484, 662.366 988.053, 664.013 984.975 C 666.166 980.953, 659.969 976.923, 657.046 980.445 M 700.621 980.521 C 698.512 982.631, 698.572 984.302, 700.829 986.345 C 703.531 988.791, 705.864 988.389, 706.628 985.345 C 707.836 980.534, 703.828 977.315, 700.621 980.521 M 180.750 980.735 L 176 981.110 176 986.055 C 176 990.968, 176.021 991, 179.250 990.998 C 182.326 990.996, 182.587 990.702, 184.119 985.498 C 185.009 982.474, 185.684 980.081, 185.619 980.180 C 185.553 980.279, 183.363 980.529, 180.750 980.735 M 217.025 982.565 C 217.561 983.976, 218 986.676, 218 988.565 L 218 992 230.455 992 L 242.909 992 243.512 988.250 C 243.844 986.188, 244.323 983.487, 244.577 982.250 L 245.038 980 230.544 980 L 216.050 980 217.025 982.565 M 646 984.837 C 646 987.090, 654.581 997.252, 658.293 999.395 C 662.448 1001.795, 676.815 1006.518, 677.593 1005.740 C 678.140 1005.193, 669.178 1001.278, 665.646 1000.521 C 661.562 999.646, 652.427 992.602, 649.354 987.959 C 646.712 983.967, 646 983.304, 646 984.837 M 198.517 986.626 C 196.531 988.612, 196.896 992.920, 199.172 994.345 C 201.765 995.968, 206 993.641, 206 990.593 C 206 987.919, 203.651 985, 201.500 985 C 200.754 985, 199.411 985.732, 198.517 986.626 M 259.200 987.200 C 258.540 987.860, 258 989.240, 258 990.266 C 258 995.956, 263.601 998.065, 266.592 993.500 C 268.109 991.184, 268.109 990.816, 266.592 988.500 C 264.837 985.821, 261.216 985.184, 259.200 987.200 M 710 991.774 C 704.105 997.622, 700.855 999.554, 691.500 1002.771 C 686.550 1004.474, 681.600 1006.108, 680.500 1006.402 C 679.400 1006.696, 680.750 1006.759, 683.500 1006.541 C 690.566 1005.982, 708.940 997.297, 711.925 993.106 C 715.181 988.533, 714.054 987.752, 710 991.774 M 816.001 995.381 L 816 1002.262 819.750 1001.642 C 821.813 1001.301, 827.663 1001.017, 832.750 1001.011 L 842 1001 842 994.750 L 842 988.500 829.002 988.500 L 816.003 988.500 816.001 995.381 M 677.932 992.126 C 677.093 993.694, 677.086 994.893, 677.904 996.689 C 678.795 998.644, 679.636 999.064, 682.156 998.813 C 686.478 998.383, 687.851 995.947, 685.658 992.601 C 683.537 989.364, 679.542 989.118, 677.932 992.126 M 103.748 992.753 C 98.447 994.118, 70.901 993.947, 57.862 992.468 C 52.638 991.875, 51.993 992.036, 49.077 994.664 C 43.809 999.412, 43.624 1007.893, 48.686 1012.585 C 54.591 1018.057, 65.879 1013.787, 67.435 1005.493 L 68.091 1002 83.077 1002 C 94.194 1002, 98.162 1002.323, 98.448 1003.250 C 98.660 1003.938, 99.090 1005.681, 99.404 1007.124 C 100.455 1011.955, 103.201 1014.217, 108.652 1014.741 C 113.210 1015.179, 114.013 1014.927, 117.307 1012.035 C 123.050 1006.993, 123.541 999.814, 118.490 994.762 C 115.339 991.611, 110.657 990.973, 103.748 992.753 M 345.872 992.085 C 343.326 992.478, 340.289 993.310, 339.122 993.935 C 336.875 995.138, 336.266 998.428, 338.083 999.551 C 338.678 999.919, 340.012 1002.196, 341.047 1004.610 C 342.806 1008.714, 343.181 1009, 346.790 1009 C 352.334 1009, 355.005 1005.883, 354.985 999.436 C 354.962 991.982, 353.610 990.892, 345.872 992.085 M 407.801 992.412 C 404.697 993.959, 403.412 998.051, 404.567 1002.712 C 406.348 1009.906, 414.151 1010.554, 417.569 1003.793 C 418.485 1001.982, 420.158 999.489, 421.288 998.254 C 422.417 997.019, 423.152 995.894, 422.921 995.754 C 416.674 991.983, 411.123 990.756, 407.801 992.412 M 361.816 993.657 C 360.890 993.912, 359.831 995.494, 359.462 997.171 C 358.281 1002.549, 359.335 1002.791, 381 1002.112 L 400.500 1001.500 400.803 997.866 C 401.098 994.341, 400.992 994.217, 397.303 993.746 C 392.400 993.120, 364.022 993.049, 361.816 993.657 M 941.893 994.497 C 938.236 996.485, 936 1000.304, 936 1004.565 C 936 1009.606, 941.306 1015, 946.265 1015 C 950.493 1015, 954.736 1011.876, 956.615 1007.380 L 957.987 1004.096 973.854 1003.798 L 989.722 1003.500 990.849 1007.718 C 992.151 1012.594, 995.697 1015, 1001.582 1015 C 1006.619 1015, 1012 1009.491, 1012 1004.333 C 1012 996.343, 1003.985 991.272, 996.452 994.495 C 993.473 995.770, 988.265 996.322, 975.297 996.737 C 959.244 997.250, 957.762 997.144, 953.112 995.144 C 947.334 992.658, 945.474 992.551, 941.893 994.497 M 477.949 997.424 C 477.921 997.466, 477.654 999.413, 477.356 1001.750 L 476.814 1006 505.260 1006 C 520.906 1006, 536.473 1005.711, 539.853 1005.358 C 545.652 1004.751, 545.999 1004.567, 545.985 1002.108 C 545.954 996.815, 546.799 996.935, 511.176 997.149 C 492.929 997.258, 477.977 997.382, 477.949 997.424 M 54.200 1000.200 C 51.688 1002.712, 53.558 1007, 57.165 1007 C 58.135 1007, 59.411 1006.100, 60 1005 C 62.161 1000.963, 57.387 997.013, 54.200 1000.200 M 107.565 1000.928 C 104.617 1004.185, 107.585 1008.655, 111.761 1007.250 C 113.992 1006.500, 115.175 1003.196, 114 1001 C 112.645 998.468, 109.820 998.436, 107.565 1000.928 M 344.235 999.708 C 340.861 1000.356, 342.423 1001.738, 345.946 1001.221 C 347.614 1000.976, 348.733 1000.376, 348.431 999.888 C 348.129 999.400, 347.571 999.061, 347.191 999.136 C 346.811 999.211, 345.481 999.468, 344.235 999.708 M 944 1002.811 C 944 1006.624, 946.361 1008.776, 948.551 1006.958 C 949.413 1006.242, 949.968 1004.524, 949.801 1003.086 C 949.570 1001.101, 948.861 1000.426, 946.750 1000.184 C 944.301 999.902, 944 1000.189, 944 1002.811 M 998.667 1000.667 C 997.724 1001.609, 997.867 1006.241, 998.888 1007.853 C 999.538 1008.878, 1000.233 1008.946, 1001.755 1008.131 C 1005.825 1005.953, 1005.711 1000, 1001.599 1000 C 1000.353 1000, 999.033 1000.300, 998.667 1000.667" stroke="none" fill="#000000" fill-rule="evenodd"/>
</svg>