<svg xmlns="http://www.w3.org/2000/svg" width="1024" height="1024" viewBox="0 0 1024 1024" version="1.1">
	<path d="M 297.279 145.041 C 269.799 147.296, 239.928 158.352, 216 175.124 C 204.853 182.937, 184.496 203.742, 177.470 214.500 C 162.394 237.586, 155.671 255.113, 152.022 280.844 C 151.392 285.284, 150.981 368.261, 150.899 507.672 C 150.769 726.762, 150.775 727.537, 152.858 738.500 C 161.830 785.715, 192.227 825.718, 235.578 847.361 C 251.696 855.409, 261.138 858.432, 282 862.226 L 294.500 864.500 513.500 864.431 L 732.500 864.362 744.396 862.147 C 758.915 859.442, 780.490 852.379, 792.179 846.503 C 817.692 833.678, 840.288 812.728, 855.303 787.977 C 865.412 771.315, 873.858 745.161, 875.965 724 C 876.799 715.625, 877.009 654.484, 876.736 499 C 876.326 265.002, 876.809 283.566, 870.531 260.519 C 863.462 234.573, 849.158 210.347, 829.100 190.351 C 816.584 177.874, 804.430 169.448, 786.934 161.120 C 766.403 151.347, 750.856 147.176, 727 145.037 C 713.573 143.834, 311.951 143.838, 297.279 145.041 M 299.500 190.449 C 271.374 195.610, 246.863 208.008, 229.885 225.661 C 213.293 242.913, 204.035 261.147, 199.453 285.601 C 197.945 293.648, 197.781 313.496, 197.647 504.475 L 197.500 714.500 199.756 724.688 C 208.085 762.297, 227.109 788.537, 258.221 805.333 C 268.710 810.996, 277.509 814.117, 292.394 817.455 L 304.208 820.105 512.976 820.028 C 745.166 819.943, 728.245 820.450, 750.351 812.919 C 772.140 805.497, 784.719 797.310, 800.162 780.500 C 814.322 765.086, 825.417 740.038, 828.952 715.500 C 830.294 706.183, 830.317 304.449, 828.976 294 C 828.446 289.875, 826.608 281.550, 824.891 275.500 C 819.389 256.112, 810.053 240.104, 796.250 226.394 C 778.547 208.811, 759.555 198.538, 732.130 191.713 L 723.500 189.565 515 189.365 C 348.830 189.205, 305.079 189.425, 299.500 190.449 M 604.302 227.994 C 595.471 229.239, 586.794 231.780, 576.964 236 C 566.144 240.645, 559.132 245.136, 551.056 252.592 C 535.790 266.686, 530.028 283.388, 530.008 313.605 C 529.985 346.998, 524.536 377.478, 515.486 394.843 C 512.764 400.067, 504.801 411.432, 495.409 423.500 C 486.848 434.500, 475.168 449.575, 469.454 457 C 463.739 464.425, 451.409 480.175, 442.053 492 C 432.698 503.825, 420.871 518.841, 415.772 525.368 C 410.672 531.896, 402.869 541.796, 398.430 547.368 C 393.992 552.941, 386.772 562.225, 382.387 568 C 378.002 573.775, 366.582 588.400, 357.009 600.500 C 341.787 619.740, 317.895 650.618, 301.334 672.456 C 283.746 695.647, 280.445 719.553, 291.730 742 C 296.500 751.489, 306.509 761.973, 314.112 765.445 C 320.831 768.514, 329.503 770.797, 337.420 771.582 C 345.350 772.368, 361.233 769.144, 369.513 765.068 C 377.666 761.055, 386.077 752.067, 393.441 739.500 C 396.663 734, 402.270 724.901, 405.900 719.280 C 409.530 713.659, 416.100 703.437, 420.500 696.563 C 424.900 689.690, 433.900 675.835, 440.500 665.774 C 447.100 655.714, 454.348 644.561, 456.606 640.991 C 458.865 637.421, 469.757 620.550, 480.812 603.500 C 491.867 586.450, 504.419 566.990, 508.706 560.255 C 520.825 541.214, 531.212 525.163, 544.785 504.500 C 567.969 469.205, 574.335 459.523, 578.925 452.569 C 585.360 442.820, 587.900 440.529, 604.430 429.564 C 629.735 412.777, 645.235 406.446, 680.500 398.494 C 687.100 397.005, 692.917 395.396, 693.426 394.917 C 693.985 394.393, 693.587 393.193, 692.426 391.896 C 690.278 389.497, 665.775 366.261, 632.528 335.096 C 620.444 323.768, 607.452 311.435, 603.657 307.688 L 596.757 300.877 597.238 295.871 C 597.910 288.881, 602.441 282.695, 626.764 255.565 L 647.029 232.961 644.267 231.911 C 634.535 228.211, 615.791 226.374, 604.302 227.994 M 328.316 232.888 C 325.761 234.082, 323.057 236.468, 321.370 239.017 L 318.608 243.191 312.398 242.526 C 304.655 241.697, 298.907 239.980, 292.601 236.615 C 281.286 230.576, 270.956 235.911, 268.529 249.047 C 267.324 255.567, 271.882 264.308, 278.200 267.595 C 282.157 269.654, 285.611 269.288, 294 265.921 C 300.336 263.378, 319.076 258.470, 319.459 259.252 C 319.526 259.389, 321.473 262.066, 323.786 265.202 C 328.249 271.251, 331.654 272.983, 339.113 272.994 C 342.219 272.999, 343.676 272.072, 349.513 266.377 L 356.301 259.755 362.543 260.394 C 368.938 261.049, 376.041 263.195, 384 266.875 C 392.272 270.700, 398.863 269.337, 404.802 262.572 C 408.268 258.626, 409.516 253.882, 408.696 247.773 C 408.057 243.010, 405.659 239.414, 401.010 236.250 C 396.412 233.120, 391.946 233.414, 382.507 237.468 C 378.066 239.376, 371.072 241.637, 366.966 242.494 C 362.860 243.351, 358.763 244.279, 357.862 244.558 C 356.733 244.906, 355.366 243.707, 353.462 240.699 C 349.516 234.460, 345.011 231.686, 338.157 231.274 C 334.075 231.028, 331.335 231.477, 328.316 232.888 M 329 283.468 L 328.999 292.500 338.530 292.500 L 348.061 292.500 347.780 283.660 L 347.500 274.821 338.250 274.629 L 329 274.437 329 283.468 M 689.497 283.759 C 669.467 306.279, 648.468 330.274, 648.225 330.918 C 648.074 331.320, 653.249 336.781, 659.725 343.054 C 666.201 349.327, 674.463 357.515, 678.085 361.248 L 684.669 368.035 689.253 358.740 C 694.656 347.784, 698.410 335.339, 700.487 321.500 C 703.137 303.847, 701.998 282.689, 698.141 277.926 C 696.530 275.936, 696.342 276.063, 689.497 283.759 M 310.312 298.748 L 294.124 299.049 293.812 310.027 L 293.500 321.004 339.519 321.002 L 385.538 321 385.519 310.118 L 385.500 299.236 379.603 298.618 C 374.012 298.032, 345.978 298.085, 310.312 298.748 M 233.241 350.250 L 233.500 399.500 247.167 399.500 C 254.684 399.500, 261.116 399.218, 261.460 398.874 C 261.803 398.530, 262.320 376.368, 262.607 349.624 L 263.129 301 248.055 301 L 232.981 301 233.241 350.250 M 430.228 347.724 C 430.136 373.451, 430.287 395.625, 430.564 397 L 431.067 399.500 444.533 399.646 L 458 399.791 458.221 357.896 C 458.342 334.853, 458.454 312.738, 458.471 308.750 L 458.500 301.500 444.448 301.224 L 430.396 300.948 430.228 347.724 M 277.250 325.706 L 275 326.139 275 352.570 L 275 379 286.500 379 C 292.825 379, 298 378.838, 298 378.641 C 298 378.443, 296.425 374.873, 294.500 370.706 C 288.659 358.065, 290.444 356.233, 298 367.113 C 308.888 382.791, 317.801 390.724, 327.794 393.629 C 334.922 395.701, 347.274 395.644, 354.633 393.504 C 362.218 391.299, 367.932 387.239, 373.309 380.233 C 379.131 372.647, 380.569 369.680, 382.034 362.233 C 383.279 355.904, 382.997 336.423, 381.629 334.208 C 381.097 333.349, 368.697 333.143, 333.543 333.410 L 286.173 333.769 285.600 331.635 C 285.285 330.461, 285.021 328.488, 285.014 327.250 C 285 324.935, 283.156 324.568, 277.250 325.706 M 393 329.400 C 393 330.751, 392.347 332.510, 391.548 333.309 C 390.345 334.512, 390.259 336.334, 391.047 343.947 C 392.112 354.239, 391.011 364.256, 387.916 372.440 C 386.888 375.158, 386.149 377.472, 386.274 377.584 C 386.398 377.696, 394.045 378.116, 403.267 378.516 L 420.034 379.244 419.767 353.372 L 419.500 327.500 406.250 327.221 L 393 326.942 393 329.400 M 576.549 340.220 C 574.400 341.991, 567.098 350.398, 560.321 358.902 C 546.864 375.791, 545.932 378.023, 550.455 382.545 C 553.656 385.747, 559 385.984, 559 382.925 C 559 379.110, 580.512 352.811, 586.987 348.711 C 590.937 346.211, 591.101 342.011, 587.365 339.073 C 583.709 336.197, 581.094 336.474, 576.549 340.220 M 594.400 353.866 C 586.773 359.471, 561.983 386.899, 562.032 389.679 C 562.081 392.524, 564.637 395.278, 569.773 398.022 C 572.370 399.410, 575.067 401.740, 575.767 403.200 C 577.288 406.372, 582.553 411, 584.642 411 C 587.471 411, 589.744 409.048, 597.108 400.294 C 601.174 395.460, 608.212 387.781, 612.750 383.229 C 618.714 377.246, 621 374.254, 621 372.431 C 621 369.464, 616.910 365, 614.191 365 C 612.153 365, 606.947 370.297, 595 384.527 C 582.394 399.542, 580.450 401.311, 577.997 399.999 C 574.287 398.013, 574.566 396.147, 579.539 389.704 C 590.396 375.638, 599.465 365.953, 603.701 363.903 C 606.065 362.758, 608 361.389, 608 360.861 C 608 357.509, 602.341 351, 599.428 351 C 598.807 351, 596.545 352.290, 594.400 353.866 M 636.992 444.408 C 636.423 444.977, 636 451.906, 636 460.665 C 636 474.186, 636.200 476.035, 637.750 476.849 C 638.820 477.411, 643.775 477.386, 650.500 476.784 C 661.611 475.790, 734.463 476.475, 740.775 477.633 L 744.049 478.234 743.775 461.367 L 743.500 444.500 732.500 445 C 716.581 445.724, 657.020 445.191, 646.742 444.233 C 641.167 443.713, 637.623 443.777, 636.992 444.408 M 660.776 506.169 L 660.500 521.337 648 521.520 C 641.125 521.621, 634.544 522.007, 633.376 522.379 C 630.455 523.308, 630.018 528.458, 630.088 561.176 L 630.145 587.852 638.096 588.176 C 642.469 588.354, 646.486 588.350, 647.023 588.167 C 647.560 587.983, 648 585.621, 648 582.917 C 648 580.212, 648.208 578, 648.463 578 C 649.988 578, 659.607 582.359, 660.225 583.330 C 660.635 583.974, 660.976 590.674, 660.985 598.220 L 661 611.940 689.370 612.220 L 717.739 612.500 718.236 598.669 C 718.788 583.300, 719.340 581.937, 725.125 581.661 C 728.241 581.512, 728.524 581.749, 728.813 584.750 L 729.127 588 740.063 588 L 751 588 751 554.895 L 751 521.790 735.086 522.145 L 719.171 522.500 718.458 506.750 L 717.744 491 689.398 491 L 661.052 491 660.776 506.169 M 583.349 510.224 C 583.697 513.126, 583.987 535.413, 583.991 559.750 L 584 604 598.965 604 C 612.251 604, 614.018 603.804, 614.715 602.250 C 615.147 601.288, 615.275 579.125, 615 553 L 614.500 505.500 598.608 505.224 L 582.715 504.948 583.349 510.224 M 768.300 506.502 L 766.155 508.005 766.638 553.752 C 766.903 578.914, 767.327 600.513, 767.579 601.750 C 768.031 603.964, 768.280 604, 783.173 604 L 798.307 604 797.654 591.843 C 797.294 585.157, 797 562.882, 797 542.343 L 797 505 783.723 505 C 773.529 505, 769.947 505.349, 768.300 506.502 M 735 625.182 C 732.288 625.762, 711.926 625.952, 683.755 625.660 C 648.866 625.298, 636.823 625.470, 636.272 626.337 C 634.910 628.484, 634.994 653.750, 636.367 654.889 C 637.227 655.603, 643.340 655.590, 656.057 654.847 C 667.226 654.195, 688.206 654.020, 709.250 654.404 L 744 655.039 744 644.644 C 744 638.927, 744.272 632.891, 744.604 631.229 C 745.060 628.951, 744.691 627.691, 743.104 626.104 C 741.947 624.947, 740.663 624.049, 740.250 624.110 C 739.837 624.170, 737.475 624.652, 735 625.182 M 661.603 668.730 C 661.476 668.857, 661.556 693.296, 661.781 723.040 L 662.189 777.118 690.291 777.030 C 705.746 776.981, 718.544 776.789, 718.730 776.603 C 718.916 776.417, 718.757 752.018, 718.376 722.383 L 717.684 668.500 689.759 668.500 C 674.400 668.500, 661.730 668.604, 661.603 668.730 M 335.763 684.452 C 331.195 686.205, 324.431 690.817, 320.804 694.650 C 313.663 702.197, 310.961 717.615, 314.934 728.143 C 317.380 734.624, 324.457 741.943, 331.268 745.035 C 336.551 747.433, 346.870 747.614, 353.635 745.427 C 361.302 742.949, 369.066 737.182, 371.714 732 C 380.385 715.025, 374.280 696.867, 356.372 686.372 C 350.908 683.170, 341.410 682.285, 335.763 684.452" stroke="none" fill="#000000" fill-rule="evenodd"/>
</svg>