<svg xmlns="http://www.w3.org/2000/svg" width="1024" height="1024" viewBox="0 0 1024 1024" version="1.1">
	<path d="M 218.744 123.588 C 206.113 126.827, 195.576 137.943, 190.935 152.928 C 188.905 159.480, 188.899 160.414, 188.976 465.160 C 189.047 740.840, 189.209 771.343, 190.636 776.160 C 193.842 786.981, 200.883 795.301, 212.081 801.500 L 217.500 804.500 533 804.500 L 848.500 804.500 853.436 802.224 C 861.943 798.301, 866.658 793.970, 872.730 784.500 L 878.500 775.500 879 468 C 879.537 137.572, 879.793 155.821, 874.468 144.162 C 870.102 134.602, 863.819 128.644, 854.086 124.835 L 848.500 122.648 535.744 122.574 C 313.367 122.521, 221.762 122.814, 218.744 123.588 M 236.402 164.250 C 233.749 166.037, 230.885 168.850, 230.039 170.500 C 228.662 173.184, 228.528 204.210, 228.768 464.678 L 229.036 755.857 234.216 760.928 L 239.395 766 532.632 766 C 731.051 766, 826.744 765.668, 828.574 764.972 C 831.944 763.691, 837.106 759.442, 838.715 756.626 C 839.659 754.972, 839.937 690.251, 839.965 465.200 C 839.995 217.409, 839.797 175.513, 838.582 173.200 C 836.946 170.083, 830.512 163.755, 827.316 162.118 C 825.720 161.301, 746.424 161, 533.179 161 L 241.226 161 236.402 164.250 M 641.788 189.978 C 638.096 191.576, 632.021 194.311, 628.288 196.056 C 618.846 200.470, 585.814 214.785, 546.500 231.502 C 536.988 235.546, 525.016 240.820, 483 259.470 C 472.825 263.987, 458.650 270.279, 451.500 273.452 C 444.350 276.625, 433.325 281.468, 427 284.215 C 420.675 286.962, 409.200 292.028, 401.500 295.472 C 393.800 298.916, 379.948 305.041, 370.718 309.083 L 353.936 316.431 354.583 319.465 C 355.660 324.512, 373.490 368.960, 382.416 388.850 C 387.020 399.108, 395.375 418.075, 400.985 431 C 412.685 457.962, 415.611 463.546, 417.327 462.190 C 417.972 461.679, 425.700 458.228, 434.500 454.520 C 443.300 450.812, 454.257 446.028, 458.849 443.889 C 463.441 441.750, 467.477 440, 467.817 440 C 468.158 440, 476.326 436.220, 485.968 431.600 C 495.611 426.981, 506.425 421.826, 510 420.145 C 513.575 418.464, 518.975 415.716, 522 414.039 C 527.813 410.816, 556.026 397.601, 567 392.962 C 570.575 391.451, 578.900 387.870, 585.500 385.005 C 592.100 382.140, 601.550 378.318, 606.500 376.513 C 616.792 372.759, 644.173 361.093, 664 352.015 C 677.009 346.059, 699.195 336.400, 713.250 330.573 C 716.962 329.034, 720 327.602, 720 327.392 C 720 327.181, 718.387 323.519, 716.416 319.254 C 709.750 304.834, 700.255 283.573, 693.974 269 C 690.537 261.025, 684.799 247.975, 681.223 240 C 677.647 232.025, 671.631 218.318, 667.854 209.541 C 657.730 186.013, 655.248 184.151, 641.788 189.978 M 277.275 198.961 C 272.416 200.130, 269.196 202.628, 265.863 207.814 C 263.221 211.926, 262.900 213.202, 263.239 218.235 C 264.347 234.668, 284.182 240.792, 297.182 228.714 C 309.043 217.693, 293.843 194.975, 277.275 198.961 M 778.500 199.389 C 767.394 204.241, 762.826 215.864, 768.266 225.425 C 771.716 231.487, 777.720 234.236, 786.590 233.814 C 795.138 233.408, 800.834 230.206, 803.980 224.039 C 806.467 219.165, 806.503 215.692, 804.121 210.500 C 799.361 200.124, 788.048 195.218, 778.500 199.389 M 333 306.210 C 331.075 306.694, 324.550 308.641, 318.500 310.537 C 312.450 312.434, 301.200 315.524, 293.500 317.403 C 285.800 319.283, 278.155 321.341, 276.512 321.976 L 273.523 323.132 276.012 325.143 C 283.132 330.897, 299.107 336.543, 318 339.982 C 324.325 341.133, 334.155 342.991, 339.845 344.109 C 345.535 345.228, 350.400 345.933, 350.657 345.676 C 350.914 345.420, 349.109 341.450, 346.646 336.855 C 341.670 327.571, 338.008 316.701, 337.985 311.145 C 337.963 305.977, 337.147 305.169, 333 306.210 M 703.303 342.807 C 697.640 345.741, 697.587 345.805, 698.988 348 C 699.776 349.233, 700.794 348.654, 704.710 344.750 C 707.330 342.137, 709.255 340.026, 708.987 340.057 C 708.719 340.089, 706.161 341.326, 703.303 342.807 M 346 358.232 C 326.649 367.299, 323 369.139, 323 369.833 C 323 371.129, 327.229 381.294, 337.006 403.500 C 342.092 415.050, 349.348 432.375, 353.130 442 C 363.259 467.773, 363.584 468.519, 364.582 468.285 C 365.087 468.167, 370.675 465.824, 377 463.078 C 383.325 460.333, 390.586 457.545, 393.136 456.883 L 397.772 455.680 394.864 450.090 C 389.766 440.290, 377.139 412.627, 363.384 381.127 C 353.800 359.179, 352.245 355.975, 351.224 356.062 C 350.826 356.096, 348.475 357.073, 346 358.232 M 302.500 373.826 C 300.850 374.827, 294.100 377.961, 287.500 380.793 C 280.618 383.745, 275.362 386.592, 275.177 387.468 C 274.999 388.308, 277.082 394.059, 279.805 400.248 C 286.298 415.003, 292.920 430.625, 294.538 435 C 295.249 436.925, 297.926 443.450, 300.485 449.500 C 303.045 455.550, 308.071 467.700, 311.655 476.500 C 315.238 485.300, 318.401 493.051, 318.682 493.724 C 319.077 494.668, 319.499 494.644, 320.525 493.618 C 321.257 492.885, 329.089 489.442, 337.928 485.966 C 346.768 482.490, 354 479.238, 354 478.738 C 354 478.239, 351.328 472.356, 348.062 465.665 C 342.027 453.300, 336.205 440.211, 323.971 411.500 C 311.388 381.971, 307.148 372.549, 306.322 372.278 C 305.870 372.129, 304.150 372.826, 302.500 373.826 M 756.483 499.601 C 756.887 568.295, 757.281 624.525, 757.359 624.556 C 757.436 624.587, 767.962 624.427, 780.750 624.199 L 804 623.786 804 500.503 L 804 377.220 782.250 376.724 C 770.288 376.452, 759.431 375.885, 758.124 375.465 L 755.749 374.701 756.483 499.601 M 588 396.719 C 580.575 400.279, 570 404.989, 564.500 407.185 C 553.300 411.657, 552.123 412.165, 539.578 417.931 L 530.656 422.031 533.578 425.083 C 535.185 426.762, 539.738 429.736, 543.695 431.693 C 550.648 435.130, 551.193 435.235, 559.882 434.820 C 567.946 434.434, 569.668 433.983, 576.568 430.445 C 587.560 424.809, 592.305 420.272, 596.538 411.352 C 599.891 404.287, 602.503 394.484, 601.812 391.563 C 601.595 390.648, 597.379 392.222, 588 396.719 M 516.750 428.621 C 515.237 429.415, 514 430.297, 514 430.582 C 514 430.866, 514.739 430.686, 515.642 430.180 C 518.148 428.778, 521.100 429.896, 525.500 433.915 C 530.023 438.046, 535.284 442.239, 533 439.892 C 532.175 439.045, 528.800 435.837, 525.500 432.765 C 519.647 427.315, 519.433 427.214, 516.750 428.621 M 587.195 437.675 C 578.787 442.739, 567.349 445.972, 557.790 445.987 L 549.080 446 553.760 454.977 C 556.334 459.915, 558.929 464.142, 559.527 464.372 C 560.125 464.601, 563.170 463.071, 566.294 460.972 C 574.849 455.220, 582.244 452.687, 590.769 452.586 L 598.039 452.500 597.394 449.500 C 596.025 443.133, 593.421 435.642, 592.483 435.369 C 591.942 435.212, 589.563 436.249, 587.195 437.675 M 537.675 443.068 C 539.421 444.186, 542.571 445.296, 544.675 445.533 C 548.085 445.918, 548.174 445.877, 545.500 445.150 C 543.850 444.701, 541.060 443.584, 539.300 442.667 C 534.861 440.355, 533.835 440.608, 537.675 443.068 M 588.326 464.034 C 582.500 465.200, 578.479 467.472, 572.743 472.837 C 565.188 479.904, 562.518 485.793, 562.603 495.197 C 562.663 501.757, 563.148 503.858, 565.882 509.412 C 571.409 520.639, 582.295 527.485, 594.464 527.388 C 604.058 527.312, 609.095 525.677, 614.726 520.811 C 621.449 515.003, 623.786 511.499, 626.176 503.640 C 631.013 487.731, 624.470 473.101, 609.546 466.456 C 603.766 463.882, 594.417 462.815, 588.326 464.034 M 416.731 472.406 C 407.761 475.060, 406.274 476.004, 411.083 475.990 C 414.253 475.981, 425 471.777, 425 470.546 C 425 470.246, 424.887 470.024, 424.750 470.054 C 424.613 470.083, 421.004 471.142, 416.731 472.406 M 639.389 483.250 C 639.728 485.038, 640.288 490.370, 640.633 495.100 C 641.275 503.895, 639.841 511.196, 636.393 516.706 C 635.081 518.801, 635.191 518.945, 638.605 519.586 C 640.581 519.956, 647.216 519.979, 653.349 519.636 C 659.482 519.293, 682.388 518.921, 704.250 518.809 L 744 518.606 744 505.450 C 744 498.214, 743.711 489.527, 743.358 486.147 L 742.715 480 690.744 480 L 638.773 480 639.389 483.250 M 589.407 484.572 C 585.792 486.355, 581.998 492.537, 582.004 496.636 C 582.012 502.915, 589.771 509.911, 596.800 509.978 C 603.145 510.039, 609 503.962, 609 497.315 C 609 491.375, 606.761 487.429, 602.019 485.010 C 597.339 482.622, 593.620 482.493, 589.407 484.572 M 782.500 687.481 C 781.950 687.670, 780.271 688.096, 778.768 688.427 C 772.265 689.860, 765.044 699.632, 765.044 707 C 765.044 714.312, 770.776 722.338, 778.218 725.447 C 787.760 729.433, 796.763 725.229, 803.715 713.542 C 804.383 712.419, 804.945 709.413, 804.965 706.863 C 805.013 700.530, 800.247 693.343, 794 690.329 C 789.428 688.124, 784.313 686.857, 782.500 687.481 M 274.500 689.659 C 266.779 693.722, 262.857 699.675, 262.787 707.434 C 262.734 713.319, 263.866 716.036, 268.370 720.835 C 272.624 725.368, 276.069 727, 281.385 727 C 287.282 727, 290.101 725.837, 293.944 721.818 C 299.279 716.240, 301.281 711.404, 300.776 705.316 C 299.748 692.919, 285.002 684.132, 274.500 689.659 M 510.450 898.922 C 509.928 899.429, 507.925 900.288, 506 900.832 C 503.768 901.462, 503.225 901.878, 504.500 901.980 L 506.500 902.141 504.500 902.944 C 502.551 903.726, 510.830 904.844, 518.500 904.834 C 520.150 904.832, 526.225 904.835, 532 904.841 C 537.775 904.847, 543.850 904.728, 545.500 904.578 C 551.303 904.049, 559.905 901.691, 560.360 900.505 C 561.119 898.525, 512.450 896.981, 510.450 898.922" stroke="none" fill="#000000" fill-rule="evenodd"/>
</svg>