<svg xmlns="http://www.w3.org/2000/svg" width="1024" height="1024" viewBox="0 0 1024 1024" version="1.1">
	<path d="M 293.212 81.586 C 275.160 84.632, 249.135 94.871, 232.756 105.372 C 199.660 126.589, 174.004 165.059, 165.645 206 C 161.954 224.077, 161.908 226.943, 162.239 418.500 L 162.564 606.500 165.253 618.573 C 169.923 639.534, 176.314 656.154, 184.802 669.409 C 190.066 677.630, 201.029 690.708, 209.657 699.058 C 229.818 718.571, 247.051 728.514, 274.502 736.474 C 295.363 742.523, 282.014 742.222, 507.966 741.743 L 714.500 741.306 725.500 739.080 C 749.014 734.321, 774.850 724.160, 791.480 713.129 C 802.415 705.876, 821.494 686.313, 829.367 674.281 C 840.196 657.730, 849.053 636.107, 853.649 615 C 855.414 606.893, 855.500 597.614, 855.500 414.500 L 855.500 222.500 853.215 211 C 849.886 194.252, 845.798 182.304, 837.988 166.500 C 829.667 149.663, 821.445 138.393, 806.538 123.393 C 786.413 103.142, 764.365 91.235, 732.073 83.177 L 721.500 80.539 511.500 80.363 C 335.632 80.216, 300.153 80.415, 293.212 81.586 M 293.500 99.111 C 291.300 99.621, 285.225 101.446, 280 103.168 C 254.554 111.550, 238.861 121.060, 220.944 138.957 C 201.489 158.389, 189.843 179.207, 182.880 207 L 180.500 216.500 180.500 411.500 C 180.500 598.529, 180.577 606.868, 182.381 615.500 C 188.408 644.341, 199.454 665.114, 219.478 685.264 C 242.517 708.449, 269.492 721.384, 302.231 724.946 C 311.858 725.993, 540.990 726.395, 662 725.577 L 716.500 725.208 728 722.180 C 747.961 716.923, 766.439 709.122, 779.569 700.409 C 811.087 679.495, 834.755 638.855, 838.120 599.871 C 838.764 592.412, 838.987 523.038, 838.741 406.371 C 838.320 206.834, 838.728 220.298, 832.436 198.238 C 829.405 187.610, 820.736 169.767, 812.667 157.549 C 795.140 131.006, 763.471 109.981, 727.139 100.764 L 718.500 98.573 508 98.379 C 381.544 98.262, 295.903 98.555, 293.500 99.111 M 285.592 149.775 C 283.612 153.776, 280.138 160.076, 277.871 163.775 C 273.694 170.592, 261.637 191.357, 256.547 200.500 C 245.992 219.460, 232.698 242.515, 218.819 265.931 C 215.138 272.141, 215.064 272.448, 216.651 274.871 C 220.428 280.635, 236.864 308.027, 240.430 314.500 C 246.122 324.831, 267.990 362.352, 278.022 379 C 282.828 386.975, 287.723 395.413, 288.900 397.750 L 291.041 402 359.770 402.005 C 397.572 402.007, 433.450 402.278, 439.500 402.606 L 450.500 403.204 452.957 397.412 C 454.309 394.227, 461.171 381.555, 468.207 369.252 C 475.243 356.949, 481 346.649, 481 346.362 C 481 346.076, 484.747 339.465, 489.326 331.671 C 493.906 323.877, 499.600 313.900, 501.980 309.500 C 505.387 303.202, 517.086 283.982, 524.212 272.976 C 524.937 271.856, 524.401 270.133, 522.190 266.476 C 517.988 259.527, 490.505 213.368, 480.525 196.500 C 465.885 171.753, 459.049 159.695, 454.728 151 L 450.504 142.500 369.848 142.500 L 289.192 142.500 285.592 149.775 M 772.750 154.741 L 747 155.034 747 200.929 L 747 246.825 755.250 250.014 L 763.500 253.204 781.325 252.727 C 791.128 252.465, 799.568 251.832, 800.078 251.322 C 800.619 250.781, 801.075 230.380, 801.171 202.447 C 801.310 161.670, 801.123 154.496, 799.917 154.474 C 799.138 154.460, 786.913 154.580, 772.750 154.741 M 568.114 204.250 L 568.500 253.500 589 253.201 C 607.770 252.927, 610.154 252.688, 617.250 250.369 L 625 247.836 625 201.418 L 625 155 596.364 155 L 567.728 155 568.114 204.250 M 641 200.300 L 641 245.600 648.871 249.437 L 656.742 253.275 684.121 253.282 C 714.090 253.290, 710.680 253.788, 728.250 246.844 L 731 245.757 731 200.379 L 731 155 686 155 L 641 155 641 200.300 M 355.908 183.533 C 339.330 186.117, 326.361 191.918, 314.035 202.264 C 303.658 210.975, 295.926 220.552, 290.141 231.861 C 276.469 258.587, 275.439 282.070, 286.868 306.460 C 299.041 332.436, 317.767 348.551, 347.300 358.465 C 364.390 364.202, 379.350 363.934, 398.515 357.549 C 410.012 353.719, 417.758 349.424, 427.013 341.748 C 441.094 330.070, 451.191 315.394, 457.111 298 C 459.898 289.813, 460.405 286.772, 460.779 276 C 461.162 264.977, 460.898 262.182, 458.543 252.347 C 450.017 216.743, 421.391 189.787, 385.452 183.520 C 375.107 181.716, 367.546 181.719, 355.908 183.533 M 351.538 199.100 C 330.473 204.273, 310.960 220.925, 301.279 241.991 C 295.561 254.434, 293.624 263.785, 294.340 275.500 C 295.041 286.966, 296.584 293.378, 300.826 302.441 C 309.092 320.106, 323.987 333.853, 343.033 341.396 C 375.136 354.110, 410.389 344.539, 430.632 317.613 C 436.196 310.212, 442.215 298.485, 444.581 290.434 C 447.032 282.095, 446.790 265.102, 444.072 254.650 C 437.184 228.164, 414.866 205.487, 389.234 198.932 C 379.086 196.337, 362.490 196.411, 351.538 199.100 M 353.215 215.891 C 336.358 220.841, 325.204 230.065, 317.514 245.415 C 315.011 250.412, 312.521 256.924, 311.981 259.886 C 309.556 273.201, 312.146 289.658, 318.268 299.835 C 329.862 319.107, 353.376 331.228, 376.292 329.746 C 391.015 328.793, 403.606 322.462, 415.182 310.190 C 425.686 299.056, 430 287.968, 430 272.111 C 430 245.880, 415.282 225.645, 389.500 216.431 C 381.988 213.746, 361.553 213.442, 353.215 215.891 M 613.004 266.885 C 613.006 267.223, 613.938 269.027, 615.076 270.894 C 616.214 272.760, 620.488 280.489, 624.573 288.070 C 631.272 300.502, 632 302.399, 632 307.426 C 632 310.492, 632.337 313, 632.750 312.999 C 633.163 312.999, 635.755 312.142, 638.512 311.094 C 641.269 310.046, 645.994 309.034, 649.012 308.844 C 653.920 308.536, 654.500 308.708, 654.500 310.468 C 654.500 312.778, 649.675 315.750, 639.662 319.608 C 634.585 321.564, 632.332 323.048, 630.915 325.371 C 628.405 329.488, 628.493 334.085, 631.145 337.458 C 633.796 340.827, 634.646 340.742, 653.500 335.211 C 672.370 329.675, 738.862 313.041, 745.047 312.308 L 750 311.721 750 303.915 C 750 295.539, 750.056 295.395, 761.354 275 C 763.334 271.425, 764.965 268.050, 764.977 267.500 C 764.992 266.843, 738.940 266.461, 689 266.385 C 647.200 266.322, 613.002 266.547, 613.004 266.885 M 738.500 324.997 C 727.036 327.434, 690.268 336.717, 648.821 347.639 C 633.379 351.707, 630.238 353.803, 629.320 360.652 C 628.881 363.923, 629.227 364.954, 631.536 367.264 C 634.699 370.427, 635.717 370.534, 642.500 368.420 C 648.553 366.533, 735.641 344.462, 745.500 342.316 C 753.557 340.563, 755.587 339.110, 757.118 334 C 758.014 331.009, 757.918 329.742, 756.599 327.192 C 753.973 322.112, 752.757 321.965, 738.500 324.997 M 723.500 359.015 C 710.850 362.295, 696.675 365.864, 692 366.947 C 672.460 371.472, 635.967 380.947, 633.977 382.012 C 631.709 383.226, 629 388.604, 629 391.891 C 629 394.450, 633.703 400, 635.871 400 C 636.803 400, 658.025 394.825, 683.033 388.499 C 708.040 382.174, 733.225 375.829, 739 374.399 C 752.378 371.087, 753.559 370.603, 755.493 367.651 C 760.050 360.696, 757.245 352.976, 750.177 353.026 C 748.155 353.041, 736.150 355.736, 723.500 359.015 M 742 384.635 C 737.325 385.951, 720.900 390.182, 705.500 394.037 C 690.100 397.892, 672.550 402.374, 666.500 403.996 C 660.450 405.619, 651.014 407.869, 645.531 408.996 C 637.820 410.581, 634.936 411.645, 632.794 413.697 C 627.802 418.480, 628.040 426.015, 633.293 429.456 C 635.534 430.924, 637.691 430.513, 669.089 422.633 C 687.465 418.021, 712.850 411.506, 725.500 408.155 C 738.150 404.803, 749.751 401.811, 751.281 401.504 C 754.710 400.816, 757.991 395.769, 757.996 391.173 C 757.999 388.826, 757.139 386.985, 755.077 384.923 C 753.469 383.315, 751.782 382.055, 751.327 382.121 C 750.872 382.188, 746.675 383.320, 742 384.635 M 734 416.955 C 726.025 419.041, 701.500 425.320, 679.500 430.908 C 657.500 436.497, 638.074 441.527, 636.332 442.086 C 632.307 443.376, 629.764 447.240, 629.632 452.266 C 629.549 455.431, 630.092 456.682, 632.416 458.682 C 635.756 461.554, 637.111 461.457, 651.500 457.313 C 656.450 455.888, 666.575 453.266, 674 451.488 C 681.425 449.710, 701.450 444.637, 718.500 440.214 C 735.550 435.792, 750.684 431.914, 752.131 431.598 C 755.143 430.938, 758 425.899, 758 421.245 C 758 417.569, 753.942 412.970, 750.798 413.081 C 749.534 413.126, 741.975 414.869, 734 416.955 M 451.794 424.540 C 451.319 425.014, 451.619 468.952, 452.100 469.433 C 452.949 470.283, 571.768 470.825, 581.815 470.025 C 587.488 469.574, 592.220 469.046, 592.331 468.852 C 592.442 468.658, 592.376 458.531, 592.183 446.347 L 591.833 424.193 521.966 424.214 C 483.539 424.225, 451.962 424.372, 451.794 424.540 M 745.500 444.104 C 739.950 445.828, 704.758 454.940, 670.500 463.522 C 651.800 468.207, 635.464 472.482, 634.198 473.022 C 631.242 474.284, 628.690 480.310, 629.517 484.077 C 629.863 485.655, 631.446 488.039, 633.034 489.375 C 636.326 492.146, 636.421 492.135, 655 487.021 C 682.547 479.438, 712.421 471.618, 731.500 466.996 C 750.296 462.443, 752.789 461.597, 755.250 458.939 C 758.696 455.216, 758.986 449.523, 755.927 445.635 C 753.721 442.830, 750.923 442.419, 745.500 444.104 M 355 460.196 C 345.375 460.689, 325.310 460.952, 310.411 460.780 L 283.322 460.469 280.110 465.129 C 275.633 471.623, 239.855 506.641, 232.174 512.047 L 225.848 516.500 226.540 523.396 C 226.921 527.189, 227.250 548.620, 227.271 571.019 L 227.309 611.746 230.904 614.577 C 239.081 621.014, 256.884 638.538, 271.207 654.250 L 286.477 671 329.488 671.014 C 353.145 671.021, 373.469 671.287, 374.654 671.605 C 376.252 672.034, 376.978 671.645, 377.470 670.095 C 379.445 663.872, 418.032 623.835, 431.743 613.782 L 435.986 610.671 435.402 581.086 C 435.080 564.814, 435.264 543.850, 435.810 534.500 C 436.687 519.484, 436.621 517.383, 435.243 516.500 C 434.386 515.950, 429.816 512.350, 425.090 508.500 C 420.363 504.650, 413.347 498.953, 409.498 495.840 C 402.467 490.154, 384.732 471.178, 379.039 463.250 C 377.270 460.786, 375.254 459.063, 374.244 459.150 C 373.285 459.232, 364.625 459.703, 355 460.196 M 748.839 473.494 C 748.387 473.947, 703.244 485.781, 655 498.095 C 644.275 500.833, 634.395 503.878, 633.044 504.861 C 628.270 508.338, 628.598 516.932, 633.665 521.137 C 635.442 522.612, 637.008 522.301, 663.500 515.214 C 688.554 508.511, 706.011 503.964, 731.468 497.511 C 750.518 492.682, 752.690 491.912, 755.218 489.082 C 758.692 485.194, 758.991 479.530, 755.927 475.635 C 754.088 473.297, 750.208 472.125, 748.839 473.494 M 480 492.131 L 480 501.950 483.250 501.393 C 485.038 501.087, 491 499.525, 496.500 497.922 C 508.191 494.514, 529.854 490, 534.515 490 C 537.999 490, 540.548 492.129, 539.703 494.333 C 539.131 495.823, 535.091 497.141, 505.708 505.422 C 494.823 508.490, 484.526 511, 482.827 511 C 479.814 511, 479.754 511.092, 480.358 514.750 C 480.699 516.813, 480.983 519.513, 480.989 520.750 C 481.004 523.914, 482.898 523.713, 501 518.629 C 509.525 516.234, 527.405 511.626, 540.733 508.388 L 564.965 502.500 564.983 492.332 L 565 482.165 522.500 482.238 L 480 482.312 480 492.131 M 322.500 500.071 C 291.496 503.423, 269.839 526.180, 265.895 559.551 C 264.339 572.712, 266.288 582.981, 272.873 596.327 C 275.634 601.922, 279.734 608.616, 281.984 611.203 C 291.615 622.274, 311.114 631.377, 327.985 632.678 C 347.534 634.186, 370.564 623.667, 382.512 607.773 C 391.715 595.530, 395.699 584.651, 396.713 568.997 C 397.965 549.675, 391.652 532.385, 378.733 519.757 C 363.157 504.531, 343.831 497.765, 322.500 500.071 M 745.500 505.079 C 742.200 506.163, 732.300 508.838, 723.500 511.024 C 714.700 513.210, 700.750 516.815, 692.500 519.036 C 684.250 521.256, 668.500 525.309, 657.500 528.041 C 632.728 534.194, 631.458 534.739, 629.917 539.884 C 628.879 543.346, 628.975 544.272, 630.667 547.170 C 633.926 552.750, 636.155 552.892, 652.773 548.583 C 660.873 546.483, 683.250 540.748, 702.500 535.839 C 749.354 523.891, 750.745 523.455, 754.703 519.497 C 759.044 515.156, 759.310 509.582, 755.364 505.636 C 752.277 502.549, 753.064 502.594, 745.500 505.079 M 318.251 512.516 C 309.975 514.314, 302.927 518.245, 295.406 525.256 C 282.648 537.150, 276.454 557.997, 279.999 577.114 C 282.639 591.350, 295.922 608.602, 309.010 614.794 C 317.798 618.951, 330.485 620.814, 339.178 619.223 C 349.033 617.419, 364.763 609.170, 370.488 602.802 C 379.468 592.814, 383.485 581.508, 383.392 566.483 C 383.255 544.281, 371.094 525.490, 350.681 515.938 C 340.304 511.082, 329.905 509.985, 318.251 512.516 M 533.500 520.061 C 518.650 523.897, 500.777 528.512, 493.783 530.318 C 486.789 532.123, 480.790 533.877, 480.451 534.216 C 480.112 534.555, 480.154 537.387, 480.545 540.510 C 481.253 546.184, 481.257 546.189, 484.377 545.732 C 486.095 545.481, 503.299 541.196, 522.609 536.211 C 541.919 531.226, 559.244 527.002, 561.109 526.824 L 564.500 526.500 564.500 520 C 564.500 514.236, 564.274 513.477, 562.500 513.293 C 561.400 513.180, 548.350 516.225, 533.500 520.061 M 318.844 527.337 C 299.827 534.427, 289.201 552.261, 292.045 572.315 C 293.224 580.627, 295.707 586.584, 300.765 593.227 C 310.296 605.746, 328.757 611.135, 344.243 605.918 C 360.915 600.302, 369.384 590.365, 372.020 573.327 C 374.868 554.925, 366.265 539.182, 348.587 530.446 C 341.509 526.947, 339.908 526.554, 331.635 526.278 C 325.673 526.079, 321.230 526.447, 318.844 527.337 M 743.500 536.131 C 740.200 537.203, 729.850 540.040, 720.500 542.434 C 702.041 547.162, 675.597 554.255, 670 555.979 C 668.075 556.572, 660.425 558.413, 653 560.072 C 632.793 564.584, 632.647 564.635, 630.729 567.881 C 628.085 572.358, 628.506 576.660, 631.923 580.077 C 635.364 583.518, 637.206 583.644, 646.520 581.074 C 658.449 577.783, 703.453 566.143, 726.306 560.437 C 738.299 557.443, 749.401 554.327, 750.977 553.512 C 757.567 550.104, 759.860 542.420, 755.932 536.904 C 753.518 533.514, 751.873 533.412, 743.500 536.131 M 534.500 542.997 C 519.650 546.768, 504.599 550.773, 501.054 551.895 C 497.508 553.017, 491.321 554.488, 487.304 555.163 C 480.090 556.375, 480 556.428, 480.011 559.445 C 480.034 565.801, 481.206 570, 482.958 570 C 483.891 570, 497.220 566.666, 512.577 562.590 C 527.935 558.515, 546.009 553.902, 552.743 552.340 L 564.985 549.500 564.993 543.950 C 564.999 539.091, 563.788 535.849, 562.050 536.070 C 561.748 536.108, 549.350 539.225, 534.500 542.997 M 532 567.553 C 499.696 575.941, 489.186 578.532, 483.619 579.479 L 479.738 580.140 480.419 586.787 C 480.794 590.442, 481.273 593.606, 481.484 593.818 C 481.696 594.029, 500.581 589.544, 523.453 583.851 L 565.037 573.500 564.768 567 C 564.534 561.325, 564.246 560.478, 562.500 560.327 C 561.400 560.231, 547.675 563.483, 532 567.553 M 747.500 565.627 C 745.300 566.445, 733.375 569.763, 721 573.002 C 708.625 576.241, 689.725 581.216, 679 584.057 C 661.525 588.686, 635.737 594.905, 633.735 594.974 C 632.205 595.026, 629.007 601.581, 629.004 604.673 C 628.999 608.660, 633.278 614, 636.477 614 C 637.742 614, 642.764 612.839, 647.638 611.421 C 652.512 610.002, 675.175 604.125, 698 598.359 C 720.825 592.594, 741.975 587.167, 745 586.299 C 752.248 584.219, 758 578.707, 758 573.840 C 758 570.645, 755.927 566.411, 753.558 564.765 C 752.237 563.848, 752.321 563.836, 747.500 565.627 M 541 589.182 C 507.635 597.791, 490.276 602, 485.374 602.672 L 481 603.272 481 610.636 C 481 614.686, 481.118 618, 481.263 618 C 481.407 618, 489.619 615.941, 499.513 613.424 C 551.803 600.123, 560.493 598, 562.649 598 C 564.868 598, 564.999 597.649, 564.985 591.750 C 564.976 588.313, 564.639 585.022, 564.235 584.439 C 563.742 583.727, 556.090 585.289, 541 589.182 M 743 597.674 C 738.875 599.036, 727.850 602.105, 718.500 604.494 C 680.476 614.208, 665.181 618.194, 659 620.001 C 655.425 621.047, 648.328 622.658, 643.229 623.582 C 635.240 625.030, 633.615 625.669, 631.479 628.208 C 628.129 632.188, 628.118 637.756, 631.452 641.354 C 634.987 645.169, 636.947 645.127, 651.053 640.936 C 656.363 639.359, 665.612 636.973, 671.604 635.636 C 686.603 632.288, 736.997 619.423, 745.276 616.829 C 756.676 613.256, 760.804 606.111, 756.011 598.250 C 753.685 594.435, 752.912 594.401, 743 597.674 M 525.500 616.603 C 505.700 621.748, 487.304 626.258, 484.619 626.625 L 479.738 627.292 480.345 633.789 C 480.678 637.361, 481.160 640.494, 481.416 640.749 C 481.671 641.004, 487.420 639.836, 494.190 638.151 C 544.145 625.726, 559.851 621.999, 562.250 621.999 L 565 622 565 614.500 C 565 607.977, 564.772 607.016, 563.250 607.124 C 562.288 607.192, 545.300 611.458, 525.500 616.603 M 746.500 627.704 C 742.599 629.138, 724.729 633.802, 663.500 649.369 C 630.147 657.848, 629 658.397, 629 665.881 C 629 668.517, 629.677 670.268, 631.250 671.701 C 635.767 675.815, 636.939 675.947, 646.500 673.429 C 673.937 666.201, 718.818 654.547, 727.415 652.419 C 752.379 646.237, 757.276 643.868, 758.582 637.340 C 759.290 633.800, 757.012 628.612, 754.055 627.030 C 751.769 625.806, 751.628 625.819, 746.500 627.704 M 526.500 640.093 C 507.250 644.984, 489.125 649.277, 486.222 649.634 C 483.319 649.990, 480.700 650.676, 480.402 651.158 C 479.739 652.231, 480.921 662.254, 481.897 663.833 C 482.395 664.640, 490.612 662.972, 510.051 658.116 C 546.493 649.013, 559.544 646, 562.526 646 C 564.938 646, 565 645.812, 565 638.500 C 565 631.986, 564.770 631.013, 563.250 631.100 C 562.288 631.156, 545.750 635.202, 526.500 640.093 M 561.037 655.110 C 556.769 656.814, 490.161 673.075, 484.897 673.699 L 479.872 674.294 480.559 680.897 C 480.937 684.529, 481.321 687.593, 481.413 687.706 C 481.683 688.041, 492.757 685.542, 522.500 678.436 C 537.900 674.756, 553.200 671.300, 556.500 670.756 C 559.800 670.211, 563.063 669.608, 563.750 669.414 C 565.120 669.029, 565.611 653.948, 564.250 654.063 C 563.837 654.098, 562.392 654.569, 561.037 655.110 M 729.500 663.179 C 719.600 665.888, 703.338 670.308, 693.363 673.003 C 674.136 678.197, 666.761 680.772, 670.701 680.918 C 671.912 680.963, 675.512 681.751, 678.701 682.668 C 683.512 684.052, 689.687 684.350, 714.929 684.421 C 749.286 684.517, 748.415 684.701, 752.104 676.579 C 754.139 672.098, 754.609 663.007, 752.965 659.934 C 751.564 657.317, 750.269 657.496, 729.500 663.179 M 555.500 680.117 C 552.200 681.181, 545.900 683.141, 541.500 684.472 L 533.500 686.894 540.500 686.991 C 548.490 687.102, 560.658 688.444, 563.250 689.501 C 564.804 690.134, 565 689.528, 565 684.107 C 565 677.044, 565.013 677.050, 555.500 680.117 M 244.500 856.038 C 243.400 856.490, 237.971 856.891, 232.435 856.930 L 222.370 857 220.805 860.250 C 219.943 862.038, 216.485 867.079, 213.119 871.454 C 209.754 875.828, 207 879.964, 207 880.643 C 207 881.323, 209.439 885.278, 212.421 889.434 C 215.402 893.589, 218.362 898.566, 218.998 900.494 L 220.155 904 233.328 903.981 L 246.500 903.962 254.250 892.189 C 258.512 885.715, 262 879.833, 262 879.119 C 262 878.405, 259.755 875.302, 257.011 872.223 C 254.268 869.145, 251.271 864.573, 250.351 862.063 C 248.208 856.211, 247.030 854.999, 244.500 856.038 M 748.206 864.629 L 748.500 872.500 755.166 872.794 L 761.832 873.088 762.166 865.945 C 762.350 862.017, 762.275 858.668, 762 858.503 C 761.725 858.338, 758.443 857.878, 754.706 857.481 L 747.912 856.758 748.206 864.629 M 768.750 857.716 C 766.034 858.128, 766 858.225, 766 865.566 L 766 873 776.363 873 L 786.726 873 787.262 866.319 C 787.557 862.645, 787.571 859.045, 787.292 858.319 C 786.796 857.026, 775.689 856.665, 768.750 857.716 M 791.667 857.667 C 791.300 858.033, 791 861.633, 791 865.667 L 791 873 797.750 873.002 L 804.500 873.005 804.174 865.002 L 803.848 857 798.091 857 C 794.924 857, 792.033 857.300, 791.667 857.667 M 475.929 858.919 C 475.786 860.098, 476.146 875.477, 476.320 875.604 C 476.419 875.676, 479.330 876.044, 482.788 876.421 L 489.076 877.108 488.788 867.804 L 488.500 858.500 482.250 858.419 C 478.813 858.375, 475.968 858.600, 475.929 858.919 M 492.431 858.917 C 491.795 859.531, 491.928 867.930, 492.642 872.250 L 493.262 876 503.131 876 L 513 876 513 866.925 L 513 857.850 502.931 858.175 C 497.393 858.354, 492.668 858.688, 492.431 858.917 M 517 867.500 L 517 876 524.117 876 C 531.009 876, 531.214 875.929, 530.630 873.750 C 530.299 872.513, 530.021 868.688, 530.014 865.250 L 530 859 523.500 859 L 517 859 517 867.500 M 570.750 862.742 L 564 863.091 564 866.964 C 564 873.614, 564.439 874, 572 874 C 579.654 874, 580 873.672, 580 866.418 C 580 863.446, 579.591 862.064, 578.750 862.196 C 578.063 862.304, 574.462 862.549, 570.750 862.742 M 699.751 862.750 C 699.549 863.163, 699.635 866.650, 699.942 870.500 L 700.500 877.500 705 877.500 L 709.500 877.500 709.792 869.750 L 710.084 862 705.101 862 C 702.360 862, 699.953 862.337, 699.751 862.750 M 713.335 863.432 C 713.701 864.384, 714 867.827, 714 871.082 L 714 877 719.915 877 L 725.829 877 726.196 870.250 C 726.398 866.538, 726.461 863.338, 726.337 863.139 C 726.213 862.941, 723.088 862.536, 719.391 862.239 C 713.309 861.751, 712.734 861.864, 713.335 863.432 M 730.364 867.640 C 730.714 870.191, 731 873.341, 731 874.640 C 731 876.727, 731.463 877, 735 877 L 739 877 739 870.625 C 739 864.285, 738.983 864.247, 735.875 863.625 C 729.860 862.422, 729.668 862.562, 730.364 867.640 M 228.433 867.765 C 225.999 869.441, 219 879.839, 219 881.779 C 219 884.633, 226.023 894.709, 228.500 895.408 C 231.365 896.217, 239.319 896.102, 240.503 895.235 C 242.398 893.845, 250 883.314, 250 882.077 C 250 880.236, 243.100 870.183, 240.666 868.479 C 238.482 866.949, 230.311 866.472, 228.433 867.765 M 326.841 877.383 C 326.154 879.042, 322.843 883.203, 319.482 886.631 L 313.372 892.862 313.645 905.609 L 313.919 918.355 318.808 923.427 C 321.497 926.217, 324.702 930.188, 325.930 932.250 L 328.163 936 343.942 936 L 359.722 936 363.876 929.576 C 367.632 923.769, 373.089 918, 374.827 918 C 375.197 918, 375.500 912.488, 375.500 905.750 C 375.500 893.527, 375.494 893.495, 372.661 891.086 C 371.100 889.759, 367.611 885.524, 364.908 881.676 L 359.995 874.679 344.043 874.523 L 328.090 874.367 326.841 877.383 M 408.333 879.806 C 406.323 882.725, 402.651 886.898, 400.172 889.080 L 395.666 893.047 395.894 905.273 L 396.123 917.500 401.411 923 C 404.319 926.025, 407.703 930.188, 408.931 932.250 L 411.163 936 426.943 936 L 442.723 936 448.496 928.462 C 451.672 924.317, 455.174 920.291, 456.280 919.516 C 458.106 918.237, 458.301 916.931, 458.395 905.304 L 458.500 892.500 455.081 889.500 C 453.201 887.850, 449.758 883.884, 447.430 880.687 L 443.199 874.873 427.593 874.687 L 411.986 874.500 408.333 879.806 M 632.073 880.500 C 629.479 883.800, 625.705 887.625, 623.685 889 L 620.014 891.500 620.007 903.958 L 620 916.416 623.374 919.958 C 625.230 921.906, 629.013 926.350, 631.780 929.833 L 636.812 936.167 652.477 936.167 L 668.143 936.167 670.918 931.833 C 672.445 929.450, 676.126 925.219, 679.097 922.430 L 684.500 917.360 684.315 904.965 C 684.134 892.825, 684.077 892.531, 681.499 890.653 C 680.051 889.599, 676.651 885.581, 673.942 881.724 L 669.018 874.712 652.903 874.606 L 636.789 874.500 632.073 880.500 M 759 877.800 C 759 878.240, 759.376 879.028, 759.835 879.550 C 760.294 880.072, 761.456 882.638, 762.417 885.250 C 763.379 887.862, 764.691 890.014, 765.333 890.032 C 765.975 890.049, 765.705 890.667, 764.733 891.405 C 763.684 892.201, 763.218 893.405, 763.588 894.368 C 764.314 896.261, 767.715 895.954, 780.500 892.837 C 794.578 889.406, 796.935 888.182, 793.343 886.172 C 791.831 885.326, 791.875 884.938, 793.843 881.754 C 795.029 879.835, 796 877.980, 796 877.632 C 796 877.284, 787.675 877, 777.500 877 C 767.325 877, 759 877.360, 759 877.800 M 495.158 880.239 L 487.817 881.210 488.486 884.855 C 489.417 889.926, 490.413 890.668, 494.264 889.164 C 502.872 885.803, 512.352 882.922, 513.842 883.215 C 514.754 883.395, 509.875 885.498, 503 887.889 C 488.481 892.938, 487.238 893.666, 489.414 895.843 C 490.632 897.061, 491.605 897.150, 494.377 896.299 C 496.324 895.702, 501.719 895.463, 506.772 895.751 C 513.199 896.118, 515.932 895.918, 516.473 895.044 C 517.930 892.687, 515.486 891.978, 509.634 893.060 C 501.953 894.480, 499.922 893.621, 507.284 892.066 C 513.764 890.697, 517 888.002, 517 883.972 C 517 879.102, 511.220 878.115, 495.158 880.239 M 554.506 885.805 C 552.360 888.723, 548.674 892.889, 546.316 895.063 L 542.028 899.016 542.515 909.076 C 542.993 918.945, 543.069 919.206, 546.519 922.818 C 548.452 924.843, 551.638 928.807, 553.598 931.626 L 557.162 936.752 567.970 936.240 C 574.422 935.934, 580.007 936.155, 581.825 936.789 C 584.777 937.818, 585.005 937.674, 589.152 932.176 C 591.506 929.054, 595.179 924.602, 597.314 922.282 C 600.993 918.284, 601.164 917.813, 600.573 913.282 C 600.230 910.652, 600.302 906.525, 600.733 904.112 C 601.465 900.016, 601.292 899.484, 598.135 896.112 C 596.274 894.125, 592.761 889.834, 590.328 886.575 L 585.905 880.651 572.157 880.575 L 558.408 880.500 554.506 885.805 M 707.014 884.280 C 707.058 891.534, 708.901 892.289, 718.401 888.950 C 726.829 885.988, 726.434 887.277, 717.916 890.532 C 710.565 893.341, 706.456 896.310, 707.525 898.040 C 707.854 898.572, 709.332 898.750, 710.811 898.435 L 713.500 897.862 710.774 899.649 C 705.019 903.419, 707.314 906.459, 713.804 903.662 C 715.837 902.786, 719.975 901.346, 723 900.462 C 730.272 898.338, 735 896.240, 735 895.139 C 735 892.651, 732.210 892.015, 728.389 893.631 C 724.037 895.472, 714.760 898.094, 714.284 897.617 C 713.670 897.004, 727.710 891, 729.758 891 C 732.751 891, 735.160 888.195, 734.804 885.124 L 734.500 882.500 720.750 882.280 C 707.142 882.061, 707 882.082, 707.014 884.280 M 267.639 890.320 C 265.087 892.696, 263 895.492, 263 896.534 C 263 897.576, 265.847 901.370, 269.327 904.964 C 272.807 908.559, 277.735 913.674, 280.278 916.332 L 284.901 921.164 289.201 918.163 C 291.565 916.513, 295.026 913.865, 296.892 912.281 C 299.852 909.766, 300.139 909.128, 299.144 907.269 C 298.517 906.098, 296.685 904.200, 295.073 903.052 C 293.460 901.904, 291.166 899.386, 289.974 897.458 C 288.782 895.529, 286.501 893.276, 284.904 892.450 C 282.067 890.983, 281.957 891.023, 280.004 894.225 C 278.906 896.026, 278.006 897.913, 278.004 898.417 C 278.002 898.921, 277.742 899.075, 277.426 898.760 C 277.111 898.444, 277.561 896.816, 278.426 895.143 C 280.669 890.806, 280.387 888.497, 277.453 887.161 C 273.543 885.379, 272.628 885.673, 267.639 890.320 M 648.264 886.984 C 643.659 888.062, 638.475 892.333, 635.398 897.584 C 632.079 903.247, 632.450 909.156, 636.491 914.988 C 643.178 924.636, 656.636 925.778, 665.803 917.474 C 670.477 913.240, 670.500 913.189, 670.449 906.860 C 670.373 897.279, 664.820 888.917, 657.571 887.466 C 655.882 887.127, 653.825 886.710, 653 886.539 C 652.175 886.367, 650.044 886.567, 648.264 886.984 M 336.235 889.528 C 326.692 894.359, 323.484 903.915, 328.324 913.093 C 331.691 919.475, 335.920 922, 343.247 922 C 350.480 922, 355.181 919.941, 358.806 915.185 C 366.010 905.733, 357.977 888.590, 345.744 887.308 C 342.516 886.970, 340.239 887.502, 336.235 889.528 M 420.500 888.569 C 416.594 890.597, 412.184 894.807, 410.411 898.200 C 408.583 901.698, 408.603 909.332, 410.449 912.901 C 412.628 917.115, 418.506 921.817, 422.541 922.574 C 432.218 924.389, 440.029 920.702, 444.035 912.428 C 446.092 908.179, 446.175 907.359, 445.056 902.358 C 442.473 890.817, 429.838 883.723, 420.500 888.569 M 646.457 892.863 C 641.182 896.080, 638 900.697, 638 905.135 C 638 908.453, 638.715 909.873, 642.290 913.657 C 645.839 917.413, 647.353 918.283, 651.040 918.689 C 654.864 919.110, 656.101 918.742, 659.714 916.110 C 667.447 910.476, 668.747 903.419, 663.256 896.893 C 658.304 891.007, 651.986 889.492, 646.457 892.863 M 336.873 893.684 C 333.157 895.990, 331 900.130, 331 904.954 C 331 913.326, 335.853 918, 344.546 918 C 350.349 918, 354.217 915.415, 356.335 910.120 C 358.387 904.992, 357.093 900.160, 352.414 895.481 C 349.411 892.477, 348.287 892.004, 344.217 892.027 C 341.623 892.041, 338.318 892.787, 336.873 893.684 M 420.841 893.524 C 411.696 898.491, 411.964 912.908, 421.283 917.330 C 428.794 920.894, 435.955 918.332, 440.048 910.615 C 442.147 906.660, 442.260 905.813, 441.178 902.201 C 440.485 899.886, 438.484 896.876, 436.453 895.093 C 433.557 892.550, 432.092 892.007, 428.215 892.040 C 425.622 892.062, 422.304 892.730, 420.841 893.524 M 781 894.425 C 764.401 898.370, 763 898.885, 763 901.039 C 763 903.605, 764.813 903.560, 778.512 900.652 C 790.378 898.133, 794 896.521, 794 893.759 C 794 891.551, 792.849 891.610, 781 894.425 M 566.500 894.333 C 562.130 896.320, 556.219 903.314, 555.451 907.407 C 554.475 912.611, 557.939 919.109, 563.736 922.948 C 569.014 926.445, 570.796 926.630, 577.426 924.371 C 581.218 923.078, 582.808 921.796, 585.104 918.175 C 586.914 915.321, 588 912.261, 588 910.016 C 588 905.546, 584.361 898.244, 580.864 895.699 C 577.495 893.246, 570.379 892.570, 566.500 894.333 M 338.314 895.950 C 334.297 898.400, 333 900.818, 333 905.858 C 333 908.690, 333.751 910.739, 335.589 912.923 C 337.873 915.638, 338.784 915.996, 343.339 915.968 C 346.178 915.951, 349.196 915.388, 350.046 914.718 C 357.090 909.167, 356.553 899.406, 348.989 895.494 C 345.114 893.491, 342.139 893.618, 338.314 895.950 M 647.841 895.524 C 644.499 897.340, 641 902.903, 641 906.403 C 641 912.841, 647.812 917.719, 654.300 915.928 C 664.424 913.132, 666.124 900.218, 656.989 895.494 C 653.427 893.652, 651.275 893.659, 647.841 895.524 M 420.809 897.750 C 415.693 903.236, 414.579 908.691, 417.772 912.633 C 422.927 918.996, 432.459 918.403, 437.054 911.433 C 440.090 906.827, 439.595 902.395, 435.600 898.400 C 432.761 895.561, 431.472 895, 427.787 895 C 424.261 895, 422.858 895.553, 420.809 897.750 M 495.500 897.930 C 492.168 898.736, 488 901.099, 488 902.182 C 488 903.940, 490.705 904.006, 499.900 902.468 C 505.342 901.558, 510.628 901.011, 511.647 901.252 C 514.486 901.924, 511.867 902.637, 501.469 904.023 C 492.368 905.237, 487.083 907.707, 488.541 910.066 C 489.900 912.265, 511.298 907.903, 514.750 904.724 C 517.540 902.154, 517.546 901.587, 514.811 899.039 C 513.010 897.360, 511.375 897.018, 505.561 897.102 C 501.678 897.159, 497.150 897.531, 495.500 897.930 M 565.875 899.439 C 561.699 902.277, 558.565 908.129, 559.413 911.508 C 560.246 914.830, 564.456 919.532, 567.859 920.941 C 571.966 922.643, 578.145 920.804, 581.427 916.904 C 583.364 914.602, 584 912.725, 584 909.306 C 584 905.364, 583.487 904.252, 580.118 900.882 C 575.410 896.175, 571.293 895.757, 565.875 899.439 M 566.749 901.532 C 563.147 904.872, 560.859 909.432, 561.654 911.687 C 562.005 912.684, 563.436 914.737, 564.834 916.250 C 570.619 922.512, 582.534 917.841, 582.294 909.404 C 582.208 906.344, 581.454 904.888, 578.607 902.279 C 574.228 898.266, 570.523 898.032, 566.749 901.532 M 720.273 903.321 C 711.593 906.288, 708.040 907.959, 708.023 909.083 C 708.010 909.954, 708.256 910.923, 708.570 911.236 C 709.155 911.821, 731.391 904.662, 733.896 903.082 C 735.281 902.209, 734.780 898.935, 733.281 899.071 C 732.852 899.110, 726.998 901.023, 720.273 903.321 M 781 901.541 C 775.225 902.798, 768.813 904.547, 766.750 905.427 C 762.836 907.097, 761.828 909.613, 764.640 910.692 C 766.113 911.257, 766.088 911.463, 764.395 912.700 C 762.889 913.802, 762.781 914.246, 763.858 914.912 C 764.927 915.573, 764.962 916.202, 764.026 917.951 C 762.146 921.464, 763.313 922.957, 767.184 921.994 C 788.881 916.594, 795.608 914.010, 793.274 911.972 C 792.052 910.905, 774.951 912.709, 770.210 914.405 C 767.850 915.249, 766.148 915.570, 766.427 915.118 C 767.383 913.572, 775.498 911.266, 783.940 910.143 C 792.826 908.960, 794.641 908.113, 793.675 905.597 C 793.149 904.226, 792.632 904.218, 788.917 905.529 C 786.624 906.338, 784.243 906.968, 783.624 906.930 C 783.006 906.891, 784.270 906.211, 786.434 905.418 C 790.902 903.782, 794.211 901.151, 793.417 899.866 C 793.123 899.390, 792.571 899.057, 792.191 899.127 C 791.811 899.197, 786.775 900.283, 781 901.541 M 264.724 906.134 C 263.776 906.665, 263 908.007, 263 909.117 C 263 910.662, 262.543 910.990, 261.051 910.516 C 258.883 909.828, 254.512 913.402, 255.523 915.036 C 256.473 916.575, 254.825 916.151, 252.829 914.345 C 251.117 912.796, 251 912.814, 251 914.623 C 251 915.685, 251.748 917.668, 252.663 919.027 C 254.138 921.221, 253.969 921.169, 251.163 918.563 C 247.722 915.368, 246.997 916.468, 249.699 920.785 L 251.399 923.500 248.551 921 L 245.704 918.500 246.273 920.807 C 246.713 922.588, 246.554 922.875, 245.579 922.066 C 243.735 920.535, 242.894 921.927, 244.181 924.381 L 245.291 926.500 243.013 924.500 L 240.734 922.500 241.474 924.875 C 241.983 926.507, 241.868 927.036, 241.107 926.566 C 239.269 925.430, 239.862 928.555, 242 931.273 C 243.100 932.671, 243.995 934.194, 243.989 934.658 C 243.983 935.121, 242.825 934.038, 241.416 932.250 C 240.008 930.462, 238.438 929, 237.928 929 C 236.310 929, 236.922 931.283, 239.250 933.928 L 241.500 936.486 239.244 934.582 C 236.519 932.283, 235.009 933.248, 237.326 935.808 C 238.476 937.078, 238.656 937.944, 237.923 938.677 C 236.181 940.419, 243.130 943.833, 248.416 943.833 C 253.216 943.833, 253.820 943.320, 251.750 940.998 C 250.687 939.806, 250.761 939.794, 252.250 940.921 C 253.704 942.021, 254.296 942.018, 255.750 940.905 C 256.712 940.169, 257.689 939.437, 257.921 939.279 C 258.152 939.121, 257.252 937.760, 255.921 936.253 C 254.157 934.258, 254.064 933.987, 255.579 935.257 C 258.323 937.558, 259.737 937.456, 262.594 934.750 L 264.971 932.500 261.735 929.655 L 258.500 926.810 261.654 928.905 C 263.389 930.057, 265.500 931, 266.345 931 C 269.302 931, 268.848 929.373, 265.370 927.500 C 263.441 926.461, 261.385 924.686, 260.801 923.555 C 259.931 921.869, 260.258 921.974, 262.620 924.138 C 267.722 928.810, 269.258 928.663, 273.955 923.053 C 278.505 917.620, 278.513 917.772, 273.277 911.249 C 269.130 906.084, 267.044 904.836, 264.724 906.134 M 724.500 908.433 C 713.092 912.531, 709 914.667, 709 916.526 C 709 918.723, 712.022 918.330, 720.174 915.075 C 724.203 913.466, 728.850 911.821, 730.500 911.421 C 733.798 910.620, 734.961 909.408, 734.985 906.750 C 735.004 904.586, 735.376 904.526, 724.500 908.433 M 511.500 908.911 C 510.400 909.342, 505.900 910.252, 501.500 910.934 C 493.174 912.223, 489 914.061, 489 916.440 C 489 918.860, 491.213 918.764, 502.317 915.862 C 514.467 912.687, 514.591 912.634, 516.030 909.944 C 516.882 908.351, 516.748 908.011, 515.285 908.063 C 514.303 908.098, 512.600 908.480, 511.500 908.911 M 723 916.198 C 708.087 921.741, 708 921.784, 708 923.595 C 708 925.413, 707.838 925.431, 720.301 922.191 C 724.592 921.075, 729.189 919.451, 730.516 918.581 C 733.205 916.820, 735.415 913.346, 734.253 912.708 C 733.839 912.481, 728.775 914.051, 723 916.198 M 504.500 917.544 C 500.100 918.804, 495.251 919.873, 493.725 919.918 C 491.707 919.978, 490.685 920.699, 489.975 922.565 C 488.712 925.887, 488.729 926, 490.483 926 C 493.603 926, 514.489 919.828, 515.211 918.693 C 516.516 916.641, 516.072 914.995, 514.250 915.126 C 513.288 915.195, 508.900 916.283, 504.500 917.544 M 262.500 918 C 263.495 919.100, 264.535 920, 264.810 920 C 265.085 920, 264.495 919.100, 263.500 918 C 262.505 916.900, 261.465 916, 261.190 916 C 260.915 916, 261.505 916.900, 262.500 918 M 785.500 919.086 C 782.750 919.554, 776.675 921.280, 772 922.920 C 765.251 925.287, 763.432 926.344, 763.168 928.048 C 762.772 930.604, 763.438 930.518, 780.500 925.788 C 792.826 922.371, 794.614 921.444, 792.890 919.367 C 792.266 918.615, 791.473 918.053, 791.128 918.117 C 790.782 918.181, 788.250 918.617, 785.500 919.086 M 722.797 923.363 C 712.054 927.067, 708 929.302, 708 931.523 C 708 933.439, 707.565 933.503, 719.344 929.851 C 730.879 926.274, 734 924.578, 734 921.885 C 734 919.460, 734.190 919.435, 722.797 923.363 M 267.768 923.168 C 268.350 923.750, 269.415 924.028, 270.137 923.788 C 270.886 923.538, 270.432 923.085, 269.080 922.731 C 267.417 922.296, 267.026 922.426, 267.768 923.168 M 505 924.470 C 493.982 927.349, 489 929.522, 489 931.449 C 489 933.450, 490.076 933.405, 499.152 931.028 C 503.293 929.943, 508.121 928.946, 509.881 928.812 C 513.538 928.534, 516.523 925.806, 515.653 923.537 C 514.961 921.734, 515.726 921.667, 505 924.470 M 250.500 926 C 251.495 927.100, 252.535 928, 252.810 928 C 253.085 928, 252.495 927.100, 251.500 926 C 250.505 924.900, 249.465 924, 249.190 924 C 248.915 924, 249.505 924.900, 250.500 926 M 787 925.675 C 781.360 926.582, 764.749 932.492, 764.260 933.764 C 763.200 936.527, 765.569 937.232, 771.643 935.962 C 774.864 935.288, 780.839 934.459, 784.920 934.119 C 792.364 933.498, 795.598 931.492, 791.065 930.307 L 788.918 929.745 790.976 928.304 C 792.108 927.512, 792.774 926.444, 792.458 925.932 C 791.872 924.984, 791.423 924.963, 787 925.675 M 723.500 930.598 C 709.051 935.560, 708 936.072, 708 938.162 C 708 940.560, 709.329 940.353, 724.474 935.589 C 732.894 932.941, 734.551 932.081, 734.820 930.218 C 735.237 927.322, 732.803 927.403, 723.500 930.598 M 244.810 930.500 C 245.316 931.600, 245.980 933.175, 246.286 934 C 246.766 935.296, 246.853 935.288, 246.921 933.941 C 246.964 933.084, 246.300 931.509, 245.445 930.441 C 243.915 928.531, 243.904 928.532, 244.810 930.500 M 505.500 931.491 C 493.949 934.425, 489.513 936.408, 489.176 938.788 C 488.798 941.450, 488.574 941.477, 504.374 936.969 C 514.588 934.054, 516.701 932.943, 515.554 931.087 C 514.721 929.739, 511.960 929.850, 505.500 931.491 M 244 937 C 244 937.550, 244.477 938, 245.059 938 C 245.641 938, 245.840 937.550, 245.500 937 C 245.160 936.450, 244.684 936, 244.441 936 C 244.198 936, 244 936.450, 244 937 M 721 939.120 L 710.500 942.048 722 941.440 C 734.057 940.803, 736.173 940.118, 734.035 937.542 C 732.507 935.702, 733.832 935.541, 721 939.120 M 771.236 937.640 C 767.790 938.468, 765.172 939.470, 765.418 939.867 C 765.663 940.264, 771.555 940.717, 778.512 940.873 L 791.160 941.158 790.830 938.829 C 790.526 936.686, 789.982 936.485, 784 936.318 C 780.425 936.218, 774.681 936.813, 771.236 937.640 M 501.332 939.805 C 496.289 941.287, 491.789 942.888, 491.332 943.362 C 490.230 944.503, 506.263 943.087, 511.452 941.584 C 515.993 940.269, 516.954 937.613, 513 937.305 C 511.625 937.198, 506.374 938.323, 501.332 939.805 M 241 939 C 242.958 940.266, 244.282 940.266, 243.500 939 C 243.160 938.450, 242.121 938.007, 241.191 938.015 C 239.734 938.029, 239.707 938.165, 241 939" stroke="none" fill="#000000" fill-rule="evenodd"/>
</svg>