<svg xmlns="http://www.w3.org/2000/svg" width="1024" height="1024" viewBox="0 0 1024 1024" version="1.1">
	<path d="M 915.818 3.431 C 915.598 5.318, 915.563 224.580, 915.740 490.681 C 915.918 756.781, 916.049 985.638, 916.032 999.250 L 916 1024 969.886 1024 L 1023.772 1024 1024.352 996.750 C 1025.067 963.119, 1025.060 927.055, 1024.327 868.250 L 1023.764 823 981.459 823 L 939.153 823 936.206 820.520 C 931.958 816.945, 930.613 813.134, 931.919 808.371 C 932.503 806.242, 938.723 793.680, 945.741 780.455 C 952.758 767.231, 963 747.909, 968.500 737.519 C 986.633 703.263, 990.570 702.137, 1004.674 727.173 C 1009.113 735.053, 1015.165 746.187, 1018.123 751.915 L 1023.500 762.331 1023.760 716.009 C 1023.903 690.532, 1023.842 669.509, 1023.624 669.291 C 1023.406 669.073, 1004.839 668.641, 982.364 668.331 C 937.734 667.716, 938.710 667.852, 934.956 661.696 C 932.080 656.979, 932.577 653.398, 937.344 644.500 C 968.542 586.266, 979.646 567.330, 983.945 565.030 C 987.345 563.210, 991.685 563.864, 995.061 566.705 C 999.047 570.059, 1004.752 578.895, 1013.007 594.500 C 1016.499 601.100, 1020.400 608.067, 1021.678 609.982 L 1024 613.464 1024 566.616 L 1024 519.767 1021.250 520.423 C 1019.737 520.784, 1015.260 521.344, 1011.299 521.668 C 1003.037 522.343, 997.986 520.840, 991.677 515.826 L 987.854 512.788 985.677 514.777 C 977.563 522.189, 964.784 523.406, 953.250 517.864 C 948.666 515.661, 947.334 513.416, 951.565 515.025 C 952.976 515.561, 956.488 516, 959.369 516 C 968.355 516, 976.227 510.914, 981.037 502 C 982.458 499.367, 985.050 480.851, 983.898 481.563 C 982.770 482.260, 982.080 477.920, 982.954 475.621 C 984.049 472.740, 988.253 470.596, 991.304 471.361 C 992.833 471.745, 994.422 473.369, 995.509 475.659 C 997.181 479.184, 997.178 479.397, 995.437 480.670 C 994.436 481.402, 991.877 482, 989.750 482 C 987.623 482, 986.134 482.407, 986.441 482.905 C 986.749 483.402, 988.735 483.577, 990.855 483.293 L 994.710 482.776 995.224 491.803 C 996.186 508.672, 1001.877 515.205, 1016.177 515.856 L 1024 516.212 1024 494.185 L 1024 472.159 1021.170 471.537 C 1017.405 470.710, 1009.504 472.555, 1004.250 475.487 C 1000.463 477.601, 1000 477.670, 1000 476.125 C 1000 475.172, 998.627 472.227, 996.949 469.580 C 995.271 466.934, 994.033 464.651, 994.199 464.507 C 994.364 464.364, 996.525 463.240, 999 462.010 C 1007.979 457.549, 1012 451.566, 1012 442.666 C 1012 432.736, 1007.560 424.306, 999.670 419.254 C 994.352 415.848, 997.021 414.864, 1003.314 417.910 C 1011.953 422.092, 1020.207 432.573, 1022.588 442.384 C 1023.653 446.769, 1023.842 442.322, 1023.915 411.250 C 1023.962 391.313, 1023.830 375, 1023.622 375 C 1023.414 375, 1021.655 375.664, 1019.713 376.475 C 1008.689 381.082, 999.264 380.375, 991.371 374.350 C 986.793 370.856, 986.785 370.854, 984.644 372.809 C 979.945 377.099, 975.787 378.472, 967.500 378.469 C 961.079 378.466, 958.642 378.011, 955.153 376.163 C 952.762 374.897, 951.007 373.659, 951.253 373.413 C 951.499 373.167, 954.007 373.498, 956.825 374.149 C 963.409 375.669, 968.652 374.213, 974.004 369.378 C 979.595 364.326, 981.444 358.775, 980.652 349.414 L 980.015 341.874 982.912 343.937 C 986.893 346.772, 990.381 346.524, 994.172 343.137 L 997.377 340.274 995.610 335.648 C 994.638 333.103, 992.789 330.193, 991.502 329.180 L 989.160 327.338 994.780 324.419 C 997.871 322.814, 1001.679 320.431, 1003.244 319.124 C 1013.085 310.903, 1012.062 293.584, 1001.154 283.750 C 998.866 281.688, 996.471 280, 995.830 280 C 995.190 280, 994.923 279.744, 995.236 279.431 C 996.713 277.954, 1004.734 281.818, 1009.796 286.445 C 1019.479 295.294, 1023.147 306.663, 1019.580 316.773 L 1018.160 320.797 1021.080 321.225 L 1024 321.654 1024 281.988 L 1024 242.322 995.337 241.661 C 979.573 241.297, 960.518 241, 952.992 241 C 941.007 241, 939.105 240.773, 937.655 239.171 C 936.745 238.165, 936 236.321, 936 235.073 C 936 232.730, 942.936 219.463, 958.415 192.201 C 963.318 183.566, 969.793 172, 972.803 166.500 C 982.659 148.494, 985.836 145.057, 990.609 147.232 C 993.208 148.416, 1000.245 159.106, 1010.475 177.412 C 1014.751 185.064, 1019.544 193.365, 1021.125 195.858 L 1024 200.392 1024 130.671 L 1024 60.950 1021.287 59.919 C 1019.795 59.352, 1016.409 58.423, 1013.763 57.856 C 1009.515 56.945, 1008.172 57.126, 1002.279 59.403 C 995.686 61.951, 994.065 61.772, 994.015 58.490 C 993.994 57.109, 989.166 52, 987.883 52 C 986.103 52, 981 57.750, 981 59.756 C 981 62.888, 979.992 63.029, 975.128 60.576 C 965.044 55.490, 954.739 56.058, 948.748 62.029 C 946.685 64.086, 944.714 67.180, 944.369 68.905 C 943.527 73.116, 942 73.867, 942 70.070 C 942 62.281, 948.441 51.584, 955.688 47.337 C 959.033 45.377, 959.924 44.337, 959.475 42.920 C 958.609 40.193, 960.674 30.305, 963.198 25.091 C 965.724 19.874, 973.170 12, 975.579 12 C 976.769 12, 976.410 12.749, 974.254 14.762 C 969.510 19.195, 967.678 23.629, 968.327 29.110 C 969.379 37.992, 975.674 47.260, 981.814 48.965 C 993.500 52.211, 1002.001 47.471, 1005.475 35.771 C 1008.098 26.940, 1006.846 19.659, 1001.778 14.264 C 998.948 11.251, 1001.089 11.363, 1004.719 14.417 C 1010.157 18.993, 1016 33.083, 1016 41.621 C 1016 43.968, 1016.821 45.513, 1019.077 47.411 C 1020.769 48.835, 1022.569 50, 1023.077 50 C 1023.616 50, 1024 39.615, 1024 25 L 1024 0 970.109 -0 L 916.219 -0 915.818 3.431 M 985.994 36.018 C 982.551 36.950, 976.997 39.893, 977.015 40.776 C 977.024 41.174, 977.442 42.149, 977.944 42.943 C 978.688 44.120, 979.340 44.166, 981.475 43.193 C 984.645 41.749, 989.952 41.651, 993.426 42.972 C 996.649 44.197, 999 43.335, 999 40.928 C 999 37.764, 990.875 34.697, 985.994 36.018 M 967.006 62.191 C 967.023 69.512, 971.547 76, 976.635 76 C 979.782 76, 979.617 74.960, 975.908 71.437 C 974.208 69.822, 971.964 66.843, 970.923 64.818 C 968.551 60.208, 966.998 59.166, 967.006 62.191 M 1003.499 67.002 C 1002.567 69.809, 1000.948 72.640, 999.902 73.293 C 998.856 73.947, 998 75.284, 998 76.266 C 998 77.916, 998.221 77.937, 1000.912 76.546 C 1005.474 74.187, 1008.144 70.149, 1007.799 66.131 C 1007.347 60.872, 1005.405 61.266, 1003.499 67.002 M 988.016 67.819 C 982.842 68.187, 982.084 68.992, 982.688 73.471 C 983.330 78.241, 977.887 89.288, 973.584 91.948 C 968.694 94.970, 961.365 94.730, 956.390 91.384 L 952.500 88.769 955 91.479 C 958.409 95.176, 962.141 96.965, 968.651 98.025 C 974.515 98.979, 982.347 97.971, 986.965 95.668 C 989.176 94.564, 990.275 94.567, 993.502 95.684 C 1004.049 99.336, 1013.906 98.032, 1019.099 92.300 L 1021.500 89.650 1017.882 91.825 C 1013.697 94.341, 1008.121 94.631, 1004.082 92.542 C 999.567 90.208, 995.048 82.170, 993.840 74.328 C 993.262 70.573, 992.724 67.500, 992.644 67.500 C 992.565 67.500, 990.482 67.644, 988.016 67.819 M 460.951 112.362 C 452.017 114.771, 444.051 121.993, 438.815 132.431 C 437.692 134.669, 432.838 143.250, 428.029 151.500 C 418.967 167.046, 404.277 193.275, 391.063 217.500 C 386.863 225.200, 380.013 237.350, 375.841 244.500 C 363.546 265.572, 355.490 279.957, 351.100 288.672 C 348.837 293.166, 344.176 301.530, 340.742 307.257 C 337.309 312.984, 332.250 321.812, 329.500 326.874 C 326.750 331.936, 322.964 338.648, 321.087 341.789 C 319.210 344.930, 314.012 354.025, 309.536 362 C 305.060 369.975, 297.306 383.475, 292.304 392 C 287.302 400.525, 279.871 413.350, 275.792 420.500 C 271.712 427.650, 265.292 438.900, 261.524 445.500 C 257.756 452.100, 251.204 463.350, 246.964 470.500 C 238.861 484.165, 222.858 512.191, 211.219 533.102 C 207.423 539.921, 201.924 549.550, 198.999 554.500 C 196.074 559.450, 191.084 568.501, 187.910 574.613 C 184.736 580.725, 178.121 592.200, 173.209 600.113 C 168.297 608.026, 162.878 617.274, 161.168 620.663 C 159.458 624.053, 153.229 634.401, 147.325 643.657 C 127.614 674.565, 123.428 684.353, 124.255 697.603 C 125.101 711.166, 130.483 719.651, 141.764 725.205 L 148.458 728.500 472.979 729 C 651.465 729.275, 799.300 729.140, 801.500 728.700 C 803.700 728.261, 808.578 726.079, 812.340 723.853 C 822.865 717.622, 828.662 707.966, 829.656 695.008 C 830.492 684.113, 830.004 683.064, 805.251 642.500 C 799.545 633.150, 794.476 624.825, 793.987 624 C 782.465 604.568, 765.731 576.734, 757.613 563.500 C 751.878 554.150, 743.242 539.975, 738.421 532 C 733.601 524.025, 726.444 512.325, 722.517 506 C 718.590 499.675, 712.751 490, 709.542 484.500 C 706.332 479, 701.357 470.675, 698.485 466 C 695.613 461.325, 689.997 451.875, 686.006 445 C 676.288 428.261, 673.713 423.907, 663.828 407.500 C 659.189 399.800, 652.127 387.650, 648.135 380.500 C 644.142 373.350, 639.606 365.475, 638.054 363 C 636.503 360.525, 626.340 343.200, 615.470 324.500 C 604.600 305.800, 594.494 288.700, 593.012 286.500 C 591.531 284.300, 587.298 276.922, 583.607 270.105 C 579.916 263.287, 575.627 255.862, 574.076 253.605 C 569.770 247.337, 553.875 220.614, 548.437 210.500 C 545.775 205.550, 540.190 196.100, 536.024 189.500 C 531.859 182.900, 526.935 174.575, 525.081 171 C 521.956 164.972, 518.739 159.338, 511.950 148 C 510.468 145.525, 507.805 140.575, 506.034 137 C 498.814 122.434, 489.573 114.045, 478.566 112.067 C 471.124 110.729, 466.733 110.802, 460.951 112.362 M 987.263 163.261 C 986.733 163.942, 983.050 170.279, 979.078 177.342 C 975.107 184.404, 970.374 192.504, 968.560 195.342 C 964.803 201.217, 951 228.450, 951 229.987 C 951 230.653, 963.513 231, 987.500 231 L 1024 231 1024 226.436 C 1024 222.505, 1022.773 219.770, 1015.143 206.686 C 1010.271 198.334, 1002.580 185.089, 998.052 177.253 C 993.524 169.417, 989.460 162.785, 989.023 162.514 C 988.585 162.243, 987.793 162.580, 987.263 163.261 M 984.726 183.250 C 983.917 185.544, 985.244 205.481, 986.294 206.801 C 986.863 207.516, 988.492 207.966, 989.914 207.801 C 992.465 207.504, 992.512 207.349, 993.359 196.255 C 993.831 190.071, 993.958 184.333, 993.640 183.505 C 992.921 181.630, 985.373 181.414, 984.726 183.250 M 466.294 199.687 C 463.556 203.984, 460.039 209.750, 458.480 212.500 C 456.921 215.250, 451.523 224.475, 446.484 233 C 427.975 264.318, 422.547 273.725, 417.052 284 C 413.964 289.775, 409.593 297.425, 407.338 301 C 402.488 308.690, 387.930 333.968, 383.437 342.500 C 381.700 345.800, 377.919 352.550, 375.036 357.500 C 372.152 362.450, 364.394 375.950, 357.794 387.500 C 351.194 399.050, 345.443 408.950, 345.012 409.500 C 344.582 410.050, 339.601 418.825, 333.943 429 C 328.285 439.175, 321.654 451.100, 319.207 455.500 C 316.760 459.900, 313.971 464.625, 313.010 466 C 312.048 467.375, 308.782 472.775, 305.750 478 C 302.719 483.225, 297.691 491.713, 294.576 496.862 C 291.461 502.010, 287.298 509.435, 285.325 513.362 C 283.351 517.288, 280.510 522.300, 279.011 524.500 C 277.512 526.700, 273.232 534.125, 269.500 541 C 265.768 547.875, 261.316 555.525, 259.607 558 C 257.898 560.475, 253.760 567.450, 250.411 573.500 C 242.246 588.248, 228.014 613.317, 224.295 619.500 C 222.640 622.250, 218.593 629.225, 215.300 635 C 212.007 640.775, 205.898 651.343, 201.725 658.486 C 197.552 665.628, 194.230 671.563, 194.342 671.675 C 194.506 671.839, 311.313 671.909, 336 671.759 C 339.575 671.737, 436.080 671.766, 550.454 671.822 C 664.829 671.878, 758.612 671.721, 758.861 671.473 C 759.109 671.224, 757.817 668.654, 755.989 665.761 C 754.161 662.867, 748.298 653.075, 742.960 644 C 733.172 627.359, 725.205 614.026, 715.175 597.500 C 712.170 592.550, 706.776 583.550, 703.189 577.500 C 699.601 571.450, 694.317 562.900, 691.447 558.500 C 688.577 554.100, 685.212 548.475, 683.970 546 C 681.264 540.607, 665.762 514.367, 655.022 497 C 650.770 490.125, 645.592 481.350, 643.514 477.500 C 641.436 473.650, 636.708 465.775, 633.005 460 C 629.303 454.225, 623.205 444.100, 619.453 437.500 C 605.340 412.673, 599.083 401.980, 596.226 397.804 C 594.606 395.437, 592.485 391.925, 591.512 390 C 590.539 388.075, 586.426 381.498, 582.372 375.385 C 578.317 369.272, 575 363.985, 575 363.637 C 575 362.430, 564.756 344.458, 559.533 336.500 C 556.644 332.100, 552.579 325.350, 550.499 321.500 C 545.834 312.869, 540.253 303.483, 537.417 299.500 C 536.242 297.850, 532.665 291.775, 529.468 286 C 522.059 272.613, 512.896 257.303, 486.974 215 C 483.772 209.773, 473.444 194.418, 471.967 192.687 C 471.586 192.240, 469.033 195.390, 466.294 199.687 M 985.278 214.250 C 983.248 216.874, 982.989 219.334, 984.500 221.641 C 988.451 227.670, 996.407 221.366, 992.965 214.934 C 991.780 212.720, 986.804 212.278, 985.278 214.250 M 471.200 234.200 C 470.540 234.860, 470 235.802, 470 236.294 C 470 236.786, 466.469 243.109, 462.154 250.344 C 457.838 257.580, 451.479 268.675, 448.022 275 C 444.565 281.325, 439.567 290.127, 436.916 294.561 C 434.264 298.994, 431.595 303.944, 430.985 305.561 C 429.633 309.141, 410.462 342.617, 395.596 367.355 C 381.433 390.922, 362.697 422.985, 356.067 435 C 353.183 440.225, 347.706 449.675, 343.894 456 C 340.083 462.325, 336.552 468.462, 336.049 469.638 C 335.546 470.814, 332.263 476.889, 328.753 483.138 C 325.243 489.387, 319.296 500.125, 315.536 507 C 311.777 513.875, 305.453 524.907, 301.483 531.515 C 297.514 538.123, 291.112 549.598, 287.258 557.015 C 280.268 570.465, 270.176 587.918, 265.006 595.500 C 263.506 597.700, 259.651 604.450, 256.440 610.500 C 253.229 616.550, 247.124 626.972, 242.873 633.660 C 235.045 645.976, 231.588 652.027, 232.176 652.380 C 232.354 652.487, 259.500 652.211, 292.500 651.768 C 325.500 651.324, 435.616 651.083, 537.201 651.231 L 721.903 651.500 720.278 649 C 719.384 647.625, 716.181 642.675, 713.160 638 C 710.138 633.325, 706.473 627.700, 705.014 625.500 C 703.556 623.300, 700.865 618.803, 699.035 615.506 C 697.205 612.209, 693.452 606.134, 690.696 602.006 C 687.939 597.878, 684.252 592.025, 682.502 589 C 667.452 562.983, 663.353 556.060, 658.708 548.813 C 655.777 544.241, 650.993 536, 648.077 530.500 C 645.161 525, 637.937 512.625, 632.024 503 C 620.169 483.704, 608.392 464.044, 603 454.548 C 601.075 451.157, 597.324 444.810, 594.665 440.442 C 592.005 436.074, 586.120 425.975, 581.587 418 C 569.166 396.149, 562.971 385.664, 561.498 384 C 560.768 383.175, 556.911 376.650, 552.929 369.500 C 548.946 362.350, 543.584 353.350, 541.014 349.500 C 537.002 343.491, 528.598 329.010, 510.405 296.760 C 508.152 292.767, 503.181 284.325, 499.357 278 C 495.533 271.675, 490.205 262.450, 487.516 257.500 C 484.828 252.550, 480.928 245.868, 478.850 242.650 C 476.772 239.433, 474.800 235.945, 474.468 234.900 C 473.771 232.703, 472.887 232.513, 471.200 234.200 M 973.351 280.565 C 966.967 283.655, 960.613 290.420, 957.302 297.652 C 955.161 302.329, 954.858 304.154, 955.286 309.827 C 955.562 313.497, 956.114 317.512, 956.511 318.750 C 957.123 320.658, 956.869 321, 954.839 321 C 950.229 321, 942.038 328.119, 938.354 335.328 C 935.589 340.740, 934.406 348.021, 935.417 353.409 C 936.274 357.978, 938 358.082, 938 353.565 C 938 344.012, 945.427 334.983, 955.219 332.631 C 960.307 331.408, 967.035 333.759, 972.156 338.549 C 974.773 340.997, 977.384 343, 977.957 343 C 978.533 343, 979 340.895, 979 338.298 C 979 334.375, 979.524 333.055, 982.156 330.339 C 985.903 326.473, 985.106 324.618, 979.223 323.514 C 970.609 321.898, 963.979 309.656, 965.986 299.072 C 967.258 292.365, 969.762 288.299, 976.163 282.544 C 981.819 277.458, 980.984 276.871, 973.351 280.565 M 979.693 307.972 C 971.902 311.016, 970.336 313.193, 973.595 316.452 C 975.054 317.911, 975.467 317.875, 978.463 316.023 C 982.410 313.584, 988.996 313.382, 995.041 315.514 C 1000.037 317.277, 1002.628 316.749, 1003.571 313.775 C 1004.414 311.121, 1002.324 309.471, 995.586 307.470 C 989.155 305.560, 985.576 305.673, 979.693 307.972 M 1009.392 333.850 C 1006.582 334.716, 996.229 343.090, 995.537 345.056 C 995.235 345.911, 994.924 350.031, 994.844 354.212 C 994.719 360.807, 995.055 362.418, 997.389 366.400 C 1001.636 373.647, 1009.007 376.277, 1018.613 373.973 L 1024 372.681 1024 353.447 C 1024 336.832, 1023.785 334.131, 1022.418 333.607 C 1020.416 332.839, 1012.171 332.992, 1009.392 333.850 M 1011.267 337.250 C 1010.730 337.938, 1009.138 341.058, 1007.730 344.185 C 1005.999 348.030, 1004.017 350.619, 1001.607 352.185 C 997.660 354.749, 996.762 356.215, 997.675 358.596 C 998.482 360.699, 1002.945 359.836, 1007.107 356.773 C 1012.900 352.509, 1017.258 342.218, 1015.031 338.059 C 1013.769 335.700, 1012.665 335.463, 1011.267 337.250 M 960.316 342.022 C 961.437 351.488, 968.751 360.507, 974.748 359.817 C 979.207 359.304, 978.845 355.955, 974.036 353.229 C 969.726 350.785, 966.991 346.592, 966.059 341 C 965.568 338.052, 965.021 337.448, 962.589 337.169 L 959.702 336.838 960.316 342.022 M 439.379 342.750 C 440.169 347.369, 442.487 372.391, 443.989 392.500 C 444.605 400.750, 445.303 409.525, 445.541 412 C 445.779 414.475, 446.434 422.575, 446.997 430 C 447.560 437.425, 448.214 444.400, 448.451 445.500 C 448.687 446.600, 449.151 450.650, 449.481 454.500 C 449.810 458.350, 450.254 462.850, 450.465 464.500 C 452.369 479.334, 454.162 494.961, 454.768 502 L 455.500 510.500 472.175 510.774 C 487.411 511.024, 488.896 510.895, 489.385 509.274 C 490.683 504.971, 494.089 481.935, 496.006 464.500 C 497.949 446.826, 499.758 430.957, 502.050 411.500 C 502.886 404.405, 507 345.715, 507 340.889 C 507 339.074, 505.663 339, 472.869 339 L 438.738 339 439.379 342.750 M 971.905 418.487 C 969.377 419.804, 965.066 423.335, 962.325 426.335 C 955.580 433.715, 953.509 440.256, 954.313 451.644 C 954.807 458.647, 954.661 460, 953.411 460 C 952.591 460, 950.195 460.880, 948.086 461.956 C 938.455 466.869, 932.228 480.739, 934.416 492.402 C 935.342 497.339, 936.603 496.913, 937.357 491.409 C 939.931 472.633, 957.419 465.372, 973.587 476.367 L 977.500 479.028 978.142 475.923 C 978.496 474.215, 980.265 471.290, 982.074 469.424 C 983.883 467.557, 985.169 465.878, 984.932 465.692 C 984.694 465.507, 982.250 464.541, 979.500 463.546 C 973.087 461.226, 969.704 458.033, 966.882 451.632 C 961.392 439.180, 966.501 425.354, 979.566 417.309 C 983.440 414.923, 976.779 415.948, 971.905 418.487 M 978.500 446.603 C 976.300 447.397, 973.438 448.863, 972.140 449.861 C 969.854 451.618, 969.831 451.773, 971.416 454.837 C 972.315 456.577, 973.208 458, 973.400 458 C 973.591 458, 975.942 456.772, 978.624 455.270 C 985.149 451.617, 992.671 451.524, 998.847 455.018 L 1003.195 457.478 1005.130 455.088 C 1007.052 452.714, 1007.050 452.682, 1004.841 450.331 C 1000.319 445.517, 986.803 443.604, 978.500 446.603 M 1023.232 455 C 1023.232 456.925, 1023.438 457.712, 1023.689 456.750 C 1023.941 455.788, 1023.941 454.212, 1023.689 453.250 C 1023.438 452.288, 1023.232 453.075, 1023.232 455 M 960.465 477.283 C 959.644 480.555, 961.363 487.238, 964.329 492.299 C 967.342 497.439, 968.455 498.456, 973.267 500.467 C 976.510 501.822, 977.040 501.817, 978.440 500.417 C 980.933 497.925, 980.315 496.455, 975.103 492.480 C 969.646 488.319, 968 485.540, 968 480.488 C 968 478.133, 967.399 476.749, 966.066 476.035 C 962.996 474.392, 961.084 474.818, 960.465 477.283 M 1012.973 476.326 C 1011.323 477.149, 1010.121 479.078, 1009.178 482.419 C 1008.173 485.976, 1006.463 488.587, 1002.898 492.004 C 997.599 497.085, 997.024 498.807, 999.790 501.310 C 1001.393 502.760, 1001.891 502.775, 1004.540 501.452 C 1011.221 498.116, 1017 487.908, 1017 479.444 C 1017 475.413, 1016.140 474.747, 1012.973 476.326 M 462.198 539.619 C 456.895 541.569, 446.837 550.721, 443.204 556.900 C 440.695 561.169, 440.504 562.293, 440.557 572.500 C 440.623 585.320, 442.490 591.361, 449.175 600.383 C 454.102 607.034, 458.447 609.085, 469.033 609.755 C 478.273 610.340, 486.473 608.743, 491.616 605.357 C 506.365 595.647, 512.718 571.606, 504.183 557.797 C 500.800 552.322, 491.760 544.505, 485.248 541.422 C 478.102 538.039, 468.529 537.290, 462.198 539.619 M 984.583 573.250 C 981.037 576.833, 973.652 589.108, 963.977 607.500 C 960.506 614.100, 956.914 620.625, 955.997 622 C 955.079 623.375, 951.484 629.900, 948.007 636.500 C 944.530 643.100, 941.084 649.625, 940.349 651 C 938.355 654.729, 938.711 657.802, 941.455 660.545 L 943.909 663 983.955 663 L 1024 663 1024 659.512 L 1024 656.024 986.750 655.762 L 949.500 655.500 949.175 652.662 C 948.996 651.100, 949.509 649.075, 950.313 648.162 C 951.118 647.248, 953.932 642.450, 956.567 637.500 C 959.201 632.550, 962.557 626.700, 964.023 624.500 C 965.490 622.300, 968.623 616.900, 970.985 612.500 C 973.347 608.100, 975.596 604.050, 975.982 603.500 C 976.368 602.950, 977.432 600.573, 978.346 598.218 C 980.356 593.045, 987.837 581, 989.042 581 C 990.467 581, 995.423 588.867, 1000.978 599.946 C 1006.678 611.315, 1017.904 631.427, 1021.651 636.982 L 1024 640.464 1024 632.334 C 1024 624.648, 1023.787 623.854, 1020.100 617.785 C 1017.955 614.254, 1013.625 606.220, 1010.478 599.932 C 1004.961 588.908, 995.331 573.835, 992.154 571.250 C 989.752 569.295, 988.054 569.744, 984.583 573.250 M 984.570 595.326 C 982.914 596.536, 982.792 598.109, 983.162 613.431 C 983.529 628.639, 983.749 630.343, 985.514 631.634 C 987.375 632.995, 992.545 632.703, 994.174 631.145 C 994.544 630.790, 994.994 622.929, 995.174 613.676 C 995.478 597.971, 995.371 596.758, 993.559 595.426 C 991.124 593.637, 986.942 593.590, 984.570 595.326 M 983.455 638.455 C 980.138 641.771, 980.341 645.187, 984.077 648.923 C 987.861 652.707, 990.545 652.810, 994.195 649.313 C 997.778 645.880, 997.838 642.110, 994.364 638.636 C 990.973 635.245, 986.734 635.175, 983.455 638.455 M 983.263 723.250 C 979.029 729.913, 942.288 798.835, 938.962 806.352 C 936.738 811.380, 937.411 815.079, 940.886 816.939 C 942.190 817.637, 956.753 818, 983.434 818 L 1024 818 1024 814 L 1024 810 986.059 810 C 961.523 810, 947.897 809.642, 947.492 808.987 C 946.888 808.009, 955.133 791.899, 968.471 768 C 972.001 761.675, 977.951 750.328, 981.694 742.784 C 985.437 735.240, 988.797 729.052, 989.160 729.034 C 990.337 728.974, 997.631 741.301, 1003.369 753.046 C 1009.112 764.801, 1021.243 786.643, 1023.010 788.410 C 1024.287 789.687, 1024.371 773.790, 1023.094 772.450 C 1022.596 771.927, 1018.278 763.850, 1013.498 754.500 C 1004.844 737.571, 996.044 722.080, 993.190 718.750 C 990.254 715.325, 987.509 716.569, 983.263 723.250 M 983.962 750.545 C 983.034 751.663, 982.741 755.742, 982.903 765.295 C 983.192 782.377, 983.763 785.088, 987.319 786.273 C 992.028 787.843, 994.650 786.535, 995.356 782.264 C 996.505 775.309, 996.093 751.493, 994.800 750.200 C 993.048 748.448, 985.503 748.689, 983.962 750.545 M 984.174 792.314 C 979.758 797.016, 983.148 805.250, 989.500 805.250 C 996.390 805.250, 999.615 795.998, 994.096 792.068 C 990.298 789.364, 986.866 789.449, 984.174 792.314 M 460.830 816.940 C 452.212 817.248, 444.852 817.810, 444.475 818.189 C 444.098 818.567, 444.103 821.583, 444.487 824.889 C 445.088 830.069, 445.414 830.780, 446.842 830.020 C 449.338 828.694, 474.925 827.318, 476.053 828.450 C 476.649 829.048, 477 826.918, 477 822.700 C 477 819.015, 476.887 816.085, 476.750 816.190 C 476.613 816.294, 469.449 816.632, 460.830 816.940 M 380.998 821.121 C 381 824.694, 381.064 824.750, 385.750 825.317 C 390.912 825.941, 392.066 825.815, 402.441 823.500 C 409.462 821.933, 411.763 821, 408.608 821 C 407.659 821, 407.152 820.563, 407.482 820.029 C 408.371 818.590, 404.768 818.054, 392.248 817.762 L 380.996 817.500 380.998 821.121 M 411 821.500 C 411 822.325, 411.450 823, 412 823 C 412.550 823, 413 822.325, 413 821.500 C 413 820.675, 412.550 820, 412 820 C 411.450 820, 411 820.675, 411 821.500 M 7.500 867.447 C 6.950 867.655, 5.263 868.098, 3.750 868.432 L 1 869.038 1.047 899.269 L 1.093 929.500 3.590 924.702 C 4.964 922.063, 6.901 916.646, 7.896 912.665 C 8.891 908.683, 11.391 900.943, 13.451 895.463 C 16.552 887.214, 17.223 884.096, 17.348 877.343 C 17.432 872.856, 17.258 868.939, 16.962 868.639 C 16.246 867.909, 8.767 866.968, 7.500 867.447 M 689.240 869.054 C 684.435 871.496, 681.641 874.932, 679.479 881.060 C 677.394 886.969, 677.594 890.563, 681.068 909.647 C 684.477 928.369, 688.884 942.588, 692.104 945.250 C 696.292 948.711, 703.832 946.968, 706.966 941.815 C 709.361 937.878, 715.765 911.719, 717.219 899.935 C 719.080 884.863, 716.566 876.122, 708.570 869.865 C 704.299 866.522, 694.993 866.132, 689.240 869.054 M 953.962 871.249 C 952.608 871.739, 949.322 874.696, 946.660 877.820 L 941.821 883.500 942.185 890.848 C 942.676 900.769, 943.052 901, 958.691 901 L 971 901 971 893.468 C 971 884.733, 969.614 880.792, 964.584 875.224 C 960.689 870.913, 957.839 869.847, 953.962 871.249 M 996.398 875.445 C 993.107 878.879, 991.980 880.947, 991.442 884.541 C 990.560 890.419, 991.550 899.097, 993.224 900.159 C 994.951 901.255, 1014.743 901.225, 1015.422 900.126 C 1015.720 899.645, 1016.253 896.132, 1016.607 892.319 C 1017.350 884.322, 1016.113 880.935, 1010.187 874.750 C 1005.149 869.491, 1001.948 869.653, 996.398 875.445 M 47.544 874.954 C 45.092 877.514, 44.958 878.234, 44.735 890.071 C 44.606 896.907, 44.613 922.232, 44.750 946.350 L 45 990.200 48.321 993.521 L 51.641 996.841 92.071 996.306 C 117.369 995.970, 137.139 996.174, 144.896 996.849 C 156.538 997.863, 157.457 997.811, 160.022 995.984 C 166.070 991.678, 166 992.412, 166 933.115 L 166 879.032 163.238 875.940 L 160.476 872.849 105.297 872.558 L 50.118 872.267 47.544 874.954 M 544.066 878.768 C 541.443 881.506, 537.204 887.996, 534.105 894.018 C 524.737 912.222, 513.150 932.816, 500.198 954.283 C 489.065 972.736, 487.609 975.674, 487.209 980.490 C 486.795 985.484, 487.001 986.154, 489.803 988.957 C 493.441 992.595, 487.268 992.305, 557.785 992.147 C 589.964 992.075, 609.769 991.659, 610.946 991.029 C 613.393 989.719, 617 983.840, 617 981.160 C 617 977.579, 612.527 968.699, 603.215 953.789 C 598.297 945.916, 591.020 933.448, 587.045 926.083 C 580.421 913.811, 569.913 896.170, 560.655 881.778 C 554.563 872.307, 550.892 871.641, 544.066 878.768 M 263.066 885.585 C 257.890 891.313, 253.282 896, 252.827 896 C 252.372 896, 252 896.707, 252 897.571 C 252 899.093, 245.228 906.193, 233.959 916.486 C 230.956 919.228, 227.651 922.527, 226.614 923.817 L 224.728 926.161 232.614 925.595 C 236.951 925.284, 245.302 924.757, 251.170 924.424 L 261.841 923.818 268.670 915.724 C 272.427 911.272, 281.917 900.877, 289.760 892.625 C 297.604 884.373, 303.679 877.312, 303.260 876.935 C 302.842 876.557, 295.745 876.006, 287.489 875.709 L 272.479 875.169 263.066 885.585 M 391 876.886 C 376.912 881.442, 368.228 887.601, 359.474 899.246 C 352.321 908.761, 350.192 912.960, 347.900 922.070 C 344.560 935.344, 346.353 952.826, 352.300 964.976 C 355.139 970.776, 368.111 984.416, 373.960 987.750 C 376.457 989.174, 379.175 990.889, 380 991.563 C 380.825 992.236, 385.536 993.788, 390.468 995.013 C 406.926 999.098, 425.394 996.615, 439.687 988.397 C 446.809 984.302, 459.372 971.023, 462.877 963.885 C 468.459 952.520, 470.712 931.990, 467.639 920.500 C 464.659 909.361, 456.851 897.781, 446.930 889.787 C 439.457 883.765, 427.592 877.702, 420.201 876.128 C 412.167 874.418, 397.451 874.800, 391 876.886 M 217.500 877.866 C 213.767 880.060, 197.369 899.312, 195.367 903.852 C 194.554 905.695, 193.622 910.982, 193.296 915.602 L 192.703 924 200.601 923.930 C 204.946 923.891, 209.231 923.554, 210.125 923.180 C 211.019 922.806, 214.169 919.622, 217.125 916.105 C 220.081 912.588, 228.964 902.552, 236.865 893.803 C 244.766 885.055, 251.066 877.756, 250.865 877.583 C 250.664 877.410, 243.750 877.006, 235.500 876.686 C 222.303 876.173, 220.139 876.315, 217.500 877.866 M 314.314 886.506 C 311.520 888.951, 305.751 895.237, 301.494 900.475 C 297.237 905.714, 293.421 910, 293.014 910 C 291.869 910, 286.921 915.157, 284.859 918.500 C 281.247 924.353, 281.499 924.473, 297.920 924.763 L 312.839 925.027 316.396 919.171 L 319.954 913.315 320.056 898.070 C 320.113 889.686, 319.987 882.654, 319.777 882.444 C 319.567 882.234, 317.109 884.062, 314.314 886.506 M 836.374 885.143 C 835.205 885.721, 832.094 890.088, 829.460 894.847 C 826.826 899.606, 822.770 906.425, 820.446 910 C 814.878 918.566, 807.044 932.028, 803.281 939.500 C 798.879 948.241, 789.761 964.726, 786.134 970.500 C 784.406 973.250, 782.078 977.403, 780.959 979.728 C 779.059 983.678, 779.030 984.157, 780.511 987.021 C 781.383 988.707, 783.212 990.510, 784.575 991.029 C 787.884 992.287, 889.088 992.297, 892.395 991.040 C 895.592 989.825, 898.333 985.648, 898.333 981.994 C 898.333 980.126, 893.852 971.634, 885.315 957.323 C 878.154 945.320, 869.006 929.200, 864.986 921.500 C 858.869 909.786, 846.271 888.262, 844.103 885.821 C 842.928 884.497, 838.470 884.106, 836.374 885.143 M 102.241 887.250 C 97.140 893.602, 93.380 908.238, 94.470 917.500 C 95.054 922.464, 95.048 922.478, 93.628 919.370 C 92.231 916.313, 90 914.062, 90 915.709 C 90 916.164, 91.115 918.177, 92.479 920.184 C 95.757 925.007, 100.053 937.983, 100.303 943.817 C 100.519 948.840, 101.759 949.779, 106.579 948.570 C 108.521 948.082, 109 947.317, 109 944.703 C 109 942.911, 109.619 940.557, 110.377 939.473 C 112.308 936.706, 118 918.559, 118 915.170 C 118 911.138, 115.251 902.452, 111.775 895.500 C 107.238 886.424, 104.681 884.212, 102.241 887.250 M 389.796 889.933 C 383.736 892.302, 380.118 895.005, 372.308 903 C 361.303 914.265, 356.728 928.174, 358.836 943.954 C 360.309 954.980, 363.696 961.785, 371.526 969.446 C 382.986 980.659, 393.339 985, 408.621 985 C 429.930 985, 445.369 973.375, 453.976 950.851 C 458.185 939.835, 457.562 929.072, 452.030 917.249 C 446.795 906.064, 431.765 892.840, 420.397 889.419 C 413.384 887.308, 395.751 887.604, 389.796 889.933 M 414 895.218 C 414 895.927, 415.567 898.711, 417.483 901.406 C 422.961 909.110, 423.384 917.117, 418.606 922.671 L 416.301 925.351 413.246 923.175 C 409.686 920.640, 405.093 920.384, 401.014 922.493 C 397.289 924.419, 395.801 923.770, 393.158 919.068 C 389.399 912.380, 390.802 905.293, 397.279 898.250 C 400.399 894.858, 397.244 895.316, 392.169 898.992 C 384.463 904.575, 380.355 914.018, 381.620 923.244 L 382.219 927.618 378.245 928.808 C 370.322 931.182, 364.662 938.379, 363.449 947.622 C 362.509 954.782, 364.190 955.171, 368.301 948.744 C 374.958 938.337, 379.510 936.394, 390.807 939.141 C 396.052 940.416, 398.539 942.208, 400.602 946.198 C 405.316 955.312, 397.765 966.827, 387.787 965.741 C 385.429 965.484, 382.038 964.794, 380.250 964.207 C 378.462 963.620, 377 963.540, 377 964.029 C 377 965.642, 382.423 969.984, 385.848 971.115 C 390.996 972.814, 400.059 971.807, 403.838 969.116 L 407.045 966.832 410.696 970.038 C 414.181 973.098, 414.647 973.222, 420.924 972.772 C 428.072 972.259, 435.259 969.253, 436.967 966.062 C 438.530 963.142, 438.226 962.728, 435.777 964.443 C 432.457 966.769, 422.933 966.522, 419.762 964.027 C 415.372 960.574, 413.628 955.421, 413.491 945.500 C 413.338 934.347, 411.835 930.631, 407.302 930.191 C 405.088 929.976, 403.466 930.534, 401.976 932.024 C 399.131 934.869, 399.997 935.483, 403.788 933.307 C 406.725 931.621, 406.930 931.626, 408.923 933.431 C 410.074 934.472, 410.965 936.467, 410.921 937.905 C 410.878 939.332, 410.620 939.951, 410.347 939.279 C 409.958 938.318, 409.572 938.318, 408.531 939.279 C 407.805 939.951, 407.385 940.789, 407.598 941.143 C 408.332 942.360, 402.957 943.047, 400.979 941.989 C 399.600 941.251, 399 939.894, 399 937.512 C 399 930.753, 402.516 927, 408.847 927 C 412.447 927, 414 928.673, 414 932.551 C 414 936.675, 415.888 942.001, 417.348 941.995 C 417.982 941.992, 420.300 940.881, 422.500 939.526 C 424.700 938.171, 427.760 937.048, 429.300 937.031 C 434.886 936.969, 440.989 941.925, 444.876 949.682 C 447.430 954.779, 448.736 955.693, 450.683 953.745 C 452.005 952.423, 451.978 951.551, 450.440 946.071 C 448.141 937.878, 441.948 930.808, 435.070 928.523 L 430.198 926.905 430.737 920.959 C 431.446 913.142, 429.244 907.410, 423.113 901.116 C 417.722 895.582, 414 893.173, 414 895.218 M 545.400 909.512 C 543.920 911.771, 543.868 913.720, 544.877 928.890 C 545.495 938.166, 546 946.904, 546 948.307 C 546 952.217, 548.485 954, 553.932 954 L 558.721 954 559.352 948.750 C 559.699 945.862, 559.987 935.288, 559.991 925.250 L 560 907 553.523 907 C 547.710 907, 546.877 907.257, 545.400 909.512 M 834.199 916.303 C 832.009 919.769, 828.107 926.809, 825.527 931.946 C 821.423 940.118, 809.699 961.138, 803.047 972.250 L 800.802 976 822.151 976.045 C 858.831 976.123, 875.405 975.928, 875.920 975.414 C 876.473 974.861, 872.450 967.280, 864.027 953 C 860.945 947.775, 856.190 938.564, 853.461 932.531 C 848.865 922.369, 840.929 910, 839.005 910 C 838.551 910, 836.388 912.836, 834.199 916.303 M 282.750 912.662 C 283.438 912.940, 284.563 912.940, 285.250 912.662 C 285.938 912.385, 285.375 912.158, 284 912.158 C 282.625 912.158, 282.063 912.385, 282.750 912.662 M 947.974 919.750 L 941.771 926.500 942.342 933.429 C 943.195 943.775, 944.133 944.419, 958.964 944.832 L 970.878 945.165 971.569 941.484 C 973.319 932.156, 970.059 921.893, 963.524 916.155 C 957.851 911.174, 955.317 911.760, 947.974 919.750 M 996.964 917.844 C 994.055 920.861, 991.696 924.415, 991.078 926.709 C 989.839 931.313, 991.064 940.493, 993.204 942.633 C 995.060 944.489, 1004.069 945.370, 1010 944.275 C 1015.181 943.319, 1016.756 941.044, 1017.619 933.271 C 1018.080 929.115, 1017.720 927.802, 1014.824 923.081 C 1011.406 917.509, 1008.253 914.673, 1004.159 913.486 C 1002.233 912.928, 1000.958 913.700, 996.964 917.844 M 836 919.909 L 833.500 920.618 833.789 936.504 C 833.963 946.002, 834.514 952.915, 835.162 953.695 C 835.758 954.413, 838.194 955, 840.577 955 C 844.697 955, 844.933 954.841, 845.402 951.750 C 845.672 949.962, 846.138 942.326, 846.438 934.780 C 846.946 921.957, 846.856 920.993, 845.057 920.030 C 842.913 918.883, 839.764 918.841, 836 919.909 M 125.159 928.475 C 122.904 930.512, 119.876 934.599, 118.429 937.556 L 115.798 942.933 120.700 947.717 C 123.397 950.347, 126.445 953.930, 127.475 955.679 C 129.194 958.598, 132.209 960.457, 133.360 959.307 C 134.026 958.641, 128.336 946.826, 126.930 945.957 C 125.822 945.272, 132.698 943.822, 143.733 942.415 C 150.892 941.501, 151.639 940.263, 148.008 935.326 C 144.120 930.039, 138.091 925.956, 133.202 925.300 C 129.702 924.831, 128.798 925.188, 125.159 928.475 M 72.500 927.224 C 69.573 928.265, 62.233 933.425, 60.765 935.474 C 58.466 938.685, 62.377 941.244, 71.500 942.496 C 74.250 942.874, 78.237 943.622, 80.359 944.159 L 84.218 945.136 83.607 951.818 C 83.097 957.389, 83.203 958.177, 84.247 956.559 C 85.851 954.074, 89.046 950.987, 92.378 948.703 C 93.820 947.715, 95 946.010, 95 944.913 C 95 941.347, 91.210 935.374, 85.942 930.637 C 80.518 925.761, 78.242 925.183, 72.500 927.224 M 387 944.067 C 387 947.156, 387.716 948.797, 390.250 951.512 C 394.199 955.744, 398.337 956.588, 398.815 953.259 C 399.252 950.215, 393.469 942.359, 389.868 941.104 C 387.025 940.113, 387 940.139, 387 944.067 M 422.317 943.241 C 417.965 947.827, 415.940 952.142, 417.137 954.281 C 418.536 956.781, 420.488 956.397, 423.286 953.071 C 426.015 949.829, 427.554 943.813, 426.252 941.485 C 425.562 940.252, 424.854 940.568, 422.317 943.241 M 220.795 943.950 L 205.089 944.500 200.928 948.500 C 194.760 954.429, 194.214 956.446, 193.880 974.517 C 193.595 989.932, 193.966 993, 196.115 993 C 196.663 993, 201.650 988.500, 207.196 983 C 212.742 977.500, 217.634 973, 218.067 973 C 218.499 973, 219.059 973.788, 219.311 974.750 C 219.562 975.712, 219.820 975.046, 219.884 973.269 C 219.975 970.727, 221.913 967.809, 228.976 959.582 C 233.912 953.832, 238.525 948.761, 239.226 948.313 C 239.927 947.866, 241.357 946.487, 242.405 945.250 L 244.310 943 240.405 943.200 C 238.257 943.310, 229.433 943.648, 220.795 943.950 M 273.500 943.750 L 258.500 944.056 254.711 949.917 C 252.628 953.141, 244.732 962.241, 237.165 970.140 C 229.598 978.038, 222.373 985.978, 221.110 987.785 C 217.329 993.195, 218.325 993.759, 231.965 993.936 C 238.626 994.022, 244.749 994.350, 245.571 994.666 C 246.495 995.020, 248.173 993.952, 249.964 991.870 C 262.532 977.254, 271.841 966.919, 280.908 957.513 C 286.734 951.471, 292.088 945.733, 292.807 944.763 C 293.980 943.180, 293.828 943.023, 291.307 943.222 C 289.763 943.344, 281.750 943.582, 273.500 943.750 M 310 944.940 C 310 945.457, 305.139 950.970, 299.199 957.190 C 281.413 975.813, 268 991.017, 268 992.554 C 268 993.753, 270.635 994, 283.396 994 L 298.793 994 302.024 990.250 C 303.801 988.188, 308.572 983.069, 312.627 978.876 L 320 971.252 320 958.233 C 320 943.885, 320.053 944, 313.418 944 C 311.538 944, 310 944.423, 310 944.940 M 1 975.774 L 1 998 7.365 998 C 14.185 998, 18.247 995.987, 19.262 992.106 C 19.838 989.904, 12.583 973.677, 5.590 961.524 L 1 953.548 1 975.774 M 692.479 956.882 C 681.406 959.711, 675.611 974.367, 681.090 985.685 C 683.461 990.583, 688.887 995.477, 693.711 997.070 C 699.136 998.860, 706.928 996.698, 711.214 992.214 C 713.166 990.171, 715.208 987.600, 715.750 986.500 C 720.084 977.715, 716.332 963.422, 708.497 958.866 C 704.959 956.809, 696.746 955.791, 692.479 956.882 M 950.177 961.250 C 947.941 964.138, 945.125 967.336, 943.919 968.357 C 941.912 970.057, 941.776 970.850, 942.298 977.755 C 943.085 988.160, 943.421 988.404, 957.651 988.856 C 966.654 989.141, 969.437 988.919, 970.107 987.862 C 970.581 987.113, 970.976 983.155, 970.985 979.066 C 971.003 970.037, 968.722 964.630, 962.732 959.503 C 957.069 954.655, 955.069 954.934, 950.177 961.250 M 1001.898 958.277 C 1000.029 959.529, 997.038 962.730, 995.250 965.390 C 992.307 969.770, 992 970.929, 992 977.679 C 992 988.990, 992.011 989, 1005.060 989 C 1017.632 989, 1017.133 989.381, 1018.432 978.794 C 1018.991 974.244, 1018.743 972.207, 1017.206 968.734 C 1015.247 964.305, 1008.136 956, 1006.303 956 C 1005.749 956, 1003.767 957.024, 1001.898 958.277 M 833.304 961.488 C 831.719 964.812, 831.711 965.292, 833.199 967.793 C 834.085 969.282, 836.039 971.117, 837.541 971.870 C 839.899 973.053, 840.730 973.022, 843.610 971.649 C 847.908 969.599, 848.850 966.144, 846.304 961.770 C 844.640 958.912, 843.809 958.462, 839.710 958.196 C 835.200 957.903, 834.954 958.029, 833.304 961.488 M 98.589 963.077 C 96.775 965.232, 96 967.318, 96 970.042 C 96 974.835, 97.807 976.005, 105.184 975.986 C 113.257 975.966, 115 975.249, 115 971.948 C 115 964.931, 110.910 960, 105.089 960 C 101.949 960, 100.667 960.607, 98.589 963.077 M 545.571 963.571 C 543.487 965.655, 543.575 970.259, 545.750 972.920 C 547.827 975.461, 553.450 976.565, 557.125 975.153 C 560.036 974.035, 561.569 969.114, 560.426 964.560 C 559.821 962.151, 559.410 962, 553.463 962 C 549.051 962, 546.668 962.474, 545.571 963.571 M 219.158 986 C 219.158 987.375, 219.385 987.938, 219.662 987.250 C 219.940 986.563, 219.940 985.438, 219.662 984.750 C 219.385 984.063, 219.158 984.625, 219.158 986" stroke="none" fill="#000000" fill-rule="evenodd"/>
</svg>