<svg xmlns="http://www.w3.org/2000/svg" width="1024" height="1024" viewBox="0 0 1024 1024" version="1.1">
	<path d="M 410.718 199.770 L 388.936 200.039 389.668 205.270 C 390.511 211.292, 390.676 314.512, 389.911 357.500 L 389.395 386.500 366.448 387 C 341.912 387.535, 340.242 387.865, 335.317 393.155 C 328.788 400.167, 330.806 411.718, 339.805 418.846 C 344.494 422.559, 349.983 423.943, 360.149 423.976 L 367.799 424 368.553 436.750 C 368.967 443.762, 368.889 461.875, 368.380 477 C 367.870 492.125, 367.734 536.759, 368.078 576.186 L 368.703 647.873 371.473 653.535 C 377.265 665.374, 390.495 674.894, 404.485 677.290 C 421.597 680.221, 441.025 670.748, 449.171 655.500 L 451.843 650.500 452.918 592 C 453.510 559.825, 454.221 530.350, 454.499 526.500 C 454.777 522.650, 454.109 503.400, 453.015 483.721 C 451.492 456.319, 451.247 445.228, 451.971 436.347 C 452.491 429.969, 453.170 424.497, 453.480 424.186 C 453.790 423.876, 458.197 423.321, 463.272 422.953 C 468.347 422.584, 473.714 421.789, 475.198 421.186 C 479.756 419.333, 485.795 413.104, 487.590 408.404 C 489.705 402.866, 488.499 397.777, 483.806 392.432 C 478.027 385.850, 476.931 385.622, 454.384 386.324 L 434.254 386.950 433.603 377.225 C 433.245 371.876, 433.031 329.806, 433.128 283.736 C 433.225 237.666, 433.124 199.866, 432.903 199.736 C 432.681 199.606, 422.698 199.621, 410.718 199.770 M 471.341 203.470 C 465.754 205.332, 459.788 207.575, 458.083 208.457 L 454.985 210.059 455.242 270.679 L 455.500 331.299 459 332.524 C 460.925 333.198, 468.350 337.485, 475.500 342.050 C 495.323 354.706, 512.789 364.778, 518.840 367.041 C 524.129 369.020, 526.263 369.081, 589.397 369.045 C 625.204 369.025, 655.034 369.353, 655.687 369.774 C 658.005 371.270, 659.076 376.480, 660.029 390.899 C 660.560 398.930, 661.869 409.550, 662.937 414.500 C 664.766 422.976, 666.677 433.561, 672.595 468 C 673.965 475.975, 675.345 483.738, 675.660 485.252 C 676.172 487.709, 675.898 488.070, 673.091 488.632 C 670.791 489.092, 670.084 489.695, 670.457 490.880 C 671.348 493.714, 675.742 514.168, 677.466 523.500 C 678.380 528.450, 680.422 537.675, 682.003 544 C 683.585 550.325, 685.391 558.650, 686.018 562.500 C 686.644 566.350, 688.088 573.273, 689.225 577.885 L 691.294 586.270 688.897 588.126 C 685.622 590.662, 663.904 599.081, 650.500 603.010 C 644.450 604.783, 633.425 607.998, 626 610.154 C 567.177 627.237, 543.604 638.818, 518.400 663.021 L 512 669.166 512 681.833 L 512 694.500 683.852 694.500 L 855.703 694.500 856.274 669.533 C 856.711 650.424, 856.545 643.854, 855.565 641.533 C 854.861 639.865, 847.139 631.135, 838.405 622.134 C 829.672 613.133, 821.956 604.954, 821.259 603.959 C 820.562 602.964, 819.083 596.829, 817.973 590.325 C 816.863 583.821, 814.368 571.387, 812.428 562.694 C 810.489 554, 807.366 539.328, 805.489 530.088 C 803.612 520.848, 799.828 502.929, 797.079 490.267 C 794.331 477.605, 790.217 456.277, 787.937 442.872 C 783.269 415.422, 783.241 412.339, 787.501 395 C 791.087 380.408, 795.787 373.507, 808.900 363.575 C 814.259 359.518, 823.110 353.942, 828.571 351.186 C 849.715 340.514, 863.036 327.458, 871.895 308.721 C 877.194 297.516, 878.969 289.818, 878.978 278 C 878.998 254.121, 867.617 230.378, 848.796 215.032 C 845.333 212.208, 838.269 207.783, 833.098 205.199 L 823.695 200.500 801.098 200.500 C 788.669 200.500, 755.212 200.613, 726.750 200.750 L 675 201 675 207.757 C 675 218.129, 674.025 220.128, 663.261 231.815 C 657.849 237.692, 652.651 243.722, 651.710 245.215 C 649.516 248.698, 649.429 260.975, 651.482 277.520 C 652.751 287.750, 653.289 289.720, 655.232 291.252 C 667.773 301.141, 697.758 323.213, 706.500 328.991 C 721.954 339.205, 726 343.374, 726 349.082 C 726 352.141, 719.352 358.246, 716.877 357.461 C 715.826 357.127, 710.641 353.962, 705.354 350.427 C 700.066 346.892, 695.322 344, 694.811 344 C 693.580 344, 671.235 329.663, 663.011 323.596 C 651.542 315.136, 634.127 298.870, 633.556 296.082 C 632.566 291.253, 631.020 264.546, 631.010 252.094 C 630.999 238.094, 630.805 238.557, 641.512 227 C 644.314 223.975, 647.427 220.193, 648.428 218.595 C 650.199 215.771, 650.197 215.711, 648.374 216.417 C 647.343 216.816, 642.675 218.124, 638 219.322 C 630.531 221.236, 626.833 221.500, 607.500 221.500 C 586.847 221.500, 585.255 221.368, 581.500 219.337 C 573.988 215.275, 570.025 210.291, 569.813 204.637 C 569.676 201.005, 569.669 201, 565.088 200.982 C 562.565 200.973, 542.725 200.767, 521 200.526 L 481.500 200.087 471.341 203.470 M 607 201 L 597.500 201.617 606 201.678 C 610.675 201.711, 617.875 201.420, 622 201.031 L 629.500 200.323 623 200.353 C 619.425 200.369, 612.225 200.661, 607 201 M 346.774 221.807 C 346.437 222.659, 346.435 228.848, 346.750 285.250 L 347 330 358.250 330 L 369.500 330 369.508 307.750 C 369.512 295.512, 369.649 271.123, 369.812 253.552 L 370.109 221.604 358.578 221.359 C 352.236 221.224, 346.924 221.426, 346.774 221.807 M 299.320 223.327 C 296.446 224.034, 294.967 225.002, 294.584 226.427 C 294.278 227.567, 294.021 251.077, 294.014 278.670 L 294 328.841 300.250 329.396 C 303.688 329.702, 310.775 330.221, 316 330.550 L 325.500 331.149 325.660 281.548 C 325.748 254.268, 326.127 229.709, 326.504 226.974 L 327.188 222 315.344 222.149 C 308.830 222.231, 301.619 222.761, 299.320 223.327 M 262 235.774 L 249.500 242.313 249.500 275.431 L 249.500 308.550 252.500 310.077 C 254.150 310.917, 259.628 313.828, 264.673 316.546 C 269.718 319.264, 274.067 321.266, 274.338 320.994 C 275.240 320.089, 276.264 228.997, 275.371 229.118 C 274.892 229.183, 268.875 232.178, 262 235.774 M 715.104 245.535 C 713.397 247.479, 712 249.976, 712 251.084 C 712 254.314, 714.635 258.512, 717.472 259.805 C 720.783 261.314, 810.723 261.513, 815.917 260.024 C 823.903 257.733, 826.383 250.986, 821.411 245.077 L 818.822 242 768.515 242 L 718.207 242 715.104 245.535 M 258.913 246.868 C 256.735 248.631, 256.500 249.581, 256.500 256.639 C 256.500 265.348, 257.659 266.716, 262.032 263.175 C 264.136 261.472, 264.395 260.421, 264.445 253.409 C 264.507 244.627, 263.359 243.270, 258.913 246.868 M 501.791 249.988 C 494.310 252.244, 488.197 260.908, 489.435 267.503 C 491.407 278.017, 504.660 283.320, 514.520 277.541 C 520.083 274.281, 522.380 270.597, 522.382 264.929 C 522.388 254.344, 512.101 246.881, 501.791 249.988 M 206 257.913 C 201.566 258.386, 200.527 258.840, 200.640 260.257 C 200.815 262.456, 208.749 276.407, 216 287.264 L 221.500 295.500 229 295.155 C 233.125 294.965, 236.696 294.619, 236.935 294.387 C 237.764 293.580, 231.110 279.897, 224.336 268.478 C 216.746 255.683, 218.332 256.597, 206 257.913 M 160 259.146 C 160 261.913, 181.547 294.946, 183.434 295.071 C 186.436 295.270, 200.521 294.812, 200.828 294.506 C 201.693 293.641, 199.365 289.208, 193.060 279.713 C 189.330 274.096, 184.823 266.913, 183.044 263.750 L 179.809 258 169.905 258 C 163.127 258, 160 258.362, 160 259.146 M 135.393 260.046 C 133.205 260.860, 128.170 266.445, 126.045 270.417 C 124.916 272.526, 125.541 273.569, 134.100 283.852 L 143.379 295 152.690 295 C 158.181 295, 162 294.593, 162 294.008 C 162 292.903, 144.936 265.674, 142.224 262.451 C 139.976 259.780, 137.989 259.081, 135.393 260.046 M 718.827 281.808 C 714.957 282.257, 711 286.607, 711 290.414 C 711 294.781, 713.400 297.761, 717.890 298.970 C 720.217 299.597, 739.857 300.039, 768.203 300.103 C 808.978 300.194, 815.079 300.011, 817.789 298.609 C 824.294 295.245, 825.859 289.131, 821.364 284.636 C 819.914 283.186, 818.451 281.966, 818.114 281.925 C 816.028 281.668, 721 281.557, 718.827 281.808 M 589.486 396.750 C 590.368 403.827, 590.959 404.969, 595.558 408.477 C 597.568 410.009, 599.789 412.667, 600.494 414.382 C 602.185 418.495, 605.677 440.153, 607.340 456.839 C 608.262 466.086, 609.104 470.453, 610.085 471.074 C 611.790 472.153, 649.689 472.319, 650.337 471.250 C 650.587 470.837, 649.254 462.175, 647.375 452 C 644.028 433.879, 641.094 415.711, 638.855 399.250 L 637.733 391 613.251 391 L 588.770 391 589.486 396.750 M 738 456.870 C 734.722 457.804, 734.434 460.349, 736.534 469.837 C 738.722 479.729, 742.708 489.682, 745.171 491.407 C 747.620 493.122, 753.853 491.892, 755.817 489.305 C 757.600 486.957, 756.833 466.271, 754.750 460.500 L 753.306 456.500 746.903 456.329 C 743.381 456.235, 739.375 456.479, 738 456.870 M 400.314 462.950 C 396.172 465.476, 394.891 468.023, 394.859 473.792 C 394.822 480.685, 396.376 483.841, 400.696 485.646 C 408.777 489.023, 417.500 482.067, 417.500 472.246 C 417.500 468.443, 416.994 467.382, 413.765 464.423 C 409.390 460.414, 405.222 459.957, 400.314 462.950 M 401.753 488.728 C 399.553 488.958, 397.645 489.818, 397.131 490.810 C 395.355 494.240, 394.784 510.597, 394.893 554.929 C 395.015 604.544, 394.875 603.333, 400.865 606.430 C 404.376 608.246, 409.818 606.887, 413.121 603.371 C 415.221 601.136, 415.253 600.744, 414.145 590.996 C 413.503 585.351, 413 565.855, 413 546.621 C 413 527.752, 412.706 506.843, 412.346 500.157 L 411.693 488 408.596 488.168 C 406.893 488.261, 403.814 488.513, 401.753 488.728 M 745.500 511.486 C 734.513 513.917, 734 514.287, 734 519.779 C 734 528.892, 742.443 541.007, 748.785 540.994 C 753.220 540.985, 759.278 538.971, 762.750 536.351 C 765.408 534.345, 766 533.211, 766 530.131 C 766 524.268, 763.112 515.958, 759.989 512.835 C 756.798 509.644, 754.707 509.449, 745.500 511.486 M 511.948 718.384 C 511.701 718.630, 511.725 738.342, 512 762.189 L 512.500 805.548 515.756 812.158 C 521.805 824.441, 536.989 836.027, 550.799 838.898 C 554.498 839.667, 594.892 840, 684.581 840 C 811.951 840, 813.117 839.982, 819.282 837.925 C 832.090 833.650, 840.242 827.115, 848.488 814.507 C 851.369 810.103, 854.206 805.576, 854.793 804.447 C 855.483 803.119, 855.973 787.664, 856.180 760.696 L 856.500 718.999 685.832 718.999 C 591.964 719, 514.541 718.761, 513.780 718.469 C 513.018 718.177, 512.194 718.139, 511.948 718.384 M 546.782 729.549 C 546.460 730.072, 546.061 746.925, 545.893 767 C 545.568 806.008, 545.560 805.936, 550.629 809.922 C 554.461 812.937, 558.035 812.546, 562.583 808.615 L 566.500 805.231 566.785 768.756 L 567.070 732.281 562.396 731.641 C 559.824 731.288, 555.571 731, 552.944 731 C 550.115 731, 548.003 730.510, 547.766 729.799 C 547.537 729.111, 547.117 729.005, 546.782 729.549" stroke="none" fill="#000000" fill-rule="evenodd"/>
</svg>