<svg xmlns="http://www.w3.org/2000/svg" width="1024" height="1024" viewBox="0 0 1024 1024" version="1.1">
	<path d="M 96.496 512 C 96.496 793.875, 96.610 909.187, 96.750 768.250 C 96.890 627.312, 96.890 396.687, 96.750 255.750 C 96.610 114.812, 96.496 230.125, 96.496 512 M 278.242 62.710 L 278 125.921 222.250 126.210 L 166.500 126.500 158.744 130.372 C 144.735 137.366, 134.245 149.884, 130.453 164.131 C 128.284 172.278, 128.316 833.108, 130.485 843.347 C 133.302 856.642, 143.173 869.986, 155.306 876.901 C 166.607 883.343, 166.153 883.298, 224.750 883.739 L 278 884.140 278 910.565 L 278 936.989 188.250 937.250 C 126.826 937.429, 145.285 937.588, 246.739 937.755 L 394.979 938 395.250 981.250 C 395.400 1005.038, 395.525 993, 395.528 954.500 C 395.532 916, 395.407 896.313, 395.251 910.750 L 394.967 937 336.983 937 L 279 937 279 910.500 L 279 884 337.500 883.989 C 369.675 883.983, 436.725 883.978, 486.500 883.978 C 536.275 883.978, 603.325 883.983, 635.500 883.989 L 694 884 694 910.492 L 694 936.985 632.750 937.250 C 583.703 937.463, 587.140 937.519, 650 937.534 C 693.175 937.544, 720.962 937.417, 711.750 937.252 L 695 936.952 695 910.503 L 695 884.055 726.501 883.778 L 758.001 883.500 758.001 910.222 L 758 936.944 744.250 937.252 L 730.500 937.561 744.239 937.781 L 757.979 938 758.250 981.250 L 758.522 1024.500 758.761 981.250 L 759 938 846.500 938 L 934 938 933.758 879.750 L 933.517 821.500 933.250 879.250 L 932.984 937 845.976 937 L 758.967 937 759.234 910.495 L 759.500 883.990 808 883.668 C 841.688 883.445, 857.874 882.979, 861 882.144 C 879.340 877.240, 893.513 862.814, 898.522 843.955 C 899.773 839.244, 899.970 792.826, 899.966 503.500 L 899.961 168.500 897.505 161.545 C 891.121 143.461, 874.983 129.795, 856.017 126.411 C 850.493 125.425, 836.640 125.061, 803.765 125.035 L 759.031 125 758.749 96.250 L 758.468 67.500 758.234 96.520 L 758 125.540 726.750 125.520 L 695.500 125.500 694.989 62.500 L 694.477 -0.500 694.239 62.732 L 694 125.964 545.007 125.868 L 396.015 125.771 395.750 62.636 L 395.485 -0.500 395.242 62.588 L 395 125.675 337.007 125.797 L 279.015 125.918 278.750 62.709 L 278.485 -0.500 278.242 62.710 M 758.392 13 C 758.392 20.425, 758.549 23.462, 758.742 19.750 C 758.934 16.038, 758.934 9.963, 758.742 6.250 C 758.549 2.537, 758.392 5.575, 758.392 13 M 933.495 410 C 933.495 635.775, 933.610 728.138, 933.750 615.250 C 933.890 502.363, 933.890 317.638, 933.750 204.750 C 933.610 91.863, 933.495 184.225, 933.495 410 M 573.286 20.500 C 573.294 23.250, 573.488 24.256, 573.718 22.736 C 573.947 21.216, 573.941 18.966, 573.704 17.736 C 573.467 16.506, 573.279 17.750, 573.286 20.500 M 572.079 78.583 C 572.127 79.748, 572.364 79.985, 572.683 79.188 C 572.972 78.466, 572.936 77.603, 572.604 77.271 C 572.272 76.939, 572.036 77.529, 572.079 78.583 M 572.409 97.500 C 572.408 106.850, 572.558 110.810, 572.743 106.299 C 572.928 101.789, 572.929 94.139, 572.745 89.299 C 572.562 84.460, 572.410 88.150, 572.409 97.500 M 215.945 175.881 C 206.845 178.800, 200.257 182.985, 193.523 190.122 C 185.824 198.284, 179.501 210.457, 178.044 219.921 C 177.415 224.012, 177.042 314.619, 177.018 469.711 L 176.980 713.081 179.240 711.904 C 180.483 711.256, 187.800 706.433, 195.500 701.187 C 254.851 660.745, 304.884 627.810, 305.960 628.475 C 306.384 628.737, 306.968 630.721, 307.258 632.885 C 308.733 643.883, 321.351 660.324, 333 666.426 C 336.025 668.010, 338.669 669.444, 338.877 669.613 C 339.266 669.930, 337.850 671.710, 321.945 690.890 C 311.120 703.945, 239.070 793.514, 214.872 824 L 208.125 832.500 227.812 832.782 C 245.828 833.041, 247.603 832.912, 248.716 831.267 C 250.999 827.892, 319.980 735.553, 335.572 715 C 344.126 703.725, 355.484 688.667, 360.812 681.537 C 366.140 674.408, 374.417 663.383, 379.205 657.037 L 387.910 645.500 371.705 644.962 C 354.154 644.380, 351.088 643.614, 344.075 638.060 C 339.900 634.753, 334.539 625.494, 333.473 619.750 L 332.777 616 513.528 616 L 694.279 616 693.695 620.932 C 692.616 630.036, 687.170 637.381, 678 642.100 C 673.991 644.163, 671.675 644.475, 656.780 644.958 L 640.059 645.500 660.780 672.878 C 707.952 735.208, 749.941 790.811, 765.229 811.193 L 781.500 832.887 800.785 832.943 C 818.857 832.996, 820.010 832.890, 819.118 831.250 C 817.255 827.825, 750.465 745.312, 703.668 688.622 C 697.710 681.405, 691.961 674.289, 690.892 672.809 L 688.948 670.118 695.725 666.160 C 705.185 660.635, 713.103 652.004, 718 641.877 C 720.200 637.328, 722 632.644, 722 631.470 C 722 630.295, 722.271 629.062, 722.602 628.731 C 722.934 628.400, 751.552 647.030, 786.199 670.133 C 820.846 693.235, 849.825 712.379, 850.597 712.676 C 851.799 713.137, 852 678.009, 852 467.817 C 852 250.887, 851.823 221.740, 850.472 216.552 C 846.238 200.300, 834.346 185.909, 819.136 178.632 L 810.500 174.500 516 174.299 C 235.941 174.109, 221.228 174.186, 215.945 175.881 M 228.500 199.402 C 218.137 202.688, 209.969 209.630, 205.701 218.780 L 203.500 223.500 203.238 418.250 L 202.975 613 252.988 613 L 303 613 303 486.407 C 303 362.464, 303.043 359.602, 305.063 349.657 C 312.813 311.510, 343.018 274.479, 383.640 253.323 C 423.099 232.773, 464.794 222.999, 512.994 223.001 C 542.313 223.002, 561.736 225.195, 585 231.131 C 647.707 247.131, 690.758 277.202, 712.949 320.500 C 717.664 329.702, 722.456 343.912, 723.952 353.137 C 724.622 357.263, 724.992 403.267, 725.006 484 C 725.018 552.475, 725.299 609.513, 725.630 610.750 L 726.233 613 776.117 613 L 826 613 826 419.615 C 826 246.311, 825.836 225.724, 824.424 221.365 C 822.262 214.689, 818.323 209.206, 812.562 204.852 C 802.715 197.409, 828.345 197.992, 514.434 198.067 C 289.628 198.120, 231.689 198.391, 228.500 199.402 M 497 251.585 C 462.680 254.512, 442.773 259.004, 414.500 270.199 C 402.834 274.818, 386.449 283.876, 376.500 291.206 C 359.736 303.556, 343.220 324.027, 336.995 340.170 C 330.681 356.541, 330.967 349.834, 331.246 475.174 L 331.500 589.500 514.250 589.500 L 697 589.500 697 473.480 C 697 359.631, 696.962 357.322, 694.952 350.070 C 685.329 315.343, 653.559 285.473, 607.796 268.125 C 586.624 260.099, 572.048 256.385, 550.500 253.528 C 538.894 251.988, 506.191 250.801, 497 251.585 M 480.500 284.271 C 473.561 288.152, 470.055 298.721, 473.064 306.685 C 473.649 308.233, 475.336 310.778, 476.814 312.339 C 482.118 317.946, 482.476 318, 514.049 318 C 546.295 318, 547.802 317.749, 552.498 311.591 C 558.019 304.354, 557.925 294.630, 552.270 287.909 C 547.494 282.234, 545.959 281.998, 513.782 282.016 C 485.337 282.032, 484.386 282.097, 480.500 284.271 M 574.415 318.917 C 574.187 319.146, 574 353.705, 574 395.714 L 574 472.095 609.250 471.798 C 642.808 471.514, 644.722 471.397, 649.122 469.363 C 655.969 466.197, 661.244 460.900, 665.083 453.337 L 668.500 446.604 668.500 395.552 C 668.500 344.793, 668.487 344.474, 666.275 340 C 662.733 332.837, 655.611 325.447, 649.227 322.312 L 643.500 319.500 609.165 319 C 590.281 318.725, 574.643 318.688, 574.415 318.917 M 382.302 321.103 C 375.306 323.792, 368.073 330.524, 363.945 338.187 L 360.545 344.500 359.927 371.500 C 359.587 386.350, 359.351 409.075, 359.404 422 L 359.500 445.500 362.401 451.782 C 366.011 459.599, 374.723 468.036, 381.608 470.382 C 385.614 471.747, 391.641 472, 420.178 472 L 454 472 454 395.500 L 454 319 420.750 319.052 C 389.982 319.100, 387.112 319.253, 382.302 321.103 M 391.500 343.412 C 389.850 344.145, 387.515 345.815, 386.312 347.123 C 384.227 349.387, 384.092 350.659, 383.467 374 C 383.105 387.475, 383.134 407.947, 383.530 419.493 L 384.250 440.485 388.007 444.243 L 391.765 448 403.882 448 L 416 448 416 395 L 416 342 405.250 342.039 C 398.540 342.064, 393.372 342.579, 391.500 343.412 M 612 395 L 612 448 623.750 447.985 C 636.885 447.969, 639.253 447.232, 642.720 442.088 L 645 438.704 645 394.487 C 645 350.642, 644.982 350.246, 642.832 347.514 C 639.391 343.139, 635.300 342, 623.032 342 L 612 342 612 395 M 483 410 L 483 472 514 472 L 545 472 545 410 L 545 348 514 348 L 483 348 483 410 M 413.500 504.622 C 399.459 508.119, 391.375 517.462, 390.248 531.495 C 389.778 537.351, 390.043 538.645, 392.898 544.444 C 398.183 555.180, 406.560 560.361, 418.598 560.338 C 426.924 560.323, 432.678 557.989, 438.333 552.333 C 455.399 535.268, 444.991 506.597, 421 504.585 C 417.975 504.332, 414.600 504.348, 413.500 504.622 M 604.734 505.041 C 595.712 507.280, 589.522 512.168, 585.169 520.492 C 583.023 524.597, 582.550 526.853, 582.548 533 C 582.546 542.075, 584.515 546.402, 591.711 553.133 C 597.595 558.637, 602.334 560.430, 611 560.431 C 635.291 560.434, 647.529 532.232, 631.502 513.185 C 626.165 506.842, 613.276 502.920, 604.734 505.041 M 425.759 646.750 C 424.906 647.712, 420.262 654.575, 415.439 662 C 410.617 669.425, 396.021 691.700, 383.005 711.500 C 369.989 731.300, 350.215 761.675, 339.064 779 C 327.913 796.325, 315.516 815.450, 311.514 821.500 L 304.239 832.500 323.867 832.772 C 341.311 833.014, 343.632 832.857, 344.726 831.359 C 345.404 830.433, 351.657 820.298, 358.622 808.838 L 371.287 788 514.393 788.037 L 657.500 788.075 660.596 793.287 C 667.860 805.520, 683.258 830.600, 684.210 831.750 C 684.973 832.672, 690.345 833, 704.653 833 L 724.061 833 720.462 827.372 C 718.482 824.277, 713.582 816.740, 709.574 810.622 C 705.566 804.505, 691.809 783.300, 679.004 763.500 C 666.198 743.700, 650.967 720.300, 645.158 711.500 C 639.348 702.700, 629.077 686.950, 622.333 676.500 C 615.588 666.050, 608.142 654.694, 605.785 651.265 L 601.500 645.031 514.405 645.015 C 432.704 645.001, 427.214 645.108, 425.759 646.750 M 440.213 676.243 C 436.535 681.656, 428 695.801, 428 696.483 C 428 696.767, 466.925 697, 514.500 697 C 562.075 697, 600.969 696.663, 600.931 696.250 C 600.893 695.837, 597.388 690.325, 593.142 684 L 585.423 672.500 514.264 672.243 L 443.105 671.987 440.213 676.243 M 404.733 732.750 C 402.332 736.462, 398.044 743.438, 395.202 748.250 L 390.036 757 514.018 757 C 582.208 757, 638 756.729, 638 756.398 C 638 756.067, 633.837 749.100, 628.750 740.914 L 619.500 726.032 514.298 726.016 L 409.097 726 404.733 732.750 M 572.252 900.500 C 572.263 902.700, 572.468 903.482, 572.707 902.238 C 572.946 900.994, 572.937 899.194, 572.687 898.238 C 572.437 897.282, 572.241 898.300, 572.252 900.500 M 420.750 937.749 C 433.538 937.907, 454.463 937.907, 467.250 937.749 C 480.038 937.591, 469.575 937.461, 444 937.461 C 418.425 937.461, 407.963 937.591, 420.750 937.749 M 278.458 981.500 C 278.459 1005.150, 278.590 1014.682, 278.749 1002.682 C 278.909 990.683, 278.909 971.333, 278.749 959.682 C 278.589 948.032, 278.458 957.850, 278.458 981.500 M 573.402 954 C 573.402 962.525, 573.556 966.013, 573.743 961.750 C 573.931 957.487, 573.931 950.513, 573.743 946.250 C 573.556 941.987, 573.402 945.475, 573.402 954 M 694.458 982 C 694.458 1005.375, 694.589 1014.938, 694.749 1003.250 C 694.909 991.563, 694.909 972.438, 694.749 960.750 C 694.589 949.063, 694.458 958.625, 694.458 982 M 933.458 982 C 933.458 1005.375, 933.589 1014.938, 933.749 1003.250 C 933.909 991.563, 933.909 972.438, 933.749 960.750 C 933.589 949.063, 933.458 958.625, 933.458 982" stroke="none" fill="#000000" fill-rule="evenodd"/>
</svg>