<svg xmlns="http://www.w3.org/2000/svg" width="1024" height="1024" viewBox="0 0 1024 1024" version="1.1">
	<path d="M 211.500 88.666 C 196.679 90.478, 175.235 96.590, 161.711 102.859 C 139.570 113.121, 120.583 129.045, 108.484 147.500 C 97.778 163.831, 92.681 176.065, 88.469 195.546 L 85.996 206.982 85.948 505.241 C 85.896 833.201, 85.467 810.009, 91.946 829.833 C 107.496 877.419, 146.642 912.170, 196.237 922.414 C 203.154 923.843, 235.423 924, 521.348 924 C 831.196 924, 839.003 923.954, 848.140 922.067 C 864.625 918.664, 888.703 908.696, 901.797 899.856 C 925.571 883.805, 944.067 858.737, 953.946 829.177 C 961.027 807.989, 960.375 838.645, 960.721 510.536 C 961.064 184.698, 961.478 207.921, 954.956 186.774 C 946.019 157.793, 926.391 129.807, 904 114.121 C 883.751 99.934, 859.739 90.728, 839.362 89.337 C 830.925 88.761, 830.142 88.865, 829.162 90.697 C 828.383 92.153, 828.486 93.965, 829.550 97.500 C 830.347 100.150, 831 104.464, 831 107.088 C 831 113.134, 832.304 114.406, 840.069 115.934 C 848.280 117.549, 861.625 122.311, 871.218 127.048 C 881.763 132.255, 890.942 138.972, 900.530 148.500 C 914.880 162.758, 923.129 177.995, 928.889 200.878 L 932 213.241 932 507.555 C 932 761.183, 931.799 802.811, 930.547 808.685 C 926.051 829.764, 915.959 849.008, 901.610 863.859 C 892.447 873.344, 884.804 878.764, 872.623 884.418 C 856.957 891.689, 848.280 894.056, 834 894.956 C 827.125 895.389, 683.125 895.613, 514 895.454 C 231.242 895.188, 205.856 895.031, 198.500 893.494 C 177.887 889.189, 152.702 874.977, 141.071 861.085 C 130.383 848.319, 121.755 831.238, 117.324 814.074 L 114.853 804.500 114.971 504.701 L 115.090 204.903 117.443 195.628 C 125.393 164.284, 144.009 141.431, 173.672 126.595 C 194.101 116.378, 207.631 114.031, 246.500 113.962 C 261.900 113.935, 279.115 113.530, 284.757 113.063 L 295.013 112.213 299.980 106.923 C 305.610 100.926, 308 96.546, 308 92.224 C 308 89.693, 307.534 89.157, 304.875 88.625 C 301.643 87.979, 216.821 88.016, 211.500 88.666 M 632.500 121.447 C 626.189 123.060, 625.030 123.528, 604.824 132.648 C 595.652 136.787, 587.902 140.814, 587.601 141.597 C 587.266 142.471, 590.741 147.022, 596.595 153.374 L 606.135 163.727 615.154 160.899 C 634.996 154.678, 644.977 153.391, 670.130 153.807 L 681.760 154 682.192 159.979 C 682.430 163.267, 682.822 166.147, 683.062 166.378 C 683.303 166.609, 691.557 167.063, 701.404 167.386 C 711.252 167.710, 719.436 168.103, 719.592 168.259 C 719.749 168.415, 720.017 175.508, 720.188 184.021 C 720.360 192.535, 720.837 199.387, 721.250 199.250 C 721.663 199.113, 729.650 199, 739 199 L 756 199 756 184.082 C 756 175.877, 756.258 168.493, 756.572 167.672 C 757.021 166.503, 757.829 166.377, 760.316 167.091 C 762.060 167.591, 769.607 168, 777.088 168 L 790.689 168 791.304 145.750 C 791.818 127.128, 791.686 123.323, 790.491 122.413 C 787.345 120.017, 641.585 119.127, 632.500 121.447 M 389.903 130.701 C 372.686 155.702, 353.153 186.045, 349.941 192.779 C 340.217 213.160, 339.442 229.181, 347.345 246.443 C 356.239 265.870, 383.649 278.149, 405.448 272.472 C 415.460 269.864, 424.358 264.476, 431.784 256.524 C 439.714 248.033, 443.392 241.683, 445.459 232.913 C 449.687 214.975, 445.590 200.771, 429.187 176.500 C 424.727 169.900, 415.323 155.981, 408.289 145.568 C 401.255 135.156, 394.984 126.471, 394.354 126.270 C 393.723 126.068, 391.720 128.062, 389.903 130.701 M 282.750 157.080 C 281.374 157.882, 281 159.457, 281 164.455 L 281 170.810 273.750 171.655 L 266.500 172.500 266.192 177.905 C 265.997 181.342, 266.323 183.582, 267.088 184.054 C 267.750 184.464, 271.092 185.098, 274.514 185.465 L 280.737 186.131 281.351 191.316 C 282.046 197.190, 283.758 199, 288.620 199 C 293.215 199, 295 196.772, 295 191.036 C 295 185.673, 295.750 185.009, 301.832 184.986 C 308.506 184.962, 309.708 184.215, 310.311 179.720 C 311.049 174.219, 309.731 172.003, 305.715 171.989 C 303.947 171.983, 300.813 171.699, 298.750 171.358 L 295 170.738 295 164.569 C 295 161.104, 294.474 157.874, 293.800 157.200 C 292.346 155.746, 285.175 155.668, 282.750 157.080 M 514.001 160.086 C 512.626 160.655, 510.488 162.072, 509.251 163.234 L 507 165.349 507 497.500 L 507 829.651 509.250 831.701 C 512.416 834.585, 515.446 836, 518.454 836 C 521.987 836, 528.841 831.503, 529.504 828.749 C 529.802 827.512, 529.923 677.825, 529.773 496.110 L 529.500 165.720 525.996 162.884 C 521.964 159.621, 517.589 158.600, 514.001 160.086 M 589.062 170.265 C 584.341 172.657, 568.199 197.914, 564.384 208.879 C 558.815 224.884, 567.357 244.248, 582.482 249.908 C 593.674 254.095, 603.364 251.917, 612.332 243.198 C 621.641 234.149, 624.774 223.678, 621.541 212.425 C 617.863 199.622, 603.504 176.453, 596.150 171.456 C 591.966 168.613, 592.233 168.658, 589.062 170.265 M 376.092 182.768 C 371.837 187.595, 364.742 199.337, 362.658 205 C 360.129 211.872, 360.011 227.187, 362.451 231.905 C 363.302 233.551, 367.036 238.099, 370.749 242.013 C 376.445 248.017, 378.132 249.213, 381.541 249.668 C 384.548 250.069, 385.931 249.788, 386.942 248.570 C 389.227 245.816, 386.380 242.019, 379.861 239.127 L 374.222 236.626 372.129 228.807 L 370.037 220.987 372.508 213.165 C 375.062 205.079, 380.748 195.305, 385.358 191.076 C 388.651 188.055, 388.658 186.935, 385.411 183.077 C 382.218 179.283, 379.251 179.184, 376.092 182.768 M 584.546 202.570 C 579.623 210.084, 578.657 219.711, 582.285 225.095 C 584.724 228.714, 586.702 229.543, 590.579 228.570 C 593.319 227.882, 593.729 225.850, 591.500 224 C 589.417 222.271, 589.627 217.651, 592 213 C 594.593 207.918, 594.525 206.777, 591.411 203.077 C 588.257 199.328, 586.744 199.216, 584.546 202.570 M 231.710 205.623 C 231.320 206.014, 231 208.958, 231 212.167 L 231 218 224.700 218 C 221.133 218, 217.879 218.521, 217.200 219.200 C 215.607 220.793, 215.646 229.656, 217.250 230.680 C 217.938 231.120, 220.975 231.709, 224 231.989 L 229.500 232.500 230.712 237.412 C 232.155 243.258, 232.442 243.570, 237.152 244.406 C 242.021 245.270, 244 243.272, 244 237.490 L 244 233.123 248.750 232.497 C 259.628 231.064, 259 231.522, 259 225.028 C 259 218.491, 259.035 218.523, 250.755 217.489 L 245.196 216.794 244.348 211.147 L 243.500 205.500 237.960 205.206 C 234.913 205.045, 232.101 205.232, 231.710 205.623 M 669.046 207.883 C 667.399 209.001, 667.444 207.679, 667.769 245.305 L 668 272.109 725.250 272.006 C 756.737 271.948, 788.694 271.635, 796.264 271.310 L 810.028 270.718 809.764 239.109 L 809.500 207.500 799.500 207.791 C 794 207.952, 781.175 208.788, 771 209.649 C 751.840 211.271, 729.629 211.098, 709 209.167 C 690.913 207.473, 670.612 206.821, 669.046 207.883 M 692.636 235.640 C 691.656 242.787, 691.882 254.911, 693.035 257.066 C 693.791 258.479, 695.139 259, 698.035 259 L 702 259 702 245 L 702 231 697.636 231 L 693.272 231 692.636 235.640 M 719.944 233.648 C 719.390 235.104, 719.064 241.291, 719.219 247.398 L 719.500 258.500 723 258.761 C 729.131 259.218, 729.461 258.509, 729.850 244.037 L 730.201 231 725.576 231 C 721.494 231, 720.832 231.311, 719.944 233.648 M 748.667 231.667 C 748.300 232.033, 748 238.108, 748 245.167 L 748 258 751.418 258 C 757.966 258, 758 257.935, 758 245.475 C 758 239.254, 757.727 233.452, 757.393 232.582 C 756.778 230.980, 750.058 230.276, 748.667 231.667 M 775.701 231.697 C 775.436 232.139, 775.057 238.125, 774.859 245 L 774.500 257.500 779.779 257.803 L 785.059 258.107 784.779 244.803 L 784.500 231.500 780.342 231.197 C 778.055 231.030, 775.966 231.255, 775.701 231.697 M 290.500 256.417 C 286.714 258.107, 282.468 262.607, 280.984 266.500 C 280.153 268.682, 279.889 293.768, 280.018 358.500 C 280.115 407.450, 280.151 448.063, 280.097 448.750 C 280.044 449.438, 279.100 450.900, 278 452 C 275.099 454.901, 269.942 454.631, 266.924 451.420 L 264.500 448.840 264.246 377.670 C 264.106 338.526, 263.994 305.503, 263.996 304.285 C 264.001 301.383, 258.396 295.063, 254.298 293.351 C 245.576 289.707, 234.143 294.753, 231.303 303.500 C 230.690 305.386, 230.610 316.708, 231.087 334 C 231.504 349.125, 231.920 383.539, 232.011 410.476 L 232.176 459.452 229.532 461.726 C 226 464.764, 221.957 464.647, 218.924 461.421 L 216.500 458.841 216 409.171 C 215.631 372.542, 215.178 358.938, 214.273 357.358 C 207.644 345.789, 188.780 346.976, 182.288 359.369 C 180.816 362.180, 180.594 371.649, 180.117 452 C 179.340 582.694, 179.152 572.045, 182.400 581.500 C 183.911 585.900, 186.549 591.975, 188.263 595 C 191.401 600.539, 204.472 614.305, 213.218 621.282 C 216.529 623.924, 218.225 626.156, 218.909 628.773 C 220.562 635.100, 221.886 658.044, 222.573 692.263 C 222.935 710.282, 223.517 725.202, 223.866 725.417 C 225.130 726.199, 378.919 726.415, 379.699 725.636 C 380.139 725.197, 380.773 704.961, 381.106 680.669 C 381.534 649.481, 382.083 635.324, 382.972 632.500 C 383.945 629.408, 387.801 624.982, 399.964 613 C 416.689 596.523, 420.039 591.886, 424.167 579.500 L 426.500 572.500 426.500 493.429 L 426.500 414.359 423.478 408.429 C 416.432 394.608, 399.554 390.842, 388.204 400.557 C 381.135 406.608, 380.711 409.487, 381.137 448.489 C 381.448 476.897, 381.283 481.953, 380 483.510 C 379.175 484.511, 373.438 488.675, 367.252 492.764 C 349.629 504.412, 337.219 518.972, 329.818 536.683 L 325.716 546.500 325.108 563.289 C 324.404 582.725, 324.403 582.726, 315 582.038 C 310.687 581.723, 310 579.593, 310.003 566.559 C 310.009 544.765, 313.892 530.632, 324.641 513.278 C 331.384 502.391, 345.329 488.612, 356.385 481.911 L 365.270 476.526 364.597 451.013 C 364.227 436.981, 363.709 397.600, 363.447 363.500 C 362.909 293.624, 363.519 298.614, 354.980 294.250 C 346.343 289.837, 336.468 292.312, 331.251 300.198 L 328.500 304.357 328.872 376.556 L 329.244 448.756 327.122 450.878 C 323.856 454.144, 318.787 453.724, 315.589 449.923 L 313 446.847 313 364.366 C 313 307.754, 313.354 279.739, 314.130 275.042 C 315.673 265.699, 313.791 261.660, 306.071 257.750 C 300.152 254.752, 295.183 254.327, 290.500 256.417 M 806.500 288.081 C 804.850 288.581, 790.142 289.289, 773.815 289.655 L 744.130 290.320 744.182 294.081 C 744.246 298.709, 744.908 298.930, 758.658 298.914 C 773.379 298.896, 785.254 302.070, 802 310.497 C 818.944 319.024, 832.534 331.154, 843.040 347.127 C 854.473 364.509, 859.553 377.338, 863.011 397.563 C 864.930 408.789, 865.028 413.909, 865.108 507.419 L 865.192 605.500 862.228 617 C 857.002 637.274, 851.140 649.492, 839.987 663.356 C 828.123 678.103, 819.279 684.764, 802.668 691.460 C 785.152 698.522, 785.177 698.519, 747.359 698.327 C 728.581 698.232, 707.918 697.632, 701.441 696.994 C 677.331 694.620, 652.923 683.038, 636.897 666.368 C 620.604 649.420, 610.096 624.738, 608.003 598.500 C 607.476 591.900, 607.035 546.837, 607.023 498.360 C 606.998 402.041, 606.729 407.218, 613.098 381.500 C 617.931 361.986, 625.886 348.202, 640.689 333.695 C 653.003 321.626, 658.709 317.543, 672 311.288 C 678.325 308.312, 684.915 305.184, 686.645 304.337 C 690.139 302.628, 691.265 299.408, 690.348 293.755 L 689.787 290.301 675.644 289.657 C 661.756 289.024, 661.402 289.060, 656.094 291.656 C 646.871 296.166, 631.728 308.385, 622.529 318.740 C 598.726 345.533, 588.559 370.337, 586.107 407.605 C 584.927 425.534, 584.805 566.944, 585.945 595 C 586.712 613.870, 587.186 617.929, 589.816 628.186 C 600.160 668.525, 627.712 698.302, 667.385 712.022 C 688.165 719.208, 688.200 719.212, 735.585 719.732 C 780.723 720.228, 786.893 719.860, 800.500 715.864 C 834.446 705.894, 857.255 685.641, 874.110 650.504 C 880.455 637.276, 883.135 629.696, 885.758 617.561 C 887.352 610.183, 887.500 600.518, 887.500 503.500 L 887.500 397.500 885.193 387 C 876.950 349.474, 858.665 319.072, 832.430 299.274 C 816.287 287.092, 813.596 285.930, 806.500 288.081 M 706.341 290.768 C 705.503 291.301, 705.653 292.088, 706.882 293.606 C 709.566 296.920, 711.964 297.772, 720.768 298.540 L 729 299.258 729 296.211 C 729 294.535, 729.273 292.452, 729.607 291.582 C 730.139 290.196, 728.806 290.002, 718.857 290.015 C 712.611 290.024, 706.978 290.363, 706.341 290.768 M 745 380.850 L 745 446.700 762.250 447.331 C 771.737 447.678, 795.085 447.982, 814.133 448.006 C 845.045 448.045, 848.833 447.877, 849.383 446.443 C 850.297 444.062, 850.068 421.002, 849.014 409.319 C 847.692 394.657, 843.478 380.800, 835.783 365.805 C 825.591 345.944, 803.668 327.870, 781.519 321.067 C 774.437 318.891, 752.779 315.001, 747.750 315 L 745 315 745 380.850 M 414.002 316.872 C 410.582 317.486, 410.488 317.631, 409.769 323.399 C 409.365 326.644, 408.863 329.470, 408.653 329.680 C 408.443 329.890, 405.848 330.335, 402.886 330.669 C 395.232 331.531, 393.997 332.383, 394.015 336.785 C 394.037 342.139, 394.911 342.917, 401.699 343.626 L 407.786 344.263 408.425 348.257 C 409.487 354.896, 410.504 356, 415.560 356 C 419.459 356, 420.178 355.663, 421.025 353.435 C 421.561 352.024, 422 349.360, 422 347.514 L 422 344.159 428.529 343.460 C 435.748 342.687, 436.980 341.582, 436.608 336.215 C 436.302 331.789, 435.339 331.109, 428.348 330.379 L 422.283 329.745 421.392 323.129 C 420.428 315.980, 420.172 315.763, 414.002 316.872 M 706 317.525 C 686.468 321.543, 665.535 332.468, 653.805 344.765 C 644.892 354.110, 633.340 373.063, 629.351 384.888 C 625.368 396.693, 623.884 407.177, 623.284 427.750 L 622.723 447 672.111 447.011 C 699.275 447.017, 723.188 447.301, 725.250 447.642 L 729 448.262 729 382.131 L 729 316 720.750 316.094 C 716.212 316.146, 709.575 316.790, 706 317.525 M 623.634 531.750 C 624.217 607.557, 624.481 611.035, 630.808 626.402 C 637.102 641.687, 641.607 648.788, 650.909 658.088 C 660.311 667.486, 667.386 672.092, 679.544 676.732 C 691.741 681.386, 699.211 682.825, 715 683.564 L 729.500 684.242 729.359 578.371 C 729.282 520.142, 729.170 470.587, 729.109 468.250 L 729 464 676.057 464 L 623.113 464 623.634 531.750 M 745.416 464.917 C 745.187 465.146, 745 514.600, 745 574.814 L 745 684.295 760.805 683.601 C 780.093 682.753, 787.444 681.294, 798.480 676.122 C 813.792 668.947, 822.836 661.121, 832.712 646.500 C 838.329 638.183, 840.384 633.832, 843.337 624 C 848.835 605.696, 848.846 605.528, 849.177 533.326 C 849.347 496.380, 849.259 465.926, 848.983 465.650 C 848.379 465.045, 746.011 464.321, 745.416 464.917 M 648.357 540.992 C 643.376 543.002, 641.293 551.118, 644.561 555.783 C 646.434 558.458, 651.073 561, 654.082 561 C 655.288 561, 657.770 559.403, 659.632 557.429 C 666.289 550.370, 663.077 539.917, 654.295 540.063 C 652.208 540.098, 649.536 540.516, 648.357 540.992 M 649 569.671 C 645.700 570.901, 645 573.343, 645 583.626 C 645 589.260, 645.439 595.024, 645.975 596.435 C 646.836 598.698, 647.513 598.998, 651.725 598.985 C 659.494 598.960, 659.500 598.948, 659.500 583.288 L 659.500 569.500 655 569.306 C 652.525 569.199, 649.825 569.363, 649 569.671 M 651 608.727 C 647.720 610.389, 647.504 610.799, 647.564 615.262 C 647.643 621.235, 650.084 624.757, 656.194 627.716 C 659.379 629.258, 661.552 631.266, 663.344 634.324 C 667.795 641.918, 672.670 643.718, 678.750 640.011 C 683.494 637.118, 683.092 634.131, 677.267 629.004 C 674.664 626.713, 671.347 624.137, 669.896 623.280 C 668.293 622.332, 665.932 618.932, 663.879 614.611 C 660.893 608.326, 660.151 607.468, 657.500 607.227 C 655.850 607.077, 652.925 607.752, 651 608.727 M 242.363 767.922 C 233.238 772.066, 226.244 781.004, 227.623 786.758 C 230.289 797.877, 239.638 806.536, 253.131 810.382 C 260.425 812.461, 263.490 814.881, 262.556 817.823 C 260.741 823.542, 249.511 824.320, 239.668 819.410 C 233.528 816.348, 232.722 816.383, 228.802 819.886 L 225.572 822.772 229.297 827.318 C 238.776 838.885, 255.318 840.926, 269 832.216 C 275.792 827.892, 279.286 822.225, 279.286 815.533 C 279.286 806.005, 275.287 802.372, 256.342 794.683 C 248.015 791.303, 243.412 788.903, 243.206 787.831 C 242.771 785.574, 246.640 782.188, 251.222 780.815 C 254.559 779.815, 255.717 779.982, 260.859 782.200 C 267.678 785.143, 269.152 784.795, 276.117 778.605 C 278.528 776.462, 279.909 775.044, 279.186 775.453 C 278.391 775.904, 275.680 774.743, 272.326 772.516 C 269.276 770.491, 264.973 768.196, 262.765 767.417 C 257.064 765.406, 247.377 765.646, 242.363 767.922 M 282.964 768.067 C 282.084 769.712, 282.281 770.939, 283.929 774.067 C 285.068 776.230, 286.891 779.688, 287.980 781.750 C 289.069 783.813, 292.420 792.475, 295.428 801 C 300.854 816.384, 308.403 834.709, 309.992 836.360 C 310.448 836.834, 313.899 836.911, 317.660 836.532 L 324.500 835.842 329.240 824.171 C 331.847 817.752, 336.226 805.871, 338.972 797.768 C 341.717 789.666, 345.323 780.038, 346.984 776.374 C 350.821 767.913, 350.234 767, 340.953 767 L 334.152 767 330.029 777.750 C 327.762 783.663, 323.815 793.857, 321.259 800.404 L 316.610 812.308 314.926 808.341 C 313.999 806.160, 312.914 802.828, 312.514 800.938 C 312.113 799.047, 309.966 793.028, 307.742 787.563 C 305.517 782.097, 303.177 775.572, 302.541 773.063 C 301.404 768.573, 301.298 768.482, 295.943 767.346 C 287.342 765.523, 284.233 765.696, 282.964 768.067 M 379.355 767.003 C 369.310 769.080, 358.502 777.351, 354.751 785.831 C 353.366 788.962, 352.542 793.430, 352.222 799.547 C 351.608 811.283, 353.486 818.068, 359.336 825.245 C 366.435 833.956, 374.079 837.246, 387.117 837.202 C 396.249 837.171, 401.138 835.085, 408.250 828.184 L 413 823.575 413 811.427 L 413 799.279 407.750 798.648 C 404.863 798.301, 398.113 798.013, 392.750 798.009 L 383 798 383 804 C 383 807.300, 383.113 810.337, 383.250 810.750 C 383.387 811.163, 386.650 811.500, 390.500 811.500 C 397.071 811.500, 397.520 811.643, 397.830 813.832 C 398.561 818.994, 391.270 823.436, 383.168 822.764 C 378.563 822.382, 377.207 821.796, 374.867 819.177 C 368.599 812.162, 366.919 793.951, 372.030 788.428 C 377.962 782.017, 388.888 780.152, 394.671 784.563 C 397.017 786.352, 398.705 786.931, 400.265 786.481 C 406.535 784.676, 411 782.596, 411 781.482 C 411 779.283, 402.993 772.142, 397.664 769.588 C 391.649 766.705, 385.198 765.794, 379.355 767.003 M 660.500 768.030 C 654.872 770.775, 650 776.554, 650 780.485 C 650 785.399, 652.695 793.279, 655.879 797.674 C 658.851 801.777, 663.770 804.629, 673.930 808.140 C 683.164 811.331, 685.431 815.367, 680.559 819.944 C 677.294 823.012, 671.596 822.878, 664.355 819.562 C 661.277 818.153, 657.906 817, 656.864 817 C 654.062 817, 647.528 823.328, 648.288 825.307 C 648.629 826.196, 652.108 829.051, 656.020 831.652 C 662.063 835.670, 664.030 836.447, 669.094 836.813 C 679.721 837.582, 690.108 832.975, 695.959 824.898 C 698.338 821.613, 699 819.659, 699 815.915 C 699 813.283, 698.580 810.026, 698.067 808.676 C 695.526 801.992, 685.441 794.732, 674.975 792.052 C 666.339 789.841, 665 789.006, 665 785.828 C 665 783.430, 665.630 782.635, 668.468 781.449 C 673.302 779.429, 675.307 779.615, 681.266 782.635 L 686.466 785.270 691.733 782.512 C 695.116 780.741, 697 779.111, 697 777.955 C 697 775.231, 689.222 769.144, 683.612 767.477 C 676.459 765.353, 665.450 765.616, 660.500 768.030 M 702 768.847 C 702 769.908, 703.329 773.638, 704.954 777.138 C 706.579 780.637, 709.324 788.450, 711.053 794.500 C 713.652 803.593, 720.929 824.046, 725.032 833.794 C 725.928 835.923, 726.506 836.067, 733.080 835.794 L 740.162 835.500 750.449 806.500 C 756.106 790.550, 761.302 776.296, 761.994 774.824 C 762.687 773.352, 762.963 770.989, 762.608 769.574 C 761.991 767.118, 761.644 767, 755.016 767 C 746.766 767, 747.578 765.988, 741.440 783.924 C 731.258 813.673, 732.206 812.175, 729.939 802.088 C 729.270 799.111, 726.931 792.136, 724.741 786.588 C 722.551 781.039, 720.222 774.475, 719.567 772 L 718.375 767.500 710.187 767.210 C 702.668 766.943, 702 767.076, 702 768.847 M 785.825 768.400 C 778.394 771.054, 770.683 778.847, 767.289 787.132 C 764.609 793.676, 764.893 809.624, 767.823 817.080 C 770.389 823.607, 777.010 830.943, 783.179 834.093 C 788.526 836.824, 798.888 837.706, 805.888 836.027 C 811.659 834.642, 822.289 828.196, 823.965 825.065 C 824.575 823.926, 825.350 817.846, 825.687 811.554 L 826.300 800.113 823.900 799.612 C 822.580 799.337, 815.313 798.918, 807.750 798.682 L 794 798.253 794 804.515 L 794 810.777 797.517 811.437 C 799.451 811.800, 801.506 811.806, 802.082 811.449 C 802.658 811.093, 804.676 811.092, 806.565 811.446 C 814.918 813.013, 806.866 822.953, 797.210 822.994 C 794.763 823.005, 788.025 818.968, 786.431 816.536 C 782.082 809.897, 780.479 795.842, 783.423 790.150 C 785.757 785.635, 792.051 781.798, 798.069 781.219 C 802.609 780.783, 803.483 781.053, 807.204 784.044 L 811.319 787.350 815.835 784.925 C 818.319 783.591, 820.822 781.729, 821.398 780.786 C 823.001 778.161, 819.355 774.045, 812.067 770.250 C 806.479 767.340, 804.971 767.005, 797.663 767.044 C 793.173 767.068, 787.846 767.678, 785.825 768.400" stroke="none" fill="#000000" fill-rule="evenodd"/>
</svg>