<svg xmlns="http://www.w3.org/2000/svg" width="1024" height="1024" viewBox="0 0 1024 1024" version="1.1">
	<path d="M 174.300 132.815 C 164.334 136.348, 157.254 142.865, 152.729 152.670 L 150.500 157.500 150.244 481.842 C 149.995 797.482, 150.038 806.296, 151.869 810.342 C 156.303 820.146, 164.488 827.708, 173.205 830.055 C 175.674 830.720, 289.866 831.067, 510.025 831.079 L 843.109 831.097 848.613 828.577 C 856.157 825.123, 864.224 816.690, 866.947 809.412 L 869.073 803.730 869.187 480.033 L 869.300 156.336 866.753 150.771 C 863.297 143.224, 855.702 135.506, 850.317 134.073 C 847.302 133.270, 754.809 132.834, 518.817 132.509 C 338.793 132.262, 188.800 131.815, 185.500 131.516 C 181.099 131.117, 178.114 131.463, 174.300 132.815 M 506.610 155.472 C 505.643 156.949, 487.122 175.897, 465.453 197.578 C 441.150 221.896, 426.751 237, 427.873 237 C 431.503 237, 433.191 240.479, 433.884 249.391 C 434.247 254.058, 434.845 258.179, 435.214 258.548 C 436.318 259.651, 481.512 218.812, 487.013 211.740 C 488.194 210.223, 489.626 209.269, 490.196 209.621 C 490.899 210.056, 490.996 219.841, 490.497 240.131 L 489.762 270 508.367 270 L 526.972 270 527.236 238.914 L 527.500 207.827 543.500 223.690 C 569.029 249.001, 582.697 261.233, 583.400 259.400 C 583.730 258.540, 584 253.909, 584 249.109 C 584 239.315, 585.245 236.308, 588.905 237.265 C 592.111 238.103, 588.081 233.850, 547.442 193.500 C 528.054 174.250, 511.331 157.215, 510.280 155.644 L 508.369 152.787 506.610 155.472 M 238.985 178.857 C 237.052 180.861, 227.755 190.055, 218.325 199.290 L 201.179 216.079 215.840 230.812 C 223.903 238.914, 239.772 254.568, 251.105 265.598 L 271.709 285.652 264.105 291.912 C 256.363 298.285, 221.699 332.032, 222.288 332.622 C 222.466 332.800, 253.060 333.070, 290.274 333.223 L 357.936 333.500 358.218 264 C 358.373 225.775, 358.440 194.365, 358.366 194.199 C 358.052 193.496, 312.415 240.163, 311.567 242.054 C 310.730 243.921, 307.136 240.596, 276.567 209.674 L 242.500 175.214 238.985 178.857 M 741.500 210.035 C 723.350 228.669, 708.275 243.874, 708 243.822 C 707.725 243.770, 696.925 232.866, 684 219.589 C 671.075 206.313, 660.471 195.462, 660.434 195.475 C 660.398 195.489, 660.562 226.438, 660.799 264.250 L 661.229 333 713.955 333 C 742.955 333, 773.616 333.270, 782.091 333.601 L 797.500 334.202 784.500 321.323 C 777.350 314.239, 766.017 303.419, 759.315 297.277 L 747.130 286.112 773.358 260.306 C 798.537 235.531, 815.974 217.160, 816.023 215.354 C 816.057 214.089, 776.809 175.987, 775.564 176.077 C 774.979 176.119, 759.650 191.400, 741.500 210.035 M 484.500 286.693 C 476.293 287.426, 454.966 292.130, 444.414 295.535 C 415.272 304.940, 384.850 325.538, 362.059 351.298 C 349.899 365.041, 346.802 369.132, 340.257 380.098 C 319.818 414.339, 311.878 448.175, 314.798 488.586 C 316.191 507.846, 318.989 523.916, 323.105 536.277 C 327.355 549.040, 338.478 571.405, 346.964 584.247 C 370.818 620.343, 415.612 651.024, 462 663.039 C 481.813 668.170, 521.627 669.627, 543.500 666.021 C 560.708 663.184, 580.276 656.977, 595.500 649.527 C 612.392 641.260, 617.894 637.842, 630.272 627.924 C 660.907 603.376, 680.085 576.934, 693.317 541 C 705.440 508.080, 707.487 463.647, 698.501 428.500 C 691.062 399.399, 671.728 366.760, 647.519 342.431 C 617.627 312.391, 585.044 295.182, 545.316 288.452 C 532.751 286.324, 528.048 286.022, 509.671 286.168 C 498.027 286.261, 486.700 286.497, 484.500 286.693 M 497.593 303.096 C 457.877 306.367, 429.687 316.813, 399.729 339.360 C 375.427 357.651, 352.482 388.573, 341.884 417.315 C 334.029 438.619, 332.042 450.690, 332.018 477.257 C 331.992 506.038, 334.179 518.050, 343.578 540.758 C 354.572 567.315, 371.339 590.353, 392.500 607.978 C 428.193 637.706, 466.327 652.033, 509.628 651.984 C 542.465 651.947, 571.748 644.053, 601.500 627.218 C 632.401 609.733, 658.553 579.279, 673.840 542.977 C 690.055 504.471, 691.099 451.108, 676.312 416.560 C 659.689 377.722, 635.292 348.170, 603.395 328.234 C 579.699 313.424, 559.436 306.579, 530.060 303.461 C 515.346 301.899, 512.511 301.867, 497.593 303.096 M 489 326.088 C 465.453 329.110, 441.954 337.971, 421 351.729 C 411.034 358.273, 387.770 381.066, 380.919 391 C 368.478 409.037, 360.350 428.699, 356.324 450.500 C 353.710 464.653, 353.958 491.422, 356.838 505.862 C 363.116 537.350, 374.010 557.734, 397.391 581.750 C 401.274 585.737, 405.175 589, 406.061 589 C 406.947 589, 410.554 586.687, 414.076 583.861 L 420.479 578.722 431.490 579.356 C 437.545 579.705, 448.108 579.993, 454.962 579.995 L 467.425 580 462.462 585.099 C 459.733 587.904, 452.887 594.014, 447.250 598.679 C 441.613 603.343, 437 607.727, 437 608.421 C 437 613.231, 481.452 626.643, 503.537 628.496 C 512.439 629.243, 531.841 627.028, 539.205 624.424 C 541.567 623.589, 547.629 622.009, 552.676 620.914 C 571.755 616.774, 589.905 609.170, 600.024 601.077 C 631.360 576.016, 647.900 553.103, 657.488 521.469 C 667.718 487.720, 665.722 446.912, 652.435 418.154 C 640.283 391.851, 621.735 368.917, 598.957 352.028 C 581.535 339.111, 558.984 330.210, 534.220 326.477 C 523.786 324.904, 499.828 324.698, 489 326.088 M 539.500 354.885 C 531.375 356.999, 525.087 363.250, 522.894 371.394 C 519.971 382.249, 527.476 396.969, 538.218 401.449 C 549.132 406.002, 563.584 399.203, 568.781 387.073 C 571.050 381.775, 570.786 372.366, 568.229 367.405 C 565.496 362.104, 560.034 357.356, 555.160 356.043 C 549.384 354.488, 542.875 354.006, 539.500 354.885 M 245.303 412.500 C 235.845 421.850, 216.490 440.796, 202.291 454.602 L 176.475 479.704 189.898 492.102 C 220.004 519.911, 231.012 530.614, 250.775 551.289 L 263 564.077 263 553.473 C 263 540.673, 263.779 538.680, 268.439 539.555 C 270.272 539.898, 272.035 539.752, 272.358 539.230 C 273.142 537.961, 263.620 527.545, 254.148 519.311 C 249.942 515.654, 243.134 509.570, 239.020 505.791 L 231.539 498.921 264.770 499.210 L 298.001 499.500 298.001 479.750 L 298 460 264.750 459.968 L 231.500 459.937 234.500 457.323 C 238.422 453.907, 262.155 431.805, 268.250 425.893 C 270.863 423.359, 273 420.771, 273 420.143 C 273 419.514, 271.538 418.993, 269.750 418.985 C 263.995 418.958, 263.548 418.117, 263 406.287 L 262.500 395.500 245.303 412.500 M 753 399.951 C 753 405.501, 751.230 415.026, 749.944 416.399 C 749.481 416.894, 747.425 417.571, 745.375 417.904 L 741.648 418.510 747.127 424.005 C 750.140 427.027, 759.895 436.214, 768.803 444.421 C 777.711 452.628, 785.001 459.603, 785.002 459.921 C 785.003 460.239, 779.265 460.390, 772.252 460.255 C 765.238 460.121, 750.837 459.896, 740.249 459.755 L 720.998 459.500 720.999 479.500 L 721 499.500 733.250 499.259 C 765.512 498.626, 782.991 498.532, 782.898 498.993 C 782.842 499.272, 773.780 508.050, 762.760 518.500 L 742.724 537.500 747.320 538.041 C 749.848 538.339, 752.272 538.937, 752.708 539.370 C 753.144 539.803, 753.725 544.807, 754 550.490 L 754.500 560.823 760 554.392 C 763.025 550.855, 771.393 542.682, 778.597 536.230 C 785.800 529.779, 797.513 519.100, 804.626 512.500 C 811.740 505.900, 822.823 495.777, 829.257 490.004 L 840.954 479.507 834.727 473.154 C 831.302 469.660, 822.875 461.699, 816 455.463 C 809.125 449.227, 792.250 433.074, 778.500 419.568 C 764.750 406.062, 753.388 395.009, 753.250 395.006 C 753.112 395.003, 753 397.228, 753 399.951 M 455.548 400.463 C 444.736 413.949, 426 439.442, 426 440.667 C 426 442.772, 431.882 449.764, 435.570 452.043 C 437.465 453.214, 440.514 454, 443.165 454 L 447.593 454 458.047 438.804 C 463.796 430.447, 468.906 422.797, 469.403 421.804 C 470.197 420.218, 471.734 420, 482.153 420 C 489.099 420, 494 420.399, 494 420.965 C 494 421.496, 491.599 425.659, 488.664 430.215 C 485.730 434.772, 478.305 446.659, 472.164 456.630 L 461 474.761 461 487.751 L 461 500.742 452.828 501.455 C 448.333 501.847, 435.213 501.841, 423.673 501.442 L 402.689 500.716 403.345 505.497 C 403.705 508.127, 404 514.716, 404 520.140 L 404 530 432.250 529.996 C 447.788 529.994, 466.238 529.699, 473.250 529.342 L 486 528.691 486 509.846 C 486 499.481, 486.316 491, 486.702 491 C 487.089 491, 488.776 492.310, 490.452 493.912 C 492.129 495.513, 496.041 498.776, 499.147 501.162 C 502.253 503.548, 508.866 508.797, 513.842 512.827 C 522.374 519.736, 522.953 520.448, 523.997 525.327 C 524.606 528.172, 528.355 540.175, 532.327 552 L 539.549 573.500 554.781 573.500 C 564.518 573.500, 569.877 573.139, 569.637 572.500 C 569.430 571.950, 564.438 557.100, 558.541 539.500 L 547.821 507.500 532.661 492.842 L 517.500 478.183 519.563 474.342 C 527.099 460.304, 533.006 450.312, 535.694 447.051 C 535.897 446.805, 540.275 450.797, 545.422 455.922 L 554.780 465.242 582.140 465.083 C 606.662 464.941, 609.639 464.747, 610.842 463.212 C 611.828 461.955, 612.058 459.124, 611.707 452.552 C 611 439.321, 611.547 439.591, 587 440.341 L 567.500 440.936 560 431.893 C 555.875 426.920, 551.475 420.824, 550.223 418.348 C 548.236 414.418, 547.010 413.412, 540.599 410.450 C 536.558 408.583, 530.751 405.019, 527.695 402.530 C 524.639 400.040, 521.049 397.589, 519.717 397.082 C 518.385 396.576, 504.130 396.221, 488.039 396.294 L 458.784 396.427 455.548 400.463 M 480.334 588.711 C 474.215 594.603, 469.296 600.291, 467.976 603 C 466.771 605.475, 464.401 608.956, 462.711 610.735 C 461.020 612.514, 459.968 614.301, 460.372 614.705 C 460.776 615.110, 464.184 615.615, 467.944 615.827 C 473.860 616.161, 475.367 615.872, 479.140 613.678 C 483.720 611.015, 497.127 605.435, 502.882 603.796 C 507.181 602.572, 514.859 595.411, 520.455 587.405 L 524.805 581.183 518.152 580.622 C 514.494 580.313, 506.775 579.804, 501 579.491 L 490.500 578.921 480.334 588.711 M 574.399 579.976 C 573.244 580.443, 570.669 583.002, 568.677 585.663 C 566.684 588.323, 560.801 594.700, 555.602 599.834 C 550.402 604.967, 545.440 610.660, 544.574 612.485 C 542.682 616.472, 542.531 620, 544.252 620 C 547.340 620, 566.263 613.947, 568.744 612.166 C 570.260 611.077, 576.225 604.972, 582 598.598 C 587.775 592.224, 594.413 585.629, 596.750 583.943 C 599.087 582.256, 601 580.454, 601 579.938 C 601 578.768, 577.304 578.802, 574.399 579.976 M 542.011 583.647 C 534.408 589.042, 532.618 591.698, 531.483 599.263 C 530.928 602.968, 531.074 604, 532.154 604 C 533.548 604, 555 583.093, 555 581.734 C 555 581.330, 552.862 581.039, 550.250 581.086 C 546.901 581.146, 544.471 581.901, 542.011 583.647 M 724.895 628.750 L 661.291 629.015 660.782 674.257 C 660.502 699.141, 660.501 729.366, 660.781 741.425 L 661.289 763.349 684.561 739.425 L 707.834 715.500 718.667 726.578 C 724.625 732.671, 733.325 741.241, 738 745.622 C 742.675 750.004, 753.210 760.682, 761.411 769.351 L 776.323 785.113 781.770 779.806 C 788.122 773.618, 805.628 754.648, 811.705 747.367 L 815.910 742.329 784.396 710.915 C 767.062 693.637, 751.991 678.283, 750.904 676.795 L 748.928 674.090 757.189 666.295 C 761.733 662.008, 772.212 651.638, 780.476 643.250 C 795.169 628.338, 795.425 628.005, 792.001 628.242 C 790.076 628.376, 759.878 628.604, 724.895 628.750 M 237.722 642.013 C 244.750 648.895, 255.113 658.795, 260.751 664.013 L 271.002 673.500 235.999 708.865 L 200.995 744.230 211.247 754.370 C 228.260 771.195, 241.910 784.005, 242.728 783.912 C 243.153 783.864, 248.173 778.577, 253.885 772.162 C 259.597 765.748, 272.657 751.950, 282.908 741.500 C 293.158 731.050, 303.225 720.582, 305.280 718.238 L 309.016 713.976 321.852 727.238 C 328.912 734.532, 336.834 742.975, 339.457 746 C 342.079 749.025, 347.437 754.537, 351.362 758.250 C 355.288 761.962, 358.500 764.999, 358.500 765 C 358.500 765, 358.500 734.404, 358.500 697.009 L 358.500 629.017 291.722 629.259 L 224.944 629.500 237.722 642.013 M 490.923 684.750 C 490.880 685.163, 490.891 698.663, 490.946 714.750 C 491.004 731.650, 490.663 744, 490.139 744 C 489.279 744, 460.562 716.686, 443.606 699.739 C 438.512 694.648, 435.456 692.262, 434.992 693.013 C 434.597 693.653, 433.972 697.788, 433.604 702.201 C 432.780 712.072, 431.157 715.463, 426.523 716.992 L 423.012 718.151 427.756 721.914 C 435.562 728.105, 474.020 765.205, 481.923 774.168 C 485.964 778.750, 493.623 787, 498.944 792.500 L 508.617 802.500 520.558 789.504 C 538.070 770.446, 589.497 719.294, 591.919 718.526 C 594.448 717.723, 594.673 716.001, 592.250 715.996 C 591.288 715.994, 589.109 715.144, 587.408 714.107 C 584.379 712.260, 584.303 712.024, 583.673 702.425 C 583.319 697.038, 582.628 692.228, 582.138 691.738 C 581.615 691.215, 580.404 692.017, 579.213 693.673 C 576.688 697.185, 557.821 715.708, 540.221 731.955 L 526.942 744.213 527.221 714.106 L 527.500 683.999 509.250 683.999 C 499.212 684, 490.965 684.337, 490.923 684.750" stroke="none" fill="#000000" fill-rule="evenodd"/>
</svg>