<svg xmlns="http://www.w3.org/2000/svg" width="1024" height="1024" viewBox="0 0 1024 1024" version="1.1">
	<path d="M 777.500 123.910 C 768.150 127.084, 743.625 135.190, 723 141.924 C 702.375 148.657, 651.075 165.616, 609 179.610 C 518 209.876, 508.668 212.865, 459.208 227.577 C 451.701 229.810, 450.042 230.644, 450.568 231.920 C 450.926 232.789, 452.468 237.910, 453.994 243.301 C 455.520 248.691, 457.001 253.335, 457.286 253.619 C 457.571 253.904, 464.036 251.900, 471.652 249.165 C 479.268 246.430, 495.482 240.610, 507.682 236.231 C 519.883 231.852, 531.898 227.078, 534.384 225.621 L 538.903 222.973 543.201 225.967 C 547.414 228.902, 555.853 231.278, 581 236.611 C 593.934 239.354, 612.350 239.143, 621.965 236.142 C 635.247 231.996, 646.713 224.984, 654.082 216.500 C 664.718 204.254, 671.121 194.581, 674.448 185.733 C 675.720 182.349, 677.264 179.412, 677.878 179.207 C 678.493 179.002, 680.460 179.736, 682.248 180.838 C 697.156 190.025, 734.382 194.640, 749.718 189.204 C 753.139 187.992, 756.401 187, 756.968 187 C 757.672 187, 758 227.855, 758 315.418 L 758 443.837 754.603 445.936 C 750.589 448.417, 748.624 451.184, 746.980 456.672 C 745.296 462.292, 748.164 468.816, 753.914 472.446 L 758 475.025 758 485.544 C 758 493.103, 757.648 496.162, 756.750 496.417 C 756.063 496.612, 753.547 497.303, 751.159 497.953 C 744.877 499.663, 736.918 507.776, 733.945 515.500 C 729.290 527.593, 731.636 539.900, 740.298 548.834 C 746.783 555.523, 752.886 558.188, 763.047 558.767 C 773.907 559.386, 780.864 557.492, 787.688 552.060 C 794.768 546.422, 798.090 540.940, 799.376 532.771 C 800.187 527.626, 800.791 526.090, 801.845 526.494 C 802.884 526.893, 803.080 526.451, 802.611 524.765 C 801.814 521.895, 800.304 510.654, 799.453 501.250 C 799.092 497.262, 798.436 494, 797.996 494 C 797.555 494, 795.516 496.588, 793.463 499.750 C 791.411 502.913, 787.093 509.464, 783.866 514.310 C 780.640 519.155, 778 524.045, 778 525.177 C 778 527.296, 778.738 527.328, 784.750 525.464 C 786.778 524.835, 786.998 525.099, 786.978 528.133 C 786.952 532.190, 784.061 538.808, 781.207 541.345 C 775.425 546.487, 762.447 547.537, 754.446 543.511 C 740.168 536.326, 741.057 518.189, 755.991 512.004 C 759.681 510.475, 760.021 510.741, 760.682 515.667 C 761.175 519.341, 761.353 519.500, 764.960 519.500 L 768.723 519.500 769.357 508.500 C 769.706 502.450, 769.993 492.261, 769.995 485.858 C 770 474.579, 770.071 474.199, 772.278 473.645 C 775.754 472.773, 780.007 467.732, 780.659 463.712 C 781.739 457.060, 780.270 453.146, 774.682 447.789 L 769.500 442.821 769.208 313.018 L 768.916 183.215 772.467 181.020 C 778.951 177.013, 783.711 166.229, 782.516 158.256 C 781.987 154.734, 780.907 152.919, 777.253 149.418 C 774.724 146.995, 772.845 144.842, 773.077 144.633 C 774.351 143.492, 780.462 140.956, 787.635 138.593 C 797.041 135.494, 799.464 133.352, 799.431 128.170 C 799.406 124.313, 797.200 118.825, 795.500 118.394 C 794.950 118.254, 786.850 120.736, 777.500 123.910 M 749.945 151.971 C 749.091 152.471, 737.045 156.715, 723.177 161.401 C 709.310 166.087, 697.230 170.331, 696.334 170.833 C 694.003 172.138, 703.651 175.590, 715.320 177.626 C 726.165 179.519, 741.515 179.011, 747.250 176.570 C 751.404 174.801, 751.595 174.370, 749.468 171.559 C 747.727 169.257, 747.518 160.804, 749.125 157.684 C 749.744 156.483, 751.172 154.488, 752.299 153.250 C 754.463 150.874, 753.092 150.129, 749.945 151.971 M 761.223 157.557 C 758.612 159.385, 758.358 162.857, 760.526 167.050 C 762.516 170.898, 764.116 170.771, 767.896 166.465 C 772.047 161.738, 771.912 159.569, 767.316 157.150 C 764.476 155.655, 763.880 155.695, 761.223 157.557 M 658 182.966 C 656.075 183.949, 648.875 186.675, 642 189.023 C 622.722 195.607, 598.079 204.290, 581 210.516 C 572.475 213.623, 564.712 216.406, 563.750 216.700 C 560.760 217.611, 561.815 218.795, 566.250 219.502 C 568.587 219.875, 575.761 221.489, 582.192 223.090 C 608.167 229.555, 629.232 224.693, 645.468 208.485 C 653.031 200.936, 662.378 186.481, 661.832 183.181 C 661.507 181.221, 661.425 181.216, 658 182.966 M 406 231.038 C 394.175 234.842, 380.337 239.152, 375.250 240.614 C 370.163 242.076, 366 243.627, 366 244.059 C 366 246.186, 374.300 279.299, 376.207 284.782 C 377.895 289.633, 378.746 290.919, 379.946 290.427 C 380.801 290.077, 390.725 286.515, 402 282.512 C 440.922 268.692, 446.501 266.692, 446.812 266.452 C 447.271 266.096, 441.187 246.753, 437.707 237.500 C 434.198 228.173, 431.536 223.976, 429.182 224.060 C 428.257 224.093, 417.825 227.233, 406 231.038 M 344.969 252.329 C 342.477 253.523, 328.181 258.550, 313.199 263.500 C 286.515 272.316, 285.968 272.551, 286.410 275 C 286.932 277.891, 299.005 317.321, 299.534 317.860 C 299.728 318.058, 302.807 317.173, 306.376 315.894 C 312.589 313.665, 312.946 313.641, 314.812 315.330 C 315.884 316.300, 318.663 322.488, 320.987 329.081 C 324.853 340.044, 325.104 341.335, 323.920 344.193 C 323.208 345.912, 316.955 355.234, 310.023 364.909 C 268.845 422.389, 258.188 437.215, 253.533 443.500 C 243.214 457.432, 232.371 472.881, 219.314 492.254 C 206.687 510.988, 206 512.262, 206 516.952 C 206 525.707, 218.479 560.486, 224.042 567.234 C 231.456 576.229, 245.683 578.030, 264.500 572.356 C 271.718 570.179, 274.594 568.854, 274.838 567.592 C 275.025 566.630, 273.675 559.552, 271.838 551.862 L 268.500 537.880 264.430 536.076 C 253.234 531.113, 246.955 516.755, 249.139 501.111 C 250.736 489.672, 257.743 479.679, 267.716 474.617 C 273.158 471.854, 284.875 470.499, 291.634 471.850 C 313.047 476.131, 325.664 494.304, 320.991 514.134 C 319.480 520.544, 315.629 528.549, 313.476 529.754 C 312.126 530.509, 312.392 532.043, 315.562 541.782 L 319.195 552.945 322.847 551.375 C 324.856 550.511, 331.675 547.998, 338 545.792 C 344.325 543.585, 350.797 541.111, 352.383 540.295 C 355.796 538.538, 355.121 537.782, 362.069 551.151 C 371.193 568.710, 382.937 578.674, 397.194 580.951 C 405.105 582.215, 413.732 581.224, 432.156 576.934 L 444.813 573.987 452.656 578.002 C 462.808 583.199, 470.355 585.003, 485.680 585.897 C 505.933 587.079, 513.538 585.511, 521.778 578.458 C 524.939 575.752, 525.904 574.125, 526.431 570.611 C 526.797 568.172, 527.665 565.959, 528.360 565.692 C 532.089 564.261, 545.648 551.950, 549.611 546.397 C 554.956 538.906, 563.525 519.780, 564.985 512.079 C 567.252 500.127, 565.838 485.314, 561.089 471.251 C 559.929 467.813, 558.496 462.748, 557.905 459.995 C 556.897 455.291, 556.988 454.803, 559.416 451.918 C 563.038 447.613, 562.870 441.512, 558.819 430.302 C 555.411 420.870, 553.233 418.116, 545.778 413.811 C 541.401 411.284, 540.995 410.682, 539.019 403.811 C 536.103 393.672, 531.867 382.475, 530.021 380.028 C 528.483 377.988, 528.444 377.996, 522.973 381.418 C 519.333 383.695, 515.192 385.256, 510.736 386.032 C 507.031 386.677, 504 387.613, 504 388.111 C 504 388.609, 506.213 394.300, 508.918 400.758 C 511.623 407.216, 516.599 422.145, 519.977 433.933 C 523.354 445.721, 528.065 460.121, 530.445 465.933 C 532.825 471.745, 535.746 480.775, 536.936 486 C 538.126 491.225, 539.980 496.566, 541.057 497.870 C 542.860 500.052, 543.348 500.155, 547.225 499.171 C 549.541 498.583, 551.675 498.346, 551.968 498.644 C 552.260 498.942, 552.429 502.856, 552.343 507.343 C 552.023 524.006, 541.622 542.901, 528.054 551.466 L 523.852 554.118 519.531 550.135 C 513.204 544.303, 504.598 542.397, 498.636 545.506 C 497.060 546.328, 495.417 547, 494.983 547 C 494.550 547, 493.238 543.850, 492.069 540 C 490.596 535.152, 489.453 533, 488.349 533 C 487.473 533, 481.973 534.534, 476.128 536.408 C 470.283 538.283, 459.200 541.652, 451.500 543.896 C 443.800 546.139, 434.125 549.155, 430 550.597 C 425.875 552.039, 418.867 554.109, 414.426 555.196 C 404.029 557.741, 399.342 556.720, 393.489 550.634 C 389.555 546.544, 386.326 539.274, 387.792 537.808 C 388.730 536.870, 400.760 533, 402.737 533 C 403.549 533, 404.003 532.438, 403.745 531.750 C 402.045 527.217, 378.917 456.725, 378.072 453.500 C 377.496 451.300, 376.555 447.600, 375.981 445.277 L 374.937 441.054 369.719 443.086 C 366.848 444.203, 362.564 446.043, 360.198 447.173 C 357.832 448.304, 355.627 448.960, 355.299 448.632 C 354.970 448.304, 354.491 444.747, 354.233 440.727 C 353.848 434.723, 354.155 432.511, 355.955 428.327 C 358.961 421.339, 362.246 418.528, 372.609 414.076 C 382.041 410.025, 426.049 395.501, 439.516 391.994 C 450.997 389.005, 450.734 389.311, 448.028 382.076 C 446.771 378.715, 444.005 373.484, 441.882 370.453 C 439.758 367.421, 437.298 363.544, 436.415 361.836 C 434.908 358.921, 434.929 358.572, 436.761 356.116 C 439.893 351.917, 441.246 352.458, 444.500 359.212 C 448.590 367.703, 451.040 369.291, 459.956 369.235 C 466.065 369.197, 467.549 368.819, 470.540 366.537 C 474.731 363.340, 477.495 358.161, 478.430 351.750 C 478.811 349.137, 479.264 347, 479.437 347 C 480.553 347, 491.796 352.469, 494.608 354.380 C 496.484 355.654, 501.625 360.140, 506.033 364.349 L 514.048 372 520.024 372 C 523.311 372, 526 371.720, 526 371.377 C 526 369.706, 516.488 357.733, 511.642 353.304 C 503.925 346.251, 497.940 342.508, 488.655 338.927 C 483.959 337.116, 478.818 334.249, 476.313 332.044 C 473.952 329.966, 469.979 327.694, 467.484 326.996 C 459.255 324.692, 447.583 327.378, 442.788 332.680 C 441.847 333.721, 440.378 336.244, 439.525 338.287 C 438.317 341.178, 437.415 342, 435.454 342 C 430.218 342, 425.571 345.320, 410.544 359.799 C 402.035 367.998, 392.693 376.341, 389.786 378.338 C 386.879 380.335, 377.300 384.916, 368.500 388.517 C 350.101 396.046, 343.658 399.961, 338.105 406.987 C 332.755 413.755, 330.096 421.340, 329.340 431.988 L 328.714 440.812 318.607 443.812 C 313.048 445.462, 307.712 447.127, 306.750 447.513 C 304.585 448.380, 304.580 448.680, 306.980 434.855 C 309.519 420.237, 311.988 412.822, 317.698 402.677 C 320.229 398.180, 324.173 391.125, 326.462 387 C 328.752 382.875, 332.975 375.930, 335.848 371.566 C 338.722 367.203, 342.717 360.305, 344.726 356.239 L 348.381 348.845 347.168 341.673 C 346.501 337.728, 344.561 328.785, 342.857 321.799 C 341.153 314.814, 340.024 308.042, 340.348 306.751 C 341.056 303.927, 345.679 301.270, 356.500 297.465 C 360.900 295.918, 364.636 294.557, 364.802 294.441 C 365.125 294.215, 352.131 252.022, 351.348 250.755 C 350.704 249.712, 350.138 249.852, 344.969 252.329 M 259.275 280.916 C 252.020 283.085, 243.835 286.090, 241.244 287.536 C 240.987 287.679, 253.898 327.109, 255.872 332.212 L 256.922 334.925 262.310 332.542 C 265.273 331.231, 271.484 328.978, 276.110 327.536 C 280.737 326.093, 285.109 324.551, 285.826 324.107 C 286.855 323.472, 286.368 320.895, 283.518 311.901 C 278.157 294.981, 271.476 278.524, 269.890 278.329 C 269.125 278.234, 264.349 279.399, 259.275 280.916 M 224 293.893 C 223.175 294.366, 214.175 297.550, 204 300.968 C 193.825 304.386, 184.530 307.799, 183.344 308.552 C 180.320 310.475, 179.603 316.210, 181.492 323.378 C 184.117 333.337, 190.821 349.362, 193.894 353.022 L 196.815 356.500 203.157 354.229 C 219.024 348.548, 239.284 342, 240.997 342 C 242.034 342, 243.149 341.569, 243.474 341.041 C 244.436 339.485, 228.496 293.532, 226.902 293.267 C 226.131 293.139, 224.825 293.421, 224 293.893 M 455.250 339.989 C 451.572 342.232, 450.818 346.054, 452.536 353.750 C 453.631 358.655, 466.179 355.121, 467.586 349.512 C 468.772 344.789, 464.308 337.993, 460.027 338.004 C 459.187 338.006, 457.038 338.899, 455.250 339.989 M 483.500 411.120 C 476.350 413.267, 468.137 415.561, 465.250 416.218 C 458.884 417.667, 458.812 418.133, 463.095 430 C 464.782 434.675, 468.096 444.575, 470.458 452 C 483.284 492.308, 485.815 499.495, 487.135 499.344 C 489.540 499.068, 517.012 491.022, 520.446 489.587 L 523.758 488.203 516.939 467.352 C 513.189 455.883, 508.719 441.325, 507.006 435 C 503.233 421.069, 499.144 409.356, 497.622 408.124 C 496.917 407.554, 491.667 408.668, 483.500 411.120 M 427.892 412.874 C 420.407 415.494, 412.748 418.366, 410.872 419.256 C 407.512 420.851, 393.599 425.093, 387.250 426.460 C 385.462 426.844, 384 427.446, 384 427.796 C 384 429.735, 406.070 496.755, 415.253 522.703 L 420.280 536.906 422.890 535.579 C 424.326 534.849, 428.425 533.332, 432 532.208 C 451.979 525.929, 476.756 517.769, 477.798 517.125 C 478.676 516.583, 477.901 513.575, 474.918 505.941 C 462.839 475.033, 450.259 436.553, 445.432 415.750 C 444.443 411.488, 443.154 408.025, 442.567 408.055 C 441.980 408.085, 435.376 410.254, 427.892 412.874 M 406.135 423.019 L 401.770 425.005 402.443 430.753 C 402.813 433.914, 404.407 440.325, 405.985 445 C 407.564 449.675, 410.639 459.125, 412.818 466 C 420.639 490.667, 429.201 516.507, 430.127 518.238 C 431.158 520.164, 437.369 520.685, 439.936 519.060 C 441.891 517.823, 440.225 510.590, 431.743 483.500 C 428.127 471.950, 424.646 460.475, 424.009 458 C 421.046 446.496, 413.768 424.942, 412.221 423.092 L 410.500 421.033 406.135 423.019 M 760.245 455.155 C 758.557 456.843, 758.670 461.481, 760.435 462.946 C 762.441 464.611, 768.077 463.853, 769.399 461.741 C 771.110 459.009, 768.207 454.576, 764.464 454.205 C 762.828 454.043, 760.930 454.470, 760.245 455.155 M 280.147 484.141 C 268.910 486.180, 262.087 494.052, 261.235 505.958 C 260.802 512.016, 261.053 513.326, 263.510 517.842 C 270.556 530.787, 284.044 532.334, 300.252 522.055 C 306.778 517.917, 309.337 512.629, 308.811 504.369 C 308.489 499.312, 307.807 497.240, 305.348 493.845 C 299.809 486.199, 289.877 482.374, 280.147 484.141 M 292 536.520 C 287.875 537.803, 283.488 538.885, 282.250 538.926 C 279.282 539.024, 279.355 540.499, 282.938 552.950 C 284.554 558.565, 286.181 565.598, 286.553 568.579 C 286.926 571.561, 287.516 573.991, 287.865 573.979 C 288.214 573.968, 293 572.397, 298.500 570.488 C 304 568.580, 309.512 567.014, 310.750 567.009 C 311.988 567.004, 312.978 566.663, 312.951 566.250 C 312.925 565.837, 310.562 558.529, 307.701 550.009 C 304.231 539.673, 302.001 534.464, 301 534.353 C 300.175 534.262, 296.125 535.237, 292 536.520 M 496.250 555.989 C 493.557 557.631, 493 558.585, 493 561.551 C 493 566.217, 494.225 568.358, 498.355 570.911 C 503.534 574.111, 507.211 573.663, 510.979 569.371 C 513.213 566.826, 513.996 565.108, 513.597 563.621 C 513.283 562.454, 513.021 561.003, 513.014 560.396 C 513.006 559.789, 511.896 558.101, 510.548 556.646 C 507.465 553.320, 501.107 553.028, 496.250 555.989 M 620.450 568.839 C 619.353 569.807, 594.713 581.529, 578.300 588.891 C 567.538 593.718, 545.050 606.174, 536.316 612.144 C 534.015 613.718, 531.229 616.274, 530.125 617.824 L 528.117 620.644 537.672 617.315 C 542.927 615.484, 548.638 613.364, 550.363 612.603 C 565.488 605.935, 589.744 597.727, 602.500 594.961 C 608.563 593.646, 638.979 593.179, 644.366 594.317 L 648.232 595.134 646.005 592.007 C 642.706 587.374, 623.714 568, 622.471 568 C 621.882 568, 620.972 568.377, 620.450 568.839 M 759.182 599.195 C 759.530 631.239, 759.942 633.693, 765.204 635.086 C 767.795 635.773, 767.937 635.610, 768.622 631.151 C 769.015 628.593, 769.373 613.900, 769.418 598.500 L 769.500 570.500 764.182 570.195 L 758.864 569.891 759.182 599.195 M 303.590 582.984 C 298.690 584.583, 293.965 586.654, 293.090 587.587 C 292.216 588.519, 292.031 588.986, 292.681 588.625 C 294.817 587.436, 293.466 583.857, 318.805 657.850 L 322.350 668.200 326.020 667.613 C 332.245 666.617, 340.107 663.725, 339.690 662.584 C 336.442 653.698, 321.342 604.701, 316.785 588.258 C 315.528 583.724, 314.050 580.029, 313.500 580.046 C 312.950 580.063, 308.491 581.385, 303.590 582.984 M 608.428 608.865 C 595.349 611.262, 577.415 616.646, 563 622.502 C 537.252 632.963, 525.112 638.842, 514.525 645.977 C 504.504 652.730, 496.664 657, 494.284 657 C 493.154 657, 491.511 655.903, 490.633 654.562 C 487.659 650.024, 464.701 633.936, 452.050 627.525 C 447.760 625.351, 428.675 618, 427.322 618 C 427.080 618, 427.226 618.557, 427.647 619.238 C 428.429 620.503, 431.281 630.396, 437.527 653.500 C 439.459 660.650, 441.707 668.197, 442.520 670.270 C 444.537 675.408, 444.396 677.773, 441.570 686.229 C 438.234 696.212, 431 724.552, 431 727.639 C 431 729.952, 431.267 730.104, 434.250 729.493 C 439.510 728.414, 459.698 718.389, 466.873 713.293 C 470.518 710.704, 475.975 706.091, 479 703.043 C 482.025 699.994, 485.358 697.027, 486.407 696.450 C 488.177 695.475, 487.945 694.942, 483.157 689 C 480.321 685.480, 478 682.024, 478 681.319 C 478 680.615, 479.113 679.759, 480.474 679.417 C 483.437 678.673, 488.970 681.189, 499.531 688.084 C 509.787 694.779, 514.291 696.993, 543.162 709.531 C 568.018 720.326, 597.120 726.063, 627 726.060 C 635.525 726.059, 646.082 725.594, 650.460 725.027 C 660.145 723.772, 676 719.975, 676 718.910 C 676 718.485, 674.538 717.113, 672.750 715.863 C 657.013 704.855, 647.787 691.392, 644.313 674.363 C 642.969 667.780, 642.894 665.106, 643.848 657.935 C 645.287 647.117, 648.142 638.377, 652.414 631.713 C 656.269 625.700, 665.110 617.029, 669.923 614.540 C 671.757 613.592, 672.845 612.453, 672.365 611.983 C 670.450 610.109, 652.513 607.878, 636 607.461 C 621.864 607.104, 616.564 607.374, 608.428 608.865 M 682.693 619.931 C 671.591 627.146, 665.139 635.076, 660.644 647.026 C 655.521 660.647, 656.496 674.539, 663.511 687.888 C 669.155 698.630, 685.496 714, 691.271 714 C 694.479 714, 716.733 702.073, 724.816 696.021 C 732.489 690.276, 750.733 672.243, 754.760 666.423 C 756.836 663.423, 756.844 663.273, 755.088 660.385 C 753 656.952, 736.004 641.086, 729.163 636.184 C 720.504 629.979, 710.895 624.840, 699.671 620.411 C 693.527 617.987, 688.500 616.038, 688.500 616.081 C 688.500 616.123, 685.887 617.856, 682.693 619.931 M 612.856 636.516 C 610.032 638.051, 608.201 642.137, 608.766 645.646 C 609.256 648.689, 612.161 650.990, 616.376 651.674 L 620 652.262 620.011 647.381 C 620.017 644.696, 620.301 640.813, 620.642 638.750 C 621.239 635.135, 621.158 635.001, 618.381 635.040 C 616.796 635.062, 614.310 635.726, 612.856 636.516 M 584.301 637.772 C 578.094 642.650, 579.879 652, 587.019 652 C 589.632 652, 589.657 651.927, 589.852 644 C 590.027 636.924, 589.844 636.003, 588.275 636.022 C 587.299 636.034, 585.511 636.822, 584.301 637.772 M 696.365 646.919 C 691.937 649.619, 689.360 656.532, 690.968 661.402 C 694.060 670.771, 706.925 672.711, 711.958 664.568 C 715.817 658.325, 713.537 649.881, 707.094 646.549 C 703.129 644.498, 700.168 644.600, 696.365 646.919 M 594.315 658.007 C 593.114 658.491, 591.713 659.700, 591.202 660.694 C 589.532 663.944, 589.023 670.498, 590.128 674.503 C 590.941 677.445, 590.918 678.527, 590.039 678.820 C 582.845 681.218, 580.245 695, 586.987 695 C 588.294 695, 588.883 693.873, 589.347 690.483 C 590.299 683.542, 592.360 680.343, 596.364 679.591 L 599.800 678.947 599.650 671.723 C 599.567 667.751, 599.888 662.813, 600.361 660.750 C 601.171 657.223, 601.082 657.004, 598.861 657.063 C 597.563 657.098, 595.517 657.523, 594.315 658.007 M 336.500 677.130 C 333.750 678.264, 330.456 679.603, 329.179 680.106 C 327.024 680.956, 326.906 681.403, 327.531 686.398 L 328.202 691.775 322.083 695.037 C 314.316 699.176, 309.535 704.460, 307.571 711.074 C 305.333 718.607, 307.730 725.922, 314.336 731.722 C 320.315 736.971, 325.590 738.360, 337.268 737.758 C 358.427 736.666, 384.103 724.559, 390.072 712.858 C 394.219 704.730, 391.602 694.825, 383.788 689.072 C 377.178 684.206, 370.319 682.603, 360.071 683.528 C 345.992 684.800, 346.994 685.032, 345.148 680.083 C 344.242 677.653, 343.050 675.531, 342.500 675.367 C 341.950 675.203, 339.250 675.997, 336.500 677.130 M 613 683.681 C 609.278 686.252, 608.067 688.165, 608.032 691.527 C 607.978 696.692, 613.512 702, 618.950 702 C 621.414 702, 621.514 700.894, 619.415 696.836 C 618.359 694.793, 617.942 691.897, 618.165 688.151 C 618.545 681.784, 617.303 680.709, 613 683.681 M 341.500 705.871 C 334.067 710.487, 331.416 717.488, 335.424 721.916 C 339.986 726.957, 347.584 726.688, 353.222 721.288 C 358.321 716.402, 356.376 708.309, 349.401 705.394 C 345.180 703.631, 345.099 703.636, 341.500 705.871 M 513 712.284 C 513 714.296, 525.961 726.940, 530.286 729.146 C 532.427 730.238, 536.276 732.614, 538.840 734.425 C 541.403 736.236, 546.530 739.391, 550.234 741.436 L 556.969 745.155 563.941 738.912 C 567.776 735.479, 570.712 732.343, 570.466 731.945 C 570.219 731.546, 566.751 730.426, 562.759 729.455 C 555.813 727.767, 551.199 726.010, 526.500 715.652 C 514.715 710.710, 513 710.282, 513 712.284 M 595.332 755.603 C 595.220 778.348, 593.353 776.763, 610.500 768.481 C 616.550 765.559, 624.185 760.986, 627.466 758.318 C 633.117 753.724, 643.938 741.487, 643.980 739.644 C 643.991 739.173, 640.063 739.098, 635.250 739.477 C 627.631 740.078, 598.193 737.856, 596.027 736.517 C 595.698 736.313, 595.385 744.902, 595.332 755.603 M 241.091 835.090 C 239.766 835.620, 238.092 836.829, 237.373 837.777 C 232.865 843.711, 242.235 851.142, 250.340 848.061 C 253.292 846.938, 256.159 841.669, 255.241 839.052 C 253.554 834.246, 247.465 832.541, 241.091 835.090 M 276 834.656 C 270.896 836.714, 269.237 843.094, 272.934 846.440 C 275.858 849.087, 286.778 849.079, 289.429 846.429 C 291.135 844.722, 291.524 838.376, 290.064 836.070 C 289.113 834.567, 278.793 833.530, 276 834.656 M 312.850 834.731 C 308.864 835.049, 308.036 835.500, 307.043 837.897 C 306.406 839.435, 306.191 841.913, 306.565 843.404 C 308.089 849.476, 292.875 849.082, 513.954 848.778 L 716.173 848.500 718.679 845.587 C 720.631 843.318, 721.051 841.991, 720.579 839.587 C 720.246 837.889, 719.218 835.938, 718.295 835.250 C 716.964 834.258, 675.371 834.037, 517.059 834.180 C 407.301 834.279, 315.408 834.527, 312.850 834.731 M 739 834.729 C 736.822 835.558, 736.033 837.100, 736.015 840.559 C 735.988 845.931, 737.939 847.375, 745.827 847.820 C 752.361 848.190, 753.063 848.028, 755.498 845.593 C 758.445 842.646, 758.230 840.095, 754.711 836.250 C 752.988 834.368, 751.659 834.013, 746.576 834.079 C 743.234 834.122, 739.825 834.415, 739 834.729 M 774.455 836.455 C 771.597 839.312, 771.491 840.114, 773.463 843.928 C 775.186 847.260, 776.766 848, 782.159 848 C 785.241 848, 786.822 847.332, 789.077 845.077 C 792.546 841.608, 792.693 840.150, 789.927 836.635 C 788.139 834.362, 787.103 834, 782.382 834 C 777.905 834, 776.463 834.446, 774.455 836.455" stroke="none" fill="#000000" fill-rule="evenodd"/>
</svg>