<svg xmlns="http://www.w3.org/2000/svg" width="1024" height="1024" viewBox="0 0 1024 1024" version="1.1">
	<path d="M 491 165.035 C 486.875 165.543, 481.250 166.467, 478.500 167.088 C 444.666 174.727, 432.181 179.188, 403.365 193.934 C 380.887 205.437, 362.348 216.540, 360.236 219.763 C 357.131 224.501, 360.217 233.685, 367.458 241.257 C 370.464 244.402, 371.708 244.317, 381.500 240.303 C 421.390 223.951, 446.469 217.997, 475.436 218.003 C 499.627 218.008, 516.769 221.410, 527.852 228.406 C 532.099 231.088, 532.175 231.232, 531.766 235.820 C 531.537 238.394, 529.443 246.800, 527.113 254.500 C 523.364 266.886, 522.912 269.433, 523.188 276.597 C 523.393 281.916, 524.015 285.324, 525 286.529 C 526.289 288.105, 544.745 300.458, 598.053 335.422 C 604.407 339.590, 610.387 343, 611.343 343 C 612.298 343, 614.749 342.164, 616.790 341.141 C 618.830 340.119, 624.622 337.869, 629.660 336.141 C 641.268 332.161, 648.180 331.981, 655.141 335.477 C 665.560 340.710, 675.790 348.881, 678.582 354.200 C 680.502 357.857, 680.375 360.051, 677.820 367.372 C 676.621 370.808, 675.902 374.302, 676.223 375.138 C 676.899 376.901, 712.265 400.697, 719.260 404.096 L 723.983 406.390 726.932 403.565 C 728.554 402.011, 731.940 397.310, 734.455 393.120 C 743.839 377.485, 763.614 348.071, 775.447 332.148 C 782.190 323.074, 782.353 322.719, 780.921 320.169 C 778.947 316.651, 742.086 291.750, 740.037 292.549 C 739.192 292.880, 734.514 294.298, 729.641 295.700 C 719.184 298.712, 716.560 298.279, 706.415 291.872 C 694.450 284.316, 692.217 280.445, 687.518 259.125 C 684.247 244.280, 682.139 240.541, 674.200 235.500 C 670.735 233.300, 661.735 227.490, 654.200 222.590 C 609.849 193.746, 588.047 180.084, 579.248 175.625 C 572.625 172.269, 559.558 168.121, 550.194 166.401 C 540.736 164.664, 501.384 163.756, 491 165.035 M 512.701 311.250 C 509.779 315.238, 504.433 323.225, 500.821 329 C 489.087 347.763, 471.879 374.419, 469.310 377.812 C 467.931 379.634, 464.130 385.484, 460.863 390.812 L 454.923 400.500 460.381 405.530 C 463.384 408.297, 469.100 412.347, 473.084 414.530 C 477.068 416.714, 487.950 423.598, 497.266 429.829 C 511.901 439.618, 537.039 454.627, 537.385 453.782 C 538.183 451.833, 551.858 427.335, 555.685 421 C 562.183 410.242, 565.926 403.951, 574.428 389.500 C 579.605 380.700, 586.351 369.570, 589.420 364.766 C 595.202 355.715, 595.949 353.578, 593.639 352.692 C 592.890 352.404, 583.624 346.394, 573.048 339.335 C 536.070 314.654, 519.736 304, 518.879 304 C 518.403 304, 515.623 307.262, 512.701 311.250 M 435.766 421.250 C 433.855 423.587, 424.775 436.750, 415.587 450.500 C 389.958 488.855, 386.363 494.186, 383.208 498.521 C 380.301 502.515, 342.816 558.758, 329.470 579.149 C 325.636 585.006, 311.422 606.381, 297.881 626.649 C 284.341 646.917, 271.516 666.650, 269.381 670.500 C 265.691 677.155, 265.504 677.919, 265.589 686 C 265.664 693.225, 266.131 695.486, 268.698 701.077 C 270.423 704.835, 273.601 709.487, 276.109 711.928 C 283.589 719.208, 330.041 749.895, 338.770 753.323 C 346.831 756.489, 356.595 755.051, 362.553 749.819 C 365.563 747.176, 380.042 724.077, 390.920 704.560 C 392.742 701.293, 397.261 694.093, 400.964 688.560 C 404.667 683.027, 409.880 674.450, 412.549 669.500 C 415.217 664.550, 419.484 657.350, 422.031 653.500 C 424.577 649.650, 429.936 640.875, 433.939 634 C 445.009 614.987, 454.645 598.717, 462.368 586 C 466.209 579.675, 470.878 571.800, 472.744 568.500 C 474.611 565.200, 477.748 559.800, 479.716 556.500 C 483.812 549.632, 489.289 540.039, 495.701 528.500 C 500.597 519.688, 505.020 512.185, 512.310 500.325 C 525.661 478.607, 527.152 475.653, 525.922 473.355 C 524.508 470.713, 512.357 461.981, 501.677 455.931 C 497.374 453.494, 487.780 447.450, 480.356 442.500 C 454.285 425.115, 441.334 417, 439.660 417 C 439.430 417, 437.677 418.913, 435.766 421.250 M 408.218 885.500 C 408.244 888.309, 409.738 893.888, 409.882 891.715 C 409.972 890.349, 410.411 890.141, 411.750 890.830 C 412.712 891.325, 413.950 891.605, 414.500 891.452 C 415.050 891.300, 416.844 890.875, 418.486 890.509 C 422.431 889.630, 420.163 888.299, 414 887.877 C 410.511 887.638, 409.354 887.112, 408.850 885.534 C 408.211 883.537, 408.200 883.536, 408.218 885.500 M 473.790 887.976 C 473.552 889.601, 473.670 892.859, 474.053 895.216 C 474.436 897.572, 474.806 898.761, 474.875 897.857 C 475.047 895.597, 475.870 895.382, 491.892 893.408 C 502.235 892.134, 506 891.309, 506 890.316 C 506 889.369, 505.244 889.152, 503.487 889.593 C 502.105 889.940, 500.417 889.768, 499.737 889.211 C 499.057 888.654, 493.325 887.658, 487 886.997 C 480.675 886.336, 475.213 885.621, 474.862 885.408 C 474.511 885.195, 474.029 886.350, 473.790 887.976 M 539 891.817 C 539 895.767, 539.172 896.147, 540.277 894.635 C 540.980 893.674, 542.442 892.758, 543.527 892.599 C 546.898 892.104, 545.963 888.677, 542.250 887.917 L 539 887.253 539 891.817" stroke="none" fill="#000000" fill-rule="evenodd"/>
</svg>