<svg xmlns="http://www.w3.org/2000/svg" width="1024" height="1024" viewBox="0 0 1024 1024" version="1.1">
	<path d="M 480 75.111 C 423.072 78.576, 359.257 95.927, 311.500 120.924 C 269.284 143.021, 242.801 161.703, 208.141 193.838 C 192.668 208.184, 169.359 236.161, 151.769 261.500 C 134.749 286.016, 113.019 328.793, 102.450 358.586 C 90.319 392.782, 83.753 422.958, 78.967 466.500 C 77.224 482.365, 76.616 522.404, 77.898 537 C 82.952 594.566, 99.289 652.326, 124.567 702 C 152.026 755.957, 196.210 809.342, 240.319 841.853 C 269.720 863.523, 294.535 878.554, 324 892.539 C 370.028 914.386, 410.307 926.023, 462.261 932.485 C 499.170 937.076, 559.936 934.354, 596.633 926.465 C 640.057 917.130, 665.699 908.080, 707.878 887.202 C 730.548 875.980, 761.627 855.601, 784.556 836.922 C 818.039 809.646, 854.529 767.339, 880.794 725.345 C 888 713.824, 905.921 677.752, 911.785 662.964 C 920.372 641.311, 929.879 606.891, 934.422 581 C 939.603 551.476, 940.461 540.769, 940.472 505.500 C 940.480 476.821, 940.176 470.078, 938.145 454 C 934.240 423.081, 926.508 389.922, 916.461 361 C 902.236 320.052, 872.370 266.949, 842.577 229.629 C 805.854 183.629, 754.964 143.473, 700.350 117.403 C 630.509 84.065, 558.851 70.311, 480 75.111 M 479 143.037 C 441.252 146.592, 408.723 154.072, 374 167.183 C 362.616 171.481, 330.397 187.674, 311.986 198.350 C 298.035 206.440, 296.599 207.512, 297.292 209.320 C 297.759 210.536, 326.754 237.464, 368 274.987 C 379.904 285.816, 419.213 322.621, 438.506 341 C 457.787 359.368, 482.624 382.467, 502.500 400.515 C 509.100 406.509, 521.700 418.218, 530.500 426.536 C 539.300 434.854, 550.550 445.406, 555.500 449.985 C 560.450 454.563, 569.225 462.867, 575 468.438 C 586.620 479.648, 613.439 504.764, 622 512.454 C 625.025 515.171, 636.977 526.193, 648.559 536.947 C 660.142 547.701, 676.117 562.347, 684.059 569.494 C 692.002 576.641, 702.325 586.108, 707 590.532 C 738.458 620.300, 760.831 641.704, 776 656.546 C 794.120 674.274, 800.195 679.930, 810.647 688.802 L 816.795 694.020 821.972 685.949 C 834.677 666.143, 851.644 626.450, 857.430 603 C 873.286 538.728, 873.651 475.762, 858.512 416.046 C 848.696 377.328, 831.380 338.561, 808.688 304.500 C 774.654 253.417, 745.446 224.959, 693 191.786 C 683.950 186.062, 656.308 171.895, 645.500 167.441 C 618.552 156.338, 586.107 148.192, 552 143.968 C 540.583 142.554, 490.861 141.920, 479 143.037 M 306 151.337 C 298.879 155.109, 291.674 160.487, 289.949 163.316 C 287.620 167.136, 287.571 168.038, 289.454 172.545 L 290.909 176.026 295.799 174.169 C 305.182 170.603, 318 160.413, 318 156.520 C 318 150.862, 311.883 148.220, 306 151.337 M 260.500 182.204 C 259.400 182.833, 251.182 190.323, 242.238 198.848 C 224.091 216.144, 222.541 218.573, 225.357 225.312 C 226.211 227.356, 227.599 229.293, 228.443 229.616 C 231.439 230.766, 238.719 224.955, 255.250 208.218 C 273.737 189.501, 274.441 188.232, 268.923 183.589 C 265.574 180.771, 263.581 180.443, 260.500 182.204 M 401 191.677 C 399.625 191.900, 394.158 193.447, 388.851 195.114 C 373.335 199.990, 358.824 209.636, 350.229 220.790 L 346.152 226.080 354.826 234.393 C 359.597 238.965, 365.751 244.684, 368.502 247.103 L 373.505 251.500 517.770 251.500 L 662.034 251.500 661.982 385.068 L 661.929 518.636 672.784 529.332 C 678.754 535.215, 683.968 539.698, 684.372 539.295 C 684.775 538.892, 685.056 514.248, 684.996 484.531 C 684.937 454.814, 684.913 428.155, 684.944 425.289 C 685 420.106, 685.022 420.071, 688.837 419.044 L 692.675 418.011 693.353 370.924 C 694.100 319.067, 694.129 319.360, 688.205 317.439 L 684.934 316.378 684.638 286.439 C 684.303 252.557, 683.607 248.240, 675.890 232.203 C 666.829 213.373, 643.223 196.551, 620.061 192.419 C 614.010 191.339, 591.634 191.090, 508 191.171 C 450.525 191.227, 402.375 191.455, 401 191.677 M 462.367 217.700 C 457.649 222.418, 457.618 227.818, 462.283 232.483 L 465.566 235.766 484.225 236.502 C 494.488 236.908, 514.595 237.059, 528.908 236.840 L 554.930 236.441 557.917 233.580 C 562.101 229.571, 562.656 225.986, 559.954 220.406 C 558.738 217.894, 557.239 215.662, 556.622 215.446 C 556.005 215.230, 535.302 214.891, 510.617 214.693 L 465.733 214.333 462.367 217.700 M 192.095 252.832 C 184.774 260.389, 170.673 280.093, 157.266 301.500 C 140.448 328.355, 122.429 371.888, 123.198 383.810 C 123.488 388.307, 123.664 388.553, 127.488 389.802 C 133.530 391.775, 135.003 390.547, 138.813 380.359 C 145.581 362.264, 148.425 355.579, 155.501 341.130 C 168.122 315.358, 181.094 294.064, 197.022 272.971 C 208.107 258.291, 210.330 254.614, 209.567 252.213 C 208.971 250.332, 202.279 246, 199.971 246 C 199.279 246, 195.735 249.074, 192.095 252.832 M 250.123 251.125 C 249.616 252.431, 247.758 254.850, 245.993 256.500 C 233.641 268.052, 210.236 300.471, 195.456 326.500 C 161.862 385.662, 144.922 458.083, 148.888 525.579 C 152.939 594.529, 170.349 647.971, 207.501 705.500 C 220.646 725.854, 233.650 741.459, 255.129 762.656 C 274.962 782.229, 277.315 784.254, 294.195 796.273 C 318.167 813.342, 336.289 823.669, 360.302 833.945 C 382.455 843.425, 396.708 848.425, 414.840 853.077 C 468.585 866.865, 518.713 869.408, 569.305 860.916 C 617.348 852.851, 666.501 833.895, 710 806.657 C 726.007 796.633, 750.547 776.618, 769.063 758.484 L 781.625 746.180 777.063 742.223 C 774.553 740.047, 760.095 726.169, 744.933 711.383 C 715.878 683.050, 680.587 649.150, 670.500 639.884 C 667.200 636.853, 656.821 627.202, 647.436 618.436 C 638.050 609.671, 621.190 593.950, 609.969 583.500 C 598.748 573.050, 581.215 556.625, 571.007 547 C 560.800 537.375, 539.639 517.575, 523.984 503 C 487.573 469.100, 486.149 467.770, 463.500 446.492 C 453.050 436.674, 438.007 422.760, 430.072 415.571 C 422.137 408.382, 401.437 389.201, 384.072 372.947 C 366.707 356.694, 345.750 337.135, 337.500 329.483 C 329.250 321.832, 315.075 308.579, 306 300.032 C 296.925 291.485, 285.006 280.444, 279.513 275.496 C 274.021 270.548, 265.368 262.506, 260.286 257.625 C 251.372 249.064, 251.013 248.834, 250.123 251.125 M 440.226 270.760 L 394.952 271.020 405.726 281.353 C 411.652 287.036, 423.250 297.916, 431.500 305.531 C 439.750 313.146, 458.200 330.472, 472.500 344.033 C 506.491 376.269, 506.864 376.594, 508.530 375.442 C 509.279 374.924, 519.704 363.291, 531.696 349.590 C 554.546 323.486, 561.264 315.950, 577.175 298.579 C 582.497 292.769, 590.200 284.069, 594.292 279.245 L 601.734 270.473 543.617 270.487 C 511.653 270.494, 465.127 270.617, 440.226 270.760 M 630.888 270.729 C 627.109 271.032, 626.068 271.555, 625.124 273.627 C 624.088 275.902, 601.729 301.360, 583.500 321.022 C 574.848 330.354, 564.565 341.848, 550.864 357.500 C 545.086 364.100, 536.955 372.925, 532.794 377.111 C 528.633 381.297, 524.405 385.978, 523.400 387.513 C 521.587 390.280, 521.592 390.317, 524.036 391.902 C 525.391 392.781, 529.301 396.087, 532.725 399.250 C 536.148 402.413, 539.316 405, 539.763 405 C 540.210 405, 542.175 403.087, 544.130 400.750 C 546.084 398.413, 552.367 391.290, 558.092 384.922 C 563.816 378.554, 574.125 366.860, 581 358.936 C 604.535 331.809, 632.701 302.694, 637.699 300.328 C 640.222 299.133, 642.665 297.558, 643.128 296.828 C 643.591 296.097, 643.976 289.762, 643.985 282.750 L 644 270 639.750 270.180 C 637.413 270.279, 633.425 270.527, 630.888 270.729 M 631.672 333.250 C 626.756 338.337, 614.820 351.275, 605.148 362 C 595.477 372.725, 583.085 386.225, 577.610 392 C 563.475 406.911, 554.987 417.048, 555.081 418.903 C 555.126 419.781, 566.149 430.850, 579.577 443.500 C 593.006 456.150, 612.655 474.676, 623.244 484.669 C 633.832 494.662, 642.605 502.729, 642.737 502.596 C 642.870 502.463, 643.222 462.225, 643.519 413.177 C 644.028 329.204, 643.959 324, 642.335 324 C 641.387 324, 636.588 328.163, 631.672 333.250 M 326.551 350.581 C 325.610 355.595, 324.075 394.327, 324.034 414.059 C 323.996 432.489, 324.355 433.701, 330 434.194 L 333.500 434.500 333.673 582 C 333.768 663.125, 334.085 734.225, 334.377 740 C 335.936 770.781, 351.442 792.588, 381.033 805.610 C 399.156 813.586, 393.198 813.244, 511.832 813.118 C 599.915 813.024, 618.185 812.769, 623.403 811.559 C 641.795 807.293, 656.458 797.569, 668.024 781.968 C 674.200 773.636, 678.166 765.189, 681.622 753 C 684.231 743.798, 684.327 742.544, 684.678 713 L 685.040 682.500 673.980 672.124 C 667.897 666.417, 662.635 662.032, 662.286 662.380 C 661.539 663.128, 661.900 694.576, 662.679 696.607 C 663.071 697.627, 662.314 698.002, 659.857 698.006 C 551.882 698.213, 357.497 697.831, 357.077 697.410 C 356.107 696.441, 355.910 419.835, 356.864 399 C 357.554 383.938, 357.475 379.044, 356.517 377.496 C 354.921 374.918, 330.299 348.747, 328.546 347.766 C 327.591 347.232, 327.031 348.022, 326.551 350.581 M 326.667 384.667 C 326.300 385.033, 326 385.894, 326 386.580 C 326 388.171, 331.192 386.924, 331.768 385.195 C 332.189 383.933, 327.850 383.483, 326.667 384.667 M 120.208 395.278 C 119.031 396.532, 117.422 399.385, 116.634 401.620 C 114.012 409.053, 111.001 426.178, 110.960 433.889 C 110.927 440.373, 110.482 442.314, 107.961 447 C 104.053 454.260, 104.084 458.051, 108.077 461.411 C 111.790 464.535, 116.774 464.814, 120.139 462.087 C 123.433 459.417, 123.430 450.816, 120.133 446.186 C 117.870 443.009, 117.870 443, 119.957 443 C 121.297 443, 122.409 442.053, 123.051 440.367 C 125.768 433.220, 133 404.687, 133 401.113 C 133 397.375, 132.674 396.875, 129.040 395.020 C 124 392.449, 122.834 392.483, 120.208 395.278 M 374.585 396.639 C 373.894 398.440, 373.829 557, 374.520 557 C 374.756 557, 375.590 555.763, 376.374 554.250 C 377.157 552.737, 384.256 542.490, 392.149 531.478 C 405.665 512.620, 423.454 490.297, 440.341 471 C 445.864 464.690, 447.565 462.093, 446.947 460.922 C 446.489 460.054, 434.281 448.354, 419.818 434.922 C 405.355 421.490, 389.838 407.012, 385.334 402.750 C 380.831 398.488, 376.712 395, 376.180 395 C 375.649 395, 374.931 395.737, 374.585 396.639 M 460.695 478.750 C 459.334 480.262, 455.160 485.100, 451.419 489.500 C 447.679 493.900, 440.767 501.575, 436.059 506.555 C 427.538 515.570, 402.487 548.169, 393.837 561.500 C 379.990 582.839, 376.925 587.913, 375.411 592 C 373.506 597.141, 373.388 601.108, 373.750 647.512 L 374 679.525 500.250 679.770 C 569.688 679.905, 630.438 680.295, 635.250 680.637 L 644 681.258 644.167 665.129 C 644.258 656.258, 644.371 648.343, 644.417 647.540 C 644.462 646.737, 638.414 640.325, 630.975 633.290 C 617.977 620.999, 575.542 581.065, 533.500 541.563 C 522.500 531.228, 510.419 519.448, 506.654 515.386 C 502.889 511.324, 499.349 508, 498.788 508 C 496.879 508, 459.881 546.293, 452.975 555.417 C 449.194 560.413, 442.590 569.082, 438.300 574.682 C 434.010 580.282, 429.237 586.690, 427.693 588.922 C 423.568 594.883, 397.768 617.432, 393.093 619.161 C 391.233 619.849, 391 619.565, 391 616.603 C 391 612.658, 398.488 597.080, 402.827 592 C 406.951 587.170, 412.593 579.205, 414.915 574.933 C 415.981 572.971, 417.571 570.771, 418.447 570.044 C 419.323 569.317, 423.611 563.947, 427.977 558.111 C 432.342 552.275, 439.791 542.775, 444.531 537 C 455.155 524.055, 480.858 496, 482.093 496 C 482.592 496, 483 495.534, 483 494.965 C 483 493.441, 465.933 476, 464.442 476 C 463.742 476, 462.056 477.238, 460.695 478.750 M 505.500 714.631 C 499.152 716.216, 496.287 717.680, 491.123 721.977 C 472.464 737.505, 477.002 766.329, 499.745 776.741 C 504.400 778.872, 506.235 779.176, 511.865 778.747 C 519.927 778.134, 525.403 775.414, 532.494 768.500 C 538.628 762.519, 540.534 757.115, 540.429 746 C 540.345 737.145, 537.712 731.036, 530.998 724.117 C 524.471 717.392, 512.412 712.905, 505.500 714.631 M 504.241 732.938 C 497.684 737.049, 495.138 745.499, 498.499 751.998 C 502.580 759.891, 512.786 762.576, 518.959 757.381 C 525.255 752.084, 526.505 746.190, 522.734 739.594 C 518.313 731.864, 510.462 729.038, 504.241 732.938 M 406.500 732.692 C 403.750 732.874, 400.565 733.232, 399.421 733.487 C 395.274 734.415, 393.530 743.094, 396.750 746.785 C 398.313 748.577, 400.139 748.852, 413.832 749.359 C 429.064 749.924, 429.179 749.911, 431.582 747.509 C 433.396 745.695, 433.996 744.018, 433.985 740.795 C 433.976 738.433, 433.560 735.852, 433.059 735.061 C 431.601 732.757, 420.486 731.766, 406.500 732.692 M 589.405 735.105 C 588.155 736.486, 587.500 738.685, 587.500 741.500 C 587.500 744.315, 588.155 746.514, 589.405 747.895 C 591.171 749.846, 592.344 750, 605.481 750 C 619.225 750, 619.721 749.926, 621.953 747.551 C 624.929 744.382, 625.247 738.035, 622.576 735.084 C 620.828 733.152, 619.617 733, 606 733 C 592.336 733, 591.177 733.147, 589.405 735.105" stroke="none" fill="#000000" fill-rule="evenodd"/>
</svg>