<svg xmlns="http://www.w3.org/2000/svg" width="1024" height="1024" viewBox="0 0 1024 1024" version="1.1">
	<path d="M 14.612 3.090 C 16.751 4.790, 19.738 6.912, 21.251 7.807 C 22.764 8.701, 24.238 10.175, 24.526 11.081 C 25.048 12.725, 36.137 23.815, 39.017 25.574 C 39.852 26.083, 43.438 29.987, 46.987 34.250 C 50.536 38.513, 53.758 42, 54.147 42 C 54.536 42, 58.209 45.263, 62.309 49.250 C 66.410 53.238, 74.880 61.215, 81.132 66.978 C 87.384 72.740, 94.750 79.723, 97.500 82.495 C 102.718 87.755, 117.611 100.426, 124.500 105.466 C 126.700 107.076, 137.771 117.544, 149.101 128.728 C 167.174 146.567, 169.864 148.869, 171.019 147.477 C 172.213 146.038, 188.580 145.919, 347.789 146.196 L 523.243 146.500 522.628 140 C 522.291 136.425, 522.011 125.123, 522.007 114.884 L 522 96.268 318.750 96.533 L 115.500 96.797 111.500 92.993 C 109.300 90.901, 101.875 83.825, 95 77.270 C 88.125 70.715, 77.100 60.225, 70.500 53.960 C 63.900 47.694, 48.884 32.990, 37.131 21.284 C 20.643 4.861, 15.187 -0, 13.244 -0 C 10.847 -0, 10.914 0.150, 14.612 3.090 M 522.464 49.250 C 522.759 76.338, 523.240 109.314, 523.534 122.530 L 524.067 146.560 701.683 146.280 L 879.298 145.999 904.149 121.472 C 917.817 107.983, 929 96.786, 929 96.590 C 929 96.395, 841.362 96.213, 734.250 96.185 C 627.138 96.158, 535.981 96.105, 531.681 96.068 L 523.862 96 524.181 48 C 524.438 9.388, 524.249 -0.001, 523.214 -0 C 522.177 -0, 522.032 9.508, 522.464 49.250 M 1012.262 16.095 C 1006.343 21.817, 994.300 33.478, 985.500 42.009 C 976.700 50.540, 960.612 66.044, 949.750 76.464 C 938.888 86.883, 930 95.931, 930 96.570 C 930 98.043, 895.182 133.115, 879.982 146.953 C 873.667 152.702, 856.422 169.127, 841.659 183.453 C 826.896 197.779, 814.106 209.903, 813.237 210.396 C 810.398 212.005, 815.776 205.347, 820.782 201.057 L 825.500 197.013 750.332 197.006 C 708.989 197.003, 674.452 197.273, 673.582 197.607 C 672.447 198.042, 672 199.554, 672 202.952 C 672 211.536, 666.627 210.925, 743.296 211.064 C 780.533 211.131, 811 211.550, 811 211.994 C 811 212.439, 808.201 215.209, 804.780 218.151 C 801.359 221.093, 794.272 227.745, 789.030 232.933 C 783.789 238.122, 776.076 245.322, 771.890 248.933 C 767.705 252.545, 759.868 259.465, 754.476 264.312 C 749.083 269.158, 739.846 277.117, 733.949 281.997 L 723.228 290.871 720.864 288.325 C 719.564 286.924, 715.800 283.699, 712.500 281.159 C 709.200 278.618, 700.956 271.660, 694.181 265.695 C 687.405 259.731, 677.955 251.891, 673.181 248.273 C 663.598 241.010, 651.955 231.323, 640.947 221.453 C 636.989 217.904, 633.442 215, 633.065 215 C 632.688 215, 625.962 220.625, 618.119 227.500 C 610.276 234.375, 603.667 240, 603.432 240 C 602.591 240, 583.255 225.402, 570.500 215.137 C 545.143 194.730, 525.040 177.540, 520.913 172.736 L 518.326 169.724 504.905 181.112 C 497.523 187.375, 489.463 194.066, 486.992 195.980 C 482.708 199.300, 450.530 225.973, 422.430 249.500 C 415.203 255.550, 405.963 263.460, 401.895 267.077 C 397.828 270.695, 390.797 276.445, 386.271 279.856 L 378.042 286.058 372.626 281.779 C 369.647 279.425, 364.800 275.811, 361.855 273.748 C 358.910 271.684, 355.046 268.632, 353.270 266.965 L 350.039 263.935 338.075 273.897 C 331.494 279.376, 324.735 284.875, 323.055 286.117 C 321.375 287.360, 320 289.004, 320 289.771 C 320 290.539, 319.476 290.992, 318.835 290.778 C 318.194 290.565, 315.607 292.275, 313.085 294.578 C 306.594 300.506, 287.967 316.306, 255.094 343.769 C 239.470 356.821, 221.575 371.868, 215.327 377.207 C 209.079 382.545, 200.588 389.456, 196.458 392.564 C 188.975 398.196, 188.952 398.227, 189.725 401.857 C 190.151 403.861, 190.500 430.769, 190.500 461.654 C 190.500 498.830, 190.838 517.601, 191.500 517.197 C 199.863 512.092, 228.351 491.001, 266.412 461.735 C 275.163 455.006, 290.323 443.425, 300.099 436 C 350.726 397.551, 359.055 391.181, 365.500 385.976 C 369.350 382.868, 385.325 370.661, 401 358.850 C 416.675 347.039, 434.724 333.354, 441.110 328.438 C 462.430 312.025, 500.748 283.976, 512.041 276.517 L 523.206 269.142 532.853 275.757 C 546.424 285.062, 583.416 312.621, 636.348 352.860 C 649.632 362.959, 667.250 376.322, 675.500 382.557 C 683.750 388.792, 701.075 402.111, 714 412.156 C 726.925 422.200, 744.321 435.612, 752.658 441.959 C 760.995 448.307, 776.070 459.837, 786.158 467.582 C 802.919 480.450, 815.691 489.819, 839 506.343 C 843.675 509.658, 849.476 514.086, 851.891 516.185 C 854.306 518.283, 856.556 520, 856.891 520 C 857.226 520, 857.500 493.107, 857.500 460.237 L 857.500 400.473 843.500 388.422 C 835.800 381.794, 817.865 366.950, 803.645 355.436 C 736.178 300.805, 725.110 291.721, 725.126 291 C 725.132 290.725, 730.124 286.571, 736.220 281.769 C 748.428 272.151, 766.692 255.934, 786.078 237.500 C 793.018 230.900, 802.352 222.125, 806.818 218 L 814.940 210.500 822.220 209.756 C 827.268 209.241, 829.883 208.492, 830.750 207.315 C 832.570 204.843, 832.293 200.273, 830.250 199.066 C 828.704 198.153, 829.142 197.424, 834 192.823 C 837.025 189.958, 848.388 178.915, 859.250 168.283 L 879 148.952 879.126 161.226 C 879.483 195.941, 878.741 868.610, 878.346 869.250 C 877.233 871.050, 874.866 869.508, 867.133 861.950 C 861.485 856.430, 859.381 854.835, 860.436 856.875 C 861.282 858.512, 865.320 862.697, 869.410 866.175 L 876.845 872.500 872.173 873.077 C 869.603 873.395, 790.267 873.530, 695.871 873.377 L 524.242 873.099 523.534 901.300 C 521.989 962.802, 522.161 1024, 523.879 1024 C 524.221 1024, 524.401 1001.050, 524.279 973 L 524.058 922 549.279 922.003 C 563.151 922.004, 653.323 921.930, 749.662 921.838 L 924.824 921.671 928.368 925.085 C 930.318 926.963, 933.170 929.663, 934.706 931.085 C 936.243 932.507, 939.888 936.220, 942.807 939.335 C 945.725 942.451, 948.461 945, 948.885 945 C 949.310 945, 952.884 948.259, 956.829 952.243 C 961.675 957.138, 964.032 960.298, 964.100 961.993 L 964.199 964.500 964.865 962.126 L 965.531 959.752 969.015 963.203 C 970.932 965.102, 980.347 974.045, 989.937 983.078 C 999.528 992.110, 1010.896 1003.057, 1015.201 1007.403 C 1019.505 1011.750, 1023.249 1015.085, 1023.521 1014.813 C 1024.518 1013.815, 977.332 967.448, 956 948.464 C 952.975 945.772, 943.525 936.747, 935 928.409 C 926.475 920.071, 917.250 911.306, 914.500 908.933 C 906.399 901.941, 878 873.612, 878 872.523 C 878 871.972, 885.538 878.959, 894.750 888.050 C 919.469 912.441, 925.593 918, 927.743 918 C 931.448 918, 931.998 908.692, 931.914 847.500 C 931.871 816.150, 931.872 729.412, 931.918 654.749 L 932 518.998 956.750 518.771 C 970.362 518.646, 990.896 518.691, 1002.380 518.870 C 1024.508 519.217, 1024.969 519.128, 1024.969 514.500 C 1024.969 512.884, 1024.791 512.781, 1024.042 513.966 C 1023.252 515.215, 1016.312 515.464, 977.307 515.641 L 931.500 515.849 931.751 306.516 L 932.002 97.183 947.141 82.342 C 955.468 74.179, 967.694 62.325, 974.309 56 C 1001.184 30.306, 1024.361 7.027, 1023.713 6.379 C 1023.334 6.001, 1018.181 10.373, 1012.262 16.095 M 116.415 308.291 L 116.500 515.500 69.521 515.378 C 43.683 515.311, 17.695 514.949, 11.771 514.574 C 1.253 513.909, 1 513.942, 1 516.010 C 1 518.049, 1.436 518.126, 12.750 518.084 C 51.913 517.938, 115.757 518.732, 116.800 519.377 C 117.478 519.795, 117.773 520.558, 117.456 521.070 C 117.140 521.583, 116.708 609.865, 116.497 717.251 C 116.287 824.638, 115.890 913.513, 115.615 914.750 C 115.340 915.988, 115.567 917, 116.121 917 C 117.155 917, 125.288 909.537, 144.500 890.955 C 150.550 885.104, 158.376 877.617, 161.892 874.318 L 168.283 868.320 168.182 509.660 C 168.127 312.397, 168.324 151, 168.621 151 C 168.917 151, 178.011 159.525, 188.830 169.945 C 207.020 187.464, 214.162 193.851, 218 196.032 C 219.280 196.760, 219.210 197.099, 217.523 198.345 C 216.099 199.396, 215.545 200.981, 215.545 204 C 215.545 209.572, 217.595 211, 225.593 211 L 231.804 211 244.005 223.425 C 257.328 236.992, 259.481 239.585, 258.119 240.426 C 256.785 241.251, 230.977 242.981, 219.858 242.991 C 210.390 243, 210.205 243.045, 209.584 245.521 C 208.885 248.308, 209.830 250.632, 212.736 253.261 C 214.411 254.777, 217.930 255.084, 240.229 255.658 C 259.924 256.164, 266.877 256.014, 270.481 255.005 L 275.160 253.695 285.330 263.671 C 299.454 277.526, 309.170 286.164, 313.134 288.391 C 316.087 290.050, 315.948 289.805, 312 286.394 C 306.233 281.412, 295.664 271.674, 285.500 261.978 C 281.100 257.781, 273.900 251.062, 269.500 247.048 C 265.100 243.034, 259.995 238.119, 258.155 236.125 C 256.315 234.131, 247.315 224.856, 238.155 215.514 C 223.229 200.292, 220.726 197.191, 231.144 206.828 L 234.788 210.199 251.232 210.742 C 264.733 211.188, 267.770 211.036, 268.200 209.893 C 268.949 207.902, 267.545 198.145, 266.336 196.936 C 265.661 196.261, 257.903 196.185, 243.220 196.710 L 221.119 197.500 203.310 180.740 C 193.514 171.522, 181.450 160.497, 176.500 156.240 C 171.550 151.983, 157.344 138.600, 144.930 126.500 C 132.517 114.400, 121.004 103.731, 119.346 102.791 L 116.331 101.082 116.415 308.291 M 514.410 199.750 C 513.521 201.813, 511.318 207.817, 509.516 213.094 C 507.713 218.370, 505.721 223.653, 505.089 224.834 C 504.081 226.717, 504.462 227.546, 508.197 231.598 C 510.539 234.138, 514.476 237.607, 516.947 239.308 L 521.440 242.399 515.969 244.023 C 511.024 245.491, 487.700 256.989, 485.663 258.963 C 485.202 259.409, 485.326 260.083, 485.937 260.461 C 487.404 261.368, 507.557 252.175, 515.623 246.920 C 523.148 242.017, 524.675 242.135, 531.050 248.105 C 537.084 253.757, 546.111 260.393, 554.157 265.092 C 557.827 267.235, 561.016 269.548, 561.244 270.233 C 561.882 272.146, 565.458 270.140, 573.723 263.233 C 577.696 259.913, 582.570 256.193, 584.555 254.966 C 587.525 253.130, 587.928 252.511, 586.832 251.469 C 583.878 248.659, 565.297 233.556, 557.652 227.750 C 549.733 221.736, 546.468 219.133, 530.919 206.446 C 522.960 199.951, 517.547 196, 516.609 196 C 516.289 196, 515.299 197.688, 514.410 199.750 M 298.667 197.667 C 297.833 198.500, 297.789 207.285, 298.607 209.418 C 299.149 210.832, 304.563 211, 349.438 211 L 399.662 211 400.791 208.750 C 402.526 205.293, 402.584 203.774, 401.113 200.250 L 399.757 197 349.545 197 C 321.929 197, 299.033 197.300, 298.667 197.667 M 308.016 229.744 C 302.795 230.203, 302.036 231.065, 302.015 236.559 C 301.988 243.696, 302.956 244.199, 315.813 243.726 C 325.409 243.373, 327.259 243.035, 328.478 241.407 C 330.904 238.166, 331.280 234.357, 329.450 231.564 C 327.870 229.152, 327.317 229.010, 320.135 229.175 C 315.936 229.271, 310.482 229.527, 308.016 229.744 M 730 229.677 C 721.661 229.970, 719.243 230.390, 718.250 231.714 C 716.588 233.932, 716.670 237.462, 718.466 240.933 L 719.931 243.768 737.216 244.180 C 760.696 244.741, 759.093 245.305, 756.865 237.271 C 755.865 233.665, 754.828 230.494, 754.559 230.226 C 753.848 229.515, 742.073 229.251, 730 229.677 M 259 232.552 C 259 233.406, 262.224 237.568, 266.164 241.802 C 270.105 246.036, 273.841 250.070, 274.467 250.767 C 275.344 251.743, 276.338 251.778, 278.803 250.919 C 281.365 250.026, 282 249.252, 282 247.025 C 282 245.496, 281.325 243.685, 280.500 243 C 279.675 242.315, 279 240.490, 279 238.943 C 279 237.396, 278.561 234.976, 278.025 233.565 C 277.077 231.073, 276.792 231, 268.025 231 C 260.535 231, 259 231.264, 259 232.552 M 635.465 243.076 C 636.944 248.122, 654.785 283.068, 660.305 291.730 C 661.787 294.057, 662.998 296.307, 662.995 296.730 C 662.992 297.154, 657.098 300.193, 649.897 303.483 C 638.172 308.842, 636.997 309.604, 638.652 310.779 C 639.668 311.501, 647.250 316.830, 655.500 322.623 C 663.750 328.415, 673.338 335.932, 676.807 339.327 C 684.025 346.391, 696.011 360.920, 701.288 369 C 706.833 377.493, 709.815 380.404, 719 386.297 C 733.274 395.453, 739 397.805, 739 394.509 C 739 392.532, 730.262 375.804, 723.623 365.073 C 712.446 347.006, 708 339.195, 708 337.626 C 708 334.683, 708.909 335.167, 721.874 345 C 725.138 347.475, 733.918 353.325, 741.387 358 C 748.856 362.675, 761.162 370.497, 768.734 375.383 C 798.373 394.507, 835.870 415.797, 837.335 414.332 C 840.621 411.045, 828.902 399.170, 800.500 377.006 C 796.650 374.002, 788.741 367.457, 782.924 362.462 C 777.107 357.467, 768.332 350.266, 763.424 346.459 C 751.118 336.914, 734.232 322.787, 723.544 313.096 L 714.589 304.974 709.153 310.237 C 703.334 315.872, 703.220 315.141, 708.837 308.205 L 712.315 303.909 710.035 302.312 C 708.781 301.433, 698.472 293.004, 687.127 283.579 C 675.782 274.154, 661.100 262.109, 654.500 256.811 C 647.900 251.513, 640.757 245.710, 638.627 243.915 C 634.925 240.796, 634.786 240.759, 635.465 243.076 M 791.250 241.662 C 790.408 242.002, 790 244.586, 790 249.583 L 790 257 803.849 257 C 811.466 257, 821.165 256.707, 825.402 256.349 C 832.622 255.739, 833.200 255.514, 834.616 252.776 C 836.609 248.921, 835.608 244.163, 832.670 243.533 C 830.396 243.045, 797.553 240.942, 794.350 241.079 C 793.332 241.122, 791.938 241.385, 791.250 241.662 M 214.975 284.565 C 213.419 288.658, 213.829 291.491, 216.314 293.826 C 218.563 295.938, 219.337 296, 243.627 296 L 268.626 296 271.313 293.195 C 274.462 289.908, 274.591 288.809, 272.284 284.904 L 270.569 282 243.260 282 L 215.950 282 214.975 284.565 M 768.278 283.250 C 766.225 285.902, 765.990 288.336, 767.555 290.724 C 770.694 295.515, 773.857 296, 801.942 296 L 827.949 296 829.556 292.892 C 831.186 289.739, 830.873 285.757, 828.797 283.256 C 827.294 281.444, 769.679 281.439, 768.278 283.250 M 346.183 296.750 C 344.510 302.113, 341.724 312.683, 339.992 320.239 C 337.099 332.862, 336.414 334.608, 331.561 341.739 C 325.589 350.513, 318 362.749, 318 363.602 C 318 363.914, 320.813 361.741, 324.250 358.774 C 327.688 355.806, 332.975 351.625, 336 349.483 C 339.025 347.340, 343.268 344.105, 345.430 342.294 C 349.932 338.521, 352.910 338.138, 355.500 341 C 357.676 343.405, 360.290 343.498, 368.186 341.452 C 375.269 339.617, 394.690 332.212, 401.503 328.750 L 406.317 326.303 397.641 321.197 C 389.065 316.149, 359.639 295.256, 353.439 289.812 C 351.677 288.266, 350.009 287, 349.731 287 C 349.453 287, 347.857 291.387, 346.183 296.750 M 518.488 293.388 C 513.972 297.814, 499.475 308.857, 415.500 371.842 C 401.200 382.568, 381.625 397.488, 372 404.997 C 362.375 412.507, 349.325 422.509, 343 427.224 C 324.454 441.048, 300.635 459.301, 266.545 485.813 C 252.820 496.487, 241.008 505.444, 240.295 505.717 C 238.036 506.584, 238.820 507.465, 246.750 512.975 C 251.012 515.937, 260.757 523.045, 268.404 528.771 C 276.052 534.497, 282.886 539.403, 283.590 539.673 C 285.187 540.286, 304.312 525.961, 324.521 509.014 C 332.951 501.945, 346.970 490.766, 355.674 484.173 C 364.378 477.579, 379.150 466.286, 388.500 459.078 C 397.850 451.870, 408.357 443.841, 411.848 441.236 C 424.626 431.703, 479.027 391.272, 489.609 383.443 C 495.599 379.012, 505.128 371.865, 510.784 367.560 C 516.440 363.256, 521.375 360.042, 521.751 360.418 C 522.730 361.397, 523.823 382.650, 523.919 402.563 L 524 419.626 526.750 422.138 C 530.379 425.452, 544.724 436.385, 553.500 442.524 C 562.605 448.893, 590.413 469.439, 600 476.881 C 604.125 480.083, 612.640 486.434, 618.921 490.995 C 625.203 495.555, 636.228 503.845, 643.421 509.416 C 650.615 514.987, 659.650 521.745, 663.500 524.433 C 667.350 527.121, 672.304 530.764, 674.508 532.529 L 678.516 535.737 678.366 590.119 C 678.283 620.028, 678.460 656.538, 678.759 671.250 L 679.303 698 702.652 698 L 726 698 726.180 632.750 C 726.278 596.862, 726.437 559.994, 726.531 550.821 L 726.703 534.141 715.601 525.883 C 672.094 493.518, 636.587 467.034, 631.500 463.153 C 591.984 433.007, 577.136 421.865, 558 408.001 C 545.625 399.035, 533.169 389.733, 530.320 387.332 C 524.357 382.305, 524.863 384.565, 522.925 354.348 C 522.257 343.945, 522.132 335.621, 522.630 334.848 C 523.159 334.029, 523.696 338.787, 524 346.969 L 524.500 360.437 535 368.243 C 540.775 372.536, 550.225 379.639, 556 384.027 C 561.775 388.416, 579.325 401.594, 595 413.312 C 629.969 439.453, 683.494 479.830, 699 491.765 C 705.325 496.633, 718.375 506.636, 728 513.992 C 737.625 521.349, 749.294 530.436, 753.931 534.184 C 758.569 537.933, 762.994 541, 763.765 541 C 764.536 541, 769.067 537.680, 773.833 533.622 C 778.600 529.564, 785.689 523.826, 789.587 520.872 C 801.415 511.906, 806.885 507.525, 806.908 507 C 806.920 506.725, 802.333 503.148, 796.715 499.050 C 791.097 494.953, 780.425 486.824, 773 480.985 C 756.717 468.181, 732.833 449.686, 716.500 437.233 C 709.900 432.201, 697.075 422.399, 688 415.451 C 678.925 408.504, 657.100 391.989, 639.500 378.752 C 621.900 365.516, 605.475 353.044, 603 351.038 C 600.525 349.033, 595.575 345.330, 592 342.810 C 588.425 340.290, 581.618 335.140, 576.874 331.364 C 572.129 327.589, 561.373 319.550, 552.972 313.500 C 544.570 307.450, 534.497 299.350, 530.586 295.500 L 523.476 288.500 518.488 293.388 M 523.220 301.644 C 522.924 317.977, 524.559 334.180, 526.637 335.500 C 527.503 336.050, 529.800 337.738, 531.743 339.250 C 533.686 340.762, 535.551 341.983, 535.888 341.962 C 536.665 341.914, 542 334.244, 542 333.174 C 542 332.734, 537.962 329.066, 533.026 325.022 L 524.053 317.669 523.747 303.585 L 523.441 289.500 523.220 301.644 M 514.500 323.630 C 510.650 326.672, 506.452 330.053, 505.171 331.143 L 502.842 333.124 505.175 335.312 C 506.458 336.515, 508.406 338.697, 509.504 340.161 L 511.500 342.821 516.750 338.876 L 522 334.930 522 326.465 C 522 321.809, 521.888 318.022, 521.750 318.049 C 521.612 318.077, 518.350 320.588, 514.500 323.630 M 556.936 347.900 C 555.732 350.042, 553.623 352.307, 552.248 352.933 C 549.788 354.054, 549.861 354.150, 556.890 358.992 C 565.207 364.721, 571.950 369.687, 596.357 388.059 C 606.178 395.451, 617.614 403.840, 621.771 406.700 C 625.927 409.560, 629.971 412.542, 630.756 413.328 C 631.993 414.565, 632.706 414.190, 636.092 410.516 C 638.241 408.184, 639.986 405.877, 639.968 405.388 C 639.951 404.900, 636.928 402.475, 633.252 400 C 629.575 397.525, 622.049 391.900, 616.528 387.500 C 605.414 378.644, 577.103 357.121, 570.639 352.614 C 568.363 351.027, 564.841 348.441, 562.812 346.867 L 559.125 344.006 556.936 347.900 M 470.921 355.771 C 451.789 370.194, 451.419 370.552, 452.870 373.216 C 453.554 374.472, 455.209 376.757, 456.547 378.294 L 458.980 381.088 464.937 377.043 C 468.214 374.818, 474.856 369.798, 479.697 365.888 C 484.539 361.979, 489.345 358.184, 490.378 357.456 C 492.160 356.200, 492.059 355.904, 488.378 351.599 C 486.245 349.106, 484.050 347.061, 483.500 347.054 C 482.950 347.048, 477.290 350.971, 470.921 355.771 M 519 384.584 C 517.625 385.938, 514.250 388.641, 511.500 390.590 C 478.801 413.761, 403.151 470.059, 380 488.450 C 373.675 493.475, 364.450 500.706, 359.500 504.519 C 354.550 508.332, 346.885 514.388, 342.466 517.976 C 338.047 521.564, 331.859 526.262, 328.716 528.416 L 323 532.332 323 612.041 C 323 655.881, 323.281 693.156, 323.625 694.875 L 324.250 698 347.625 698 L 371 698 371.032 614.750 L 371.064 531.500 381.782 523.254 C 396.427 511.986, 459.462 465.366, 512.265 426.750 C 517.342 423.038, 521.903 420, 522.401 420 C 522.929 420, 523.034 425.079, 522.654 432.157 C 522.294 438.843, 522 469.893, 522 501.157 L 522 558 465.500 558 L 409 558 409 570.152 L 409 582.304 424.018 581.726 L 439.036 581.149 438.768 604.770 L 438.500 628.391 418.250 628.378 L 398 628.365 398 640.183 L 398 652 418.500 652 L 439 652 439 675.027 L 439 698.055 453.208 697.777 L 467.416 697.500 467.238 674.750 L 467.059 652 494.404 652 L 521.749 652 522.382 643.250 C 522.729 638.438, 523.192 624.825, 523.410 613 L 523.806 591.500 523.079 609.241 C 522.679 618.998, 522.160 627.149, 521.926 627.355 C 521.692 627.560, 513.261 628.035, 503.191 628.410 L 484.881 629.091 486.085 626.795 C 488.276 622.619, 493.342 616.720, 507.652 601.681 C 519.181 589.564, 521.915 586.131, 522.404 583.154 C 524.359 571.259, 524.104 381.872, 522.133 382.060 C 521.785 382.094, 520.375 383.229, 519 384.584 M 426.942 388.354 C 423.335 391.184, 416.922 396.142, 412.692 399.371 C 408.461 402.600, 405 405.474, 405 405.756 C 405 406.039, 406.023 407.222, 407.274 408.385 C 408.524 409.548, 410.286 411.558, 411.188 412.851 L 412.829 415.201 424.165 406.632 C 430.399 401.920, 437.004 396.789, 438.843 395.232 L 442.186 392.399 437.843 387.804 L 433.500 383.208 426.942 388.354 M 652.552 421.101 C 651.133 423.246, 649.512 425, 648.951 425 C 647.759 425, 652.223 428.886, 660 434.617 L 665.500 438.670 668.750 434.727 C 670.538 432.558, 672 430.435, 672 430.009 C 672 429.583, 668.205 426.527, 663.566 423.218 L 655.132 417.202 652.552 421.101 M 346.883 449.250 C 342.772 452.137, 333.414 459.225, 326.087 465 C 318.760 470.775, 310.230 477.404, 307.132 479.731 C 304.035 482.058, 299.250 485.924, 296.500 488.323 C 293.750 490.721, 289.025 494.409, 286 496.518 C 279.462 501.075, 275.173 504.864, 273.904 507.203 C 273.205 508.490, 273.741 509.774, 276.093 512.453 C 277.806 514.404, 280.006 516, 280.983 516 C 281.960 516, 287.006 512.513, 292.198 508.250 C 303.063 499.329, 309.407 494.368, 327.500 480.644 C 334.650 475.221, 345.758 466.480, 352.184 461.219 L 363.868 451.655 359.684 447.868 C 357.383 445.786, 355.243 444.064, 354.928 444.041 C 354.614 444.018, 350.993 446.363, 346.883 449.250 M 686.635 448.585 C 684.509 451.070, 682.997 453.330, 683.274 453.607 C 683.551 453.884, 689.402 458.248, 696.276 463.305 C 703.151 468.362, 720.353 481.275, 734.503 492 C 767.316 516.869, 771.283 519.650, 771.788 518.135 C 772.010 517.470, 773.328 515.576, 774.716 513.925 C 777.196 510.978, 777.208 510.886, 775.371 508.814 C 774.342 507.654, 770.125 504.211, 766 501.163 C 761.875 498.116, 755.787 493.345, 752.471 490.561 C 741.073 480.992, 691.764 443.854, 690.696 444.033 C 690.588 444.051, 688.761 446.099, 686.635 448.585 M 343.250 551.731 C 341.044 552.131, 340.996 552.438, 340.794 567.320 C 340.681 575.669, 340.601 590.150, 340.616 599.500 L 340.643 616.500 346.784 616.797 L 352.924 617.093 352.472 602.297 C 352.223 594.159, 351.809 579.681, 351.551 570.124 C 351.293 560.567, 350.951 552.643, 350.791 552.515 C 349.984 551.867, 345.228 551.373, 343.250 551.731 M 698.872 553.666 C 697.433 554.049, 697.191 557.302, 696.781 581.800 C 696.497 598.791, 696.690 609.983, 697.281 610.750 C 697.841 611.476, 700.501 612, 703.622 612 L 709 612 709 584.082 C 709 568.727, 708.727 555.452, 708.393 554.582 C 707.805 553.049, 702.943 552.581, 698.872 553.666 M 241.829 564.708 C 238.299 568.994, 233.196 575.650, 230.490 579.500 C 227.785 583.350, 222.357 590.775, 218.429 596 C 210.541 606.491, 208.759 609.426, 209.702 610.369 C 210.049 610.716, 215.224 611, 221.202 611 C 231.250 611, 231.998 611.132, 231.114 612.750 C 230.588 613.712, 224.042 622.135, 216.567 631.466 C 209.093 640.797, 203.136 648.897, 203.330 649.466 C 203.543 650.091, 207.893 650.500, 214.341 650.500 C 221.654 650.500, 225.001 650.858, 225 651.640 C 225 653.036, 217.825 662.920, 209.495 673 C 203.102 680.737, 201 683.976, 201 686.092 C 201 687.037, 205.448 687.173, 220.500 686.689 L 240 686.062 240 700.531 L 240 715 215.500 715 L 191 715 191 780.637 L 191 846.274 196.236 841.387 C 199.116 838.699, 206.879 831.267, 213.486 824.871 C 220.094 818.475, 228.035 811.050, 231.134 808.371 C 244.102 797.159, 266.305 776.930, 277.525 766.103 C 290.042 754.024, 322.125 724.893, 329.124 719.250 C 331.341 717.462, 333.650 716, 334.254 716 C 334.858 716, 333.315 717.462, 330.826 719.250 C 328.337 721.038, 319.595 728.854, 311.400 736.621 C 283.629 762.939, 269.555 775.965, 247.509 795.758 C 235.414 806.616, 218.764 822.025, 210.509 830.001 C 202.254 837.977, 189.537 849.853, 182.250 856.393 C 174.963 862.933, 169 868.603, 169 868.993 C 169 870.030, 122.634 914.583, 115 920.881 C 111.425 923.831, 100.605 933.727, 90.955 942.872 C 66.128 966.400, 61.166 970.822, 60.375 970.119 C 59.993 969.779, 59.977 970.021, 60.341 970.657 C 60.964 971.745, 48.188 983.865, 42.468 987.613 C 41.111 988.502, 40 989.698, 40 990.270 C 40 990.842, 40.903 990.493, 42.006 989.494 C 43.110 988.496, 44.244 987.910, 44.526 988.193 C 44.809 988.476, 43.119 989.975, 40.770 991.524 C 33.900 996.055, 5.891 1024, 8.220 1024 C 9.329 1024, 12.208 1021.761, 14.789 1018.890 C 19.753 1013.368, 29.115 1006.009, 31.207 1005.985 C 32.129 1005.974, 32.069 1005.685, 31 1004.977 C 29.765 1004.161, 30.335 1003.235, 34.218 999.743 C 43.197 991.668, 46.751 989, 48.622 988.930 C 50.415 988.863, 50.417 988.827, 48.672 988.139 C 47.105 987.522, 47.604 986.726, 52.172 982.558 C 59.605 975.777, 92.070 944.771, 105.946 931.200 C 115.357 921.996, 117.871 920.036, 119.500 920.628 C 120.600 921.028, 211.543 921.506, 321.595 921.689 L 521.689 922.022 522.595 897.261 C 523.093 883.643, 523.277 865.300, 523.004 856.500 C 522.234 831.634, 522.478 742.063, 523.445 694.750 L 524.319 652 552.660 652 L 581 652 581 675 L 581 698 589.353 698 C 600.536 698, 610.082 696.942, 609.365 695.781 C 609.045 695.264, 609.113 685.202, 609.514 673.421 L 610.244 652 631.154 652 L 652.063 652 651.782 640.250 L 651.500 628.500 630.856 628.620 L 610.213 628.741 609.491 607.586 C 609.095 595.951, 608.940 585.547, 609.148 584.466 C 609.501 582.628, 610.525 582.482, 624.907 582.223 L 640.289 581.946 639.644 574.322 C 639.290 570.129, 639 564.741, 639 562.349 L 639 558 581.551 558 L 524.103 558 523.801 572.489 L 523.500 586.978 541.663 605.603 C 551.653 615.847, 560.048 625.077, 560.320 626.114 C 560.790 627.912, 559.949 628, 542.406 628 L 524 628 524 639.941 C 524 646.823, 523.576 652.144, 523 652.500 C 522.368 652.890, 522 664.514, 522 684.069 L 522 715.020 398.250 715.052 C 330.188 715.070, 271.463 715.178, 267.750 715.292 L 261.001 715.500 261 708.401 C 261 704.496, 260.703 697.790, 260.340 693.497 L 259.681 685.693 278.340 686.244 C 288.603 686.548, 297 686.471, 297 686.074 C 297 685.676, 291.348 678.185, 284.440 669.426 C 277.532 660.667, 271.428 652.688, 270.875 651.695 C 269.930 649.996, 270.551 649.903, 281.445 650.102 C 287.810 650.219, 293.264 650.070, 293.563 649.770 C 294.078 649.255, 275.455 624.027, 268.317 615.570 C 266.493 613.409, 265 611.341, 265 610.976 C 265 610.610, 270.447 610.525, 277.105 610.786 L 289.210 611.261 287.962 608.881 C 287.276 607.571, 284.149 602.900, 281.014 598.500 C 277.879 594.100, 273.008 587.125, 270.191 583 C 263.969 573.892, 250.927 557.776, 249.374 557.278 C 248.755 557.079, 245.360 560.423, 241.829 564.708 M 790.284 568.750 C 784.826 575.212, 776.566 585.832, 771.930 592.348 C 767.293 598.865, 762.887 605.046, 762.138 606.084 C 759.213 610.135, 761.136 611, 773.062 611 L 784.188 611 780.448 616.250 C 776.267 622.119, 766.291 634.744, 759.458 642.812 C 756.984 645.734, 755.220 648.547, 755.539 649.062 C 755.857 649.578, 761.491 650, 768.059 650 C 774.627 650, 780 650.295, 780 650.656 C 780 651.731, 775.074 658.021, 768.074 665.885 C 757.345 677.939, 752 684.363, 752 685.207 C 752 685.643, 760.775 686, 771.500 686 L 791 686 791 700.500 C 791 713.600, 790.831 715.011, 789.250 715.113 C 788.288 715.174, 728.212 715.129, 655.750 715.012 L 524 714.799 524 783.892 L 524 852.984 690.365 852.991 L 856.729 852.998 843.615 840.178 C 836.402 833.126, 825.101 822.889, 818.502 817.428 C 811.904 811.968, 802.004 803.059, 796.502 797.630 C 785.477 786.751, 789.214 789.425, 804 802.996 C 809.225 807.791, 817.550 814.982, 822.500 818.976 C 827.450 822.970, 837.237 831.915, 844.250 838.855 L 857 851.471 857 783.186 L 857 714.902 834.308 715.058 L 811.617 715.214 811.352 700.478 L 811.086 685.742 831.001 686.226 C 849.100 686.667, 850.826 686.565, 849.936 685.105 C 849.397 684.222, 843.165 676.075, 836.087 667 L 823.217 650.500 835.108 650.219 C 841.649 650.065, 847 649.588, 847 649.161 C 847 648.170, 828.065 623.115, 822.331 616.517 C 819.949 613.777, 818 611.123, 818 610.620 C 818 610.082, 822.692 609.987, 829.419 610.389 C 835.966 610.781, 841.076 610.686, 841.396 610.168 C 842.565 608.277, 803.967 557, 801.375 557 C 800.734 557, 795.743 562.288, 790.284 568.750 M 477.750 581.746 L 467 582.068 467.088 592.284 C 467.136 597.903, 467.473 604.675, 467.838 607.333 L 468.500 612.166 475.500 606.878 C 482.167 601.842, 500.934 583.333, 500.979 581.750 C 500.990 581.337, 498.188 581.096, 494.750 581.212 C 491.313 581.329, 483.663 581.569, 477.750 581.746 M 563.250 581.775 C 554.313 581.926, 547 582.428, 547 582.890 C 547 583.929, 577.982 615, 579.018 615 C 579.430 615, 580.038 613.987, 580.370 612.750 C 581.244 609.488, 581.138 582.175, 580.250 581.809 C 579.837 581.639, 572.188 581.624, 563.250 581.775 M 697 641.841 C 697 645.604, 696.707 655.450, 696.349 663.722 L 695.698 678.761 699.626 679.136 C 701.786 679.342, 704.840 679.283, 706.411 679.005 L 709.269 678.500 709.384 656.750 L 709.500 635 703.250 635 L 697 635 697 641.841 M 340.466 638.227 C 340.185 638.959, 340.078 648.321, 340.228 659.029 L 340.500 678.500 346.270 678.801 L 352.041 679.101 351.770 658.301 L 351.500 637.500 346.239 637.197 C 342.554 636.985, 340.824 637.294, 340.466 638.227 M 733.919 756.239 C 731.489 758.449, 725.675 763.914, 721 768.382 C 716.325 772.850, 710.098 778.697, 707.162 781.375 L 701.823 786.246 704.975 789.124 C 707.899 791.795, 708.536 791.959, 713.813 791.397 C 716.941 791.065, 722.047 790.162, 725.161 789.392 C 731.430 787.841, 747.697 787.397, 758.500 788.483 C 765.166 789.153, 765.393 789.108, 763.250 787.536 C 760.249 785.336, 760.351 783.528, 763.364 785.503 C 764.664 786.355, 769.051 788.155, 773.114 789.503 L 780.500 791.954 782.250 789.866 C 783.212 788.718, 784 786.963, 784 785.967 C 784 784.049, 777.444 778.121, 767.500 771.047 C 764.200 768.699, 759.250 764.321, 756.500 761.316 C 752.173 756.589, 750.614 755.609, 744.919 754.037 L 738.338 752.220 733.919 756.239 M 393 757.045 C 392.175 757.603, 388.927 757.933, 385.782 757.780 L 380.064 757.500 374.093 763.408 L 368.123 769.316 375.041 776.977 C 381.897 784.571, 382.018 784.649, 388.729 785.798 C 392.453 786.435, 396.625 787.218, 398 787.538 C 400.190 788.047, 401.166 787.226, 405.871 780.917 C 409.977 775.411, 410.919 773.532, 409.871 772.939 C 404.146 769.701, 399.955 765.575, 397.863 761.116 C 395.289 755.632, 395.200 755.557, 393 757.045 M 618.928 782.440 C 614.725 786.450, 613.957 787.674, 614.852 788.940 C 615.457 789.798, 617.426 792.850, 619.227 795.722 L 622.500 800.943 632.160 800.972 L 641.820 801 645.257 794.750 L 648.694 788.500 645.285 786.172 C 643.409 784.891, 641.036 782.463, 640.010 780.776 C 638.226 777.842, 637.840 777.704, 631.125 777.605 L 624.106 777.500 618.928 782.440 M 279.500 788.170 C 277.300 788.703, 273.631 788.897, 271.346 788.602 C 264.863 787.763, 264.292 789.398, 268.094 797.901 L 271.268 805 275.987 805 C 278.583 805, 283.441 805.286, 286.783 805.635 L 292.860 806.270 294.447 802.474 L 296.033 798.677 291.016 793.635 C 288.257 790.861, 286 788.234, 286 787.796 C 286 786.831, 284.725 786.904, 279.500 788.170 M 179.294 861.224 C 173.907 866.023, 169.355 870.635, 169.177 871.474 C 168.888 872.836, 185.684 873.017, 325.677 873.156 C 411.930 873.242, 488.125 873.319, 495 873.327 C 501.875 873.336, 510.762 873.266, 514.750 873.171 L 522 873 522 863 L 522 853 516.250 852.967 C 513.087 852.948, 438.182 852.836, 349.794 852.717 L 189.087 852.500 179.294 861.224 M 25.405 1006.146 C 23.513 1008.276, 23.515 1008.283, 25.694 1007.140 C 28.125 1005.865, 29.622 1004, 28.214 1004 C 27.717 1004, 26.453 1004.965, 25.405 1006.146" stroke="none" fill="#000000" fill-rule="evenodd"/>
</svg>