<svg xmlns="http://www.w3.org/2000/svg" width="1024" height="1024" viewBox="0 0 1024 1024" version="1.1">
	<path d="M 10.886 51.735 L 5.273 52.092 5.386 70.060 L 5.500 88.028 12.566 87.393 C 16.453 87.043, 48.964 86.699, 84.814 86.629 L 149.996 86.500 149.998 79.406 C 149.999 75.504, 149.707 67.516, 149.348 61.656 L 148.696 51 82.598 51.189 C 46.244 51.293, 13.974 51.539, 10.886 51.735 M 923.500 56.529 C 921.300 57.321, 919.424 57.977, 919.332 57.985 C 918.224 58.084, 915.072 65.436, 914.824 68.500 L 914.500 72.500 920.750 72.798 C 926.760 73.084, 927 73.003, 927 70.701 C 927 68.354, 927.229 68.292, 938.250 67.657 C 944.438 67.301, 952.439 67.007, 956.031 67.005 C 962.370 67, 962.595 67.088, 963.694 70 C 964.702 72.670, 965.283 73, 968.979 73 C 975.254 73, 977.278 71.558, 976.444 67.680 C 975.343 62.568, 973.131 59.051, 969.701 56.960 C 966.808 55.195, 964.622 55.011, 947 55.048 C 932.623 55.077, 926.449 55.466, 923.500 56.529 M 102.591 63.899 C 100.559 66.145, 100.192 71.321, 101.918 73.401 C 103.911 75.802, 108.758 76.389, 111.541 74.565 C 114.691 72.501, 114.933 66.933, 112 64 C 109.474 61.474, 104.831 61.424, 102.591 63.899 M 126.378 62.984 C 121.433 64.981, 122.991 74.211, 128.378 74.828 C 129.953 75.009, 132.312 74.887, 133.621 74.559 C 135.725 74.031, 136 73.391, 136 69.016 C 136 65.150, 135.578 63.844, 134.066 63.035 C 131.787 61.816, 129.311 61.799, 126.378 62.984 M 646.134 77.721 C 644.833 77.968, 643.542 79.035, 643.265 80.093 C 642.772 81.979, 640.603 82.012, 533.975 81.759 L 425.187 81.500 424.538 96.500 C 423.644 117.163, 423.458 133.760, 423.750 166.570 L 424 194.641 600.750 194.818 L 777.500 194.996 777.269 146.486 C 777.017 93.420, 777.264 95.636, 770.897 89.178 C 764.274 82.461, 765.116 82.595, 725.500 81.928 C 692.831 81.378, 688.806 81.124, 682 79.184 C 675.934 77.456, 672.014 77.069, 661.500 77.160 C 654.350 77.222, 647.435 77.474, 646.134 77.721 M 883.662 79.978 L 859.823 80.500 857.304 83.431 C 855.224 85.851, 854.879 87.064, 855.326 90.396 C 856.161 96.617, 857.677 97.206, 870.494 96.288 C 876.547 95.855, 913.563 95.509, 952.750 95.519 L 1024 95.538 1024 87.258 L 1024 78.978 965.750 79.217 C 933.712 79.348, 896.773 79.691, 883.662 79.978 M 268 82.936 C 260.392 84.067, 252.999 89.302, 249.413 96.099 C 247.763 99.228, 247.614 103.323, 247.560 147.249 L 247.500 194.997 327.250 194.999 L 407 195 407.150 183.500 C 407.233 177.175, 407.345 171.438, 407.400 170.750 C 407.478 169.769, 395.208 169.392, 350.333 169 C 318.890 168.725, 292.826 168.161, 292.412 167.746 C 291.997 167.331, 291.450 153.944, 291.195 137.996 L 290.732 109 345.116 108.989 C 375.027 108.983, 401.188 108.699, 403.250 108.358 L 407 107.738 407 94.869 L 407 82 339.750 82.134 C 302.762 82.207, 270.475 82.568, 268 82.936 M 5.500 160.815 L 5.500 224.129 77.471 223.815 L 149.442 223.500 149.692 162.500 C 149.829 128.950, 150.200 100.443, 150.515 99.151 L 151.088 96.802 78.294 97.151 L 5.500 97.500 5.500 160.815 M 503.845 99.971 C 491.775 102.138, 479.501 111.207, 474.299 121.801 C 471.773 126.943, 471.500 128.525, 471.500 138 C 471.500 151.673, 473.973 158.696, 481.741 167.087 C 488.141 173.999, 494.891 177.499, 504.781 179.034 C 518.296 181.131, 529.943 177.220, 538.693 167.646 C 547.079 158.470, 550.670 148.205, 549.739 136.070 C 548.951 125.797, 545.705 118.440, 539.081 111.914 C 529.045 102.027, 516.353 97.725, 503.845 99.971 M 880.711 105.747 L 868.921 106.064 869.445 109.282 C 870.186 113.828, 872.741 136.465, 873.986 149.500 C 877.237 183.551, 880.249 208.024, 881.662 211.884 C 882.545 214.295, 885.007 218.007, 887.134 220.134 L 891 224 944.435 224 C 973.824 224, 998.912 223.603, 1000.185 223.118 C 1003.092 222.009, 1007.739 217.404, 1009.619 213.769 C 1011.610 209.920, 1013.581 195.800, 1016.514 164.375 C 1017.894 149.594, 1019.692 131.650, 1020.510 124.500 C 1021.328 117.350, 1021.998 110.037, 1021.999 108.250 L 1022 105 957.250 105.215 C 921.638 105.333, 887.195 105.573, 880.711 105.747 M 64 109.591 C 54.887 112.010, 48.484 115.710, 42.822 121.827 C 26.089 139.907, 23.381 164.354, 35.957 183.811 C 43.808 195.959, 52.835 202.505, 66.585 206.022 C 75.936 208.413, 80.296 208.493, 88.356 206.419 C 107.551 201.480, 122.951 186.956, 127.458 169.540 C 132.030 151.873, 125.811 131.302, 112.666 120.607 C 107.024 116.016, 95.659 110.444, 89.201 109.102 C 81.996 107.604, 70.658 107.824, 64 109.591 M 504.994 116.886 C 496.359 119.679, 490.896 125.638, 488.934 134.402 C 487.942 138.837, 488.025 140.582, 489.468 145.579 C 492.865 157.341, 499.945 162.555, 511.521 161.818 C 519.529 161.308, 524.811 157.968, 529.025 150.749 C 531.823 145.955, 532.063 144.844, 531.794 137.927 C 531.442 128.851, 528.554 123.576, 521.772 119.616 C 517.144 116.913, 509.004 115.589, 504.994 116.886 M 68.081 121.539 C 65.101 122.367, 61.276 123.908, 59.581 124.962 C 54.248 128.279, 48.205 135.277, 45.301 141.500 C 42.766 146.929, 42.500 148.547, 42.500 158.500 C 42.500 168.681, 42.718 169.931, 45.429 175.281 C 48.896 182.123, 56.117 189.204, 62.741 192.257 C 66.666 194.065, 69.340 194.454, 78 194.475 C 87.609 194.498, 89.005 194.252, 94.457 191.575 C 97.734 189.966, 102.401 186.607, 104.828 184.109 L 109.241 179.568 107.050 178.034 C 96.534 170.673, 94.655 166.588, 95.153 152.172 C 95.559 140.443, 97.068 137.481, 103.937 134.927 L 108.168 133.355 104.667 130.281 C 102.742 128.591, 98.109 125.702, 94.372 123.862 C 86.332 119.904, 76.944 119.075, 68.081 121.539 M 587.513 123.188 C 582.746 124.239, 577.462 128.979, 574.900 134.500 C 572.622 139.409, 572.529 142.936, 574.548 147.768 C 577.809 155.574, 583.586 159.341, 592.176 159.263 C 600.115 159.190, 605.242 156.161, 608.503 149.618 C 611.378 143.850, 611.647 139.484, 609.452 134.232 C 605.680 125.204, 597.359 121.015, 587.513 123.188 M 646.500 123.662 C 639.590 127.305, 635.044 134.185, 635.044 141 C 635.044 151.719, 646.257 161.275, 656.688 159.445 C 668.129 157.438, 675.826 146.493, 673.048 136.180 C 670.056 125.068, 656.213 118.541, 646.500 123.662 M 708.121 124.113 C 698.782 128.855, 695.081 141.289, 700.278 150.465 C 703.638 156.397, 710.925 160.535, 717.718 160.369 C 736.504 159.909, 744.265 135.483, 728.864 125.291 C 723.130 121.497, 714.266 120.993, 708.121 124.113 M 944.308 124.010 C 939.708 125.863, 939.249 128.179, 939.454 148.500 C 940.025 204.981, 939.710 199.501, 942.589 202.923 C 945.806 206.746, 949.144 206.904, 951.927 203.365 C 953.935 200.812, 954 199.628, 954 165.412 C 954 141.658, 953.636 129.296, 952.890 127.657 C 952.025 125.760, 947.893 122.692, 946.703 123.063 C 946.591 123.098, 945.514 123.524, 944.308 124.010 M 901.655 125.829 C 899.736 127.949, 899.575 136.126, 900.667 176.082 L 901.333 200.487 904.090 203.244 C 907.449 206.603, 909.088 206.689, 912.575 203.690 L 915.261 201.379 914.380 164.792 C 913.565 130.920, 913.359 128.050, 911.595 126.103 C 909.200 123.459, 903.931 123.314, 901.655 125.829 M 981.154 125.846 C 979.451 127.549, 979.265 130.437, 978.753 163.087 C 978.293 192.411, 978.440 198.950, 979.609 201.211 C 981.338 204.554, 984.414 206.321, 987.049 205.485 C 991.330 204.126, 991.695 201.300, 992.400 164 C 992.996 132.438, 992.894 128.250, 991.479 126.250 C 989.464 123.403, 983.818 123.182, 981.154 125.846 M 318 126.781 L 308.500 127.063 308.806 138.878 L 309.113 150.694 356.657 151.413 C 382.806 151.809, 404.451 151.882, 404.758 151.576 C 405.453 150.880, 405.077 127.744, 404.359 127.025 C 403.814 126.481, 334.740 126.286, 318 126.781 M 589.751 135.758 C 587.886 136.172, 586.438 140.092, 587.310 142.365 C 588.198 144.679, 593.002 144.998, 595.116 142.884 C 596.152 141.848, 597 140.380, 597 139.622 C 597 137.179, 592.986 135.039, 589.751 135.758 M 650.939 137.061 C 647.321 140.679, 650.162 144.929, 655.330 143.632 C 658.812 142.758, 660.116 138.289, 657.456 136.344 C 654.913 134.485, 653.342 134.658, 650.939 137.061 M 714.072 136.662 C 710.196 139.377, 712.090 144, 717.078 144 C 720.321 144, 722.269 141.898, 721.827 138.872 C 721.397 135.928, 716.935 134.657, 714.072 136.662 M 107.223 144.557 C 105.231 145.952, 105.002 146.964, 105.015 154.307 C 105.024 158.813, 105.361 162.960, 105.765 163.523 C 106.655 164.763, 110.512 167.146, 114.250 168.765 L 117 169.957 117 156.479 L 117 143 113.223 143 C 111.145 143, 108.445 143.701, 107.223 144.557 M 74.200 160.200 C 72.539 161.861, 72.700 164.557, 74.571 166.429 C 78.492 170.349, 82.663 166.187, 79.560 161.451 C 77.798 158.762, 76.047 158.353, 74.200 160.200 M 54.620 162.805 C 53.909 163.957, 55.637 171.037, 56.950 172.350 C 58.755 174.155, 61.460 171.711, 61.829 167.943 C 62.057 165.611, 61.618 164.194, 60.388 163.294 C 58.400 161.841, 55.375 161.585, 54.620 162.805 M 65.035 175.935 C 63.783 178.275, 65.132 182.453, 67.423 183.332 C 71.515 184.902, 74.186 180.459, 71.560 176.451 C 69.635 173.513, 66.465 173.262, 65.035 175.935 M 247.146 441.253 L 247.385 670.006 512.794 669.753 L 778.203 669.500 777.851 441 L 777.500 212.500 512.204 212.500 L 246.907 212.500 247.146 441.253 M 493 230.652 C 473.284 233.225, 449.451 240.630, 432 249.605 C 419.284 256.145, 403.013 268.722, 388.964 282.873 C 361.170 310.868, 342.365 348.611, 337.925 385.313 C 336.214 399.451, 337.263 428.833, 339.907 440.810 C 345.090 464.294, 355.301 487.660, 368.942 507.249 C 378.641 521.176, 399.700 541.708, 414.500 551.666 C 432.764 563.955, 447.139 570.615, 470 577.378 C 508.441 588.751, 553.261 583.804, 593.500 563.748 C 620.521 550.280, 645.801 526.999, 662.855 499.877 C 671.732 485.758, 681.175 462.768, 685.393 445 C 687.599 435.708, 690 416.160, 690 407.488 C 690 374.946, 678.052 338.049, 657.461 307 C 639.232 279.514, 607.158 253.184, 577.829 241.628 C 570.784 238.852, 555.631 234.959, 541.795 232.370 C 533.688 230.853, 500.429 229.682, 493 230.652 M 498.375 250.035 C 481.782 251.399, 461.024 257.379, 444.237 265.633 C 407.881 283.506, 379.928 316.124, 364.880 358.232 C 355.519 384.426, 353.768 412.054, 359.632 441 C 366.547 475.132, 394.275 515.233, 425.116 535.703 C 447.379 550.480, 459.708 555.815, 482.901 560.707 C 493.716 562.989, 497.978 563.371, 513 563.403 C 532.154 563.445, 539.890 562.332, 558.139 556.911 C 597.865 545.109, 628.428 520.227, 649.814 482.275 C 664.613 456.014, 671.035 430.096, 669.688 402.072 C 668.252 372.215, 659.067 344.301, 642.188 318.500 C 624.379 291.276, 594.514 268.078, 564.414 258.086 C 540.930 250.290, 522.543 248.049, 498.375 250.035 M 495.609 279.033 C 480.328 281.446, 460.798 288.376, 448.558 295.727 C 430.293 306.696, 412.047 325.574, 401.527 344.385 C 396.777 352.879, 390.329 370.161, 387.914 380.872 C 383.425 400.782, 384.691 426.537, 391.084 445.328 C 404.584 485.013, 434.349 515.439, 472.019 528.060 C 488.176 533.473, 498.947 535.284, 515.500 535.373 C 528.819 535.444, 531.707 535.141, 541.265 532.670 C 555.939 528.876, 567.436 524.074, 579.957 516.508 C 592.851 508.716, 601.903 501.328, 609.810 492.141 C 623.826 475.856, 631.228 461.406, 640.105 433 C 642.194 426.314, 642.446 423.600, 642.423 408 C 642.392 387.114, 641.161 381.407, 631.851 359.004 C 623.859 339.772, 615.763 327.433, 602.645 314.490 C 584.215 296.306, 565.266 286.094, 539.500 280.460 C 531.084 278.620, 503.833 277.734, 495.609 279.033 M 498.500 297.994 C 474.914 301.505, 453.220 312.815, 435.882 330.640 C 422 344.912, 412.369 361.782, 407.249 380.794 C 404.908 389.487, 404.637 392.273, 404.655 407.500 C 404.673 422.720, 404.955 425.547, 407.345 434.500 C 417.505 472.554, 448.853 503.433, 487.522 513.481 C 516.121 520.911, 547.122 515.382, 572.903 498.253 C 584.342 490.652, 601.376 473.566, 607.051 464 C 609.498 459.875, 611.500 456.095, 611.500 455.599 C 611.500 455.104, 608.800 453.695, 605.500 452.469 C 598.027 449.693, 596.779 447.715, 594.063 434.343 C 592.443 426.365, 592.004 420.466, 592.017 406.843 C 592.044 380.124, 594.769 370.524, 605.038 360.975 L 610.980 355.449 606.341 348.475 C 600.312 339.410, 582.441 321.635, 573.382 315.692 C 559.655 306.686, 543.984 300.339, 529.786 298.035 C 522.720 296.889, 506.073 296.867, 498.500 297.994 M 940.073 351.729 C 938.739 351.980, 936.585 352.881, 935.288 353.731 C 931.145 356.446, 907.168 384.796, 886.205 411.769 C 881.372 417.987, 881.157 420.344, 885.379 420.828 C 892.255 421.616, 895.206 419.058, 913.306 396.619 C 925.614 381.361, 939.984 365.614, 943.142 363.924 C 944.084 363.420, 945.560 363.278, 946.422 363.609 C 948.170 364.279, 966.583 384.643, 977.970 398.500 C 982.038 403.450, 988.083 410.313, 991.404 413.750 L 997.442 420 1004.304 420 C 1008.118 420, 1011.019 419.586, 1010.833 419.068 C 1010.530 418.220, 1003.350 409.908, 967.638 369.066 C 952.958 352.277, 949.321 349.989, 940.073 351.729 M 59.902 360.839 C 33.470 371.714, 15.251 388.858, 4.246 413.211 L 0.500 421.500 0.198 444.775 C -0.128 469.963, 0.512 474.878, 5.551 485.889 C 12.226 500.478, 29.369 517.579, 45.500 525.743 C 66.702 536.473, 93.824 534.321, 115.500 520.189 C 140.466 503.912, 153.442 480.897, 154.746 450.578 C 155.313 437.387, 154.171 428.793, 150.361 417.592 C 142.185 393.554, 118.805 371.113, 90.342 359.985 C 77.027 354.779, 74.454 354.851, 59.902 360.839 M 615.814 378.527 C 612.546 381.610, 612.086 382.683, 611.440 388.714 C 610.714 395.494, 611.557 425.691, 612.641 431.750 C 613.212 434.941, 613.320 435, 618.592 435 C 623.543 435, 624.013 434.797, 624.615 432.396 C 625.812 427.629, 624.243 390.931, 622.553 384.133 C 620.198 374.669, 620.042 374.539, 615.814 378.527 M 63.083 377.588 C 57.058 379.208, 45.322 385.373, 39.585 389.932 C 37.529 391.566, 32.704 396.412, 28.862 400.702 C 3.715 428.780, 5.434 468.324, 33.004 495.974 C 45.573 508.580, 61.649 515.970, 76.500 515.970 C 93.725 515.970, 113.178 506.316, 124.168 492.314 C 134.730 478.855, 140 463.491, 140 446.154 C 140 433.400, 138.207 425.428, 132.778 414.046 C 129.558 407.296, 127.171 404.036, 120.935 397.876 C 108.452 385.542, 97.928 379.357, 85.566 377.089 C 77.654 375.637, 69.681 375.814, 63.083 377.588 M 62.438 390.035 C 54.124 392.671, 45.804 398.285, 37.169 407.083 C 26.230 418.231, 22 428.633, 22 444.389 C 22 459.698, 28.983 477.281, 38.859 486.844 C 46.051 493.807, 54.950 499.606, 61.426 501.550 C 78.898 506.792, 97.858 502.760, 110.254 491.166 C 119.143 482.853, 127.799 465.004, 129.492 451.500 C 130.735 441.585, 127.590 425.842, 122.337 415.685 C 118.315 407.908, 101.046 393.725, 90.906 389.872 C 84.229 387.335, 70.706 387.413, 62.438 390.035 M 73.873 398.645 C 72.080 399.146, 71.028 403.752, 71.011 411.185 C 70.994 418.227, 72.363 421, 75.853 421 C 80.434 421, 81.106 419.278, 80.787 408.352 C 80.504 398.634, 80.466 398.498, 78 398.345 C 76.625 398.260, 74.768 398.395, 73.873 398.645 M 99.003 416.157 C 91.783 422.190, 90.228 425.173, 92.496 428.635 C 95.127 432.650, 98.049 431.615, 107.345 423.374 C 109.905 421.105, 112 418.777, 112 418.201 C 112 416.877, 107.102 411, 105.999 411 C 105.546 411, 102.398 413.321, 99.003 416.157 M 42.557 414.223 C 41.701 415.445, 41 416.946, 41 417.558 C 41 418.649, 54.272 432, 55.356 432 C 55.658 432, 57.052 431.478, 58.453 430.839 C 63.308 428.627, 60.479 421.637, 52.161 415.292 C 47.101 411.433, 44.698 411.165, 42.557 414.223 M 881.770 430.376 C 874.381 435.355, 871.897 444.038, 875.956 450.696 C 879.994 457.319, 876.192 456.989, 944.805 456.666 C 1005.285 456.381, 1007.100 456.317, 1009.762 454.365 C 1015.746 449.978, 1017.781 440.434, 1014.040 434.299 C 1010.057 427.765, 1012.393 427.977, 945.535 428.096 C 885.139 428.204, 884.985 428.209, 881.770 430.376 M 71.411 433.891 C 67.690 436.160, 64.177 440.449, 63.354 443.724 C 62.522 447.041, 65.711 453.678, 69.541 456.599 C 71.775 458.303, 73.982 459, 77.141 459 C 80.980 459, 82.091 458.483, 85.195 455.250 C 89.678 450.582, 90.651 446.495, 88.504 441.354 C 84.812 432.517, 78.316 429.681, 71.411 433.891 M 32.667 442.667 C 32.300 443.033, 32 445.508, 32 448.167 L 32 453 40.418 453 C 51.302 453, 52 452.695, 52 447.940 C 52 444.348, 51.753 444.025, 48.250 443.053 C 44.066 441.891, 33.699 441.634, 32.667 442.667 M 101 447.500 L 101 453 111 453 L 121 453 121 447.500 L 121 442 111 442 L 101 442 101 447.500 M 49.573 465.108 C 46.499 467.917, 43.709 471.310, 43.374 472.648 C 42.676 475.427, 45.280 479, 48.003 479 C 49.540 479, 61 468, 61 466.525 C 61 464.751, 57.763 460, 56.555 460 C 55.788 460, 52.646 462.298, 49.573 465.108 M 93.200 461.200 C 91.740 462.660, 91.642 466.463, 92.999 468.998 C 94.775 472.316, 103.341 480, 105.264 480 C 108.274 480, 111 478.083, 111 475.968 C 111 473.641, 105.079 466.821, 99.600 462.836 C 95.183 459.624, 94.859 459.541, 93.200 461.200 M 72 478.336 C 72 489.721, 72.146 490, 78.116 490 L 81.068 490 80.784 479.250 L 80.500 468.500 76.250 468.193 L 72 467.885 72 478.336 M 880.933 469.670 C 873.202 472.921, 871.806 486.556, 878.653 491.942 C 881.093 493.861, 882.875 493.912, 944.065 493.806 C 1002.825 493.705, 1007.163 493.579, 1009.935 491.893 C 1016.717 487.769, 1017.957 477.495, 1012.349 471.888 L 1009.481 469.019 946.598 468.760 C 900.321 468.569, 882.981 468.809, 880.933 469.670 M 881.012 506.307 C 876.962 508.326, 874 513.688, 874 519 C 874 524.488, 876.739 529.234, 881.922 532.726 L 885.296 535 944.952 535 L 1004.608 535 1009.147 532.122 C 1019.418 525.608, 1019.042 510.840, 1008.493 506.433 C 1004.052 504.577, 884.717 504.459, 881.012 506.307 M 665.312 567.028 C 660.875 568.467, 657.535 570.487, 653.512 574.163 C 644.514 582.386, 644.499 582.441, 644.509 605.500 C 644.518 624.332, 644.655 625.805, 646.867 630.714 C 649.634 636.857, 656.675 643.788, 663.834 647.416 C 668.536 649.798, 669.942 650, 681.861 650 C 699.629 650, 705.644 648.135, 714.449 639.899 C 723.785 631.166, 724.500 628.789, 724.500 606.500 C 724.500 589.618, 724.357 588.232, 722.193 584.179 C 719.248 578.661, 712.389 572.088, 705.720 568.393 C 700.714 565.619, 699.905 565.490, 686 565.261 C 673.767 565.059, 670.533 565.335, 665.312 567.028 M 680 583.663 C 674.770 584.525, 670.005 587.386, 667.295 591.292 C 664.748 594.963, 664.469 596.250, 664.156 605.770 C 663.750 618.105, 665.347 623.637, 670.434 627.517 C 673.412 629.789, 674.563 630, 683.976 630 L 694.264 630 697.657 626.403 C 703.538 620.166, 704.388 617.618, 704.812 604.945 C 705.190 593.666, 705.136 593.315, 702.571 590.267 C 698.671 585.632, 687.641 582.405, 680 583.663 M 19.349 666.426 L 19.500 674.990 77.250 674.995 L 135 675 135 667 L 135 659 78.582 659 C 47.552 659, 21.496 658.744, 20.681 658.431 C 19.435 657.953, 19.223 659.230, 19.349 666.426 M 939.675 663.041 C 938.248 664.164, 935.912 667.228, 934.485 669.851 C 932.159 674.123, 930.414 675.498, 917.714 683.060 C 908.710 688.421, 901.354 693.649, 897.549 697.391 L 891.558 703.282 886.394 700.488 L 881.230 697.695 877.714 699.868 C 872.216 703.266, 872.032 706.004, 877 710.500 C 881.557 714.624, 881.473 715.669, 876.175 720.829 C 870.030 726.815, 864.659 737.807, 862.898 748 C 861.920 753.664, 861.039 755.946, 859.301 757.323 C 856.633 759.436, 856.389 762.305, 858.530 766.411 C 859.365 768.012, 861.618 774.537, 863.537 780.911 C 867.453 793.916, 871.700 803.305, 875.543 807.452 L 878.125 810.238 876.063 812.433 C 873.092 815.596, 873.509 818.442, 877.533 822.467 C 881.379 826.312, 884.311 826.871, 887.805 824.424 C 889.962 822.913, 890.275 823.051, 895.453 827.783 C 903.019 834.698, 924.900 844, 933.599 844 C 935.303 844, 935.923 844.774, 936.444 847.556 C 937.338 852.319, 940.195 855, 944.378 855 C 948.582 855, 950.107 853.226, 950.742 847.600 L 951.237 843.201 956.869 842.501 C 966.148 841.348, 977.029 837.343, 985.250 832.054 C 989.513 829.312, 993.015 826.716, 993.033 826.284 C 993.052 825.853, 993.965 824.421, 995.063 823.102 L 997.060 820.704 1001.472 823.873 L 1005.884 827.041 1009.394 823.959 C 1014.033 819.886, 1014.604 817.713, 1012.101 813.664 L 1010.058 810.358 1014.528 801.429 C 1020.804 788.890, 1024.005 776.939, 1023.980 766.138 C 1023.939 748.031, 1020.592 734.597, 1013.013 722.120 C 1010.256 717.580, 1008 713.516, 1008 713.088 C 1008 712.660, 1008.900 711.495, 1010 710.500 C 1012.782 707.982, 1012.496 704.849, 1009.195 701.687 C 1005.817 698.451, 1003.383 698.292, 1000.382 701.111 L 998.134 703.223 994.817 699.434 C 990.867 694.923, 981.733 688.850, 965.588 680 C 956.061 674.778, 953.240 672.714, 951.241 669.500 C 948.043 664.359, 944.968 661, 943.461 661 C 942.806 661, 941.102 661.918, 939.675 663.041 M 939.356 686.337 C 937.844 688.673, 934.749 690.846, 928.856 693.709 C 917.058 699.441, 901.725 708.485, 900.519 710.422 C 899.704 711.732, 900.301 712.737, 903.500 715.443 L 907.500 718.826 903.500 722.371 C 898.726 726.603, 896.504 726.823, 892.011 723.508 L 888.633 721.016 884.405 728.758 C 881.044 734.912, 875 751.816, 875 755.062 C 875 755.419, 877.943 755.986, 881.541 756.322 C 885.138 756.658, 888.513 757.199, 889.041 757.525 C 890.104 758.182, 890.344 764.939, 889.393 767.418 C 888.976 768.505, 887.489 769.004, 884.643 769.014 C 882.364 769.021, 879.458 769.306, 878.185 769.647 C 876.090 770.208, 875.932 770.659, 876.531 774.384 C 877.516 780.514, 885.287 801.620, 887.299 803.632 C 887.621 803.954, 889.148 803.342, 890.692 802.272 C 895.692 798.805, 897.093 798.714, 900.163 801.656 C 903.871 805.209, 903.759 807.891, 899.765 811.173 C 897.976 812.643, 896.735 814.039, 897.006 814.274 C 897.278 814.510, 901.148 817.236, 905.606 820.334 C 913.453 825.785, 926.804 831.238, 934.535 832.150 C 937.427 832.491, 937.508 832.380, 937.808 827.665 C 938.054 823.817, 938.427 822.950, 939.640 823.415 C 940.478 823.737, 942.920 824, 945.067 824 C 948.860 824, 949.004 824.129, 950.104 828.500 C 950.728 830.975, 951.325 833, 951.431 833 C 951.538 833, 955.647 831.645, 960.562 829.989 C 970.542 826.627, 987.122 818.628, 989.456 816.049 C 990.835 814.525, 990.652 814.055, 987.488 810.988 C 985.570 809.129, 984 806.930, 984 806.101 C 984 805.273, 985.404 803.146, 987.121 801.375 C 990.523 797.865, 991.599 797.892, 996.633 801.610 L 999.766 803.924 1002.998 796.712 C 1005.698 790.687, 1011 772.902, 1011 769.872 C 1011 769.392, 1008.332 769, 1005.071 769 C 997.939 769, 996 767.501, 996 761.985 C 996 756.613, 998.740 754.764, 1005.393 755.647 C 1009.787 756.229, 1010.257 756.113, 1009.672 754.588 C 1009.310 753.645, 1008.364 750.090, 1007.569 746.687 C 1006.045 740.168, 1001.985 728.806, 999.378 723.764 L 997.831 720.772 994.618 723.886 C 992.851 725.599, 990.654 727, 989.737 727 C 987.546 727, 981 721.217, 981 719.281 C 981 718.450, 982.644 716.264, 984.654 714.423 C 987.560 711.761, 988.071 710.790, 987.151 709.682 C 985.175 707.301, 962.213 693.852, 955.691 691.255 C 952.286 689.899, 948.129 687.487, 946.452 685.895 C 944.776 684.303, 942.976 683.006, 942.452 683.012 C 941.929 683.019, 940.535 684.515, 939.356 686.337 M 82.946 685.108 C 82.916 685.323, 82.804 690.318, 82.696 696.207 C 82.524 705.612, 82.257 707.099, 80.500 708.426 C 77.616 710.604, 74.350 710.338, 72.557 707.777 C 71.405 706.133, 71 703.007, 71 695.761 L 71 685.967 44.250 686.234 L 17.500 686.500 16.817 705.654 C 16.442 716.188, 15.212 732.613, 14.084 742.154 C 12.956 751.694, 11.350 770.075, 10.514 783 C 9.679 795.925, 8.556 812.125, 8.020 819 C 6.542 837.955, 5.858 836, 13.965 836 C 19.930 836, 21.085 836.290, 22.011 838.021 C 23.851 841.459, 22.371 842.117, 14.420 841.396 L 7 840.724 7 847.263 L 7 853.803 18.250 854.471 C 24.438 854.839, 34.675 854.995, 41 854.820 L 52.500 854.500 53.294 848.500 C 53.730 845.200, 55.858 831.700, 58.021 818.500 C 60.185 805.300, 62.893 788.425, 64.038 781 C 66.194 767.024, 72.425 736.739, 73.504 734.993 C 74.905 732.727, 76.934 734.293, 78.374 738.750 C 79.219 741.362, 80.859 748.675, 82.020 755 C 83.181 761.325, 84.814 769.544, 85.649 773.265 L 87.167 780.030 91.699 774.989 C 96.984 769.111, 102.766 765.486, 110.881 762.960 C 118.752 760.510, 129.646 759.532, 134.409 760.847 L 138.257 761.910 137.634 754.205 C 137.291 749.967, 136.717 732.888, 136.358 716.250 L 135.705 686 115.499 686 C 104.386 686, 92.527 685.711, 89.147 685.358 C 85.766 685.004, 82.976 684.892, 82.946 685.108 M 247.857 704.250 C 248.246 721.944, 248.568 723.190, 254.704 730.766 C 259.516 736.706, 262.512 738, 271.450 738 C 276.789 738, 279.019 738.366, 279.064 739.250 C 280.255 762.500, 281.434 767.917, 285.913 770.713 C 286.992 771.388, 303.047 771.894, 330.866 772.131 L 374.140 772.500 378.070 768.289 C 381.636 764.468, 382 763.578, 382 758.690 C 382 755.726, 382.285 749.928, 382.634 745.805 L 383.267 738.309 511.999 738.134 L 640.732 737.958 641.355 741.729 C 641.698 743.803, 641.983 749.256, 641.989 753.846 C 642.001 763.227, 643.213 766.237, 648.407 769.796 C 651.599 771.983, 651.949 772, 694.177 772 C 734.972 772, 736.834 771.919, 739.230 770.034 C 742.882 767.161, 743.795 763.844, 744.534 750.750 C 744.899 744.288, 745.490 738.992, 745.849 738.982 C 759.630 738.611, 765.159 736.358, 771.471 728.543 C 777.196 721.453, 777.415 720.599, 777.826 703.750 L 778.210 688 512.855 688 L 247.500 688 247.857 704.250 M 942.500 697.795 C 939.683 698.358, 935.554 702.440, 930.155 710 C 927.602 713.575, 922.714 720.226, 919.293 724.780 C 911.906 734.612, 904.951 747.110, 902.077 755.718 C 898.460 766.547, 899.579 780.281, 904.950 791 C 907.965 797.017, 916.396 805.596, 922.240 808.593 C 927.592 811.338, 939 814, 945.409 814 C 954.020 814, 966.109 808.446, 973.879 800.919 C 984.592 790.543, 988.970 768.762, 983.038 755.353 C 981.982 752.966, 975.559 742.348, 968.764 731.757 C 961.969 721.165, 954.405 709.274, 951.955 705.332 C 947.465 698.109, 946.157 697.066, 942.500 697.795 M 932.696 731.198 C 923.442 740.927, 913 760.275, 913 767.694 C 913 771.385, 916.515 774.165, 920.730 773.807 C 923.774 773.548, 924.483 773.026, 925.219 770.500 C 925.700 768.850, 926.721 766.150, 927.489 764.500 C 928.257 762.850, 929.382 758.963, 929.990 755.862 C 930.598 752.761, 932.694 747.586, 934.648 744.362 C 936.602 741.138, 938.616 737.432, 939.123 736.127 C 940.206 733.337, 939.241 727, 937.734 727 C 937.160 727, 934.893 728.889, 932.696 731.198 M 119 770.431 C 108.059 773.475, 98.318 781.231, 92.928 791.187 C 89.658 797.228, 89.511 797.952, 89.506 808 C 89.501 817.396, 89.792 819.124, 92.277 824.430 C 98.718 838.183, 107.929 844.772, 123.795 846.978 C 144.164 849.809, 163.646 835.738, 168.097 814.981 C 170.607 803.278, 166.047 789.876, 156.653 781.345 C 145.336 771.069, 131.314 767.005, 119 770.431 M 124.400 784.542 C 123.708 787.301, 126.159 794, 127.861 794 C 129.837 794, 131.105 790.915, 130.811 786.824 C 130.533 782.956, 130.214 782.467, 127.785 782.187 C 125.558 781.930, 124.949 782.354, 124.400 784.542 M 108.724 787.134 C 106.628 788.308, 106.478 791.322, 108.436 792.947 C 110.366 794.549, 114 792.624, 114 790 C 114 787.485, 111.005 785.858, 108.724 787.134 M 142.067 787.874 C 141.480 788.971, 141 790.798, 141 791.934 C 141 793.543, 141.636 794, 143.878 794 C 147.326 794, 149.273 791.956, 148.827 788.805 C 148.383 785.673, 143.598 785.015, 142.067 787.874 M 124.020 796.752 C 119.999 798.772, 116 804.221, 116 807.680 C 116 811.839, 118.767 816.888, 122.190 818.974 C 127.814 822.403, 133.665 821.224, 138.914 815.606 C 143.686 810.498, 140.562 800.410, 132.998 796.499 C 129.303 794.588, 128.268 794.617, 124.020 796.752 M 145.750 803.080 C 143.637 804.311, 143.452 808.300, 145.430 809.942 C 146.217 810.595, 148.579 810.988, 150.680 810.815 C 154.402 810.508, 154.508 810.391, 154.807 806.250 L 155.115 802 151.307 802.030 C 149.213 802.047, 146.713 802.519, 145.750 803.080 M 104.352 803.993 C 103.171 804.470, 101.891 805.367, 101.508 805.987 C 100.290 807.958, 101.857 811.585, 104.549 813.026 C 107.242 814.468, 107.225 814.280, 105.338 821.740 C 104.902 823.459, 105.320 824.184, 107.135 824.858 C 108.436 825.342, 110.063 825.523, 110.750 825.262 C 112.495 824.598, 112.311 819.889, 110.436 817.212 C 108.991 815.150, 109.030 814.778, 110.936 812.354 C 113.796 808.719, 113.524 806.323, 110.050 804.526 C 108.427 803.687, 106.964 803.029, 106.800 803.063 C 106.635 803.098, 105.534 803.517, 104.352 803.993 M 141.667 817.667 C 140.347 818.986, 141.040 822.782, 143.073 825.365 C 145.372 828.288, 148.124 828.761, 149.960 826.548 C 151.814 824.314, 150.821 821.796, 147.095 819.285 C 143.473 816.844, 142.715 816.618, 141.667 817.667 M 124.667 823.667 C 123.636 824.698, 123.879 830.906, 125.035 833.066 C 126.283 835.398, 130.543 835.634, 131.393 833.418 C 132.411 830.765, 132.071 825.471, 130.800 824.200 C 129.506 822.906, 125.753 822.580, 124.667 823.667 M 489.917 910.412 C 489.431 910.893, 480.454 911.740, 467 912.576 C 461.775 912.900, 456.825 913.427, 456 913.747 C 453.647 914.658, 453.193 914.742, 449.941 914.875 C 448.259 914.944, 447.136 915.412, 447.447 915.915 C 447.758 916.418, 447.447 917.093, 446.756 917.415 C 445.753 917.882, 445.752 918.118, 446.750 918.583 C 447.438 918.904, 448 919.965, 448 920.940 C 448 922.289, 449.611 923.129, 454.750 924.458 C 468.918 928.123, 473.832 929.094, 488 931.028 C 497.298 932.298, 541.354 932.142, 549.500 930.810 C 565.932 928.125, 573.835 926.853, 577.212 926.350 C 579.253 926.046, 581.446 925.168, 582.084 924.399 C 582.723 923.629, 583.817 923, 584.515 923 C 586.454 923, 587.249 919.820, 585.699 918.270 C 584.943 917.514, 583.014 916.710, 581.412 916.483 C 577.867 915.981, 574.405 915.261, 572.170 914.561 C 571.252 914.273, 563.525 913.131, 555 912.022 C 543.126 910.479, 533.748 910.007, 514.917 910.004 C 501.396 910.002, 490.146 910.186, 489.917 910.412" stroke="none" fill="#000000" fill-rule="evenodd"/>
</svg>