<svg xmlns="http://www.w3.org/2000/svg" width="1024" height="1024" viewBox="0 0 1024 1024" version="1.1">
	<path d="M 491 164.500 L 491 174 502 174 L 513 174 512.993 171.250 C 512.989 169.738, 512.699 165.463, 512.348 161.750 L 511.711 155 501.355 155 L 491 155 491 164.500 M 832.607 156.582 C 832.273 157.452, 832 165.241, 832 173.891 L 832 189.619 848.494 189.560 L 864.989 189.500 864.994 172.250 L 865 155 849.107 155 C 835.537 155, 833.125 155.231, 832.607 156.582 M 139 172.968 L 139 189.935 156.250 189.769 L 173.500 189.603 173.204 173.406 C 172.917 157.673, 172.846 157.192, 170.704 156.618 C 169.492 156.293, 161.863 156.021, 153.750 156.014 L 139 156 139 172.968 M 541.500 181.394 C 527.790 185.714, 514.540 195.671, 506.662 207.575 C 502.907 213.251, 499.816 225.974, 500.193 234.212 L 500.500 240.924 464.936 276.712 C 445.375 296.395, 426.762 315.762, 423.573 319.750 L 417.775 327 411.513 327 C 384.062 327, 364.591 360.297, 376.794 386.373 C 384.551 402.950, 398.832 410.939, 418.453 409.679 C 425.979 409.195, 428.530 408.548, 434.458 405.618 C 446.055 399.887, 455.984 388.660, 458.437 378.506 C 459.332 374.804, 461.580 372.395, 507.516 325.927 C 538.271 294.816, 544.989 288.484, 546.579 289.107 C 550.796 290.759, 568.595 290.060, 575.338 287.977 C 592.649 282.630, 606.674 266.323, 612.055 245.287 C 614.395 236.136, 614.567 226.997, 612.474 222.950 C 611.635 221.328, 610.702 220, 610.401 220 C 609.617 220, 594.206 233.903, 582.963 244.753 L 573.376 254.005 557.938 238.502 C 549.447 229.976, 542.357 222.572, 542.183 222.050 C 541.779 220.836, 547.260 214.677, 562.835 198.843 C 576.296 185.158, 576.783 184.061, 570.546 181.455 C 566.179 179.630, 547.224 179.590, 541.500 181.394 M 339 187.148 C 330.475 189.867, 314.725 195.034, 304 198.631 C 293.275 202.229, 277.863 207.248, 269.750 209.786 C 261.056 212.505, 255 214.913, 255 215.652 C 255 216.341, 257.753 219.963, 261.117 223.702 C 272.455 236.301, 278.481 247.174, 281.510 260.500 C 281.886 262.150, 282.504 292.075, 282.884 327 C 283.572 390.196, 283.587 390.525, 285.854 395.618 C 288.699 402.009, 293.213 406.458, 298.879 408.457 C 304.375 410.396, 307.303 410.396, 313.833 408.457 C 319.954 406.639, 325.261 402.291, 328.309 396.595 C 330.487 392.524, 330.503 392.100, 331.026 323.500 C 331.543 255.547, 331.585 254.400, 333.774 247.884 C 334.997 244.246, 337.951 238.396, 340.338 234.884 C 342.726 231.373, 346.246 226.211, 348.161 223.414 C 352.217 217.491, 355.848 206.640, 356.164 199.500 C 356.532 191.202, 356.048 181.993, 355.250 182.103 C 354.837 182.159, 347.525 184.430, 339 187.148 M 423.481 188.371 C 415.574 191.875, 410.600 202.928, 413.028 211.601 L 414.284 216.086 405.337 225.293 C 394.849 236.085, 389.261 242.182, 387.323 244.949 C 386.044 246.776, 382.877 248.017, 375.832 249.453 C 371.647 250.306, 362.226 259.512, 360.855 264.089 C 358.977 270.358, 361.117 277.970, 365.998 282.379 C 377.933 293.162, 398.057 283.536, 398.308 266.924 C 398.349 264.216, 398.707 262, 399.104 262 C 399.501 262, 404.928 256.712, 411.163 250.250 C 431.306 229.373, 430.233 230.220, 435.866 230.761 C 444.778 231.617, 452.604 227.282, 456.120 219.541 C 458.367 214.596, 458.477 210.824, 456.490 206.980 C 454.056 202.274, 449 200.306, 449 204.066 C 449 208.500, 443.052 216, 439.535 216 C 436.908 216, 433.676 213.767, 431.186 210.232 C 427.260 204.657, 427.449 203.582, 433.510 196.989 C 440.682 189.187, 440.514 187.579, 432.490 187.267 C 429.137 187.136, 425.171 187.623, 423.481 188.371 M 670.387 188.672 C 668.607 189.035, 668.174 190.062, 667.637 195.198 C 667.287 198.551, 667 204.602, 667 208.647 L 667 216 661.713 216 L 656.425 216 656.654 223.106 L 656.883 230.211 670.280 230.059 C 680.216 229.947, 683.958 230.244, 684.759 231.209 C 686.729 233.583, 687.146 237.422, 685.656 239.458 C 684.383 241.197, 683.283 241.370, 675.861 241.005 C 671.262 240.778, 665.025 240.572, 662 240.546 L 656.500 240.500 656.203 245.603 L 655.906 250.705 662.100 251.353 C 665.506 251.709, 670.968 252, 674.236 252 C 679.177 252, 680.496 252.380, 682.056 254.250 C 683.089 255.488, 683.948 257.749, 683.967 259.275 C 684.013 263.139, 681.119 264, 668.074 264 L 657.279 264 656.669 269.144 C 656.334 271.973, 656.298 274.673, 656.589 275.144 C 656.880 275.615, 662.481 276, 669.036 276 C 680.561 276, 681.007 276.080, 682.550 278.435 C 683.427 279.775, 684 282.135, 683.823 283.681 C 683.424 287.156, 681.291 287.717, 667.857 287.882 C 656.803 288.017, 657 287.850, 657 297.104 L 657 303.045 669.071 302.773 C 680.042 302.525, 681.273 302.677, 682.571 304.441 C 684.491 307.050, 684.379 311.440, 682.349 313.128 C 681.250 314.041, 676.817 314.667, 669.099 315 L 657.500 315.500 657.206 322.183 L 656.912 328.866 667.925 328.285 C 680.612 327.615, 682 328.179, 682 334.006 C 682 338.540, 681.060 338.922, 669.500 339.086 C 659.411 339.229, 656.585 339.995, 656.193 342.694 C 655.648 346.446, 659.443 348, 669.151 348 C 678.520 348, 680.422 348.851, 681.606 353.568 C 683.047 359.306, 679.727 361, 667.042 361 C 657.288 361, 657 361.193, 657 367.732 L 657 371.301 667.050 370.642 C 678.414 369.897, 680.520 370.537, 681.507 375.033 C 682.669 380.322, 681.162 381, 668.248 381 L 656.742 381 657.442 387.186 C 658.253 394.361, 659.728 397.586, 664.724 403.116 C 669.374 408.263, 673.678 410, 681.784 410 C 689.618 410, 695.184 407.235, 699.274 401.313 C 705.033 392.975, 704.740 397.574, 705.511 303.250 L 706.225 216 700.256 216 L 694.287 216 693.394 202.250 L 692.500 188.500 682.500 188.370 C 677 188.298, 671.549 188.434, 670.387 188.672 M 728.303 193.197 C 725.170 194.711, 723.926 198.919, 725.504 202.671 C 727.530 207.490, 732.827 208.497, 737.365 204.927 C 744.563 199.266, 736.729 189.126, 728.303 193.197 M 204.614 203.366 C 200.253 211.700, 199.795 213.176, 200.344 217.102 C 200.682 219.521, 201.006 233.650, 201.063 248.500 C 201.120 263.350, 201.394 278.200, 201.671 281.500 L 202.175 287.500 210.587 287.177 L 219 286.853 219.054 257.677 C 219.084 241.629, 219.500 224.900, 219.980 220.500 C 220.851 212.511, 220.848 212.493, 217.548 207.449 C 215.730 204.670, 213.279 200.508, 212.101 198.199 C 210.923 195.889, 209.856 194.007, 209.730 194.015 C 209.603 194.023, 207.301 198.231, 204.614 203.366 M 786.861 195.911 L 784.500 197.822 784.224 250.411 L 783.948 303 791.332 303 L 798.715 303 799.358 296.853 C 799.711 293.473, 800 269.692, 800 244.008 C 800 200.038, 799.893 197.213, 798.171 195.655 C 795.699 193.418, 789.775 193.552, 786.861 195.911 M 313.250 209.031 C 312.012 209.529, 311 210.559, 311 211.322 C 311 212.862, 319.756 232, 320.461 232 C 321.555 232, 326 229.613, 326 229.026 C 326 228.295, 316.008 207.964, 315.698 208.063 C 315.589 208.098, 314.488 208.534, 313.250 209.031 M 300.667 214.667 C 299.280 216.054, 300.101 220.395, 303 227 C 304.650 230.759, 306 234.521, 306 235.359 C 306 237.674, 307.203 237.955, 310.747 236.464 L 313.975 235.107 311.964 230.417 C 309.579 224.853, 303.008 214, 302.025 214 C 301.644 214, 301.033 214.300, 300.667 214.667 M 287.030 220.464 C 285.695 222.073, 287.171 227.670, 291.589 237.750 C 294.032 243.324, 295.220 243.935, 298.777 241.443 C 301.490 239.543, 301.608 237.046, 299.133 233.885 C 298.107 232.573, 295.850 228.688, 294.119 225.250 C 290.939 218.936, 289.246 217.793, 287.030 220.464 M 727 226 C 724.669 228.331, 724.390 233.611, 726.454 236.335 C 727.219 237.344, 729.608 238.406, 731.763 238.695 C 735.165 239.151, 735.966 238.859, 737.841 236.475 C 742.270 230.845, 739.340 224, 732.500 224 C 730.333 224, 728.238 224.762, 727 226 M 727.073 254.635 C 724.190 258.299, 724.268 264.374, 727.223 266.443 C 732.910 270.427, 741 266.479, 741 259.720 C 741 252.530, 731.466 249.049, 727.073 254.635 M 374.455 264.455 C 369.709 269.200, 372.242 276, 378.756 276 C 382.090 276, 386 272.222, 386 269.002 C 386 266.680, 381.200 262, 378.818 262 C 377.768 262, 375.805 263.105, 374.455 264.455 M 729.285 282.484 C 721.306 285.933, 725.399 298.389, 733.898 296.523 C 739.180 295.362, 741.710 288.199, 738.250 284.198 C 735.818 281.385, 733.052 280.856, 729.285 282.484 M 180.374 296.729 C 174.759 297.726, 171.074 307.411, 174.386 312.466 C 175.290 313.846, 177.748 315.851, 179.849 316.923 C 182.865 318.462, 184.241 320.145, 186.383 324.919 C 189.907 332.770, 189.460 335.116, 181.476 350.686 C 173.794 365.668, 173.099 369.264, 172.815 395.500 L 172.599 415.500 176.918 423.764 C 191.969 452.560, 226.012 454.186, 239.844 426.770 C 244.611 417.322, 245.306 411.477, 244.576 387 L 243.934 365.500 236.967 351.185 C 231.061 339.050, 230 336.075, 230 331.647 C 230 324.270, 233.359 317.863, 238 316.387 C 241.937 315.136, 246 310.013, 246 306.302 C 246 302.661, 243.238 298.085, 240.732 297.575 C 237.873 296.994, 183.198 296.227, 180.374 296.729 M 769.526 312.877 C 760.201 313.459, 759.466 313.663, 758.235 316 C 756.480 319.331, 757.064 330.796, 759.052 332.053 C 759.848 332.557, 762.380 332.976, 764.679 332.985 C 767.095 332.994, 769.509 333.651, 770.402 334.545 C 772.969 337.112, 774.254 343.304, 773.855 351.191 C 773.499 358.242, 773.151 359.202, 767.654 368.288 C 758.503 383.414, 758.709 382.132, 758.773 423.385 L 758.829 459.270 762.404 466.504 C 769.156 480.165, 778.970 487.083, 792.643 487.822 C 798.795 488.154, 800.644 487.823, 805.957 485.439 C 812.940 482.305, 817.083 478.020, 822.135 468.704 L 825.500 462.500 825.814 424 C 826.026 397.970, 825.770 384.286, 825.024 381.751 C 824.417 379.689, 821.162 373.920, 817.791 368.930 C 811.826 360.103, 811.649 359.650, 811.215 352.146 C 810.969 347.904, 811.290 341.922, 811.927 338.852 L 813.086 333.271 818.685 332.693 C 821.765 332.375, 824.719 331.681, 825.250 331.150 C 826.819 329.581, 827.662 323.785, 826.922 319.652 C 825.683 312.735, 825.660 312.729, 801.316 312.478 C 789.317 312.355, 775.012 312.535, 769.526 312.877 M 727.896 319.104 C 726.285 320.715, 725.938 321.939, 726.415 324.323 C 727.165 328.074, 727.706 328.663, 731.200 329.525 C 733.304 330.044, 734.462 329.629, 736.450 327.641 C 739.541 324.550, 739.630 323.070, 736.927 319.635 C 734.406 316.429, 730.784 316.216, 727.896 319.104 M 577.407 327.564 C 575.211 331.669, 568.140 336.737, 563.606 337.456 C 561.898 337.727, 558.700 337.847, 556.500 337.724 L 552.500 337.500 551.963 346.500 C 551.346 356.859, 550.348 359.211, 545.788 361.056 C 541.813 362.664, 541.035 363.672, 541.015 367.237 C 541.004 369.319, 541.899 370.546, 544.750 372.358 C 551.641 376.736, 552.532 378.385, 552.231 386.200 L 551.963 393.182 555.961 392.507 C 563.484 391.236, 573.303 396.188, 577.158 403.197 C 579.037 406.613, 580.151 407.562, 582.564 407.799 C 585.124 408.050, 585.988 407.505, 588.051 404.336 C 592.061 398.177, 597.947 394.702, 605.245 394.185 C 608.685 393.941, 611.842 393.238, 612.261 392.621 C 612.679 392.004, 612.757 389.843, 612.434 387.817 C 611.620 382.709, 614.851 375.654, 619.182 373.086 C 624.262 370.074, 625 369.164, 625 365.914 C 625 363.581, 624.303 362.525, 621.890 361.203 C 614.785 357.311, 614.539 356.879, 614 347.342 L 613.500 338.500 606.982 337.939 C 598.107 337.174, 590.252 332.946, 588.072 327.760 C 586.672 324.430, 586.107 324.019, 582.907 324.010 C 579.808 324.001, 579.053 324.490, 577.407 327.564 M 571.946 345.849 C 565.815 349.777, 564.439 351.600, 562.476 358.396 C 560.412 365.543, 560.892 370.520, 564.397 378.287 C 566.680 383.348, 567.604 384.333, 571.754 386.135 C 578.636 389.122, 584.326 388.917, 591.500 385.422 C 596.865 382.809, 597.816 381.867, 600.487 376.518 C 604.279 368.926, 604.397 360.382, 600.811 353.156 C 596.062 343.588, 581.304 339.852, 571.946 345.849 M 205.039 348.189 C 202.562 350.847, 202.774 346.996, 202.954 386 C 203.089 415.542, 203.267 418.728, 204.900 421 C 205.889 422.375, 207.918 423.645, 209.409 423.822 C 215.050 424.493, 215 424.817, 214.996 387.128 C 214.993 354.371, 214.885 352.324, 213.011 349.250 C 210.686 345.437, 207.943 345.072, 205.039 348.189 M 406.500 348.573 C 401.767 351.034, 398.921 354.107, 396.377 359.500 C 392.395 367.945, 393.954 376.779, 400.586 383.343 C 405.597 388.302, 408.557 389.283, 417.039 388.792 C 426.660 388.235, 430.304 386.217, 434.212 379.286 C 440.074 368.890, 437.458 358.146, 427.151 350.285 C 423.274 347.328, 422.178 347.001, 416.172 347.006 C 412.086 347.010, 408.337 347.617, 406.500 348.573 M 729.183 352.056 C 727.408 352.768, 726.940 353.630, 727.183 355.743 C 727.466 358.201, 727.951 358.533, 731.656 358.803 C 735.031 359.049, 736.108 358.684, 737.386 356.859 C 738.822 354.810, 738.816 354.454, 737.325 352.806 C 735.551 350.847, 732.825 350.596, 729.183 352.056 M 229.412 364.750 C 227.849 367.115, 227.494 370.719, 226.877 390.500 C 226.213 411.794, 226.295 413.685, 227.974 416 C 229.915 418.675, 233.449 418.980, 235.758 416.670 C 236.675 415.753, 237.202 408.502, 237.668 390.368 L 238.312 365.332 235.933 363.666 C 232.659 361.373, 231.520 361.562, 229.412 364.750 M 182.895 364.627 C 181.495 366.313, 179.642 398.078, 180.221 410.466 C 180.467 415.731, 180.810 416.606, 183.135 417.907 C 185.496 419.228, 186.041 419.203, 188.385 417.667 L 191 415.954 191 391.411 C 191 376.406, 190.598 366.117, 189.965 364.934 C 188.703 362.576, 184.739 362.404, 182.895 364.627 M 303.315 371.464 C 299.648 373.058, 297 377.498, 297 382.050 C 297 386.870, 302.565 392, 307.794 392 C 319.007 392, 322.129 376.738, 311.989 371.494 C 308.487 369.683, 307.416 369.680, 303.315 371.464 M 789.273 379.704 C 787.671 382.147, 787.472 385.952, 787.215 419.108 L 786.930 455.807 789.294 458.555 C 791.100 460.655, 792.228 461.158, 794.079 460.689 C 798.896 459.466, 799.003 458.557, 799.124 417.828 C 799.230 382.064, 799.123 379.563, 797.428 378.323 C 794.496 376.179, 791.220 376.734, 789.273 379.704 M 765.825 386.693 C 764.951 387.687, 763.985 389.400, 763.679 390.500 C 763.372 391.600, 762.981 406.374, 762.811 423.331 C 762.514 452.885, 762.581 454.221, 764.442 455.581 C 767.153 457.563, 771.374 457.349, 773.385 455.127 C 774.918 453.433, 775.052 450.147, 774.790 420.676 C 774.612 400.673, 774.114 387.720, 773.500 387.120 C 771.389 385.055, 767.456 384.837, 765.825 386.693 M 813.405 388.104 C 811.632 390.063, 811.479 392.376, 811.194 421.565 C 810.986 442.869, 811.237 453.575, 811.979 454.961 C 813.227 457.292, 817.685 457.718, 820.240 455.750 C 821.668 454.650, 821.898 450.564, 822.152 421.771 C 822.430 390.200, 822.371 388.990, 820.470 387.553 C 817.729 385.481, 815.632 385.644, 813.405 388.104 M 502.500 388.167 C 495.034 392.296, 493.932 397.665, 499.368 403.429 C 502.045 406.267, 503.492 407, 506.418 407 C 512.800 407, 518.266 403.047, 519.935 397.225 C 520.557 395.057, 520.414 393.608, 519.440 392.218 C 516.392 387.866, 507.073 385.638, 502.500 388.167 M 373.922 439.925 L 282.344 440.500 278.671 443.302 C 273.327 447.378, 271.999 450.645, 272.006 459.700 C 272.013 469.623, 273.216 473.875, 277.059 477.557 L 280.131 480.500 500.816 480.701 C 717 480.899, 721.582 480.863, 725.522 478.973 C 731.632 476.040, 733 472.889, 733 461.744 C 733 450.895, 731.686 448.027, 724.277 442.712 L 720.055 439.682 592.777 439.516 C 522.775 439.425, 424.290 439.609, 373.922 439.925 M 210.770 481.685 C 209.819 481.935, 207.415 485.428, 205.428 489.448 L 201.816 496.758 202.158 516.629 C 202.556 539.754, 203.216 541.988, 211.500 548.258 C 218.137 553.281, 225.509 555.479, 230.876 554.033 C 236.017 552.649, 245.300 545.087, 247.101 540.816 C 248.150 538.330, 248.500 532.241, 248.500 516.479 L 248.500 495.458 245.189 488.733 C 241.779 481.805, 239.926 480.449, 234.852 481.167 C 232.559 481.492, 232.484 481.826, 231.864 494.500 C 231.514 501.650, 231.177 508.175, 231.115 509 C 231.027 510.164, 229.906 510.424, 226.108 510.161 C 221.560 509.845, 221.171 509.607, 220.607 506.786 C 220.273 505.116, 220 498.631, 220 492.375 L 220 481 216.250 481.116 C 214.188 481.180, 211.722 481.436, 210.770 481.685 M 138 505.484 L 138 516.219 149.250 515.498 C 155.438 515.101, 160.554 514.715, 160.620 514.639 C 160.686 514.562, 160.967 510.337, 161.245 505.250 L 161.749 496 152.999 496 C 148.187 496, 142.844 495.719, 141.125 495.375 L 138 494.750 138 505.484 M 844 505.500 L 844 515 855 515 L 866 515 866 505.500 L 866 496 855 496 L 844 496 844 505.500 M 344 498.748 L 321.500 499.036 321.500 615.018 L 321.500 731 345.683 731 L 369.866 731 369.945 622.250 C 369.989 562.438, 370.309 510.012, 370.656 505.750 C 371.286 498.022, 371.281 498.001, 368.894 498.230 C 367.577 498.357, 356.375 498.590, 344 498.748 M 428.250 498.763 L 395 499.027 395.002 520.263 L 395.003 541.500 502.252 541.574 L 609.500 541.649 609.192 520.600 C 609.023 509.023, 608.784 499.450, 608.661 499.327 C 608.275 498.941, 463.075 498.488, 428.250 498.763 M 635 614.500 L 635 730 647.750 730.005 C 654.763 730.007, 665.563 730.301, 671.750 730.657 L 683 731.306 683 615.153 L 683 499 659 499 L 635 499 635 614.500 M 468.044 508.671 C 465.195 512.293, 465.374 517.465, 468.455 520.545 L 470.909 523 501.553 523 C 528.013 523, 532.675 522.774, 535.690 521.343 C 542.938 517.904, 543.682 508.654, 536.795 507.606 C 534.983 507.331, 519.232 506.873, 501.794 506.589 L 470.088 506.073 468.044 508.671 M 221.077 522.589 C 217.197 525.854, 216.959 530.050, 220.455 533.545 C 223.137 536.228, 225.937 536.636, 229.316 534.837 C 234.531 532.059, 235.541 526.450, 231.545 522.455 C 228.388 519.297, 224.937 519.341, 221.077 522.589 M 706.664 520.734 C 706.017 521.782, 705.550 580.883, 706.184 581.517 C 706.421 581.754, 726.614 582.147, 751.057 582.391 C 775.501 582.634, 805.737 583.167, 818.250 583.576 L 841 584.318 841 554.241 C 841 537.698, 841.230 523.564, 841.510 522.832 C 841.931 521.733, 831.026 521.451, 779.260 521.218 C 744.742 521.064, 714.411 520.691, 711.858 520.389 C 709.305 520.088, 706.968 520.243, 706.664 520.734 M 796.470 532.250 C 796.075 535.138, 795.356 538.545, 794.873 539.822 L 793.995 542.145 776.247 541.447 C 766.486 541.063, 757.839 540.394, 757.031 539.962 C 756.223 539.529, 754.873 536.998, 754.031 534.338 C 752.558 529.684, 752.345 529.489, 748.414 529.200 C 743.057 528.808, 741.692 530.539, 741.640 537.795 C 741.590 544.630, 743.554 548.795, 748.668 552.698 L 752.339 555.500 774.445 555.802 C 796.170 556.098, 796.611 556.063, 800.002 553.778 C 806.285 549.543, 809.926 541.291, 808.515 534.482 C 806.840 526.406, 807.352 527, 802.075 527 L 797.188 527 796.470 532.250 M 179.147 540.814 C 177.486 542.912, 175.564 545.864, 174.875 547.374 C 173.661 550.040, 173.843 550.322, 181.062 556.960 L 188.500 563.798 186.738 566.649 C 181.430 575.235, 175.424 587.056, 173.172 593.347 C 169.468 603.698, 168.940 620.388, 171.946 632.117 C 174.614 642.526, 181.166 656.040, 186.021 661.143 C 189.230 664.517, 190.261 665, 194.242 665 C 198.200 665, 199.197 664.539, 201.896 661.465 C 203.603 659.521, 205 656.954, 205 655.761 C 205 654.568, 203.013 649.507, 200.584 644.515 C 192.399 627.690, 191.123 616.780, 195.537 601.362 C 199.129 588.812, 207.133 577.433, 217.009 570.836 L 219.500 569.172 212.500 562 C 208.650 558.055, 202.350 552.428, 198.500 549.494 C 194.650 546.561, 189.949 542.550, 188.054 540.581 C 186.158 538.611, 184.059 537, 183.388 537 C 182.717 537, 180.809 538.716, 179.147 540.814 M 262.414 541.772 C 259.617 544.372, 252.192 551.198, 245.914 556.940 C 239.636 562.681, 234.384 567.641, 234.243 567.960 C 234.102 568.279, 237.252 572.136, 241.243 576.530 C 254.206 590.800, 258.841 600.325, 259.722 614.500 C 260.323 624.190, 258.567 631.727, 252.928 643.653 C 248.233 653.581, 248.010 656.870, 251.750 661.019 C 258.305 668.290, 266.480 665.342, 273.776 653.076 C 280.428 641.892, 283.281 632.434, 283.785 619.887 C 284.481 602.586, 280.754 591.077, 268.527 572.766 L 263.008 564.500 270.029 558 C 273.891 554.425, 277.039 550.897, 277.025 550.159 C 276.997 548.672, 269.064 536.987, 268.105 537.022 C 267.772 537.033, 265.211 539.171, 262.414 541.772 M 408.057 574.605 C 403.967 578.047, 400.337 584.387, 398.906 590.589 C 397.934 594.798, 398.023 596.567, 399.454 601.490 C 400.838 606.252, 402.252 608.433, 406.902 612.984 L 412.642 618.600 412.540 650.295 L 412.437 681.989 409.275 684.745 C 398.540 694.099, 398.093 705.672, 408.070 715.952 C 415.375 723.480, 423.036 725.683, 430.728 722.469 C 436.565 720.030, 440.806 716.267, 444.006 710.687 C 449.105 701.797, 447.590 694.050, 438.796 684.039 C 436.039 680.902, 435.040 678.974, 435.427 677.539 C 435.729 676.418, 436.275 662.225, 436.639 646 L 437.301 616.500 441.062 613.248 C 445.476 609.431, 450 600.935, 450 596.463 C 450 587.971, 444.212 577.169, 437.949 573.974 L 434.275 572.099 433.637 578.196 C 433.287 581.550, 433 587.083, 433 590.492 C 433 598.712, 431.441 600.222, 423.387 599.803 C 415.853 599.412, 415.035 597.948, 415.015 584.832 C 414.994 571.009, 414.024 569.584, 408.057 574.605 M 486.385 574.227 C 482.291 577.386, 481.212 578.808, 478.313 584.868 C 476.137 589.417, 475.822 591.193, 476.248 596.505 C 476.826 603.701, 480.821 612.068, 485.239 615.335 L 488 617.376 488 650.794 L 488 684.211 485.348 687.356 C 479.158 694.697, 478.192 703.763, 482.825 711.054 C 486.388 716.662, 491.821 721.456, 496.282 722.928 C 503.462 725.298, 513.887 720.778, 519.081 713.046 C 524.257 705.338, 523.788 698.274, 517.514 689.449 L 514 684.506 514 651.045 L 514 617.583 519.069 612.748 C 521.857 610.089, 524.782 606.372, 525.569 604.489 C 528.853 596.630, 525.980 583.213, 519.752 577.319 C 516.783 574.508, 512.936 572, 511.595 572 C 511.299 572, 511.157 577.346, 511.279 583.881 C 511.551 598.499, 510.729 600, 502.456 600 C 494.269 600, 493.208 598.563, 492.484 586.500 C 491.536 570.678, 491.382 570.369, 486.385 574.227 M 560.673 575.940 C 555.826 581.306, 553.930 585.280, 553.298 591.402 C 552.617 597.998, 555.512 605.141, 561.062 610.560 L 565 614.406 565 650.466 L 565 686.527 561.313 692.002 C 558.308 696.463, 557.638 698.349, 557.696 702.183 C 557.878 714.220, 569.802 726.023, 579.358 723.625 C 580.662 723.298, 583.928 721.561, 586.615 719.765 C 592.158 716.061, 597 707.912, 597 702.289 C 597 698.156, 594.634 692.304, 591.702 689.183 C 589.501 686.840, 589.500 686.822, 589.836 649.669 L 590.172 612.500 593.029 609.500 C 601.837 600.253, 602.164 584.293, 593.709 576.267 C 586.473 569.398, 584.326 571.314, 585.479 583.614 C 586.158 590.869, 586.122 591.032, 583.162 593.992 C 579.348 597.806, 575.279 597.947, 571.077 594.411 C 568.022 591.841, 568 591.751, 568 581.911 C 568 572.871, 567.835 572, 566.116 572 C 565.080 572, 562.631 573.773, 560.673 575.940 M 743.500 603.137 C 738.550 603.683, 728.087 603.940, 720.250 603.710 L 706 603.291 705.994 625.396 C 705.991 637.553, 705.700 651.195, 705.349 655.711 L 704.710 663.921 765.605 664.118 C 799.097 664.226, 829.875 664.356, 834 664.407 L 841.500 664.500 841.764 634.407 L 842.029 604.314 804.764 603.667 C 784.269 603.311, 764.125 602.823, 760 602.583 C 755.875 602.342, 748.450 602.592, 743.500 603.137 M 745.500 610.700 C 742.425 611.420, 741 613.961, 741 618.723 C 741 626.242, 745.096 633.419, 751.200 636.595 C 755.102 638.625, 794.912 638.620, 798.800 636.589 C 802.425 634.695, 806.633 630.134, 807.936 626.685 C 809.275 623.142, 809.309 615.943, 808.004 612.510 C 807.097 610.124, 806.586 609.917, 802.294 610.195 C 797.115 610.530, 797.582 609.767, 795.584 621.163 L 794.942 624.826 777.221 624.272 C 767.474 623.968, 758.529 623.359, 757.343 622.919 C 756.104 622.460, 754.919 620.906, 754.559 619.270 C 753.697 615.345, 750.298 609.975, 748.765 610.116 C 748.069 610.180, 746.600 610.443, 745.500 610.700 M 727.750 683.749 L 706 684.039 706 715.020 L 706 746 758.250 746.250 C 786.987 746.388, 817.475 746.405, 826 746.289 L 841.500 746.077 841.764 715.201 L 842.028 684.324 807.351 683.662 C 788.278 683.298, 767.459 683.103, 761.087 683.229 C 754.714 683.356, 739.712 683.589, 727.750 683.749 M 802 686.099 C 802 686.669, 801.153 686.866, 800.118 686.538 C 797.824 685.809, 797.264 687.078, 796.028 695.808 C 795.520 699.392, 794.519 702.856, 793.803 703.507 C 792.847 704.374, 787.576 704.531, 774.031 704.095 L 755.562 703.500 753.472 696.529 C 751.550 690.116, 751.128 689.506, 748.206 688.908 C 744.113 688.071, 743.215 689.213, 741.844 696.997 C 740.374 705.339, 741.701 709.548, 747.480 714.875 L 751.955 719 774.746 719 C 797.317 719, 797.571 718.976, 801.161 716.537 C 806.441 712.949, 809.343 706.362, 808.803 699.194 C 808.342 693.079, 805.735 686.496, 803.423 685.609 C 802.640 685.308, 802 685.529, 802 686.099 M 418.728 696.073 C 413.910 700.044, 413.699 703.727, 418.077 707.411 C 422.451 711.092, 427.057 710.910, 430.411 706.923 C 433.963 702.702, 433.798 698.849, 429.923 695.589 C 425.906 692.209, 423.278 692.322, 418.728 696.073 M 495.923 695.923 C 492.097 699.749, 491.992 704.161, 495.646 707.548 C 499.477 711.099, 504.104 710.853, 507.411 706.923 C 510.857 702.828, 510.675 700.475, 506.600 696.400 C 502.433 692.233, 499.734 692.112, 495.923 695.923 M 572.535 696.104 C 568.562 699.592, 568.274 700.963, 570.665 705.010 C 573.784 710.290, 579.020 710.665, 582.393 705.849 C 584.942 702.210, 584.414 698.526, 580.923 695.589 C 579.231 694.165, 577.447 693, 576.958 693 C 576.469 693, 574.479 694.397, 572.535 696.104 M 190.582 696.506 C 188.050 699.238, 187.028 703.609, 187.011 711.781 C 187.004 715.137, 187.456 717.207, 188.250 717.458 C 188.938 717.675, 192.988 718.043, 197.250 718.276 L 205 718.700 205 713.332 L 205 707.964 229.250 708.232 L 253.500 708.500 253.806 713.287 L 254.113 718.074 263.306 717.787 L 272.500 717.500 272.428 710.500 C 272.321 700.043, 271.401 696.504, 268.436 695.153 C 266.673 694.350, 254.837 694, 229.405 694 L 192.905 694 190.582 696.506 M 194.500 729.136 C 182.400 729.630, 170.588 729.810, 168.250 729.536 L 164 729.038 164.014 734.769 C 164.021 737.921, 164.269 741.400, 164.565 742.500 C 165.096 744.472, 165.968 744.501, 227.802 744.543 C 262.286 744.567, 291.703 744.905, 293.174 745.293 L 295.848 746 296.174 738.077 L 296.500 730.154 286.500 729.602 C 266.765 728.512, 216.085 728.256, 194.500 729.136 M 321.258 798.270 C 321.391 823.330, 321.875 844.209, 322.334 844.667 C 322.792 845.125, 344.842 845.428, 371.334 845.340 C 417.646 845.186, 445.117 844.084, 456.253 841.934 C 486.496 836.094, 517.863 835.805, 546.500 841.104 C 555.911 842.845, 564.001 843.263, 602.500 843.995 C 627.250 844.466, 655.487 844.885, 665.250 844.926 L 683 845 683 799.500 L 683 754 510.250 753.994 C 415.238 753.991, 333.791 753.699, 329.258 753.346 L 321.016 752.705 321.258 798.270 M 186.772 757.960 L 165.044 758.500 164.772 791.500 C 164.513 822.966, 164.593 824.658, 166.500 827.900 C 170.159 834.122, 171.989 834.389, 214.500 834.920 C 269.883 835.611, 280.685 835.489, 288.750 834.083 L 296 832.819 296 795.910 C 296 775.609, 296.113 758.705, 296.250 758.344 C 296.564 757.520, 215.866 757.237, 186.772 757.960 M 709.872 769.661 C 707.574 770.053, 707.173 770.700, 706.689 774.805 C 706.384 777.387, 706.081 791.875, 706.017 807 L 705.900 834.500 745.200 834.286 C 766.815 834.169, 796.446 833.585, 811.048 832.990 C 825.649 832.395, 838.343 832.194, 839.256 832.545 C 840.454 833.004, 841.087 832.502, 841.529 830.741 C 842.436 827.128, 841.639 771.303, 840.667 770.332 C 839.819 769.484, 714.667 768.843, 709.872 769.661 M 205.316 774.250 C 201.660 778.113, 199.685 781.682, 200.487 782.979 C 200.806 783.495, 203.639 784.863, 206.783 786.020 C 214.669 788.921, 220 793.832, 220 798.197 C 220 800.508, 215.028 803, 210.418 803 C 206.874 803, 200 806.289, 200 807.985 C 200 808.437, 201.937 810.946, 204.304 813.561 C 209.765 819.592, 211.330 819.306, 220.899 810.524 C 226.022 805.822, 228.443 804.226, 229.729 804.699 C 230.703 805.059, 234.200 807.668, 237.500 810.498 C 244.362 816.384, 249.395 820, 250.724 820 C 252.571 820, 260 812.788, 260 810.995 C 260 808.389, 255.761 805.363, 249.605 803.574 C 243.573 801.820, 241 799.467, 241 795.706 C 241 792.422, 245.847 786.760, 251.490 783.453 C 253.809 782.094, 256.442 780.169, 257.341 779.176 C 258.872 777.484, 258.758 777.158, 255.560 774.058 C 251.002 769.640, 249.322 770.185, 238.917 779.448 C 234.288 783.570, 230.247 786.955, 229.939 786.971 C 229.630 786.987, 225.157 783.400, 220 779 C 214.843 774.600, 210.121 771, 209.508 771 C 208.894 771, 207.008 772.462, 205.316 774.250 M 797.607 778.582 C 797.273 779.452, 796.997 780.914, 796.994 781.832 C 796.991 782.749, 796.520 785.188, 795.947 787.250 L 794.906 791 775.976 791 C 754.573 791, 755.605 791.392, 752.928 782.250 C 751.745 778.209, 751.495 778, 747.865 778 C 742.755 778, 740.918 780.831, 740.804 788.879 C 740.731 793.997, 741.137 795.491, 743.411 798.472 C 747.836 804.274, 749.532 804.698, 771.500 805.491 C 794.777 806.331, 798.189 805.761, 804.363 800.003 C 808.436 796.203, 808.500 796.037, 808.500 789.278 C 808.500 780.522, 806.516 777, 801.584 777 C 799.433 777, 797.994 777.572, 797.607 778.582 M 444.948 792.899 C 441.208 796.638, 440.932 801.648, 444.292 804.805 C 446.567 806.942, 447.017 806.963, 501.762 807.505 C 548.442 807.968, 557.470 807.830, 560.389 806.611 C 566.603 804.014, 567.674 798.906, 563.083 793.766 L 560.165 790.500 504.030 790.226 L 447.895 789.951 444.948 792.899 M 154.250 847.748 L 139 848.052 139 864.657 L 139 881.262 142.750 880.642 C 144.813 880.301, 152.463 880.017, 159.750 880.011 L 173 880 173 863.500 C 173 848.368, 172.855 847.018, 171.250 847.222 C 170.287 847.344, 162.637 847.581, 154.250 847.748 M 832.143 863.498 L 832.500 879.997 847.668 879.998 C 856.011 879.999, 863.548 880.273, 864.418 880.607 C 865.823 881.146, 866 879.295, 866 864.107 L 866 847 848.893 847 L 831.786 847 832.143 863.498 M 493.212 859.848 C 492.269 860.446, 492.001 863.322, 492.212 870.583 L 492.500 880.500 502.500 880.141 C 508 879.943, 512.556 879.718, 512.625 879.641 C 512.694 879.563, 512.963 874.888, 513.223 869.250 L 513.696 859 504.098 859.015 C 498.819 859.024, 493.920 859.398, 493.212 859.848" stroke="none" fill="#000000" fill-rule="evenodd"/>
</svg>