<svg xmlns="http://www.w3.org/2000/svg" width="1024" height="1024" viewBox="0 0 1024 1024" version="1.1">
	<path d="M 755.500 257.729 C 742.727 259.557, 688.188 275.487, 624.500 295.991 C 619.550 297.585, 608.962 300.912, 600.972 303.385 C 592.981 305.858, 585.120 308.384, 583.502 308.999 L 580.560 310.118 587.530 314.156 C 598.336 320.417, 621.275 336.591, 625.999 341.280 C 631.109 346.353, 634.508 353.300, 636.709 363.172 C 638.100 369.413, 638.354 378.285, 638.421 423 C 638.478 460.743, 638.164 476.757, 637.306 479.973 C 636.650 482.433, 636.224 484.557, 636.360 484.693 C 636.786 485.119, 651.702 479.530, 673 470.963 C 684.275 466.427, 700.038 460.150, 708.028 457.012 C 725.167 450.283, 726.623 449.572, 730.323 446.128 L 733.146 443.500 755.323 443.500 L 777.500 443.500 786.500 439.683 C 797.011 435.225, 835.169 419.954, 849.215 414.585 C 857.586 411.386, 859.569 410.161, 863.552 405.731 C 866.094 402.904, 869.372 398.320, 870.837 395.545 L 873.500 390.500 873.500 343 C 873.500 297.778, 873.406 295.310, 871.533 291.533 C 867.151 282.696, 861.964 279.300, 840.834 271.438 C 811.795 260.633, 775.712 254.836, 755.500 257.729 M 823.500 315.707 C 821.850 315.932, 813.975 317.436, 806 319.050 C 798.025 320.665, 786.644 322.611, 780.708 323.376 C 773.128 324.352, 769.314 325.311, 767.894 326.596 C 764.524 329.645, 756.897 340.881, 755.879 344.295 C 754.851 347.743, 752.504 392.202, 752.502 408.288 C 752.500 418.666, 753.214 420.304, 757.500 419.756 C 759.344 419.520, 759.479 418.852, 759.230 411.210 L 758.961 402.920 763.230 400.986 C 765.579 399.923, 780.775 394.699, 797 389.378 C 813.225 384.057, 827.288 379.025, 828.250 378.197 C 829.693 376.954, 830 374.986, 830 366.967 C 830 359.545, 830.355 356.950, 831.500 356 C 833.360 354.456, 833.497 344.443, 831.855 330.002 C 831.006 322.538, 831.001 319.294, 831.834 317.466 C 832.907 315.111, 832.812 315.007, 829.729 315.150 C 827.953 315.232, 825.150 315.483, 823.500 315.707 M 538.500 323.688 C 525.850 327.800, 507.265 333.846, 497.199 337.122 C 487.133 340.399, 476.912 343.450, 474.485 343.904 C 471.808 344.404, 464.455 344.208, 455.786 343.405 C 431.186 341.127, 431.780 340.751, 445.775 349.750 C 452.403 354.012, 463.051 360.806, 469.436 364.847 C 475.822 368.888, 482.198 373.705, 483.607 375.551 C 489.048 382.685, 490.949 391.618, 494.603 427.223 C 495.185 432.897, 495.220 432.950, 498.845 433.525 C 513.648 435.875, 525.518 441.616, 534.866 450.948 C 548.551 464.609, 554.980 480.453, 554.994 500.551 L 555 508.601 559.399 510.739 L 563.798 512.876 589.138 503.645 L 614.477 494.414 617.828 487.479 C 619.671 483.665, 621.586 478.060, 622.084 475.022 C 623.381 467.105, 623.243 375.904, 621.919 366.322 C 620.366 355.078, 618.916 352.700, 609.310 345.642 C 599.252 338.252, 563.924 315.957, 562.506 316.105 C 561.953 316.163, 551.150 319.575, 538.500 323.688 M 365 327.895 C 356.669 330.099, 349.370 333.915, 345.226 338.233 C 343.273 340.269, 339.139 347.801, 334.976 356.911 C 331.139 365.307, 328.001 372.249, 328.001 372.338 C 328.002 372.427, 331.489 372.480, 335.751 372.455 L 343.500 372.409 346.712 365.787 C 350.426 358.129, 356.340 351.455, 360.289 350.463 C 363.902 349.557, 382.598 358.678, 393.067 366.454 C 397.155 369.490, 404.100 373.854, 408.500 376.150 C 418.233 381.231, 436.032 392.563, 437.750 394.774 C 438.438 395.658, 439 397.591, 439 399.069 C 439 402.944, 436.476 404.511, 430.871 404.115 C 429.976 404.052, 422.789 399.711, 414.901 394.469 C 407.013 389.227, 399.951 385.065, 399.207 385.219 C 398.462 385.374, 397.045 387.893, 396.058 390.817 C 394.033 396.812, 388.645 403.030, 385.554 402.940 C 384.329 402.905, 381.683 400.685, 379 397.443 C 376.525 394.452, 373.038 391.119, 371.250 390.036 C 369.462 388.953, 368 387.644, 368 387.127 C 368 385.872, 371.736 386.913, 375.767 389.290 C 378.347 390.812, 379.336 390.966, 380.471 390.024 C 382.453 388.380, 387 380.471, 387 378.670 C 387 376.777, 363.615 361.735, 361.350 362.171 C 360.397 362.355, 357.924 365.816, 355.757 370 C 352.098 377.064, 351.932 377.762, 352.911 382 C 353.483 384.475, 353.962 389.447, 353.976 393.050 C 353.996 398.426, 353.536 400.315, 351.412 403.591 C 344.636 414.041, 331.027 417.343, 320.451 411.104 L 316.862 408.986 304.079 420.814 C 297.048 427.319, 283.997 438.460, 275.077 445.571 L 258.857 458.500 262.776 462.001 C 264.932 463.926, 270.026 467.354, 274.098 469.618 C 278.169 471.882, 287.522 477.394, 294.881 481.867 C 302.241 486.340, 309.287 490, 310.538 490 C 313.330 490, 327.932 481.402, 349.353 467.145 C 358.234 461.234, 369.212 454.240, 373.750 451.604 C 378.288 448.967, 382.008 446.515, 382.019 446.155 C 382.029 445.795, 382.181 442.081, 382.355 437.903 C 383.040 421.536, 391.308 414, 408.581 414 C 414.123 414, 415.343 414.380, 419.172 417.296 C 424.424 421.295, 426.048 424.439, 426.726 431.920 C 427.859 444.406, 423.504 454.190, 414.868 458.567 C 408.546 461.771, 402.744 462.090, 397.099 459.545 C 392.003 457.247, 395.340 455.590, 367.764 474.107 C 356.619 481.591, 341.539 491.231, 334.254 495.530 L 321.007 503.345 321.167 534.802 L 321.326 566.259 327.413 565.686 C 330.761 565.372, 340.250 563.493, 348.500 561.513 C 356.750 559.532, 369.800 556.535, 377.500 554.853 C 385.200 553.170, 392.512 551.562, 393.750 551.280 C 396.364 550.684, 396.309 551.041, 394.934 543.601 C 393.620 536.491, 395.041 520.590, 398.041 508.839 C 403.592 487.100, 420.989 464.084, 443.011 449.346 C 452.846 442.764, 469.099 435.144, 476.750 433.528 C 479.970 432.847, 480 432.788, 480 426.960 C 480 419.422, 478.236 401.960, 476.823 395.500 C 475.208 388.119, 472.427 383.301, 468.230 380.610 C 466.179 379.295, 453.250 371.127, 439.500 362.461 C 425.750 353.794, 408.425 342.742, 401 337.902 C 393.575 333.061, 385.827 328.403, 383.782 327.550 C 379.094 325.595, 373.293 325.702, 365 327.895 M 795 330.119 C 779.047 331.434, 770.451 334.356, 769.324 338.845 C 768.390 342.567, 769.791 354.032, 771.498 356.638 C 773.530 359.739, 776.627 359.634, 779.326 356.373 C 786.268 347.986, 788.678 347.214, 803.294 348.695 C 818.645 350.250, 818.769 350.176, 819.235 339.286 C 819.426 334.796, 819.084 332.673, 818 331.633 C 816.210 329.914, 805.793 329.228, 795 330.119 M 724.241 353.475 C 722.449 354.265, 708.499 359.229, 693.241 364.506 C 668.954 372.906, 665.095 374.529, 662.250 377.536 C 658.446 381.556, 658.132 384.278, 661.223 386.443 C 664.378 388.654, 668.590 388.342, 675.500 385.386 C 678.800 383.975, 691.971 379.081, 704.770 374.512 C 729.620 365.640, 732.459 364.281, 734.219 360.418 C 735.156 358.361, 735.005 357.482, 733.323 355.221 C 730.912 351.979, 728.632 351.541, 724.241 353.475 M 712 387.075 C 703.475 390.328, 689.530 395.315, 681.010 398.158 C 664.918 403.527, 660 406.515, 660 410.923 C 660 413.303, 663.306 417, 665.434 417 C 667.078 417, 708.419 402.845, 720.690 398.081 C 729.618 394.614, 735.479 389.526, 734.317 386.251 C 733.331 383.469, 730.830 380.993, 729.095 381.080 C 728.218 381.124, 720.525 383.821, 712 387.075 M 328 383.709 C 324.077 385.152, 323 387.255, 323 393.471 C 323 399.587, 323.028 399.648, 326.886 401.816 C 329.024 403.017, 331.888 404, 333.251 404 C 339.497 404, 344.571 394.939, 341.573 389.140 C 339.486 385.105, 332.168 382.177, 328 383.709 M 714 415.581 C 706.575 418.524, 692.625 423.490, 683 426.617 C 664.176 432.732, 660.369 434.684, 659.351 438.738 C 658.834 440.796, 659.265 441.832, 661.404 443.671 C 662.893 444.952, 665.334 446, 666.828 446 C 668.322 446, 678.985 442.657, 690.522 438.571 C 732.909 423.559, 735 422.540, 735 416.898 C 735 414.144, 730.978 409.871, 728.615 410.115 C 728.002 410.178, 721.425 412.638, 714 415.581 M 397.913 427.282 C 395.205 429.361, 394 432.665, 394 438.011 C 394 442.341, 394.454 443.608, 396.872 446.026 C 404.502 453.655, 412.203 449.522, 413.686 437.002 C 414.218 432.514, 414.014 431.860, 411.210 429.056 C 408.727 426.573, 407.342 426.006, 403.827 426.032 C 401.447 426.049, 398.786 426.612, 397.913 427.282 M 477.067 449.539 C 469.051 451.772, 454.461 459.260, 446.634 465.159 C 433.458 475.088, 419.484 494.412, 414.931 509 C 411.011 521.556, 409.598 533.291, 410.891 542.535 C 413.736 562.874, 420.488 573.590, 434.625 580.205 C 446.450 585.739, 460.035 586.171, 471.975 581.393 C 476.954 579.401, 476.765 579.101, 465.622 571.304 C 447.294 558.479, 443.452 552.676, 443.567 538 C 443.740 515.905, 456.565 495.364, 475.976 486.093 C 482.569 482.945, 484.614 482.459, 492.500 482.166 C 503.264 481.766, 508.838 483.507, 519.532 490.607 C 523.365 493.151, 529.313 496.975, 532.750 499.106 L 539 502.978 538.976 495.739 C 538.945 486.600, 537.687 481.143, 533.784 473.214 C 529.721 464.959, 520.960 456.835, 511.024 452.106 C 504.062 448.794, 502.716 448.508, 493 448.276 C 485.980 448.109, 480.699 448.528, 477.067 449.539 M 246.588 479.250 C 246.819 486.538, 247.277 501.727, 247.605 513.004 L 248.202 533.507 260.851 540.675 C 275.823 549.159, 301.547 562.510, 304.780 563.474 L 307.060 564.154 306.667 534 C 306.355 509.978, 305.993 503.577, 304.887 502.520 C 304.124 501.791, 299.408 498.940, 294.406 496.185 C 285.100 491.059, 265.149 478.138, 261.426 474.826 C 258.951 472.625, 248.095 466, 246.963 466 C 246.525 466, 246.357 471.962, 246.588 479.250 M 489.500 495.953 C 480.238 498.263, 472.149 505.020, 465.539 515.970 C 458.979 526.838, 456.001 543.242, 459.399 549.800 C 460.636 552.186, 467.779 558.663, 493.500 580.722 C 497.350 584.024, 505.217 591.102, 510.982 596.451 C 525.051 609.504, 547.606 625.742, 570.500 639.298 C 577.673 643.545, 597.301 654.045, 597.515 653.750 C 597.614 653.612, 598.206 650.877, 598.830 647.671 C 601.601 633.436, 612.608 615.309, 623.453 607.119 C 630.011 602.166, 640.400 595.988, 643.615 595.128 C 646.004 594.489, 645.593 593.971, 636.323 585.949 C 625.168 576.295, 612.206 565.998, 600.500 557.491 C 596.100 554.294, 586.650 547.301, 579.500 541.951 C 572.350 536.602, 562.385 529.587, 557.356 526.362 C 552.327 523.138, 542.652 516.914, 535.856 512.531 C 529.060 508.149, 519.323 502.411, 514.218 499.781 C 505.912 495.503, 504.283 495.011, 498.718 495.102 C 495.298 495.159, 491.150 495.541, 489.500 495.953 M 224.294 500.423 C 214.237 505.248, 204.113 512.287, 193 522.184 C 183.167 530.941, 168 546.704, 168 548.166 C 168 548.625, 169.463 549.002, 171.250 549.004 C 173.037 549.006, 181.025 550.370, 189 552.034 C 196.975 553.699, 207.100 555.760, 211.500 556.615 C 228.861 559.989, 252.856 570.822, 254.510 576.032 C 255.350 578.678, 255.050 578.968, 250.329 580.065 C 247.078 580.820, 244.763 580.361, 235 577.024 C 228.675 574.863, 218.325 571.529, 212 569.616 C 205.675 567.702, 199.774 565.857, 198.887 565.514 C 197.572 565.006, 196.556 567.073, 193.387 576.696 C 189.997 586.991, 189.507 589.651, 189.554 597.500 C 189.619 608.420, 192.284 618.631, 198.077 630.153 C 205.990 645.891, 226.861 664.050, 248.442 673.973 C 261.960 680.189, 280.198 685.621, 297.500 688.586 C 311.295 690.949, 316.325 691.333, 334 691.366 C 351.931 691.400, 379.057 689.656, 381.261 688.327 C 382.780 687.412, 379.105 683.849, 368.907 676.349 C 349.443 662.036, 344 656.254, 344 649.893 C 344 646.524, 345.968 643, 347.850 643 C 348.239 643, 351.457 645.925, 355 649.500 L 361.442 656 368.301 656 L 375.160 656 381.166 662.006 C 384.470 665.310, 390.621 670.782, 394.836 674.166 C 399.051 677.551, 404.779 682.513, 407.565 685.193 L 412.630 690.066 414.565 687.896 C 415.629 686.702, 421.450 683.384, 427.500 680.522 C 441.686 673.813, 461.308 661.391, 470 653.617 C 484.466 640.680, 492.594 628.700, 497.079 613.704 L 499.112 606.908 491.396 599.558 L 483.680 592.208 479.090 594.193 C 471.750 597.368, 460.181 600, 453.570 600 C 450.209 600, 444.171 599.089, 440.151 597.975 C 424.850 593.734, 413.349 585.722, 406 574.183 C 402.087 568.039, 401.109 567.112, 398.500 567.074 C 393.643 567.004, 392.967 567.929, 394.153 573.025 C 395.748 579.877, 394.619 595.866, 392.207 600.594 C 387.235 610.340, 372.859 619.838, 356.942 623.894 C 332.125 630.218, 310.326 628.112, 289.991 617.426 C 276.334 610.250, 271.492 603.466, 270.413 590 C 269.882 583.380, 270.242 579.725, 272.680 566.961 C 273.115 564.683, 272.413 564.005, 265.832 560.347 C 247.380 550.092, 239.467 545.269, 236.358 542.382 C 233.209 539.458, 232.992 538.835, 232.874 532.382 C 232.805 528.597, 232.468 519.080, 232.124 511.233 L 231.500 496.966 224.294 500.423 M 164.243 572.087 C 164.535 579.285, 165.223 585.623, 165.772 586.172 C 166.952 587.352, 171.672 585.183, 174.083 582.352 C 174.951 581.334, 176.485 578.250, 177.493 575.500 C 178.500 572.750, 180.376 569.108, 181.662 567.406 C 185.628 562.157, 185.568 562.103, 173.566 560.027 C 162.830 558.169, 163.637 557.126, 164.243 572.087 M 286.577 570.756 C 285.294 572.040, 286.012 591.123, 287.449 593.901 C 292.951 604.542, 310.221 611, 333.171 611 C 350.514 611, 365.107 606.629, 373.454 598.936 C 378.835 593.975, 379.987 590.509, 379.994 579.250 C 380.001 569.824, 380.426 570.130, 370.500 572.404 C 367.200 573.159, 362.475 574.065, 360 574.416 L 355.500 575.054 355.469 580.277 C 355.418 589.001, 354.642 590.475, 348.763 593.023 C 338.721 597.375, 323.752 596.485, 312.771 590.883 C 309.045 588.982, 304.613 583.435, 305.576 581.877 C 305.836 581.457, 303.900 579.906, 301.274 578.431 C 298.648 576.956, 294.397 574.496, 291.827 572.964 C 289.257 571.432, 286.895 570.439, 286.577 570.756 M 324 579.378 L 317.500 580.511 325.085 582.302 C 338.239 585.408, 344 584.669, 344 579.878 C 344 578.214, 343.230 578.014, 337.250 578.122 C 333.538 578.189, 327.575 578.754, 324 579.378 M 172.576 599.938 C 170.995 604.580, 171.583 629.986, 173.431 636.920 C 180.125 662.030, 203.030 684.357, 239.690 701.508 C 253.312 707.881, 285.003 717.159, 303.500 720.189 C 315.567 722.166, 366.335 721.807, 379.954 719.649 C 385.704 718.737, 390.713 717.656, 391.085 717.246 C 392.210 716.006, 393.076 702.600, 392.125 701.135 C 391.383 699.991, 389.883 700.054, 382.870 701.522 C 364.308 705.408, 359.859 705.999, 344.500 706.623 C 321.336 707.565, 304.708 705.879, 282.666 700.356 C 272.857 697.898, 261.323 694.594, 257.036 693.013 C 246.322 689.063, 230.183 680.842, 220 674.147 C 210.193 667.699, 193.143 651.148, 187.644 642.737 C 180.972 632.533, 175.661 617.289, 174.147 604 C 173.546 598.722, 173.250 597.958, 172.576 599.938 M 659 601.888 C 643.354 606.952, 630.911 616.854, 620.424 632.586 C 601.068 661.622, 605.306 693.358, 629.853 703.197 C 634.653 705.121, 637.375 705.463, 648 705.480 C 660.042 705.499, 660.751 705.381, 667.347 702.257 C 678.538 696.957, 683.075 692.907, 693.033 679.326 C 713.366 651.596, 714.231 621.495, 695.093 607.607 C 684.905 600.214, 670.986 598.008, 659 601.888 M 506.105 618.250 C 505.077 620.587, 503.335 624.829, 502.235 627.675 C 499.037 635.952, 491.288 647.528, 483.171 656.156 C 469.783 670.387, 451.312 681.828, 424.500 692.494 C 417.900 695.120, 411.938 697.713, 411.250 698.256 C 410.376 698.948, 409.993 702.890, 409.976 711.372 C 409.962 718.043, 409.496 725.472, 408.941 727.882 C 408.385 730.292, 408.078 732.411, 408.257 732.591 C 408.437 732.770, 414.640 730.895, 422.042 728.423 C 448.581 719.561, 466.129 709.036, 481.461 692.785 C 492.400 681.190, 496.365 675.706, 503.835 661.840 L 509.039 652.180 509.678 633.090 C 510.363 612.593, 509.737 609.991, 506.105 618.250 M 661.680 625.967 C 651.013 629.376, 642.928 636.406, 637.841 646.696 C 628.313 665.972, 638.031 686.049, 655.716 683.626 C 672.877 681.273, 688 662.373, 688 643.279 C 688 634.701, 684.150 628.632, 676.746 625.538 C 672.041 623.572, 668.894 623.662, 661.680 625.967 M 657.500 637.864 C 651.704 641.298, 647.642 647.177, 645.995 654.515 C 642.260 671.150, 654.854 676.561, 666.898 663.495 C 672.399 657.527, 676 650.069, 676 644.644 C 676 638.391, 673.668 635.853, 667.436 635.322 C 663.310 634.971, 661.680 635.388, 657.500 637.864" stroke="none" fill="#000000" fill-rule="evenodd"/>
</svg>