<svg xmlns="http://www.w3.org/2000/svg" width="1024" height="1024" viewBox="0 0 1024 1024" version="1.1">
	<path d="M 319.112 238.560 C 301.586 243.340, 288.922 256.891, 285.060 275 C 284.183 279.109, 283.964 319.701, 284.193 435.521 L 284.500 590.543 287.824 597.294 C 295.521 612.928, 310.675 623.619, 326.699 624.717 C 338.976 625.558, 349.226 622.576, 359.038 615.307 C 361.901 613.187, 365.075 609.728, 366.202 607.500 C 367.315 605.300, 368.992 602.600, 369.929 601.500 C 370.866 600.400, 372.914 596.233, 374.480 592.239 L 377.327 584.978 376.797 506.239 C 376.506 462.933, 376.558 394.425, 376.911 354 C 377.404 297.719, 377.267 279.031, 376.325 274.230 C 373.724 260.962, 363.914 248.528, 351.738 243.065 C 340.504 238.025, 327.605 236.244, 319.112 238.560 M 679.715 238.135 C 673.018 239.128, 662.967 244.067, 657.626 248.991 C 651.717 254.437, 647.593 260.990, 644.341 270.102 L 641.700 277.500 641.577 422.500 C 641.509 502.250, 641.732 572.900, 642.071 579.500 C 642.865 594.919, 645.216 600.387, 655.420 610.552 C 669.224 624.301, 684.847 628.005, 704.016 622.073 C 712.220 619.534, 722.558 611.260, 726.223 604.301 C 727.613 601.660, 730.162 596.838, 731.887 593.585 L 735.024 587.670 734.762 429.585 L 734.500 271.500 731.285 264.712 C 725.353 252.189, 712.839 241.808, 700.500 239.176 C 693.593 237.703, 685.401 237.292, 679.715 238.135 M 772.781 303.877 C 765.005 307.018, 760.413 311.379, 756.523 319.317 L 753.004 326.500 752.900 429.516 C 752.794 535.375, 752.845 536.923, 756.661 544.310 C 758.957 548.753, 765.025 554.972, 769.085 557.043 C 774.108 559.606, 783.277 560.950, 788.196 559.845 C 793.429 558.669, 800.965 554.776, 803.674 551.849 C 804.870 550.557, 807.543 546.575, 809.615 543 L 813.382 536.500 813.563 435.500 C 813.662 379.950, 813.780 332.775, 813.826 330.666 C 813.941 325.353, 810.657 317.128, 806.466 312.232 C 798.959 303.461, 783.378 299.597, 772.781 303.877 M 222.315 305.485 C 216.168 308.602, 210.577 314.484, 207.682 320.878 C 205.597 325.483, 205.590 325.897, 205.748 432.198 C 205.906 538.747, 205.909 538.902, 208.024 543.048 C 211.506 549.872, 217.590 555.703, 223.560 557.937 C 231.858 561.041, 242.453 560.826, 249.127 557.417 C 253.460 555.205, 260.969 546.843, 263.540 541.368 L 265.951 536.236 266.027 431.072 L 266.104 325.907 263.712 320.704 C 258.184 308.678, 250.669 303.857, 236.500 303.245 C 228.338 302.892, 227.017 303.101, 222.315 305.485 M 162.372 372.788 C 155.362 375.279, 152.680 377.198, 148.082 383.015 C 142.123 390.554, 141.803 393.339, 142.175 434.500 C 142.492 469.638, 142.554 470.601, 144.757 474.723 C 152.988 490.127, 172.482 495.415, 184.500 485.504 C 187.456 483.067, 187.504 482.871, 187.772 472.265 C 187.922 466.344, 187.697 442.619, 187.272 419.541 L 186.500 377.583 182 374.835 C 175.959 371.146, 169.027 370.423, 162.372 372.788 M 836.525 374.773 C 833.788 376.273, 831.038 378.529, 830.414 379.787 C 829.594 381.439, 829.409 395.725, 829.749 431.287 L 830.219 480.500 834.341 484.774 C 836.915 487.443, 839.972 489.456, 842.482 490.134 C 852.404 492.816, 865.509 487.982, 868.529 480.526 C 870.051 476.768, 870.736 475.364, 874.884 467.500 C 876.244 464.922, 876.469 459.295, 876.483 427.500 L 876.500 390.500 873.651 385.743 C 870.083 379.786, 864.185 374.672, 859.142 373.161 C 857.011 372.522, 852.170 372.011, 848.384 372.023 C 842.800 372.042, 840.561 372.561, 836.525 374.773 M 393 432.077 C 393 452.295, 392.754 469.478, 392.453 470.262 C 391.667 472.311, 469.495 473.322, 557.268 472.403 L 625.500 471.689 625.817 439.094 C 625.991 421.167, 625.831 403.883, 625.461 400.684 L 624.788 394.867 508.894 395.092 L 393 395.317 393 432.077" stroke="none" fill="#000000" fill-rule="evenodd"/>
</svg>