<svg xmlns="http://www.w3.org/2000/svg" width="1024" height="1024" viewBox="0 0 1024 1024" version="1.1">
	<path d="M 242 110.053 C 164.292 110.655, 166.935 110.460, 155 116.468 C 141.285 123.372, 131.069 134.958, 125.706 149.692 L 122.500 158.500 122.243 505.486 C 122.075 731.676, 122.331 854.391, 122.978 857.986 C 123.523 861.019, 125.990 867.600, 128.460 872.612 C 131.999 879.794, 134.335 883.019, 139.487 887.839 C 146.396 894.302, 158.341 900.784, 167.233 902.896 C 173.700 904.432, 872.626 904.474, 878.500 902.939 C 884.660 901.329, 893.176 897.876, 896.500 895.641 C 908.384 887.650, 918.188 876.701, 923.488 865.500 C 926.047 860.092, 926.394 858.069, 927.010 845 C 927.385 837.025, 927.648 680.650, 927.593 497.500 L 927.494 164.500 924.279 155 C 917.080 133.730, 901.507 117.806, 882.260 112.037 C 875.550 110.026, 873.441 110.010, 594.500 109.756 C 439.950 109.615, 281.325 109.749, 242 110.053 M 189.330 153.957 C 181.089 155.927, 172.513 162.377, 168.662 169.500 L 166.500 173.500 166.243 506.366 C 166.071 727.763, 166.323 840.486, 166.994 842.976 C 168.409 848.231, 174.981 855.315, 180.739 857.793 C 183.388 858.932, 188.467 860.359, 192.027 860.964 C 196.669 861.753, 292.265 861.984, 530 861.782 L 861.500 861.500 866.176 859.339 C 872.438 856.445, 879.352 849.909, 881.911 844.465 L 884 840.022 883.990 508.261 L 883.980 176.500 881.642 171.500 C 878.606 165.009, 871.840 158.876, 864.419 155.885 L 858.500 153.500 525.500 153.349 C 342.350 153.267, 191.073 153.540, 189.330 153.957 M 266.500 193.340 C 249.575 198.943, 236.455 216.149, 232.446 238 C 230.637 247.861, 230.666 253.454, 232.578 262.792 C 235.720 278.143, 244.711 290.662, 256.727 296.413 C 259.902 297.933, 263.175 299.521, 264 299.942 C 265.654 300.786, 266.706 311.032, 266.894 328.131 C 266.983 336.216, 266.585 338.864, 264.416 344.628 C 262.488 349.748, 261.596 354.673, 260.906 363.997 C 260.397 370.874, 259.531 381.900, 258.982 388.500 C 257.323 408.436, 257.899 412.537, 263.203 418.578 C 267.341 423.292, 270.936 425.001, 276.700 424.996 C 285.020 424.990, 292.204 418.583, 293.866 409.687 C 294.814 404.614, 293.824 385.056, 291.427 361.500 C 290.223 349.669, 289.396 345.525, 287.510 341.883 C 285.150 337.325, 285.128 337.016, 285.810 317.964 L 286.500 298.662 291 297.187 C 297.004 295.219, 309.727 282.465, 313.866 274.266 C 320.997 260.139, 322.443 241.909, 317.576 227.500 C 312.607 212.789, 302.491 200.403, 291.238 195.251 C 284.447 192.142, 272.829 191.245, 266.500 193.340 M 719.932 195.318 C 716.764 196.993, 714.870 198.956, 713.098 202.399 L 710.646 207.162 710.832 241.831 C 710.935 260.899, 711.302 280.489, 711.647 285.365 C 712.225 293.505, 712.513 294.441, 715.170 296.809 C 718.051 299.376, 718.063 299.432, 717.782 309.747 L 717.500 320.107 711.500 322.528 C 703.639 325.699, 697.104 332.442, 694.076 340.504 C 691.836 346.465, 691.827 346.713, 692.549 382.854 C 693.258 418.369, 693.326 419.267, 695.479 421.771 C 698.500 425.282, 703.228 425.228, 706.811 421.641 L 709.500 418.948 709.531 384.361 L 709.562 349.773 711.892 347.887 C 714.672 345.635, 716.930 345.497, 719.559 347.418 C 721.402 348.764, 721.525 350.667, 722 385.006 L 722.500 421.176 725.306 423.588 C 728.453 426.294, 729.797 426.505, 733.405 424.861 C 738.683 422.457, 739 420.127, 739 383.790 C 739 349.143, 739.117 348.105, 743.186 346.696 C 744.116 346.374, 745.962 346.969, 747.302 348.023 L 749.732 349.935 750.417 383.217 C 750.827 403.162, 751.538 417.621, 752.191 419.297 C 753.386 422.363, 758.344 425.486, 760.279 424.392 C 760.951 424.013, 762.513 422.791, 763.750 421.677 L 766 419.651 766 381.485 L 766 343.319 762.964 337.243 C 759.413 330.139, 753.674 324.585, 747.028 321.823 L 742.293 319.855 741.692 309.234 C 741.192 300.416, 741.380 298.008, 742.795 295.056 C 744.316 291.884, 744.500 287.077, 744.500 250.500 C 744.500 206.361, 744.356 204.953, 739.211 198.839 C 734.128 192.798, 727.118 191.518, 719.932 195.318 M 806.009 194.855 C 804.107 195.876, 801.189 198.393, 799.525 200.450 L 796.500 204.190 796.500 250.180 C 796.500 288.563, 796.733 296.362, 797.912 297.335 C 798.854 298.112, 804.113 298.470, 813.723 298.411 C 827.144 298.327, 828.272 298.172, 830.312 296.131 L 832.500 293.941 832.185 251.220 L 831.871 208.500 829.185 203 C 827.218 198.971, 825.430 196.903, 822.500 195.266 C 817.533 192.493, 810.731 192.323, 806.009 194.855 M 506.044 199.689 C 501.274 200.336, 497.360 203.380, 496 207.501 C 494.013 213.521, 497.391 219.288, 503.585 220.450 C 506.291 220.958, 506.979 221.548, 506.900 223.295 C 506.662 228.557, 505.739 229.488, 500.500 229.747 C 475.024 231.008, 445.491 237.216, 431.500 244.251 C 420.674 249.695, 408 261.510, 408 266.159 C 408 268, 410.776 268.046, 517.500 267.974 C 607.017 267.913, 627 267.660, 627 266.590 C 627 261.742, 606.760 246.666, 591.756 240.338 C 579.486 235.163, 555.450 230.380, 537.332 229.507 C 528.166 229.066, 527.456 228.880, 526.850 226.767 C 525.523 222.143, 525.898 220, 528.032 220 C 532.144 220, 536.964 217.143, 538.583 213.747 C 540.027 210.721, 540.036 210.022, 538.677 206.770 C 536.153 200.729, 533.199 199.522, 520.545 199.361 C 514.470 199.283, 507.945 199.431, 506.044 199.689 M 722.455 211.455 C 719.221 214.688, 719.324 218.292, 722.740 221.460 C 726.048 224.527, 729.854 224.717, 732.811 221.961 C 735.847 219.133, 735.576 215.422, 732.077 211.923 C 728.509 208.356, 725.691 208.218, 722.455 211.455 M 808.455 211.455 C 805.231 214.678, 805.349 218.002, 808.805 221.313 C 812.421 224.778, 815.440 224.714, 819.058 221.096 C 821.686 218.468, 821.859 217.895, 820.878 215.080 C 818.741 208.950, 812.717 207.192, 808.455 211.455 M 252.828 224.284 C 246.918 229.761, 244.443 240.172, 246.036 252.858 C 248.329 271.128, 261.971 285.727, 274.803 283.645 C 278.824 282.992, 281.070 281.346, 280.382 279.554 C 280.108 278.839, 277.572 276.997, 274.747 275.459 C 268.047 271.812, 261.385 265.073, 258.671 259.196 C 256.912 255.388, 256.510 252.704, 256.548 245 C 256.588 236.791, 256.967 234.701, 259.340 229.626 C 260.849 226.395, 261.920 223.587, 261.719 223.386 C 261.519 223.185, 260.028 222.756, 258.408 222.432 C 256.149 221.980, 254.847 222.412, 252.828 224.284 M 724.672 270.601 C 721.327 273.946, 720.598 276.361, 722.073 279.212 C 725.361 285.565, 729.933 286.829, 733.992 282.508 C 737.433 278.845, 737.111 274.382, 733.151 270.844 C 729.225 267.335, 727.973 267.300, 724.672 270.601 M 811.907 270.799 C 809.196 272.153, 808.434 273.186, 808.178 275.859 C 807.754 280.298, 811.092 284, 815.519 284 C 823.370 284, 824.487 274.007, 817.079 270.042 C 815.848 269.383, 814.285 269.612, 811.907 270.799 M 409.576 289.375 C 409.259 290.956, 409 308.346, 409 328.020 C 409 360.827, 409.164 364.316, 410.975 370.145 C 414.852 382.619, 423.692 392.051, 434.781 395.543 C 439.529 397.038, 447.715 397.190, 516.037 397.056 C 598.054 396.895, 595.066 397.081, 604.525 391.538 C 610.614 387.970, 616.441 381.086, 619.017 374.419 C 621.113 368.992, 621.384 366.025, 622.271 338.748 C 622.804 322.384, 622.923 303.934, 622.537 297.748 L 621.834 286.500 515.993 286.500 L 410.152 286.500 409.576 289.375 M 366.500 291.861 C 360.665 295.465, 359.500 297.629, 359.502 304.858 C 359.504 310.261, 359.952 312.127, 361.901 314.863 C 365.832 320.381, 369.005 321.143, 383.198 319.984 C 389.958 319.432, 396.249 318.738, 397.179 318.443 C 398.586 317.997, 398.922 316.249, 399.185 308.002 C 399.556 296.349, 399.905 296.666, 387.779 297.654 C 380.182 298.273, 380.042 298.242, 379.092 295.742 C 377.944 292.722, 374.354 289.999, 371.527 290.004 C 370.412 290.006, 368.150 290.841, 366.500 291.861 M 653.104 292.896 C 651.947 294.053, 651 296.113, 651 297.473 L 651 299.946 641.473 299.321 C 633.212 298.778, 632.023 298.896, 632.527 300.209 C 632.846 301.041, 633.196 305.948, 633.304 311.111 L 633.500 320.500 645 321.133 C 658.940 321.900, 662.848 321.076, 666.841 316.528 C 672.786 309.758, 671.759 299.969, 664.526 294.452 C 659.826 290.867, 655.696 290.304, 653.104 292.896 M 798.331 312.832 C 797.661 313.270, 797.341 326.761, 797.404 352 C 797.457 373.175, 797.115 398.038, 796.644 407.250 L 795.787 424 798.198 424 C 801.617 424, 808.462 419.330, 815.846 411.961 C 821.180 406.637, 823.215 403.504, 828.609 392.311 C 837.862 373.113, 838.028 372.205, 838.097 340.661 C 838.129 325.900, 837.963 313.629, 837.727 313.393 C 836.993 312.660, 799.413 312.124, 798.331 312.832 M 271.635 396.073 C 268.190 398.782, 268.114 403.205, 271.455 406.545 C 274.604 409.695, 278.943 409.754, 281.826 406.686 C 284.710 403.615, 284.597 399.507, 281.545 396.455 C 278.546 393.455, 275.130 393.323, 271.635 396.073 M 483.250 409.662 C 482.563 409.940, 482 411.096, 482 412.231 C 482 414.265, 481.728 414.286, 463.250 413.675 C 452.938 413.333, 439.775 412.381, 434 411.559 C 420.523 409.639, 403.018 409.542, 398.718 411.362 C 393.541 413.553, 392.296 415.766, 391.758 423.742 C 391.280 430.811, 391.152 431.103, 386.384 436.001 C 377.753 444.868, 378 443.695, 378 475.734 L 378 504 519.500 504 L 661 504 661 474.950 C 661 441.789, 661.312 443.228, 652.339 435.027 C 646.730 429.901, 646.562 429.593, 645.912 423.314 C 645.147 415.922, 642.211 411.885, 636.146 409.883 C 631.717 408.421, 615.910 409.282, 603.500 411.660 C 596.962 412.913, 589.102 413.401, 574.770 413.443 C 555.139 413.500, 555.031 413.488, 553.385 411.140 C 551.895 409.012, 551.149 408.821, 545.827 409.206 C 537.442 409.813, 536.217 411.333, 535.384 422.160 L 534.719 430.814 531.707 431.256 C 530.050 431.499, 522.316 431.482, 514.520 431.217 L 500.346 430.736 500.261 422.935 C 500.157 413.304, 499.507 411.143, 496.349 409.943 C 493.771 408.963, 485.427 408.784, 483.250 409.662 M 457.077 417.857 C 456.485 418.963, 456 421.248, 456 422.934 C 456 425.245, 455.547 426, 454.159 426 C 450.539 426, 442.718 423.084, 440.335 420.845 C 438.224 418.862, 436.654 418.522, 428.205 418.216 C 422.867 418.023, 416.025 418.237, 413 418.692 L 407.500 419.520 407.203 425.164 L 406.906 430.808 410.703 431.352 C 416.109 432.126, 482.599 431.866, 483.895 431.065 C 484.932 430.424, 484.039 417.705, 482.874 416.541 C 482.607 416.273, 480.629 416.540, 478.479 417.133 C 474.564 418.214, 462.971 417.845, 459.827 416.540 C 458.698 416.071, 457.803 416.500, 457.077 417.857 M 610.996 418.008 C 602.561 418.661, 599.709 419.584, 595.115 423.149 C 591.595 425.881, 586.427 425.581, 584.426 422.527 C 582.510 419.603, 580.863 419.288, 563.750 418.574 L 551 418.042 551 424.387 L 551 430.732 585.555 431.194 C 604.560 431.448, 622.604 431.449, 625.653 431.196 L 631.197 430.736 630.513 425.118 C 630.137 422.028, 629.530 419.221, 629.165 418.880 C 627.947 417.743, 619.599 417.343, 610.996 418.008 M 417 449.592 C 409.034 453.037, 403 462.877, 403 472.423 C 403 482.247, 412.502 493.053, 422.451 494.545 C 431.035 495.832, 441.450 490.029, 444.884 482.047 C 448.648 473.297, 447.004 461.089, 441.195 454.660 C 435.923 448.825, 424.369 446.405, 417 449.592 M 481.044 449.577 C 471.532 453.704, 466.009 461.953, 466.032 472 C 466.053 481.775, 470.882 488.851, 480.404 493.061 C 486.061 495.563, 491.634 495.257, 497.753 492.110 C 511.009 485.292, 514.140 467.533, 504.145 455.857 C 498.007 448.686, 488.842 446.195, 481.044 449.577 M 541.442 450.920 C 530.443 457.229, 525.728 472.088, 531.250 483.038 C 533.711 487.918, 541.584 493.456, 547.689 494.602 C 556.102 496.180, 565.844 490.769, 570.250 482.071 C 580.505 461.824, 560.377 440.059, 541.442 450.920 M 604.900 449.991 C 596.990 454.172, 591.911 462.800, 591.866 472.132 C 591.819 482.095, 597.875 490.137, 607.943 493.481 C 612.282 494.922, 613.826 495.001, 618.015 493.996 C 635.414 489.823, 641.719 469, 629.722 455.336 C 623.414 448.152, 612.732 445.852, 604.900 449.991 M 207.248 457.639 C 206.009 457.914, 203.778 459.736, 202.289 461.687 C 199.676 465.113, 199.570 465.755, 199.179 480.367 L 198.774 495.500 277.987 495.618 L 357.200 495.736 356.709 476.720 L 356.218 457.704 282.859 457.421 C 242.512 457.266, 208.486 457.364, 207.248 457.639 M 682 476.536 L 682 496 766.750 496.001 L 851.500 496.003 851.171 481.779 C 850.789 465.300, 849.726 461.619, 844.750 459.540 C 842.050 458.412, 826.515 458.051, 761.714 457.612 L 682 457.071 682 476.536 M 418.373 465.731 C 416.410 467.850, 415.972 469.139, 416.419 471.481 C 417.174 475.436, 422.222 480, 425.841 480 C 432.559 480, 436.353 469.134, 431.116 464.893 C 427.509 461.972, 421.491 462.367, 418.373 465.731 M 481.455 465.455 C 480.096 466.813, 479 469.081, 479 470.531 C 479 473.715, 483.615 478.614, 487.542 479.600 C 489.882 480.187, 490.804 479.783, 493.170 477.135 C 496.561 473.341, 496.826 469.319, 493.927 465.635 C 491.087 462.024, 484.973 461.936, 481.455 465.455 M 547 463.709 C 543.656 464.939, 542 467.381, 542 471.082 C 542 475.386, 544.917 478.384, 550.243 479.553 C 552.950 480.148, 553.785 479.805, 556.196 477.107 C 559.560 473.341, 559.818 469.309, 556.927 465.635 C 554.886 463.040, 550.915 462.270, 547 463.709 M 607.107 465.386 C 603.645 469.071, 604.469 474.743, 608.898 477.718 C 613.559 480.849, 616.307 480.612, 619.510 476.805 C 621.668 474.242, 622.089 472.933, 621.642 470.181 C 620.818 465.106, 618.436 463, 613.519 463 C 610.417 463, 608.775 463.611, 607.107 465.386 M 268.333 517.949 C 230.841 518.252, 199.912 518.753, 199.603 519.063 C 198.524 520.144, 198.859 789.125, 199.941 790.429 C 200.505 791.108, 203.185 793.178, 205.897 795.029 C 211.892 799.120, 212.285 800.582, 211.394 815.500 L 210.736 826.500 283.802 826.500 L 356.867 826.500 356.684 810.500 C 356.583 801.700, 356.623 732.175, 356.773 656 L 357.045 517.500 346.773 517.449 C 341.123 517.421, 305.825 517.646, 268.333 517.949 M 839.757 517.576 C 839.440 517.893, 804.004 518.121, 761.010 518.082 L 682.840 518.010 683.098 672.516 L 683.356 827.022 685.428 826.312 C 686.568 825.922, 722.275 825.645, 764.779 825.697 L 842.057 825.792 841.377 811.395 L 840.697 796.999 846.189 791.240 L 851.682 785.482 851.734 651.241 L 851.786 517 846.060 517 C 842.910 517, 840.074 517.259, 839.757 517.576 M 379.003 641.301 L 379 758.102 520.250 757.921 L 661.500 757.740 661.500 641.486 L 661.500 525.232 607.500 524.512 C 577.800 524.117, 514.239 523.952, 466.253 524.147 L 379.006 524.500 379.003 641.301 M 239.758 543.006 C 234.174 548.591, 234.828 553.609, 241.734 558.163 C 244.271 559.836, 247.258 559.987, 277.800 559.993 C 313.916 560.001, 314.564 559.912, 318.912 554.385 C 321.426 551.189, 321.575 547.807, 319.352 544.414 C 315.995 539.291, 315.046 539.172, 277.977 539.211 L 243.517 539.248 239.758 543.006 M 728.418 539.969 C 725.143 541.294, 721 546.863, 721 549.942 C 721 553.509, 724.464 557.919, 728.418 559.386 C 730.624 560.204, 742.212 560.383, 769.171 560.015 L 806.843 559.500 809.406 557.090 C 812.808 553.892, 813.642 549.142, 811.522 545.043 C 808.500 539.200, 806.957 538.993, 766.782 539.063 C 746.827 539.098, 729.563 539.506, 728.418 539.969 M 420.411 545.055 C 414.481 546.279, 410 551.131, 410 556.328 C 410 559.308, 414.085 564.475, 418.069 566.536 C 421.538 568.329, 426.169 568.431, 427.849 566.750 C 428.825 565.774, 447.788 565.436, 514.299 565.209 C 594.001 564.937, 603.860 565.163, 618.274 567.589 C 621.277 568.095, 622.751 567.743, 625.485 565.870 C 632.279 561.215, 633.485 554.023, 628.336 548.874 L 625.271 545.810 531.959 545.790 C 480.637 545.780, 435.198 545.475, 430.984 545.113 C 426.770 544.751, 422.012 544.725, 420.411 545.055 M 436.318 586.036 C 432.357 587.263, 424.627 594.879, 421.768 600.370 C 419.651 604.438, 419.622 605.165, 419.871 649 C 420.010 673.475, 420.540 695.102, 421.049 697.059 C 422.500 702.641, 427.647 709.565, 432.806 712.876 C 443.055 719.452, 437.373 719.075, 521.775 718.774 L 598.500 718.500 603.134 715.776 C 605.683 714.277, 609.814 710.776, 612.314 707.996 C 620.172 699.255, 620.158 699.371, 619.807 648.820 C 619.463 599.115, 619.912 602.200, 611.717 593.309 C 604.102 585.048, 611.294 585.675, 520.500 585.345 C 469.229 585.158, 438.332 585.412, 436.318 586.036 M 438 648.772 L 438 693.544 441.073 697.272 L 444.146 701 520.022 701 L 595.898 701 598.449 697.656 L 601 694.311 601 649.763 C 601 610.063, 600.828 605.148, 599.418 604.607 C 598.548 604.273, 561.873 604, 517.918 604 L 438 604 438 648.772 M 315.094 612.305 C 313.220 612.962, 310.859 614.625, 309.846 616 C 308.119 618.344, 308.001 621.469, 307.963 666 L 307.922 713.500 311.446 716.750 C 316.419 721.335, 321.947 720.918, 326.228 715.633 C 327.811 713.679, 327.957 709.464, 327.978 665.396 L 328 617.292 325.548 614.646 C 324.199 613.191, 322.661 612, 322.130 612 C 321.598 612, 320.564 611.800, 319.832 611.555 C 319.099 611.310, 316.967 611.648, 315.094 612.305 M 719 613.709 C 718.175 614.013, 716.712 614.947, 715.750 615.785 C 714.130 617.197, 714 620.806, 714 664.520 C 714 710.881, 714.038 711.778, 716.088 714.385 C 718.809 717.844, 723.650 720.305, 726.385 719.618 C 727.579 719.319, 729.893 717.678, 731.528 715.973 L 734.500 712.872 734.827 682.686 C 735.006 666.084, 734.842 645.090, 734.461 636.034 L 733.768 619.568 730.484 616.284 C 727.250 613.050, 723.239 612.151, 719 613.709 M 379.364 802.261 L 379.500 826.500 520.894 826.243 L 662.288 825.986 661.651 819.243 C 661.301 815.534, 661.011 805.040, 661.007 795.921 L 661 779.343 520.892 779.164 C 443.833 779.065, 380.434 778.768, 380.006 778.504 C 379.578 778.239, 379.289 788.930, 379.364 802.261" stroke="none" fill="#000000" fill-rule="evenodd"/>
</svg>