<svg xmlns="http://www.w3.org/2000/svg" width="1024" height="1024" viewBox="0 0 1024 1024" version="1.1">
	<path d="M 272.564 192.079 C 267.708 193.272, 262.859 196.874, 260.100 201.338 C 258.036 204.677, 258.006 205.674, 257.667 281.110 C 257.410 338.463, 257.621 358.252, 258.513 360.516 C 261.429 367.911, 270.573 372.077, 280.333 370.456 C 287.681 369.235, 291.852 366.110, 295.622 359 C 297.323 355.792, 297.478 352.690, 297.489 321.806 L 297.500 288.111 309.752 287.806 L 322.004 287.500 321.992 298.500 C 321.986 304.550, 322.154 390.837, 322.367 490.250 L 322.754 671 308.627 671.014 C 300.857 671.021, 293.483 671.300, 292.239 671.633 C 289.296 672.422, 288.579 675.562, 290.210 680.518 L 291.520 684.500 304.344 684.500 L 317.167 684.500 320.083 681.234 C 322.552 678.470, 323.518 675.850, 323.163 672.884 C 323.021 671.698, 339.938 670.915, 351.169 671.587 L 362.500 672.264 362 615.295 L 361.500 558.326 373.500 558.652 C 380.100 558.832, 392.025 559.140, 400 559.336 L 414.500 559.693 414.313 546.096 L 414.125 532.500 399.313 532.422 C 391.166 532.379, 379.438 532.267, 373.250 532.172 L 362 532 362 410.250 L 362 288.500 511.250 288.259 L 660.500 288.018 660.500 409.861 L 660.500 531.704 636.227 532.397 C 622.877 532.778, 611.578 532.857, 611.119 532.574 C 610.660 532.290, 610.333 537.877, 610.392 544.988 L 610.500 557.918 615.500 558.522 C 618.250 558.854, 629.613 558.985, 640.751 558.813 L 661.002 558.500 661.001 614.346 L 661 670.192 650.750 669.981 C 633.722 669.630, 630.265 669.878, 628.571 671.571 C 626.436 673.707, 626.371 685.233, 628.484 686.987 C 630.157 688.375, 659.225 688.108, 660.642 686.691 C 661.081 686.252, 661.617 682.767, 661.833 678.946 L 662.226 672 681.469 672 L 700.713 672 702.358 678.669 C 703.263 682.336, 704.167 685.500, 704.366 685.699 C 705.191 686.524, 716.949 687.989, 722.795 687.994 C 728.151 687.999, 729.458 687.633, 731.545 685.545 C 733.548 683.543, 734 682.092, 734 677.668 C 734 669.705, 733.674 669.572, 716.073 670.334 L 701.224 670.977 700.566 666.593 C 700.205 664.182, 700.168 585.325, 700.486 491.355 C 700.803 397.385, 701.049 313.188, 701.031 304.250 L 701 288 713.487 288 L 725.974 288 725.737 296.750 C 725.607 301.563, 725.612 317.037, 725.750 331.137 L 726 356.774 729.250 361.565 C 734.301 369.012, 736.959 370.513, 744.941 370.427 C 753.634 370.334, 759.938 366.974, 763.179 360.707 C 765.353 356.504, 765.355 356.429, 765.497 281.500 C 765.576 240.217, 765.243 205.376, 764.756 204 C 763.540 200.558, 759.227 196.191, 754.790 193.908 C 744.205 188.464, 729.101 195.544, 725.880 207.460 C 725.235 209.845, 724.892 220.385, 725.018 233.960 C 725.132 246.357, 725.175 257.288, 725.113 258.250 C 725.012 259.813, 723.719 260, 713 260 L 701 260 701 238.743 C 701 227.052, 700.560 215.954, 700.023 214.080 C 698.511 208.809, 694.077 203.130, 689.277 200.317 C 683.363 196.851, 675.813 197.347, 669.763 201.599 C 661.869 207.147, 661.566 208.319, 661 235.500 L 660.500 259.500 511.250 259.753 L 362 260.007 361.978 237.253 C 361.958 216.884, 361.755 214.081, 360.033 210.500 C 357.519 205.272, 356.251 203.789, 351.594 200.628 C 342.971 194.777, 329.497 199.292, 324.406 209.738 C 322.759 213.118, 322.603 215.863, 322.873 236.750 L 323.173 260 310.645 260 L 298.118 260 297.809 232.662 L 297.500 205.324 294.570 201.099 C 289.338 193.553, 280.804 190.055, 272.564 192.079 M 786.637 218.465 C 781.967 220.130, 777.201 224.426, 775.504 228.500 C 774.539 230.818, 774.371 242.480, 774.766 279.808 C 775.264 326.889, 775.331 328.194, 777.389 331.216 C 784.096 341.065, 796.863 341.429, 805.370 332.012 C 810.203 326.662, 810.988 322.859, 810.994 304.750 L 811 289 821.750 288.985 C 828.279 288.976, 833.460 288.485, 834.945 287.733 C 840.463 284.941, 843.564 274.082, 840.611 267.896 C 837.823 262.053, 833.812 260.180, 823.500 259.907 C 818.550 259.776, 813.712 259.278, 812.750 258.799 C 811.218 258.038, 811 256.312, 811 244.925 C 811 233.991, 810.689 231.310, 809.044 228.086 C 806.577 223.251, 802.014 219.376, 797.219 218.044 C 792.501 216.734, 791.366 216.779, 786.637 218.465 M 223.502 219.575 C 214.794 224.116, 213.050 228.555, 213.022 246.250 L 213 260 203.250 260.002 C 192.365 260.003, 188.161 261.427, 184.571 266.327 C 181.829 270.069, 181.685 280.345, 184.319 284.364 C 186.866 288.251, 189.721 289, 202.002 289 L 212.873 289 212.897 306.831 C 212.912 317.370, 213.374 325.857, 214.027 327.581 C 216.464 334.013, 223.986 339, 231.248 339 C 236.500 339, 243.595 335.580, 246.441 331.677 C 248.447 328.926, 248.504 327.616, 248.639 280.677 C 248.787 229.061, 248.745 228.569, 243.702 223.169 C 242.491 221.871, 240.285 220.178, 238.800 219.405 C 235.215 217.540, 227.235 217.629, 223.502 219.575 M 674.507 313.293 C 670.170 317.630, 669.887 321.524, 673.589 325.923 C 677.118 330.117, 681.977 330.177, 686.077 326.077 C 691.476 320.678, 688.661 312.418, 680.757 310.465 C 678.483 309.903, 677.413 310.387, 674.507 313.293 M 338.117 312.631 C 336.836 313.528, 335.148 315.794, 334.365 317.668 C 333.114 320.663, 333.132 321.477, 334.519 324.399 C 336.898 329.412, 341.495 331.098, 346.528 328.805 C 352.314 326.169, 353.631 318.477, 349.077 313.923 C 345.740 310.586, 341.714 310.111, 338.117 312.631 M 505.500 318.911 C 479.984 319.484, 478.213 319.646, 473.273 321.872 C 464.080 326.013, 456.494 336.398, 454.062 348.172 C 453.207 352.312, 453.029 370.457, 453.402 415.377 C 453.888 473.885, 454.010 477.097, 455.865 480.705 C 459.892 488.535, 464.027 493.104, 469.310 495.564 C 473.898 497.700, 475.912 497.982, 486.665 497.990 L 498.829 498 499.568 505.750 C 499.974 510.012, 500.461 513.050, 500.651 512.500 C 500.868 511.870, 505.451 511.685, 513.037 512 C 522.253 512.383, 525.301 512.852, 526.024 514 C 526.661 515.011, 526.974 512.699, 526.985 506.902 L 527 498.304 537.598 497.656 C 553.624 496.675, 560.855 492.429, 567.004 480.388 L 569.500 475.500 569.500 410.950 L 569.500 346.399 565.734 338.778 C 559.536 326.235, 550.283 319.649, 537.500 318.683 C 534.750 318.476, 520.350 318.578, 505.500 318.911 M 673.438 358.492 C 671.272 361.332, 670.896 362.632, 671.424 365.449 C 672.772 372.631, 680.961 375.327, 686.195 370.313 C 690.065 366.606, 690.019 361.866, 686.077 357.923 C 681.782 353.629, 676.983 353.845, 673.438 358.492 M 336.687 358.805 C 331.151 364.583, 334.455 373, 342.259 373 C 350.773 373, 354.357 364.389, 348.151 358.844 C 344.016 355.149, 340.202 355.136, 336.687 358.805 M 675.870 400.888 C 671.950 403.971, 670.460 408.283, 672.016 412.040 C 674.704 418.527, 681.219 419.934, 686.077 415.077 C 688.201 412.953, 689 411.191, 689 408.633 C 689 401.458, 681.082 396.788, 675.870 400.888 M 336.763 402.344 C 333.425 405.438, 332.552 408.505, 334.010 412.025 C 337.890 421.391, 351 419.056, 351 409 C 351 401.126, 342.410 397.110, 336.763 402.344 M 675.077 446.589 C 672.529 448.733, 672 449.909, 672 453.434 C 672 458.002, 673.533 460.111, 678.120 461.855 C 683.031 463.723, 689 459.139, 689 453.500 C 689 450.074, 687.778 448.143, 684.027 445.646 C 680.611 443.371, 678.656 443.577, 675.077 446.589 M 337.973 446.692 C 334.526 449.051, 334.033 449.983, 334.015 454.177 C 333.996 458.748, 337.611 462, 342.712 462 C 347.018 462, 352 457.441, 352 453.500 C 352 449.875, 347.010 445, 343.299 445 C 341.730 445, 339.332 445.761, 337.973 446.692 M 463.900 517.137 C 445.608 517.993, 440.489 520.352, 433.212 531.279 C 430.011 536.086, 428.963 547.588, 431.233 553.005 C 433.348 558.055, 437.641 562.769, 442.376 565.242 C 447.216 567.770, 453.920 567.849, 493.650 565.851 C 512.768 564.890, 522.457 564.897, 540.150 565.884 C 575.245 567.843, 577.202 567.773, 582.778 564.376 C 588.567 560.849, 594 551.238, 594 544.526 C 594 537.185, 591.268 530.215, 586.535 525.482 C 581.539 520.486, 578.447 519.412, 564.500 517.824 C 553.542 516.577, 485.752 516.114, 463.900 517.137 M 495.315 627.008 L 495.956 678.016 471.724 677.355 C 445.133 676.630, 444.217 676.778, 437.661 682.864 C 432.982 687.207, 431.658 690.763, 431.651 699 C 431.645 706.651, 432.603 709.692, 436.299 713.750 L 438.349 716 512.222 716 L 586.095 716 588.549 713.353 C 589.898 711.897, 591.503 708.859, 592.115 706.603 C 593.485 701.550, 592.628 691.114, 590.504 687.008 C 588.289 682.723, 581.769 678.312, 575.676 676.974 C 570.237 675.779, 551.849 676.150, 537.500 677.743 C 533.100 678.232, 529.275 678.452, 529 678.232 C 528.725 678.013, 528.618 654.921, 528.762 626.916 L 529.024 576 511.849 576 L 494.674 576 495.315 627.008 M 546.559 623.905 C 545.872 625.016, 547.244 644.776, 548.104 646.169 C 548.765 647.239, 558.130 647.563, 595.839 647.820 L 642.751 648.139 643.478 636.506 C 643.878 630.107, 644.047 624.733, 643.853 624.562 C 643.140 623.937, 546.941 623.287, 546.559 623.905 M 267.920 625.010 C 255.144 627.173, 245.620 636.408, 231.191 660.625 C 225.101 670.846, 203.355 705.057, 194.903 717.712 C 190.050 724.979, 185.214 732.629, 184.155 734.712 C 179.918 743.055, 179.101 756.048, 182.104 767.339 C 183.530 772.700, 190.379 779.250, 197.248 781.820 L 202.809 783.900 513.197 784.069 L 823.586 784.238 829.591 781.206 C 835.113 778.419, 835.866 777.624, 838.935 771.337 C 841.683 765.709, 842.359 762.998, 842.760 756 C 843.561 742.002, 841.929 737.634, 827.823 716.040 C 821.162 705.843, 813.189 693.547, 810.106 688.716 C 807.023 683.884, 801.321 675.334, 797.436 669.716 C 793.551 664.097, 788.064 655.656, 785.244 650.958 C 776.422 636.261, 765.223 627.508, 752.040 625.008 C 749.118 624.453, 739.813 624, 731.364 624 L 716 624 716 636.156 L 716 648.313 733.040 647.643 C 744.132 647.207, 750.754 647.333, 752.010 648.005 C 753.071 648.573, 763.742 663.767, 775.723 681.769 C 805.398 726.355, 810.292 734.041, 809.508 734.826 C 808.631 735.703, 215.377 735.710, 214.500 734.833 C 213.593 733.926, 216.979 726.952, 222.431 718.500 C 224.914 714.650, 228.371 708.913, 230.112 705.750 C 231.854 702.587, 233.633 700, 234.067 700 C 234.501 700, 236.219 697.113, 237.886 693.584 C 239.554 690.056, 241.391 686.876, 241.970 686.518 C 243.017 685.872, 247.761 679.058, 253.500 669.960 C 259.371 660.653, 264.840 654.354, 270.336 650.568 L 275.910 646.730 291.401 647.200 L 306.892 647.671 306.696 635.839 L 306.500 624.008 289.500 624.122 C 280.150 624.184, 270.439 624.584, 267.920 625.010 M 378.188 635.480 C 378.429 641.794, 378.841 647.175, 379.103 647.436 C 379.715 648.049, 474.773 648.562, 475.371 647.956 C 475.619 647.705, 475.974 642.212, 476.161 635.749 L 476.500 623.997 427.124 623.999 L 377.748 624 378.188 635.480 M 379.500 669.777 C 377.300 669.929, 374.600 670.473, 373.500 670.985 C 372.400 671.498, 370.416 672.048, 369.091 672.208 C 367.698 672.377, 366.574 673.241, 366.428 674.255 C 366.280 675.287, 366.616 675.737, 367.245 675.348 C 367.931 674.924, 368.116 675.448, 367.760 676.809 C 367.421 678.107, 367.933 679.770, 369.082 681.094 C 370.114 682.284, 370.730 683.627, 370.451 684.079 C 369.287 685.963, 374.473 687.060, 383.254 686.787 L 392.500 686.500 392.500 678.500 L 392.500 670.500 388 670 C 385.525 669.725, 381.700 669.625, 379.500 669.777" stroke="none" fill="#000000" fill-rule="evenodd"/>
</svg>