<svg xmlns="http://www.w3.org/2000/svg" width="1024" height="1024" viewBox="0 0 1024 1024" version="1.1">
	<path d="M 516 122.893 L 516 135 504.500 135 L 493 135 493 144.636 L 493 154.272 504.500 153.564 L 516 152.856 516 166.693 L 516 180.530 510.125 194.015 C 503.764 208.615, 483.449 253.550, 473.738 274.500 C 469.074 284.561, 458.582 308.075, 451.370 324.630 C 451.100 325.252, 463.328 313.421, 478.544 298.339 C 503.229 273.874, 515.942 262.878, 522.415 260.394 C 524.431 259.621, 543.861 275.081, 554.133 285.632 C 572.160 304.149, 598.270 328.425, 597.501 325.954 C 597.081 324.605, 595.250 320.531, 593.432 316.901 C 591.615 313.272, 587.435 304.047, 584.144 296.401 C 580.853 288.756, 573.354 272.150, 567.480 259.500 C 558.007 239.099, 547.328 214.130, 536.257 186.500 C 532.858 178.016, 532.647 176.826, 532.576 165.750 L 532.500 154 544.268 154 L 556.036 154 555.768 144.510 L 555.500 135.020 543.750 135.010 L 532 135 532 123.500 L 532 112 525.582 112 C 522.052 112, 518.452 111.727, 517.582 111.393 C 516.193 110.860, 516 112.264, 516 122.893 M 215.389 210.944 C 215.144 211.189, 214.983 354.876, 215.031 530.248 C 215.098 775.960, 215.391 849.210, 216.309 849.554 C 216.964 849.799, 354.376 850.112, 521.670 850.250 L 825.839 850.500 825.745 530.500 L 825.650 210.500 700.575 210.500 L 575.500 210.500 580.826 218.500 C 583.755 222.900, 588.030 230.431, 590.326 235.237 L 594.500 243.973 693.750 243.737 L 793 243.500 793 530.500 L 793 817.500 693.750 817.265 C 639.163 817.135, 516.802 817.023, 421.837 817.015 L 249.173 817 249.232 530.500 L 249.291 244 351.908 244 L 454.525 244 456.440 237.315 C 457.493 233.638, 460.637 226.100, 463.427 220.565 L 468.500 210.500 342.166 210.500 C 272.683 210.500, 215.633 210.700, 215.389 210.944 M 518.251 282.304 C 515.088 285.530, 504.850 295.291, 495.500 303.996 C 486.150 312.701, 474.900 324.208, 470.500 329.567 C 466.100 334.927, 460.363 341.722, 457.750 344.667 L 453 350.021 453 364.979 L 453 379.937 465.394 367.219 C 472.211 360.223, 480.297 351.763, 483.364 348.417 C 493.360 337.511, 520.791 314, 523.519 314 C 524.162 314, 527.346 316.313, 530.594 319.140 C 540.339 327.622, 578.906 364.566, 587.677 373.821 L 595.854 382.449 595.706 365.248 L 595.558 348.047 584.529 336.313 C 578.463 329.859, 570.125 321.430, 566 317.582 C 561.875 313.734, 550.738 302.903, 541.251 293.513 L 524.003 276.439 518.251 282.304 M 520.275 336.377 C 519.247 337.684, 507.402 349.231, 493.953 362.036 C 480.504 374.841, 463.200 391.439, 455.500 398.920 C 447.800 406.401, 437 416.770, 431.500 421.963 C 426 427.155, 392.700 459.846, 357.500 494.610 C 322.300 529.374, 291.137 559.738, 288.250 562.086 C 285.363 564.433, 283 566.848, 283 567.452 C 283 568.056, 286.351 571.879, 290.448 575.948 L 297.895 583.346 311.198 570.777 C 318.514 563.865, 336.276 546.574, 350.668 532.354 C 412.002 471.754, 427.836 456.226, 451.506 433.459 C 499.095 387.684, 520.273 368, 521.933 368 C 522.442 368, 530.818 375.313, 540.545 384.250 C 550.272 393.188, 561.947 403.875, 566.490 408 C 575.489 416.171, 612.517 451.812, 644.986 483.555 C 656.269 494.586, 672.025 509.635, 680 516.997 C 687.975 524.359, 706.425 542.168, 721 556.572 C 735.575 570.976, 748.422 583.232, 749.548 583.808 C 751.375 584.741, 751.841 584.341, 753.847 580.114 C 756.122 575.323, 759.710 570.821, 762.496 569.262 C 764.306 568.249, 739.237 543.066, 680.564 486.958 C 662.398 469.585, 623.238 431.324, 611 418.989 C 595.810 403.680, 554.148 363.668, 541.301 352.052 C 535.691 346.980, 529.474 340.844, 527.484 338.415 C 525.494 335.987, 523.479 334, 523.006 334 C 522.532 334, 521.304 335.070, 520.275 336.377 M 489.500 417.625 C 471.900 434.412, 446.501 459.026, 433.058 472.323 L 408.617 496.500 408.391 612.750 L 408.164 729 429.436 729 L 450.707 729 450.435 699.750 C 449.908 642.893, 452.128 621.376, 460.811 599.159 C 472.299 569.765, 494.786 542.644, 516.656 531.808 C 526.491 526.934, 524.791 526.474, 540.730 538.323 C 559.470 552.255, 574.053 568.970, 582.761 586.500 C 587.246 595.527, 592.703 612.588, 595.150 625.231 C 597.149 635.559, 597.366 640.363, 597.751 682.750 L 598.171 729 619.462 729 L 640.753 729 640.417 614.373 L 640.081 499.747 611.776 472.123 C 596.208 456.930, 573.577 435.078, 561.485 423.563 C 549.393 412.048, 535.816 399.111, 531.314 394.813 C 526.812 390.516, 522.762 387.023, 522.314 387.052 C 521.866 387.080, 507.100 400.838, 489.500 417.625 M 510.895 424.839 C 498.715 428.018, 487.884 438.987, 483.868 452.210 C 480.699 462.641, 481.447 475.408, 485.736 484.102 C 499.748 512.508, 532.515 518.133, 555.045 496 C 558.235 492.866, 561.903 487.919, 563.572 484.500 C 566.320 478.869, 566.498 477.763, 566.474 466.500 C 566.449 455.330, 566.246 454.085, 563.545 448.500 C 559.777 440.708, 549.906 430.762, 542.640 427.435 C 532.679 422.875, 521.822 421.987, 510.895 424.839 M 508.500 443.454 C 503.979 446.205, 500.515 450.946, 499.517 455.750 L 498.841 459 507.921 459 L 517 459 517 450 C 517 441.331, 516.917 441, 514.750 441.009 C 513.513 441.015, 510.700 442.114, 508.500 443.454 M 532 450.031 L 532 459.100 541.576 458.921 L 551.152 458.743 550.498 456.121 C 549.060 450.358, 541.152 443.063, 534.750 441.593 L 532 440.962 532 450.031 M 500.473 476.750 C 501.604 482.851, 504.605 486.659, 510.585 489.585 C 513.600 491.060, 516.224 492.095, 516.416 491.884 C 516.608 491.673, 516.957 487.337, 517.191 482.250 L 517.616 473 508.697 473 L 499.777 473 500.473 476.750 M 532 482.125 L 532 491.250 535.166 490.617 C 541.197 489.411, 547.836 482.540, 549.530 475.750 L 550.217 473 541.108 473 L 532 473 532 482.125 M 372.837 531.218 C 364.286 540.173, 344.850 560.001, 329.645 575.280 L 302 603.060 302 665.420 L 302 727.780 322.250 728.456 C 333.387 728.828, 353.200 728.990, 366.278 728.816 L 390.055 728.500 390.014 623.137 C 389.992 565.188, 389.616 517.136, 389.179 516.356 C 388.592 515.307, 384.324 519.189, 372.837 531.218 M 658.500 623.499 L 658.500 728.999 696.099 728.999 C 716.779 729, 737.029 728.719, 741.099 728.375 L 748.500 727.749 748.264 665.393 L 748.028 603.037 715.264 571.185 C 687.424 544.120, 659.673 518, 658.756 518 C 658.615 518, 658.500 565.474, 658.500 623.499 M 513.695 556.806 C 500.198 567.183, 483.563 592.782, 477.178 613 C 470.721 633.445, 470.723 633.423, 470.272 683.250 L 469.857 729 493.929 729 L 518 729 518.250 706.250 C 518.388 693.737, 518.369 678.775, 518.209 673 C 517.816 658.840, 518.079 658, 522.897 658 C 525.019 658, 527.268 658.619, 527.896 659.375 C 530.136 662.074, 532.998 690.602, 532.999 710.250 L 533 729 554.418 729 C 566.198 729, 576.548 729.273, 577.418 729.607 C 578.837 730.152, 578.996 727.403, 578.957 702.857 C 578.893 661.969, 577.499 633.146, 575.118 623.500 C 568.994 598.687, 557.632 578.594, 539.846 561.122 C 535.858 557.205, 532.284 554, 531.903 554 C 531.522 554, 531.514 555.462, 531.885 557.250 C 532.720 561.271, 532.365 636.600, 531.505 637.992 C 531.162 638.547, 528.034 639, 524.552 639 L 518.223 639 517.507 635.250 C 516.441 629.662, 516.788 560.018, 517.901 556.250 C 518.428 554.462, 518.779 553.025, 518.680 553.056 C 518.581 553.086, 516.338 554.774, 513.695 556.806 M 696.542 592.790 C 693.353 593.501, 689.996 596.107, 688.473 599.053 C 685.951 603.929, 685.137 614.771, 684.627 650.250 L 684.129 685 696.626 685 L 709.123 685 708.812 644.750 C 708.511 605.947, 708.422 604.332, 706.338 599.821 C 704.061 594.894, 700.042 592.009, 696.542 592.790 M 349.180 594.682 C 345.121 596.682, 341.614 601.169, 339.942 606.500 C 338.537 610.980, 337.360 669.197, 338.467 679.500 L 339.111 685.500 352.121 685.791 L 365.131 686.083 364.542 651.791 C 363.705 602.985, 363.442 601.074, 356.804 595.488 C 353.329 592.565, 353.450 592.578, 349.180 594.682 M 498 669.287 C 498 678.939, 498.273 687.548, 498.607 688.418 C 499.073 689.632, 500.700 690, 505.607 690 C 509.123 690, 512.082 689.888, 512.182 689.750 C 512.283 689.612, 512.620 681.287, 512.932 671.248 L 513.500 652.997 509.500 652.987 C 507.300 652.982, 503.813 652.699, 501.750 652.358 L 498 651.738 498 669.287 M 536.792 670.439 L 537.085 688.880 540.292 689.190 C 542.057 689.360, 545.143 689.345, 547.151 689.154 C 551.730 688.721, 551.832 688.174, 551.202 667.441 L 550.732 652 543.616 651.999 L 536.500 651.998 536.792 670.439 M 456.427 747.683 L 299.355 748.006 300.624 755.753 C 301.323 760.014, 301.918 765.212, 301.947 767.305 L 302 771.110 524.509 770.713 C 646.888 770.495, 747.177 770.132, 747.371 769.908 C 747.566 769.684, 747.986 764.663, 748.306 758.750 L 748.888 748 690.694 747.995 C 658.687 747.992, 628.225 747.848, 623 747.675 C 617.775 747.502, 542.817 747.506, 456.427 747.683" stroke="none" fill="#000000" fill-rule="evenodd"/>
</svg>