<svg xmlns="http://www.w3.org/2000/svg" width="1024" height="1024" viewBox="0 0 1024 1024" version="1.1">
	<path d="M 560.500 189.468 C 552.479 191.218, 539.495 196.300, 533.771 199.930 C 528.673 203.164, 523.095 209.663, 505.391 233 C 498.923 241.525, 488.971 254.294, 483.274 261.374 C 477.577 268.455, 473.055 274.388, 473.225 274.558 C 473.395 274.729, 478.252 274.155, 484.017 273.284 C 495.294 271.581, 532.108 270.919, 542.084 272.239 L 547.668 272.978 550.084 267.756 C 552.976 261.506, 562.910 246.194, 565.634 243.788 C 571.087 238.973, 582.697 237.564, 591.715 240.623 C 597.910 242.724, 626.647 256.701, 630.347 259.413 C 634.621 262.545, 636 266.072, 636 273.875 L 636 280.849 654.250 289.850 C 664.288 294.801, 680.375 302.625, 690 307.235 C 708.091 315.901, 719 322.212, 719 324.010 C 719 324.579, 717.256 326.947, 715.125 329.272 C 712.227 332.434, 699.753 351.807, 697.227 357.068 C 697.077 357.380, 698.123 358.955, 699.551 360.568 C 702.914 364.366, 711.427 376.730, 716.373 385 C 721.084 392.879, 730.978 413.014, 730.991 414.750 C 730.996 415.438, 731.410 416, 731.911 416 C 733.547 416, 737.636 410.344, 745.062 397.812 C 749.074 391.040, 754.253 382.350, 756.569 378.500 C 758.886 374.650, 762.335 368.575, 764.234 365 C 766.133 361.425, 772.346 349.950, 778.041 339.500 C 792.154 313.604, 793.092 311.572, 793.653 305.661 C 794.041 301.567, 793.663 299.569, 791.821 296 C 789.608 291.710, 788.708 291.104, 772.500 282.988 C 763.150 278.307, 750.319 271.496, 743.987 267.854 C 737.654 264.212, 724.379 256.977, 714.487 251.776 C 666.176 226.375, 652.041 218.836, 634.500 209.115 C 607.764 194.297, 605.540 193.235, 595.483 190.468 C 585.204 187.639, 570.771 187.227, 560.500 189.468 M 575.475 263.471 C 571.617 269.502, 569.460 273.846, 570.088 274.321 C 570.314 274.493, 576.575 276.795, 584 279.437 C 591.425 282.079, 600.650 285.870, 604.500 287.862 C 608.350 289.854, 611.781 291.618, 612.125 291.783 C 612.832 292.123, 615.251 286.407, 616.830 280.668 L 617.884 276.836 613.192 274.827 C 605.131 271.375, 589.678 263.820, 586.009 261.538 C 579.526 257.503, 579.262 257.552, 575.475 263.471 M 308.500 267.447 C 307.950 267.655, 306.262 268.098, 304.750 268.432 C 301.478 269.153, 301.356 270.363, 303.978 276.141 C 307.905 284.794, 305.847 294.321, 297.916 304.202 C 287.586 317.074, 276.497 321.742, 266.336 317.496 L 262.736 315.992 263.278 320.034 C 264.008 325.482, 265.984 328.219, 273.206 333.789 C 276.566 336.380, 285.013 343.225, 291.977 349 C 310.294 364.190, 317.970 370.401, 319.450 371.231 C 320.328 371.723, 322.418 369.723, 325.858 365.097 C 333.204 355.219, 346.641 340.390, 354.085 333.949 C 366.532 323.179, 380.407 312.522, 384.642 310.481 L 388.927 308.416 382.213 308.313 C 378.521 308.257, 374.150 307.601, 372.500 306.855 C 367.549 304.618, 341.167 286.788, 331.111 278.882 C 325.948 274.822, 320.736 270.730, 319.529 269.789 C 317.407 268.133, 310.540 266.675, 308.500 267.447 M 495.500 292.038 C 468.226 295.141, 434.860 304.923, 415.425 315.514 C 362.814 344.183, 325.647 388.204, 306.523 444.500 C 303.228 454.197, 297.153 479.632, 295.536 490.500 C 293.554 503.812, 292.263 533, 293.655 533 C 294.185 533, 298.192 532.119, 302.560 531.043 C 306.927 529.967, 317.700 527.437, 326.500 525.421 C 349.834 520.076, 362.192 517.140, 363.537 516.624 C 364.189 516.374, 365.039 513.319, 365.426 509.835 C 367.272 493.198, 373.402 470.908, 380.592 454.688 C 397.449 416.656, 428.795 387.955, 467.500 375.112 C 515.948 359.038, 557.860 364.607, 601 392.851 C 609.296 398.282, 627.416 416.366, 634.598 426.383 C 640.971 435.270, 649.058 450.764, 652.601 460.874 C 653.637 463.830, 654.989 466.442, 655.606 466.679 C 656.932 467.188, 683.088 460.787, 705 454.592 L 720.500 450.209 720.331 446.355 C 720.071 440.422, 714.553 424.386, 707.978 410.453 C 690.188 372.757, 661.596 342.319, 621.606 318.505 C 607.882 310.332, 594.766 304.625, 577.500 299.312 C 556.281 292.784, 550.577 291.919, 526 291.506 C 513.625 291.298, 499.900 291.538, 495.500 292.038 M 532.500 318.049 C 510.800 320.851, 501.530 321.992, 488 323.527 C 468.139 325.779, 467.173 325.984, 464.072 328.593 C 462.456 329.953, 460.624 332.609, 460.002 334.495 C 457.867 340.962, 463.477 348.033, 470.700 347.979 C 472.240 347.968, 478.900 346.846, 485.500 345.487 C 492.100 344.127, 502.675 342.537, 509 341.954 C 515.325 341.370, 527.313 340.242, 535.641 339.446 C 543.968 338.651, 552.384 338, 554.344 338 C 559.209 338, 562.335 336.395, 564.452 332.811 C 567.063 328.392, 566.020 322.301, 562.046 318.750 C 559.341 316.333, 558.213 316.015, 552.734 316.120 C 549.305 316.187, 540.200 317.054, 532.500 318.049 M 494.523 387.619 C 484.391 389.448, 465.300 395.810, 456.379 400.331 C 435.137 411.096, 412.429 434.021, 401.732 455.500 C 388.564 481.943, 382.343 523.648, 387.386 551.679 C 391.041 571.998, 400.671 593.122, 412.335 606.409 L 415.766 610.317 450.133 601.704 C 512.810 585.994, 621.445 559.152, 625 558.496 C 631.545 557.289, 631.822 557.046, 633.897 550.704 C 639.512 533.538, 642.179 508.435, 640.080 492.500 C 638.532 480.742, 631.176 458.766, 625.261 448.229 C 613.991 428.151, 595.055 410.070, 574.500 399.761 C 563.526 394.257, 549.018 389.188, 539.476 387.524 C 528.532 385.615, 505.354 385.664, 494.523 387.619 M 748 428.172 C 742.225 430.433, 737.383 432.375, 737.239 432.486 C 737.096 432.597, 737.616 434.493, 738.394 436.700 C 739.173 438.906, 740.557 444.489, 741.471 449.106 C 743.830 461.028, 743.637 460.666, 748.282 461.892 C 750.957 462.598, 754.512 464.849, 758 468.045 C 762.981 472.610, 778.887 484.902, 796 497.412 C 805.956 504.690, 821.835 518.903, 822.559 521.186 C 823.563 524.350, 821.341 525.701, 810.500 528.516 C 805 529.944, 797.350 532.188, 793.500 533.503 C 784.291 536.648, 754.006 544.719, 669.500 566.548 C 654.100 570.526, 635.875 575.375, 629 577.323 C 614.794 581.349, 572.286 592.428, 567 593.482 C 565.075 593.866, 539.200 600.254, 509.500 607.677 C 479.800 615.100, 449.200 622.646, 441.500 624.447 C 433.800 626.248, 422.100 629.118, 415.500 630.825 C 408.900 632.532, 389.775 637.288, 373 641.394 C 356.225 645.500, 334.625 650.872, 325 653.332 C 315.375 655.792, 304.175 658.382, 300.110 659.087 L 292.720 660.370 290.110 657.265 C 288.675 655.557, 286.005 652.074, 284.178 649.526 C 280.599 644.534, 261.834 629.232, 237 611.054 C 228.475 604.813, 221.094 599.345, 220.597 598.901 C 219.337 597.775, 225.823 589.476, 229.566 587.424 C 232.474 585.830, 232.860 585.845, 237.066 587.713 C 239.505 588.796, 244.425 591.919, 248 594.654 C 271.267 612.455, 293.154 629.837, 297.013 633.580 L 301.525 637.957 312.013 635.553 C 317.781 634.231, 324.975 632.590, 328 631.907 C 331.025 631.224, 333.933 630.284, 334.463 629.819 C 335.044 629.310, 332.418 625.898, 327.859 621.237 C 323.696 616.982, 316.851 608.274, 312.646 601.887 L 305.002 590.273 305.637 584.196 C 306.197 578.838, 304.683 558.340, 303.394 553.832 C 303.022 552.530, 302.316 552.336, 300.184 552.947 C 296.234 554.080, 285.232 552.328, 280 549.732 C 276.620 548.055, 275.203 546.629, 274.306 544 C 272.755 539.450, 272.811 520.339, 274.416 507 C 275.110 501.225, 275.537 496.324, 275.364 496.108 C 275.191 495.892, 271.551 496.567, 267.275 497.608 L 259.500 499.500 259.500 534.819 C 259.500 566.790, 259.341 570.226, 257.828 571.075 C 256.908 571.591, 252.848 572.292, 248.806 572.634 C 242.810 573.140, 241.216 572.965, 240.150 571.681 C 238.577 569.785, 236.507 520.250, 237.340 504.405 L 237.870 494.309 232.185 488.828 C 220.106 477.183, 216.518 475.691, 212.045 480.452 C 209.774 482.870, 209.758 483.043, 210.969 492.659 C 212.147 502.018, 211.776 549.423, 210.422 562.574 L 209.900 567.648 198.200 570.876 C 191.765 572.652, 182.268 574.961, 177.097 576.006 C 171.925 577.051, 167.249 578.351, 166.705 578.895 C 166.055 579.545, 166.066 583.006, 166.739 589.030 C 167.738 597.982, 167.843 598.244, 171.630 601.287 C 173.758 602.997, 180 608.743, 185.500 614.056 C 191 619.369, 198.200 625.862, 201.500 628.486 C 214.701 638.983, 230.305 653.230, 245.828 668.957 C 254.809 678.056, 262.983 686.490, 263.993 687.701 C 265.487 689.491, 266.545 689.803, 269.665 689.372 C 278.756 688.116, 291.099 685.421, 315 679.474 C 329.025 675.985, 356.250 669.251, 375.500 664.510 C 394.750 659.770, 419.275 653.630, 430 650.866 C 440.725 648.103, 460.300 643.171, 473.500 639.907 C 486.700 636.643, 503.125 632.425, 510 630.535 C 525.276 626.334, 572.971 614.323, 597.703 608.449 C 607.715 606.071, 620.090 602.978, 625.203 601.575 C 630.316 600.172, 652.500 594.479, 674.500 588.922 C 696.500 583.366, 724.400 576.095, 736.500 572.765 C 748.600 569.435, 766.600 564.594, 776.500 562.008 C 848.727 543.141, 864.208 538.624, 868.946 535.034 C 870.587 533.790, 871.164 531.624, 871.996 523.572 C 872.560 518.112, 872.796 512.932, 872.520 512.062 C 872.243 511.191, 869.651 508.943, 866.759 507.065 C 843.618 492.041, 765.836 432.476, 762.500 427.225 C 761.400 425.494, 760.050 424.073, 759.500 424.068 C 758.950 424.063, 753.775 425.910, 748 428.172 M 499.912 468.393 C 478.942 474.413, 466 492.317, 466 515.305 C 466 546.389, 496.795 569.035, 526.645 559.903 C 536.747 556.812, 542.585 553.273, 548.665 546.555 C 559.638 534.429, 563.745 520.505, 560.711 505.712 C 557.466 489.893, 548.616 478.379, 534.240 471.274 C 526.942 467.667, 526.123 467.492, 515.554 467.289 C 508.758 467.158, 502.733 467.583, 499.912 468.393 M 723 471.304 C 720.077 472.794, 719.966 474.877, 722.002 489.990 C 723.018 497.530, 723.038 502.644, 722.099 514.865 C 721.448 523.327, 721.087 530.421, 721.296 530.630 C 721.922 531.255, 744.563 526.392, 758.500 522.639 C 765.650 520.714, 774.313 518.599, 777.750 517.939 C 781.759 517.170, 784 516.253, 784 515.382 C 784 513.722, 774.134 505.814, 753.512 490.945 C 744.933 484.759, 735.952 477.516, 733.554 474.849 C 729.007 469.792, 727.174 469.176, 723 471.304 M 692.338 481.096 C 685.881 483.385, 666.006 488, 662.604 488 L 660.063 488 660.593 496.250 C 660.884 500.788, 661.284 505.309, 661.480 506.297 C 662.217 510.003, 659.903 534.793, 658.124 542.250 C 657.107 546.513, 656.326 550, 656.388 549.999 C 656.449 549.999, 658.750 549.149, 661.500 548.110 C 664.250 547.071, 673.925 544.557, 683 542.523 C 692.075 540.489, 699.594 538.733, 699.709 538.620 C 699.823 538.508, 700.439 535.060, 701.076 530.958 C 703.146 517.627, 700.956 478.579, 698.169 479.133 C 697.801 479.206, 695.177 480.090, 692.338 481.096 M 504.764 487.996 C 495.388 490.819, 488.729 498.962, 486.937 509.796 C 484.959 521.753, 489.964 532.688, 500.027 538.396 C 504.850 541.131, 506.391 541.493, 513 541.439 C 519.117 541.389, 521.469 540.879, 525.754 538.670 C 538.305 532.202, 544.460 514.915, 538.634 502.500 C 533.914 492.444, 525.153 486.965, 514 487.096 C 510.425 487.138, 506.269 487.543, 504.764 487.996 M 510.415 503.399 C 498.754 508.562, 501.388 524, 513.931 524 C 517.535 524, 519.150 523.468, 520.759 521.750 C 525.607 516.574, 525.763 510.049, 521.142 505.655 C 517.738 502.418, 514.275 501.690, 510.415 503.399 M 361.812 538.521 C 361.526 538.807, 355.264 540.370, 347.896 541.993 C 336.594 544.482, 327.547 546.780, 322.368 548.476 C 321.581 548.734, 322.232 553.681, 324.499 564.673 C 330.770 595.087, 332.873 599.562, 347.805 614.269 C 354.192 620.559, 359.313 624.838, 360.120 624.557 C 360.879 624.293, 368.250 622.425, 376.500 620.405 C 384.750 618.385, 392.063 616.437, 392.751 616.076 C 393.629 615.615, 392.209 612.702, 387.984 606.300 C 377.545 590.482, 369.605 569.280, 367.555 551.750 C 365.973 538.217, 365.919 538, 364.105 538 C 363.131 538, 362.099 538.234, 361.812 538.521 M 679.450 605.858 C 675.171 609.720, 613.932 626.288, 507 652.515 C 490.225 656.629, 470.425 661.653, 463 663.679 C 438.630 670.329, 428.504 672.820, 414.911 675.507 C 403.170 677.829, 395.421 679.992, 378.258 685.739 C 374.625 686.955, 374.155 687.421, 374.988 688.977 C 376.046 690.954, 389.202 702.183, 395.270 706.287 L 399.040 708.838 403.806 705.631 C 408.698 702.338, 438.772 690, 441.904 690 C 444.334 690, 448 694.162, 448 696.921 C 448 698.181, 446.595 700.986, 444.878 703.154 C 441.609 707.281, 429.611 716.809, 422.107 721.236 L 417.715 723.827 424.059 727.030 C 427.548 728.791, 434.584 731.746, 439.694 733.596 L 448.986 736.959 455.743 730.575 C 463.454 723.291, 481.247 708.741, 484.711 706.887 C 488.093 705.077, 494 707.961, 494 711.423 C 494 715.465, 485.376 731.062, 479.493 737.660 C 473.705 744.152, 472.878 745.995, 475.750 746.008 C 476.712 746.013, 481.325 746.435, 486 746.947 C 490.675 747.459, 497.530 748.015, 501.234 748.181 L 507.968 748.485 509.828 744.992 C 514.795 735.661, 526.582 718.044, 532.354 711.323 C 535.479 707.683, 539.124 707.022, 542.398 709.500 C 545.265 711.670, 544.034 722.067, 539.186 736.632 C 537.014 743.160, 535.373 748.653, 535.541 748.839 C 535.708 749.025, 540.942 748.046, 547.172 746.663 C 553.403 745.279, 560.642 743.837, 563.260 743.459 C 567.012 742.916, 568.118 742.318, 568.484 740.635 C 568.739 739.461, 570.499 731.750, 572.396 723.500 C 574.292 715.250, 576.151 706.925, 576.527 705 C 578.252 696.170, 583.599 690.645, 588.094 693.050 C 591.331 694.783, 592.851 699.808, 594.019 712.646 C 594.612 719.166, 595.335 726.459, 595.625 728.852 L 596.153 733.205 598.327 731.277 C 599.522 730.217, 603.914 727.260, 608.087 724.706 C 612.260 722.151, 617.621 718.333, 620.001 716.221 C 624.224 712.474, 624.300 712.298, 623.136 708.959 C 622.479 707.077, 621.508 700.129, 620.977 693.518 C 620.445 686.908, 619.735 679.004, 619.399 675.953 C 618.843 670.909, 619.036 670.111, 621.527 667.151 C 623.830 664.413, 624.841 663.943, 627.883 664.198 C 631.299 664.483, 631.708 664.917, 635.245 672 C 637.305 676.125, 641.141 684.198, 643.770 689.939 L 648.550 700.378 656.525 687.028 C 660.911 679.685, 665.850 672.260, 667.500 670.527 L 670.500 667.376 667.196 664.543 C 663.418 661.302, 661.717 658.197, 656.632 645.257 C 651.052 631.056, 651.928 626.136, 659.799 627.466 C 665.077 628.358, 668.068 630.380, 678.197 639.904 L 686.894 648.081 687.581 644.291 C 688.372 639.920, 696.585 618.593, 698.764 615.250 C 700.165 613.099, 700.104 613, 697.365 612.999 C 695.774 612.999, 691.610 611.221, 688 609 C 680.905 604.635, 680.833 604.609, 679.450 605.858" stroke="none" fill="#000000" fill-rule="evenodd"/>
</svg>