<svg xmlns="http://www.w3.org/2000/svg" width="1024" height="1024" viewBox="0 0 1024 1024" version="1.1">
	<path d="M 666.733 114.041 C 660.327 115.631, 651.535 122.082, 647.533 128.129 L 644.972 132 437.236 131.994 C 322.981 131.991, 225.820 131.702, 221.323 131.351 C 214.025 130.783, 213.086 130.481, 212.599 128.540 C 211.870 125.633, 204.563 118.504, 200.092 116.337 C 198.116 115.380, 193.482 114.413, 189.794 114.188 C 181.333 113.672, 175.932 116.057, 169.593 123.108 C 159.552 134.276, 159.755 149.679, 170.098 161.459 C 173.381 165.198, 181.797 169.970, 185.143 169.990 C 186.047 169.996, 187.059 170.712, 187.393 171.582 C 188.573 174.656, 187.976 209.688, 186.509 223.500 C 185.691 231.200, 184.963 242.225, 184.892 248 C 184.705 263.223, 184.390 264.188, 179.183 265.455 C 174.189 266.671, 168.016 271.508, 164.309 277.109 C 162.070 280.492, 161.802 281.723, 162.316 286.259 C 162.642 289.142, 164.096 294.370, 165.546 297.878 L 168.183 304.256 165.590 314.604 C 161.590 330.565, 160.822 341.533, 161.176 377.582 C 161.546 415.166, 161.171 413.473, 171.103 422.403 C 178.435 428.995, 185.241 431.314, 197.500 431.398 C 209.288 431.478, 215.632 430.092, 226.517 425.056 C 236.925 420.242, 241.161 416.401, 245.396 407.936 C 250.259 398.215, 251.374 391.792, 250.682 377.500 C 249.726 357.763, 244.291 334.819, 236.706 318.500 C 233.239 311.039, 232.555 308.574, 232.711 304.086 C 232.814 301.109, 233.484 298.151, 234.199 297.513 C 234.915 296.875, 239.976 295.122, 245.446 293.619 C 267.840 287.464, 289.164 274.280, 311.840 252.570 C 332.001 233.267, 355.790 196.114, 366.630 167 C 367.961 163.425, 369.731 158.925, 370.564 157 L 372.079 153.500 509.176 153.628 L 646.274 153.755 647.558 157.490 C 650.593 166.320, 659.856 171.491, 672.500 171.414 C 682.222 171.354, 686.133 169.818, 693.126 163.310 C 705.451 151.839, 706.338 136.265, 695.361 124.056 C 687.945 115.809, 676.186 111.695, 666.733 114.041 M 184.073 134.635 C 180.913 138.651, 181.279 144.433, 184.923 148.077 C 188.104 151.258, 190.617 151.732, 193.423 149.680 C 194.768 148.697, 195.263 146.890, 195.364 142.597 C 195.486 137.439, 195.205 136.579, 192.694 134.417 C 189.075 131.299, 186.648 131.360, 184.073 134.635 M 666.650 134.844 C 665.151 136.408, 663.667 139.277, 663.352 141.219 C 662.854 144.287, 663.267 145.290, 666.506 148.875 C 671.244 154.119, 674.877 154.413, 679.099 149.894 C 683.223 145.479, 683.214 139.060, 679.077 134.923 C 675.118 130.964, 670.395 130.934, 666.650 134.844 M 212.722 176.250 C 212.279 195.750, 211.708 202.404, 209.187 217.504 C 205.574 239.141, 204.303 252, 205.779 252 C 206.350 252, 209.385 249.908, 212.523 247.351 C 232.408 231.154, 250.956 192.074, 253.627 160.750 L 254.288 153 233.770 153 L 213.252 153 212.722 176.250 M 279 153.721 C 279 157.348, 274.242 179.318, 271.793 187 C 266.663 203.091, 258.101 222.471, 252.377 230.947 C 243.529 244.050, 240.556 247.971, 232.750 256.830 C 227.938 262.291, 224 267.248, 224 267.845 C 224 269.667, 228.094 271.246, 231.420 270.707 C 233.150 270.426, 241.142 268.106, 249.181 265.551 C 262.288 261.385, 264.969 260.120, 275.148 253.305 C 292.728 241.535, 301.893 233.316, 308.109 223.747 C 311.056 219.211, 316.291 211.993, 319.744 207.707 C 323.196 203.422, 327.875 196.226, 330.142 191.717 C 334.184 183.679, 345 156.943, 345 154.991 C 345 154.410, 341.279 154, 336 154 C 327.685 154, 327 154.151, 327 155.988 C 327 158.653, 321.238 176.566, 318.897 181.182 C 317.869 183.207, 316.503 185.189, 315.860 185.587 C 315.131 186.037, 314.959 185.875, 315.405 185.155 C 316.063 184.090, 314.982 183.610, 312.500 183.866 C 310.789 184.042, 303.555 173.233, 302.430 168.817 C 301.786 166.291, 301.672 162.641, 302.144 159.656 C 302.575 156.926, 302.739 154.387, 302.508 154.012 C 301.887 153.008, 279 152.725, 279 153.721 M 751.350 234.160 C 747.042 236.277, 743.100 246.114, 724.365 301.500 C 713.413 333.878, 713.372 334.070, 716.066 339.637 C 717.237 342.055, 719.163 344.563, 720.347 345.211 C 721.880 346.048, 730.363 346.321, 749.801 346.158 C 764.817 346.032, 778.605 346.210, 780.441 346.555 L 783.780 347.181 784.392 357.841 C 784.729 363.703, 785.282 384.085, 785.621 403.133 L 786.238 437.767 772.369 438.151 C 760.784 438.472, 757.841 438.877, 754.500 440.608 C 748.753 443.587, 745.120 449.909, 744.337 458.297 L 743.711 465 734.605 465.009 C 729.597 465.013, 723.138 465.301, 720.250 465.648 L 715 466.279 715 475.099 L 715 483.920 719 485.118 C 722.312 486.111, 723.006 486.762, 723.035 488.908 C 723.054 490.334, 723.683 494.939, 724.433 499.142 C 725.673 506.096, 726.448 507.696, 733.042 516.922 C 740.172 526.896, 742 528.998, 742 527.220 C 742 524.978, 745.022 494.150, 745.526 491.250 L 746.091 488 800.545 488 L 855 488 855 533.157 L 855 578.314 836.750 577.662 C 826.712 577.304, 815.350 576.528, 811.500 575.938 C 804.311 574.837, 761.993 575.635, 762.007 576.872 C 762.020 577.925, 769.121 598.455, 769.660 598.995 C 769.937 599.273, 784.414 599.725, 801.832 600 L 833.500 600.500 833.500 604.666 C 833.500 606.957, 833.738 609.070, 834.028 609.360 C 834.927 610.261, 842.245 608.220, 843.131 606.822 C 843.592 606.095, 843.976 604.496, 843.985 603.269 C 844.002 600.719, 846.770 599.666, 852.112 600.176 L 855.500 600.500 855.233 609.500 C 855.086 614.450, 854.718 621.262, 854.415 624.639 L 853.865 630.778 846.182 631.466 C 834.717 632.493, 834 632.762, 834 636.043 C 834 637.598, 834.439 640.024, 834.975 641.435 C 835.833 643.690, 836.528 644.002, 840.725 644.017 C 843.351 644.027, 849.550 644.700, 854.500 645.514 C 864.733 647.195, 874.786 647.421, 877 646.020 C 878.317 645.187, 878.456 635.989, 878.144 570.786 C 877.888 517.210, 878.119 494.136, 878.973 488.020 C 880.425 477.633, 879.649 471.558, 876.465 468.374 C 874.242 466.151, 873.360 466, 862.627 466 C 856.322 466, 850.452 465.727, 849.582 465.393 C 848.377 464.931, 848 463.321, 847.998 458.643 C 847.997 451.305, 845.990 446.832, 840.864 442.738 C 836.771 439.470, 829.358 438.090, 815.592 438.033 L 807.684 438 808.342 419.840 C 808.704 409.852, 809 389.152, 809 373.840 L 809 346 840.618 346 L 872.235 346 876.255 341.980 C 880.149 338.087, 880.258 337.795, 879.725 332.730 C 879.422 329.853, 875.346 316.925, 870.666 304 C 862.888 282.514, 860.108 275.106, 849.908 248.666 C 848.034 243.807, 845.312 238.407, 843.860 236.666 L 841.221 233.500 797.360 233.301 C 768.179 233.169, 752.780 233.457, 751.350 234.160 M 764.126 257.250 C 758.186 271.958, 742.077 318.835, 742.022 321.572 C 742.007 322.317, 756.699 322.704, 790.250 322.840 C 816.788 322.948, 841.543 323.312, 845.262 323.649 L 852.023 324.261 848.411 313.880 C 846.425 308.171, 840.794 293.211, 835.900 280.635 C 831.005 268.060, 827 257.219, 827 256.545 C 827 255.394, 797.596 254.010, 772.969 254.002 L 765.438 254 764.126 257.250 M 195.599 279.061 C 190.649 280.292, 189.072 282.398, 189.032 287.827 C 189.006 291.336, 189.574 292.728, 192.034 295.188 C 194.928 298.082, 195.385 298.204, 201.961 297.832 C 211.188 297.311, 213 295.697, 213 288 C 213 283.720, 212.539 281.892, 211.137 280.624 C 208.852 278.556, 200.861 277.753, 195.599 279.061 M 186.532 321.750 C 185.331 324.835, 183.024 356.095, 183.083 368.500 C 183.174 387.903, 184.408 402.839, 186.054 404.465 C 186.849 405.250, 191.236 406.357, 195.801 406.925 C 205.551 408.137, 210.886 407.260, 219 403.112 C 226.577 399.239, 227.138 397.393, 226.417 378.741 C 225.647 358.841, 222.791 346.355, 215.579 331.356 C 210.538 320.872, 209.902 320, 207.309 320 L 204.500 320 204.336 351.750 C 204.231 371.969, 203.686 386.926, 202.836 392.933 C 201.546 402.043, 201.402 402.391, 198.620 403.131 C 195.142 404.055, 191.099 401.555, 191.131 398.500 C 191.143 397.400, 190.620 394.475, 189.970 392 C 189.120 388.766, 188.932 378.004, 189.300 353.750 C 189.714 326.473, 189.563 320, 188.513 320 C 187.799 320, 186.907 320.788, 186.532 321.750 M 362.408 337.030 C 357.749 337.954, 348.726 341.617, 338.500 346.735 C 328.105 351.938, 315.817 364.694, 310.154 376.162 C 303.512 389.612, 302.291 397.755, 301.469 434.106 L 300.777 464.713 289.972 465.369 C 284.029 465.730, 247.291 466.005, 208.333 465.980 L 137.500 465.934 135.763 468.062 C 132.822 471.665, 131.597 477.905, 132.877 482.764 C 133.662 485.746, 134 510.770, 134 565.979 C 134 656.847, 132.627 647, 145.299 647 C 151.350 647, 153.230 646.607, 155.418 644.886 C 157.503 643.246, 160.010 642.653, 166.601 642.242 L 175.098 641.712 174.799 637.106 L 174.500 632.500 170.500 632.451 C 168.300 632.424, 164.434 632.311, 161.908 632.201 L 157.317 632 156.408 615.998 L 155.500 599.995 158.007 599.998 C 160.049 600, 160.741 600.730, 161.743 603.941 C 163.156 608.470, 167.245 613, 169.920 613 C 170.926 613, 173.613 613.658, 175.892 614.462 C 178.171 615.266, 180.706 615.666, 181.525 615.352 C 182.345 615.037, 184.188 615.549, 185.622 616.488 L 188.229 618.196 186.364 615.008 C 185.339 613.255, 182.369 609.167, 179.765 605.924 L 175.030 600.028 207.221 599.764 L 239.411 599.500 240.240 595.500 C 240.695 593.300, 242.178 588.723, 243.534 585.329 C 244.890 581.936, 246 578.151, 246 576.919 L 246 574.680 220.750 575.590 C 192.743 576.599, 158.319 576.653, 157.355 575.688 C 157.012 575.345, 156.679 555.674, 156.616 531.975 L 156.500 488.885 209 488.693 L 261.500 488.500 262.105 502 C 262.792 517.340, 263.826 526, 264.971 526 C 266.067 526, 280.411 510.030, 281.982 507.061 C 282.692 505.720, 283.494 500.737, 283.765 495.989 L 284.257 487.355 292.510 486.428 L 300.763 485.500 301.858 493.255 L 302.953 501.011 298.604 507.755 C 290.978 519.584, 266.380 570.587, 261.833 584 C 257.669 596.283, 257.589 596.779, 257.199 612.563 C 256.975 621.643, 257.312 632.510, 257.974 637.563 C 260.028 653.218, 260.296 659.819, 259.122 665.788 C 257.822 672.392, 256.448 799.873, 257.551 811.500 C 258.187 818.199, 258.419 818.698, 262.960 823.111 C 265.949 826.016, 268.962 827.955, 271.103 828.350 C 272.971 828.696, 286.425 829.062, 301 829.164 C 329.970 829.367, 330.654 829.254, 336.128 823.339 C 341.455 817.583, 341.467 817.505, 342 785.132 L 342.500 754.764 355 755.132 C 361.875 755.334, 435.225 755.330, 518 755.121 L 668.500 754.742 668.500 785.697 L 668.500 816.651 671.393 820.446 C 673.127 822.721, 676.409 825.213, 679.582 826.666 C 684.836 829.071, 685.101 829.089, 712.265 828.796 C 739.594 828.501, 739.659 828.495, 743.366 826 C 745.409 824.625, 748.445 821.475, 750.113 819 L 753.145 814.500 752.374 738.500 C 751.949 696.700, 751.666 659.125, 751.744 655 C 751.823 650.875, 752.025 638.275, 752.193 627 L 752.500 606.500 748.812 593 C 745.066 579.291, 740.782 568.114, 732.712 551 C 730.248 545.775, 725.732 536.205, 722.677 529.732 C 719.622 523.260, 714.626 513.781, 711.575 508.668 L 706.027 499.371 707.082 490.749 C 707.730 485.447, 707.990 465.838, 707.757 439.814 C 707.331 392.358, 707.343 392.451, 699.749 377 C 690.578 358.338, 665.214 340.047, 644.318 337.025 C 636.030 335.827, 368.452 335.832, 362.408 337.030 M 368.908 358.150 C 358.033 359.753, 345.681 366.358, 337.801 374.782 C 328.678 384.535, 325.457 392.864, 324.188 409.980 C 323.475 419.607, 324.392 482.725, 325.258 483.591 C 325.494 483.828, 329.920 482.024, 335.094 479.584 C 340.267 477.144, 347.337 474.640, 350.804 474.020 C 365.003 471.481, 380.423 470.097, 390.166 470.488 C 399.306 470.855, 399.731 470.804, 393.845 470.043 C 390.184 469.571, 385.560 468.411, 383.569 467.466 C 375.636 463.701, 362.393 446.601, 359.377 436.225 C 355.242 422.001, 360.951 403.570, 372.766 393.003 C 375.920 390.182, 382.291 385.990, 386.924 383.687 L 395.348 379.500 422.424 379.500 C 447.728 379.500, 450.021 379.651, 457.465 381.806 C 478.645 387.938, 489.960 399.850, 493.126 419.351 C 495.038 431.128, 492.009 441.704, 482.856 455.203 C 478.364 461.828, 474.034 465.400, 467.308 468.028 C 461.648 470.240, 462.823 470.375, 473 468.684 C 481.092 467.339, 535.513 467.050, 540 468.328 C 542.324 468.990, 542.360 468.951, 540.500 467.774 C 539.400 467.078, 535.497 463.488, 531.826 459.797 C 522.662 450.582, 518.030 441.201, 517.286 430.347 C 515.892 409.999, 525.827 393.276, 544.974 383.744 L 553.500 379.500 582.500 379.500 C 610.129 379.500, 611.813 379.608, 618.125 381.790 C 632.709 386.831, 642.324 394.819, 648.217 406.789 C 651.326 413.104, 651.500 414.043, 651.500 424.479 C 651.500 435.358, 651.447 435.609, 647.367 444 C 642.669 453.661, 635.034 462.724, 628.236 466.708 C 624.401 468.955, 621.997 469.502, 613.575 470.041 L 603.500 470.686 611.330 470.843 C 615.636 470.929, 623.435 470.496, 628.661 469.879 C 636.759 468.924, 639.437 469.012, 646.788 470.472 C 658.899 472.877, 670.536 476.375, 678.054 479.871 C 681.586 481.513, 684.635 482.698, 684.829 482.504 C 685.023 482.310, 685.129 465.355, 685.064 444.826 C 684.935 403.589, 684.373 398.307, 678.942 387.247 C 674.707 378.621, 665.065 369.259, 655.605 364.585 C 642.060 357.892, 648.103 358.161, 503.908 357.814 C 432.082 357.641, 371.332 357.792, 368.908 358.150 M 398.995 402.351 C 393.823 403.746, 385.681 409.030, 383.445 412.443 C 382.607 413.722, 381.418 417.479, 380.801 420.792 C 379.463 427.988, 380.228 430.373, 386.689 439.150 C 394.118 449.241, 393.139 448.993, 425.500 448.991 C 441.230 448.990, 455.089 448.547, 457.127 447.982 C 461.016 446.901, 465.157 443.337, 468.141 438.500 C 469.480 436.331, 469.993 433.561, 469.995 428.500 C 470.001 415.779, 463.708 406.512, 452.302 402.444 C 447.264 400.647, 405.579 400.574, 398.995 402.351 M 556.882 402.342 C 544.981 406.721, 539.022 414.368, 539.006 425.282 C 538.999 430.027, 540.747 434.251, 545.394 440.719 C 551.206 448.810, 552.710 449.209, 579.524 449.782 C 592.237 450.053, 605.192 449.957, 608.313 449.567 C 620.320 448.066, 628.947 438.113, 628.983 425.718 C 629.011 415.989, 625.144 409.568, 616 404.161 L 611.500 401.500 586 401.256 C 566.745 401.071, 559.614 401.337, 556.882 402.342 M 765 460.904 L 765 465 776.250 465.003 C 782.438 465.004, 795.938 465.301, 806.250 465.661 L 825 466.316 824.995 461.908 L 824.990 457.500 794.995 457.154 L 765 456.808 765 460.904 M 471.500 495.262 C 462.150 495.783, 431.941 496.164, 404.369 496.108 C 374.103 496.047, 352.112 496.410, 348.873 497.024 C 341.762 498.373, 332.907 502.645, 325.316 508.390 C 319.146 513.060, 316.645 516.543, 311.689 527.369 L 309.204 532.796 314.517 530.363 C 325.534 525.320, 327.273 525.232, 398.927 526.097 C 435.463 526.538, 465.630 526.729, 465.966 526.521 C 466.302 526.313, 514.485 526.053, 573.039 525.944 C 670.553 525.761, 680.041 525.888, 685.940 527.449 C 689.482 528.386, 694.095 530.028, 696.190 531.097 C 698.286 532.166, 700 532.685, 700 532.249 C 700 531.814, 698.003 528.048, 695.563 523.879 C 688.911 512.515, 682.190 505.698, 673.315 501.311 L 665.815 497.604 641.157 496.830 C 548.859 493.934, 502.955 493.509, 471.500 495.262 M 790.692 510.481 C 785.038 511.938, 779.555 516.790, 777.902 521.796 C 774.250 532.861, 782.847 544.987, 794.349 544.996 C 802.902 545.003, 810.431 539.674, 813.603 531.370 C 818.592 518.306, 805.753 506.600, 790.692 510.481 M 205.500 511.147 C 198.604 513.694, 192.962 519.970, 191.547 526.666 C 189.918 534.376, 195.599 543.154, 204.391 546.511 C 208.697 548.156, 209.225 548.157, 214.221 546.535 C 225.223 542.962, 230.628 535.587, 229.776 525.312 C 229.276 519.287, 227.002 515.502, 222.187 512.682 C 218.389 510.458, 209.564 509.646, 205.500 511.147 M 334.782 547.556 C 322.944 549.393, 313.506 552.845, 305.161 558.393 C 293.682 566.024, 289.566 572.075, 282.981 591 C 279.847 600.007, 279.672 601.253, 279.615 615 C 279.565 626.851, 279.964 631.129, 281.797 638.413 C 286.527 657.208, 295.879 667.952, 312.310 673.468 C 318.821 675.654, 321.606 676, 332.676 676 L 345.500 675.999 345.500 611.335 C 345.500 569.048, 345.154 546.590, 344.500 546.437 C 343.950 546.309, 339.577 546.813, 334.782 547.556 M 665.590 552.903 C 665.207 556.294, 664.970 585.377, 665.064 617.534 L 665.235 676 675.434 676 C 688.701 676, 695.695 674.634, 704.554 670.312 C 722.529 661.543, 729.953 646.669, 729.985 619.362 C 730.003 603.473, 727.706 594.120, 719.888 578.262 C 715.823 570.017, 713.690 566.982, 708.932 562.676 C 699.580 554.213, 686.405 548.609, 672.914 547.355 L 666.288 546.740 665.590 552.903 M 367.520 549.032 C 367.871 549.600, 368.195 578.409, 368.242 613.054 L 368.326 676.044 386.413 675.772 L 404.500 675.500 404.757 611.750 L 405.015 548 385.948 548 C 373.098 548, 367.090 548.336, 367.520 549.032 M 428.023 612 L 428.001 676 446 676 L 464 676 464 612 L 464 548 446.022 548 L 428.045 548 428.023 612 M 487 612 L 487 676 505.500 676 L 524 676 524.003 632.250 C 524.004 608.188, 524.300 579.388, 524.661 568.250 L 525.317 548 506.159 548 L 487 548 487 612 M 547.172 611.667 C 547.352 646.409, 547.725 674.984, 548 675.167 C 548.275 675.350, 556.218 675.358, 565.651 675.185 L 582.801 674.871 583.190 612.185 C 583.403 577.708, 583.560 549.425, 583.539 549.334 C 583.518 549.243, 575.252 549.018, 565.172 548.834 L 546.844 548.500 547.172 611.667 M 606.398 609.750 C 606.650 643.163, 606.888 671.737, 606.928 673.250 L 607 676 624.750 676 L 642.500 676 642.572 612.500 L 642.643 549 624.292 549 L 605.941 549 606.398 609.750 M 279.020 684.128 C 279.099 705.641, 287.020 720.945, 301.855 728.250 L 308.456 731.500 337.978 732.054 C 354.215 732.359, 440.400 732.472, 529.500 732.305 C 709.285 731.968, 699.927 732.324, 711.683 725.369 C 721.891 719.331, 725.491 715.372, 727.972 707.462 C 730.130 700.581, 731.389 682.056, 729.807 680.473 C 729.435 680.102, 727.864 680.994, 726.315 682.456 C 722.296 686.251, 712.718 691.394, 704 694.438 L 696.500 697.057 504.500 696.779 L 312.500 696.500 306.033 694.155 C 297.889 691.202, 289.159 686.815, 285.399 683.787 C 278.484 678.219, 278.998 678.191, 279.020 684.128 M 146.090 690.873 C 144.765 691.244, 142.786 692.746, 141.692 694.210 C 139.973 696.513, 139.869 697.268, 140.920 699.807 C 142.469 703.548, 145.708 705, 152.500 705 C 158.957 705, 162.399 703.613, 163.851 700.428 C 165.182 697.506, 163.621 692.403, 160.961 690.979 C 158.929 689.891, 149.831 689.827, 146.090 690.873 M 185.500 690.618 C 184.400 690.871, 182.496 691.292, 181.268 691.553 C 179.191 691.996, 176 696.504, 176 698.996 C 176 699.598, 177.105 701.195, 178.455 702.545 C 180.587 704.678, 181.816 705, 187.820 705 C 193.297 705, 195.277 704.570, 197.365 702.927 C 200.480 700.477, 200.864 696.236, 198.250 693.167 C 196.473 691.079, 189.529 689.691, 185.500 690.618 M 217.259 690.647 C 212.276 691.736, 210.305 699.156, 214.088 702.580 C 215.627 703.972, 218.093 704.567, 223.454 704.838 C 230.007 705.168, 230.944 704.977, 232.866 702.914 C 235.461 700.128, 235.615 695.981, 233.231 693.037 C 231.846 691.327, 230.163 690.777, 225.481 690.504 C 222.191 690.313, 218.491 690.377, 217.259 690.647 M 781.229 690.669 C 779.723 691.275, 777 696.260, 777 698.411 C 777 699.242, 777.985 700.840, 779.189 701.961 C 782.525 705.070, 793.848 704.895, 797.589 701.677 C 799.936 699.658, 800.199 698.876, 799.602 695.689 C 799.218 693.646, 798.077 691.576, 797.023 691.012 C 795.103 689.985, 783.554 689.734, 781.229 690.669 M 815.431 692.306 C 812.303 694.997, 811.895 699.122, 814.476 701.974 C 818.257 706.152, 833.603 705.479, 835.984 701.030 C 837.593 698.024, 837.173 694.173, 835 692 C 833.358 690.358, 831.667 690, 825.556 690 C 819.224 690, 817.711 690.345, 815.431 692.306 M 854.030 691.279 C 852.672 691.967, 850.899 693.708, 850.090 695.149 C 848.771 697.499, 848.799 698.044, 850.362 700.429 C 852.778 704.117, 856.359 705.233, 864.370 704.796 C 870.091 704.484, 871.555 704.033, 873.120 702.100 C 875.570 699.075, 875.515 694.515, 873 692 C 871.364 690.364, 869.679 690.003, 863.750 690.015 C 859.763 690.023, 855.389 690.592, 854.030 691.279 M 784.102 723.834 C 779.694 724.698, 776.490 728.833, 777.405 732.479 C 778.927 738.541, 793.051 739.967, 797.727 734.530 C 803.371 727.970, 795.304 721.637, 784.102 723.834 M 144.500 725.155 C 139.513 727.882, 138.508 733.250, 142.314 736.826 C 144.220 738.616, 145.824 739, 151.391 739 C 157.532 739, 158.422 738.731, 161.077 736.077 C 164.529 732.625, 164.641 731.564, 162.011 727.250 C 160.086 724.093, 159.836 724.001, 153.265 724.030 C 149.544 724.047, 145.600 724.553, 144.500 725.155 M 178.392 726.517 C 172.490 732.420, 177.965 739, 188.780 739 C 193.085 739, 194.556 738.535, 196.545 736.545 C 199.382 733.709, 199.692 729.986, 197.385 726.465 C 195.908 724.211, 195.134 724, 188.340 724 C 181.734 724, 180.630 724.279, 178.392 726.517 M 214.174 726.314 C 209.459 731.334, 212.537 737.358, 220.421 738.540 C 226.844 739.504, 231.551 738.387, 233.957 735.328 C 236.542 732.041, 236.535 729.950, 233.927 726.635 C 232.007 724.193, 231.286 724, 224.102 724 C 217.290 724, 216.084 724.281, 214.174 726.314 M 815.455 726.455 C 812.456 729.453, 812.351 731.905, 815.073 735.365 C 817 737.816, 817.700 738, 825.073 738 C 831.667 738, 833.336 737.664, 835 736 C 837.571 733.429, 837.544 729.961, 834.927 726.635 C 833.019 724.208, 832.264 724, 825.382 724 C 818.781 724, 817.623 724.286, 815.455 726.455 M 852.758 725.976 C 849.069 728.878, 848.750 731.549, 851.676 735.026 C 854.077 737.881, 854.508 738, 862.400 738 C 869.293 738, 870.977 737.670, 872.811 735.961 C 875.560 733.400, 875.602 730.035, 872.927 726.635 C 871.005 724.191, 870.290 724, 863.062 724 C 856.816 724, 854.771 724.392, 852.758 725.976 M 279.618 743.897 C 279.290 745.879, 279.017 761.122, 279.011 777.771 L 279 808.041 299.142 807.771 L 319.283 807.500 319.392 780.379 L 319.500 753.258 312 752.679 C 302.015 751.909, 293.413 749.109, 286.169 744.272 L 280.214 740.295 279.618 743.897 M 726.923 741.593 C 723.287 745.974, 703.527 753, 694.840 753 L 691 753 691.004 767.750 C 691.006 775.862, 691.301 788.237, 691.658 795.250 L 692.309 808 711.154 808 L 730 808 730 774.559 C 730 756.166, 729.601 740.871, 729.113 740.570 C 728.626 740.269, 727.640 740.729, 726.923 741.593 M 144.465 757.952 C 141.366 759.208, 139.667 761.778, 139.667 765.209 C 139.667 770.114, 142.858 772, 151.156 772 C 157.186 772, 158.411 771.680, 160.545 769.545 C 161.895 768.195, 163 765.925, 163 764.500 C 163 763.075, 161.895 760.805, 160.545 759.455 C 158.484 757.393, 157.164 757.010, 152.295 757.063 C 149.108 757.098, 145.584 757.498, 144.465 757.952 M 178.452 759.646 C 175.147 763.212, 175.343 766.269, 179.077 769.411 C 181.611 771.544, 183.174 772, 187.942 772 C 197.782 772, 202.042 766.137, 196.927 759.635 C 195.042 757.238, 194.224 757, 187.880 757 C 181.621 757, 180.652 757.272, 178.452 759.646 M 215.056 759.791 C 211.329 763.518, 211.255 764.961, 214.589 768.923 C 217.012 771.803, 217.612 772, 223.978 772 C 232.201 772, 235.333 770.096, 235.333 765.100 C 235.333 760.056, 232.374 757.880, 224.672 757.262 C 218.377 756.756, 217.987 756.859, 215.056 759.791 M 779.455 759.455 C 776.374 762.535, 776.322 766.014, 779.314 768.826 C 781.202 770.599, 782.831 771, 788.140 771 C 793.626 771, 794.970 770.646, 796.677 768.750 C 799.938 765.128, 800.165 764.220, 798.578 761.151 C 796.705 757.530, 795.340 757, 787.873 757 C 782.874 757, 781.512 757.397, 779.455 759.455 M 816.114 758.750 C 812.934 761.390, 812.405 766.012, 814.970 768.750 C 816.807 770.710, 818.081 771, 824.865 771 C 831.711 771, 832.914 770.721, 834.826 768.686 C 837.660 765.668, 837.576 762.913, 834.548 759.646 C 832.350 757.275, 831.376 757, 825.159 757 C 820.022 757, 817.675 757.454, 816.114 758.750 M 853.942 758.472 C 852.535 759.237, 850.840 761.056, 850.175 762.515 C 849.070 764.941, 849.257 765.457, 852.383 768.583 C 855.590 771.790, 856.211 772, 862.477 772 C 868.523 772, 869.430 771.724, 872.077 769.077 C 875.813 765.341, 875.772 762.827, 871.923 759.589 C 869.324 757.401, 867.889 757.006, 862.673 757.040 C 859.278 757.062, 855.349 757.706, 853.942 758.472 M 630.270 789.703 C 627.703 790.199, 624 794.478, 624 796.948 C 624 797.871, 625.262 799.835, 626.805 801.313 C 629.209 803.616, 630.463 804, 635.582 804 C 642.108 804, 645.536 802.350, 646.998 798.506 C 649.657 791.512, 641.937 787.449, 630.270 789.703 M 368.289 792.250 C 364.649 796.227, 364.589 798.476, 368.046 801.385 C 371.138 803.987, 372.875 804.354, 380.500 804.017 C 383.276 803.894, 385.341 803.042, 387.250 801.233 C 390.540 798.114, 390.695 796.153, 387.927 792.635 C 386.007 790.193, 385.286 790, 378.102 790 C 371.338 790, 370.086 790.287, 368.289 792.250 M 404.589 793.077 C 401.399 796.868, 401.397 797.130, 404.543 800.868 C 410.648 808.124, 426 805.222, 426 796.811 C 426 791.791, 422.999 790, 414.589 790 C 407.541 790, 407.051 790.151, 404.589 793.077 M 441.635 792.073 C 438.174 794.795, 438.154 798.858, 441.586 802.076 C 443.842 804.190, 445.076 804.490, 451.242 804.419 C 457.703 804.346, 458.520 804.097, 460.729 801.529 C 463.528 798.275, 463.194 794.583, 459.847 791.750 C 456.706 789.092, 445.164 789.297, 441.635 792.073 M 479.455 792.455 C 476.095 795.815, 476.309 799.240, 480.077 802.411 C 482.744 804.656, 484.082 805, 490.142 805 C 498.159 805, 500.377 804.106, 502.490 800.020 C 504.479 796.173, 504.425 795.751, 501.548 792.646 C 499.262 790.180, 498.510 790, 490.502 790 C 482.712 790, 481.680 790.229, 479.455 792.455 M 522.315 791.007 C 517.588 792.912, 516.720 798.449, 520.581 802.076 C 522.751 804.115, 524.168 804.500, 529.500 804.500 C 534.832 804.500, 536.249 804.115, 538.419 802.076 C 541.663 799.028, 541.708 795.617, 538.545 792.455 C 536.484 790.393, 535.164 790.010, 530.295 790.063 C 527.108 790.098, 523.517 790.523, 522.315 791.007 M 556.455 792.455 C 553.374 795.535, 553.322 799.014, 556.314 801.826 C 558.202 803.599, 559.831 804, 565.140 804 C 570.626 804, 571.970 803.646, 573.677 801.750 C 576.855 798.220, 577.177 797.200, 575.883 794.771 C 573.869 790.989, 571.786 790.065, 565.205 790.032 C 559.830 790.005, 558.550 790.359, 556.455 792.455 M 591.455 792.455 C 588.300 795.609, 588.350 798.078, 591.636 801.364 C 594.240 803.968, 596.184 804.390, 604 804.051 C 608.646 803.849, 612.427 799.843, 611.495 796.109 C 610.251 791.121, 608.287 790, 600.800 790 C 594.817 790, 593.586 790.323, 591.455 792.455 M 141.431 793.306 C 139.674 794.817, 138.750 796.607, 138.750 798.500 C 138.750 803.087, 142.921 806, 149.491 806 C 156.157 806, 159.423 804.810, 161.513 801.621 C 162.990 799.367, 162.993 798.888, 161.555 796.106 C 159.427 791.991, 157.209 791, 150.122 791 C 145.287 791, 143.587 791.451, 141.431 793.306 M 177.589 794.077 C 176.165 795.769, 175 797.562, 175 798.061 C 175 798.560, 176.315 800.438, 177.923 802.234 C 180.686 805.322, 181.205 805.495, 187.441 805.407 C 192.896 805.330, 194.467 804.910, 196.519 802.982 C 199.845 799.858, 199.781 795.760, 196.365 793.073 C 194.288 791.439, 192.295 791, 186.954 791 C 180.615 791, 180.011 791.198, 177.589 794.077 M 214.068 793.904 C 211.399 797.653, 211.462 799.263, 214.414 802.694 C 216.679 805.326, 217.306 805.497, 224.537 805.458 C 231.364 805.420, 232.460 805.150, 234.123 803.097 C 236.689 799.927, 236.477 796.387, 233.545 793.455 C 231.377 791.286, 230.219 791, 223.614 791 C 216.501 791, 216.035 791.142, 214.068 793.904 M 779.073 793.635 C 774.144 799.901, 778.374 805, 788.500 805 C 798.795 805, 803.318 799.227, 797.545 793.455 C 795.409 791.318, 794.188 791, 788.118 791 C 781.776 791, 780.958 791.238, 779.073 793.635 M 815.174 793.314 C 812.446 796.218, 812.393 799.971, 815.039 802.811 C 816.820 804.724, 818.127 805, 825.384 805 C 834.788 805, 837 803.714, 837 798.244 C 837 793.185, 833.242 791, 824.539 791 C 818.316 791, 817.056 791.311, 815.174 793.314 M 852.455 793.455 C 849.359 796.550, 849.348 799.131, 852.414 802.694 C 854.699 805.350, 855.268 805.498, 863.026 805.471 C 870.387 805.446, 871.415 805.205, 873.111 803.111 C 875.689 799.928, 875.482 796.391, 872.545 793.455 C 870.371 791.280, 869.226 791, 862.500 791 C 855.774 791, 854.629 791.280, 852.455 793.455 M 142.315 824.945 C 137.475 827.032, 136.539 833.706, 140.635 836.927 C 142.708 838.558, 144.705 839, 150 839 C 157.973 839, 162 836.685, 162 832.102 C 162 827.496, 158.153 824.843, 150.819 824.392 C 147.343 824.178, 143.517 824.427, 142.315 824.945 M 179.500 825.155 C 174.624 827.821, 173.702 832.080, 177.073 836.365 C 178.948 838.750, 179.791 839, 185.938 839 C 195.708 839, 199.916 835.155, 197.379 828.545 C 195.878 824.634, 184.423 822.462, 179.500 825.155 M 215.321 825.189 C 211.850 826.867, 210.527 831.185, 212.384 834.776 C 214.328 838.535, 215.597 839, 223.907 839 C 229.664 839, 230.970 838.661, 232.826 836.686 C 235.902 833.411, 235.698 828.694, 232.365 826.073 C 230.322 824.465, 228.357 824.015, 223.615 824.068 C 220.252 824.105, 216.520 824.609, 215.321 825.189 M 369.017 825.286 C 365.402 827.115, 364.236 831.185, 366.387 834.467 C 368.726 838.038, 372.401 839.251, 379.399 838.763 C 384.034 838.439, 385.694 837.861, 387.149 836.065 C 389.691 832.925, 389.468 829.377, 386.545 826.455 C 384.455 824.364, 383.157 824.002, 377.795 824.015 C 374.333 824.023, 370.382 824.595, 369.017 825.286 M 405.635 826.073 C 402.216 828.762, 402.155 832.858, 405.487 835.987 C 407.597 837.970, 408.990 838.316, 414.689 838.277 C 420.698 838.235, 421.647 837.949, 423.703 835.559 C 426.655 832.127, 426.610 829.519, 423.545 826.455 C 421.450 824.359, 420.153 824, 414.680 824 C 409.709 824, 407.678 824.465, 405.635 826.073 M 442.819 825.536 C 439.337 827.427, 438.530 830.190, 440.401 833.809 C 442.481 837.831, 446.799 839.404, 453.786 838.684 C 457.963 838.253, 459.971 837.515, 461.250 835.937 C 463.696 832.920, 463.430 829.339, 460.545 826.455 C 458.448 824.357, 457.176 824.006, 451.795 824.040 C 448.254 824.063, 444.327 824.717, 442.819 825.536 M 479.455 826.455 C 476.357 829.552, 476.348 832.132, 479.420 835.694 C 481.721 838.361, 482.243 838.495, 489.957 838.390 C 496.978 838.295, 498.406 837.967, 500.537 835.966 C 503.670 833.022, 503.673 829.582, 500.545 826.455 C 498.344 824.253, 497.257 824, 490 824 C 482.743 824, 481.656 824.253, 479.455 826.455 M 521.017 825.286 C 515.649 828.002, 516.095 835.927, 521.738 838.108 C 526.211 839.837, 534.616 838.709, 537.508 835.993 C 538.878 834.705, 540 833.076, 540 832.373 C 540 829.765, 537.706 826.187, 535.343 825.110 C 532.088 823.627, 524.101 823.725, 521.017 825.286 M 557.315 825.007 C 554.238 826.247, 552.796 829.332, 553.916 832.279 C 555.697 836.965, 557.685 838, 564.897 838 C 570.664 838, 571.969 837.662, 573.826 835.686 C 576.674 832.653, 576.578 829.487, 573.545 826.455 C 571.484 824.393, 570.164 824.010, 565.295 824.063 C 562.108 824.098, 558.517 824.523, 557.315 825.007 M 591.455 826.455 C 588.400 829.509, 588.345 832.126, 591.261 835.517 C 593.093 837.647, 594.667 838.250, 599.543 838.692 C 605.037 839.190, 605.845 839.001, 608.782 836.530 C 612.770 833.175, 612.846 830.692, 609.077 826.923 C 606.483 824.329, 605.465 824, 600.031 824 C 594.864 824, 593.526 824.383, 591.455 826.455 M 627.189 826.039 C 623.969 829.038, 624.330 833.259, 628.077 836.411 C 630.639 838.567, 632.157 839, 637.154 839 C 642.452 839, 643.496 838.658, 646.077 836.077 C 649.668 832.486, 649.723 831.012, 646.411 827.077 C 643.960 824.164, 643.437 824, 636.600 824 C 630.713 824, 628.972 824.377, 627.189 826.039 M 781.894 825.114 C 778.247 826.453, 776.593 830.379, 778.234 833.802 C 779.940 837.358, 783.473 838.968, 789.615 838.985 C 797.625 839.008, 801.716 834.634, 799.379 828.545 C 797.885 824.652, 788.285 822.769, 781.894 825.114 M 817.500 825.099 C 812.434 828.012, 811.598 832.689, 815.455 836.545 C 817.599 838.690, 818.805 839, 825 839 C 831.279 839, 832.385 838.706, 834.657 836.434 C 836.735 834.356, 837.103 833.264, 836.589 830.697 C 836.241 828.953, 835.289 826.860, 834.474 826.046 C 832.599 824.171, 820.308 823.485, 817.500 825.099 M 855.655 825.025 C 849.868 826.760, 848.303 832.394, 852.455 836.545 C 854.619 838.710, 855.785 839, 862.320 839 C 868.303 839, 870.238 838.601, 872.365 836.927 C 876.597 833.599, 875.620 827.988, 870.316 825.163 C 867.823 823.835, 859.873 823.760, 855.655 825.025 M 219 857.740 C 211.655 858.598, 208.363 866.174, 213.314 870.826 C 215.192 872.589, 216.835 873, 222.010 873 C 227.572 873, 228.750 872.655, 231.195 870.313 C 232.738 868.835, 234 866.565, 234 865.267 C 234 862.406, 229.834 858, 227.127 858 C 226.047 858, 224.564 857.850, 223.832 857.666 C 223.099 857.482, 220.925 857.516, 219 857.740 M 256.504 857.773 C 246.361 858.350, 242.517 864.892, 249.077 870.411 C 251.564 872.504, 253.199 873, 257.609 873 C 269.335 873, 275.404 866.828, 269.750 860.655 C 267.148 857.814, 264.792 857.302, 256.504 857.773 M 335.024 857.972 C 329.158 859.437, 326.228 865.109, 329.282 869.087 C 331.394 871.837, 334.691 873, 340.378 873 C 344.715 873, 346.468 872.501, 348.611 870.658 C 351.922 867.810, 352.289 862.844, 349.402 859.958 C 347.138 857.694, 340.056 856.715, 335.024 857.972 M 449 857.670 C 442.880 858.624, 441.824 859.188, 440.568 862.177 C 437.809 868.739, 442 873, 451.212 873 C 456.478 873, 457.494 872.659, 460.147 870.007 C 462.415 867.738, 462.976 866.468, 462.466 864.757 C 461.202 860.524, 458.995 858, 456.559 858 C 455.241 858, 453.564 857.838, 452.832 857.640 C 452.099 857.443, 450.375 857.456, 449 857.670 M 667.049 857.966 C 660.731 859.547, 658.892 865.983, 663.455 870.545 C 665.564 872.655, 666.836 873, 672.500 873 C 678.164 873, 679.436 872.655, 681.545 870.545 C 686.797 865.294, 683.089 858.074, 674.812 857.436 C 672.441 857.252, 668.947 857.491, 667.049 857.966 M 746.564 858.059 C 737.950 858.850, 736 860.131, 736 865 C 736 870.443, 740.767 872.924, 751.327 872.976 C 755.346 872.996, 756.643 872.511, 759.077 870.077 C 763.720 865.434, 762.621 858.956, 757 857.831 C 755.625 857.556, 750.929 857.659, 746.564 858.059 M 146.500 859.155 C 141.273 862.013, 140.717 865.870, 144.923 870.077 C 149.024 874.178, 155.447 874.230, 159.313 870.195 C 162.700 866.660, 162.714 863.987, 159.364 860.636 C 157.354 858.626, 155.750 858.007, 152.614 858.030 C 150.351 858.047, 147.600 858.553, 146.500 859.155 M 178.229 858.669 C 177.530 858.951, 176.257 860.536, 175.400 862.193 C 174.116 864.676, 174.056 865.721, 175.058 868.141 C 176.684 872.065, 178.750 873, 185.799 873 C 192.125 873, 196.268 870.883, 197.492 867.024 C 198.226 864.712, 195.716 859.489, 193.455 858.621 C 191.552 857.891, 180.073 857.927, 178.229 858.669 M 291.073 860.635 C 288.334 864.116, 288.451 865.354, 291.883 869.195 C 294.520 872.147, 295.366 872.455, 301.819 872.820 C 308.324 873.187, 309.072 873.019, 311.436 870.655 C 314.539 867.552, 314.705 864.166, 311.927 860.635 C 309.984 858.164, 309.335 858, 301.500 858 C 293.665 858, 293.016 858.164, 291.073 860.635 M 367.174 860.314 C 364.624 863.029, 364.457 865.050, 366.463 868.928 C 368.303 872.486, 369.679 873, 377.359 873 C 386.586 873, 391.008 869.190, 388.877 863.078 C 387.401 858.843, 385.386 858, 376.740 858 C 370.307 858, 369.067 858.300, 367.174 860.314 M 405 860 C 402.220 862.780, 402.424 867.515, 405.455 870.545 C 407.564 872.655, 408.836 873, 414.500 873 C 420.164 873, 421.436 872.655, 423.545 870.545 C 426.545 867.546, 426.677 864.130, 423.927 860.635 C 422.021 858.211, 421.260 858, 414.427 858 C 408.333 858, 406.641 858.359, 405 860 M 479.073 860.635 C 476.597 863.782, 476.561 864.251, 478.510 868.020 C 480.502 871.871, 482.859 873.012, 488.684 872.944 C 495.596 872.863, 500.232 871.011, 501.818 867.697 C 502.977 865.277, 502.937 864.552, 501.528 862.402 C 499.321 859.034, 496.144 858, 488.007 858 C 481.785 858, 480.952 858.246, 479.073 860.635 M 521.229 858.669 C 520.530 858.951, 519.334 860.386, 518.572 861.860 C 517.412 864.103, 517.403 865.052, 518.512 867.691 C 520.189 871.679, 522.670 873, 528.484 873 C 538.586 873, 543.411 866.320, 537.545 860.455 C 535.436 858.345, 534.205 858.011, 528.795 858.079 C 525.333 858.122, 521.928 858.388, 521.229 858.669 M 555.455 860.455 C 552.485 863.424, 552.382 865.474, 554.989 869.750 C 556.935 872.942, 557.103 873, 564.311 873 C 570.806 873, 571.916 872.718, 573.951 870.552 C 577.070 867.232, 576.920 863.188, 573.569 860.306 C 571.365 858.410, 569.734 858, 564.399 858 C 558.842 858, 557.556 858.353, 555.455 860.455 M 591.635 860.073 C 588.190 862.782, 588.114 867.205, 591.455 870.545 C 593.564 872.655, 594.836 873, 600.500 873 C 606.232 873, 607.423 872.668, 609.641 870.450 C 612.716 867.375, 612.272 863.704, 608.407 860.250 C 604.928 857.142, 595.487 857.042, 591.635 860.073 M 626.452 860.646 C 623.379 863.962, 623.337 867.118, 626.319 870.585 C 628.451 873.063, 629.226 873.277, 635.904 873.236 C 642.043 873.197, 643.543 872.838, 645.584 870.921 C 648.755 867.942, 648.739 863.648, 645.545 860.455 C 643.401 858.310, 642.195 858, 635.998 858 C 629.612 858, 628.660 858.264, 626.452 860.646 M 702.354 858.692 C 697.017 859.736, 695.023 866.468, 698.903 870.347 C 700.720 872.165, 702.213 872.500, 708.492 872.500 C 717.356 872.500, 719.455 871.086, 719.455 865.113 C 719.455 859.259, 717.832 857.976, 710.628 858.136 C 707.257 858.211, 703.534 858.461, 702.354 858.692 M 780 860 C 776.750 863.250, 776.990 867.500, 780.607 870.750 C 782.529 872.476, 784.327 873, 788.333 873 C 796.851 873, 801.571 867.940, 798.534 862.065 C 796.709 858.537, 795.307 858, 787.918 858 C 783.333 858, 781.549 858.451, 780 860 M 815.695 859.111 C 812.980 860.690, 811.905 864.429, 813.144 867.984 C 814.582 872.109, 816.645 873, 824.760 873 C 830.778 873, 831.943 872.690, 833.951 870.552 C 835.215 869.206, 836.250 866.933, 836.250 865.500 C 836.250 864.067, 835.215 861.794, 833.951 860.448 C 831.925 858.291, 830.811 858.004, 824.576 858.030 C 820.684 858.047, 816.688 858.533, 815.695 859.111 M 853.229 858.669 C 852.530 858.951, 851.281 860.490, 850.453 862.090 C 849.107 864.694, 849.114 865.320, 850.522 868.043 C 854.214 875.181, 868.131 874.463, 870.496 867.012 C 871.175 864.872, 869.541 861.166, 867.087 859.282 C 865.534 858.090, 855.745 857.657, 853.229 858.669" stroke="none" fill="#000000" fill-rule="evenodd"/>
</svg>