<svg xmlns="http://www.w3.org/2000/svg" width="1024" height="1024" viewBox="0 0 1024 1024" version="1.1">
	<path d="M 683 160.579 C 678.325 163.080, 673.915 165.698, 673.201 166.397 C 672.140 167.437, 672.761 169.116, 676.600 175.585 C 679.184 179.938, 683.068 187.171, 685.230 191.658 L 689.161 199.816 696.678 195.972 C 700.813 193.858, 705.559 191.652, 707.226 191.071 C 710.156 190.049, 710.240 189.851, 709.775 185.007 L 709.294 180 714.510 180 C 727.310 180, 736.014 183.341, 745.080 191.734 C 752.164 198.293, 757.460 208.306, 758.971 218 C 759.589 221.961, 759.988 253.858, 759.992 299.645 C 760 371.999, 759.926 375.030, 757.998 381.271 C 754.269 393.344, 745.063 402.703, 729.633 410.107 C 721.610 413.956, 720.046 414.350, 711.054 414.783 C 705.001 415.075, 699.177 414.775, 695.868 414.002 C 688.292 412.232, 673.580 406.416, 666.500 402.392 C 648.945 392.414, 647.367 386.002, 650.020 335.420 C 651.433 308.478, 653.183 303.090, 664.403 291.134 C 673.341 281.609, 688.276 277.913, 701.335 281.996 C 705.094 283.171, 709.594 285.001, 711.335 286.063 C 714.870 288.218, 718.704 288.488, 724.182 286.966 C 727.131 286.147, 728.094 285.245, 729.022 282.433 C 730.389 278.292, 730.143 277.894, 722.690 272.154 C 712.399 264.229, 698.946 261.021, 684.223 262.980 C 673.769 264.371, 668.080 266.631, 657.365 273.647 C 647.217 280.292, 643.661 284.312, 638.850 294.578 C 632.274 308.611, 631.899 311.421, 631.307 351 C 630.795 385.246, 630.850 386.720, 632.889 392.720 C 635.608 400.726, 644.054 415.026, 648.049 418.388 L 651.153 421 646.577 421 L 642 421 642 427.337 C 642 430.823, 640.772 439.935, 639.270 447.587 C 636.922 459.556, 636.544 463.945, 636.563 479 C 636.579 491.322, 637.095 499.163, 638.307 505.500 C 639.254 510.450, 640.711 523.950, 641.545 535.500 C 642.378 547.050, 643.385 558.075, 643.780 560 C 644.500 563.500, 644.500 563.500, 650.661 563.795 L 656.821 564.091 657.516 560.925 C 657.899 559.184, 658.078 548.251, 657.914 536.630 C 657.114 479.703, 657.504 440.477, 658.949 432.750 C 659.894 427.696, 660.861 425, 661.728 425 C 662.459 425, 665.756 426.362, 669.054 428.027 C 679.204 433.151, 685.659 434.332, 704 434.420 C 720.271 434.499, 720.636 434.453, 730.334 431.096 C 754.576 422.704, 769.298 407.923, 778.236 383 C 780.140 377.694, 780.203 374.842, 780.050 302 C 779.896 228.621, 779.497 217.771, 776.597 208.024 C 772.959 195.793, 764.305 181.099, 755.969 173 C 751.139 168.308, 742.229 163.398, 733.231 160.471 C 725.830 158.064, 712.175 158.775, 706.174 161.880 C 701.320 164.391, 700.045 163.938, 697.986 158.967 C 696.254 154.785, 693.225 155.111, 683 160.579 M 630 175.629 C 619.825 181.887, 607.087 189.593, 601.694 192.754 C 596.300 195.914, 585.725 202.134, 578.194 206.575 C 570.662 211.017, 557.750 218.410, 549.500 223.005 C 541.250 227.600, 530 233.905, 524.500 237.016 C 519 240.127, 509.636 245.260, 503.691 248.422 L 492.883 254.172 494.646 256.836 C 505.181 272.749, 518.439 295.501, 521.997 303.772 C 523.234 306.647, 524.554 309, 524.930 309 C 525.305 309, 536.612 302.417, 550.056 294.370 C 574.278 279.873, 657.029 231.328, 670.500 223.713 C 681.052 217.748, 681.138 217.641, 679.382 212.666 C 675.499 201.660, 660.463 176.782, 652.915 168.875 L 648.500 164.250 630 175.629 M 456.202 255.044 C 440.586 264.030, 437 266.719, 437 269.446 C 437 272.541, 441.692 281.376, 449.245 292.500 C 455.943 302.367, 468.451 323.974, 474.976 336.953 C 479.291 345.535, 482.851 350, 485.377 350 C 487.573 350, 514.242 335.239, 516.167 332.958 C 518.332 330.394, 517.334 326.634, 511.271 314.500 C 506.402 304.757, 489.837 276.286, 481.703 263.682 C 476.883 256.212, 469.847 248.933, 467.570 249.059 C 466.982 249.092, 461.866 251.785, 456.202 255.044 M 463.250 272.573 C 455.805 276.793, 455.229 279.097, 460.251 284.577 L 463.502 288.124 469.251 284.007 C 473.909 280.671, 475 279.357, 475 277.080 C 475 274.471, 471.717 268.980, 470.177 269.015 C 469.805 269.024, 466.688 270.625, 463.250 272.573 M 475.696 293.978 C 470.727 297.129, 470.143 298.718, 472.250 303.347 C 473.364 305.794, 473.876 306.024, 476.965 305.460 C 481.407 304.650, 485.947 302.302, 486.659 300.445 C 487.904 297.203, 484.597 291, 481.624 291 C 480.946 291, 478.278 292.340, 475.696 293.978 M 425.859 302.407 C 420.557 305.758, 413.312 310.695, 409.760 313.379 C 403.352 318.220, 389.333 326.709, 373 335.639 C 368.325 338.196, 359.100 343.330, 352.500 347.049 C 345.900 350.768, 334.762 356.658, 327.750 360.137 C 320.738 363.616, 315 367.047, 315 367.760 C 315 371.285, 325.590 389.327, 331.497 395.865 L 335.092 399.844 342.796 396.352 C 347.033 394.432, 359.050 387.774, 369.500 381.558 C 395.874 365.870, 419.006 352.870, 435.500 344.468 C 443.200 340.545, 451.075 336.473, 453 335.418 C 454.925 334.363, 456.652 333.423, 456.837 333.330 C 457.509 332.990, 437.296 297.233, 436.080 296.611 C 435.761 296.448, 431.162 299.056, 425.859 302.407 M 487.719 315.577 C 481.046 319.751, 480.411 322.202, 484.750 327.024 L 487.500 330.080 493 326.786 C 497.032 324.372, 498.572 322.827, 498.771 320.996 C 499.040 318.515, 495.754 312, 494.233 312 C 493.796 312, 490.864 313.610, 487.719 315.577 M 293.950 386.931 C 282.494 393.371, 271.681 402.304, 257.635 416.935 C 251.113 423.729, 249.064 426.464, 249.885 427.285 C 251.351 428.751, 261.905 427.223, 285.254 422.166 L 303.008 418.320 310.254 411.410 C 314.239 407.610, 317.645 404.177, 317.823 403.782 C 318 403.387, 316.797 401.362, 315.149 399.282 C 313.501 397.202, 310.708 392.238, 308.943 388.250 C 307.177 384.262, 305.455 381, 305.116 381 C 304.777 381, 299.753 383.669, 293.950 386.931 M 394 433.981 L 358.500 434.500 348 441.367 C 342.225 445.144, 333.450 450.847, 328.500 454.041 C 323.550 457.234, 315.477 462.469, 310.561 465.673 L 301.622 471.500 362.061 472 C 428.278 472.548, 423.188 472.038, 432.632 479.067 C 439.500 484.178, 443 491.084, 443 499.520 C 443 505.598, 439.447 521.167, 431.139 551.500 C 414.436 612.477, 400.561 666, 401.455 666 C 402.767 666, 411.623 660.602, 427.159 650.333 C 437.421 643.550, 446.240 638, 446.756 638 C 447.272 638, 451.701 635.443, 456.597 632.317 C 461.494 629.192, 470.675 623.864, 477 620.477 C 483.325 617.090, 492.233 612.110, 496.797 609.410 C 501.360 606.709, 510.810 601.119, 517.797 596.986 L 530.500 589.473 530.500 559.486 C 530.500 542.994, 530.388 510.053, 530.250 486.285 L 530 443.070 526.852 439.484 C 520.949 432.761, 522.774 432.976, 473.800 433.231 C 449.435 433.358, 413.525 433.696, 394 433.981 M 255.866 489.880 C 253.465 491.408, 250.910 493.377, 250.188 494.256 C 249.467 495.135, 246.446 505.449, 243.475 517.177 C 238.489 536.860, 230.719 565.537, 219.543 605.500 C 209.726 640.605, 206 655.064, 206 658.061 C 206 660.318, 206.988 662.188, 209.516 664.716 L 213.032 668.232 220.766 667.494 C 225.020 667.089, 263.712 666.778, 306.750 666.803 C 349.788 666.829, 385 666.674, 385 666.459 C 385 666.244, 387.293 657.165, 390.095 646.284 C 392.898 635.403, 396.307 622, 397.671 616.500 C 399.035 611, 401.442 602.225, 403.019 597 C 404.597 591.775, 406.629 584.125, 407.534 580 C 408.440 575.875, 410.464 568.450, 412.032 563.500 C 413.600 558.550, 415.412 551.800, 416.057 548.500 C 416.703 545.200, 418.068 540.250, 419.090 537.500 C 420.113 534.750, 421.836 528.182, 422.920 522.903 C 424.005 517.625, 425.816 510.875, 426.945 507.903 C 428.075 504.932, 428.999 501.219, 428.999 499.654 C 429 496.105, 425.964 491.740, 421.732 489.205 C 418.612 487.337, 415.763 487.267, 339.366 487.185 L 260.232 487.101 255.866 489.880 M 283.251 504.740 C 277.404 505.073, 276.898 505.298, 275.376 508.239 C 273.140 512.565, 272.342 515.449, 269.060 531.073 C 266.019 545.556, 266.043 548.827, 269.215 551.690 C 271.108 553.398, 274.174 553.479, 323.860 553.131 C 352.812 552.929, 378.525 552.479, 381 552.131 C 385.179 551.545, 385.663 551.158, 387.789 546.708 C 390.843 540.314, 397 517.645, 397 512.794 C 397 510.669, 396.273 507.820, 395.385 506.465 L 393.770 504 341.635 504.193 C 312.961 504.299, 286.688 504.545, 283.251 504.740 M 286.454 521.460 C 285.947 523.098, 283 536.822, 283 537.544 C 283 537.901, 303.587 537.922, 328.750 537.590 L 374.500 536.987 377.185 529.243 C 378.661 524.984, 379.899 521.224, 379.935 520.886 C 380.054 519.762, 286.803 520.334, 286.454 521.460 M 500.351 534.213 C 498.783 535.400, 497.304 536.522, 497.065 536.705 C 496.825 536.888, 496.747 547.701, 496.891 560.733 C 497.085 578.316, 497.515 585.296, 498.556 587.788 C 500.047 591.356, 500.480 591.407, 507.250 588.812 L 510 587.757 510 562.960 C 510 549.322, 509.720 537.435, 509.379 536.545 C 509.037 535.654, 507.508 534.280, 505.980 533.490 C 503.442 532.177, 502.956 532.239, 500.351 534.213 M 470.047 550.614 L 466.940 553.228 467.590 577.364 C 468.319 604.476, 468.772 606.584, 473.813 606.350 C 475.591 606.268, 478.160 605.470, 479.523 604.577 L 482 602.954 482 578.400 L 482 553.846 479.077 550.923 C 475.480 547.327, 474.013 547.276, 470.047 550.614 M 627.500 550.950 C 625.389 551.811, 613.507 559.138, 600.660 567.500 C 596.435 570.250, 590.171 574.300, 586.739 576.500 L 580.500 580.501 580.707 586.408 C 580.822 589.657, 581.325 592.725, 581.827 593.227 C 582.783 594.183, 604.936 594.553, 653.500 594.422 C 703.185 594.289, 699.326 594.452, 700.473 592.434 C 702.234 589.339, 706.237 585.880, 713.500 581.181 C 724.820 573.856, 750 554.402, 750 552.980 C 750 551.986, 722.402 551.401, 696.250 551.840 L 676 552.181 676 560.902 C 676 571.113, 675.016 572.730, 666.402 576.674 C 652.876 582.866, 636.012 581.496, 631.932 573.874 C 631.358 572.801, 630.972 567.131, 631.073 561.256 C 631.174 555.387, 630.861 550.484, 630.378 550.360 C 629.895 550.236, 628.600 550.501, 627.500 550.950 M 544.800 574.295 C 544.453 586.613, 543.954 591.245, 542.721 593.605 C 540.434 597.982, 527.371 609.854, 520.379 613.911 C 517.146 615.787, 509.550 620.362, 503.500 624.078 C 497.450 627.794, 487.325 633.723, 481 637.254 C 474.675 640.785, 466.504 645.517, 462.843 647.769 C 456.731 651.529, 446.995 657.213, 420.709 672.363 C 402.279 682.986, 410.958 682.137, 312.249 682.973 C 264.811 683.374, 222.511 683.393, 218.249 683.014 C 212.856 682.535, 208.778 681.479, 204.837 679.543 L 199.174 676.760 196.837 678.968 C 195.552 680.182, 190.787 683.867, 186.248 687.157 C 178.073 693.084, 175.344 696.129, 176.513 698.021 C 176.905 698.655, 258.720 699, 408.904 699 L 640.690 699 642.583 696.908 C 644.847 694.407, 678.010 671.190, 693.500 661.262 C 705.903 653.313, 775.194 607.040, 790.500 596.485 C 796 592.692, 806.363 584.807, 813.529 578.962 C 820.695 573.118, 827.744 567.558, 829.195 566.608 C 832.965 564.138, 833.548 561.862, 830.950 559.759 C 829.097 558.258, 826.615 558, 814.050 558 C 805.949 558, 791.148 558.296, 781.160 558.658 L 763 559.316 762.986 567.908 C 762.969 579.012, 762.530 580.407, 758.608 581.825 C 753.774 583.573, 752.054 583.273, 751 580.500 C 750.477 579.125, 749.418 578, 748.647 578 C 747.034 578, 723.710 594.089, 717 599.830 C 713.637 602.707, 712.184 604.864, 711.248 608.363 C 709.357 615.434, 708.778 615.551, 682.726 614.131 C 664.240 613.123, 616.470 612.491, 593.791 612.954 C 590.651 613.019, 585.926 613.725, 583.291 614.525 C 576.686 616.529, 571.690 616.379, 568.861 614.091 C 566.596 612.261, 566.480 611.517, 566 595.841 C 565.725 586.854, 565.791 578.035, 566.146 576.245 C 566.980 572.042, 569.297 570.209, 581.750 563.905 C 587.388 561.052, 592 558.589, 592 558.433 C 592 558.277, 581.483 558.136, 568.629 558.120 L 545.257 558.091 544.800 574.295 M 442.306 570.414 L 439.500 572.828 439.500 595.761 C 439.500 620.636, 439.784 622.021, 444.872 621.978 C 446.318 621.966, 448.625 621.092, 450 620.036 L 452.500 618.117 452.819 595.582 L 453.137 573.046 450.614 570.523 C 447.468 567.377, 445.860 567.356, 442.306 570.414 M 265.842 579.325 C 259.629 581.084, 250.571 586.542, 245.348 591.674 C 239.772 597.152, 237.537 604.267, 237.516 616.601 C 237.501 625.046, 237.752 626.195, 241 632.550 C 247.246 644.770, 259.146 652, 273.014 652 C 283.661 652, 289.823 649.151, 299.255 639.867 C 309.815 629.471, 311.508 625.610, 311.473 612 C 311.448 602.632, 311.161 600.957, 308.812 596.460 C 305.590 590.292, 298.425 583.518, 292.221 580.774 C 286.385 578.192, 272.533 577.432, 265.842 579.325 M 351.973 584.646 C 348.128 587.206, 347 589.089, 347.004 592.941 C 347.008 597.418, 350.189 602.741, 353.645 604.055 C 359.326 606.215, 367.552 600.534, 368.664 593.683 C 369.183 590.485, 368.833 589.633, 365.727 586.527 C 362.904 583.704, 361.426 583, 358.323 583 C 356.190 583, 353.332 583.741, 351.973 584.646 M 830.500 586.186 C 829.400 586.805, 826.923 588.704, 824.996 590.406 C 818.423 596.209, 795.052 612.087, 700.666 674.872 L 647.492 710.244 647.850 728.872 C 648.047 739.117, 648.366 747.667, 648.559 747.871 C 649.170 748.519, 657.332 743.368, 685.294 724.686 C 710.554 707.810, 727.143 696.990, 757.500 677.592 C 764.100 673.374, 773.180 667.353, 777.678 664.212 C 782.175 661.070, 789.329 656.291, 793.574 653.590 C 800.787 649.003, 801.380 648.799, 802.606 650.476 C 803.327 651.463, 804.223 654.304, 804.596 656.790 C 805.355 661.853, 804.566 679.515, 803.456 682.315 C 802.791 683.992, 803.220 684.079, 809.118 683.466 C 817.929 682.549, 827.915 680.480, 832.234 678.676 L 835.853 677.164 834.176 671.332 C 832.720 666.266, 832.535 660.706, 832.768 629 C 832.916 608.925, 833.293 590.813, 833.606 588.750 C 834.209 584.780, 833.718 584.375, 830.500 586.186 M 267.753 593.457 C 257.859 597.249, 251.698 606.384, 251.571 617.453 C 251.510 622.756, 251.903 624.184, 254.279 627.299 C 259.298 633.880, 263.536 636.378, 270.370 636.787 C 275.746 637.108, 277.300 636.744, 283 633.827 C 288.929 630.792, 289.793 629.929, 292.841 624 C 295.864 618.119, 296.149 616.833, 295.834 610.496 C 295.572 605.222, 294.930 602.711, 293.236 600.331 C 288.677 593.928, 275.676 590.421, 267.753 593.457 M 345.388 624.037 C 339.711 626.847, 337.315 631.396, 338.932 636.295 C 340.473 640.962, 345.233 645, 349.194 645 C 353.842 645, 360 638.447, 360 633.500 C 360 630.494, 359.242 629.006, 356.118 625.882 C 351.641 621.406, 350.945 621.286, 345.388 624.037 M 178.734 721.342 C 178.893 725.279, 179.283 733.495, 179.601 739.601 L 180.179 750.702 212.339 751.366 C 248.050 752.104, 571.835 752.009, 609.250 751.249 L 633 750.768 633 732.494 L 633 714.221 405.722 714.202 L 178.445 714.184 178.734 721.342 M 619.388 760.260 L 606.276 761.209 605.638 768.755 C 605.287 772.906, 605.001 781.521, 605.002 787.901 L 605.004 799.500 619.490 799.428 C 627.458 799.389, 634.161 799.164, 634.387 798.928 C 635.040 798.246, 633.774 758.983, 633.104 759.155 C 632.772 759.241, 626.600 759.738, 619.388 760.260 M 197 761.045 C 191.225 761.436, 186.214 761.810, 185.863 761.877 C 185.513 761.945, 185.016 768.188, 184.759 775.750 C 184.440 785.107, 183.762 790.908, 182.635 793.906 C 181.724 796.329, 181.096 798.354, 181.239 798.406 C 181.383 798.458, 190.221 798.368, 200.880 798.207 L 220.260 797.915 219.630 793.318 C 219.284 790.789, 219 782.259, 219 774.360 L 219 760 213.250 760.168 C 210.088 760.260, 202.775 760.655, 197 761.045" stroke="none" fill="#000000" fill-rule="evenodd"/>
</svg>