<svg xmlns="http://www.w3.org/2000/svg" width="1024" height="1024" viewBox="0 0 1024 1024" version="1.1">
	<path d="M 538.867 114.750 C 532.009 121.896, 531.477 122.785, 505.314 170.834 C 500.123 180.367, 494.104 191.063, 491.938 194.601 C 489.772 198.140, 488 201.237, 488 201.484 C 488 201.731, 484.630 207.775, 480.511 214.916 C 476.392 222.057, 471.805 230.509, 470.318 233.700 C 468.830 236.890, 466.495 241.300, 465.129 243.500 C 460.530 250.906, 450.853 268.239, 446.762 276.401 C 444.529 280.855, 439.844 289.497, 436.351 295.605 C 432.858 301.712, 430 306.956, 430 307.259 C 430 307.561, 428.365 310.664, 426.366 314.154 C 421.619 322.444, 413.372 337.432, 404.992 353 C 401.292 359.875, 395.883 369.550, 392.973 374.500 C 390.063 379.450, 385.463 387.536, 382.750 392.469 C 380.038 397.402, 375.645 405.118, 372.989 409.615 C 370.333 414.112, 363.089 427.400, 356.891 439.145 C 350.693 450.890, 343.179 464.541, 340.193 469.481 C 337.206 474.420, 332.049 483.645, 328.732 489.981 C 325.414 496.316, 318.092 509.600, 312.459 519.500 C 306.827 529.400, 297.959 545.375, 292.753 555 C 287.547 564.625, 280.831 576.550, 277.829 581.500 C 274.827 586.450, 268.633 597.475, 264.064 606 C 259.495 614.525, 254.923 622.678, 253.904 624.118 C 252.886 625.557, 250.410 629.832, 248.402 633.618 C 246.394 637.403, 241.492 646.350, 237.508 653.500 C 233.525 660.650, 227.228 672.125, 223.515 679 C 214.822 695.099, 208.448 706.373, 198.922 722.500 C 194.699 729.650, 190.226 737.525, 188.983 740 C 186.196 745.548, 173.302 765.260, 166.809 773.899 C 163.075 778.868, 162 781.129, 162 784.013 C 162 787.626, 162.117 787.744, 166.250 788.310 C 168.588 788.630, 281.200 788.934, 416.500 788.985 C 551.800 789.036, 720.829 789.140, 792.121 789.216 C 921.019 789.354, 921.757 789.344, 924.536 787.320 L 927.330 785.284 924.820 780.892 C 923.440 778.476, 918.822 771.100, 914.559 764.500 C 910.295 757.900, 904.815 748.551, 902.381 743.725 C 899.946 738.899, 895.965 731.846, 893.533 728.052 C 891.101 724.258, 887.909 718.756, 886.440 715.827 C 884.971 712.897, 881.864 707.350, 879.537 703.500 C 873.283 693.156, 861.790 672.566, 857.495 664.012 C 855.427 659.893, 851.395 652.468, 848.536 647.512 C 845.677 642.555, 840.744 633.598, 837.576 627.606 C 834.407 621.614, 829.005 611.939, 825.570 606.106 C 819.223 595.324, 812.978 584.294, 804.563 569 C 801.991 564.325, 798.623 558.475, 797.078 556 C 795.534 553.525, 789.204 542.500, 783.012 531.500 C 776.820 520.500, 770.291 509.025, 768.502 506 C 766.714 502.975, 764.465 498.925, 763.504 497 C 762.543 495.075, 758.662 488.260, 754.879 481.856 C 751.095 475.451, 748 469.973, 748 469.681 C 748 469.221, 742.984 460.045, 723.576 425 C 721.291 420.875, 717.592 414.350, 715.356 410.500 C 711.418 403.720, 708.242 398.177, 691.294 368.500 C 686.896 360.800, 679.781 347.975, 675.481 340 C 671.181 332.025, 665.636 321.900, 663.158 317.500 C 660.680 313.100, 655.400 303.425, 651.426 296 C 647.451 288.575, 641.117 277.137, 637.350 270.582 C 621.798 243.523, 618.743 238.054, 613.942 228.681 C 611.176 223.280, 607.582 217.025, 605.956 214.781 C 604.330 212.536, 603 210.243, 603 209.685 C 603 209.127, 599.450 202.332, 595.112 194.585 C 590.773 186.838, 585.857 177.800, 584.187 174.500 C 582.517 171.200, 577.503 162.654, 573.046 155.509 C 568.588 148.364, 561.790 136.123, 557.939 128.306 C 551.478 115.195, 547.687 110, 544.578 110 C 543.944 110, 541.374 112.138, 538.867 114.750 M 538.779 228.500 C 536.350 233.450, 531.622 242.450, 528.273 248.500 C 524.924 254.550, 518.656 265.931, 514.342 273.790 C 510.029 281.650, 504.402 291.627, 501.838 295.962 C 497.449 303.382, 488.934 318.996, 474.325 346.411 C 470.834 352.962, 467.579 358.812, 467.091 359.411 C 466.603 360.010, 461.826 368.600, 456.475 378.500 C 451.125 388.400, 445.536 398.300, 444.056 400.500 C 442.576 402.700, 439.438 408.325, 437.084 413 C 434.729 417.675, 429.741 426.900, 425.998 433.500 C 422.256 440.100, 415.814 451.575, 411.683 459 C 407.552 466.425, 401.507 477.225, 398.250 483 C 387.303 502.407, 375.264 524.442, 371.506 531.947 C 369.455 536.042, 366.625 541.217, 365.218 543.447 C 363.810 545.676, 358.652 554.925, 353.756 564 C 348.859 573.075, 341.701 585.900, 337.848 592.500 C 329.326 607.101, 311.491 638.392, 305.075 650 C 302.491 654.675, 298.329 662.100, 295.826 666.500 C 270.790 710.513, 261 728.167, 261 729.300 C 261 729.509, 388.722 729.640, 544.826 729.590 L 828.652 729.500 821.962 718 C 818.282 711.675, 813.599 703.177, 811.556 699.115 C 806.060 688.195, 789.825 659.219, 781.515 645.500 C 777.517 638.900, 772.953 631.058, 771.373 628.073 C 769.793 625.089, 766.474 618.789, 763.998 614.073 C 761.522 609.358, 757.209 601.675, 754.414 597 C 745.515 582.117, 744.732 580.737, 737.979 568 C 734.333 561.125, 726.504 547.175, 720.581 537 C 714.657 526.825, 707.588 514.225, 704.872 509 C 702.156 503.775, 699.111 498.150, 698.107 496.500 C 695.324 491.928, 670.629 448.114, 667.953 443 C 666.657 440.525, 662.826 433.775, 659.439 428 C 656.052 422.225, 651.126 413.675, 648.492 409 C 645.858 404.325, 640.733 395.243, 637.102 388.817 C 629.889 376.052, 625.346 367.779, 617.160 352.500 C 611.321 341.601, 592.929 308.852, 581.498 289 C 577.539 282.125, 571.321 270.650, 567.680 263.500 C 564.040 256.350, 558.010 245.244, 554.280 238.821 C 550.551 232.397, 546.532 225.422, 545.349 223.321 L 543.197 219.500 538.779 228.500 M 584 343.553 C 579.325 344.875, 573.700 346.382, 571.500 346.903 C 566.398 348.110, 533.828 348.665, 528.355 347.638 L 524.210 346.860 522.153 353.180 C 519.921 360.035, 510.517 392.989, 506.651 407.500 C 505.333 412.450, 502.210 423.475, 499.712 432 C 497.214 440.525, 493.077 454.700, 490.520 463.500 C 477.898 506.929, 468.474 536.715, 462.607 551.728 C 460.623 556.804, 459 561.201, 459 561.499 C 459 561.797, 460.688 561.184, 462.750 560.138 C 464.813 559.091, 470.502 556.582, 475.394 554.563 C 480.285 552.543, 489.276 548.168, 495.374 544.840 C 501.472 541.512, 508.495 537.973, 510.981 536.975 C 513.466 535.977, 524.434 530.821, 535.354 525.518 C 546.273 520.214, 555.457 516.124, 555.763 516.429 C 556.068 516.735, 555.388 520.476, 554.252 524.742 C 553.116 529.009, 551.889 534.750, 551.524 537.500 C 550.802 542.940, 546.192 566.997, 540.372 595.695 L 536.681 613.889 532.346 610.073 C 527.792 606.065, 514.168 596.386, 511.802 595.478 C 510.650 595.035, 510.555 596.576, 511.232 604.723 C 511.679 610.101, 512.936 619.900, 514.026 626.500 C 515.116 633.100, 517.129 649.300, 518.500 662.500 C 521.199 688.494, 522.018 695.088, 522.691 696.257 C 523.121 697.004, 526.481 693.192, 535.698 681.500 C 543.381 671.753, 575.697 633.267, 584.690 623.155 C 589.260 618.015, 593 613.350, 593 612.788 C 593 612.226, 591.987 611.990, 590.750 612.263 C 584.679 613.601, 567.640 618.216, 563.907 619.533 C 561.587 620.352, 559.523 620.856, 559.321 620.654 C 559.119 620.452, 560.583 616.510, 562.574 611.893 C 564.566 607.277, 567.937 598.482, 570.067 592.350 C 574.942 578.311, 593.330 532.322, 596.997 525 C 598.512 521.975, 601.782 513.650, 604.265 506.500 C 606.747 499.350, 609.705 491.475, 610.839 489 C 621.264 466.231, 628.878 446.545, 627.711 445.378 C 627.480 445.147, 623.288 446.807, 618.396 449.068 C 613.503 451.328, 606.800 454.210, 603.500 455.471 C 600.200 456.733, 593.206 459.564, 587.959 461.763 C 582.711 463.961, 574.105 467.375, 568.833 469.350 C 563.561 471.324, 555.255 474.803, 550.374 477.081 C 542.540 480.737, 534.512 484, 533.349 484 C 533.129 484, 533.633 482.677, 534.469 481.059 C 535.306 479.442, 537.064 475.280, 538.378 471.809 C 539.691 468.339, 542.339 461.900, 544.262 457.500 C 546.185 453.100, 550.464 443.200, 553.772 435.500 C 557.080 427.800, 561.683 417.450, 564.001 412.500 C 566.318 407.550, 569.999 399, 572.180 393.500 C 574.361 388, 577.256 381.590, 578.612 379.256 C 582.066 373.311, 595.604 345.972, 596.442 343.250 C 597.348 340.308, 595.296 340.358, 584 343.553 M 296.375 895.906 C 295.017 898.767, 294.817 901.650, 295.231 912.474 C 295.789 927.110, 296.336 928.757, 303.590 937.664 C 308.290 943.434, 308.969 945.951, 306.401 948.082 C 305.522 948.812, 302.890 951.905, 300.552 954.955 C 296.459 960.296, 296.277 960.842, 295.614 969.770 C 295.048 977.381, 295.224 979.671, 296.597 982.564 C 299.989 989.712, 295.087 989.351, 387.478 989.252 C 433.115 989.203, 470.915 989.450, 471.478 989.800 C 472.040 990.150, 478.800 990.256, 486.500 990.035 C 509.438 989.376, 522.046 989.453, 530.250 990.302 C 535.515 990.848, 538 990.767, 538 990.052 C 538 988.807, 568.604 988.550, 569.370 989.789 C 569.638 990.223, 575.402 990.743, 582.179 990.944 C 588.955 991.146, 596.240 991.366, 598.366 991.434 C 600.647 991.506, 602.431 991.041, 602.715 990.301 C 603.433 988.428, 728.611 988.468, 730.484 990.341 C 732.350 992.207, 744.625 991.801, 744.167 989.889 C 743.983 989.125, 744.153 988.820, 744.544 989.210 C 744.934 989.601, 746.827 989.264, 748.749 988.460 C 752.887 986.731, 753.317 986.679, 752.500 988 C 751.494 989.628, 752.642 989.140, 754.128 987.308 C 755.060 986.158, 755.099 985.857, 754.250 986.367 C 752.376 987.493, 752.744 986.256, 754.935 984.065 C 758.788 980.212, 760.175 969.643, 757.604 963.718 C 756.836 961.948, 752.861 956.655, 748.771 951.955 L 741.334 943.410 747.270 936.957 C 756.213 927.233, 756.485 926.497, 756.493 912 C 756.499 901.179, 756.224 899.030, 754.444 896 L 752.387 892.500 525.203 892.470 L 298.019 892.441 296.375 895.906 M 372.657 914.250 C 371.313 916.038, 366.182 925.150, 361.254 934.500 C 356.327 943.850, 350.879 953.726, 349.148 956.446 C 347.417 959.166, 346 962.148, 346 963.073 C 346 967.147, 348.050 967.445, 376.256 967.473 C 401.004 967.498, 403.363 967.352, 404.385 965.734 C 405.293 964.296, 404.441 961.886, 399.785 952.734 C 387.916 929.404, 377.359 911.040, 375.801 911.012 C 375.416 911.006, 374.002 912.462, 372.657 914.250 M 435.234 941.667 C 435.436 961.919, 435.801 968.434, 436.750 968.750 C 437.729 969.077, 438 963.305, 438 942.083 C 438 918.546, 437.801 915, 436.484 915 C 435.160 915, 435.001 918.385, 435.234 941.667 M 488.478 924.580 C 485.377 929.850, 482.359 935.587, 481.771 937.330 C 481.184 939.074, 479.244 942.525, 477.461 945 C 473.934 949.895, 471 956.238, 471 958.967 C 471 959.915, 471.880 961.486, 472.955 962.459 C 474.766 964.099, 476.589 964.165, 497.705 963.364 C 524.593 962.345, 524.054 962.689, 516.448 951.402 C 513.890 947.606, 511.364 943.375, 510.834 942 C 510.305 940.625, 508.601 937.475, 507.047 935 C 505.493 932.525, 503.638 928.830, 502.924 926.788 C 502.210 924.747, 500.361 921.597, 498.815 919.788 C 497.269 917.980, 496.004 916.163, 496.002 915.750 C 495.994 913.175, 493.397 916.224, 488.478 924.580 M 559.350 924.154 C 559.708 929.188, 560 941.596, 560 951.727 C 560 968.731, 560.134 970.121, 561.750 969.810 C 563.002 969.569, 563.484 968.551, 563.444 966.236 C 563.414 964.456, 563.301 952.200, 563.194 939 C 563.001 915.170, 562.985 915, 560.850 915 C 558.760 915, 558.718 915.253, 559.350 924.154 M 619.500 924.470 C 614.702 926.207, 611 930.184, 611 933.601 C 611 936.915, 614.859 940.606, 621.307 943.457 C 628.971 946.846, 629.868 948.290, 626.342 951.563 C 623.443 954.253, 623.149 954.281, 613.638 952.792 C 611.311 952.427, 609.086 955.486, 610.586 956.986 C 611.159 957.559, 614.133 958.553, 617.194 959.195 C 627.711 961.401, 636.105 955.706, 634.551 947.420 C 633.835 943.604, 631.104 941.347, 622.706 937.633 C 619.568 936.246, 617.007 934.523, 617.015 933.805 C 617.062 929.841, 622.398 927.456, 626.482 929.575 C 630.297 931.554, 633 931.395, 633 929.191 C 633 924.273, 626.410 921.969, 619.500 924.470 M 638.537 926.169 C 638.920 927.913, 640.468 932.300, 641.978 935.919 C 643.487 939.539, 645.982 946.100, 647.523 950.500 C 650.811 959.891, 651.164 960.400, 653.809 959.561 C 655.181 959.125, 657.228 955.677, 660.250 948.711 C 667.281 932.509, 669.599 925.199, 668.161 923.761 C 665.858 921.458, 663.653 924.495, 659.044 936.317 C 656.545 942.727, 654.252 947.978, 653.948 947.986 C 653.644 947.994, 651.622 943.447, 649.455 937.883 C 645.434 927.563, 642.372 923, 639.468 923 C 638.161 923, 637.978 923.624, 638.537 926.169 M 685.386 924.084 C 680.354 925.543, 674.008 931.891, 672.974 936.500 C 670.585 947.151, 677.165 957.495, 687.571 959.447 C 691.510 960.186, 701.929 957.495, 702.533 955.583 C 702.721 954.987, 703.030 951.237, 703.220 947.250 L 703.565 940 696.890 940 C 691.878 940, 690.070 940.374, 689.638 941.500 C 688.500 944.467, 689.967 945.880, 693.578 945.294 C 696.852 944.762, 697 944.871, 697 947.812 C 697 953.340, 689.855 955.917, 684.414 952.352 C 676.625 947.248, 677.618 934.835, 686.167 930.414 C 688.995 928.951, 690.064 928.895, 694.308 929.982 C 698.531 931.065, 699.407 931.022, 700.761 929.667 C 702.858 927.570, 701.077 925.394, 696.142 924.023 C 691.875 922.837, 689.639 922.850, 685.386 924.084 M 371.769 928.236 C 370.311 930.147, 368.113 933.689, 366.885 936.106 C 365.657 938.523, 361.994 945.151, 358.746 950.836 C 355.497 956.521, 353 961.333, 353.196 961.529 C 353.392 961.726, 363.329 962.024, 375.277 962.193 C 395.798 962.483, 397.002 962.398, 397.001 960.665 C 396.998 955.481, 379.726 927, 376.585 927 C 375.805 927, 374.999 926.496, 374.793 925.880 C 374.588 925.264, 373.227 926.324, 371.769 928.236 M 490.250 936.535 C 488.462 940.115, 487 944.384, 487 946.022 C 487 948.824, 487.234 949, 490.953 949 C 493.127 949, 496.054 949.523, 497.457 950.162 C 501.181 951.859, 501.434 950.795, 498.599 945.353 C 497.208 942.684, 495.567 938.138, 494.952 935.250 C 494.337 932.362, 493.759 930.006, 493.667 930.013 C 493.575 930.021, 492.038 932.956, 490.250 936.535 M 374.480 932.033 C 371.920 936.174, 372.453 943, 375.335 943 C 376.729 943, 379.319 933.325, 378.346 931.751 C 377.669 930.655, 375.221 930.833, 374.480 932.033 M 492 941.882 C 492 942.432, 492.450 943.160, 493 943.500 C 493.550 943.840, 494 943.668, 494 943.118 C 494 942.568, 493.550 941.840, 493 941.500 C 492.450 941.160, 492 941.332, 492 941.882 M 375.223 949.557 C 372.609 951.387, 372.295 954.792, 374.656 955.698 C 376.607 956.447, 380 952.759, 380 949.889 C 380 947.594, 378.203 947.469, 375.223 949.557 M 490 950.480 C 490 952.456, 493.479 959, 494.529 959 C 496.585 959, 497.438 953.295, 495.649 951.507 C 494.271 950.128, 490 949.352, 490 950.480" stroke="none" fill="#000000" fill-rule="evenodd"/>
</svg>