<svg xmlns="http://www.w3.org/2000/svg" width="1024" height="1024" viewBox="0 0 1024 1024" version="1.1">
	<path d="M 492.500 106.012 C 471.812 107.041, 460.672 108.483, 438 113.070 C 413.725 117.981, 397.646 122.598, 379 130.010 C 354.257 139.846, 342.368 145.959, 315.251 162.789 C 277.930 185.952, 234.329 231.517, 207.137 275.772 C 187.445 307.822, 174.142 339.894, 163.907 380 C 152.955 422.913, 151.144 485.048, 159.578 528.500 C 164.264 552.639, 173.562 581.694, 183.547 603.396 C 191.659 621.026, 197.653 631.608, 210.511 651 C 246.960 705.967, 293.607 747.719, 351.144 776.874 C 400.476 801.872, 443.083 813.108, 494.500 814.679 C 550.710 816.396, 609.382 804.576, 655.500 782.246 C 698.572 761.391, 725.189 743.369, 757.774 713 C 780.716 691.618, 800.350 666.877, 819.893 634.722 C 840.018 601.611, 854.982 558.170, 862.169 512 C 864.165 499.172, 864.429 493.694, 864.459 464.500 C 864.496 429.458, 864.210 426.167, 858.461 395.454 C 847.648 337.685, 816.435 274.580, 774.893 226.500 C 753.072 201.244, 731.241 182.360, 701 162.580 C 685.238 152.271, 682.802 150.877, 664.500 141.693 C 612.708 115.703, 551.780 103.064, 492.500 106.012 M 487.500 157.034 C 468.997 158.573, 436.938 164.383, 420.500 169.175 C 403.728 174.065, 376.068 185.664, 362.413 193.534 C 338.359 207.397, 318.620 220.454, 319.226 222.101 C 319.896 223.924, 370.163 273.883, 382 284.490 C 385.025 287.201, 402.125 303.643, 420 321.028 C 451.635 351.795, 468.869 368.093, 493.516 390.551 C 500.125 396.573, 508.900 405.052, 513.016 409.394 C 517.132 413.735, 529.950 425.926, 541.500 436.485 C 553.050 447.044, 576.252 469.142, 593.061 485.591 C 609.869 502.041, 633.917 525.175, 646.500 537 C 659.083 548.825, 680.431 569.116, 693.939 582.091 C 707.448 595.066, 726.542 613.404, 736.371 622.841 C 746.201 632.279, 754.854 640, 755.601 640 C 756.348 640, 757.885 638.185, 759.017 635.967 C 760.149 633.748, 763.891 627.561, 767.334 622.217 C 787.626 590.715, 801.699 554.922, 807.917 519 C 811.508 498.254, 812.358 487.802, 812.308 465 C 812.220 424.552, 805.428 388.723, 790.794 351.500 C 782.203 329.649, 762.008 294.234, 746.662 274.107 C 734.678 258.390, 734.083 257.545, 734.041 256.178 C 733.990 254.544, 715.672 270.672, 690.509 294.503 C 680.054 304.405, 663.850 319.678, 654.500 328.442 C 645.150 337.207, 630.975 350.707, 623 358.442 C 615.025 366.176, 598.142 382.264, 585.482 394.191 C 572.822 406.119, 559.880 418.802, 556.721 422.377 L 550.979 428.878 544.704 422.689 C 541.253 419.285, 534.283 412.755, 529.215 408.177 C 524.147 403.600, 520 399.322, 520 398.670 C 520 397.489, 562.309 355.074, 577.500 341.027 C 581.900 336.958, 594.725 324.581, 606 313.521 C 617.275 302.461, 633.025 287.288, 641 279.802 C 661.992 260.097, 698 224.264, 698 223.078 C 698 221.763, 690.070 215.935, 673.123 204.794 C 643.404 185.259, 601.304 168.085, 568.500 162.117 C 537.975 156.564, 512.422 154.960, 487.500 157.034 M 458 196.988 C 400.083 197.618, 401.337 197.440, 386.659 207.083 C 374.676 214.955, 365.936 228.377, 363.570 242.537 L 362.896 246.575 373.880 257.787 C 379.921 263.954, 385.119 269, 385.432 269 C 385.744 269, 386 266.557, 386 263.571 C 386 257.985, 386.937 256.257, 391.328 253.743 C 393.014 252.778, 418.212 252.430, 504 252.189 C 564.775 252.017, 617.306 252.165, 620.736 252.517 C 629.412 253.406, 631.236 255.117, 631.799 262.894 C 632.045 266.299, 632.551 268.953, 632.922 268.792 C 633.294 268.632, 636.259 265.575, 639.512 262 C 645.170 255.780, 649.636 251.794, 653.645 249.385 C 655.440 248.306, 655.443 248.045, 653.736 241.385 C 649.016 222.961, 636.526 207.700, 621 201.388 C 607.689 195.976, 608.089 196.008, 556.500 196.231 C 530.100 196.346, 485.775 196.686, 458 196.988 M 477.864 217.839 C 475.485 218.564, 472 222.282, 472 224.098 C 472 225.060, 473.165 227.231, 474.589 228.923 L 477.178 232 509.516 232 L 541.855 232 543.927 229.365 C 546.592 225.978, 546.546 223.715, 543.750 220.626 L 541.500 218.140 510.364 217.782 C 493.240 217.585, 478.615 217.611, 477.864 217.839 M 283.068 258.689 C 282.433 260.443, 279.979 264.044, 277.615 266.690 C 253.627 293.528, 230.794 335.669, 219.004 374.863 C 205.143 420.943, 202.086 476.029, 210.978 519.500 C 213.020 529.484, 218.342 549.549, 221.908 560.713 C 227.952 579.631, 243.994 611.219, 257.561 630.914 L 263.155 639.034 291.320 611.767 C 306.812 596.770, 327.589 576.620, 337.493 566.989 C 347.397 557.359, 373.950 531.737, 396.500 510.053 C 419.050 488.369, 443.928 464.087, 451.785 456.093 L 466.070 441.558 467.785 444.171 C 470.007 447.555, 476.500 454.434, 487.321 464.869 C 492.094 469.472, 496 473.330, 496 473.443 C 496 474.350, 457.896 512.180, 416.500 552.370 C 389 579.069, 349.850 617.305, 329.500 637.338 L 292.500 673.761 299.413 680.131 C 313.968 693.541, 339.191 712.501, 354.500 721.539 C 371.855 731.786, 398.906 744.436, 416 750.299 C 428.861 754.710, 451.052 759.229, 475.861 762.488 C 521.422 768.473, 572.536 761.771, 617.763 743.883 C 646.305 732.594, 683.937 709.398, 707.500 688.570 C 711.900 684.681, 717.477 679.875, 719.893 677.891 L 724.286 674.283 698.393 648.934 C 684.152 634.992, 666.650 617.716, 659.500 610.543 C 652.350 603.369, 633.913 585.575, 618.529 571 C 603.146 556.425, 580.252 534.600, 567.654 522.500 C 555.057 510.400, 535.891 492.175, 525.063 482 C 514.235 471.825, 497.754 456.021, 488.438 446.880 C 479.122 437.739, 466.246 425.364, 459.824 419.380 C 453.403 413.396, 435.144 396.125, 419.249 381 C 403.354 365.875, 380.713 344.500, 368.936 333.500 C 357.159 322.500, 341.893 308.089, 335.011 301.475 C 328.130 294.862, 317.100 284.908, 310.500 279.355 C 303.900 273.802, 295.287 266.163, 291.361 262.379 L 284.222 255.498 283.068 258.689 M 400 275.512 C 400 283.329, 400.127 283.815, 402.320 284.365 C 403.596 284.686, 418.108 298.124, 434.570 314.229 C 451.031 330.333, 471.925 350.328, 481 358.661 C 490.075 366.993, 500.324 376.690, 503.776 380.209 L 510.052 386.606 528.776 367.975 C 539.074 357.727, 561.225 336.150, 578 320.025 C 594.775 303.900, 609.400 289.709, 610.500 288.490 C 611.600 287.271, 613.755 285.474, 615.290 284.496 C 617.992 282.774, 618.070 282.481, 617.790 275.109 L 617.500 267.500 508.750 267.370 L 400 267.240 400 275.512 M 651.435 349.740 C 650.447 351.247, 645.403 356.846, 640.225 362.182 C 634.400 368.185, 631.090 372.336, 631.543 373.069 C 631.945 373.720, 632.466 403.784, 632.701 439.877 C 633.021 489.300, 633.420 505.597, 634.313 505.894 C 634.966 506.110, 640.026 510.723, 645.557 516.144 C 651.088 521.565, 655.866 526, 656.174 526 C 656.932 526, 656.248 349.210, 655.485 347.976 C 654.483 346.354, 653.322 346.859, 651.435 349.740 M 361.500 436.583 L 361.500 525.092 370.879 515.005 C 376.038 509.457, 381.550 504.250, 383.129 503.433 L 386 501.949 386 439.409 C 386 401.530, 386.377 376.164, 386.956 375.082 C 387.904 373.311, 384.769 369.914, 365.500 351.828 L 361.500 348.074 361.500 436.583 M 590.584 409.367 L 563.668 435.564 565.331 438.101 C 566.245 439.497, 570.033 443.304, 573.747 446.561 C 577.461 449.817, 589.163 460.994, 599.750 471.397 L 619 490.312 618.875 454.406 C 618.807 434.658, 618.469 410.551, 618.125 400.835 L 617.500 383.171 590.584 409.367 M 399.358 402.250 C 399.678 412.288, 399.953 435.409, 399.970 453.631 L 400 486.761 415.250 471.603 C 423.637 463.266, 435.567 451.584, 441.760 445.643 C 448.649 439.036, 452.747 434.388, 452.315 433.671 C 451.927 433.027, 445.959 427.107, 439.054 420.516 C 432.150 413.925, 420.821 403.012, 413.880 396.266 C 406.939 389.520, 400.702 384, 400.018 384 C 399.053 384, 398.906 388.067, 399.358 402.250 M 488 502.913 C 477.825 513.192, 453.720 536.951, 434.433 555.711 L 399.365 589.821 399.489 604.660 C 399.557 612.822, 399.700 623.325, 399.806 628 L 400 636.500 509.250 636.500 L 618.500 636.500 618.695 615.095 L 618.890 593.691 610.195 585.030 C 605.413 580.266, 589.800 565.156, 575.500 551.452 C 561.200 537.748, 539.865 516.965, 528.089 505.268 C 516.313 493.570, 506.638 484.051, 506.589 484.113 C 506.540 484.175, 498.175 492.635, 488 502.913 M 379.880 606.250 C 378.639 608.038, 373.610 613.627, 368.704 618.672 C 363.684 623.835, 360.082 628.323, 360.464 628.941 C 360.837 629.545, 361.506 641.168, 361.949 654.770 C 362.689 677.433, 362.974 680.169, 365.354 687.500 C 370.825 704.347, 383.848 717.639, 401.277 724.165 L 407.500 726.494 507 726.786 C 574.062 726.983, 607.880 726.736, 610.733 726.029 C 617.784 724.281, 629.232 718.330, 635.027 713.399 C 642.362 707.159, 648.302 699.085, 652.241 690 L 655.494 682.500 655.820 655.690 L 656.146 628.880 644.589 617.440 C 638.233 611.148, 632.728 606, 632.358 606 C 631.987 606, 631.970 614.548, 632.319 624.995 C 632.688 636.026, 632.564 645.018, 632.022 646.441 C 631.402 648.072, 629.820 649.264, 627.295 650.001 C 624.587 650.792, 590.547 651.022, 508.500 650.805 C 402.152 650.523, 393.265 650.371, 390.371 648.787 C 388.650 647.845, 386.876 646.270, 386.429 645.287 C 385.981 644.304, 385.437 634.388, 385.219 623.250 C 384.788 601.277, 384.335 599.833, 379.880 606.250 M 501.459 668.367 C 487.060 675.072, 483.574 692.835, 494.624 703.197 C 502.907 710.964, 514.432 710.760, 522.835 702.699 C 527.554 698.173, 529.268 694.361, 529.200 688.549 C 529.082 678.601, 522.378 669.340, 513.716 667.159 C 507.602 665.619, 507.294 665.650, 501.459 668.367 M 504.315 680.007 C 499.433 681.974, 498.547 689.119, 502.589 693.923 C 506.019 698, 510.554 698.127, 514.242 694.250 C 519.452 688.772, 518.709 683.030, 512.452 680.415 C 508.624 678.816, 507.421 678.756, 504.315 680.007" stroke="none" fill="#000000" fill-rule="evenodd"/>
</svg>