<svg xmlns="http://www.w3.org/2000/svg" width="1024" height="1024" viewBox="0 0 1024 1024" version="1.1">
	<path d="M 516.107 173.140 C 379.491 173.492, 265.416 174.084, 262.607 174.456 C 248.564 176.314, 238.732 185.611, 235.066 200.500 C 233.789 205.687, 233.869 207.236, 237.530 248.500 C 238.311 257.300, 239.644 273.500, 240.492 284.500 C 241.341 295.500, 242.492 308.325, 243.051 313 C 243.609 317.675, 245.161 333.200, 246.498 347.500 C 250.918 394.763, 255.309 425.634, 258.596 432.561 C 259.541 434.553, 262.529 438.606, 265.236 441.568 C 274.089 451.254, 288.035 455.984, 307.838 456.015 C 313.152 456.024, 318.057 456.384, 318.737 456.816 C 319.638 457.389, 319.887 460.907, 319.656 469.799 C 319.481 476.507, 319.087 482.247, 318.780 482.553 C 318.473 482.860, 312.660 482.615, 305.861 482.009 C 284.938 480.143, 275.259 482.842, 263.852 493.722 C 251.979 505.047, 251.384 506.459, 216.939 605 C 213.767 614.075, 208.158 630.050, 204.475 640.500 C 183.738 699.335, 184.051 698.128, 187.548 705.838 C 192.193 716.076, 199.735 722.258, 212.500 726.289 L 219.500 728.500 515.500 728.500 C 792.720 728.500, 811.896 728.391, 817.735 726.775 C 832.182 722.776, 843.688 713.838, 846.704 704.270 L 848.424 698.815 841.804 679.657 C 838.163 669.121, 831.709 650.825, 827.462 639 C 823.215 627.175, 815.570 605.350, 810.474 590.500 C 798.119 554.506, 783.813 516.165, 779.449 507.352 C 774.680 497.723, 767.520 491.057, 756.233 485.741 C 748.634 482.161, 746.396 481.573, 739 481.210 C 734.325 480.980, 727.836 481.288, 724.581 481.894 C 721.325 482.499, 718.482 482.815, 718.262 482.596 C 718.043 482.376, 717.604 476.365, 717.287 469.237 L 716.710 456.278 727.105 455.570 C 746.550 454.246, 758.854 450.355, 766.313 443.172 C 774.332 435.449, 775.850 430.360, 779.010 400.604 C 781.455 377.578, 783.718 356.947, 785.039 345.645 C 788.016 320.169, 790.151 300.353, 792.003 281 C 793.135 269.175, 795.016 249.825, 796.184 238 C 798.969 209.779, 798.948 201.194, 796.071 193.738 C 791.953 183.066, 781.128 174.603, 769.758 173.165 C 766.866 172.799, 652.723 172.788, 516.107 173.140 M 502.901 222.001 C 492.337 223.679, 475.798 229.714, 468.674 234.492 C 433.361 258.175, 421.672 278.980, 421.753 318 C 421.777 329.338, 422.200 333.067, 424.396 341.285 C 429.197 359.246, 435.997 370.986, 449.478 384.583 C 464.593 399.829, 485.795 410.209, 507.800 413.136 C 519.345 414.672, 527.411 413.506, 543.423 407.985 C 561.400 401.786, 576.016 392.549, 585.457 381.420 C 602.633 361.174, 609.682 343.862, 610.670 319.500 C 611.486 299.383, 607.718 284.857, 597.401 268.344 C 583.891 246.719, 561.248 229.903, 537.840 224.111 C 528.257 221.740, 511.082 220.703, 502.901 222.001 M 500.121 248.543 C 491.070 250.507, 476.260 258.009, 469.152 264.230 C 461.361 271.051, 456.888 277.015, 452.026 287.069 C 446.375 298.755, 444.575 307.860, 445.331 320.930 C 446.093 334.089, 447.964 341.142, 453.583 352.041 C 465.023 374.231, 487.030 386.939, 514.090 386.983 C 527.379 387.004, 537.166 384.661, 549.835 378.424 C 560.787 373.032, 570.291 364.455, 574.403 356.250 C 575.850 353.363, 577.377 351, 577.798 351 C 579.500 351, 586.678 328.972, 587.573 321 C 588.302 314.506, 585.755 298.146, 582.747 290 C 578.279 277.901, 567.418 265.290, 555.301 258.133 C 539.210 248.628, 517.288 244.818, 500.121 248.543 M 503.315 291.944 C 497 294.811, 493.328 297.873, 489.517 303.450 C 485.292 309.632, 484.420 314.634, 485.968 323.810 C 487.734 334.282, 491.823 340.436, 500 344.929 C 505.768 348.098, 507.289 348.493, 513.500 348.435 C 527.747 348.303, 539.374 340.595, 544.043 328.188 C 549.367 314.039, 541.671 297.388, 527.328 292.022 C 520.179 289.347, 509.114 289.311, 503.315 291.944 M 385.229 457.846 C 384.652 459.349, 385.710 477.376, 386.559 480.500 C 387.099 482.488, 387.840 482.498, 505.301 482.242 C 570.311 482.100, 629.913 482.326, 637.750 482.745 L 652 483.507 652 469.906 L 652 456.305 518.873 456.403 C 408.275 456.484, 385.659 456.728, 385.229 457.846 M 338 488.911 C 340.760 490.437, 355.126 491.114, 369.702 490.406 C 377.642 490.020, 383.624 489.386, 382.996 488.997 C 382.367 488.609, 371.648 488.244, 359.176 488.186 C 346.695 488.128, 337.174 488.454, 338 488.911 M 655 489 C 653.193 490.168, 707.911 490.168, 712.500 489 C 714.150 488.580, 702.225 488.190, 686 488.134 C 668.464 488.072, 655.892 488.424, 655 489 M 483.902 581.886 C 434.277 582.554, 436.468 582.271, 433.274 588.427 C 431.769 591.329, 426.549 610.715, 423.427 625 C 422.646 628.575, 420.662 637.125, 419.019 644 C 413.233 668.207, 410 682.576, 410 684.085 C 410 685.403, 411.052 685.480, 417.750 684.652 C 423.013 684.001, 429.190 684.056, 437 684.824 C 444.521 685.564, 475.486 685.935, 526.500 685.897 C 618.722 685.828, 625 685.759, 625 684.811 C 625 684.412, 623.403 677.879, 621.452 670.293 C 619.500 662.707, 616.602 650.650, 615.012 643.500 C 613.422 636.350, 610.561 623.525, 608.655 615 C 606.749 606.475, 603.698 595.563, 601.873 590.750 L 598.556 582 589.440 582 C 584.427 582, 568.889 581.836, 554.912 581.636 C 540.935 581.435, 508.981 581.548, 483.902 581.886 M 450.983 607.162 C 450.961 611.365, 448.581 622.220, 442.247 647 C 439.505 657.725, 436.978 667.705, 436.630 669.178 L 435.998 671.855 504.249 671.448 C 541.787 671.223, 578.125 671.398, 585 671.836 C 591.875 672.274, 597.600 672.577, 597.722 672.510 C 597.845 672.443, 595.950 664.089, 593.511 653.944 C 591.073 643.800, 587.841 628.598, 586.330 620.161 L 583.583 604.822 521.541 605.129 C 487.419 605.298, 457.587 605.073, 455.250 604.630 L 451 603.824 450.983 607.162 M 176.464 730.234 C 176.126 731.113, 176.264 738.782, 176.769 747.276 C 177.520 759.913, 178.088 763.551, 179.897 767.287 C 185.649 779.170, 194.897 786.835, 209.422 791.761 L 217.500 794.500 498.500 794.711 C 653.050 794.827, 787.150 794.541, 796.500 794.076 C 809.910 793.408, 814.873 792.757, 820 790.991 C 835.904 785.515, 846.707 777.467, 852.541 766.747 C 854.965 762.294, 855.415 760.066, 856.110 749.076 C 856.548 742.159, 856.927 734.739, 856.953 732.586 L 857 728.672 850.091 735.342 C 842.227 742.934, 833.202 747.732, 820.500 751.072 L 812.500 753.176 518.500 753.338 C 235.240 753.494, 224.211 753.432, 216.575 751.643 C 200.916 747.973, 186.861 740.507, 180.045 732.238 C 177.678 729.366, 176.952 728.961, 176.464 730.234" stroke="none" fill="#000000" fill-rule="evenodd"/>
</svg>