<svg xmlns="http://www.w3.org/2000/svg" width="1024" height="1024" viewBox="0 0 1024 1024" version="1.1">
	<path d="M 388.943 197.372 C 377.565 200.884, 368.622 204.781, 359.002 210.419 C 355.661 212.378, 351.818 214.259, 350.463 214.599 L 348 215.217 348 275.407 L 348 335.597 364.750 343.793 C 384.607 353.509, 389.836 355, 404.056 355 L 414.692 355 415.366 340.877 C 415.845 330.856, 415.708 326.354, 414.898 325.377 C 414.083 324.395, 411.181 324, 404.779 324 C 396.027 324, 395.730 323.922, 392.901 320.894 C 389.105 316.831, 389.242 314.558, 393.540 310.260 L 397.080 306.720 408.290 307.399 C 422.785 308.277, 425.183 309.074, 427.448 313.769 C 430.797 320.714, 431.236 323.468, 431.869 341.500 L 432.500 359.500 452.500 360.243 C 482.441 361.355, 489.464 362.204, 496.500 365.560 C 504.050 369.160, 512.778 377.755, 516.373 385.130 C 519.899 392.363, 521.400 406.231, 520.762 425.672 C 520.308 439.491, 520.205 440.036, 516.621 447.583 C 514.599 451.840, 510.853 458.254, 508.296 461.838 L 503.647 468.353 506.073 469.924 C 512.244 473.917, 518.237 480.700, 521.592 487.489 C 525.728 495.858, 532.485 522.062, 540.009 558.914 C 548.513 600.564, 548.624 613.980, 540.617 632.250 L 538.973 636 541.518 636 C 545.335 636, 555.727 632.280, 562.500 628.491 C 568.424 625.176, 577.835 616.284, 583.659 608.500 C 589.582 600.584, 598 583.329, 598 579.106 C 598 576.925, 596.010 567.347, 593.577 557.821 C 582.147 513.064, 573.526 481.115, 565.696 454.500 C 561.003 438.550, 556.452 422.031, 555.582 417.792 C 552.498 402.768, 553.943 387.843, 559.578 376.500 C 567.900 359.750, 573.812 353.798, 590.622 345.247 C 601.900 339.509, 611.210 336, 615.156 336 C 617.320 336, 619.515 340.006, 620.457 345.675 C 621.403 351.370, 619.573 352.978, 607.605 356.965 C 591.151 362.447, 581.165 370.893, 574.884 384.641 C 569.062 397.385, 569.204 410.171, 575.390 430.203 C 578.508 440.299, 583.138 456.669, 592.019 489 C 599.135 514.902, 610.117 559.557, 612.050 570.447 C 613.217 577.017, 613.906 583.720, 613.582 585.341 C 612.870 588.902, 601.867 610.820, 597.824 616.730 C 584.278 636.536, 562.752 649.603, 534.500 655.168 C 525.385 656.964, 520.828 657.117, 483 656.900 C 460.175 656.770, 440.150 657.028, 438.500 657.474 C 427.784 660.374, 416.150 670.425, 402.141 688.887 C 397.388 695.150, 392.711 701.287, 391.747 702.526 C 390.783 703.765, 389.714 706.179, 389.372 707.889 L 388.750 711 469.375 711 C 513.719 711, 550.011 710.663, 550.025 710.250 C 550.039 709.837, 550.152 704.681, 550.275 698.791 L 550.500 688.081 554.980 683.519 C 563.268 675.077, 565.456 674.498, 589 674.513 C 612.310 674.529, 614.999 674.902, 621.147 678.974 C 627.974 683.496, 630.228 688.423, 630.788 700.047 L 631.255 709.752 636.378 710.367 C 639.195 710.706, 651.737 710.987, 664.250 710.991 C 690.431 711.001, 687.988 712.339, 685.503 699.354 C 683.974 691.359, 681.645 660.262, 681.604 647.280 L 681.581 640.060 677.041 639.516 C 654.293 636.789, 644.586 634.258, 633.199 628.084 C 622.075 622.052, 616.631 615.277, 614.031 604.229 C 613.050 600.063, 613.048 598.648, 614.018 597.479 C 616.239 594.802, 618.697 595.923, 623.088 601.614 C 628.794 609.010, 634.140 612.963, 644.384 617.364 C 652.621 620.903, 655.868 621.499, 676.896 623.336 L 680.291 623.632 679.670 610.566 C 679.329 603.380, 677.675 587.375, 675.995 575 C 669.858 529.779, 660.441 489.466, 645.628 445 C 635.252 413.854, 634.811 402.271, 643.303 383.976 C 648.386 373.028, 654.443 366.652, 665.820 360.276 C 677.627 353.659, 682.979 352.855, 710.071 353.629 C 732.368 354.267, 734.024 354.188, 740.691 352.162 C 744.568 350.985, 750.386 348.226, 753.620 346.032 C 761.518 340.673, 771.386 330.729, 775.484 324 C 777.326 320.975, 780.227 316.184, 781.931 313.353 C 789.346 301.033, 791.997 276.649, 788.122 256.405 C 784.287 236.368, 780.802 229.012, 769.509 217.119 C 761.265 208.436, 754.021 203.308, 744.853 199.662 C 730.179 193.827, 729.606 193.787, 670.521 194.520 C 640.809 194.889, 609.300 195.037, 600.500 194.849 C 591.700 194.662, 550.075 194.507, 508 194.504 L 431.500 194.500 430.899 206 C 430.568 212.325, 429.763 220.019, 429.110 223.098 C 428.291 226.957, 428.220 230.023, 428.882 232.971 C 430.041 238.131, 429.647 239.384, 426.398 240.865 C 420.762 243.432, 396.457 241.628, 392.862 238.375 C 390.224 235.987, 390.548 232.500, 393.635 230.073 C 395.735 228.421, 397.715 227.997, 403.385 227.986 C 415.906 227.962, 415 229.336, 415 210.383 L 415 194 407.250 194.056 C 401.446 194.098, 396.849 194.931, 388.943 197.372 M 514.404 219.888 C 503.435 223.028, 488.066 233.163, 486.123 238.537 C 485.484 240.304, 483.853 242.945, 482.499 244.406 C 478.381 248.850, 476.730 256.662, 477.225 269.365 C 477.704 281.660, 479.561 287.975, 485.204 296.495 C 488.872 302.031, 497.851 309.028, 506.594 313.161 C 518.694 318.882, 517.628 318.829, 627.500 319.147 C 683.050 319.307, 729.625 319.062, 731 318.601 C 737.268 316.501, 739.146 310.034, 734.750 305.681 L 732.500 303.453 630 303.158 C 521.275 302.844, 520.410 302.807, 511.229 298.112 C 505.852 295.362, 499.516 288.557, 496.320 282.098 C 493.945 277.297, 493.552 275.290, 493.564 268 C 493.580 257.946, 495.018 254.329, 502.071 246.613 C 507.380 240.804, 515.640 236.240, 522.839 235.138 C 525.402 234.745, 573.797 234.795, 630.382 235.248 C 726.270 236.015, 733.391 235.956, 735.132 234.380 C 738.692 231.159, 737.428 226.046, 732.287 222.868 C 728.975 220.822, 727.034 220.648, 698.636 219.856 C 682.061 219.394, 635.200 218.820, 594.500 218.579 C 526.297 218.176, 520.022 218.279, 514.404 219.888 M 298.876 222.819 L 295.721 225.638 295.486 274.569 C 295.357 301.481, 295.643 324.537, 296.122 325.804 C 296.633 327.159, 298.850 328.931, 301.499 330.103 C 305.288 331.779, 307.845 332.058, 317.537 331.857 C 326.553 331.669, 328.957 331.331, 328.565 330.308 C 328.289 329.589, 328.461 329, 328.948 329 C 329.435 329, 330.060 329.563, 330.338 330.250 C 330.615 330.938, 330.878 306.413, 330.921 275.750 L 331 220 316.516 220 C 302.042 220, 302.029 220.002, 298.876 222.819 M 449.882 223.882 C 445.365 228.400, 444.993 231.209, 448.268 236.070 C 451.112 240.291, 455.671 241.793, 460.085 239.965 C 463.523 238.541, 466.990 233.735, 466.996 230.385 C 467.004 226.281, 460.009 220, 455.432 220 C 454.515 220, 452.018 221.747, 449.882 223.882 M 256.464 234.757 C 254.244 236.377, 251.174 239.193, 249.641 241.015 L 246.854 244.327 247.177 276.085 L 247.500 307.842 250 310.540 C 255.245 316.202, 259.114 317.814, 269.244 318.558 L 278.750 319.256 279.211 276.378 C 279.464 252.795, 279.503 233.295, 279.297 233.045 C 279.091 232.794, 274.777 232.414, 269.711 232.200 C 260.811 231.825, 260.364 231.911, 256.464 234.757 M 673 250.699 C 670.657 251.545, 668.047 255.267, 668.022 257.795 C 668.010 259.058, 669.105 261.195, 670.455 262.545 L 672.909 265 706.553 265 C 735.120 265, 740.699 264.762, 743.522 263.423 C 745.350 262.555, 747.101 261.180, 747.413 260.367 C 748.228 258.242, 745.524 252.351, 743.150 251.080 C 741.072 249.968, 676.005 249.615, 673 250.699 M 399.130 253.957 C 390.532 255.352, 388.019 263.890, 395.124 267.564 C 397.447 268.766, 401.032 268.961, 413.597 268.572 C 423.322 268.271, 429.716 267.651, 430.593 266.922 C 432.627 265.235, 432.320 260.677, 429.972 257.692 C 428.551 255.885, 426.682 254.961, 423.722 254.602 C 415.263 253.577, 403.396 253.266, 399.130 253.957 M 208.007 257.987 C 206.696 260.436, 206.543 263.129, 206.798 279.194 C 206.986 291.026, 207.164 292.079, 209.416 294.694 C 211.776 297.436, 212.057 297.497, 221.666 297.364 L 231.500 297.228 231.840 292.864 C 232.027 290.464, 231.867 281.188, 231.484 272.250 L 230.787 256 219.929 256 C 210.117 256, 208.968 256.192, 208.007 257.987 M 673.249 278.032 C 670.640 279.080, 667.443 285.106, 668.304 287.351 C 668.628 288.194, 669.929 289.557, 671.196 290.381 C 673.179 291.670, 678.506 291.795, 709.409 291.280 C 742.850 290.723, 745.449 290.551, 747.210 288.790 C 749.604 286.396, 748.851 283.443, 744.906 279.750 L 741.968 277 708.734 277.063 C 690.455 277.098, 674.487 277.534, 673.249 278.032 M 399.282 279.676 C 395.154 280.013, 393.640 280.642, 392.032 282.686 C 389.345 286.102, 389.463 287.367, 392.816 291.121 L 395.633 294.273 411.566 294.172 C 426.590 294.078, 427.600 293.949, 429.250 291.925 C 431.798 288.799, 431.402 285.759, 428.025 282.524 C 425.188 279.806, 424.576 279.664, 414.775 279.462 C 409.124 279.346, 402.152 279.442, 399.282 279.676 M 450.111 302.560 C 444.711 307.104, 445.245 315.257, 451.217 319.439 C 457.100 323.560, 465.638 319.117, 466.674 311.395 C 467.173 307.672, 466.886 306.953, 463.579 303.645 C 459.031 299.098, 454.646 298.744, 450.111 302.560 M 324.813 329.683 C 325.534 329.972, 326.397 329.936, 326.729 329.604 C 327.061 329.272, 326.471 329.036, 325.417 329.079 C 324.252 329.127, 324.015 329.364, 324.813 329.683 M 518.104 346.535 C 513.267 352.043, 514.069 358.433, 519.980 361.490 C 522.087 362.579, 526.096 363, 534.374 363 C 545.359 363, 545.982 362.886, 549.033 360.319 C 551.954 357.861, 552.177 357.259, 551.708 353.101 C 551.320 349.658, 550.446 347.894, 548.083 345.782 C 545.047 343.070, 544.669 343, 533.088 343 L 521.207 343 518.104 346.535 M 455.750 377.542 C 454.591 378.765, 454.891 384.220, 456.270 387 C 456.989 388.449, 460.031 390.761, 463.505 392.500 C 468.940 395.220, 469.666 395.967, 471.277 400.500 C 473.589 407.007, 472.971 425.804, 470.060 437.500 C 466.061 453.566, 466.918 454.703, 483.381 455.159 L 494.262 455.461 497.554 451.654 C 504.265 443.890, 504.501 442.780, 504.492 419 C 504.483 395.278, 504.159 393.667, 497.988 386.639 C 491.458 379.202, 488.018 378.001, 471.351 377.340 C 463.183 377.016, 456.163 377.107, 455.750 377.542 M 572.451 691.098 C 568.286 693.188, 567.634 695.764, 567.923 709 C 568.073 715.875, 568.279 730.132, 568.381 740.681 C 568.626 766.075, 567.197 764.559, 591.603 765.329 C 605.876 765.780, 609.708 764.948, 612.336 760.830 C 613.526 758.965, 613.964 752.303, 614.533 727.448 L 615.244 696.395 612.711 693.448 L 610.177 690.500 592.339 690.285 C 581.660 690.156, 573.678 690.482, 572.451 691.098 M 417.956 728.749 L 388.413 729.029 388.718 753.765 C 389.276 798.965, 389.206 797.971, 392.171 803.014 C 396.017 809.556, 401.746 814.925, 407.952 817.803 L 413.404 820.332 536.183 820.660 C 671.422 821.022, 662.861 821.383, 673.118 814.886 C 677.764 811.943, 685.303 803.242, 688.356 797.300 C 690.214 793.682, 690.509 778.386, 689.342 746.160 L 688.684 728 659.535 728 L 630.385 728 630.815 745.364 C 631.298 764.847, 630.792 767.547, 625.498 773.732 C 619.056 781.257, 616.036 782, 591.877 782 C 568.791 782, 565.171 781.414, 559.527 776.762 C 552.405 770.891, 551.657 767.947, 551.896 746.750 L 552.109 728 499.804 728.235 C 471.037 728.364, 434.205 728.595, 417.956 728.749 M 392 735.978 C 390.746 736.770, 390.447 741.075, 390.176 762.279 C 389.823 789.889, 389.773 789.626, 395.500 790.011 C 402.581 790.486, 402 792.944, 402 762.500 L 402 735 397.750 735.015 C 395.413 735.024, 392.825 735.457, 392 735.978" stroke="none" fill="#000000" fill-rule="evenodd"/>
</svg>