<svg xmlns="http://www.w3.org/2000/svg" width="1024" height="1024" viewBox="0 0 1024 1024" version="1.1">
	<path d="M 497.286 193.451 C 494.968 194.175, 490.918 196.027, 488.286 197.566 C 485.442 199.229, 465.242 218.472, 438.500 244.995 C 413.750 269.542, 359.833 322.635, 318.684 362.979 C 277.535 403.323, 242.529 438.277, 240.894 440.655 C 232.978 452.160, 233.177 463.662, 241.488 474.984 C 248.561 484.619, 259.361 488.072, 271.442 484.560 C 276.703 483.031, 278.320 481.789, 288.870 471.182 C 295.267 464.751, 304.107 455.667, 308.517 450.995 C 312.926 446.323, 327.016 432.375, 339.829 420 C 352.642 407.625, 367.963 392.775, 373.875 387 C 419.563 342.378, 446.005 316.884, 476.244 288.301 C 488.661 276.564, 501.888 265.664, 507.249 262.750 C 511.500 260.440, 516.733 260.540, 520.784 263.009 C 522.589 264.111, 538.789 279.318, 556.784 296.805 C 574.778 314.291, 598.105 336.901, 608.623 347.049 C 654.171 390.997, 691.403 427.444, 717.982 454.102 C 749.722 485.935, 749.205 485.571, 761.454 484.785 C 777.265 483.770, 788.280 472.598, 788.354 457.500 C 788.410 446.144, 786.639 443.386, 765.775 422.327 C 755.762 412.221, 747.014 404.164, 746.335 404.425 C 745.643 404.690, 745.314 404.344, 745.586 403.635 C 746.245 401.920, 734.347 390.667, 732.853 391.591 C 732.206 391.991, 731.958 391.876, 732.295 391.332 C 733.098 390.032, 716.640 373.715, 715.537 374.719 C 715.066 375.148, 714.979 374.976, 715.346 374.336 C 716.091 373.033, 671.459 329.326, 669.842 329.775 C 669.297 329.926, 669.096 329.654, 669.395 329.170 C 670.045 328.119, 665.647 323.759, 664.676 324.491 C 664.304 324.771, 664.242 324.683, 664.537 324.297 C 665.169 323.468, 628.984 287, 627.530 287 C 626.985 287, 630.806 291.387, 636.020 296.750 L 645.500 306.500 635.337 296.605 C 629.747 291.163, 625.363 286.213, 625.595 285.605 C 626.038 284.441, 619.592 277.993, 585.673 245.663 C 574.227 234.753, 559.674 220.484, 553.333 213.955 C 535.764 195.862, 528.209 191.948, 511.093 192.067 C 505.817 192.104, 499.604 192.726, 497.286 193.451 M 537 201.332 C 537 201.607, 538.800 203.258, 541 205 C 543.200 206.742, 545 207.943, 545 207.668 C 545 207.393, 543.200 205.742, 541 204 C 538.800 202.258, 537 201.057, 537 201.332 M 559 222.752 C 559 223.215, 560.901 225.373, 563.225 227.547 C 565.548 229.721, 566.561 230.395, 565.475 229.045 C 562.185 224.955, 559 221.859, 559 222.752 M 576.510 240.662 C 585.316 248.501, 586.026 248.984, 581.034 243.741 C 578.028 240.583, 575.108 238, 574.544 238 C 573.981 238, 574.866 239.198, 576.510 240.662 M 587 249.685 C 587 250.666, 590.467 254.118, 592.750 255.410 C 594.775 256.557, 594.196 255.711, 590.489 252.110 C 588.570 250.245, 587 249.154, 587 249.685 M 613 275.500 C 614.866 277.425, 616.617 279, 616.892 279 C 617.167 279, 615.866 277.425, 614 275.500 C 612.134 273.575, 610.383 272, 610.108 272 C 609.833 272, 611.134 273.575, 613 275.500 M 619 281.378 C 619 281.585, 619.788 282.373, 620.750 283.128 C 622.336 284.371, 622.371 284.336, 621.128 282.750 C 619.821 281.084, 619 280.555, 619 281.378 M 504.057 303.001 C 497.029 306.379, 504.460 299.279, 399.378 403 C 371.796 430.225, 342.162 459.210, 333.524 467.411 C 310.495 489.277, 299.629 503.478, 296.457 515.860 C 295.068 521.285, 294.921 532.348, 295.221 609.257 C 295.555 694.973, 295.598 696.609, 297.675 702.748 C 302.990 718.455, 314.971 729.730, 329.658 732.845 C 333.025 733.560, 355.080 733.972, 393.158 734.032 L 451.500 734.125 451.213 655.312 C 451.055 611.966, 451.337 572.771, 451.841 568.214 C 452.850 559.079, 454.040 557.043, 460.210 553.894 C 463.706 552.110, 466.831 552, 514.210 552.004 C 562.293 552.007, 564.640 552.093, 567.696 553.956 C 569.453 555.028, 571.703 557.144, 572.696 558.658 C 574.396 561.254, 574.509 566.335, 574.652 646.956 C 574.736 694.005, 574.848 732.851, 574.902 733.280 C 574.956 733.709, 602.112 733.934, 635.250 733.780 L 695.500 733.500 702.500 730.102 C 711.965 725.508, 721.589 715.634, 726.717 705.257 L 730.500 697.602 730.500 610.551 C 730.500 514.380, 730.834 519.650, 723.807 505 C 719.170 495.334, 718.739 494.886, 635.079 413 C 611.198 389.625, 576.848 355.784, 558.746 337.799 C 518.585 297.896, 516.903 296.826, 504.057 303.001 M 658.435 319.733 C 660.599 322.060, 662.587 323.747, 662.852 323.482 C 663.117 323.217, 663.141 322.887, 662.906 322.750 C 662.670 322.613, 660.683 320.926, 658.489 319.001 L 654.500 315.503 658.435 319.733 M 716.500 377 C 716.840 377.550, 717.316 378, 717.559 378 C 717.802 378, 718 377.550, 718 377 C 718 376.450, 717.523 376, 716.941 376 C 716.359 376, 716.160 376.450, 716.500 377 M 767.201 426.177 C 767.996 427.374, 769.739 429.035, 771.073 429.869 C 772.925 431.026, 772.684 430.510, 770.054 427.692 C 766.173 423.534, 765.051 422.938, 767.201 426.177 M 775.181 434.493 C 776.373 435.864, 777.567 436.766, 777.835 436.499 C 778.441 435.892, 774.995 432, 773.852 432 C 773.391 432, 773.989 433.122, 775.181 434.493 M 498 811.039 C 482.486 811.969, 476 813, 476 814.537 C 476 818.661, 530.804 819.530, 534.864 815.469 C 535.148 815.185, 534.661 814.232, 533.781 813.352 C 532.774 812.345, 529.273 811.447, 524.340 810.930 C 515.755 810.030, 514.786 810.034, 498 811.039" stroke="none" fill="#000000" fill-rule="evenodd"/>
</svg>