<svg xmlns="http://www.w3.org/2000/svg" width="1024" height="1024" viewBox="0 0 1024 1024" version="1.1">
	<path d="M 877.756 62.750 C 877.512 97.263, 877.522 276.813, 877.777 461.750 L 878.242 798 868.871 798.045 C 863.717 798.070, 852.300 798.038, 843.500 797.974 C 771.780 797.450, 674.400 797.349, 655.500 797.780 L 632.500 798.304 633 851.276 L 633.500 904.248 641 911.138 L 648.500 918.028 644 922 C 641.525 924.184, 638.041 926.990, 636.257 928.235 L 633.014 930.500 633.007 977.250 L 633 1024 828.500 1024 L 1024 1024 1024 512 L 1024 0 951.100 0 L 878.199 0 877.756 62.750 M 986 24.084 C 976.785 26.397, 952.977 30.027, 943.065 30.629 C 936.979 30.998, 932 31.606, 932 31.980 C 932 33.362, 942.945 44.694, 949.772 50.381 C 953.648 53.609, 963.118 62.895, 970.816 71.014 L 984.811 85.778 988.274 82.139 C 992.422 77.780, 1007.071 56.852, 1010.536 50.336 C 1012.858 45.969, 1013.743 42, 1012.394 42 C 1012.061 42, 1007.551 45.889, 1002.372 50.643 L 992.957 59.286 984.978 51.222 C 980.590 46.786, 977 42.513, 977 41.726 C 977 40.938, 980.641 36.403, 985.090 31.647 C 993.382 22.785, 993.450 22.213, 986 24.084 M 940.807 64.727 C 922.665 81.202, 905.468 97.844, 903.843 100.500 C 900.243 106.383, 902.333 114.994, 908.203 118.461 C 912.057 120.737, 918.443 120.873, 922.500 118.763 C 926.039 116.924, 941.342 102.014, 955.749 86.371 C 964.303 77.082, 965.759 75.045, 964.558 74.048 C 963.767 73.392, 962.305 72.939, 961.310 73.042 C 957.249 73.464, 955.644 72.844, 952.400 69.600 C 949.793 66.993, 949 65.361, 949 62.600 C 949 60.620, 948.576 59, 948.057 59 C 947.538 59, 944.276 61.577, 940.807 64.727 M 955 65.678 C 955 69.672, 956.362 72, 958.700 72 C 959.455 72, 959.994 70.848, 959.985 69.250 C 959.968 66.259, 959.420 65.221, 956.750 63.128 C 955.148 61.871, 955 62.086, 955 65.678 M 474.973 88.711 C 472.015 90.757, 462.143 99.010, 452.500 107.497 C 448.650 110.886, 438.525 119.226, 430 126.032 C 410.933 141.253, 395.209 154.319, 362.487 182.138 C 356.430 187.287, 349.230 193.277, 346.487 195.449 C 332.954 206.166, 325.895 211.944, 319.500 217.538 C 315.650 220.907, 307.775 227.425, 302 232.023 C 296.225 236.622, 289.230 242.435, 286.456 244.942 C 281.884 249.074, 262.884 264.426, 247.963 276.044 C 244.753 278.544, 237.936 284.235, 232.813 288.691 C 227.691 293.148, 218.969 300.328, 213.432 304.647 C 194.509 319.406, 178.084 333.499, 178.042 335.011 C 177.971 337.552, 186.373 349.042, 194.776 357.895 L 202.744 366.289 206.122 363.683 C 207.980 362.249, 214 357.655, 219.500 353.474 C 225 349.294, 232.650 343.475, 236.500 340.543 C 240.350 337.612, 245.075 333.555, 247 331.527 C 248.925 329.499, 252.750 326.197, 255.500 324.188 C 258.250 322.180, 266.125 315.648, 273 309.673 C 279.875 303.698, 288.875 296.301, 293 293.237 C 297.125 290.172, 303.687 284.702, 307.581 281.082 C 311.476 277.462, 319.773 270.450, 326.018 265.500 C 332.264 260.550, 339.202 254.836, 341.437 252.802 C 343.672 250.769, 348.200 247.101, 351.500 244.651 C 354.800 242.202, 363.800 234.918, 371.500 228.464 C 379.200 222.010, 388.650 214.241, 392.500 211.198 C 396.350 208.156, 402.433 202.929, 406.017 199.584 C 409.602 196.238, 417.958 189.225, 424.588 184 C 437.023 174.199, 457.124 157.206, 469.244 146.250 C 473.046 142.813, 476.663 140, 477.281 140 C 477.899 140, 479.776 141.290, 481.452 142.866 C 483.129 144.442, 489.225 149.311, 495 153.686 C 513.811 167.935, 515.475 169.226, 517.500 171.147 C 523.858 177.177, 546.437 196.404, 555.338 203.366 C 561.057 207.840, 570.858 215.788, 577.118 221.028 C 583.378 226.268, 592.775 233.683, 598 237.505 C 603.225 241.327, 612.675 249.194, 619 254.987 C 625.325 260.781, 635.158 269.116, 640.851 273.511 C 646.544 277.905, 655.769 285.245, 661.351 289.822 C 666.933 294.398, 674.875 300.541, 679 303.473 C 683.125 306.404, 689.502 311.434, 693.171 314.651 C 702.964 323.237, 713.746 332.217, 720 336.996 C 743.029 354.594, 757.054 364, 760.264 364 C 762.179 364, 764.682 361.491, 771.985 352.250 C 777.092 345.788, 781.754 339.438, 782.345 338.141 C 783.577 335.438, 782.548 334.351, 765.930 320.824 C 754.185 311.263, 725.341 287.607, 715.147 279.175 C 710.941 275.697, 705.025 270.991, 702 268.719 C 698.975 266.447, 691.325 260.367, 685 255.208 C 678.675 250.050, 670.609 243.505, 667.075 240.664 C 663.541 237.824, 655.909 231.450, 650.116 226.500 C 644.323 221.550, 635.649 214.350, 630.840 210.500 C 626.032 206.650, 612.364 195.400, 600.468 185.500 C 571.034 161.004, 549.365 143.343, 538 134.584 C 532.775 130.557, 524.156 123.716, 518.847 119.381 C 513.538 115.047, 504.587 107.900, 498.955 103.500 C 493.323 99.100, 486.444 93.588, 483.667 91.250 C 480.891 88.912, 478.355 87, 478.032 87 C 477.709 87, 476.332 87.770, 474.973 88.711 M 912.174 101.314 C 909.290 104.385, 909.403 108.493, 912.455 111.545 C 915.537 114.628, 917.030 114.629, 920.354 111.548 C 923.373 108.750, 923.607 107.074, 921.537 103.072 C 919.141 98.438, 915.516 97.757, 912.174 101.314 M 267.740 144.250 C 267.959 153.188, 268.294 161.001, 268.485 161.613 C 268.733 162.410, 281.507 162.693, 313.555 162.613 L 358.278 162.500 358.075 146.050 C 357.963 137.003, 357.649 129.241, 357.377 128.800 C 357.105 128.360, 336.735 128, 312.112 128 L 267.341 128 267.740 144.250 M 994 145.937 C 992.625 146.358, 989.224 147.858, 986.442 149.271 C 977.292 153.917, 971.623 160.657, 967.196 172.154 C 965.575 176.363, 962.762 181.658, 960.944 183.920 L 957.639 188.032 961.070 191.603 C 962.956 193.567, 965.756 196.078, 967.291 197.184 L 970.081 199.194 973.568 195.497 C 976.013 192.904, 978.840 191.259, 983.039 189.988 C 994.713 186.454, 1000.532 181.509, 1008.426 168.419 C 1010.389 165.164, 1011.996 161.436, 1011.997 160.135 C 1012 158.021, 1011.335 158.391, 1005.710 163.635 C 998.630 170.237, 990.071 175.295, 986.790 174.818 C 985.574 174.641, 983.742 173.025, 982.668 171.181 C 980.181 166.910, 980.902 165.496, 991.250 154.353 C 995.512 149.764, 999 145.781, 999 145.504 C 999 144.833, 997.060 145.001, 994 145.937 M 910.200 157.200 C 908.178 159.222, 908.801 160.446, 914.250 165.161 C 917.138 167.659, 923.509 173.370, 928.410 177.851 C 933.310 182.333, 938.078 186, 939.005 186 C 939.932 186, 941.485 185.122, 942.456 184.049 C 944.145 182.182, 944.141 181.996, 942.361 179.751 C 940.343 177.205, 926.409 164.496, 919.886 159.250 C 915.683 155.870, 912.255 155.145, 910.200 157.200 M 471.946 163.590 C 470.051 165.565, 464 170.735, 458.500 175.079 C 453 179.424, 444.900 186.188, 440.500 190.111 C 433.312 196.519, 425.578 202.760, 398.501 224 C 393.943 227.575, 387.128 233.097, 383.357 236.271 C 370.857 246.791, 360.198 255.456, 355.489 258.929 C 352.931 260.814, 347.613 265.441, 343.669 269.211 C 339.726 272.980, 333.167 278.637, 329.093 281.782 C 325.020 284.927, 318.945 289.862, 315.593 292.749 C 312.242 295.635, 304.454 301.634, 298.287 306.078 C 292.120 310.523, 282.670 318.254, 277.287 323.258 C 271.904 328.262, 264.800 334.335, 261.500 336.754 C 258.200 339.173, 252.125 344.625, 248 348.870 C 243.875 353.115, 236.159 359.631, 230.854 363.350 C 225.549 367.069, 220.413 370.991, 219.441 372.065 C 217.773 373.908, 217.669 380.929, 217.587 497.759 L 217.500 621.500 242.313 621.645 L 267.126 621.791 266.993 607.145 C 266.920 599.090, 266.892 536.838, 266.930 468.807 L 267 345.115 480.500 345.067 L 694 345.020 694 350.531 L 694 356.043 629.500 355.771 L 565 355.500 564.912 361.500 C 564.863 364.800, 564.875 395.175, 564.938 429 C 565.001 462.825, 565.040 520.313, 565.026 556.750 L 565 623 574.337 623 L 583.674 623 584.336 575.750 C 584.700 549.763, 584.998 516.549, 584.999 501.941 C 585 482.131, 585.318 475.016, 586.250 473.941 C 587.318 472.709, 594.834 472.573, 638 473 L 688.500 473.500 689.100 495.500 C 689.776 520.300, 690.573 528, 692.464 528 C 693.234 528, 693.941 529.780, 694.246 532.490 C 694.792 537.338, 694.207 612.066, 693.574 618.250 L 693.190 622 720.507 622 L 747.824 622 747.918 500.250 C 747.969 433.288, 747.671 378.031, 747.255 377.458 C 745.495 375.029, 719.815 356.345, 710.154 350.463 C 706.507 348.243, 703.018 345.414, 702.400 344.176 C 700.515 340.395, 697.177 337.339, 679 322.757 C 669.375 315.036, 659.700 307.056, 657.500 305.026 C 655.300 302.995, 650.575 299.283, 647 296.778 C 643.425 294.273, 636 288.459, 630.500 283.860 C 625 279.260, 617.981 273.622, 614.902 271.331 C 606.084 264.768, 574.123 238.262, 567.500 232.018 C 564.200 228.907, 557.900 223.947, 553.500 220.995 C 549.100 218.043, 541.877 212.224, 537.449 208.064 C 527.667 198.875, 504.713 180.559, 493.319 172.853 C 488.727 169.747, 483.176 165.585, 480.982 163.603 C 478.789 161.621, 476.634 160, 476.193 160 C 475.753 160, 473.842 161.616, 471.946 163.590 M 279 200.839 C 279 216.634, 279.384 228, 279.917 228 C 280.421 228, 280.983 227.614, 281.167 227.143 C 281.350 226.672, 287.350 221.893, 294.500 216.524 C 301.650 211.155, 309.300 205.093, 311.500 203.053 C 313.700 201.013, 320.225 195.694, 326 191.231 C 336.778 182.903, 343.747 176.414, 342.864 175.531 C 342.589 175.256, 328.107 174.727, 310.682 174.355 L 279 173.678 279 200.839 M 439.158 187 C 439.158 188.375, 439.385 188.938, 439.662 188.250 C 439.940 187.563, 439.940 186.438, 439.662 185.750 C 439.385 185.063, 439.158 185.625, 439.158 187 M 946.021 190.478 L 943.694 192.955 952.983 201.728 C 958.093 206.552, 962.735 210.674, 963.299 210.888 C 964.469 211.329, 967 208.243, 967 206.375 C 967 204.729, 951.128 188, 949.565 188 C 948.896 188, 947.301 189.115, 946.021 190.478 M 933.634 201.750 C 929.114 206.012, 921.212 213.299, 916.075 217.943 C 904.984 227.970, 903.009 230.876, 903.004 237.173 C 902.996 247.454, 914.261 253.843, 924.702 249.480 C 926.889 248.566, 935.175 241.182, 945.477 230.966 L 962.614 213.972 952.842 203.986 C 947.467 198.494, 942.796 194, 942.462 194 C 942.127 194, 938.155 197.488, 933.634 201.750 M 479.500 197 L 465.500 197.500 464.996 203.500 C 464.472 209.741, 463.627 212, 461.816 212 C 461.230 212, 458.104 213.187, 454.871 214.639 L 448.991 217.277 443.511 213.639 C 440.497 211.637, 437.626 210, 437.130 210 C 436.635 210, 435.425 211.238, 434.441 212.750 C 433.457 214.262, 429.959 218.312, 426.668 221.749 L 420.685 227.998 424.871 232.962 C 429.292 238.205, 429.336 238.513, 426.833 246.750 C 425.980 249.556, 425.396 250, 422.562 250 C 420.756 250, 417.159 250.291, 414.568 250.646 C 410.414 251.215, 409.918 251.541, 410.373 253.396 C 410.657 254.553, 410.977 259.660, 411.082 264.744 C 411.362 278.167, 411.612 278.998, 415.367 279.011 C 422.726 279.037, 425.949 280.182, 427.999 283.499 C 430.805 288.038, 430.553 289.335, 425.919 294.206 C 421.053 299.321, 420.973 299.092, 431.572 310.212 L 438.644 317.632 443.571 314.304 C 446.280 312.474, 449.173 310.763, 449.998 310.500 C 450.824 310.238, 454.650 311.298, 458.500 312.855 L 465.500 315.687 465.795 321.727 C 466.081 327.589, 466.181 327.786, 469.170 328.384 C 470.864 328.723, 477.088 329, 483 329 L 493.750 329 494.375 325.875 C 494.719 324.156, 495 321.116, 495 319.119 C 495 315.703, 495.360 315.294, 501.095 312.192 C 507.992 308.461, 508.107 308.488, 516.063 315.676 L 519.962 319.198 522.731 315.854 C 527.867 309.651, 533.486 303.551, 535.827 301.636 L 538.155 299.733 534.272 295.617 C 527.725 288.675, 527.736 288.701, 529.537 284.199 L 531.143 280.186 539.271 279.343 L 547.399 278.500 547.622 264.750 L 547.845 251 543.048 251 C 533.324 251, 532.333 250.441, 530.048 243.675 L 527.989 237.580 532.495 233.005 C 534.973 230.490, 536.983 227.997, 536.962 227.466 C 536.941 226.935, 535.128 225.257, 532.933 223.739 C 529.473 221.345, 527.327 218.624, 522.455 210.456 C 521.512 208.874, 520.830 209.147, 515.408 213.270 L 509.405 217.835 502.202 214.260 L 495 210.685 494.930 205.093 C 494.816 196.083, 495.477 196.429, 479.500 197 M 974.505 209.685 C 973.444 211.783, 972.560 213.818, 972.538 214.206 C 972.517 214.594, 978.501 220.969, 985.836 228.372 L 999.172 241.831 1002.672 239.766 L 1006.172 237.701 994.202 225.601 C 982.727 214.001, 980.635 211.724, 977.735 207.685 C 976.534 206.013, 976.281 206.170, 974.505 209.685 M 913.455 229.455 C 910.264 232.645, 910.057 238.837, 913.050 241.545 C 917.966 245.994, 927 242.054, 927 235.461 C 927 227.838, 918.735 224.174, 913.455 229.455 M 469.882 234.381 C 448.933 241.867, 442.050 266.717, 456.480 282.767 C 474.575 302.893, 507.953 289.702, 507.990 262.410 C 508.008 249.671, 501.083 239.420, 489.544 235.103 C 483.201 232.729, 475.314 232.440, 469.882 234.381 M 993 271.973 C 986.305 272.840, 979.598 276.541, 974.554 282.152 C 969.792 287.448, 968.359 291.662, 969.315 297.556 C 969.623 299.450, 969.468 301, 968.972 301 C 967.688 301, 961.116 306.916, 959.922 309.145 C 959.095 310.692, 959.958 312.222, 964.897 317.960 L 970.873 324.904 976.490 318.838 C 981.585 313.335, 982.392 312.828, 985.184 313.387 C 990.176 314.385, 996.050 312.003, 1001.172 306.903 C 1006.100 301.996, 1012 291.596, 1012 287.816 C 1012 285.825, 1011.471 286.087, 1007.250 290.167 C 1002.285 294.967, 994.285 301, 992.885 301 C 991.671 301, 985.075 295.008, 983.927 292.863 C 982.534 290.260, 984.024 287.834, 992.227 279.352 C 996.029 275.421, 998.771 272.021, 998.320 271.798 C 997.869 271.574, 995.475 271.653, 993 271.973 M 911.595 281.242 C 912.643 282.474, 916.538 286.795, 920.250 290.843 C 925.373 296.429, 927 298.909, 927 301.133 C 927 304.377, 925.251 305.531, 921.689 304.637 C 920.420 304.318, 915.878 300.863, 911.595 296.959 C 903.775 289.831, 901.216 288.628, 904.486 293.618 C 907.919 298.859, 922.163 312.849, 925.802 314.556 C 929.867 316.462, 936.286 321.478, 945.524 329.965 C 948.836 333.009, 955.223 338.302, 959.716 341.727 L 967.885 347.954 972.381 342.814 L 976.877 337.675 954.688 315.560 C 932.851 293.794, 925.073 287.017, 915.822 281.692 C 910.124 278.413, 909.098 278.304, 911.595 281.242 M 659.079 302.583 C 659.127 303.748, 659.364 303.985, 659.683 303.188 C 659.972 302.466, 659.936 301.603, 659.604 301.271 C 659.272 300.939, 659.036 301.529, 659.079 302.583 M 692.079 321.583 C 692.127 322.748, 692.364 322.985, 692.683 322.188 C 692.972 321.466, 692.936 320.603, 692.604 320.271 C 692.272 319.939, 692.036 320.529, 692.079 321.583 M 953.465 327.057 C 952.374 328.821, 953.896 332.874, 956.090 334.048 C 960.448 336.381, 962.572 332.690, 959.443 328.223 C 957.809 325.889, 954.576 325.259, 953.465 327.057 M 925.419 339.943 C 910.400 352.015, 904.548 358.547, 903.012 364.952 C 901.945 369.399, 902.019 370.347, 903.652 373.136 C 909.877 383.764, 922.226 382.296, 931.704 369.801 C 933.915 366.885, 939.629 360.053, 944.401 354.618 C 949.174 349.183, 952.948 344.430, 952.789 344.057 C 952.159 342.578, 938.018 330.969, 936.906 331.018 C 936.683 331.027, 931.513 335.044, 925.419 339.943 M 982.176 340.116 C 978.138 341.306, 970 349.192, 970 351.915 C 970 352.997, 969.550 354.160, 969 354.500 C 967.348 355.521, 967.865 360.090, 970.173 364.857 C 974.246 373.272, 984.220 380.921, 991.191 380.978 C 996.159 381.019, 995.521 378.875, 988.657 372.468 C 980.489 364.843, 980.032 362.328, 985.792 356.703 C 987.878 354.666, 990.380 353, 991.352 353 C 992.324 353, 995.499 355.250, 998.406 358 C 1003.958 363.250, 1005.945 363.976, 1007.999 361.501 C 1008.993 360.303, 1008.982 359.371, 1007.945 356.867 C 1006.246 352.766, 999.887 344.765, 996.320 342.240 C 992.819 339.762, 986.564 338.823, 982.176 340.116 M 915.707 356.645 C 910.493 359.377, 908.202 368.062, 911.829 371.345 C 914.753 373.992, 920.195 373.466, 923.166 370.250 C 926.691 366.435, 927.199 364.413, 925.598 360.579 C 923.819 356.323, 919.557 354.628, 915.707 356.645 M 292.585 371.074 C 291.733 377.492, 291.983 607.354, 292.843 608.746 C 293.314 609.508, 295.005 609.539, 298.507 608.850 C 302.131 608.137, 514.290 607.322, 531.750 607.955 C 532.534 607.983, 533 609.491, 533 612 C 533 615.844, 534.155 617.175, 535.543 614.931 C 535.906 614.343, 537.939 613.987, 540.059 614.140 C 542.180 614.293, 544.185 614.149, 544.514 613.819 C 544.844 613.489, 545.132 557.708, 545.154 489.860 L 545.194 366.500 534.347 366.800 C 483.159 368.214, 429.501 368.758, 418.931 367.969 C 412.094 367.459, 381.013 366.866, 349.861 366.652 L 293.223 366.262 292.585 371.074 M 607.250 386.747 L 594 387.058 594 397.029 L 594 407 605.750 407.009 C 612.212 407.013, 619.862 407.301, 622.750 407.648 L 628 408.279 628 397.139 L 628 386 624.250 386.218 C 622.188 386.338, 614.538 386.577, 607.250 386.747 M 644.667 387.667 C 644.300 388.033, 644 392.758, 644 398.167 L 644 408 661.500 408 L 679 408 679 397.500 L 679 387 662.167 387 C 652.908 387, 645.033 387.300, 644.667 387.667 M 309.720 391.894 C 309.599 392.227, 309.627 404.762, 309.781 419.750 L 310.063 447 341.031 447 L 372 447 372 419.500 C 372 404.375, 371.663 391.981, 371.250 391.957 C 363.456 391.515, 309.878 391.460, 309.720 391.894 M 416.250 391.749 L 388 392.031 388 419.516 L 388 447 420.029 447 L 452.058 447 451.644 420.091 C 451.417 405.291, 450.927 392.691, 450.556 392.091 C 450.185 391.491, 448.671 391.105, 447.191 391.234 C 445.711 391.362, 431.788 391.594, 416.250 391.749 M 467.971 415.250 C 467.886 428.038, 467.745 440.300, 467.658 442.500 L 467.500 446.500 497.702 446.765 L 527.904 447.029 528.449 443.765 C 528.749 441.969, 529.108 429.587, 529.247 416.249 L 529.500 391.998 498.814 391.999 L 468.127 392 467.971 415.250 M 911.818 423.890 L 901.844 433.961 902.172 447.400 C 902.352 454.792, 902.725 461.053, 903 461.313 C 903.275 461.574, 913.625 461.343, 926 460.799 C 938.375 460.255, 962.054 460.049, 978.620 460.342 L 1008.739 460.874 1009.261 447.687 L 1009.783 434.500 1000.151 424.741 C 994.854 419.374, 989.739 414.735, 988.784 414.432 C 987.790 414.116, 983.279 415.828, 978.220 418.440 C 972.720 421.281, 968.084 423, 965.922 423 C 963.641 423, 959.720 424.556, 954.480 427.543 C 942.481 434.381, 943.374 434.512, 933.841 424.514 C 929.292 419.744, 924.720 415.385, 923.681 414.829 C 922.067 413.966, 920.337 415.287, 911.818 423.890 M 594.663 420.750 C 594.413 421.163, 594.049 425.775, 593.854 431 L 593.500 440.500 611.389 440.774 L 629.278 441.047 628.639 436.384 C 628.288 433.819, 628 429.084, 628 425.860 L 628 420 611.559 420 C 602.516 420, 594.913 420.337, 594.663 420.750 M 660.250 420.748 L 644 421.050 644 431.025 L 644 441 661.431 441 L 678.863 441 679.181 431.250 C 679.465 422.577, 678.849 419.469, 677 420.239 C 676.725 420.353, 669.188 420.582, 660.250 420.748 M 917.127 440.478 C 914.857 442.940, 913 445.475, 913 446.109 C 913 447.762, 921.462 456, 923.160 456 C 923.943 456, 926.521 454.026, 928.888 451.614 C 932.576 447.856, 933.037 446.938, 932.108 445.202 C 930.976 443.087, 923.151 436, 921.947 436 C 921.566 436, 919.397 438.015, 917.127 440.478 M 985.722 438.135 C 981.755 441.094, 979.656 445.489, 981.005 448.009 C 982.334 450.492, 985.776 452.789, 989.972 453.992 C 992.871 454.823, 993.479 454.599, 996.095 451.735 C 999.535 447.968, 999.756 445.231, 996.912 441.615 C 995.211 439.453, 990.048 435.900, 988.800 436.032 C 988.635 436.049, 987.250 436.996, 985.722 438.135 M 952.887 439.286 C 951.450 440.504, 949.477 442.750, 948.504 444.278 L 946.733 447.056 950.909 451.028 C 956.338 456.193, 959.741 456.340, 963.381 451.567 C 964.822 449.678, 966 447.610, 966 446.971 C 966 444.925, 961.936 440.018, 958.971 438.485 C 955.490 436.685, 956.043 436.612, 952.887 439.286 M 309.339 491.998 L 309.500 519.996 340.750 519.998 L 372 520 372 492 L 372 464 340.589 464 L 309.178 464 309.339 491.998 M 387.919 473.736 C 387.875 479.106, 387.762 491.681, 387.669 501.681 L 387.500 519.862 395.500 520.181 C 399.900 520.356, 414.386 520.347, 427.691 520.160 L 451.881 519.820 451.547 492.160 L 451.213 464.500 419.606 464.236 L 388 463.972 387.919 473.736 M 470.250 464.634 L 468 465.139 468 492.570 L 468 520 498.427 520 L 528.855 520 529.177 492.750 C 529.355 477.762, 529.409 465.334, 529.297 465.130 C 528.975 464.545, 472.753 464.072, 470.250 464.634 M 903 486.865 L 903 508.930 954.250 509.215 C 982.438 509.372, 1006.288 509.335, 1007.250 509.133 C 1008.850 508.798, 1009 506.948, 1009 487.507 L 1009 466.247 968.250 465.723 C 945.837 465.434, 921.987 465.109, 915.250 464.999 L 903 464.801 903 486.865 M 913.152 473.821 C 910.258 474.098, 909.883 474.437, 910.388 476.321 C 910.710 477.519, 910.979 478.893, 910.986 479.372 C 910.994 479.852, 911.744 479.627, 912.654 478.872 C 914.002 477.754, 922.320 477.511, 957.654 477.558 C 997.693 477.612, 1001 477.488, 1001 475.928 C 1001 474.498, 999.426 474.132, 990.724 473.538 C 981.150 472.886, 920.612 473.106, 913.152 473.821 M 951.583 481.062 C 949.665 482.745, 947.819 484.996, 947.480 486.062 C 946.653 488.668, 949.940 493.117, 954.492 495.554 L 958.126 497.500 962.063 493.289 C 964.228 490.973, 966 488.442, 966 487.666 C 966 486.120, 957.647 478, 956.057 478 C 955.514 478, 953.500 479.378, 951.583 481.062 M 917.845 483.042 C 915.730 485.265, 914 487.454, 914 487.905 C 914 488.357, 916.253 490.834, 919.006 493.409 L 924.013 498.092 927.276 495.603 C 929.071 494.234, 931.515 491.795, 932.707 490.183 L 934.873 487.253 932.187 484.780 C 928.404 481.298, 924.800 479, 923.123 479 C 922.335 479, 919.960 480.819, 917.845 483.042 M 983.119 483.190 C 981.403 484.944, 980 487.142, 980 488.073 C 980 490.274, 987.449 497, 989.887 497 C 991.757 497, 999 489.871, 999 488.030 C 999 487.500, 997.410 485.477, 995.467 483.533 C 990.882 478.948, 987.361 478.851, 983.119 483.190 M 598.345 554.743 L 598.284 622.657 636.639 622.578 L 674.995 622.500 675.160 579 C 675.354 527.949, 675.150 506.511, 674.369 495.469 L 673.800 487.438 636.103 487.134 L 598.405 486.830 598.345 554.743 M 911.638 499.501 C 911.284 500.425, 911.228 501.560, 911.514 502.023 C 912.115 502.995, 995.766 503.348, 999.564 502.395 C 1000.952 502.046, 1001.934 501.303, 1001.748 500.743 C 1001.526 500.078, 986.851 499.651, 959.454 499.512 C 936.379 499.395, 916.326 498.967, 914.891 498.560 C 912.914 498, 912.127 498.228, 911.638 499.501 M 947 536.267 L 947 541.534 938.818 544.441 L 930.636 547.349 926.864 542.969 L 923.091 538.589 917.023 544.657 L 910.954 550.726 914.919 555.525 C 918.850 560.282, 918.870 560.350, 917.274 563.412 C 916.388 565.110, 915.129 568.300, 914.475 570.500 L 913.287 574.500 907.010 574.801 L 900.734 575.102 901.358 580.301 C 901.702 583.161, 901.987 586.737, 901.991 588.250 C 902 590.916, 902.169 591, 907.500 591 C 912.174 591, 913 591.276, 913 592.840 C 913 593.852, 914.405 597.492, 916.122 600.928 L 919.244 607.176 915.168 611.338 L 911.092 615.500 916.296 621.707 L 921.500 627.913 926.156 623.337 L 930.812 618.761 936.156 621.239 C 939.095 622.602, 942.737 624.221, 944.250 624.837 C 946.736 625.850, 947 626.439, 947 630.979 L 947 636 955.500 636 L 964 636 964 630.630 L 964 625.260 968.547 623.987 C 971.048 623.287, 974.232 621.819, 975.622 620.725 L 978.151 618.736 982.925 623.822 L 987.700 628.908 993.410 622.303 L 999.119 615.697 995.060 611.561 C 992.827 609.286, 991 607.061, 991 606.617 C 991 606.172, 991.974 604.441, 993.164 602.769 C 994.355 601.098, 995.885 598.103, 996.565 596.115 C 997.743 592.673, 998.058 592.476, 1003.151 592 L 1008.500 591.500 1008.790 583.871 L 1009.080 576.242 1002.759 575.565 L 996.439 574.888 994.199 568.194 C 992.967 564.512, 991.706 560.771, 991.397 559.879 C 991.058 558.904, 992.062 556.860, 993.917 554.747 C 995.613 552.816, 997 550.830, 997 550.334 C 997 549.838, 994.498 546.972, 991.439 543.966 C 986.628 539.237, 985.718 538.710, 984.689 540.060 C 984.035 540.918, 982.476 542.906, 981.224 544.478 L 978.949 547.335 971.490 544.917 L 964.032 542.500 964.016 536.750 L 964 531 955.500 531 L 947 531 947 536.267 M 309.003 544.250 C 309.004 548.237, 309.301 559.938, 309.661 570.250 L 310.316 589 341.158 589 L 372 589 372 563 L 372 537 340.500 537 L 309 537 309.003 544.250 M 387.789 556.750 C 387.673 567.612, 387.611 579.308, 387.651 582.741 L 387.724 588.982 401.612 589.175 C 409.250 589.282, 423.731 589.286, 433.790 589.184 L 452.081 589 451.605 564.250 C 451.344 550.638, 451.101 538.938, 451.065 538.250 C 451.014 537.278, 443.999 537, 419.500 537 L 388 537 387.789 556.750 M 468 563 L 468 589 493.860 589 C 508.084 589, 521.809 588.714, 524.360 588.364 L 529 587.728 529 562.364 L 529 537 498.500 537 L 468 537 468 563 M 610 545 C 608.619 546.381, 608 548.333, 608 551.309 C 608 557.723, 609.618 559.272, 616.868 559.797 C 623.607 560.284, 625.141 559.562, 627.645 554.720 C 629.425 551.278, 628.147 546.917, 624.640 544.460 C 621.428 542.211, 612.458 542.542, 610 545 M 944.909 555.554 C 942.384 556.331, 938.259 558.780, 935.743 560.995 C 925.582 569.939, 922.970 583.617, 929.085 595.854 C 932.522 602.732, 935.769 605.630, 944.542 609.650 C 952.140 613.132, 957.507 613.108, 966.218 609.554 C 977.908 604.784, 983.939 595.906, 983.978 583.410 C 984.030 566.609, 971.264 553.844, 954.635 554.070 C 951.811 554.108, 947.434 554.776, 944.909 555.554 M 949.128 563.099 C 944.056 564.635, 940.476 567.709, 937.595 573.003 C 933.846 579.891, 934.046 585.997, 938.250 593.011 C 942.764 600.541, 946.722 603, 954.332 603 C 965.222 603, 972.414 597.405, 975.019 586.904 C 978.593 572.504, 963.598 558.717, 949.128 563.099 M 947.797 574.750 C 945.547 577.351, 944.172 582.232, 945.033 584.560 C 946.192 587.693, 952.770 593, 955.496 593 C 957.877 593, 960.775 590.634, 963.666 586.331 C 964.970 584.391, 964.908 583.739, 963.075 580.147 C 961.949 577.939, 960.021 575.427, 958.791 574.566 C 955.760 572.443, 949.704 572.545, 947.797 574.750 M 515.667 635.655 C 515.208 636.120, 462.108 636.609, 397.667 636.742 C 333.225 636.876, 267.900 637.257, 252.500 637.590 C 233.381 638.003, 221.963 637.826, 216.500 637.030 C 211.083 636.241, 204.303 636.129, 195.500 636.682 L 182.500 637.500 181.615 653.782 C 181.128 662.737, 180.971 670.304, 181.265 670.598 C 181.695 671.028, 293.921 671.019, 390.500 670.582 C 400.400 670.537, 440.900 670.652, 480.500 670.838 C 520.100 671.025, 603.462 671.116, 665.750 671.041 L 779 670.905 779 655.020 C 779 639.921, 778.899 639.103, 776.964 638.489 C 775.845 638.133, 742.657 637.966, 703.214 638.116 C 639.529 638.359, 614.015 637.951, 536.500 635.454 C 525.500 635.100, 516.125 635.190, 515.667 635.655 M 946.985 663.750 C 946.966 669.598, 946.611 670.096, 941 672.139 C 938.525 673.040, 934.990 674.390, 933.144 675.139 C 929.808 676.492, 929.762 676.472, 925.591 671.871 L 921.394 667.242 917.402 670.871 C 915.207 672.867, 912.101 675.433, 910.501 676.574 L 907.591 678.648 912.497 683.893 C 916.674 688.359, 917.221 689.388, 916.177 690.819 C 914.965 692.482, 910.918 700.868, 909.695 704.250 C 909.207 705.601, 907.916 706, 904.031 706 L 899 706 899 714.448 L 899 722.895 904.152 723.198 L 909.305 723.500 910.945 728.547 C 911.848 731.323, 913.642 735.303, 914.932 737.390 L 917.278 741.187 914.630 743.642 C 913.174 744.992, 911.264 747.194, 910.386 748.534 C 908.846 750.884, 908.932 751.141, 912.783 755.735 C 914.980 758.356, 917.741 761.370, 918.919 762.432 C 921.058 764.363, 921.066 764.360, 925.977 759.522 L 930.894 754.679 936.697 757.249 C 939.889 758.662, 943.400 759.976, 944.500 760.169 C 946.183 760.464, 946.548 761.429, 946.800 766.260 L 947.100 772 954.550 772 C 961.627 772, 962 771.886, 962 769.732 C 962 768.484, 960.200 765.285, 958 762.623 C 954.982 758.970, 954 756.905, 954 754.207 C 954 749.646, 957.405 742.590, 961.396 738.881 C 973.422 727.704, 977.914 723.065, 977.161 722.599 C 976.100 721.944, 971.172 723.655, 964.500 726.996 C 959.842 729.329, 959.375 729.910, 957.677 735.500 C 956.675 738.800, 955.194 743.017, 954.386 744.871 C 952.981 748.096, 952.741 748.214, 948.876 747.596 C 939.134 746.038, 929.636 738.596, 925.144 729 C 923.067 724.562, 922.563 721.955, 922.535 715.500 C 922.503 708.233, 922.818 706.914, 925.969 701.100 C 932.159 689.682, 942.145 684, 956.022 684 C 972.057 684, 985.516 697.154, 986.758 714.040 L 987.239 720.581 993.170 722.741 C 998.167 724.561, 999.188 724.673, 999.656 723.454 C 1000.089 722.325, 1001.395 722.146, 1005.606 722.641 L 1011 723.275 1011 715.138 L 1011 707 1007.250 706.900 C 1000.033 706.708, 999.172 706.027, 995.515 697.611 L 992.088 689.722 996.577 684.611 L 1001.066 679.500 998.783 678.003 C 997.527 677.180, 994.295 674.480, 991.599 672.003 C 988.096 668.784, 986.559 667.904, 986.210 668.916 C 985.942 669.695, 984.299 671.885, 982.560 673.783 L 979.397 677.235 974.448 674.760 C 971.727 673.400, 968.263 671.988, 966.750 671.624 C 964.546 671.093, 964 670.394, 964 668.106 C 964 666.535, 963.719 663.844, 963.375 662.125 L 962.750 659 954.875 659 L 947 659 946.985 663.750 M 943.445 696.093 C 937.027 697.906, 933.260 705.766, 939.031 705.301 C 943.836 704.915, 946 705.897, 946 708.464 C 946 710.123, 945.133 711.306, 943.262 712.203 C 939.061 714.217, 939.190 716.625, 943.543 717.442 C 946.885 718.069, 947.133 718.347, 946.550 720.813 C 945.529 725.133, 942.296 727.226, 937.816 726.469 C 934.403 725.892, 934.065 726.019, 934.653 727.662 C 936.213 732.022, 941.713 735.540, 945.489 734.592 C 948.975 733.717, 951.294 727.879, 950.628 721.658 C 950.324 718.821, 950.027 716.050, 949.968 715.500 C 949.910 714.950, 950.642 710.772, 951.596 706.215 C 952.635 701.250, 952.963 697.595, 952.415 697.094 C 950.848 695.662, 946.634 695.192, 943.445 696.093 M 959.442 704.178 C 962.426 709.374, 965.177 714.859, 965.556 716.366 C 966.173 718.827, 966.562 719.038, 969.372 718.441 C 974.614 717.329, 976.277 715.150, 975.712 710.138 C 975.441 707.737, 974.343 704.585, 973.271 703.136 C 970.603 699.526, 964.203 696.127, 958.643 695.365 L 954.016 694.730 959.442 704.178 M 980 730.689 C 980 731.193, 983.938 734.137, 988.750 737.234 C 998.171 743.294, 1001 746.785, 1001 752.349 C 1001 756.869, 996.580 762.473, 995.037 759.910 C 994.510 759.035, 993.177 757.235, 992.073 755.910 L 990.067 753.500 990.033 760.050 C 990.014 763.767, 989.481 767.119, 988.800 767.800 C 985.144 771.456, 974.562 765.857, 970.923 758.342 L 968.718 753.787 970.639 749.151 C 973.499 742.252, 975.340 742.589, 979.014 750.684 L 982.107 757.500 984.056 755 C 987.378 750.741, 987.492 748.334, 984.555 744.483 C 983.088 742.560, 981.239 738.799, 980.444 736.125 C 979.068 731.490, 978.852 731.280, 975.823 731.632 C 971.085 732.184, 968.005 734.592, 967.969 737.773 C 967.952 739.273, 966.829 742.300, 965.474 744.500 C 962.475 749.369, 962.358 753.985, 965.081 760 C 967.816 766.043, 971.491 769.776, 977.500 772.617 C 986.290 776.772, 992.074 775.677, 999.975 768.363 C 1007.230 761.646, 1008.322 759.042, 1007.845 749.599 C 1007.516 743.085, 1007.086 741.674, 1004.431 738.394 C 1000.147 733.101, 994.810 730.615, 986.750 730.157 C 983.038 729.947, 980 730.186, 980 730.689 M 88.405 824.836 C 66.004 843.279, 60.133 847.978, 52.593 853.500 C 41.110 861.910, 20 879.061, 20 879.981 C 20 880.403, 21.161 882.825, 22.580 885.364 L 25.160 889.980 28.830 887.257 C 36.267 881.738, 42.673 876.378, 49.500 869.962 C 56.326 863.548, 63.141 858.086, 82.854 843.232 C 88.159 839.235, 93.441 834.817, 94.591 833.415 L 96.682 830.866 98.255 833.266 C 100.612 836.864, 117.271 849.126, 148 869.881 C 154.875 874.525, 164.056 880.726, 168.403 883.662 C 172.750 886.598, 176.903 889, 177.633 889 C 178.676 889, 183 882.329, 183 880.720 C 183 880.097, 143.271 850.817, 134.500 844.976 C 131.750 843.145, 126.125 839.120, 122 836.031 C 117.875 832.943, 110.771 827.622, 106.213 824.208 C 101.656 820.793, 97.606 818.039, 97.213 818.086 C 96.821 818.133, 92.857 821.170, 88.405 824.836 M 508.977 825.427 C 504.314 828.962, 497.125 834.571, 493 837.892 C 488.875 841.213, 480.550 847.519, 474.500 851.905 C 468.450 856.292, 459.510 862.945, 454.633 866.690 C 449.757 870.436, 444.244 874.573, 442.383 875.885 C 440.523 877.197, 439 878.903, 439 879.675 C 439 881.832, 442.907 889, 444.083 889 C 445.004 889, 455.884 880.804, 476.880 864.294 C 480.521 861.431, 490.294 853.909, 498.598 847.579 C 506.903 841.249, 514.260 835.391, 514.949 834.561 C 516.050 833.235, 516.584 833.341, 519.351 835.436 C 521.083 836.747, 525.313 839.773, 528.752 842.160 C 532.191 844.547, 538.491 849.126, 542.752 852.336 C 547.013 855.546, 558.150 863.161, 567.500 869.258 C 576.850 875.355, 587.338 882.742, 590.807 885.672 C 594.276 888.602, 597.495 891, 597.962 891 C 598.428 891, 600.048 888.887, 601.562 886.305 L 604.313 881.610 600.407 878.218 C 598.258 876.352, 593.925 872.952, 590.777 870.663 C 576.888 860.560, 561.065 849.232, 556 845.765 C 552.975 843.695, 547.245 839.638, 543.267 836.750 C 533.877 829.934, 518.169 819, 517.767 819 C 517.594 819, 513.639 821.892, 508.977 825.427 M 350.120 827.085 C 337.578 829.267, 324.494 840.055, 321.374 850.786 C 320.108 855.140, 319.883 858.540, 320.388 865.712 C 320.756 870.961, 320.653 875, 320.150 875 C 318.576 875, 311 882.191, 311 883.685 C 311 886.243, 283.514 911.435, 281.847 910.405 C 280.619 909.647, 275.425 913.943, 251.879 935.190 C 236.744 948.849, 231.886 953.827, 230.629 956.968 C 228.464 962.381, 228.573 971.467, 230.866 976.500 C 232.984 981.151, 239.801 987.661, 243.534 988.598 C 248.007 989.721, 254.865 988.366, 258.915 985.559 C 261.043 984.084, 271.045 974.077, 281.142 963.321 C 307.537 935.202, 335.200 907, 336.386 907 C 336.946 907, 338.884 905.566, 340.692 903.814 L 343.979 900.628 340.739 897.855 C 336.500 894.225, 338.867 894.134, 346.512 897.634 C 351.519 899.926, 353.123 900.193, 358.882 899.687 C 368.469 898.846, 374.332 896.463, 380.351 890.962 C 390.069 882.081, 395.225 867.422, 392.461 856.536 C 391.823 854.023, 391.023 851.690, 390.684 851.351 C 390.044 850.710, 370.024 867.578, 369.968 868.805 C 369.951 869.187, 369.304 870.335, 368.530 871.356 C 367.196 873.118, 366.827 872.980, 361.312 868.664 C 358.115 866.162, 353.323 862.077, 350.662 859.586 L 345.824 855.056 347.806 852.278 C 348.896 850.750, 353.661 845.300, 358.394 840.167 C 363.127 835.034, 367 830.438, 367 829.953 C 367 827.219, 358.071 825.702, 350.120 827.085 M 885.571 828.571 C 883.126 831.017, 883.640 832.580, 888.750 838.244 C 897.044 847.437, 901 852.655, 901 854.403 C 901 858.599, 893.169 868.827, 887.850 871.578 C 884.789 873.160, 884.631 873.049, 869.591 858.687 C 866.891 856.109, 864.312 854, 863.860 854 C 862.401 854, 861.726 859.012, 862.403 864.829 C 863.682 875.832, 871.616 888.102, 879.718 891.608 C 883.692 893.327, 891.905 893.405, 897.384 891.776 C 902.294 890.316, 918.504 875.334, 920.640 870.282 C 922.568 865.722, 922.399 853.676, 920.352 849.700 C 917.271 843.718, 913.914 840.190, 906.284 834.915 C 895.312 827.331, 888.805 825.338, 885.571 828.571 M 981 828.403 C 968.892 831.122, 960.660 836.990, 956.071 846.174 C 953.545 851.228, 953 853.529, 953 859.130 C 953 865.665, 953.210 866.256, 958.176 873.720 C 965.476 884.694, 970.485 889.658, 978.225 893.586 C 986.259 897.664, 991.343 897.966, 999.653 894.857 C 1006.998 892.109, 1014.014 885.257, 1016.437 878.465 C 1018.615 872.360, 1019.818 853.623, 1018.100 852.562 C 1016.673 851.680, 998.145 868.488, 996.882 871.810 L 995.984 874.173 990.986 869.988 C 985.924 865.750, 979.590 858.884, 977.926 855.830 C 976.881 853.914, 980.912 848.371, 991.552 837.092 C 995.098 833.333, 998 829.805, 998 829.253 C 998 826.933, 989.451 826.505, 981 828.403 M 42 835.250 L 42 841 53 841 C 59.050 841, 64.029 840.663, 64.064 840.250 C 64.099 839.837, 64.201 837.331, 64.291 834.680 L 64.454 829.860 53.227 829.680 L 42 829.500 42 835.250 M 251.750 830.016 C 250.787 830.612, 250.009 831.640, 250.021 832.300 C 250.032 832.960, 253.669 837.537, 258.104 842.471 C 268.137 853.635, 268.232 853.812, 266.285 857.832 C 264.372 861.782, 255.649 869.799, 252.368 870.622 C 249.749 871.280, 245.933 868.537, 234.197 857.564 C 229.081 852.781, 227.657 851.907, 226.865 853.064 C 225.129 855.598, 226.712 869.690, 229.388 875.535 C 232.087 881.431, 238.910 889.385, 243.148 891.577 C 247.822 893.994, 255.150 895.036, 261.932 894.247 L 268.365 893.500 273.409 898.836 C 280.929 906.792, 281.206 906.845, 286.170 901.266 C 288.502 898.645, 293.393 893.673, 297.039 890.218 L 303.668 883.935 295.742 876.167 L 287.816 868.399 289.011 863.960 C 292.310 851.707, 285.123 839.696, 270.358 832.787 C 263.601 829.625, 254.557 828.278, 251.750 830.016 M 469.750 829.746 L 459 830.068 459 835.641 C 459 840.312, 459.256 841.116, 460.582 840.607 C 461.452 840.273, 466.627 840, 472.082 840 L 482 840 482 834.500 C 482 831.475, 481.663 829.096, 481.250 829.212 C 480.837 829.329, 475.663 829.569, 469.750 829.746 M 775.780 830.030 C 758.898 832.875, 746.787 845.669, 746.650 860.806 C 746.599 866.371, 747.125 868.596, 749.766 874 C 754.348 883.377, 760.804 890.286, 768.543 894.096 C 774.219 896.890, 775.711 897.213, 780.809 896.751 C 791.895 895.746, 803.547 887.688, 807.923 878 C 809.538 874.425, 809.961 871.380, 809.978 863.182 L 810 852.864 806.772 855.162 C 804.996 856.427, 799.780 861.182, 795.181 865.731 C 790.581 870.279, 786.382 874, 785.849 874 C 784.451 874, 770.159 859.077, 769.466 856.894 C 769.041 855.554, 771.339 852.319, 777.950 844.947 C 789.878 831.647, 790.012 831.375, 785.259 830.055 C 783.191 829.481, 781.275 829.062, 781 829.123 C 780.725 829.185, 778.376 829.593, 775.780 830.030 M 686.250 832.115 C 683.902 834.529, 685.003 836.550, 693 844.500 C 697.601 849.074, 701 853.290, 701 854.423 C 701 857.102, 696.705 863.100, 692.205 866.707 C 688.521 869.659, 684.682 872, 683.526 872 C 683.193 872, 679.869 869.134, 676.140 865.631 C 669.004 858.929, 665.269 856.395, 664.164 857.505 C 662.837 858.839, 663.931 869.056, 665.870 873.440 C 668.644 879.710, 676.270 887.556, 681.551 889.572 C 687.375 891.797, 692.715 890.915, 702.724 886.074 C 709.185 882.950, 711.223 881.379, 713.734 877.587 C 717.775 871.487, 719.418 864.381, 718.662 856.282 C 717.826 847.330, 715.362 843.843, 705.189 837.212 C 696.179 831.339, 688.908 829.382, 686.250 832.115 M 554 837.422 C 554 841.982, 555.245 842.557, 558.678 839.584 C 561.776 836.900, 561.304 835.683, 556.750 834.610 C 554.155 833.998, 554 834.157, 554 837.422 M 91.985 843.350 C 75.318 854.975, 65.920 862.164, 59.205 868.426 C 54.967 872.377, 50.038 876.628, 48.250 877.873 C 46.463 879.118, 45 880.556, 45 881.068 C 45 881.633, 67.143 882, 101.214 882 C 163.641 882, 160.424 882.447, 148 875.497 C 134.902 868.171, 110.152 851.436, 99.485 842.694 L 96.469 840.222 91.985 843.350 M 505 849.281 C 488.595 860.588, 485.308 863.001, 475.761 870.744 C 470.848 874.728, 465.517 878.763, 463.914 879.710 C 462.311 880.657, 461 881.672, 461 881.966 C 460.999 882.642, 573.007 882.138, 574.903 881.453 C 575.744 881.148, 572.743 878.705, 567.403 875.347 C 558.918 870.012, 532.992 852.674, 522.637 845.411 C 519.962 843.535, 517.262 842.010, 516.637 842.022 C 516.012 842.033, 510.775 845.300, 505 849.281 M 44.667 844.667 C 43.751 845.582, 43.822 853.776, 44.750 854.330 C 45.745 854.924, 58.230 847.809, 58.709 846.374 C 58.914 845.759, 58.051 844.978, 56.791 844.641 C 53.715 843.817, 45.499 843.834, 44.667 844.667 M 462.701 844.750 C 462.472 845.163, 462.558 847.605, 462.892 850.178 L 463.500 854.857 470.239 850.678 C 473.946 848.380, 476.983 845.938, 476.989 845.250 C 477.001 843.867, 463.455 843.393, 462.701 844.750 M 508.537 859.939 C 508.218 860.456, 508.240 862.649, 508.586 864.812 L 509.215 868.746 515.771 869.418 C 523.334 870.192, 523.961 869.721, 523.985 863.250 L 524 859 516.559 859 C 512.466 859, 508.857 859.423, 508.537 859.939 M 85.375 863.125 C 85.719 864.844, 86 866.887, 86 867.665 C 86 868.795, 87.664 869.022, 94.240 868.790 C 102.166 868.511, 102.530 868.393, 103.823 865.689 C 106.220 860.677, 105.101 860, 94.406 860 L 84.750 860 85.375 863.125 M 715.627 881.378 C 712.171 886.086, 709.456 888.562, 705.458 890.651 C 700.466 893.259, 698.638 895, 700.892 895 C 701.382 895, 704.036 897.025, 706.789 899.500 C 709.542 901.975, 712.213 904, 712.724 904 C 713.739 904, 722.710 894.792, 727.658 888.672 L 730.753 884.844 728.513 882.672 C 727.281 881.477, 724.939 879.252, 723.308 877.727 L 720.343 874.955 715.627 881.378 M 922.271 879.871 C 920.620 882.527, 916.038 887.278, 912.089 890.429 L 904.909 896.157 908.678 900.329 C 910.751 902.623, 912.992 904.500, 913.659 904.500 C 914.973 904.500, 935 885.221, 935 883.955 C 935 883.532, 932.811 881.354, 930.136 879.114 L 925.273 875.042 922.271 879.871 M 947.578 880.180 C 945.610 882.479, 944 884.924, 944 885.613 C 944 886.302, 943.189 887.123, 942.197 887.437 C 941.206 887.752, 935.058 893.407, 928.537 900.005 C 922.015 906.602, 916.293 912, 915.820 912 C 915.069 912, 903.430 922, 895.309 929.623 C 893.764 931.073, 888.184 936.011, 882.910 940.596 C 869.111 952.590, 865.145 959.277, 866.657 968 C 867.484 972.774, 868.624 974.854, 872.868 979.332 C 877.514 984.235, 880.932 986, 885.779 986 C 891.204 986, 896.809 981.998, 907.008 970.844 C 911.679 965.736, 919.845 956.969, 925.155 951.363 C 930.466 945.757, 936.724 938.545, 939.063 935.335 C 941.402 932.126, 945.844 927.025, 948.935 924 C 952.027 920.975, 956.285 916.362, 958.398 913.750 C 960.512 911.138, 962.572 909, 962.978 909 C 963.383 909, 966.060 906.654, 968.927 903.788 C 974.643 898.072, 974.762 898.765, 967.278 894.190 C 963.681 891.991, 954.975 881.470, 953.675 877.750 C 952.748 875.101, 951.499 875.599, 947.578 880.180 M 733.500 890.526 C 721.661 902.803, 702.202 920.330, 688.197 931.331 C 677.387 939.822, 670.309 946.615, 668.311 950.414 C 667.274 952.387, 666.923 955.060, 667.225 958.699 C 668.105 969.308, 677.558 977.724, 687.352 976.618 C 695.577 975.689, 703.629 969.768, 707.712 961.648 C 711.266 954.577, 744.633 918.435, 759.402 905.657 C 762.481 902.993, 765 900.489, 765 900.091 C 765 899.694, 763.221 898.368, 761.046 897.146 C 756.446 894.561, 747.171 884.531, 746.348 881.252 C 746.038 880.013, 745.494 879.027, 745.142 879.060 C 744.789 879.093, 739.550 884.252, 733.500 890.526 M 160 886.115 C 160 886.907, 155.072 887.118, 143 886.841 L 126 886.451 125.750 903.476 C 125.207 940.425, 126.266 963, 128.540 963 C 130.725 963, 131.326 956.840, 130.776 940.079 C 130.496 931.510, 130.469 923.938, 130.716 923.250 C 131.050 922.324, 135.157 922, 146.583 922 L 162 922 162.007 936.250 C 162.011 944.087, 162.301 953.538, 162.652 957.250 L 163.289 964 170.015 964 L 176.742 964 177.439 956.919 C 177.823 953.024, 178.031 937.695, 177.900 922.856 L 177.664 895.874 173.218 891.961 C 170.773 889.809, 167.249 887.762, 165.386 887.413 C 163.524 887.063, 162 886.377, 162 885.889 C 162 885.400, 161.550 885, 161 885 C 160.450 885, 160 885.502, 160 886.115 M 34.086 890.026 L 29 894.047 29 928.523 L 29 963 36.378 963 L 43.757 963 44.210 925.250 C 44.460 904.487, 44.627 887.451, 44.582 887.391 C 44.537 887.331, 43.301 886.994, 41.836 886.643 C 39.702 886.132, 38.163 886.803, 34.086 890.026 M 48.662 911.750 C 47.814 943.661, 47.847 959.240, 48.765 960.541 C 49.659 961.808, 119.403 961.930, 120.667 960.668 C 121.125 960.210, 121.627 943.447, 121.782 923.418 L 122.065 887 85.693 887 L 49.320 887 48.662 911.750 M 453.900 890.128 C 451.480 891.848, 449.147 893.574, 448.715 893.962 C 448.145 894.476, 447.492 952.873, 447.948 962.605 C 447.981 963.312, 450.522 963.672, 455 963.605 L 461.999 963.500 462 925.250 C 462 881.847, 462.500 884.014, 453.900 890.128 M 470.187 887.722 L 466.874 888.136 467.570 924.818 C 467.953 944.993, 468.318 961.573, 468.383 961.661 C 468.447 961.750, 486.163 961.975, 507.750 962.161 L 547.001 962.500 547 945.375 C 547 935.956, 547.281 926.844, 547.625 925.125 L 548.250 922 560.485 922 C 567.215 922, 574.809 922.286, 577.360 922.636 L 582 923.272 582 942.054 C 582 952.384, 582.273 961.548, 582.607 962.418 C 583.073 963.632, 584.700 964, 589.607 964 L 596 964 596.005 939.250 C 596.008 925.638, 596.299 910.145, 596.651 904.823 L 597.292 895.145 591.370 891.323 L 585.448 887.500 564.022 887.500 L 542.595 887.500 541.950 890 L 541.305 892.500 540.903 890 L 540.500 887.500 507 887.404 C 488.575 887.350, 472.009 887.494, 470.187 887.722 M 133.550 894.250 C 133.337 894.938, 132.963 896.737, 132.720 898.250 C 132.288 900.934, 132.395 901, 137.139 901 L 142 901 142 897 L 142 893 137.969 893 C 135.617 893, 133.776 893.521, 133.550 894.250 M 147.667 893.667 C 147.300 894.033, 147 895.608, 147 897.167 C 147 899.934, 147.127 900, 152.500 900 L 158 900 158 896.500 L 158 893 153.167 893 C 150.508 893, 148.033 893.300, 147.667 893.667 M 556.016 893.753 C 551.273 894.160, 550.040 895.165, 550.015 898.643 C 549.997 901.164, 551.741 902, 557.023 902 C 561.421 902, 561.673 901.758, 562.151 897.084 C 562.538 893.293, 562.379 893.206, 556.016 893.753 M 567 897.500 L 567 901 572.500 901 C 576.226 901, 578.004 900.597, 578.014 899.750 C 578.021 899.063, 578.299 897.487, 578.630 896.250 C 579.207 894.096, 578.972 894, 573.117 894 L 567 894 567 897.500 M 63.250 896.790 L 55 897.081 55 904.901 L 55 912.721 60.250 913.352 C 63.138 913.699, 67.188 913.987, 69.250 913.991 L 73 914 73 905.559 C 73 900.916, 72.662 896.979, 72.250 896.809 C 71.838 896.639, 67.787 896.631, 63.250 896.790 M 76.942 896.408 C 76.911 896.458, 76.683 900.212, 76.436 904.750 L 75.988 913 82.421 913 L 88.853 913 89.177 904.453 L 89.500 895.906 83.250 896.111 C 79.813 896.223, 76.974 896.357, 76.942 896.408 M 94.190 904.466 L 93.951 913 104.016 913 L 114.081 913 113.790 904.750 L 113.500 896.500 103.964 896.216 L 94.428 895.933 94.190 904.466 M 476.250 896.706 C 474.142 897.112, 474 897.640, 474 905.070 L 474 913 491 913 L 508 913 508 904.500 L 508 896 493.250 896.136 C 485.137 896.211, 477.488 896.467, 476.250 896.706 M 513 904.500 L 513 913 525.139 913 L 537.279 913 536.648 907.750 C 536.301 904.862, 536.013 901.038, 536.009 899.250 L 536 896 524.500 896 L 513 896 513 904.500 M 488.079 899.583 C 488.127 900.748, 488.364 900.985, 488.683 900.188 C 488.972 899.466, 488.936 898.603, 488.604 898.271 C 488.272 897.939, 488.036 898.529, 488.079 899.583 M 733 901.752 C 730.207 903.147, 729.436 904.171, 729.181 906.821 C 728.472 914.210, 734.957 917.522, 740.611 912.658 C 744.142 909.621, 744.352 904.513, 741.056 901.844 C 738.242 899.566, 737.395 899.556, 733 901.752 M 935.736 903.250 C 933.195 905.180, 931.897 909.598, 933.010 912.527 C 934.749 917.101, 940.624 917.460, 945.248 913.275 C 950.871 908.187, 941.810 898.637, 935.736 903.250 M 303.923 905.923 C 300.564 909.282, 300.214 911.979, 302.829 914.345 C 305.462 916.728, 309.694 916.397, 312.501 913.590 C 314.582 911.509, 314.783 910.732, 313.974 907.910 C 312.328 902.170, 308.444 901.402, 303.923 905.923 M 132.667 904.667 C 132.300 905.033, 132 906.833, 132 908.667 C 132 912, 132 912, 137 912 L 142 912 142 908 L 142 904 137.667 904 C 135.283 904, 133.033 904.300, 132.667 904.667 M 147 907.439 L 147 911 152.500 911 C 157.077 911, 157.997 910.706, 157.985 909.250 C 157.959 906.268, 156.671 905.303, 151.750 904.578 L 147 903.877 147 907.439 M 553.500 904.850 C 551.015 905.396, 550.446 906.065, 550.187 908.754 L 549.873 912 556.497 912 L 563.121 912 562.810 908.250 C 562.530 904.860, 562.212 904.485, 559.500 904.346 C 557.850 904.261, 555.150 904.488, 553.500 904.850 M 566 908 L 566 912 572 912 L 578 912 578 908 L 578 904 572 904 L 566 904 566 908 M 627.090 911.073 C 625.765 912.177, 623.985 913.469, 623.136 913.944 C 621.863 914.656, 621.798 915.260, 622.765 917.384 C 624.090 920.291, 626.497 920.028, 626.729 916.952 C 626.811 915.855, 626.456 915.218, 625.939 915.537 C 625.423 915.857, 625 915.641, 625 915.059 C 625 914.477, 625.398 914, 625.885 914 C 626.372 914, 627.507 912.875, 628.408 911.500 C 630.369 908.507, 630.227 908.461, 627.090 911.073 M 828.142 912.019 C 825.745 913.594, 823.588 915.078, 823.348 915.318 C 823.109 915.558, 825.837 918.321, 829.410 921.459 C 834.344 925.790, 836.398 927.009, 837.940 926.519 C 840.468 925.717, 846 920.281, 846 918.600 C 846 916.896, 836.121 908.981, 834.115 909.078 C 833.227 909.121, 830.539 910.444, 828.142 912.019 M 327.447 922.367 C 322.526 927.396, 316.939 932.680, 315.030 934.110 L 311.560 936.710 318.460 944.419 C 322.255 948.659, 327.817 954.374, 330.819 957.118 C 335.279 961.194, 336.432 962.931, 337.120 966.612 C 338.411 973.523, 340.751 977.571, 346.479 982.807 C 354.833 990.442, 363.625 991.985, 372.781 987.422 C 379.764 983.942, 386.491 976.292, 388.684 969.335 C 390.333 964.103, 390.332 963.494, 388.674 957.164 C 387.714 953.499, 385.811 948.809, 384.445 946.742 C 379.801 939.716, 369.435 934.100, 363.746 935.528 C 361.892 935.993, 360.291 935.029, 355.905 930.806 C 352.874 927.888, 347.244 922.738, 343.394 919.362 L 336.395 913.225 327.447 922.367 M 750.928 921.079 C 747.442 924.936, 743.086 929.020, 741.248 930.156 C 739.410 931.291, 738.040 932.551, 738.203 932.955 C 738.957 934.819, 757.201 950.921, 759.928 952.129 C 762.687 953.350, 762.937 953.820, 762.387 956.751 C 761.201 963.073, 762.849 968.881, 767.156 973.553 C 772.231 979.059, 778.269 981.484, 784.938 980.694 C 797.382 979.220, 806.032 970.006, 805.978 958.282 C 805.923 946.259, 796.175 935.604, 785.704 936.120 C 781.670 936.319, 781.186 936.004, 773.722 928.313 C 769.444 923.905, 763.992 918.897, 761.606 917.183 L 757.267 914.068 750.928 921.079 M 955.811 925.197 C 950.965 930.255, 947 934.767, 947 935.223 C 947 936.851, 959.229 951.534, 962.104 953.359 C 964.581 954.931, 965.282 955.011, 966.647 953.878 C 968.101 952.671, 968.173 952.882, 967.380 956.020 C 965.598 963.066, 966.421 969.425, 969.790 974.642 C 975.104 982.870, 986.233 988.938, 993.315 987.470 C 1009.523 984.110, 1019.764 969.019, 1015.587 954.651 C 1013.745 948.315, 1006.822 939.970, 1000.902 936.950 C 996.871 934.894, 988.548 934.304, 987.500 936 C 986.379 937.814, 985.177 937.041, 985.744 934.870 C 986.317 932.679, 985.897 932.225, 972.392 920.453 C 969.583 918.004, 966.685 916, 965.953 916 C 965.221 916, 960.657 920.139, 955.811 925.197 M 94 926.750 L 94 935 103.928 935 L 113.856 935 114.516 929.720 C 114.879 926.817, 115.023 923.144, 114.838 921.558 L 114.500 918.676 104.250 918.588 L 94 918.500 94 926.750 M 523 919 C 516.675 919.275, 511.613 919.837, 511.750 920.250 C 511.887 920.663, 512 924.375, 512 928.500 L 512 936 524.500 936 L 537 936 537 927.607 C 537 921.750, 536.622 919.106, 535.750 918.857 C 535.063 918.661, 529.325 918.725, 523 919 M 55 927.039 L 55 935.078 63.750 934.789 L 72.500 934.500 72.792 926.750 L 73.084 919 64.042 919 L 55 919 55 927.039 M 75.358 922.750 C 75.699 924.813, 75.983 928.413, 75.989 930.750 L 76 935 82.500 935 L 89 935 89 927 L 89 919 81.869 919 L 74.738 919 75.358 922.750 M 474 927 L 474 935 490 935 L 506 935 506 931.640 C 506 929.791, 506.286 926.191, 506.636 923.640 L 507.272 919 498.678 919 L 490.084 919 489.743 926.750 L 489.402 934.500 489.201 926.750 L 489 919 481.500 919 L 474 919 474 927 M 626.610 920.821 C 626.281 921.355, 626.893 922.851, 627.972 924.146 C 630.291 926.929, 630.546 926.282, 628.605 922.540 C 627.838 921.061, 626.940 920.288, 626.610 920.821 M 137.147 928.051 L 134.795 929.011 135.147 945.423 C 135.341 954.449, 135.725 962.055, 136 962.324 C 136.275 962.593, 141.348 962.968, 147.273 963.157 L 158.045 963.500 157.773 945.500 L 157.500 927.500 148.500 927.295 C 143.550 927.183, 138.441 927.523, 137.147 928.051 M 553 946 L 553 964 565 964 L 577 964 577 946 L 577 928 565 928 L 553 928 553 946 M 55.210 948.250 L 55.500 956.500 63.500 956.500 L 71.500 956.500 71.790 948.250 L 72.081 940 63.500 940 L 54.919 940 55.210 948.250 M 76 947.954 L 76 956 82.500 956 L 89 956 89 949 C 89 945.150, 89.112 941.663, 89.250 941.250 C 89.388 940.837, 86.463 940.367, 82.750 940.204 L 76 939.909 76 947.954 M 95 948.645 L 95 957.289 101.750 956.652 C 105.463 956.301, 109.963 956.011, 111.750 956.007 L 115 956 115 948 L 115 940 105 940 L 95 940 95 948.645 M 475.152 940.808 C 474.110 941.528, 473.967 943.467, 474.520 949.369 L 475.235 957 482.044 957 C 487.688 957, 488.932 956.701, 489.311 955.250 C 489.746 953.583, 489.774 953.583, 489.884 955.250 C 489.985 956.770, 491.116 957, 498.500 957 L 507 957 507 949 L 507 941 500.654 941 C 497.163 941, 490.301 940.748, 485.404 940.439 C 480.506 940.130, 475.894 940.296, 475.152 940.808 M 515.750 940.728 C 512.253 941.094, 512 941.344, 512 944.421 C 512 946.236, 512.286 949.809, 512.636 952.360 L 513.272 957 525.136 957 L 537 957 537 948.500 L 537 940 528.250 940.168 C 523.438 940.261, 517.813 940.513, 515.750 940.728 M 683.500 947.945 C 679.622 949.533, 677.500 952.979, 677.500 957.692 C 677.500 961.362, 678.008 962.610, 680.306 964.587 C 686.760 970.138, 698 964.946, 698 956.414 C 698 952.556, 694.244 948.499, 689.861 947.622 C 686.180 946.886, 686.076 946.891, 683.500 947.945 M 969.459 949.067 C 969.096 949.653, 969.014 950.348, 969.276 950.610 C 969.538 950.872, 970.019 950.392, 970.345 949.543 C 971.021 947.781, 970.445 947.471, 969.459 949.067 M 778.400 953.400 C 775.509 956.291, 775 957.496, 775 961.445 C 775 966.594, 777.750 970.397, 782.298 971.539 C 785.321 972.297, 792.452 968.892, 794.035 965.934 C 796.721 960.916, 794.935 954.574, 790.017 951.669 C 785.602 949.061, 782.238 949.562, 778.400 953.400 M 361.393 952.978 C 357.459 954.568, 353 961.103, 353 965.278 C 353 975.469, 361.438 980.733, 370.717 976.330 C 375.205 974.200, 377.991 969.628, 377.996 964.385 C 378.004 955.994, 369.088 949.869, 361.393 952.978 M 987.756 954.755 C 978.563 960.455, 981.879 975, 992.371 975 C 995.633 975, 996.970 974.293, 1000.632 970.632 C 1005.323 965.940, 1005.894 963.630, 1003.506 959.011 C 1000.450 953.103, 993.465 951.215, 987.756 954.755 M 880.923 956.923 C 875.503 962.343, 877.501 971.258, 884.618 973.411 C 887.216 974.196, 890.760 972.894, 893.750 970.057 C 895.415 968.477, 896 966.785, 896 963.550 C 896 959.895, 895.495 958.753, 892.923 956.589 C 888.756 953.082, 884.650 953.197, 880.923 956.923 M 245.217 956.561 C 239.660 960.453, 238.319 969.047, 242.601 973.328 C 245.856 976.583, 248.255 977.362, 252.544 976.558 C 257.202 975.684, 260 971.835, 260 966.299 C 260 960.833, 258.794 958.462, 255.020 956.510 C 251.280 954.576, 248.026 954.593, 245.217 956.561 M 17.513 970.202 C 17.212 971.466, 17.323 974.525, 17.760 977 L 18.555 981.500 30.278 981.481 C 36.725 981.470, 73.725 981.358, 112.500 981.231 L 183 981 183 974.719 L 183 968.438 100.531 968.171 L 18.062 967.904 17.513 970.202 M 434.409 970.377 C 434.118 971.134, 434.020 973.947, 434.190 976.627 L 434.500 981.500 519.934 981.233 C 566.922 981.086, 605.453 980.861, 605.558 980.733 C 605.663 980.605, 605.524 977.913, 605.250 974.750 L 604.752 969 519.845 969 C 448.663 969, 434.852 969.223, 434.409 970.377" stroke="none" fill="#000000" fill-rule="evenodd"/>
</svg>