<svg xmlns="http://www.w3.org/2000/svg" width="1024" height="1024" viewBox="0 0 1024 1024" version="1.1">
	<path d="M 154.977 110.976 C 144.783 111.478, 142.913 111.861, 138.761 114.294 C 133.621 117.306, 129.896 121.611, 127.531 127.272 C 126.166 130.539, 126.001 170.643, 126.010 497.718 L 126.020 864.500 128.357 869.520 C 131.285 875.808, 139.776 883.646, 144.823 884.718 C 146.845 885.148, 312.525 885.480, 513 885.455 C 815.862 885.418, 878.167 885.182, 881.444 884.063 C 886.307 882.403, 894.274 875.095, 897.823 869.039 L 900.477 864.510 900.718 496.505 L 900.958 128.500 897.928 123.195 C 894.670 117.493, 888.408 112.725, 881.859 110.962 C 877.949 109.909, 176.348 109.923, 154.977 110.976 M 213.299 145.981 C 174.816 146.387, 163.816 146.783, 162.799 147.800 C 161.739 148.861, 161.500 213.258, 161.500 498.586 C 161.500 808.153, 161.671 848.181, 163 849.021 C 163.938 849.614, 295.169 849.975, 513.227 849.985 L 861.954 850 863.494 847.650 C 864.874 845.543, 865.006 809.238, 864.767 497.200 C 864.549 213.273, 864.260 148.860, 863.201 147.800 C 862.176 146.775, 851.129 146.442, 810.951 146.223 L 760 145.947 760 155.392 C 760 160.586, 759.752 165.484, 759.448 166.275 C 759.034 167.354, 760.071 167.875, 763.589 168.357 C 770.575 169.315, 776.666 172.816, 782.434 179.190 C 790.746 188.375, 792.386 192.549, 792.831 205.655 L 793.210 216.810 785.855 217.369 C 781.810 217.676, 761.749 218.151, 741.275 218.424 L 704.049 218.919 704.503 214.710 C 704.753 212.394, 705.224 207.495, 705.551 203.822 C 706.427 193.959, 711.092 184.894, 718.954 177.780 C 725.879 171.513, 730.368 169.029, 736.173 168.250 L 740.063 167.728 739.781 156.614 C 739.532 146.765, 739.301 145.509, 737.750 145.583 C 736.788 145.629, 634.525 145.742, 510.500 145.833 L 285 146 285 156.981 L 285 167.962 287.750 168.550 C 298.583 170.868, 308.903 178.990, 314.277 189.427 C 317.117 194.943, 317.441 196.532, 317.810 206.750 L 318.216 218 292.768 218 C 278.772 218, 259.078 218.299, 249.004 218.663 L 230.688 219.327 231.384 210.114 C 232.326 197.632, 235.767 188.510, 242.181 181.493 C 248.174 174.935, 255.048 170.269, 260.875 168.801 L 265.268 167.695 264.634 160.197 C 264.285 156.073, 264 150.966, 264 148.849 C 264 146.732, 263.663 145.104, 263.250 145.231 C 262.837 145.359, 240.360 145.696, 213.299 145.981 M 456.545 181.368 C 456.166 185.409, 456.163 190.355, 456.539 192.358 C 457.219 195.982, 457.205 196, 453.733 196 C 451.814 196, 448.569 195.300, 446.521 194.444 C 444.473 193.589, 441.380 193.026, 439.649 193.194 C 436.695 193.481, 436.507 193.737, 436.620 197.320 C 436.686 199.421, 437.217 201.617, 437.800 202.200 C 438.382 202.782, 445.664 204.984, 453.982 207.092 C 474.467 212.284, 484.260 217.182, 497.796 229.006 C 503.459 233.953, 508.521 238, 509.046 238 C 511.965 238, 508.627 225.604, 501.838 211.242 C 498.683 204.566, 496.084 201.055, 488.280 192.924 C 476.803 180.966, 471.353 177.464, 459.867 174.663 C 457.245 174.023, 457.230 174.053, 456.545 181.368 M 559.104 177.541 C 549.059 182.253, 539.662 190.101, 532.054 200.131 C 522.655 212.523, 518 223.785, 518 234.136 C 518 238.624, 521.274 237.838, 525.167 232.417 C 526.977 229.896, 530.493 226.342, 532.979 224.518 C 541.759 218.078, 558.741 209.941, 572.675 205.498 C 580.279 203.074, 587.375 200.449, 588.444 199.666 C 590.330 198.286, 590.334 198.159, 588.588 195.494 C 586.851 192.843, 586.564 192.768, 580.515 193.388 C 571.622 194.299, 571.001 193.892, 570.994 187.143 C 570.988 180.409, 569.375 173.986, 567.703 174.036 C 567.041 174.056, 563.172 175.633, 559.104 177.541 M 411.993 223.887 C 408.368 227.698, 406.513 232.568, 407.604 235.411 C 408.378 237.426, 413.451 239.226, 429 243.001 C 436.425 244.803, 450.825 248.646, 461 251.540 C 471.175 254.435, 481.750 257.130, 484.500 257.529 C 490.924 258.462, 492.706 259.433, 497.135 264.413 L 500.770 268.500 509.933 268.851 C 521.026 269.277, 524.076 268.204, 528.005 262.493 C 530.859 258.345, 531.073 258.241, 540.205 256.595 C 555.766 253.791, 608.794 242.445, 613.877 240.832 L 617.255 239.761 616.737 233.312 C 616.088 225.233, 613.560 222, 607.891 222 C 605.822 222, 603.049 222.411, 601.728 222.913 C 600.406 223.416, 594.864 224.343, 589.413 224.975 C 569.916 227.233, 528.145 238.599, 525.804 242.283 C 525.378 242.953, 525.024 246.012, 525.015 249.083 C 525.007 252.154, 524.713 254.954, 524.361 255.305 C 524.010 255.657, 522.322 254.764, 520.611 253.321 C 516.064 249.486, 511.460 247.823, 507.464 248.573 C 504.471 249.134, 503.916 248.910, 503.121 246.817 C 502.619 245.497, 501.599 243.932, 500.854 243.337 C 497.998 241.058, 467.508 231.171, 451.500 227.332 C 445.689 225.939, 417.047 220, 416.139 220 C 415.892 220, 414.026 221.749, 411.993 223.887 M 790.584 232.173 C 788.613 234.476, 787 237.390, 787 238.648 C 787 241.328, 799.361 256, 801.619 256 C 804.043 256, 808.284 253.396, 811.773 249.764 L 815.046 246.357 805.773 237.865 C 800.673 233.194, 795.975 229.061, 795.334 228.679 C 794.649 228.272, 792.689 229.713, 790.584 232.173 M 222.946 233.580 C 221.051 235.549, 217.363 238.737, 214.750 240.665 C 212.137 242.593, 210 244.941, 210 245.882 C 210 248.290, 217.150 255, 219.715 255 C 222.953 255, 237 242.969, 237 240.196 C 237 237.141, 229.818 230, 226.746 230 C 226.551 230, 224.842 231.611, 222.946 233.580 M 314.404 233.329 C 310.518 236.672, 311.710 239.913, 319.925 248.342 C 326.449 255.037, 326.931 255.327, 332.109 255.700 C 337.041 256.055, 337.663 255.857, 339.421 253.379 C 340.641 251.658, 340.824 250.967, 339.921 251.482 C 338.770 252.139, 338.738 252.037, 339.750 250.947 C 343.183 247.248, 340.170 243.337, 327.150 234.593 C 320.906 230.400, 318.129 230.125, 314.404 233.329 M 694.103 237.884 C 686.907 246, 686.383 248.687, 691.133 253.124 C 693.334 255.180, 694.895 255.877, 696.383 255.467 C 698.453 254.896, 711 242.501, 711 241.027 C 711 239.633, 702.836 231, 701.518 231 C 700.796 231, 697.460 234.098, 694.103 237.884 M 542.924 273.636 C 538.015 278.974, 534.208 279.818, 513.500 280.160 L 494.500 280.474 488.551 277.206 C 485.043 275.279, 481.967 274.213, 481.051 274.608 C 480.198 274.977, 421.225 275.438, 350 275.633 C 232.771 275.954, 203.635 276.508, 193.147 278.617 C 188.710 279.509, 186.009 283.923, 186.004 290.290 C 185.997 299.079, 192.154 307.174, 199.831 308.471 C 202.419 308.909, 204.100 309.866, 204.826 311.315 C 205.605 312.872, 206.066 387.095, 206.426 569.500 C 206.705 710.300, 206.948 826.962, 206.966 828.750 C 206.985 830.585, 207.520 832, 208.195 832 C 208.853 832, 210.681 833.237, 212.259 834.748 C 214.156 836.565, 214.900 836.904, 214.457 835.748 C 214.088 834.787, 213.272 833.929, 212.643 833.843 C 210.515 833.550, 225.455 832.249, 232.385 832.124 L 239.271 832 238.885 686.084 C 238.673 605.830, 238.878 539.793, 239.339 539.334 C 239.801 538.875, 251.501 538.416, 265.339 538.313 C 279.178 538.210, 296.350 537.822, 303.500 537.452 C 315.912 536.808, 316.625 536.877, 319.270 538.977 C 325.296 543.762, 325.406 544.457, 325.822 580.250 L 326.203 613 334.101 613 L 342 613 342 580.401 C 342 544.809, 342.242 543.107, 347.836 539.309 C 350.099 537.772, 352.381 537.529, 363 537.693 C 382.947 538, 417.306 538.042, 417.413 537.759 C 417.467 537.617, 417.363 533.570, 417.182 528.767 L 416.854 520.034 328.254 520.011 C 279.524 519.998, 239.425 519.758, 239.144 519.477 C 238.863 519.197, 238.604 498.857, 238.567 474.278 L 238.500 429.589 242 428.756 C 248.329 427.250, 277.456 426.626, 282.471 427.888 C 285.991 428.775, 288.095 428.773, 291.296 427.883 C 293.608 427.240, 299.555 426.674, 304.512 426.626 C 315.336 426.520, 319.211 428.274, 322.908 434.952 C 325.058 438.836, 325.400 441.078, 326.102 455.901 C 326.535 465.030, 326.914 479.419, 326.944 487.875 L 327 503.250 330.125 502.625 C 331.844 502.281, 342.648 502, 354.134 502 L 375.017 502 371.820 496.250 C 365.085 484.136, 357.694 471.399, 356.007 469 C 355.040 467.625, 352.345 462.675, 350.017 458 C 347.689 453.325, 343.958 447.112, 341.727 444.193 L 337.669 438.886 339.716 436.839 C 340.842 435.714, 344.322 434.198, 347.451 433.470 C 350.581 432.743, 355.468 430.546, 358.319 428.586 C 361.505 426.395, 365.233 424.787, 368.001 424.410 L 372.503 423.796 374.850 428.648 C 376.142 431.317, 379.571 437.550, 382.471 442.500 C 385.371 447.450, 389.828 455.699, 392.375 460.832 C 394.923 465.964, 398.717 472.551, 400.806 475.469 C 405.710 482.317, 407.802 488.328, 406.027 490.468 C 405.327 491.310, 403.520 492, 402.011 492 C 399.652 492, 398.967 491.279, 397.133 486.867 C 395.960 484.043, 395 480.893, 395 479.867 C 395 478.521, 394.271 478, 392.390 478 C 389.360 478, 378.024 483.775, 377.287 485.693 C 377.013 486.409, 378.187 488.587, 379.896 490.534 C 381.605 492.481, 384.130 496.295, 385.505 499.011 C 387.903 503.741, 388.122 503.903, 390.754 502.886 C 392.264 502.303, 398.900 501.864, 405.500 501.911 L 417.500 501.996 417.230 455.748 L 416.961 409.500 328.730 409.157 C 274.410 408.946, 240.116 408.447, 239.500 407.857 C 238.342 406.749, 238.070 320.601, 239.221 319.448 C 240.623 318.041, 257.724 316.604, 274.500 316.482 C 283.850 316.414, 295.612 315.993, 300.638 315.547 C 311.993 314.538, 316.105 315.276, 320.461 319.100 C 325.603 323.615, 326.249 328.527, 326.146 362.364 C 326.098 378.270, 326.226 391.558, 326.430 391.892 C 326.635 392.227, 330.222 392.352, 334.401 392.171 L 342 391.842 342.015 358.171 C 342.031 321.973, 342.095 321.481, 347.319 317.596 C 349.776 315.769, 351.813 315.457, 363.172 315.168 C 373.072 314.917, 377.368 315.217, 381.041 316.418 C 384.635 317.594, 389.997 318, 401.938 318 L 418 318 418 312.141 L 418 306.282 426.750 305.732 C 431.563 305.430, 435.543 305.254, 435.596 305.341 C 435.649 305.429, 435.405 308.343, 435.053 311.819 C 434.701 315.294, 434.770 318.358, 435.207 318.628 C 435.643 318.897, 436 327.641, 436 338.059 L 436 357 446.250 357.011 C 451.887 357.017, 458.188 357.301, 460.250 357.642 L 464 358.262 464 341.678 C 464 331.772, 464.442 324.124, 465.097 322.686 C 467.233 317.999, 472.131 316.616, 488 316.218 C 502.060 315.867, 502.648 315.935, 507.377 318.467 C 511.918 320.899, 512.380 320.966, 514.061 319.445 C 520.157 313.928, 541.691 313.438, 552.504 318.569 C 557.245 320.819, 558 323.989, 558 341.649 L 558 357 572.500 357 L 587 357 587.015 332.750 C 587.024 319.413, 587.361 308.006, 587.765 307.402 C 588.169 306.798, 592.212 306.024, 596.750 305.683 L 605 305.063 605.125 309.531 C 605.194 311.989, 605.313 314.563, 605.390 315.250 C 605.495 316.186, 608.205 316.419, 616.162 316.177 C 623.553 315.953, 628.745 316.344, 633.195 317.460 C 639.389 319.014, 639.754 318.996, 644.428 316.929 C 648.341 315.198, 651.373 314.769, 660.379 314.673 C 672.445 314.544, 675.214 315.364, 680 320.484 L 682.500 323.158 682.799 357.579 L 683.098 392 691.299 392 L 699.500 392 699.500 358.095 L 699.500 324.191 702.597 320.345 C 707.425 314.350, 711.107 313.509, 725.500 315.116 C 732.100 315.853, 744.137 316.327, 752.249 316.170 C 763.627 315.949, 768.427 316.268, 773.249 317.564 C 776.687 318.488, 781.075 319.534, 783 319.889 L 786.500 320.534 786.761 363.956 C 786.904 387.838, 786.661 407.739, 786.221 408.179 C 785.477 408.923, 610.028 409.563, 607.215 408.832 C 606.199 408.568, 605.950 414.432, 605.997 437.445 C 606.031 453.365, 606.157 466.489, 606.279 466.610 C 606.400 466.730, 612.238 466.980, 619.251 467.164 L 632.003 467.500 632.001 451.797 C 632 434.633, 632.669 431.739, 637.183 429.405 C 641.150 427.354, 655.055 425.676, 663.563 426.222 C 669.080 426.576, 671.899 427.337, 675.485 429.438 C 683.149 433.930, 683.270 434.572, 683.244 470.750 L 683.222 502 691.361 502.001 L 699.500 502.001 699.223 469.885 L 698.945 437.769 701.544 433.334 C 705.764 426.133, 708.415 425.384, 724.855 426.744 C 740.352 428.025, 742.853 428.821, 745.585 433.335 C 747.200 436.005, 747.553 438.886, 747.840 451.750 L 748.179 467 760.090 467 L 772 467 772 449.934 C 772 440.083, 772.438 432.051, 773.035 430.934 C 773.837 429.437, 775.148 429, 778.844 429 C 788.083 429, 787.500 425.913, 787.500 474.837 C 787.500 498.485, 787.125 518.208, 786.667 518.667 C 786.209 519.125, 745.259 519.626, 695.667 519.781 L 605.500 520.061 605.861 528.781 C 606.059 533.576, 606.284 537.567, 606.361 537.650 C 606.947 538.279, 647.319 538.185, 658.398 537.528 C 670.616 536.805, 672.680 536.912, 675.469 538.413 C 682.007 541.934, 682.121 542.576, 682.740 579.340 L 683.300 612.565 691.400 612.533 L 699.500 612.500 699.230 580 C 698.961 547.708, 698.974 547.475, 701.251 543.519 C 704.903 537.174, 706.373 536.777, 723.500 537.514 C 731.750 537.869, 746.652 538.089, 756.616 538.003 C 767.233 537.911, 777.233 538.339, 780.772 539.035 L 786.812 540.223 787.482 547.862 C 787.851 552.063, 787.781 577.550, 787.327 604.500 C 786.386 660.285, 786.480 816.322, 787.461 825.477 C 788.075 831.218, 788.283 831.598, 791.305 832.523 C 793.062 833.060, 797.425 833.215, 801 832.867 C 804.575 832.519, 810.200 832.181, 813.500 832.117 L 819.500 832 819.744 570.750 C 819.879 427.062, 819.991 308.938, 819.994 308.250 C 819.997 307.556, 821.223 306.998, 822.750 306.994 C 830.401 306.979, 838.106 302.384, 840.636 296.329 C 841.386 294.533, 842 290.210, 842 286.721 C 842 281.719, 841.569 279.914, 839.961 278.189 C 837.930 276.008, 837.770 276, 798.211 275.993 C 730.711 275.981, 582.174 275.012, 568.925 274.498 C 562.009 274.229, 554.134 273.338, 551.425 272.516 C 545.189 270.624, 545.764 270.548, 542.924 273.636 M 254.349 342.500 C 254.680 349.100, 254.963 355.188, 254.976 356.029 C 254.996 357.304, 256.746 357.552, 265.526 357.529 L 276.052 357.500 275.776 344.500 L 275.500 331.500 264.623 331 L 253.746 330.500 254.349 342.500 M 292 344.036 L 292 358.072 301.250 357.400 C 306.337 357.031, 310.632 356.620, 310.793 356.487 C 310.955 356.355, 310.775 350.341, 310.394 343.123 L 309.701 330 300.850 330 L 292 330 292 344.036 M 357.161 344.068 L 357.194 358.211 360.222 357.606 C 361.887 357.273, 365.907 357, 369.154 357 L 375.058 357 374.779 343.750 L 374.500 330.500 365.814 330.212 L 357.129 329.924 357.161 344.068 M 391.696 330.637 C 391.313 331.020, 390.999 337.221, 390.999 344.417 L 390.997 357.500 404.249 357.166 C 411.537 356.982, 417.532 356.757, 417.570 356.666 C 417.609 356.575, 417.384 350.650, 417.070 343.500 L 416.500 330.500 404.446 330.221 C 397.816 330.067, 392.079 330.255, 391.696 330.637 M 480 344.017 L 480 358.033 490.994 357.767 L 501.988 357.500 501.994 344.375 L 502 331.250 498.875 330.625 C 497.156 330.281, 492.206 330, 487.875 330 L 480 330 480 344.017 M 519.348 340.656 C 519.707 346.516, 520 352.726, 520 354.455 L 520 357.598 530.496 357.549 L 540.993 357.500 540.996 343.750 L 541 330 529.848 330 L 518.696 330 519.348 340.656 M 606 343.393 L 606 357 618.500 357 L 631 357 631 344 L 631 331 620.082 331 C 614.077 331, 608.452 330.727, 607.582 330.393 C 606.187 329.858, 606 331.396, 606 343.393 M 647.500 343.442 L 647.500 356.882 657.752 357.191 L 668.004 357.500 668.002 343.750 L 668 330 657.750 330.001 L 647.500 330.001 647.500 343.442 M 714 343.750 L 713.999 357.500 723.498 357.500 L 732.998 357.500 732.999 343.750 L 733 330 723.500 330 L 714 330 714 343.750 M 748 343.361 L 748 357 759.500 357 L 771 357 771 344 L 771 331 764.750 330.991 C 761.313 330.987, 756.138 330.699, 753.250 330.352 L 748 329.721 748 343.361 M 254.998 381.250 L 255 392 265.500 392 L 276 392 276 381.564 L 276 371.129 265.498 370.814 L 254.996 370.500 254.998 381.250 M 391 380.813 L 391 391.626 404.500 391.563 L 418 391.500 418 381.381 L 418 371.262 414.250 370.642 C 412.188 370.301, 406.113 370.017, 400.750 370.011 L 391 370 391 380.813 M 436 380.984 L 436 391.967 449.750 391.564 L 463.500 391.161 463.783 381.231 L 464.067 371.302 455.783 370.657 C 451.227 370.302, 444.913 370.009, 441.750 370.006 L 436 370 436 380.984 M 479.534 379.983 C 479.876 385.217, 480.331 390.063, 480.546 390.750 C 480.826 391.645, 483.905 392, 491.400 392 L 501.863 392 502.188 382.250 C 502.367 376.887, 502.286 372.206, 502.007 371.846 C 501.728 371.486, 496.418 371.029, 490.207 370.829 L 478.913 370.465 479.534 379.983 M 519.307 380.003 C 519.712 386.652, 520.395 390.660, 521.219 391.232 C 522.560 392.162, 538.820 391.514, 539.844 390.489 C 540.169 390.164, 540.674 385.646, 540.967 380.449 L 541.500 370.999 531.832 370.999 C 526.514 371, 521.379 370.699, 520.420 370.331 C 518.808 369.712, 518.725 370.439, 519.307 380.003 M 557.393 371.582 C 557.727 372.452, 558 377.289, 558 382.332 L 558 391.500 572.500 391.634 L 587 391.768 587 381.532 L 587 371.296 578.750 370.654 C 574.212 370.301, 567.414 370.009, 563.643 370.006 C 557.800 370.001, 556.876 370.234, 557.393 371.582 M 606 380.969 L 606 392 618.534 392 L 631.068 392 630.784 381.250 L 630.500 370.500 618.250 370.219 L 606 369.938 606 380.969 M 749 381 L 749 392 760 392 L 771 392 771 381 L 771 370 760 370 L 749 370 749 381 M 293 381.248 L 293.500 391.500 297.456 391.823 C 303.810 392.341, 307.565 391.250, 308.807 388.524 C 310.570 384.655, 311.266 376.755, 310.108 373.750 C 309.072 371.057, 308.878 371, 300.775 370.998 L 292.500 370.995 293 381.248 M 357.414 377.750 C 357.771 381.462, 358.313 386.188, 358.619 388.250 L 359.176 392 367.088 392 L 375 392 375 381.500 L 375 371 365.884 371 L 356.767 371 357.414 377.750 M 647.375 374.125 C 647.719 375.844, 648 380.628, 648 384.757 L 648 392.263 655.602 391.775 C 660.558 391.457, 663.517 390.802, 664.102 389.894 C 665.385 387.904, 666.710 382.341, 667.352 376.250 L 667.906 371 657.328 371 L 646.750 371 647.375 374.125 M 714.198 378.750 C 714.875 390.274, 716.650 392.245, 725.459 391.252 C 731.221 390.602, 732.037 389.216, 732.746 378.873 L 733.286 371 723.514 371 L 713.743 371 714.198 378.750 M 436 418.400 L 436 427.765 452.750 428.223 C 461.962 428.475, 472.404 428.253, 475.953 427.730 C 479.553 427.200, 488.398 427.091, 495.953 427.483 C 503.404 427.869, 512.200 428.061, 515.500 427.910 C 518.800 427.759, 526.675 427.604, 533 427.567 C 543.343 427.507, 545.003 427.751, 549.500 430 C 552.305 431.403, 555.030 433.618, 555.707 435.046 C 556.371 436.447, 557.226 444.209, 557.609 452.296 L 558.303 467 572.652 467 L 587 467 587 438.086 L 587 409.173 511.500 409.104 L 436 409.035 436 418.400 M 365 442.290 C 361.425 443.335, 357.744 444.864, 356.820 445.687 C 355.001 447.307, 354.699 446.591, 365.727 466.815 C 369.083 472.970, 369.226 473.090, 371.335 471.529 C 372.526 470.648, 375.398 468.707, 377.718 467.214 C 380.039 465.721, 381.950 464.050, 381.966 463.500 C 381.982 462.950, 380.351 459.800, 378.341 456.500 C 376.331 453.200, 373.970 448.225, 373.093 445.445 L 371.500 440.390 365 442.290 M 254.662 441.663 C 254.573 441.753, 254.637 447.713, 254.806 454.907 L 255.111 467.987 265.806 467.744 L 276.500 467.500 276.278 455 L 276.057 442.500 265.441 442 C 259.602 441.725, 254.752 441.573, 254.662 441.663 M 291.750 441.580 C 291.613 441.715, 291.638 447.490, 291.807 454.413 L 292.114 467 301.674 467 C 311.099 467, 311.225 466.968, 310.630 464.750 C 310.299 463.512, 310.021 457.738, 310.014 451.917 L 310 441.333 301 441.333 C 296.050 441.333, 291.887 441.444, 291.750 441.580 M 436.694 441.639 C 436.312 442.021, 436 447.883, 436 454.667 L 436 467 447.750 467.014 C 454.212 467.021, 460.526 467.302, 461.780 467.638 L 464.060 468.249 463.780 454.874 L 463.500 441.500 450.444 441.222 C 443.264 441.070, 437.076 441.257, 436.694 441.639 M 714 454.364 L 714 468 723.500 468 L 733 468 733 455 L 733 442 728.140 442 C 725.466 442, 721.191 441.714, 718.640 441.364 L 714 440.728 714 454.364 M 479.370 444.250 C 479.701 445.488, 479.979 451.366, 479.986 457.312 L 480 468.125 491.007 467.812 C 497.061 467.641, 502.011 467.163, 502.007 466.750 C 502.003 466.337, 502 460.600, 502 454 L 502 442 490.383 442 C 478.824 442, 478.770 442.011, 479.370 444.250 M 519.145 453.917 C 519.340 460.471, 519.735 466.069, 520.022 466.356 C 520.778 467.111, 540.453 467.366, 540.750 466.624 C 540.888 466.281, 541 460.600, 541 454 L 541 442 529.895 442 L 518.789 442 519.145 453.917 M 647.966 442.500 C 647.947 442.775, 647.916 448.443, 647.897 455.095 L 647.862 467.190 657.932 467.345 L 668.001 467.500 668.001 454.750 L 668 442 658 442 C 652.500 442, 647.984 442.225, 647.966 442.500 M 254.404 488.250 C 254.607 492.238, 254.825 497.214, 254.887 499.309 C 254.949 501.404, 255.378 502.884, 255.841 502.598 C 256.303 502.313, 261.028 501.988, 266.341 501.877 L 276 501.676 276.007 498.088 C 276.011 496.115, 276.301 491.462, 276.652 487.750 L 277.289 481 265.662 481 L 254.034 481 254.404 488.250 M 292.353 488.651 C 292.709 492.859, 293 497.602, 293 499.191 L 293 502.081 301.250 501.790 L 309.500 501.500 310 492.228 C 310.275 487.129, 310.350 482.516, 310.167 481.978 C 309.982 481.437, 305.783 481, 300.770 481 L 291.707 481 292.353 488.651 M 436.011 487.750 C 436.017 491.462, 436.301 496.188, 436.642 498.250 L 437.262 502 450.381 501.998 L 463.500 501.997 463.500 491.498 L 463.500 480.998 449.750 480.999 L 436 481 436.011 487.750 M 479.393 482.582 C 479.727 483.452, 480 488.177, 480 493.082 L 480 502 491 502 L 502 502 502 491.500 L 502 481 490.393 481 C 480.220 481, 478.861 481.195, 479.393 482.582 M 519 488.375 C 519 492.431, 519.281 497.156, 519.625 498.875 L 520.250 502 530.625 502 L 541 502 541 491.500 L 541 481 530 481 L 519 481 519 488.375 M 558 492.107 C 558 501.824, 558.198 503.138, 559.582 502.607 C 560.452 502.273, 566.977 502, 574.082 502 L 587 502 587 491.500 L 587 481 572.500 481 L 558 481 558 492.107 M 605.455 482.256 C 605.177 482.980, 605.074 487.773, 605.225 492.906 L 605.500 502.239 617.971 502.065 C 624.831 501.969, 630.540 501.794, 630.658 501.675 C 630.777 501.557, 630.965 496.969, 631.076 491.480 L 631.279 481.500 618.620 481.220 C 608.872 481.004, 605.844 481.243, 605.455 482.256 M 648 491.500 L 648 502 655.750 501.985 C 660.013 501.976, 664.057 501.615, 664.738 501.183 C 666.203 500.253, 668 491.536, 668 485.364 L 668 481 658 481 L 648 481 648 491.500 M 714.217 490.358 C 714.486 495.505, 715.024 500.230, 715.412 500.858 C 715.844 501.556, 719.151 502, 723.920 502 L 731.721 502 732.352 496.750 C 732.699 493.863, 732.987 489.137, 732.991 486.250 L 733 481 723.364 481 L 713.727 481 714.217 490.358 M 748 491.500 L 748 502 760 502 L 772 502 772 491.500 L 772 481 760 481 L 748 481 748 491.500 M 511.250 519.750 L 436 520.013 436 529.031 C 436 537.948, 436.031 538.061, 438.750 539.100 C 440.533 539.782, 447.476 539.926, 458.500 539.511 C 479.949 538.704, 500.462 538.515, 509.500 539.042 C 513.350 539.267, 519.987 538.875, 524.250 538.172 C 530.443 537.150, 533.557 537.140, 539.750 538.120 C 548.891 539.566, 549.683 539.576, 570.750 538.510 L 587 537.687 587 528.344 C 587 523.205, 586.888 519.110, 586.750 519.244 C 586.612 519.378, 552.638 519.605, 511.250 519.750 M 714 564.361 L 714 578 723.500 578 L 733 578 733 565 L 733 552 728.750 551.991 C 726.413 551.987, 722.138 551.699, 719.250 551.352 L 714 550.721 714 564.361 M 254 564.909 L 254 578 265.357 578 L 276.714 578 276.231 565.750 C 275.965 559.013, 275.543 553.275, 275.293 553 C 275.043 552.725, 270.150 552.347, 264.419 552.159 L 254 551.818 254 564.909 M 292 565 L 292 578 301.500 578 L 311 578 310.994 573.250 C 310.991 570.638, 310.699 564.788, 310.346 560.250 L 309.704 552 300.852 552 L 292 552 292 565 M 358 565.607 C 358 577.604, 358.187 579.142, 359.582 578.607 C 360.452 578.273, 364.277 578, 368.082 578 L 375 578 375 565 L 375 552 366.500 552 L 358 552 358 565.607 M 391 565 L 391 578 404.314 578 L 417.629 578 417.247 566.250 C 417.037 559.788, 416.685 553.938, 416.464 553.250 C 416.171 552.338, 412.676 552, 403.531 552 L 391 552 391 565 M 436 565 L 436 578 449.833 578 C 457.442 578, 463.854 577.814, 464.083 577.587 C 464.313 577.360, 464.362 571.510, 464.193 564.587 L 463.886 552 449.943 552 L 436 552 436 565 M 479.817 553.031 C 479.642 553.543, 479.639 559.371, 479.809 565.981 L 480.118 578 491.559 578 L 503 578 503 565.500 C 503 556.184, 502.682 552.992, 501.750 552.968 C 501.063 552.951, 495.917 552.748, 490.317 552.518 C 484.517 552.280, 479.997 552.501, 479.817 553.031 M 519 565 L 519 578 530.639 578 L 542.279 578 541.648 572.750 C 541.301 569.862, 541.013 564.013, 541.009 559.750 L 541 552 530 552 L 519 552 519 565 M 557.792 552.723 C 557.594 553.150, 557.597 558.900, 557.798 565.500 L 558.163 577.500 572.610 577.529 L 587.056 577.558 586.778 565.029 L 586.500 552.500 572.326 552.223 C 564.530 552.071, 557.990 552.296, 557.792 552.723 M 606 565.080 L 606 578 619.030 578 L 632.060 578 631.780 565.250 L 631.500 552.500 618.750 552.330 L 606 552.159 606 565.080 M 647.375 555.125 C 647.719 556.844, 648 562.694, 648 568.125 L 648 578 657.750 578 L 667.500 578.001 667.500 565.004 L 667.500 552.008 657.125 552.004 L 646.750 552 647.375 555.125 M 748 560.360 C 748 564.959, 748.273 570.696, 748.607 573.110 L 749.214 577.500 760.691 577.625 C 771.933 577.748, 772.156 577.707, 771.598 575.625 C 771.284 574.456, 771.021 568.663, 771.014 562.750 L 771 552 759.500 552 L 748 552 748 560.360 M 254 598.739 C 254 603.145, 254.262 608.063, 254.583 609.667 L 255.167 612.583 265.486 612.583 L 275.806 612.583 276.392 609.042 C 276.714 607.094, 276.983 602.462, 276.989 598.750 L 277 592 270.140 592 C 266.366 592, 261.191 591.714, 258.640 591.364 L 254 590.728 254 598.739 M 300.500 591.784 L 292.500 592.068 292.816 602.034 L 293.133 612 300.950 612 C 309.959 612, 309.566 612.467, 310.631 600.478 C 311.109 595.101, 310.932 593.227, 309.877 592.478 C 309.120 591.940, 304.900 591.628, 300.500 591.784 M 391.331 592.575 C 391.105 593.166, 391.051 597.891, 391.210 603.075 C 391.419 609.861, 391.850 612.472, 392.750 612.400 C 393.438 612.345, 399.288 612.233, 405.750 612.152 L 417.500 612.004 417.185 602.058 L 416.870 592.112 404.305 591.806 C 395.998 591.604, 391.602 591.864, 391.331 592.575 M 436.216 601.569 L 436.500 612.138 450.250 612.429 L 464 612.719 464 602.508 L 464 592.296 455.750 591.654 C 451.212 591.301, 444.897 591.009, 441.716 591.006 L 435.932 591 436.216 601.569 M 558 602.058 L 558 613.117 572.498 612.808 L 586.996 612.500 586.998 602.398 L 587 592.296 578.750 591.654 C 574.212 591.301, 567.688 591.009, 564.250 591.006 L 558 591 558 602.058 M 608 591.868 C 605.547 592.488, 605.500 592.685, 605.500 602.251 L 605.500 612.003 618.750 612.001 L 632 612 632 602.139 L 632 592.279 626.750 591.648 C 620.451 590.891, 611.448 590.997, 608 591.868 M 714.011 597.608 C 714.017 601.398, 714.296 606.156, 714.630 608.180 L 715.239 611.860 723.571 612.180 C 733.352 612.556, 732.965 613.046, 732.986 600.250 L 733 592 729.647 592 C 727.802 592, 723.527 591.711, 720.147 591.358 L 714 590.715 714.011 597.608 M 748.352 596.250 C 748.699 599.138, 748.987 603.862, 748.991 606.750 L 749 612 760 612 L 771 612 771 601.500 L 771 591 759.361 591 L 747.721 591 748.352 596.250 M 357.439 600.250 C 358.567 613.613, 357.952 612.802, 366.831 612.640 L 374.500 612.500 374.785 602.250 L 375.070 592 365.906 592 L 356.742 592 357.439 600.250 M 479.356 596.250 C 479.654 598.587, 479.921 603.313, 479.949 606.750 L 480 613 490.883 613 C 503.613 613, 502.964 613.684, 502.986 600.250 L 503 592 490.907 592 L 478.814 592 479.356 596.250 M 519.282 601.647 C 519.662 608.017, 520.306 611.578, 521.179 612.132 C 521.905 612.592, 526.888 612.976, 532.250 612.985 L 542 613 542 602.500 L 542 592 530.353 592 L 518.706 592 519.282 601.647 M 648 602 L 648 612 656.869 612 L 665.738 612 666.358 608.250 C 666.699 606.188, 666.983 601.688, 666.989 598.250 L 667 592 657.500 592 L 648 592 648 602 M 427.081 630.257 C 423.957 631.069, 419 636.202, 419 638.626 C 419 641.050, 421.880 645.866, 424.012 647.006 C 425.291 647.691, 438.722 648.148, 461.570 648.286 L 497.137 648.500 500.569 644.765 C 504.745 640.218, 504.931 637.037, 501.250 633.061 L 498.500 630.090 464.248 629.795 C 445.409 629.633, 428.684 629.841, 427.081 630.257 M 522.901 633.106 C 519.165 637.105, 519.116 640.991, 522.750 645.009 L 525.500 648.049 560.812 648.152 L 596.124 648.255 599.062 645.441 C 602.362 642.279, 602.850 638.658, 600.439 635.217 C 596.906 630.173, 595.549 630, 559.451 630 L 525.802 630 522.901 633.106 M 312.881 651.503 C 310.236 652.941, 307 658.414, 307 661.451 C 307 665.835, 312.173 671.547, 316.573 672.022 C 321.242 672.526, 323.415 671.785, 326.600 668.600 C 331.871 663.329, 330.637 656.411, 323.656 652.097 C 319.731 649.671, 316.573 649.497, 312.881 651.503 M 345.305 651.499 C 344.127 652.324, 342.191 654.573, 341.002 656.497 C 338.232 660.978, 338.974 664.770, 343.575 669.648 C 346.771 673.037, 347.278 673.229, 351.709 672.729 C 358.101 672.009, 362 667.833, 362 661.707 C 362 659.363, 361.298 656.442, 360.439 655.217 C 357.091 650.436, 349.489 648.569, 345.305 651.499 M 665.533 653.533 C 662.547 656.519, 662 657.756, 662 661.518 C 662 667.754, 665.826 672.001, 672.078 672.705 C 675.900 673.136, 677.064 672.817, 679.666 670.627 C 686.300 665.046, 686.189 659.007, 679.342 652.995 C 674.492 648.737, 670.161 648.905, 665.533 653.533 M 698.722 652.135 C 695.560 654.494, 693 658.907, 693 662 C 693 665.388, 695.807 669.849, 698.967 671.483 C 704.065 674.119, 707.785 673.450, 712.118 669.118 C 715.462 665.773, 716 664.620, 716 660.792 C 716 657.458, 715.438 655.837, 713.750 654.299 C 708.482 649.501, 703.262 648.749, 698.722 652.135 M 267.629 654.078 C 266.176 655.220, 264.502 657.062, 263.909 658.170 C 263.159 659.571, 262.864 686.294, 262.941 745.843 C 263.043 825.689, 263.168 831.589, 264.775 832.812 C 266.076 833.801, 268.838 833.956, 276 833.443 C 281.225 833.068, 285.579 832.699, 285.675 832.622 C 285.771 832.546, 285.996 828.100, 286.175 822.743 L 286.500 813.002 293 812.994 C 296.575 812.990, 310.637 812.797, 324.250 812.565 L 349 812.144 349 822.572 L 349 833 351.750 833.139 C 353.262 833.215, 358.436 833.327, 363.248 833.389 L 371.995 833.500 372.104 828.500 C 372.164 825.750, 372.123 808.557, 372.012 790.293 L 371.812 757.085 374.417 756.431 C 377.325 755.702, 380.515 751.781, 381.547 747.670 C 382.523 743.780, 380.336 739.373, 376.132 736.759 C 372.530 734.519, 372.149 734.498, 329.750 734.210 L 287 733.919 287 697.094 C 287 661.265, 286.944 660.198, 284.912 657.615 C 280.445 651.937, 272.435 650.297, 267.629 654.078 M 744.898 654.285 C 739.331 658.027, 739.077 659.916, 739.075 697.500 C 739.074 716.200, 739.057 732.063, 739.037 732.750 C 739.008 733.730, 729.704 734, 695.950 734 C 659.040 734, 652.474 734.221, 649.906 735.549 C 646.642 737.236, 643.010 742.402, 643.004 745.364 C 642.997 748.607, 647.149 754.765, 650.591 756.619 L 653.908 758.406 654.204 794.654 C 654.387 817.087, 654.881 831.280, 655.500 831.892 C 656.050 832.436, 661 832.972, 666.500 833.082 L 676.500 833.282 677 822.891 L 677.500 812.500 680.500 812.146 C 682.150 811.952, 696.212 812.116, 711.750 812.511 L 740 813.228 740 822.611 L 740 831.994 743.250 833.358 C 745.270 834.205, 747.137 834.395, 748.184 833.860 C 749.111 833.387, 752.945 833, 756.704 833 L 763.540 833 763.386 745.957 C 763.239 662.557, 763.154 658.828, 761.369 656.855 C 756.675 651.668, 750.275 650.669, 744.898 654.285 M 434.723 661.687 L 412.947 662.039 410.977 665.270 C 408.450 669.414, 408.483 672.073, 411.104 675.405 L 413.208 678.080 456.641 677.790 C 503.499 677.477, 501.149 677.760, 502.617 672.250 C 503.329 669.580, 502.586 666.146, 500.793 663.824 C 499.673 662.372, 496.626 662.094, 478 661.742 C 466.175 661.518, 446.701 661.494, 434.723 661.687 M 529.677 661.741 C 524.124 662.087, 523.788 662.262, 522.427 665.520 C 520.312 670.583, 520.605 674.610, 523.223 676.443 C 525.148 677.792, 531.022 678, 567.146 678 L 608.846 678 611.923 674.923 C 615.877 670.969, 615.804 668.604, 611.600 664.400 L 608.200 661 571.850 661.189 C 551.857 661.293, 532.880 661.542, 529.677 661.741 M 621.500 689.718 C 615.636 690.932, 598.034 691.150, 513 691.060 C 453.576 690.997, 404.370 690.509, 394.301 689.882 C 375.495 688.711, 372.058 689.180, 368.031 693.467 C 366.644 694.943, 365.572 697.616, 365.262 700.371 C 364.615 706.106, 367.443 711.003, 373.425 714.509 C 377.449 716.867, 378.484 717, 392.838 717 L 408 717 408 774.891 L 408 832.781 411.250 833.141 C 413.038 833.338, 418.775 833.359, 424 833.188 L 433.500 832.875 433.178 774.938 L 432.856 717 460.678 717.009 C 475.980 717.013, 490.790 717.293, 493.590 717.629 L 498.679 718.241 499.361 763.266 C 499.735 788.030, 499.806 808.527, 499.519 808.814 C 499.231 809.102, 491.234 809.599, 481.748 809.919 L 464.500 810.500 464.219 822.125 L 463.939 833.749 504.219 833.392 C 526.374 833.195, 548.663 833.026, 553.750 833.017 L 563 833 563 822.700 C 563 816.022, 562.578 811.978, 561.800 811.200 C 561.140 810.540, 558.103 809.998, 555.050 809.995 C 551.998 809.993, 544.433 809.699, 538.240 809.342 L 526.980 808.693 527.240 763.097 L 527.500 717.500 560 717.567 L 592.500 717.635 593 775.067 L 593.500 832.500 606.349 832.824 L 619.197 833.148 618.459 775.148 L 617.721 717.148 632.783 716.824 C 647.242 716.513, 647.953 716.400, 650.554 714 C 653.951 710.866, 656.949 704.484, 656.978 700.327 C 657.003 696.704, 653.322 691.735, 648.931 689.464 C 645.311 687.592, 631.140 687.724, 621.500 689.718 M 287 772.278 C 287 780.835, 286.727 788.548, 286.393 789.418 C 285.847 790.840, 288.985 791, 317.424 791 L 349.061 791 348.394 774.750 C 348.026 765.813, 347.675 758.429, 347.613 758.342 C 347.551 758.255, 333.887 757.855, 317.250 757.452 L 287 756.720 287 772.278 M 677 773.977 L 677 791 708.379 791 L 739.758 791 739.629 774.587 L 739.500 758.175 708.250 757.564 L 677 756.953 677 773.977 M 661 834.378 C 661 834.585, 661.788 835.373, 662.750 836.128 C 664.336 837.371, 664.371 837.336, 663.128 835.750 C 661.821 834.084, 661 833.555, 661 834.378" stroke="none" fill="#000000" fill-rule="evenodd"/>
</svg>