<svg xmlns="http://www.w3.org/2000/svg" width="1024" height="1024" viewBox="0 0 1024 1024" version="1.1">
	<path d="M 648 153.069 C 635.397 156.721, 623.567 163.257, 616.500 170.472 C 611.202 175.881, 603 190.486, 603 194.510 C 603 197.158, 603.963 197.584, 612.100 198.537 L 617.700 199.193 620.933 193.465 C 625.767 184.899, 632.348 178.418, 639.911 174.774 C 651.884 169.006, 671.297 169.882, 682.961 176.717 C 692.610 182.372, 703.543 194.820, 708.240 205.500 C 713.640 217.777, 714.147 225.068, 713.765 285.004 C 713.430 337.712, 713.345 339.761, 711.195 347.466 C 706.959 362.643, 696.725 376.290, 683.310 384.651 L 676 389.207 676 396.604 C 676 400.672, 676.363 404, 676.806 404 C 680.060 404, 691.085 398.999, 697.328 394.691 C 711.810 384.698, 722.287 368.638, 728.219 347.341 C 730.319 339.804, 730.418 337.367, 730.779 284.500 C 731.238 217.289, 730.709 211.292, 722.964 195.914 C 713.039 176.206, 696.608 161.186, 678.631 155.390 C 669.580 152.472, 654.108 151.300, 648 153.069 M 466.500 159.985 C 460.658 161.224, 457.916 162.427, 451.893 166.392 C 441.787 173.045, 442.105 171.956, 448.092 179.427 C 453.107 185.686, 453.462 185.930, 455.431 184.479 C 466.700 176.174, 473.543 175.201, 483.873 180.436 C 489.030 183.049, 495.843 189.863, 498.571 195.136 C 502.399 202.535, 503.212 208.204, 503.932 232.500 C 504.523 252.475, 504.936 257.060, 506.394 259.840 C 507.905 262.723, 508.511 263.091, 510.822 262.527 C 516.078 261.245, 516.994 259.243, 518.650 245.421 C 520.266 231.927, 519.960 211.508, 517.992 201.500 C 515.163 187.123, 501.091 169.166, 487.879 163.074 C 480.886 159.850, 472.707 158.668, 466.500 159.985 M 421.285 177.191 C 411.676 185.291, 348.847 247.105, 343.801 253.423 L 339.869 258.346 345.689 261.162 C 353.657 265.018, 361.155 271.839, 367.084 280.624 C 369.821 284.681, 372.385 287.997, 372.780 287.993 C 373.176 287.989, 374.554 286.439, 375.842 284.547 C 377.130 282.655, 381.746 278.352, 386.099 274.984 C 390.452 271.617, 395.597 266.789, 397.531 264.256 C 402.140 258.220, 424.540 233.523, 438.579 219 C 451.895 205.225, 452.614 204.089, 450.548 200.092 C 448.373 195.887, 433.200 177.820, 430.111 175.757 C 426.540 173.372, 425.641 173.518, 421.285 177.191 M 592.111 207.796 L 589.722 208.176 590.443 225.816 C 590.839 235.518, 591.378 243.803, 591.641 244.228 C 591.903 244.652, 593.047 245, 594.183 245 C 596.529 245, 619.853 249.623, 622.359 250.584 C 623.848 251.156, 624 249.268, 624 230.152 L 624 209.091 620.750 208.590 C 616.353 207.913, 595.087 207.323, 592.111 207.796 M 553.500 254.320 C 546.359 257.304, 492.931 284.152, 487.974 287.248 C 486.888 287.926, 486 288.731, 486 289.036 C 486 289.342, 499.837 292.870, 516.750 296.877 C 533.663 300.883, 549.712 304.913, 552.415 305.831 C 559.361 308.190, 566.270 314.771, 570.219 322.793 L 573.500 329.455 573.798 403.727 C 573.961 444.577, 574.422 478, 574.822 478 C 575.540 478, 585.817 472.197, 595.500 466.324 C 607.073 459.304, 638.630 441.709, 648.959 436.517 C 662.981 429.468, 661.455 438.971, 661.786 356.646 C 662.099 278.706, 662.218 280.457, 656.232 274.723 C 651.603 270.290, 651.261 270.188, 606.500 259.965 C 561.277 249.636, 564.012 249.927, 553.500 254.320 M 312.367 265.918 C 307.883 268.652, 306 271.831, 306 276.668 L 306 280.891 312.899 280.826 C 320.572 280.753, 327.320 283.233, 335.568 289.156 C 346.277 296.847, 348.711 310.519, 340.828 318.696 L 337.500 322.148 339.861 324.074 C 345.004 328.270, 352.841 325.059, 360.406 315.654 C 363.186 312.198, 363.495 311.133, 363.452 305.154 C 363.414 299.863, 362.822 297.373, 360.564 293 C 351.559 275.558, 336.078 264.076, 321.500 264.027 C 317.326 264.014, 314.547 264.589, 312.367 265.918 M 393.500 285.837 C 389.553 288.244, 384.096 294.527, 382.375 298.645 C 380.454 303.243, 380.658 306.711, 383.082 310.633 C 386.333 315.892, 388.627 317, 396.270 317 C 403.090 317, 403.099 316.996, 407.900 312.196 C 415.033 305.063, 415.453 298.523, 409.310 290.249 C 404.818 284.199, 398.896 282.546, 393.500 285.837 M 310 295.500 C 308.146 297.975, 306.291 300, 305.879 300 C 305.467 300, 298.876 306.188, 291.232 313.750 C 283.588 321.313, 276.299 328.195, 275.035 329.043 C 272.837 330.518, 272.804 330.721, 274.296 333.606 C 275.155 335.267, 277.852 338.847, 280.290 341.563 C 282.728 344.278, 286.532 349.086, 288.742 352.246 C 293.256 358.698, 292.979 358.781, 297.871 349.500 C 301.496 342.623, 327.741 314.800, 332.193 313.113 C 334.631 312.189, 334.803 311.800, 334.003 309.011 C 332.682 304.406, 329.205 299.248, 325.655 296.629 C 323.151 294.782, 315.096 291, 313.666 291 C 313.504 291, 311.854 293.025, 310 295.500 M 395.557 297.223 C 392.633 301.397, 394.228 305, 399 305 C 400.430 305, 402.140 304.460, 402.800 303.800 C 403.460 303.140, 404 301.430, 404 300 C 404 294.914, 398.452 293.089, 395.557 297.223 M 455.500 300.877 C 451.466 303.391, 447.316 307.945, 446.276 311 C 445.808 312.375, 445.450 346.350, 445.480 386.500 L 445.536 459.500 447.808 463.789 C 450.683 469.216, 454.544 471.554, 463.990 473.587 C 468.121 474.477, 477.350 476.748, 484.500 478.636 C 491.650 480.523, 504.250 483.631, 512.500 485.542 C 520.750 487.454, 530.640 489.913, 534.478 491.009 C 544.200 493.783, 549.487 493.628, 553.657 490.448 C 560.428 485.283, 560.090 489.873, 559.780 407.241 C 559.515 336.440, 559.401 332.315, 557.629 329 C 553.423 321.130, 550.434 319.480, 532.500 315.132 C 525.350 313.399, 510.500 309.766, 499.500 307.058 C 479.034 302.021, 464.444 298.997, 460.640 299.004 C 459.463 299.006, 457.150 299.849, 455.500 300.877 M 464.377 322.548 C 462.889 324.818, 462.765 327.930, 463.239 351.160 C 463.878 382.540, 463.014 380.656, 478.534 384.472 C 484.015 385.820, 493.225 388.294, 499 389.970 C 504.775 391.645, 514.795 394.138, 521.266 395.508 C 542.584 400.023, 542.038 400.516, 541.894 376.921 C 541.836 367.340, 541.498 354.899, 541.144 349.276 C 540.289 335.694, 540.305 335.710, 522.422 332.051 C 514.765 330.484, 500.012 327.132, 489.639 324.601 C 479.265 322.071, 469.713 320, 468.412 320 C 466.980 320, 465.387 321.006, 464.377 322.548 M 636.219 328.750 C 635.823 329.712, 635.500 346.790, 635.500 366.700 C 635.500 406.346, 635.583 406.930, 640.769 403.783 C 642.270 402.873, 643.791 401.086, 644.149 399.814 C 644.979 396.867, 645.205 330.699, 644.393 328.582 C 643.523 326.316, 637.165 326.446, 636.219 328.750 M 381.198 362.197 C 381.152 381.064, 381.345 397.288, 381.625 398.250 C 382.007 399.560, 383.186 399.996, 386.317 399.985 C 395.326 399.952, 395.438 399.498, 395.834 361.250 L 396.168 329 390.166 329 C 386.864 329, 383.515 328.751, 382.722 328.447 C 381.485 327.972, 381.269 332.757, 381.198 362.197 M 615.223 337.557 L 613 339.113 613.118 373.807 C 613.183 392.888, 613.524 409.845, 613.876 411.488 C 614.637 415.043, 617.113 415.811, 620.549 413.560 L 623 411.954 623 377.102 C 623 357.933, 622.719 340.844, 622.375 339.125 C 621.659 335.547, 618.943 334.951, 615.223 337.557 M 253.253 357.862 C 239.584 372.414, 231 384.080, 231 388.105 C 231 389.979, 231.516 391, 232.463 391 C 238.124 391, 259.892 378.165, 269.529 369.144 C 272.845 366.040, 276.420 363.017, 277.474 362.426 C 279.195 361.461, 279.257 361.035, 278.089 358.214 C 276.638 354.713, 267.830 346, 265.741 346 C 265.001 346, 259.382 351.338, 253.253 357.862 M 592.031 351.463 C 591.112 352.570, 590.926 361.017, 591.268 386.213 C 591.516 404.521, 592.060 420.512, 592.476 421.750 C 593.334 424.298, 594.732 424.535, 598.577 422.783 C 601.180 421.597, 601.233 421.398, 600.631 415.033 C 600.292 411.440, 600.011 395.337, 600.007 379.250 L 600 350 596.622 350 C 594.765 350, 592.699 350.658, 592.031 351.463 M 404 379.852 C 404 389.496, 402.062 402.136, 400.269 404.193 C 399.457 405.125, 397.497 406.171, 395.914 406.519 C 392.653 407.235, 382.109 405.259, 380.320 403.597 C 378.699 402.089, 376.895 388.044, 377.632 382.665 C 378.025 379.800, 377.830 378.013, 377.074 377.546 C 376.435 377.151, 373.119 378.201, 369.706 379.879 C 366.293 381.557, 358.325 385.254, 352 388.095 C 345.675 390.935, 334.650 396.173, 327.500 399.734 C 320.350 403.295, 309.775 408.121, 304 410.460 C 298.225 412.798, 290.406 416.273, 286.624 418.182 L 279.749 421.653 289.624 424.728 C 299.778 427.890, 322.867 433.758, 335.815 436.469 C 347.815 438.981, 350.051 438.630, 365 431.895 C 399.649 416.286, 418.083 409.162, 425.285 408.599 C 427.939 408.392, 430.256 408.060, 430.434 407.861 C 430.611 407.663, 431.076 401.121, 431.467 393.325 L 432.179 379.149 427.339 378.543 C 422.554 377.944, 409.134 374.790, 405.750 373.469 C 404.184 372.858, 404 373.529, 404 379.852 M 460.073 398.635 C 457.323 402.130, 457.455 405.546, 460.455 408.545 C 463.495 411.586, 467.278 411.692, 469.961 408.811 C 472.739 405.830, 472.564 401.473, 469.545 398.455 C 466.322 395.231, 462.695 395.300, 460.073 398.635 M 485.336 413.361 C 475.125 418.240, 468.196 427.745, 467.251 438.171 C 466.169 450.098, 471.213 457.020, 482.751 459.448 C 487.027 460.347, 490.787 461.787, 491.983 462.983 C 497.729 468.729, 513.456 460.952, 518.921 449.662 C 524.232 438.692, 518.837 420.389, 508.390 413.932 C 502.699 410.415, 492.053 410.151, 485.336 413.361 M 532.455 415.455 C 531.105 416.805, 530 418.769, 530 419.820 C 530 422.759, 533.839 427, 536.500 427 C 539.161 427, 543 422.759, 543 419.820 C 543 417.504, 538.707 413, 536.500 413 C 535.625 413, 533.805 414.105, 532.455 415.455 M 676 419.925 C 676 431.973, 670.152 440.908, 657.500 448.191 C 653.650 450.407, 645.775 455.044, 640 458.495 C 628.568 465.327, 611.180 475.012, 587 488.016 C 578.475 492.600, 568.975 498.046, 565.890 500.118 C 559.627 504.323, 549.776 508, 544.773 508 C 542.963 508, 529.787 505.022, 515.491 501.383 C 501.196 497.744, 482.988 493.227, 475.030 491.347 C 447.804 484.914, 443.074 482.610, 437.232 472.938 C 433.111 466.116, 432.137 462.627, 431.348 451.853 L 430.715 443.206 425.608 444.964 C 422.798 445.932, 416.719 448.625, 412.098 450.949 C 397.796 458.143, 368.209 470.952, 358.661 474.084 C 355.449 475.138, 351.133 476, 349.069 476 C 345.677 476, 327.009 472.359, 311.500 468.672 C 299.780 465.887, 261.481 454.770, 260.299 453.811 C 259.638 453.275, 258.800 450.848, 258.435 448.418 C 258.071 445.988, 257.426 444, 257.003 444 C 255.597 444, 236.595 452.132, 230.710 455.252 C 227.095 457.168, 225.274 458.674, 225.861 459.261 C 226.865 460.265, 233.288 462.145, 252.500 467.056 C 259.100 468.744, 271.250 472.080, 279.500 474.471 C 301.611 480.879, 323.262 486.676, 343 491.473 C 364.342 496.660, 377.729 500.261, 407 508.686 C 431.961 515.871, 436.402 517.075, 483 529.299 C 500.875 533.988, 521.800 539.604, 529.500 541.778 C 537.200 543.952, 546.449 546.307, 550.054 547.010 L 556.608 548.289 565.054 544.482 C 569.699 542.388, 591.370 531.748, 613.212 520.838 C 635.053 509.927, 653.123 501, 653.366 501 C 653.785 501, 673.835 491.413, 702.500 477.505 C 725.258 466.464, 776.369 442.398, 780 441.014 C 781.925 440.280, 783.860 439.370, 784.299 438.991 C 785.575 437.891, 760.995 431.071, 746.284 428.444 C 738.881 427.121, 722.224 423.527, 709.269 420.456 C 696.313 417.384, 683.527 414.613, 680.856 414.297 L 676 413.721 676 419.925 M 412 424.407 C 405.675 426.770, 398.250 429.859, 395.500 431.271 C 392.750 432.683, 383.300 437.251, 374.500 441.422 C 354.066 451.107, 353.924 451.219, 354.651 457.067 L 355.219 461.635 364.359 457.942 C 369.387 455.911, 377.325 452.443, 382 450.236 C 386.675 448.028, 391.625 445.900, 393 445.507 C 394.375 445.113, 402.025 441.716, 410 437.959 C 417.975 434.201, 425.850 430.949, 427.500 430.733 C 430.348 430.360, 430.515 430.079, 430.802 425.170 L 431.105 420 427.302 420.055 C 425.211 420.086, 418.325 422.044, 412 424.407 M 487.285 427.250 C 479.309 434.098, 479.024 436.708, 485.456 443.951 C 487.907 446.711, 490.398 449.876, 490.992 450.984 C 492.747 454.264, 497.966 453.665, 501.742 449.750 C 508.938 442.290, 508.781 431.906, 501.385 426.088 C 497.273 422.854, 491.887 423.298, 487.285 427.250 M 270 438.624 C 270 445.187, 268.668 444.495, 293 450.576 C 302.625 452.982, 313.650 455.864, 317.500 456.982 C 326.338 459.547, 341.765 462.264, 343.036 461.478 C 343.566 461.150, 344 458.729, 344 456.097 L 344 451.312 335.998 450.180 C 331.598 449.558, 324.521 447.882, 320.272 446.455 C 310.777 443.268, 289.346 437.426, 278.250 435.001 L 270 433.198 270 438.624 M 777.994 457.866 C 755.644 468.454, 742.817 474.641, 713 489.216 C 697.875 496.609, 681.450 504.609, 676.500 506.994 C 671.550 509.378, 642.425 523.631, 611.778 538.667 L 556.056 566.005 548.677 563.527 C 540.708 560.853, 521.676 555.533, 448 535.388 C 438.925 532.907, 425.200 529.143, 417.500 527.025 C 409.800 524.907, 396.300 521.278, 387.500 518.961 C 378.700 516.644, 370.375 514.305, 369 513.764 C 367.625 513.222, 354.575 509.724, 340 505.990 C 290.295 493.258, 267.510 487.156, 251 482.155 C 241.925 479.406, 231.912 476.489, 228.750 475.673 L 223 474.190 223 491.120 L 223 508.050 225.701 509.076 C 227.187 509.641, 236.299 512.124, 245.951 514.594 C 255.603 517.064, 275.200 522.398, 289.500 526.447 C 313.314 533.189, 349.631 543.044, 382.500 551.684 C 389.650 553.563, 399.100 556.182, 403.500 557.503 C 414.872 560.918, 446.864 569.568, 464.500 573.997 C 472.750 576.068, 495.025 581.933, 514 587.029 C 536.765 593.143, 550.541 596.355, 554.500 596.473 C 562.703 596.717, 567.996 594.594, 602 577.425 C 617.675 569.511, 639.950 558.577, 651.500 553.129 C 672.803 543.080, 726.355 517.097, 735.500 512.374 C 738.250 510.954, 751.300 504.436, 764.500 497.891 C 777.700 491.346, 790.075 485.206, 792 484.246 L 795.500 482.500 795.798 470 C 796.126 456.265, 795.544 451, 793.698 451 C 793.032 451, 785.965 454.090, 777.994 457.866 M 532.750 458.572 C 527.012 461.685, 530.037 474, 536.539 474 C 537.744 474, 539.916 473.067, 541.365 471.927 C 544.976 469.087, 545.064 462.973, 541.545 459.455 C 538.745 456.654, 536.669 456.446, 532.750 458.572 M 762 514.596 C 752.925 519.148, 744.243 523.243, 742.707 523.696 L 739.914 524.520 739.707 560.901 C 739.512 595.092, 739.389 597.350, 737.652 598.391 C 736.636 599.001, 732.422 601.611, 728.288 604.190 C 724.153 606.770, 717.477 610.082, 713.451 611.550 C 706.790 613.980, 705.113 614.186, 694.816 613.844 C 684.120 613.489, 683.048 613.255, 675.250 609.576 C 670.712 607.436, 667 605.332, 667 604.901 C 667 604.470, 669.752 602.651, 673.115 600.858 C 690.316 591.690, 704.130 570.093, 705.684 549.939 C 706.279 542.228, 706.233 542, 704.084 542 C 702.867 542, 699.669 542.947, 696.978 544.105 C 691.671 546.388, 692.020 545.792, 686.505 561.988 C 682.969 572.374, 678.386 579.584, 672.455 584.094 C 665.924 589.061, 661.158 591, 655.482 591 C 649.551 591, 645.905 589.035, 638.318 581.750 L 632.128 575.806 626.947 578.625 C 624.098 580.176, 621.550 582.008, 621.286 582.697 C 619.901 586.307, 629.617 596.299, 642.500 604.513 C 647.450 607.670, 653.257 611.832, 655.404 613.762 C 659.734 617.656, 675.018 625.164, 682 626.826 C 699.748 631.053, 720.901 627.664, 734.539 618.409 C 736.491 617.084, 738.294 616, 738.544 616 C 738.795 616, 739.001 622.188, 739.002 629.750 C 739.003 637.313, 739.300 654.613, 739.661 668.195 L 740.317 692.890 744.909 694.822 C 759.221 700.844, 763.564 701.103, 773.735 696.538 L 779.719 693.853 780.359 686.276 C 780.712 682.108, 781 639.841, 781 592.349 C 781 523.851, 780.742 506.033, 779.750 506.160 C 779.063 506.248, 771.075 510.044, 762 514.596 M 241.890 555.683 C 241.654 615.847, 241.643 633.050, 241.818 674.089 L 242 716.679 244.750 717.958 C 248.761 719.824, 260.123 723, 262.786 723 C 264.046 723, 268.598 721.391, 272.901 719.424 L 280.725 715.848 281.374 706.174 C 281.732 700.853, 281.984 661.117, 281.936 617.872 L 281.847 539.244 271.674 536.533 C 266.078 535.041, 258.125 532.771, 254 531.487 C 249.875 530.203, 245.488 528.863, 244.250 528.509 L 242 527.865 241.890 555.683 M 460 612.528 L 460 637.959 463.821 639.909 C 465.922 640.981, 470.600 642.814, 474.216 643.982 L 480.791 646.106 489.841 642.303 C 496.117 639.665, 499.056 637.887, 499.432 636.500 C 499.729 635.400, 499.979 626.063, 499.986 615.750 C 499.999 597.834, 499.913 597, 498.054 597 C 496.089 597, 473.538 591.290, 464.750 588.567 L 460 587.096 460 612.528 M 523.629 610.280 C 523.283 613.587, 523 663.670, 523 721.574 L 523 826.855 525.583 828.887 C 529.636 832.075, 538.579 835, 544.273 835 C 549.907 835, 558.251 831.490, 561.931 827.573 C 563.910 825.466, 563.947 823.968, 564.297 730.967 C 564.492 679.010, 564.392 630.650, 564.076 623.500 L 563.500 610.500 557 610.795 C 552.115 611.017, 547.239 610.242, 537.379 607.678 L 524.257 604.266 523.629 610.280" stroke="none" fill="#000000" fill-rule="evenodd"/>
</svg>