<svg xmlns="http://www.w3.org/2000/svg" width="1024" height="1024" viewBox="0 0 1024 1024" version="1.1">
	<path d="M 0 512.001 L 0 1024.002 512.250 1023.751 L 1024.500 1023.500 1024.751 511.750 L 1025.002 0 512.501 0 L 0 0 0 512.001 M 0.496 512.500 C 0.496 794.100, 0.610 909.151, 0.750 768.168 C 0.890 627.186, 0.890 396.786, 0.750 256.168 C 0.610 115.551, 0.496 230.900, 0.496 512.500 M 549.067 86.723 C 545.783 87.883, 542.319 90.701, 535.693 97.605 C 528.548 105.049, 525.773 107.247, 521.888 108.537 C 518.465 109.674, 515.881 111.491, 513.162 114.672 L 509.298 119.193 505.399 117.216 C 500.089 114.525, 494.054 113.708, 491.242 115.300 C 488.653 116.766, 431 173.822, 431 174.918 C 431 175.315, 428.863 173.648, 426.250 171.214 C 420.299 165.669, 415.228 163.051, 409.015 162.315 C 401.583 161.435, 397.049 164.257, 379.789 180.504 C 369.712 189.990, 363.580 195.034, 361.657 195.419 C 360.058 195.738, 335.069 196.012, 306.125 196.026 C 277.181 196.040, 249.006 196.488, 243.513 197.022 C 212.535 200.034, 191.167 217.423, 180.257 248.500 C 178.181 254.413, 177.674 258.297, 176.988 273.519 C 175.890 297.908, 175.901 746.223, 177 767.041 C 177.758 781.386, 178.294 784.903, 181.041 793.541 C 186.132 809.553, 189.843 815.644, 201.068 826.418 C 208.772 833.812, 212.691 836.730, 219.198 839.916 C 235.217 847.758, 208.576 847.101, 506.978 847.009 C 772.971 846.926, 774.501 846.915, 782.478 844.882 C 793.568 842.055, 802.815 836.918, 811.631 828.684 C 827.741 813.640, 835.805 797.576, 838.053 776.055 C 839.439 762.796, 839.339 276.717, 837.949 264.515 C 835.798 245.639, 826.094 224.535, 815.128 214.881 C 801.660 203.026, 787.132 197.207, 768.018 196.011 C 761.133 195.581, 711.400 195.303, 657.500 195.395 C 554.490 195.570, 528.890 195.189, 528.321 193.469 C 528.133 192.902, 530.923 189.302, 534.522 185.469 C 543.856 175.526, 545.693 172.033, 546.547 162.608 C 547.176 155.664, 547.646 154.283, 550.460 151.108 C 552.220 149.124, 555.073 145.412, 556.802 142.860 C 558.530 140.308, 563.376 134.233, 567.569 129.360 C 575.942 119.631, 576.733 118.162, 578.097 109.803 C 578.840 105.249, 578.699 103.289, 577.396 100.031 C 574.653 93.177, 563.050 84.901, 556.434 85.079 C 554.820 85.122, 551.505 85.862, 549.067 86.723 M 543 111.410 C 535.422 118.895, 532.595 121.036, 529.024 121.996 C 524.156 123.304, 518.414 128.504, 517.406 132.517 C 516.940 134.377, 517.556 135.549, 520.241 137.907 C 522.128 139.564, 524.932 142.737, 526.472 144.960 C 528.012 147.182, 529.896 149, 530.658 149 C 531.421 149, 534.064 147.139, 536.532 144.863 C 539.988 141.678, 541.166 139.781, 541.656 136.613 C 542.197 133.110, 543.752 131.010, 552.146 122.443 C 557.566 116.912, 562 112.064, 562 111.671 C 562 110.754, 553.949 101.996, 553.123 102.013 C 552.780 102.020, 548.225 106.249, 543 111.410 M 468.157 159.903 L 438.813 189.451 444.157 194.194 C 447.096 196.802, 449.781 198.951, 450.125 198.968 C 450.469 198.986, 461.914 187.899, 475.559 174.330 L 500.369 149.660 504.592 154.325 C 507.401 157.427, 508.650 159.621, 508.323 160.874 C 507.820 162.797, 487.247 183.453, 469.801 199.551 L 460.103 208.500 465.526 215.526 L 470.950 222.552 485.725 208.204 C 493.851 200.312, 506.800 188.110, 514.500 181.087 C 532.283 164.867, 531.659 165.632, 529.915 162.216 C 528.126 158.711, 499.981 129.944, 498.570 130.178 C 497.982 130.275, 484.296 143.652, 468.157 159.903 M 394.879 189.277 C 387.938 196, 379.968 203.300, 377.169 205.500 C 374.370 207.700, 372.057 209.950, 372.028 210.500 C 371.999 211.050, 381.566 220.950, 393.288 232.500 C 405.009 244.050, 418.184 257.325, 422.565 262 C 430.276 270.229, 442.150 281, 443.510 281 C 443.877 281, 451.836 273.378, 461.198 264.063 L 478.219 247.126 443.162 212.063 C 423.881 192.778, 407.969 177.012, 407.803 177.027 C 407.636 177.041, 401.821 182.554, 394.879 189.277 M 402.250 207.073 C 399.200 209.252, 398 210.813, 398 212.600 C 398 215.654, 402.140 220, 405.050 220 C 408.010 220, 412.716 216.449, 414.610 212.787 C 416.086 209.934, 416.062 209.559, 414.246 207.116 C 411.460 203.367, 407.456 203.353, 402.250 207.073 M 421.466 227.250 C 414.818 233.416, 415.160 240.402, 422.101 240.228 C 424.779 240.160, 426.299 239.247, 429.268 235.922 C 433.966 230.661, 434.930 227.418, 432.371 225.481 C 429.200 223.079, 425.277 223.715, 421.466 227.250 M 354.254 239.438 C 304.904 290.005, 291.525 303.483, 268.549 325.782 C 254.222 339.687, 241.958 352.287, 241.295 353.782 C 239.528 357.768, 239.784 363.942, 241.905 368.500 C 243.839 372.655, 272.457 401.677, 276.889 403.979 C 282.778 407.036, 285.229 407.113, 289.195 404.365 C 291.271 402.926, 299.444 394.718, 307.357 386.124 C 315.271 377.531, 333.615 359.048, 348.123 345.050 C 362.630 331.053, 380.800 313.466, 388.500 305.969 C 396.200 298.471, 405.810 289.197, 409.854 285.360 L 417.209 278.383 391.618 252.879 L 366.026 227.375 354.254 239.438 M 443.445 241.014 C 440.659 242.068, 435 248.651, 435 250.839 C 435 252.967, 440.984 259, 443.095 259 C 445.544 259, 452 251.700, 452 248.930 C 452 244.058, 447.183 239.600, 443.445 241.014 M 331.067 299.261 C 318.105 312.055, 300.193 329.617, 291.262 338.289 C 282.331 346.961, 274.757 355.120, 274.431 356.420 C 273.724 359.234, 276.219 364.512, 278.945 365.970 C 280.003 366.537, 282.217 367, 283.864 367 C 286.445 367, 290.927 363.002, 316.180 338.179 C 332.306 322.327, 349.050 306.015, 353.388 301.929 C 362.613 293.241, 367 287.600, 367 284.427 C 367 281.010, 361.495 276, 357.740 276 C 355.030 276, 351.631 278.964, 331.067 299.261 M 399.690 315.412 C 396.575 318.939, 389.071 326.702, 383.015 332.662 C 376.959 338.623, 372.003 343.812, 372.002 344.193 C 372 344.999, 382.739 355.337, 384.094 355.834 C 384.595 356.018, 388.717 352.701, 393.253 348.462 C 397.789 344.224, 403.863 339.173, 406.750 337.237 C 411.310 334.180, 412 333.283, 412 330.420 C 412 324.115, 407.778 309, 406.017 309 C 405.653 309, 402.806 311.886, 399.690 315.412 M 595.500 315.120 C 585.050 315.460, 575.712 315.798, 574.750 315.870 C 573.188 315.986, 573 317.288, 573 328 L 573 340 619.375 340 C 644.881 340, 667.098 340.270, 668.745 340.599 L 671.741 341.198 672.241 329.349 C 672.580 321.332, 672.379 317.109, 671.621 316.292 C 670.279 314.847, 625.169 314.152, 595.500 315.120 M 502.270 355.004 C 484.315 359.229, 471.203 372.107, 465.582 391.035 C 464.180 395.756, 464 409.159, 464 508.636 L 464 620.909 466.329 627.324 C 470.848 639.776, 477.334 648.386, 487.111 654.915 C 493.553 659.217, 497.130 660.467, 506 661.517 L 511.500 662.167 511.680 653.148 L 511.861 644.128 508.680 643.463 C 500.856 641.827, 488.395 630.657, 486.243 623.352 C 485.447 620.650, 484.899 586.803, 484.406 510 C 483.767 410.450, 483.851 399.992, 485.332 394.913 C 487.567 387.247, 493.332 380.912, 501.819 376.796 L 508.500 373.555 622.500 373.547 L 736.500 373.540 742.046 376.121 C 749.684 379.676, 754.421 384.121, 757.710 390.818 L 760.500 396.500 760.767 509.257 C 761.027 619.243, 760.986 622.108, 759.089 625.825 C 756.485 630.930, 749.981 636.648, 743.120 639.865 L 737.500 642.500 648.500 643.102 C 599.550 643.432, 559.388 643.770, 559.250 643.852 C 559.112 643.933, 559 648.163, 559 653.250 L 559 662.500 652.250 661.979 C 716.107 661.623, 746.455 661.113, 748.528 660.363 C 763.330 655.006, 776.650 640.986, 780.435 626.779 C 781.961 621.053, 782.081 610.600, 781.804 508 L 781.500 395.500 778.625 388.032 C 772.183 371.300, 762.418 361.244, 747.419 355.899 C 741.539 353.804, 740.732 353.789, 625.270 353.600 C 521.992 353.432, 508.286 353.588, 502.270 355.004 M 355.457 357.863 C 353.784 358.883, 351.154 361.244, 349.613 363.109 C 348.071 364.974, 339.611 373.799, 330.812 382.721 L 314.814 398.942 320.678 406.101 L 326.542 413.259 336.521 413.737 C 352.418 414.499, 361.912 414.450, 370.558 413.561 C 377.705 412.827, 378.807 412.437, 380.301 410.117 C 381.227 408.677, 383.798 405.250, 386.014 402.500 C 391.308 395.930, 393.521 388.649, 391.973 382.899 C 390.338 376.829, 376.402 360.368, 370.544 357.588 C 366.043 355.452, 359.207 355.576, 355.457 357.863 M 350.041 373.619 C 345.669 377.297, 344 381.058, 344 387.228 C 344 393.211, 345.609 396.229, 350.011 398.506 C 353.771 400.450, 357.363 400.396, 361.717 398.330 C 368.760 394.988, 371.158 385.612, 366.906 378.046 C 362.873 370.871, 355.581 368.957, 350.041 373.619 M 231.196 387.488 C 227.306 390.762, 226.598 393.605, 229.217 395.440 C 232.303 397.601, 230.808 401.305, 224.469 407.205 C 217.529 413.664, 214.340 420.218, 213.137 430.500 C 212.578 435.273, 212.504 456.249, 212.952 482.500 L 213.704 526.500 216.450 535 C 221.426 550.408, 231.806 566.464, 242.763 575.703 C 253.059 584.385, 272.462 595.718, 283.322 599.393 C 290.496 601.821, 303.283 603.719, 324.249 605.469 C 334.560 606.329, 346.485 607.701, 350.749 608.516 C 355.012 609.332, 361.425 610.001, 365 610.002 C 371.055 610.004, 396.310 612.233, 405.598 613.585 L 409.696 614.182 410.348 607.944 C 410.707 604.513, 411 598.831, 411 595.317 L 411 588.926 397.750 589.514 C 390.462 589.837, 378.891 590.558, 372.035 591.116 C 358.136 592.247, 342.418 591.540, 333.824 589.398 C 330.701 588.620, 321.407 587.338, 313.169 586.548 C 286.432 583.987, 266.621 574.821, 249.913 557.281 C 241.210 548.145, 236.865 540.465, 233.856 528.898 C 231.794 520.973, 231.648 517.853, 231.260 473.468 L 230.848 426.436 235.500 420.468 C 238.058 417.186, 240.519 413.856, 240.967 413.069 C 241.611 411.938, 242.779 412.516, 246.532 415.819 C 249.144 418.119, 251.621 420, 252.035 420 C 253.658 420, 258.921 414.162, 259.548 411.666 C 260.085 409.526, 259.454 408.128, 256.206 404.264 C 249.911 396.773, 237.369 385, 235.683 385 C 234.842 385, 232.823 386.120, 231.196 387.488 M 634 401.205 C 623.275 401.699, 593.800 401.858, 568.500 401.558 C 541.252 401.236, 521.914 401.388, 521.062 401.932 C 519.204 403.119, 518.063 421.210, 518.127 448.500 C 518.172 467.731, 518.264 468.639, 520.514 472.118 L 522.854 475.736 537.177 476.582 C 545.055 477.048, 562.525 477.461, 576 477.500 C 589.475 477.539, 612.969 477.965, 628.209 478.445 L 655.919 479.320 660 476.619 C 665.167 473.200, 666.307 470.327, 664.929 464.202 C 663.474 457.730, 663.434 449.560, 664.756 428.293 C 666.364 402.428, 665.704 399.845, 657.559 400.154 C 655.326 400.238, 644.725 400.712, 634 401.205 M 706.500 421.983 C 697.983 423.317, 694.056 427.154, 694.022 434.173 C 693.993 440.361, 697.216 444.313, 703.603 445.922 C 711.304 447.861, 723.733 444.744, 725.377 440.461 C 726.563 437.369, 726.003 429.449, 724.439 427.217 C 721.404 422.883, 714.191 420.779, 706.500 421.983 M 338.792 501.723 C 338.631 543.400, 338.665 578.288, 338.867 579.250 C 339.194 580.813, 340.688 581, 352.867 580.999 L 366.500 580.998 366.666 518.749 C 366.757 484.512, 366.982 449.750, 367.166 441.500 L 367.500 426.500 353.292 426.223 L 339.083 425.946 338.792 501.723 M 700.027 490.676 C 693.842 492.943, 685.809 501.177, 683.676 507.437 C 679.042 521.039, 684.415 536.198, 696.270 542.970 C 710.069 550.850, 726.096 545.898, 734.821 531.058 C 737.193 527.023, 737.499 525.467, 737.493 517.500 C 737.485 507.378, 735.850 503.063, 729.838 497.301 C 722.561 490.328, 709.123 487.341, 700.027 490.676 M 606.500 506.338 C 590.204 511.766, 579.331 524.648, 578.246 539.811 C 577.655 548.070, 579.155 555.705, 582.941 563.710 C 587.057 572.415, 591.726 577.108, 600.220 581.082 C 607.047 584.276, 608.153 584.488, 618 584.494 C 628.057 584.500, 628.765 584.356, 634.792 581.088 C 642.709 576.796, 651.187 567.806, 653.435 561.320 C 657.174 550.536, 656.335 534.541, 651.532 525.063 C 648.370 518.824, 640.737 511.535, 634 508.322 C 627.349 505.151, 613.143 504.126, 606.500 506.338 M 705.841 507.524 C 702.302 509.447, 699 514.970, 699 518.968 C 699 521.310, 699.936 523.136, 702.400 525.600 C 711.770 534.970, 725.706 524.001, 719.551 512.099 C 716.668 506.523, 711.103 504.666, 705.841 507.524 M 529.877 508.299 C 527.377 510.203, 524.008 516.235, 524.004 518.816 C 523.999 521.568, 525.487 524.663, 528.299 527.750 C 531.149 530.879, 536.956 530.802, 540.694 527.587 C 543.205 525.427, 543.500 524.524, 543.500 519.005 C 543.500 513.301, 543.254 512.616, 540.234 509.918 C 536.759 506.813, 532.669 506.174, 529.877 508.299 M 612.913 522.971 C 606.155 524.217, 597.594 532.318, 596.419 538.578 C 595.112 545.544, 596.557 553.883, 599.760 557.861 C 604.281 563.475, 609.432 565.968, 616.500 565.962 C 630.877 565.948, 639.529 555.567, 636.898 541.486 C 635.845 535.849, 634.593 533.388, 630.630 529.165 C 625.447 523.642, 619.861 521.689, 612.913 522.971 M 528.882 570.315 C 523.351 572.392, 518.555 575.643, 514.653 579.962 C 508.693 586.559, 507.528 589.593, 507.531 598.500 C 507.535 608.049, 509.298 612.020, 516.778 619.324 C 522.276 624.692, 525.824 625.938, 535.715 625.976 C 547.587 626.022, 557.482 620.353, 562.728 610.500 C 566.316 603.764, 566.550 592.752, 563.251 586 C 559.996 579.338, 555.558 574.449, 550.579 572.038 C 544.951 569.314, 533.890 568.436, 528.882 570.315 M 704 569.930 C 696.272 571.475, 688.159 577.933, 684.468 585.476 C 679.373 595.889, 681.665 608.089, 690.567 617.942 C 696.163 624.137, 701.106 626.354, 709.500 626.433 C 718.814 626.522, 726.420 622.940, 732.054 615.812 C 737.655 608.727, 739.508 601.740, 738.034 593.272 C 737.402 589.646, 736.273 585.514, 735.525 584.090 C 733.753 580.717, 727.313 574.629, 723.480 572.703 C 720.864 571.390, 709.683 568.787, 708.066 569.115 C 707.755 569.178, 705.925 569.545, 704 569.930 M 706.411 587.891 C 702.013 590.573, 699 594.786, 699 598.253 C 699 602.516, 705.595 609, 709.932 609 C 713.908 609, 718.593 606.628, 720.070 603.869 C 722.856 598.663, 720.255 590.217, 715.033 587.517 C 711.251 585.561, 710.153 585.609, 706.411 587.891 M 532.304 588.956 C 522.301 595.056, 525.233 607, 536.735 607 C 540.480 607, 541.749 606.451, 544.600 603.600 C 546.470 601.730, 548 599.233, 548 598.050 C 548 594.317, 545.002 589.899, 541.466 588.421 C 537.041 586.573, 536.126 586.626, 532.304 588.956 M 263.618 629.810 L 258.736 630.120 259.359 635.310 C 259.702 638.165, 259.986 645.225, 259.991 651 L 260 661.500 349.250 661.500 L 438.500 661.500 438.645 645.836 L 438.790 630.172 433.145 629.608 C 427.485 629.043, 272.791 629.227, 263.618 629.810 M 537 636.186 C 535.075 636.739, 531.813 636.966, 529.750 636.691 L 526 636.190 525.889 640.845 C 525.828 643.405, 525.489 667.100, 525.135 693.500 L 524.493 741.500 521.092 748.500 C 516.485 757.982, 504.762 769.818, 495.879 773.956 C 485.148 778.955, 479.120 779.437, 426.985 779.470 L 379.469 779.500 372.485 776.067 C 365.036 772.405, 356.338 764.933, 353.064 759.383 L 351.067 756 424.534 756 C 493.246 756, 498.100 755.887, 499.546 754.250 C 500.396 753.288, 503.209 749.590, 505.796 746.034 L 510.500 739.568 510.838 728.784 L 511.177 718 360.588 718 L 210 718 210.009 731.750 C 210.013 739.313, 210.296 747.818, 210.636 750.650 L 211.255 755.800 268.780 755.926 C 319.236 756.035, 326.718 756.247, 329.672 757.649 C 333.422 759.428, 335.482 761.996, 339.406 769.784 C 342.927 776.773, 347.948 781.633, 358.116 787.898 C 366.975 793.355, 372.402 795.365, 383 797.114 C 391.097 798.450, 477.955 798.336, 485.104 796.980 C 497.209 794.685, 509.462 787.945, 521.023 777.224 C 530.494 768.442, 535.845 760.691, 539.618 750.293 L 542.445 742.500 542.783 693 C 543.102 646.178, 542.791 634.880, 541.189 635.090 C 540.810 635.140, 538.925 635.633, 537 636.186 M 453 676.210 C 423.575 676.697, 356.863 676.914, 304.750 676.693 L 210 676.290 210 688.895 L 210 701.500 360.500 701.500 L 511 701.500 511 688.250 C 511 675.128, 510.978 675.002, 508.750 675.162 C 507.512 675.252, 482.425 675.723, 453 676.210 M 557.373 683 C 557.710 686.575, 557.989 692.200, 557.993 695.500 L 558 701.500 681.500 701.500 L 805 701.500 805.167 690.750 C 805.258 684.837, 805.371 679.212, 805.417 678.250 C 805.496 676.592, 798.943 676.500, 681.130 676.500 L 556.760 676.500 557.373 683 M 556.758 733.250 C 556.477 741.638, 555.729 749.800, 555.096 751.389 C 554.462 752.977, 554.160 754.493, 554.423 754.756 C 555.390 755.723, 609.915 755.926, 706.500 755.321 L 805.500 754.702 805.831 736.351 L 806.162 718 681.715 718 L 557.268 718 556.758 733.250 M 223 789.628 L 223 806.755 257.250 807.212 C 276.087 807.463, 291.591 807.614, 291.703 807.548 C 291.815 807.481, 291.636 799.568, 291.306 789.963 L 290.705 772.500 256.852 772.500 L 223 772.500 223 789.628 M 724.421 789.503 L 724.342 807 758.318 807 L 792.293 807 791.647 799.349 C 791.291 795.141, 791 787.266, 791 781.849 L 791 772 757.750 772.003 L 724.500 772.007 724.421 789.503" stroke="none" fill="#000000" fill-rule="evenodd"/>
</svg>