<svg xmlns="http://www.w3.org/2000/svg" width="1024" height="1024" viewBox="0 0 1024 1024" version="1.1">
	<path d="M 0 512.001 L 0 1024.002 512.250 1023.751 L 1024.500 1023.500 1024.751 511.750 L 1025.002 0 512.501 0 L 0 0 0 512.001 M 0.496 512.500 C 0.496 794.100, 0.610 909.151, 0.750 768.168 C 0.890 627.186, 0.890 396.786, 0.750 256.168 C 0.610 115.551, 0.496 230.900, 0.496 512.500 M 758.665 155.668 C 758.472 155.861, 643.236 156.016, 502.586 156.012 C 321.754 156.006, 244.755 156.326, 239.679 157.103 C 231.421 158.367, 218.760 162.970, 211.500 167.348 C 199.131 174.807, 186.353 187.441, 178.474 200 C 175.474 204.783, 170.120 219.693, 167.862 229.553 C 166.730 234.494, 166.500 282.120, 166.500 511 L 166.500 786.500 168.787 796.838 C 170.045 802.524, 172.401 809.664, 174.024 812.704 C 175.646 815.745, 176.728 818.631, 176.428 819.116 C 176.128 819.602, 176.359 820, 176.941 820 C 177.523 820, 178 820.652, 178 821.448 C 178 822.245, 179.171 824.158, 180.603 825.698 C 182.034 827.239, 184.040 830.075, 185.059 832 C 186.922 835.517, 196.220 846, 197.477 846 C 197.847 846, 201.154 847.939, 204.825 850.309 C 215.825 857.411, 220.955 859.790, 232.500 863.145 L 243.500 866.341 519 866.239 L 794.500 866.137 803.288 863.562 C 828.451 856.189, 847.594 840.584, 858.535 818.527 C 861.899 811.745, 864.828 804.036, 866.143 798.500 L 868.281 789.500 868.641 516 C 868.999 243.616, 868.992 242.456, 866.948 231.637 C 862.155 206.263, 852.571 189.673, 834.133 174.836 C 821.895 164.987, 808.493 159.282, 792.386 157.063 C 784.736 156.009, 759.373 154.960, 758.665 155.668 M 247.241 189.934 C 244.899 190.321, 241.735 191.559, 240.211 192.686 C 238.686 193.813, 235.613 195.667, 233.381 196.805 C 226.534 200.299, 217.310 208.761, 212.677 215.800 C 206.703 224.877, 202.087 237.357, 201.001 247.369 C 199.936 257.181, 200.035 749.687, 201.106 772.500 C 201.906 789.533, 203.165 795.450, 208.022 805 C 213.844 816.446, 223.865 824.742, 237.108 829.079 L 244.500 831.500 516.500 831.500 C 781.342 831.500, 788.645 831.450, 794 829.596 C 812.046 823.348, 828.646 804.831, 831.958 787.254 C 832.592 783.891, 832.998 685.522, 833.090 513.254 C 833.239 233.388, 833.095 222.969, 829.106 225.434 C 828.225 225.979, 823.657 217.009, 824.425 216.242 C 825.259 215.408, 820.992 210, 819.499 210 C 818.749 210, 817.849 209.100, 817.500 208 C 817.151 206.900, 816.419 206, 815.874 206 C 815.328 206, 815.133 205.594, 815.440 205.097 C 815.747 204.601, 814.565 203.695, 812.814 203.085 C 811.063 202.474, 808.926 201.361, 808.065 200.610 C 807.204 199.859, 802.705 197.307, 798.066 194.938 L 789.631 190.631 523.202 190.370 C 376.666 190.226, 255.587 189.912, 254.137 189.671 C 252.687 189.429, 249.584 189.548, 247.241 189.934 M 749.500 219.061 C 723.962 224.159, 713.395 226.099, 676.500 232.466 C 664.950 234.459, 654.734 236.318, 653.797 236.597 C 649.718 237.813, 649.500 240.463, 649.500 288.760 C 649.500 319.189, 649.158 334.890, 648.500 334.638 C 643.045 332.549, 635.506 331.771, 630.940 332.824 C 624.330 334.350, 615.811 339.905, 611.933 345.219 C 610.214 347.574, 608.368 349.376, 607.830 349.225 C 607.292 349.074, 607.128 349.398, 607.467 349.946 C 607.805 350.493, 607.388 352.282, 606.541 353.921 C 602.666 361.413, 606.252 374.645, 614.185 382.127 C 623.454 390.869, 637.080 392.427, 650.274 386.252 C 659.221 382.066, 664.029 377.372, 668.606 368.357 L 672.500 360.688 672.752 320.094 C 672.891 297.767, 673.003 277.587, 673.002 275.250 C 673 271.041, 673.035 271, 676.578 271 C 678.546 271, 687.434 269.437, 696.328 267.527 C 705.223 265.617, 715.425 263.628, 719 263.109 C 729.485 261.585, 755.199 256.989, 759 255.959 C 760.925 255.438, 762.725 255.008, 763 255.005 C 763.275 255.002, 763.374 267.642, 763.219 283.095 C 762.958 309.213, 762.817 311.140, 761.219 310.469 C 760.274 310.072, 756.077 309.526, 751.893 309.254 C 745.168 308.817, 743.590 309.072, 738.283 311.454 C 731.466 314.513, 724.298 321.296, 720.903 327.901 C 719.118 331.373, 718.665 333.828, 718.758 339.529 C 718.912 349.052, 721.558 354.777, 727.917 359.345 C 734.817 364.302, 736.605 365.096, 742.858 365.980 C 750.446 367.052, 758.243 365.681, 765.500 361.998 C 776.949 356.187, 782.878 348.086, 784.826 335.591 C 786.077 327.565, 786.268 301.885, 785.412 256.673 C 784.618 214.712, 784.729 215.340, 778 214.505 C 776.056 214.263, 763.389 216.288, 749.500 219.061 M 500.727 221.133 C 498.337 222.470, 496.927 227.945, 497.894 232.127 L 498.734 235.754 491.184 236.239 C 484.535 236.665, 483.359 237.044, 481.317 239.417 C 479.741 241.250, 479 243.373, 479 246.056 C 479 252.775, 483.792 255.773, 492.834 254.710 L 497.500 254.161 497.526 263.102 C 497.548 270.593, 497.312 271.950, 496.071 271.474 C 492.549 270.122, 486.347 269.998, 484 271.233 C 482.625 271.956, 480.631 274.160, 479.569 276.130 C 477.852 279.316, 477.788 280.074, 478.990 282.977 C 481.772 289.692, 487.523 291.849, 493.880 288.562 C 496.634 287.138, 496.682 287.167, 498.800 291.525 C 500.697 295.429, 501.535 296.100, 506.219 297.464 L 511.500 299.001 511.932 322.751 C 512.516 354.875, 512.513 367.853, 511.905 452.347 L 511.381 525.194 513.755 526.097 C 516.898 527.292, 522.622 527.233, 527.212 525.958 C 530.330 525.092, 531.001 524.414, 531.414 521.714 C 532.396 515.291, 533.349 453.868, 533.575 382.500 C 533.703 342.350, 533.850 307.659, 533.903 305.408 C 533.994 301.553, 534.223 301.250, 537.865 300.159 C 543.133 298.580, 546.295 295.890, 548.420 291.178 L 550.209 287.210 558.678 287.355 C 566.076 287.482, 567.336 287.247, 568.652 285.500 C 570.807 282.636, 569.852 275.536, 566.885 272.378 C 564.764 270.120, 563.867 269.903, 557.520 270.111 L 550.500 270.342 550.206 262.563 L 549.912 254.784 557.706 255.465 C 564.785 256.084, 565.706 255.953, 567.750 254.034 C 568.987 252.873, 569.997 250.927, 569.994 249.711 C 569.986 246.280, 568.059 240.159, 566.713 239.286 C 566.046 238.854, 561.900 238.275, 557.500 238 L 549.500 237.500 549.454 230.739 C 549.422 226.174, 548.935 223.532, 547.954 222.602 C 546.845 221.552, 541.261 221.110, 524.402 220.738 C 512.248 220.470, 501.595 220.647, 500.727 221.133 M 408.913 234.005 C 403.635 234.928, 399.505 238.345, 396.586 244.203 C 393.416 250.565, 393.354 253.295, 396.250 259.038 C 399.009 264.509, 404.696 267.907, 412.429 268.705 C 417.216 269.199, 418.407 268.926, 422.344 266.436 C 431.438 260.682, 432.524 249.222, 424.808 240.434 C 419.971 234.925, 415.043 232.932, 408.913 234.005 M 520 244 C 517.501 246.499, 517.416 251.161, 519.829 253.345 C 521.867 255.189, 526.176 255.512, 528.949 254.027 C 531.208 252.818, 532.460 246.728, 531.008 244.014 C 529.518 241.231, 522.777 241.223, 520 244 M 407.655 249.829 C 406.745 250.835, 406 252.834, 406 254.272 C 406 259.263, 413.900 261.978, 417.345 258.171 C 419.274 256.040, 419.533 250.933, 417.800 249.200 C 415.932 247.332, 409.557 247.728, 407.655 249.829 M 602.258 251.437 C 595.375 257.228, 595.670 268.711, 602.777 271.680 C 608.332 274.001, 618.691 273.100, 621.134 270.083 C 624.943 265.379, 622.055 254.236, 616.117 250.728 C 611.799 248.177, 605.764 248.486, 602.258 251.437 M 521 269 C 518.029 271.971, 518.251 278.463, 521.394 280.523 C 524.262 282.402, 528.602 281.612, 530.026 278.951 C 531.785 275.666, 531.214 269.185, 529.066 268.035 C 526.101 266.449, 523.205 266.795, 521 269 M 237.691 291.917 C 237.798 294.988, 238.190 347.450, 238.562 408.500 C 239.134 502.220, 239.460 519.734, 240.656 521 C 241.897 522.314, 252.856 522.474, 329.129 522.288 C 411.607 522.087, 416.351 521.979, 419.343 520.238 C 423.752 517.670, 425.440 513.864, 424.045 509.637 C 422.764 505.754, 418.664 501.567, 414.662 500.055 C 412.738 499.328, 388.525 498.984, 339.432 498.986 L 267.039 498.990 266.770 403.745 L 266.500 308.500 263.619 303 C 257.196 290.735, 250.838 285.726, 242.197 286.120 L 237.498 286.335 237.691 291.917 M 416.355 300.716 C 414.625 300.933, 412.504 301.891, 411.641 302.844 C 409.326 305.403, 409.245 315.640, 411.507 320.013 C 412.534 321.999, 413.342 325.833, 413.400 328.990 L 413.500 334.500 409.500 334.336 C 407.300 334.245, 403.212 333.858, 400.415 333.474 C 395.411 332.788, 395.278 332.839, 392.165 336.616 C 390.424 338.728, 389.002 341.366, 389.004 342.478 C 389.016 348.928, 398.437 355.482, 407.512 355.354 C 416.622 355.226, 426.206 348.597, 429.986 339.810 C 434.215 329.980, 433.562 316.055, 428.525 308.632 C 427.230 306.724, 426.470 304.864, 426.835 304.498 C 427.201 304.132, 427.050 303.924, 426.500 304.035 C 424.318 304.475, 423 303.932, 423 302.594 C 423 301.646, 422.297 301.371, 420.844 301.751 C 419.366 302.138, 418.912 301.951, 419.403 301.158 C 419.796 300.521, 419.979 300.072, 419.809 300.160 C 419.639 300.248, 418.085 300.498, 416.355 300.716 M 749 326.753 C 745.978 327.272, 743.278 329.561, 741.398 333.198 C 737.950 339.864, 741.055 345, 748.532 345 C 757.235 345, 763.182 340.753, 763.384 334.395 C 763.486 331.175, 763.086 330.534, 760 328.979 C 755.807 326.866, 752.379 326.172, 749 326.753 M 630.882 354.882 C 624.001 361.763, 626.519 368.569, 635.895 368.431 C 643.927 368.314, 649 363.881, 649 356.979 C 649 353.348, 645.046 351, 638.932 351 C 635.425 351, 634.150 351.615, 630.882 354.882 M 346.352 375.993 C 345.171 376.470, 343.883 377.380, 343.491 378.015 C 343.098 378.651, 342.565 390.719, 342.306 404.832 C 342.020 420.413, 341.426 430.986, 340.795 431.747 C 339.206 433.662, 336.463 433.254, 332.405 430.500 C 328.235 427.670, 325.385 427.394, 320.671 429.364 C 308.658 434.383, 309.183 449.705, 321.525 454.313 C 327.912 456.698, 339.700 456.305, 345.427 453.516 C 351.191 450.710, 360.336 441.246, 361.871 436.500 C 363.401 431.769, 365.248 385.775, 364.035 382.604 C 362.847 379.500, 360.007 377.337, 355.500 376.105 C 350.837 374.830, 349.283 374.811, 346.352 375.993 M 699 398.048 C 692.138 399.497, 686.028 401.746, 677 406.149 C 665.399 411.806, 663.829 412.925, 655.168 421.716 C 650.036 426.926, 644.563 433.196, 643.007 435.650 C 636.927 445.237, 629.936 466.553, 629.669 476.316 L 629.500 482.500 639.953 482.335 L 650.406 482.171 652.681 472.835 C 656.884 455.589, 665.484 441.876, 678.667 431.400 C 686.394 425.260, 693.909 421.389, 701 419.899 C 708.447 418.333, 728.980 419.291, 735.500 421.509 C 744.453 424.554, 755.855 432.039, 760.623 438 C 765.920 444.623, 772.094 457.162, 774.985 467.169 C 779.012 481.104, 778.399 480.535, 791 482.020 C 794.575 482.442, 798.513 483.112, 799.750 483.510 C 801.852 484.186, 802 483.944, 802 479.827 C 802 470.818, 795.644 453.433, 787.080 439.018 C 778.925 425.290, 762.245 410.580, 746.838 403.526 C 732.451 396.940, 714.170 394.846, 699 398.048 M 397.459 406.341 C 395.621 408.179, 393.807 410.919, 393.428 412.432 C 391.912 418.471, 397.284 427.637, 403.788 430.110 C 413.460 433.787, 422.891 426.599, 421.745 416.426 C 420.818 408.203, 414.522 403, 405.499 403 C 401.505 403, 400.299 403.501, 397.459 406.341 M 487.481 416.470 C 479.260 418.260, 475.091 420.131, 468.537 424.973 C 457.541 433.096, 448.174 448.112, 445.977 461.137 C 444.054 472.538, 445.324 481.242, 452.127 503.280 C 455.802 515.185, 455.599 516.477, 448.310 527.660 C 438.525 542.672, 430.623 562.018, 427.908 577.609 C 426.360 586.494, 427.337 600.705, 430.063 608.978 C 437.427 631.325, 453.077 648.487, 476.894 660.331 L 487.288 665.500 518.394 665.644 C 535.502 665.723, 552.163 665.352, 555.418 664.819 C 561.175 663.877, 575.016 657.644, 582.250 652.734 C 605.804 636.750, 616.858 615.030, 615.706 587 C 614.935 568.254, 611.373 557.843, 597.060 532.500 L 590.847 521.500 591.369 513.500 C 591.701 508.421, 593.372 500.449, 595.946 491.667 C 600.607 475.761, 600.999 469.480, 598.041 458.090 C 595.165 447.015, 590.479 438.308, 584.070 432.132 C 574.487 422.898, 558.985 415, 550.442 415 L 547.247 415 547.099 438.750 C 547.017 451.813, 546.691 464.541, 546.374 467.035 C 545.848 471.189, 546.110 471.942, 549.484 475.981 C 551.511 478.406, 554.550 483.116, 556.239 486.446 C 558.993 491.877, 559.319 493.479, 559.404 502.010 C 559.493 510.799, 559.256 512.014, 556.292 518.010 C 552.131 526.427, 545.689 533.625, 538.404 538 C 532.770 541.383, 532.241 541.500, 522.537 541.489 C 513.593 541.480, 511.877 541.175, 506.797 538.689 C 492.113 531.505, 481.639 510.492, 484.892 494.744 C 486.492 486.996, 488.791 482.487, 493.740 477.387 L 497.654 473.354 496.756 465.927 C 496.153 460.930, 496.309 451.956, 497.234 438.500 C 497.990 427.500, 498.419 417.712, 498.188 416.750 C 497.695 414.703, 495.821 414.654, 487.481 416.470 M 701.500 435 L 698.500 435.763 701.500 435.808 C 703.150 435.832, 706.525 435.491, 709 435.051 L 713.500 434.250 709 434.243 C 706.525 434.240, 703.150 434.580, 701.500 435 M 674 483.842 L 671.500 484.590 671.240 530.930 C 670.983 576.648, 671.257 581.195, 674.157 579.403 C 674.669 579.087, 675.738 579.368, 676.533 580.027 C 677.467 580.802, 680.459 581.087, 684.986 580.831 C 696.352 580.189, 695.549 583.788, 695.164 535.217 C 694.802 489.648, 694.876 490.226, 688.824 485.715 C 685.942 483.567, 678.195 482.588, 674 483.842 M 740.207 486.965 C 737.371 489.019, 735.790 491.094, 735.062 493.715 C 733.699 498.625, 733.617 571.416, 734.972 573.948 C 735.507 574.947, 736.655 576.037, 737.524 576.371 C 738.508 576.748, 738.852 576.570, 738.437 575.898 C 738.071 575.305, 739.619 576.043, 741.878 577.538 C 745.374 579.851, 746.739 580.183, 751.051 579.769 C 753.838 579.501, 756.570 578.830, 757.123 578.277 C 757.767 577.633, 758.101 562.736, 758.050 536.885 C 757.970 496.342, 757.578 487.567, 755.744 485.250 C 755.179 484.536, 752.515 484, 749.528 484 C 745.320 484, 743.502 484.578, 740.207 486.965 M 648.199 493.487 C 641.590 496.564, 631.532 506.029, 628.481 512.043 C 619.606 529.537, 621.554 547.033, 633.775 559.574 C 639.504 565.453, 649.841 571.267, 653.762 570.815 L 656.500 570.500 656.476 561.250 C 656.338 507.681, 655.928 491.001, 654.750 491.010 C 654.063 491.015, 651.115 492.130, 648.199 493.487 M 772.014 528.642 C 772.021 549.464, 772.284 567.457, 772.598 568.626 C 773.096 570.484, 773.605 570.653, 776.630 569.971 C 790.807 566.773, 803.466 553.132, 807.178 537.051 C 810.950 520.708, 793.277 495.849, 774.750 491.438 L 772 490.783 772.014 528.642 M 304.500 536.004 C 268.200 536.296, 238.500 536.640, 238.500 536.768 C 238.500 609.302, 239.185 658.855, 240.215 660.835 C 240.883 662.120, 242.660 663.807, 244.165 664.585 C 247.316 666.215, 261 666.552, 261 665 C 261 664.450, 262.087 664, 263.415 664 C 265.685 664, 265.869 663.567, 266.486 656.750 C 266.847 652.763, 266.998 628.912, 266.821 603.750 L 266.500 557.999 314 557.867 C 340.125 557.794, 364.980 557.682, 369.233 557.617 C 375.674 557.520, 376.891 557.751, 376.518 559 C 376.272 559.825, 375.839 583.105, 375.558 610.732 L 375.045 660.964 377.273 663.087 C 381.935 667.529, 383.887 668.248, 391.424 668.299 C 396.761 668.335, 399.540 667.876, 401.410 666.651 L 404 664.954 404.153 619.227 C 404.324 568.052, 404.019 536.874, 403.337 535.750 C 403.087 535.337, 395.596 535.106, 386.691 535.236 C 377.786 535.365, 340.800 535.711, 304.500 536.004 M 490.500 568.672 C 482.980 570.327, 480.075 572.639, 477.026 579.396 C 475.292 583.239, 474.963 585.265, 475.495 588.813 C 477.172 599.997, 485.405 610.685, 494.159 613.043 C 497.115 613.840, 506.501 614.098, 523.570 613.853 L 548.639 613.493 554.570 610.411 C 559.080 608.068, 561.458 605.950, 564.500 601.567 C 568.328 596.053, 568.500 595.470, 568.500 588.048 C 568.500 580.524, 568.402 580.209, 565.250 577.556 C 563.462 576.053, 562 574.295, 562 573.652 C 562 570.972, 557.301 569.733, 544.066 568.926 C 530.021 568.069, 494.016 567.898, 490.500 568.672 M 497.552 582.943 C 496.544 584.056, 496 586.592, 496 590.174 C 496 598.919, 495.479 598.752, 523.936 599.154 L 548.373 599.500 549.261 596.074 C 550.188 592.496, 548.793 584.661, 546.802 582.262 C 546.006 581.302, 540.130 581.025, 522.428 581.112 C 501.759 581.215, 498.927 581.423, 497.552 582.943 M 772.500 586.256 C 769.200 586.806, 766.275 587.459, 766 587.708 C 765.725 587.957, 765.242 593.412, 764.927 599.831 C 763.938 619.958, 759.148 626.693, 740.978 633.508 C 735.347 635.621, 727.343 639.660, 722.725 642.721 C 706.620 653.394, 706.308 653.500, 691 653.500 C 680.774 653.500, 676.651 653.113, 674 651.905 C 672.075 651.028, 670.182 650.353, 669.793 650.405 C 669.404 650.457, 668.495 649.692, 667.773 648.705 C 666.542 647.020, 666.284 647.094, 663.595 649.901 C 661.283 652.314, 660.846 653.478, 661.333 655.915 C 661.665 657.577, 662.627 659.739, 663.470 660.719 C 670.604 669.010, 672.025 670.218, 675.627 671.054 C 681.479 672.411, 693.386 672.170, 704 670.477 C 712.872 669.063, 715.158 668.133, 738.570 656.424 C 767.723 641.842, 769.899 640.132, 776.498 626.609 C 781.378 616.610, 784.008 605.787, 783.986 595.792 C 783.961 584.251, 784.057 584.331, 772.500 586.256 M 656.671 609.212 C 649.838 611.040, 644.905 620.349, 646.438 628.521 C 647.224 632.709, 652.678 639.338, 654.700 638.562 C 655.472 638.265, 655.858 638.421, 655.558 638.907 C 653.803 641.746, 664.377 641.603, 669.470 638.718 C 677.639 634.092, 680.202 625.691, 675.824 617.900 C 671.779 610.703, 664.106 607.222, 656.671 609.212 M 243.418 684.778 L 230.337 685.056 228.168 688.914 C 226.976 691.036, 226 693.978, 226 695.452 C 226 698.572, 227.620 702, 229.094 702 C 229.657 702, 229.812 701.505, 229.438 700.900 C 228.947 700.105, 229.330 700.106, 230.824 700.906 C 231.959 701.513, 233.149 702.433, 233.468 702.948 C 233.826 703.528, 342.818 703.878, 519.146 703.866 L 804.245 703.846 806.622 701.469 C 808.073 700.018, 809 697.917, 809 696.080 C 809 692.030, 803.871 686.232, 799.674 685.536 C 796.422 684.998, 267.044 684.276, 243.418 684.778 M 227.589 722.077 C 224.004 726.337, 224.095 731.249, 227.827 734.981 L 230.654 737.808 516.215 737.886 L 801.776 737.964 804.462 735.851 C 809.795 731.656, 809.685 725.816, 804.187 721.286 L 801.500 719.072 515.839 719.036 L 230.178 719 227.589 722.077 M 248.191 753 C 230.113 753.494, 229.856 753.532, 227.938 756 C 223.779 761.350, 224.663 767.110, 230.036 769.677 C 232.622 770.912, 360.496 771.337, 660.673 771.108 L 801.847 771 804.923 768.411 C 809.806 764.302, 808.717 757.144, 802.699 753.790 C 800.979 752.832, 742.333 752.558, 533.500 752.532 C 386.650 752.515, 258.261 752.725, 248.191 753 M 511.500 786.001 C 356.400 786.280, 229.399 786.619, 229.276 786.754 C 228.088 788.055, 226 793.354, 226 795.068 C 226 796.260, 227.747 798.982, 229.882 801.118 L 233.765 805 266.132 805.068 C 364.641 805.274, 533.680 805.313, 658.604 805.160 L 800.708 804.985 804.354 801.445 C 806.622 799.242, 808 796.964, 808 795.417 C 808 790.051, 801.905 784.753, 796.300 785.247 C 794.760 785.382, 666.600 785.722, 511.500 786.001" stroke="none" fill="#000000" fill-rule="evenodd"/>
</svg>