<svg xmlns="http://www.w3.org/2000/svg" width="1024" height="1024" viewBox="0 0 1024 1024" version="1.1">
	<path d="M 0 512.001 L 0 1024.002 512.250 1023.751 L 1024.500 1023.500 1024.751 511.750 L 1025.002 0 512.501 0 L 0 0 0 512.001 M 0.496 512.500 C 0.496 794.100, 0.610 909.151, 0.750 768.168 C 0.890 627.186, 0.890 396.786, 0.750 256.168 C 0.610 115.551, 0.496 230.900, 0.496 512.500 M 422.500 159.986 C 410.618 162.686, 387.884 172.354, 381.500 177.423 C 379.539 178.980, 379.574 179.075, 383.278 182.256 C 385.356 184.040, 391.656 187.848, 397.278 190.719 C 414.795 199.662, 452.929 218, 454.010 218 C 454.576 218, 456.943 216.785, 459.270 215.300 C 461.596 213.815, 468.351 210.066, 474.281 206.968 L 485.061 201.335 480.847 200.072 C 478.529 199.378, 474.140 197.403, 471.094 195.684 C 468.048 193.965, 460.144 190.233, 453.528 187.390 C 442.744 182.755, 441.529 181.980, 441.776 179.897 C 441.928 178.619, 442.987 176.578, 444.131 175.361 C 445.274 174.144, 445.932 172.700, 445.594 172.152 C 444.764 170.809, 451.393 172.661, 456.234 175.124 C 458.288 176.169, 463.689 179.425, 468.237 182.359 C 472.785 185.293, 478.080 188.505, 480.003 189.497 C 481.926 190.489, 485.477 192.808, 487.894 194.651 C 492.793 198.386, 496.810 198.877, 506.114 196.882 C 508.981 196.267, 516.520 195.480, 522.868 195.132 L 534.410 194.500 521.955 187.846 C 515.105 184.187, 503.638 178.719, 496.474 175.695 C 489.310 172.672, 480.760 168.844, 477.474 167.190 C 468.698 162.772, 464.428 161.143, 457.281 159.485 C 448.648 157.483, 432.492 157.716, 422.500 159.986 M 768.286 187.027 C 763.225 187.745, 761.582 189.144, 753.750 199.409 C 747.998 206.949, 747.804 207.386, 749.608 208.762 C 750.649 209.555, 760.050 214.454, 770.500 219.648 C 792.731 230.699, 794.488 231.919, 793.550 235.657 C 792.666 239.181, 786.755 245, 784.060 245 C 781.363 245, 756.076 232.044, 745.372 225.178 C 740.933 222.330, 737.019 220, 736.676 220 C 736.332 220, 735.311 221.463, 734.406 223.250 C 733.501 225.037, 730.072 229.777, 726.786 233.781 C 723.400 237.906, 721.043 241.669, 721.347 242.462 C 721.643 243.232, 731.023 248.325, 742.192 253.780 C 753.361 259.235, 763.347 264.654, 764.382 265.823 C 766.030 267.685, 766.106 268.329, 764.997 271.008 C 763.530 274.548, 759.542 278, 756.917 278 C 755.067 278, 721.529 261.904, 714.777 257.776 L 711.055 255.500 709.438 257.797 C 708.549 259.060, 705.162 263.176, 701.911 266.944 C 698.660 270.711, 696 274.479, 696 275.315 C 696 277.229, 698.486 278.715, 719.681 289.471 C 738.953 299.251, 740.774 300.640, 738.958 304.167 C 736.822 308.313, 732.700 312, 730.200 312 C 727.899 312, 703.395 300.167, 690.504 292.831 L 684.508 289.419 676.254 300.147 C 671.714 306.048, 668 311.156, 668 311.500 C 668 311.844, 670.860 313.422, 674.356 315.007 C 685.591 320.102, 709.460 333.042, 710.750 334.739 C 711.438 335.643, 712 337.016, 712 337.791 C 712 340.186, 705.412 346, 702.699 346 C 700.290 346, 670.879 331.777, 662.345 326.485 L 658.189 323.909 654.165 328.704 C 642.432 342.685, 640.750 345.180, 642.147 346.523 C 642.891 347.238, 652.050 352.208, 662.500 357.568 C 682.274 367.710, 685 369.416, 685 371.652 C 685 373.662, 678.016 381, 676.103 381 C 672.483 381, 641.475 366.225, 633.846 360.865 C 632.386 359.839, 630.718 359, 630.141 359 C 629.563 359, 626.257 362.626, 622.795 367.058 C 612.010 380.862, 611.790 381.221, 613.223 382.625 C 613.925 383.312, 622.253 387.716, 631.729 392.411 C 659.697 406.270, 660.324 406.911, 653.038 414.197 C 649.892 417.343, 648.605 418.018, 646.788 417.474 C 641.667 415.942, 625.975 408.622, 618 404.045 C 608.831 398.783, 601.630 395.604, 600.133 396.155 C 599.011 396.568, 583 416.902, 583 417.913 C 583 419.083, 598.274 427.793, 608.712 432.576 C 626.802 440.865, 627.474 441.272, 627.807 444.150 C 628.163 447.225, 622.855 454, 620.091 454 C 615.563 454, 588.233 441.342, 576.832 433.965 C 571.151 430.289, 570.397 430.043, 569.500 431.569 C 568.950 432.505, 566.817 435.347, 564.760 437.885 C 557.778 446.500, 552.791 454.191, 553.647 455.021 C 556.509 457.797, 572.781 466.359, 591.250 474.807 C 597.029 477.451, 598 478.264, 598 480.462 C 598 481.989, 596.619 484.536, 594.593 486.747 C 591.198 490.452, 591.171 490.461, 586.748 489.278 C 582.273 488.081, 571.714 483.058, 551.505 472.513 L 540.510 466.775 538.812 469.138 C 537.877 470.437, 534.327 475.296, 530.922 479.936 L 524.732 488.373 527.380 490.650 C 528.836 491.903, 533.193 494.777, 537.061 497.036 C 543.301 500.680, 548.379 503.159, 563.704 510.041 C 569.211 512.515, 571.590 515.998, 569.946 519.183 C 567.815 523.311, 564.710 526, 562.074 526 C 558.655 526, 538.703 516.756, 526.825 509.668 C 521.600 506.551, 516.398 504, 515.264 504 C 513.378 504, 507.388 511.240, 498.121 524.719 L 495.908 527.938 507.921 533.960 C 514.528 537.273, 523.887 541.601, 528.717 543.580 C 539.415 547.961, 542.841 550.860, 541.304 554.231 C 539.389 558.435, 534.878 563, 532.638 563 C 528.985 563, 515.228 557.260, 501.334 549.938 C 487.845 542.830, 483.422 541.623, 482.322 544.750 C 481.983 545.712, 479.166 549.875, 476.062 554 C 472.957 558.125, 469.588 562.813, 468.576 564.417 C 466.785 567.255, 466.786 567.372, 468.618 568.759 C 471.448 570.903, 487.559 578.443, 499.195 583.070 C 510.389 587.521, 513 589.261, 513 592.273 C 513 594.878, 505.791 602, 503.155 602 C 500.028 602, 492.216 598.701, 474.558 589.924 C 465.789 585.566, 457.566 582, 456.283 582 C 454.693 582, 453.637 582.825, 452.966 584.590 C 452.424 586.015, 449.233 590.543, 445.875 594.653 L 439.769 602.125 441.999 604.499 C 444.848 607.531, 454.655 612.640, 468 618.044 C 481.267 623.416, 484 625.279, 484 628.952 C 484 633.135, 476.982 639.274, 473.231 638.371 C 470.178 637.636, 445.030 625.242, 435.005 619.531 C 429.046 616.137, 428.426 615.976, 427.505 617.589 C 426.952 618.555, 422.954 624.055, 418.620 629.810 C 411.365 639.444, 410.889 640.362, 412.620 641.380 C 413.654 641.987, 422.375 646.127, 432 650.578 C 441.625 655.029, 450.729 659.263, 452.231 659.987 C 453.733 660.711, 455.229 662.148, 455.557 663.179 C 456.371 665.746, 453.090 671.043, 449.324 673.243 C 446.308 675.004, 446.072 674.999, 441.194 673.076 C 438.431 671.987, 428.486 667.249, 419.096 662.548 C 409.705 657.847, 401.189 654, 400.172 654 C 399.154 654, 397.857 655.013, 397.291 656.250 C 396.724 657.487, 393.298 662.196, 389.676 666.714 L 383.092 674.927 385.796 677.076 C 387.283 678.257, 396.532 683.195, 406.350 688.047 C 424.633 697.085, 428 699.219, 428 701.773 C 428 702.577, 426.203 705.032, 424.007 707.228 C 420.639 710.596, 419.583 711.115, 417.257 710.546 C 415.741 710.174, 405.050 705.181, 393.500 699.449 L 372.500 689.028 370.286 691.764 C 360.862 703.411, 355.141 711.420, 355.654 712.249 C 355.987 712.789, 365.235 717.639, 376.204 723.027 C 396.192 732.845, 400 735.180, 400 737.620 C 400 739.629, 394.053 745.949, 391.578 746.570 C 390.054 746.952, 382.757 743.876, 367.835 736.561 C 355.986 730.752, 345.639 726, 344.842 726 C 344.046 726, 341.517 728.587, 339.224 731.750 C 336.930 734.913, 332.786 740.425, 330.013 744 C 323.703 752.138, 322.047 756.896, 324.319 760.364 C 328.280 766.409, 373.726 792.922, 388.681 797.912 C 396.636 800.567, 402.206 799.628, 413.166 793.789 C 425.358 787.293, 424.537 789.684, 424.202 761.650 C 424.043 748.368, 424.271 737.024, 424.707 736.442 C 427.557 732.640, 434.071 730.747, 435.691 733.250 C 436.136 733.938, 436.725 744.250, 437 756.168 C 437.275 768.085, 437.835 778.170, 438.244 778.578 C 438.653 778.987, 439.778 778.644, 440.744 777.816 C 441.710 776.988, 445.200 774.821, 448.500 773 C 456.717 768.466, 458.144 767.137, 457.030 765.056 C 456.531 764.125, 455.583 752.915, 454.922 740.145 L 453.719 716.927 456.078 714.417 C 457.969 712.404, 459.231 711.965, 462.445 712.203 C 468.107 712.622, 468.953 714.839, 469.048 729.500 C 469.140 743.744, 470.359 757.775, 471.607 758.966 C 472.384 759.708, 485.755 752.645, 488.200 750.200 C 488.696 749.704, 488.646 744.836, 488.086 738.914 C 487.544 733.186, 486.795 721.525, 486.421 713 C 485.793 698.702, 485.887 697.321, 487.631 695.187 C 488.835 693.712, 491.021 692.673, 493.660 692.319 C 500.296 691.429, 500.663 692.672, 501.350 718.385 C 501.672 730.421, 502.196 740.529, 502.513 740.847 C 502.831 741.164, 504.083 740.791, 505.295 740.018 C 510.507 736.693, 518.312 732.063, 519.210 731.763 C 519.840 731.553, 519.779 722.263, 519.040 705.528 C 517.941 680.649, 517.971 679.515, 519.798 677.059 C 522.258 673.749, 529.347 672.871, 530.799 675.696 C 531.310 676.688, 532 687.364, 532.333 699.419 C 532.670 711.653, 533.375 721.775, 533.927 722.327 C 534.578 722.978, 535.482 722.835, 536.576 721.908 C 537.490 721.133, 541.446 718.673, 545.369 716.439 C 551.839 712.755, 552.481 712.106, 552.296 709.439 C 552.183 707.823, 551.651 699.525, 551.112 691 C 550.574 682.475, 549.820 672.051, 549.437 667.835 C 548.768 660.484, 548.846 660.064, 551.324 657.585 C 553.077 655.833, 554.989 655, 557.263 655 C 563.707 655, 563.748 655.146, 564.248 679.767 C 564.497 692.014, 565.014 702.348, 565.398 702.732 C 565.782 703.115, 566.862 702.887, 567.798 702.225 C 568.734 701.563, 572.812 699.148, 576.859 696.860 L 584.218 692.699 583.593 682.100 C 583.249 676.270, 582.464 665.327, 581.849 657.783 C 580.636 642.905, 581.219 639.361, 585.360 636.460 C 588.007 634.607, 592.057 634.589, 594.559 636.421 C 596.379 637.753, 596.500 639.219, 596.500 659.866 C 596.500 673.577, 596.887 682.280, 597.525 682.921 C 598.228 683.626, 600.420 682.710, 604.485 680.010 C 607.749 677.842, 611.675 675.549, 613.210 674.913 C 614.744 674.277, 616.048 673.249, 616.108 672.629 C 616.422 669.342, 615.881 638.178, 615.368 629.962 C 614.787 620.656, 614.838 620.346, 617.475 617.212 C 620.344 613.802, 624.268 613.003, 628.092 615.049 C 629.965 616.052, 630.040 617.130, 629.776 639.460 C 629.624 652.310, 629.786 663.111, 630.135 663.463 C 630.731 664.064, 645.455 655.371, 649.222 652.194 C 650.795 650.867, 650.889 648.700, 650.317 627.056 C 649.972 614.028, 649.985 602.196, 650.345 600.762 C 651.498 596.166, 655.799 592, 659.389 592 C 661.155 592, 663.140 592.540, 663.800 593.200 C 664.666 594.066, 665 601.041, 665 618.283 C 665 631.419, 665.361 642.017, 665.802 641.833 C 666.243 641.650, 670.512 639.285, 675.289 636.578 C 682.812 632.315, 684.035 631.245, 684.434 628.578 C 684.687 626.885, 685.137 615.035, 685.435 602.245 C 686.020 577.153, 686.692 573.569, 691.268 571.122 C 694.330 569.486, 698.558 570.293, 699.857 572.762 C 700.392 573.779, 700.430 578.026, 699.949 583 C 699.147 591.280, 698.665 622, 699.336 622 C 699.521 622, 704.467 618.737, 710.327 614.750 L 720.981 607.500 721.426 581.003 L 721.871 554.506 725.421 551.253 C 729.301 547.697, 732.028 547.171, 734.381 549.524 C 735.697 550.840, 735.822 554.324, 735.294 575.024 C 734.882 591.199, 735.019 599, 735.713 599 C 736.280 599, 741.301 596.025, 746.872 592.389 L 757 585.779 757 561.514 C 757 535.030, 757.280 532.150, 760.150 529.069 C 762.302 526.759, 767.859 526.259, 769.800 528.200 C 770.666 529.066, 771 535.985, 771 553.033 C 771 566.032, 771.263 576.930, 771.585 577.251 C 771.906 577.573, 776.597 575.060, 782.010 571.668 L 791.850 565.500 792.175 537.667 L 792.500 509.833 795.766 506.917 C 799.531 503.554, 802.232 503.232, 804.836 505.836 C 806.542 507.542, 806.638 509.351, 806.200 531.400 C 805.938 544.574, 806.123 555.511, 806.614 555.988 C 807.719 557.060, 821.690 548.506, 828.671 542.482 C 831.907 539.690, 834.902 535.864, 836.671 532.260 L 839.500 526.500 839.824 494.750 C 840.066 471.136, 839.851 463, 838.988 463 C 838.350 463, 831.560 466.431, 823.900 470.625 C 816.240 474.819, 808.830 478.250, 807.434 478.250 C 803.773 478.250, 800 474.325, 800 470.517 C 800 466.328, 801.585 464.478, 807.215 462.096 C 809.809 460.998, 816.730 457.331, 822.595 453.945 C 828.460 450.560, 834.775 447.156, 836.629 446.382 L 840 444.973 840 436.068 C 840 431.171, 840.299 426.384, 840.664 425.432 C 841.223 423.976, 840.912 423.805, 838.701 424.360 C 835.298 425.214, 826.062 430.644, 818.328 436.337 C 811.859 441.100, 806.816 444, 805.004 444 C 804.402 444, 802.805 442.895, 801.455 441.545 C 799.657 439.748, 799 438.007, 799 435.045 C 799 430.081, 800.758 428.160, 809.207 423.896 C 812.653 422.156, 820.243 417.868, 826.074 414.366 C 831.906 410.865, 837.424 408, 838.338 408 C 839.805 408, 840 406.417, 840 394.500 C 840 387.075, 839.650 381, 839.223 381 C 838.795 381, 837.393 381.737, 836.107 382.638 C 829.770 387.076, 807.471 399, 805.507 399 C 804.277 399, 802.084 398.067, 800.635 396.927 C 797.044 394.103, 797.093 389.860, 800.750 387.006 C 806.140 382.798, 836.831 365, 838.696 365 C 839.701 365, 840 362.022, 840 352 C 840 344.850, 839.755 339, 839.456 339 C 838.817 339, 819.082 349.736, 814 352.849 C 805.898 357.811, 797.911 352.673, 801.646 344.902 C 802.437 343.256, 805.572 340.911, 810.197 338.507 C 814.214 336.419, 822.042 332.076, 827.593 328.856 C 833.144 325.635, 838.206 323, 838.843 323 C 839.668 323, 840 318.692, 840 308 C 840 299.750, 839.753 293, 839.452 293 C 839.151 293, 836.563 294.488, 833.702 296.307 C 822.752 303.268, 806.612 311.293, 803.726 311.211 C 799.691 311.097, 797 308.385, 797 304.434 C 797 300.499, 800.761 296.953, 809.038 293.087 C 812.084 291.664, 820.296 287.364, 827.288 283.531 L 840 276.563 839.993 251.531 C 839.988 229.403, 839.785 226.196, 838.243 223.883 C 834.506 218.271, 824.626 211.641, 799.891 198.146 C 780.730 187.691, 775.809 185.960, 768.286 187.027 M 364.864 190.784 C 360.034 193.996, 355.237 198.727, 348.962 206.467 C 344.010 212.576, 342.991 214.387, 344.098 215.114 C 349.679 218.776, 365.819 226.811, 377.903 231.942 C 385.824 235.307, 396.759 240.558, 402.202 243.613 C 418.162 252.571, 416.380 252.807, 429.514 239.986 C 437.129 232.553, 440.379 228.739, 439.620 228.130 C 439.004 227.636, 428.600 222.282, 416.500 216.233 C 389.112 202.541, 372.114 193.402, 369.472 190.951 C 367.543 189.160, 367.319 189.152, 364.864 190.784 M 508.477 211.919 C 495.820 213.954, 477.285 221.444, 465.266 229.382 C 436.498 248.381, 408.348 287.427, 397.608 323.229 C 392.148 341.430, 390.834 349.175, 390.267 366.500 C 389.151 400.587, 397.023 425.604, 414.500 443.519 C 433.194 462.680, 462.666 468.951, 491 459.795 C 507.605 454.430, 533.060 439.596, 545.371 428.111 C 551.823 422.092, 569.725 401.394, 573.339 395.776 C 592.145 366.540, 598.715 347.695, 601.167 315.957 C 603.132 290.515, 599.623 268.005, 591.391 253.253 C 575.799 225.309, 555.713 212.781, 524.527 211.547 C 518.462 211.307, 511.239 211.474, 508.477 211.919 M 323.899 239.776 C 319.364 246.755, 313.941 256.117, 311.849 260.581 C 307.983 268.831, 301 288.551, 301 291.218 C 301 292.079, 302.754 293.201, 305.250 293.937 C 311.530 295.789, 320.931 299.963, 346 312.028 C 358.375 317.983, 370.842 323.738, 373.706 324.815 L 378.911 326.774 381.594 318.637 C 383.069 314.162, 385.114 308.830, 386.138 306.790 C 387.162 304.749, 388 302.619, 388 302.057 C 388 300.776, 381.526 297.482, 364.118 289.905 C 356.329 286.514, 349.537 282.888, 348.250 281.433 C 345.476 278.296, 345.388 274.516, 347.989 270.250 C 350.557 266.038, 353.989 265.983, 360 270.061 C 365.961 274.103, 378.193 280.303, 387.518 284.007 C 391.662 285.653, 395.222 287, 395.431 287 C 395.639 287, 397.259 284.413, 399.031 281.250 C 400.802 278.087, 403.847 273.310, 405.797 270.633 C 408.441 267.003, 409.105 265.351, 408.407 264.133 C 407.044 261.752, 354.936 236.137, 336.823 228.944 L 332.146 227.087 323.899 239.776 M 509.898 234.094 C 476.933 237.499, 438.390 270.524, 420.725 310.500 C 417.543 317.701, 413.549 330.724, 409.838 346 C 407.772 354.504, 408.099 381.810, 410.365 390 C 412.782 398.737, 418.825 411.354, 423.598 417.628 C 434.400 431.824, 452.090 440.181, 471.500 440.255 C 480.389 440.290, 482.686 439.895, 492.171 436.701 C 513.152 429.637, 527.423 420.690, 543.623 404.443 C 559.628 388.391, 570.314 372.308, 576.466 355.011 C 592.897 308.811, 584.026 263.314, 554.645 243.100 C 543.506 235.436, 527.702 232.255, 509.898 234.094 M 507.367 251.092 C 498.467 252.580, 487.202 256.652, 479.722 261.087 C 460.550 272.453, 438.356 301.530, 430.512 325.561 C 421.614 352.819, 422.082 381.221, 431.703 397.875 C 437.607 408.093, 445.677 414.562, 458.245 419.149 C 470.754 423.714, 476.611 423.894, 489.448 420.108 C 510.273 413.965, 519.897 408.141, 534.530 392.823 C 551.292 375.276, 563.138 354.862, 567.213 336.500 C 570.438 321.966, 570.409 301.491, 567.148 291 C 560.227 268.737, 545.970 254.969, 526.181 251.440 C 517.580 249.906, 514.773 249.854, 507.367 251.092 M 497.942 275.287 C 469.906 284.845, 445.909 318.313, 443.366 351.403 C 442.608 361.259, 443.837 367.639, 448.359 377.330 C 454.630 390.766, 463.575 396.820, 478.533 397.754 C 485.649 398.198, 488.099 397.892, 495.188 395.678 C 499.760 394.250, 505.525 391.789, 508 390.210 C 518.773 383.336, 533.865 366.494, 540.406 354.046 C 550.232 335.348, 552.640 310.091, 545.987 295.500 C 537.619 277.148, 517.416 268.648, 497.942 275.287 M 498 292.830 C 490.546 295.306, 486.259 297.648, 485.053 299.901 C 484.499 300.936, 483.606 305.544, 483.069 310.141 C 481.123 326.786, 476.266 336.710, 463.722 349.676 C 459.046 354.509, 458.755 355.105, 459.331 358.676 C 460.241 364.318, 465.004 372.903, 469.018 376.139 C 478.771 383.999, 497.397 380.137, 510.312 367.577 C 526.063 352.258, 534.587 329.755, 531.063 312.796 C 529.649 305.993, 524.287 297.421, 519.315 294.014 C 514.599 290.782, 505.658 290.286, 498 292.830 M 295.563 309.250 C 294.582 313.890, 293.004 334.881, 293.096 342.053 C 293.149 346.149, 293.712 351.904, 294.346 354.842 L 295.500 360.185 304 362.957 C 308.675 364.482, 316.775 367.787, 322 370.302 C 329.475 373.899, 365.008 389.883, 371.890 392.744 C 373.049 393.225, 373.166 391.669, 372.596 383.411 C 371.993 374.682, 372.830 358.718, 374.610 344.983 L 375.196 340.466 361.348 334.552 C 353.732 331.299, 339.175 324.736, 329 319.967 C 310.233 311.170, 300.096 307, 297.482 307 C 296.688 307, 295.824 308.012, 295.563 309.250 M 763.852 320.750 C 761.338 323.363, 754.941 331.575, 749.639 339 C 744.336 346.425, 738.086 354.999, 735.749 358.053 C 725.611 371.302, 711.078 390.779, 706 397.921 C 700.725 405.339, 693.818 414.235, 667.500 447.504 C 660.900 455.848, 649.786 470.060, 642.802 479.087 C 611.827 519.123, 604.935 528.075, 595.969 539.914 C 573.759 569.243, 563.460 582.741, 560.423 586.500 C 547.317 602.722, 532.953 624.286, 534.333 625.667 C 534.581 625.914, 536.430 625.430, 538.441 624.589 C 542.046 623.083, 593.979 592.085, 611.500 580.982 C 622.544 573.983, 648.479 558.261, 672.500 544.003 C 682.400 538.127, 705.575 524.229, 724 513.119 C 742.425 502.009, 760.456 491.475, 764.070 489.710 L 770.640 486.500 770.877 420 C 771.106 355.928, 770.411 316, 769.067 316 C 768.714 316, 766.367 318.137, 763.852 320.750 M 327.557 346.223 C 326.701 347.445, 326 349.899, 326 351.675 C 326 358.328, 329.578 362, 336.062 362 C 339.783 362, 342.991 357.251, 342.996 351.735 C 342.999 348.559, 342.492 347.661, 339.750 345.989 C 335.254 343.248, 329.564 343.357, 327.557 346.223 M 298 374.017 C 298 375.900, 302.856 386.647, 306.640 393.137 C 308.681 396.637, 313.305 402.574, 316.917 406.331 C 323.913 413.608, 331.370 417.835, 353.381 427.004 C 358.816 429.268, 368.266 433.516, 374.381 436.443 C 386.431 442.212, 391.706 443.974, 390.391 441.790 C 389.963 441.081, 388.076 438.082, 386.197 435.127 C 381.861 428.307, 378.624 420.933, 377.055 414.300 C 376.378 411.439, 375.301 408.694, 374.662 408.199 C 374.023 407.704, 369.900 406.035, 365.500 404.491 C 361.100 402.946, 345.575 395.858, 331 388.739 C 299.125 373.169, 298 372.667, 298 374.017 M 339.842 450.338 C 335.081 453.727, 328.673 458.047, 325.604 459.938 L 320.024 463.376 322.762 465.245 C 324.268 466.273, 335.400 472.093, 347.500 478.178 C 378.230 493.634, 402.245 506.533, 408.687 511.046 C 412.118 513.449, 414.779 514.647, 415.828 514.261 C 416.748 513.921, 421.325 511.313, 426 508.465 C 430.675 505.617, 441.165 499.799, 449.311 495.537 C 457.457 491.275, 463.924 487.590, 463.682 487.348 C 463.439 487.106, 454.890 484.903, 444.683 482.452 C 426.968 478.198, 411.982 473.203, 394.500 465.727 C 390.100 463.845, 384.700 461.723, 382.500 461.011 C 375.878 458.867, 354.432 448.135, 352.496 445.996 C 351.503 444.898, 350.197 444.040, 349.595 444.088 C 348.993 444.137, 344.604 446.949, 339.842 450.338 M 301.020 475.478 C 299.740 476.841, 294.671 480.033, 289.757 482.571 C 281.736 486.714, 281.010 487.317, 282.661 488.460 C 285.248 490.251, 314.626 506.198, 332.500 515.513 C 340.750 519.812, 353.800 526.896, 361.500 531.255 L 375.500 539.181 389.754 531.852 C 397.594 527.822, 403.876 524.129, 403.715 523.646 C 403.554 523.163, 394.873 518.400, 384.423 513.063 C 373.974 507.725, 359.502 500.112, 352.263 496.144 C 345.025 492.177, 333.792 486.458, 327.301 483.435 C 320.810 480.413, 313.414 476.829, 310.865 475.470 C 305.081 472.388, 303.923 472.389, 301.020 475.478 M 255.266 504.366 C 247.987 508.290, 242.024 511.775, 242.016 512.110 C 241.996 512.890, 269.901 528.858, 285.205 536.825 C 291.642 540.176, 298.793 544.107, 301.096 545.561 C 303.399 547.015, 311.182 551.447, 318.392 555.411 C 325.601 559.375, 332.420 563.205, 333.545 563.922 C 335.362 565.080, 336.375 564.717, 342.635 560.667 C 346.510 558.161, 352.678 554.678, 356.340 552.928 C 360.003 551.179, 362.992 549.242, 362.982 548.624 C 362.971 548.006, 350.957 541.425, 336.283 534 C 310.617 521.013, 280.215 504.654, 275 501.024 C 268.976 496.831, 269.366 496.765, 255.266 504.366 M 217.500 527.205 C 212.550 529.944, 206.344 533.302, 203.709 534.666 L 198.917 537.147 201.209 538.916 C 202.469 539.889, 207.775 543.170, 213 546.207 C 218.225 549.245, 230.375 556.443, 240 562.204 C 267.015 578.375, 285.648 588.542, 291.716 590.426 C 293.402 590.949, 295.917 589.812, 302.216 585.679 C 306.772 582.690, 313.313 578.833, 316.750 577.108 C 320.188 575.383, 323 573.790, 323 573.570 C 323 573.349, 318.837 571.036, 313.750 568.430 C 299.801 561.285, 275.801 548.493, 267.167 543.601 C 262.950 541.211, 254.325 536.665, 248 533.499 C 241.675 530.332, 234.619 526.450, 232.320 524.871 C 230.021 523.292, 227.771 522.051, 227.320 522.112 C 226.869 522.174, 222.450 524.466, 217.500 527.205 M 173.753 553.335 C 168.392 556.726, 160.205 561.697, 155.560 564.382 C 150.914 567.067, 146.875 569.885, 146.583 570.644 C 145.589 573.235, 148.207 576.914, 151.897 578.110 C 157.280 579.854, 199.802 603.077, 208.523 609.035 C 210.736 610.547, 216.884 614.102, 222.186 616.934 C 227.488 619.767, 232.263 622.629, 232.798 623.293 C 233.333 623.957, 234.367 633.032, 235.095 643.460 C 236.194 659.184, 236.726 662.726, 238.210 664.210 C 240.227 666.227, 245.090 666.558, 248.208 664.889 C 250.228 663.807, 250.266 663.313, 249.607 646.639 C 249.235 637.212, 248.668 627.404, 248.348 624.841 C 247.770 620.214, 247.796 620.164, 252.133 617.436 C 254.535 615.925, 259.425 612.761, 263 610.405 C 266.575 608.049, 271.188 605.335, 273.250 604.375 C 275.312 603.415, 277 602.302, 277 601.903 C 277 600.822, 266.106 593.587, 259.325 590.164 C 256.067 588.519, 249.148 584.580, 243.950 581.411 C 238.753 578.241, 225.950 570.817, 215.500 564.912 C 205.050 559.007, 193.963 552.562, 190.863 550.588 C 187.762 548.615, 184.837 547.038, 184.363 547.085 C 183.888 547.131, 179.114 549.944, 173.753 553.335 M 203.500 577.155 C 200.770 578.648, 199 581.022, 199 583.188 C 199 586.249, 205.674 592.581, 212.905 596.381 C 221.988 601.154, 225.130 601.106, 230.118 596.118 C 232.253 593.982, 234 591.767, 234 591.194 C 234 588.631, 228.217 583.732, 220.821 580.030 C 212.553 575.892, 207.379 575.033, 203.500 577.155 M 148.225 593.175 C 146.734 594.666, 146.546 610.675, 147.975 614.435 C 148.795 616.591, 149.580 617, 152.904 617 C 158.901 617, 160.383 614.939, 159.622 607.660 C 159.280 604.385, 158.985 600.760, 158.967 599.603 C 158.890 594.743, 151.236 590.164, 148.225 593.175" stroke="none" fill="#000000" fill-rule="evenodd"/>
</svg>