<svg xmlns="http://www.w3.org/2000/svg" width="1024" height="1024" viewBox="0 0 1024 1024" version="1.1">
	<path d="M 487.500 171.970 C 443.381 172.687, 437.065 173.043, 430 175.216 C 421.181 177.929, 407.813 189.489, 403.381 198.236 C 399.033 206.815, 398.110 213.726, 398.262 236.551 L 398.403 257.602 426.451 258.733 C 445.495 259.500, 459.958 259.556, 471.500 258.906 C 482.519 258.286, 505.035 258.308, 535.500 258.969 C 561.350 259.530, 589.750 259.992, 598.611 259.995 L 614.722 260 615.209 238.109 C 615.476 226.070, 615.355 213.713, 614.939 210.650 C 613.866 202.738, 609.947 194.888, 603.804 188.345 C 596.959 181.053, 591.391 177.549, 581.500 174.310 C 574.055 171.872, 572.078 171.675, 553 171.465 C 541.725 171.341, 512.250 171.568, 487.500 171.970 M 460 195.500 C 459.315 196.325, 458.146 197, 457.401 197 C 456.656 197, 455.321 198.107, 454.435 199.459 C 452.179 202.902, 453.390 207.433, 457.378 210.474 L 460.591 212.926 508.795 213.078 C 552.274 213.216, 557.248 213.067, 559.544 211.563 C 564.810 208.113, 564.917 202.071, 559.804 196.958 L 556.846 194 509.046 194 C 467.776 194, 461.075 194.205, 460 195.500 M 722.813 226.750 L 686.126 227.025 684.029 229.690 C 682.180 232.041, 681.965 233.472, 682.216 241.781 L 682.500 251.207 728 251.569 C 753.025 251.768, 775.638 252.338, 778.250 252.836 L 783 253.742 783 241.526 C 783 225.808, 783.091 225.910, 769.421 226.237 C 763.965 226.368, 742.991 226.598, 722.813 226.750 M 470.500 227.634 C 457.605 228.101, 456.339 228.444, 454.518 231.965 C 451.647 237.516, 452.652 241.355, 458.068 245.523 C 460.544 247.429, 462.359 247.500, 508.925 247.500 L 557.215 247.500 560.108 244.038 C 564.012 239.364, 564.002 234.848, 560.077 230.923 L 557.154 228 534.327 227.997 C 521.772 227.995, 504.525 227.831, 496 227.633 C 487.475 227.435, 476 227.436, 470.500 227.634 M 784.500 268.719 C 779.759 269.872, 771.682 270.130, 746 269.950 C 676.799 269.467, 678.979 269.428, 670.205 271.305 C 665.643 272.281, 660.213 273.963, 658.140 275.044 C 655.516 276.412, 651.198 277.236, 643.935 277.755 C 636.560 278.281, 633.529 278.867, 633.600 279.750 C 633.655 280.438, 633.768 288.827, 633.850 298.393 C 633.978 313.213, 634.233 315.875, 635.576 316.391 C 636.443 316.723, 651.180 316.527, 668.326 315.954 C 699.720 314.905, 729.279 315.623, 757.915 318.129 C 765.491 318.792, 776.918 318.932, 787.235 318.490 C 805.640 317.701, 806.039 317.564, 809.553 310.862 C 811.527 307.096, 811.777 276.245, 809.858 273.077 C 806.380 267.334, 796.900 265.704, 784.500 268.719 M 267.839 270.381 C 249.726 275.876, 237.266 285.319, 226.101 302.010 C 219.854 311.349, 217.134 317.576, 213.654 330.500 C 211.526 338.405, 211.500 339.545, 211.500 426.500 L 211.500 514.500 215.269 524.762 C 220.408 538.755, 223.509 545.186, 229.368 554 C 240.390 570.580, 254.403 581.895, 275 590.849 C 291.936 598.211, 296.828 598.939, 336.415 599.993 C 355.162 600.492, 372.188 601.325, 374.250 601.845 L 378 602.789 378 596.467 C 378 592.990, 377.488 586.625, 376.863 582.322 C 376.237 578.020, 375.674 568.875, 375.613 562 L 375.500 549.500 373 549.134 C 368.751 548.512, 350.631 551.200, 348.156 552.820 C 346.475 553.919, 343.217 554.350, 336.656 554.340 C 329.124 554.329, 326.259 553.847, 320.500 551.625 C 296.823 542.488, 274.420 516.250, 271.927 494.737 C 270.615 483.423, 270.784 362.315, 272.120 355.886 C 272.735 352.924, 273.282 349.712, 273.334 348.750 C 273.386 347.788, 273.857 347, 274.381 347 C 274.905 347, 275.087 346.753, 274.786 346.452 C 274.484 346.151, 275.474 342.591, 276.985 338.540 C 280.875 328.113, 286.514 321.772, 296.256 316.872 C 309.260 310.332, 311.928 309.923, 347.873 308.957 C 365.679 308.478, 380.387 307.946, 380.558 307.775 C 380.730 307.603, 381.190 299.077, 381.581 288.827 L 382.291 270.190 341.396 269.586 C 318.903 269.253, 294.875 268.773, 288 268.519 C 276.964 268.111, 274.603 268.329, 267.839 270.381 M 441.250 278.684 L 399 279.022 398.810 305.761 C 398.705 320.467, 398.735 369.400, 398.876 414.500 C 399.128 495.219, 399.165 496.594, 401.256 502.500 C 405.280 513.863, 421.321 526.888, 438 532.333 C 445.295 534.715, 446.704 534.805, 489.500 535.641 C 513.700 536.113, 540.025 536.448, 548 536.384 C 562.420 536.269, 562.559 536.246, 573.241 532.189 C 584.152 528.044, 588.607 525.461, 597.423 518.169 C 600.131 515.929, 602.686 514.306, 603.101 514.563 C 603.516 514.819, 604.147 514.114, 604.502 512.995 C 604.857 511.876, 606.764 508.842, 608.740 506.254 C 610.715 503.666, 612.926 499.574, 613.652 497.162 C 614.703 493.668, 615.013 471.249, 615.176 386.911 C 615.289 328.686, 615.166 280.832, 614.903 280.570 C 614.449 280.115, 579.004 279.461, 513.500 278.697 C 497 278.504, 464.488 278.499, 441.250 278.684 M 452.468 309.867 C 451.351 310.366, 449.571 312.381, 448.513 314.345 C 446.681 317.747, 446.670 318.085, 448.282 321.465 C 449.213 323.417, 451.442 325.939, 453.237 327.070 C 456.278 328.987, 457.487 329.084, 471 328.497 C 479.635 328.122, 500.002 328.532, 521.355 329.511 C 560.682 331.315, 561.250 331.266, 565.193 325.730 C 568.378 321.256, 567.969 317.503, 563.847 313.380 L 560.361 309.894 507.430 309.427 C 476.773 309.156, 453.645 309.341, 452.468 309.867 M 319.270 328.054 C 307.391 330.398, 297.122 338.963, 292.954 350 C 290.524 356.436, 290.501 356.823, 290.575 389.242 C 290.616 407.250, 290.905 422.239, 291.217 422.551 C 291.529 422.863, 295.546 422.388, 300.142 421.496 C 304.739 420.604, 313.450 419.009, 319.500 417.951 C 327.889 416.484, 331.427 415.371, 334.406 413.264 C 342.340 407.650, 341.973 409.715, 342.013 370.500 C 342.033 351.250, 342.038 333.587, 342.024 331.250 L 342 327 332.750 327.110 C 327.663 327.170, 321.596 327.595, 319.270 328.054 M 673.908 340.590 C 673.684 341.090, 673.500 386.305, 673.500 441.067 L 673.500 540.634 676.113 544.567 C 680.210 550.733, 693.929 566.379, 696.331 567.625 C 698.814 568.914, 722.166 569.990, 751.910 570.187 C 771.964 570.320, 772.353 570.283, 774.147 568.066 C 775.152 566.826, 776.473 563.957, 777.083 561.692 C 777.693 559.427, 779.883 554.183, 781.951 550.037 C 784.018 545.892, 785.980 541.375, 786.310 540 C 786.641 538.625, 786.974 511.850, 787.051 480.500 C 787.161 436.094, 786.851 419.854, 785.652 407 C 784.805 397.925, 783.803 379.647, 783.424 366.382 L 782.737 342.265 776.118 341.621 C 764.791 340.518, 674.349 339.606, 673.908 340.590 M 443.947 555 C 443.918 555.275, 443.928 561.350, 443.967 568.500 C 444.076 588.180, 445.101 603.403, 446.375 604.235 C 447.271 604.820, 508.239 605.491, 561.217 605.499 C 573.971 605.501, 573.301 607.095, 572.436 578.825 L 571.719 555.375 538.610 555.735 C 520.399 555.934, 491.662 555.737, 474.749 555.298 C 457.836 554.859, 443.975 554.725, 443.947 555 M 653.347 580.470 C 646.369 585.357, 644.875 601.392, 650.541 610.597 C 652.261 613.393, 655.695 616.948, 658.529 618.869 L 663.500 622.239 677 621.684 C 686.124 621.309, 693.093 620.434, 698.500 618.983 C 710.721 615.705, 728.579 615.311, 749 617.869 C 758.075 619.006, 771.800 620.455, 779.500 621.089 C 796.359 622.478, 800.688 621.671, 805.871 616.176 C 810.244 611.539, 811.756 607.839, 812.585 599.746 C 813.169 594.049, 812.934 592.535, 810.714 587.687 C 806.950 579.464, 804.776 578.629, 790.572 579.951 C 777.949 581.126, 769.814 582.494, 767.223 583.879 C 766.275 584.386, 760.550 585.581, 754.500 586.535 C 745.251 587.994, 739.759 588.163, 720 587.600 C 695.507 586.902, 688.685 586.319, 689.502 584.998 C 690.421 583.510, 681.873 580.970, 672.695 580.003 C 659.965 578.662, 655.783 578.763, 653.347 580.470 M 506.404 626.747 L 492.309 627.053 492.690 639.777 C 492.899 646.774, 493.308 654.413, 493.597 656.750 L 494.123 661 507.925 661 L 521.728 661 522.364 656.360 C 522.714 653.809, 523 645.934, 523 638.860 C 523 629.121, 522.697 626.053, 521.750 626.220 C 521.063 626.341, 514.157 626.578, 506.404 626.747 M 474.401 671.977 C 455.282 672.360, 447.890 672.843, 446.759 673.783 C 443.659 676.360, 442.934 680.406, 443.219 693.533 L 443.500 706.500 507.616 706.556 L 571.731 706.612 572.246 693.113 C 572.820 678.082, 572.123 674.661, 568.185 673.176 C 564.920 671.945, 510.625 671.250, 474.401 671.977 M 284.577 730.500 C 283.580 734.293, 285.154 769.424, 286.551 774.527 C 288.179 780.476, 293.471 787.046, 298.592 789.477 C 300.605 790.432, 305.232 792.116, 308.876 793.221 C 315.414 795.202, 318.036 795.227, 510.730 795.170 L 705.959 795.112 710.650 793.037 C 718.380 789.617, 723.706 784.517, 727.759 776.654 L 731.446 769.500 731.473 749 L 731.500 728.500 508.302 728.500 C 285.945 728.500, 285.101 728.508, 284.577 730.500" stroke="none" fill="#000000" fill-rule="evenodd"/>
</svg>