<svg xmlns="http://www.w3.org/2000/svg" width="1024" height="1024" viewBox="0 0 1024 1024" version="1.1">
	<path d="M 202.500 140.743 C 194.800 140.877, 187.476 141.226, 186.225 141.519 C 182.123 142.478, 176.207 148.847, 173.861 154.828 L 171.637 160.500 171.364 477 C 171.214 651.075, 171.355 800.625, 171.677 809.334 C 172.257 824.998, 172.297 825.218, 175.382 829.733 C 177.097 832.244, 180.455 835.693, 182.844 837.399 C 187.058 840.407, 187.561 840.510, 199.594 840.832 C 211.599 841.152, 214.516 842.053, 209.750 843.969 C 208.026 844.662, 207.909 844.888, 209.250 844.937 C 210.213 844.971, 211 845.406, 211 845.902 C 211 846.398, 212.385 847.287, 214.078 847.877 C 216.215 848.622, 217.052 849.493, 216.817 850.725 C 216.530 852.225, 215.086 852.572, 207.489 852.963 L 198.500 853.425 208 853.963 L 217.500 854.500 218.077 861 C 218.395 864.575, 218.732 866.963, 218.827 866.307 C 218.922 865.651, 219.787 865.268, 220.750 865.455 C 221.713 865.642, 225.425 866.362, 229 867.055 C 232.575 867.748, 236.573 869.144, 237.885 870.158 C 239.197 871.171, 241.559 872, 243.135 872 C 244.711 872, 246 872.498, 246 873.107 C 246 873.716, 246.675 873.955, 247.500 873.638 C 248.692 873.181, 249.030 874.033, 249.147 877.781 L 249.294 882.500 250.038 876.500 C 250.448 873.200, 250.832 867.061, 250.891 862.857 C 250.976 856.879, 251.345 855.082, 252.582 854.607 C 254.641 853.817, 278.359 853.817, 280.418 854.607 C 281.649 855.079, 282 856.744, 282 862.107 C 282 866.036, 282.430 869, 283 869 C 283.550 869, 284 867.227, 284 865.059 C 284 860.351, 284.913 859.654, 291.202 859.563 C 294.823 859.511, 296.007 859.863, 296.030 860.997 C 296.054 862.164, 296.292 862.102, 297.098 860.717 C 297.903 859.335, 298.888 859.076, 301.483 859.563 C 305.353 860.289, 312 858.226, 312 856.299 C 312 855.585, 312.598 855, 313.329 855 C 314.061 855, 314.655 855.788, 314.651 856.750 C 314.647 857.712, 314.724 861.887, 314.822 866.026 L 315 873.553 318.750 873.305 C 331.380 872.471, 334.828 872.469, 334.316 873.298 C 334.004 873.802, 334.593 873.967, 335.625 873.666 C 336.656 873.364, 339.061 872.978, 340.969 872.809 C 343.827 872.554, 344.661 872.940, 345.704 875 C 346.921 877.403, 346.979 877.325, 347.185 873 C 347.303 870.525, 347.477 867.150, 347.572 865.500 C 347.666 863.850, 347.801 860.813, 347.872 858.750 L 348 855 363.500 855 L 379 855 379.150 863.750 C 379.232 868.563, 379.484 871.300, 379.708 869.833 C 380.076 867.434, 380.464 867.208, 383.558 867.592 C 385.490 867.832, 387 867.576, 387 867.010 C 387 866.454, 387.477 866, 388.059 866 C 388.641 866, 388.872 866.399, 388.571 866.886 C 387.837 868.073, 392.146 868.834, 394.569 867.945 C 396.190 867.351, 396.018 867.161, 393.500 866.768 C 391.441 866.447, 392.120 866.253, 395.667 866.150 C 398.792 866.059, 401 865.506, 401.254 864.750 C 401.588 863.759, 401.999 863.768, 403.240 864.792 C 404.519 865.847, 404.915 865.847, 405.403 864.792 C 405.851 863.822, 406.141 863.797, 406.565 864.694 C 406.875 865.350, 407.775 865.640, 408.565 865.337 C 410.024 864.777, 410.264 866.231, 410.162 875 C 410.124 878.231, 410.192 878.154, 411.050 874 C 412.460 867.176, 413.047 866.093, 414.037 868.500 C 414.828 870.423, 414.862 870.415, 414.930 868.309 C 415.009 865.829, 417 864.032, 417 866.441 C 417 868.167, 418.548 868.541, 419.476 867.038 C 419.851 866.431, 420.980 866.422, 422.535 867.013 C 424.178 867.638, 425 867.603, 425 866.908 C 425 866.312, 425.878 866.144, 427.048 866.515 C 428.174 866.873, 429.709 866.656, 430.459 866.034 C 431.357 865.289, 432.035 865.248, 432.447 865.913 C 432.790 866.469, 434.850 866.747, 437.024 866.531 C 439.963 866.238, 441.229 866.569, 441.958 867.819 C 442.684 869.062, 442.947 868.023, 442.970 863.832 C 443.020 854.520, 442.116 855, 459.607 855 L 475 855 475.070 864.250 C 475.117 870.349, 475.433 872.819, 476 871.500 C 476.476 870.393, 476.891 870.116, 476.930 870.879 C 476.987 871.995, 478.573 872.121, 485.250 871.541 C 489.788 871.146, 494.063 870.358, 494.750 869.789 C 495.633 869.059, 496 869.116, 496 869.985 C 496 870.764, 496.641 870.950, 497.750 870.492 C 498.712 870.095, 500.938 869.424, 502.695 869.002 C 505.726 868.275, 505.911 868.397, 506.285 871.368 C 506.502 873.090, 506.752 870.364, 506.840 865.309 C 506.928 860.254, 507.463 855.832, 508.028 855.483 C 508.594 855.133, 515.794 854.588, 524.028 854.272 L 539 853.696 539 860.920 C 539 865.403, 539.474 868.590, 540.250 869.321 C 541.841 870.822, 556.999 871.029, 557.003 869.550 C 557.005 868.942, 559.214 868.530, 562.253 868.570 C 569.446 868.667, 569.791 868.760, 570.311 870.750 C 570.562 871.712, 570.820 868.615, 570.884 863.867 C 571.024 853.461, 569.987 854.033, 588.750 854.014 L 602 854 602.116 861.250 C 602.180 865.237, 602.443 867.685, 602.701 866.690 C 603.104 865.132, 603.984 864.945, 609.012 865.346 C 612.225 865.603, 615.136 865.531, 615.481 865.186 C 615.825 864.841, 617.771 864.677, 619.804 864.821 C 622.656 865.023, 623.158 864.838, 622 864.011 C 620.860 863.197, 621.220 863.100, 623.500 863.608 C 625.150 863.975, 627.057 864.714, 627.738 865.251 C 628.597 865.927, 629.166 865.731, 629.595 864.613 C 630.468 862.339, 631.908 862.611, 632.969 865.250 C 633.800 867.317, 633.889 867.235, 634.062 864.250 C 634.165 862.462, 634.362 860.550, 634.500 860 C 634.638 859.450, 634.813 855.513, 634.890 851.250 C 634.985 846.010, 635.333 843.979, 635.966 844.979 C 636.647 846.055, 638.994 846.489, 644.609 846.576 C 653.054 846.707, 661.304 844.924, 658.959 843.475 C 657.933 842.840, 658.295 842.431, 660.375 841.875 C 665.102 840.611, 666 841.605, 666 848.107 C 666 853.531, 665.821 854.006, 663.750 854.070 C 661.623 854.137, 661.609 854.183, 663.497 854.920 C 664.907 855.470, 665.830 857.289, 666.635 861.100 L 667.776 866.500 667.888 861.367 C 668.027 855.007, 667.955 855.032, 685.750 855.014 L 699 855 699 862.250 L 699 869.500 702.750 869.619 C 704.813 869.684, 708.836 869.839, 711.691 869.964 C 714.546 870.089, 717.471 869.822, 718.191 869.370 C 719.498 868.551, 720.623 868.577, 726.750 869.566 C 729.945 870.082, 730.003 870.187, 730.204 875.795 C 730.316 878.933, 730.654 875.678, 730.954 868.561 L 731.500 855.622 734.758 854.780 C 736.550 854.317, 743.525 854.065, 750.258 854.219 L 762.500 854.500 762.796 860.125 C 763.071 865.350, 763.267 865.750, 765.546 865.750 C 766.896 865.750, 768 865.356, 768 864.875 C 768 864.394, 769.594 864, 771.542 864 C 773.627 864, 775.914 863.226, 777.104 862.118 C 778.215 861.083, 780.864 859.958, 782.991 859.617 C 785.118 859.277, 787.645 858.212, 788.607 857.250 C 790.669 855.188, 795.542 854.642, 793.867 856.660 C 793.295 857.349, 793.178 858.479, 793.606 859.172 C 794.035 859.865, 794.697 862.022, 795.078 863.966 L 795.770 867.500 795.885 863.838 C 796.002 860.128, 796.529 859.848, 800.317 861.482 C 801.405 861.951, 803.177 861.711, 804.731 860.883 C 806.768 859.798, 807.418 859.769, 807.747 860.750 C 808.036 861.609, 810.641 862, 816.083 862 C 823.606 862, 824.004 862.112, 824.070 864.250 C 824.137 866.388, 824.181 866.400, 824.957 864.500 C 825.644 862.815, 825.844 863.051, 826.226 866 C 826.487 868.012, 826.748 866.405, 826.840 862.219 C 826.958 856.862, 827.387 854.789, 828.462 854.376 C 829.267 854.067, 836.354 854.194, 844.212 854.657 L 858.500 855.500 858.673 860 C 858.769 862.475, 858.881 865.948, 858.923 867.719 C 858.981 870.152, 859.366 870.797, 860.500 870.362 C 861.377 870.025, 862.006 870.350, 862.015 871.143 C 862.027 872.190, 862.252 872.157, 863 871 C 863.533 870.175, 863.992 869.950, 864.021 870.500 C 864.049 871.050, 865.179 870.150, 866.531 868.500 C 868.860 865.659, 868.990 865.619, 868.995 867.750 C 868.998 868.987, 869.450 870, 870 870 C 870.550 870, 871 869.045, 871 867.878 C 871 866.188, 871.281 865.988, 872.378 866.899 C 873.987 868.234, 879 866.748, 879 864.937 C 879 864.195, 880.317 864.047, 882.951 864.492 C 886.773 865.137, 886.933 865.051, 887.861 861.830 C 888.729 858.816, 888.846 859.164, 889.099 865.500 L 889.378 872.500 889.939 863.500 L 890.500 854.500 897.500 854 C 905.701 853.414, 906.914 852.823, 906.559 849.584 C 906.374 847.905, 906.704 847.333, 907.647 847.695 C 908.630 848.072, 909 847.228, 909 844.607 C 909 842.396, 909.484 840.994, 910.250 840.985 C 911.155 840.974, 911.120 840.729, 910.122 840.096 C 909.364 839.616, 909.058 838.716, 909.441 838.095 C 909.824 837.475, 910.505 837.194, 910.953 837.471 C 911.782 837.983, 913.054 824.917, 912.266 824 C 912.029 823.725, 907.035 823.275, 901.168 823 L 890.500 822.500 890.500 807.083 L 890.500 791.666 893 791.435 C 896.173 791.142, 910.027 790.842, 916.250 790.932 L 921 791 921.085 805.250 C 921.166 818.892, 921.224 819.278, 922.432 814.294 C 923.266 810.854, 924.724 808.126, 926.733 806.249 C 929.337 803.817, 929.824 802.558, 930.136 797.455 L 930.500 791.500 926.500 791.183 C 921.334 790.774, 920.567 789.908, 920.806 784.754 C 920.990 780.791, 920.901 780.633, 919.502 782.441 C 918.326 783.961, 918.271 784.554, 919.250 785.176 C 920.154 785.750, 920.173 785.974, 919.317 785.985 C 918.667 785.993, 917.849 786.900, 917.500 788 C 917.151 789.100, 916.194 790, 915.374 790 C 914.553 790, 914.162 789.547, 914.504 788.993 C 914.847 788.439, 914.423 787.716, 913.563 787.386 C 911.486 786.589, 911.579 785.257, 913.750 784.689 C 915.248 784.298, 915.264 784.215, 913.859 784.116 C 912.823 784.043, 912.021 782.804, 911.681 780.750 C 911.385 778.962, 910.894 776.150, 910.590 774.500 C 910.095 771.812, 910.129 771.760, 910.919 774 C 911.736 776.318, 911.817 776.227, 912.025 772.750 C 912.342 767.466, 912.320 767.537, 914.179 765.679 C 916.615 763.242, 919.772 763.537, 920.294 766.250 C 920.533 767.487, 920.789 766.561, 920.864 764.191 C 920.965 760.986, 920.680 760.074, 919.750 760.633 C 918.753 761.232, 918.751 761.074, 919.741 759.850 C 920.424 759.006, 920.687 758.020, 920.325 757.658 C 919.963 757.296, 914.398 757, 907.958 757 C 901.519 757, 894.844 756.719, 893.125 756.375 L 890 755.750 890 739.964 L 890 724.178 895.750 723.714 C 906.108 722.879, 904.879 724.144, 910.527 708.500 C 911.321 706.300, 911.977 703.480, 911.985 702.234 C 912.015 697.709, 914.407 692.090, 916.481 691.675 C 917.592 691.454, 913.100 691.205, 906.500 691.123 C 888.348 690.896, 890 692.622, 890 673.883 L 890 658 902.750 657.985 C 909.763 657.976, 916.175 657.533, 917 657 C 918.303 656.158, 918.285 656.029, 916.864 656.015 C 915.677 656.004, 915.040 654.694, 914.546 651.250 C 914.171 648.638, 913.362 644.772, 912.747 642.661 C 911.906 639.770, 911.923 638.353, 912.815 636.925 C 914.350 634.466, 914.324 632.297, 912.750 631.662 C 911.827 631.290, 911.859 631.137, 912.872 631.079 C 913.978 631.015, 914.003 630.709, 913 629.500 C 911.976 628.266, 912.058 628, 913.461 628 C 914.399 628, 914.980 627.438, 914.752 626.750 C 914.457 625.863, 910.807 625.419, 902.168 625.219 L 890 624.938 890 609.609 L 890 594.279 895.250 593.648 C 898.138 593.301, 903.345 593.013, 906.821 593.009 C 912.568 593.001, 913 592.857, 911.571 591.429 C 909.717 589.574, 909.581 588.377, 911.118 587.427 C 911.832 586.986, 912.015 585.069, 911.625 582.118 C 911.229 579.129, 911.340 578.011, 911.938 578.948 C 912.654 580.069, 913.009 579.730, 913.513 577.448 C 913.870 575.827, 914.648 573.221, 915.241 571.658 C 915.972 569.732, 915.990 568.603, 915.297 568.158 C 914.183 567.441, 914.180 564.136, 915.292 562.337 C 916.430 560.496, 913.474 560, 901.352 560 L 889.867 560 890.183 546.001 C 890.374 537.560, 890.897 531.995, 891.500 531.985 C 892.050 531.977, 891.838 531.551, 891.029 531.039 C 890.220 530.527, 889.770 529.898, 890.029 529.640 C 890.288 529.382, 897.362 528.844, 905.750 528.445 L 921 527.721 921.134 540.110 C 921.233 549.339, 921.445 551.224, 921.965 547.500 C 922.349 544.750, 922.494 540.319, 922.288 537.654 C 922.082 534.989, 922.389 532.236, 922.969 531.537 C 923.730 530.620, 923.603 529.915, 922.512 529.010 C 921.279 527.987, 921 524.835, 921 511.938 L 921 496.121 924.750 495.810 C 926.813 495.640, 919.772 495.673, 909.105 495.885 L 889.709 496.269 890.333 484.885 C 890.677 478.623, 891.183 472.038, 891.459 470.250 C 891.786 468.135, 891.549 467, 890.780 467 C 889.977 467, 889.926 466.674, 890.622 465.978 C 891.184 465.416, 898.249 464.671, 906.322 464.323 L 921 463.689 921 478.844 C 921 495.102, 921.342 496.040, 925.847 492.133 C 927.806 490.434, 928 489.280, 928 479.324 C 928 468.318, 928.665 465.886, 932 464.694 C 932.825 464.399, 930.688 464.122, 927.250 464.079 L 921 464 921 447.563 L 921 431.127 924.250 430.813 C 927.234 430.526, 927.509 430.205, 927.604 426.899 C 927.661 424.919, 928.001 422.134, 928.358 420.710 C 928.715 419.287, 928.627 417.887, 928.161 417.600 C 927.696 417.312, 927.357 414.182, 927.408 410.643 C 927.476 405.879, 927.980 403.679, 929.352 402.164 C 931.191 400.132, 931.171 400.116, 926.352 399.809 L 921.500 399.500 921.225 383.250 L 920.950 367 927.725 366.900 C 932.119 366.836, 933.625 366.557, 932.010 366.108 C 930.409 365.662, 929.942 365.154, 930.702 364.684 C 932.452 363.603, 931.569 353.889, 929.590 352.442 C 928.626 351.738, 928 349.803, 928 347.533 C 928 344.662, 927.659 343.917, 926.543 344.345 C 925.362 344.798, 925.268 344.427, 926.043 342.387 C 927.287 339.116, 927.266 336, 926 336 C 925.450 336, 925 336.736, 925 337.635 C 925 338.838, 924.465 338.590, 922.974 336.694 C 921.108 334.321, 920.969 332.906, 921.224 318.809 L 921.500 303.500 926.500 302.907 C 929.250 302.581, 930.600 302.237, 929.500 302.142 C 928.357 302.043, 927.940 301.655, 928.526 301.235 C 929.837 300.296, 930.288 291.056, 929.094 289.601 C 928.597 288.995, 928.035 285.710, 927.845 282.299 C 927.577 277.479, 927.834 275.972, 929 275.533 C 929.825 275.222, 931.625 274.307, 933 273.499 C 935.361 272.111, 935.098 272.029, 928.250 272.015 L 921 272 920.811 265.750 L 920.622 259.500 920.261 265.250 L 919.900 271 916.200 270.868 L 912.500 270.737 916 270.069 L 919.500 269.402 916.117 268.592 C 913.642 268, 913.105 267.548, 914.117 266.907 C 915.234 266.199, 915.184 266.028, 913.857 266.015 C 911.729 265.995, 910.911 263.746, 911.368 259.171 C 911.570 257.152, 911.540 256.512, 911.301 257.750 C 910.412 262.362, 909.004 259.783, 909.118 253.750 C 909.217 248.551, 909.378 248.005, 910.074 250.500 C 910.715 252.794, 910.791 252.382, 910.395 248.750 C 910.076 245.823, 910.273 244, 910.907 244 C 911.474 244, 911.678 243.325, 911.362 242.500 C 910.916 241.339, 911.658 240.968, 914.643 240.857 C 916.764 240.779, 912.886 240.317, 906.025 239.831 C 896.679 239.169, 893.340 238.572, 892.713 237.453 C 892.253 236.631, 891.455 236.219, 890.939 236.538 C 890.421 236.858, 890 235.522, 890 233.559 C 890 231.602, 890.346 230, 890.769 230 C 891.193 230, 891.368 226.625, 891.160 222.500 C 890.865 216.664, 891.083 214.997, 892.141 214.985 C 893.194 214.973, 893.162 214.748, 892 213.985 C 890.752 213.165, 890.729 212.852, 891.863 212.121 C 893.014 211.379, 893.014 211.167, 891.863 210.758 C 889.125 209.786, 892.266 208.553, 899.071 207.929 C 902.906 207.578, 906.312 207.021, 906.641 206.693 C 907.632 205.701, 904.290 203, 902.071 203 C 900.932 203, 900 202.550, 900 202 C 900 201.450, 899.352 201, 898.559 201 C 897.766 201, 896.797 200.480, 896.405 199.845 C 895.962 199.130, 896.130 198.962, 896.845 199.405 C 897.480 199.797, 898 199.668, 898 199.118 C 898 198.568, 897.550 197.840, 897 197.500 C 896.450 197.160, 896.007 196.346, 896.015 195.691 C 896.025 194.975, 896.418 195.099, 897 196 C 897.646 197, 897.974 197.083, 897.985 196.250 C 897.993 195.562, 897.100 194.100, 896 193 C 894.900 191.900, 894.315 191, 894.700 191 C 895.085 191, 894.860 190.460, 894.200 189.800 C 892.620 188.220, 892.656 186.676, 894.250 187.629 C 894.938 188.041, 894.375 187.175, 893 185.706 C 891.625 184.237, 890.161 183.027, 889.747 183.017 C 889.333 183.008, 889.109 188.625, 889.249 195.500 L 889.505 208 886.335 208 L 883.164 208 883.075 183.378 C 882.997 161.741, 882.762 158.256, 881.143 154.628 C 878.908 149.620, 869.959 141.046, 866.793 140.879 C 862.235 140.638, 216.143 140.506, 202.500 140.743 M 209 491.344 L 209 805.500 525.750 805.249 C 699.962 805.111, 843.288 804.998, 844.252 804.999 C 845.917 805, 845.991 789.596, 845.752 491.250 L 845.500 177.500 527.250 177.344 L 209 177.187 209 491.344 M 554.318 213.938 C 547.371 216.438, 538.873 222.202, 534.045 227.686 C 515.479 248.779, 522.552 283.791, 547.901 296.273 C 554.136 299.343, 555.015 299.500, 565.977 299.500 C 576.781 299.500, 577.905 299.307, 584 296.414 C 592.409 292.421, 600.861 284.629, 604.729 277.303 C 620.562 247.314, 599.558 211.923, 566 212.048 C 562.234 212.062, 557.320 212.857, 554.318 213.938 M 921.215 226 C 921.206 234.652, 921.522 239.492, 922 238 C 923.062 234.684, 923.098 220.532, 922.057 215.500 C 921.473 212.675, 921.225 215.760, 921.215 226 M 416.674 216.452 C 412.406 217.974, 391.025 229.747, 362.813 246.110 C 352.535 252.071, 340.386 258.962, 335.814 261.423 C 324.928 267.283, 321.190 270.369, 318.916 275.377 C 313.863 286.505, 319.600 301.106, 331.418 307.193 C 334.456 308.759, 336.721 309.123, 341.515 308.818 C 349.086 308.336, 353.888 306.051, 379 290.983 C 389.175 284.877, 400.425 278.501, 404 276.814 C 407.575 275.126, 413.079 272.200, 416.231 270.312 L 421.962 266.878 426.231 269.857 C 428.579 271.495, 433.875 276.285, 438 280.500 C 442.125 284.715, 447.461 289.532, 449.857 291.204 L 454.214 294.243 446.292 302.372 C 433.786 315.203, 412.593 339.596, 403.646 351.454 L 399.908 356.408 405.704 357.624 C 418.179 360.241, 424.806 363.874, 438.888 375.817 C 449.054 384.439, 454.338 386.538, 463.677 385.666 C 472.280 384.862, 477.198 382.432, 485.512 374.874 C 499.096 362.527, 508.564 358.156, 523.641 357.274 C 539.209 356.363, 550.127 360.723, 567.221 374.680 C 579.552 384.749, 583.472 386.234, 584.564 381.250 C 584.896 379.738, 585.895 377.060, 586.784 375.300 C 588.301 372.298, 588.286 371.973, 586.540 370.044 C 585.516 368.913, 584.864 367.807, 585.089 367.586 C 585.315 367.365, 588.160 366.695, 591.412 366.096 C 594.664 365.498, 604.564 362.132, 613.412 358.616 C 622.260 355.101, 635.027 350.094, 641.783 347.491 C 656.871 341.676, 659.193 340.144, 665.500 331.853 C 674.808 319.617, 698.731 290.562, 708.979 279.047 C 714.585 272.748, 720.258 265.451, 721.586 262.831 C 728.998 248.204, 717.854 231, 700.968 231 C 691.255 231, 687.418 233.616, 672.733 250.250 C 665.455 258.494, 654.209 271.772, 647.741 279.758 C 629.263 302.574, 629.744 302.125, 620.549 305.133 C 616.122 306.582, 606.650 309.897, 599.500 312.501 C 580.863 319.289, 552.072 328, 548.277 328 C 547.379 328, 543.213 324.738, 539.020 320.750 C 534.826 316.762, 526.620 309.117, 520.784 303.761 C 514.948 298.405, 504.084 287.315, 496.640 279.118 C 489.197 270.921, 480.495 261.824, 477.304 258.903 C 474.112 255.981, 463.713 245.836, 454.195 236.358 C 443.614 225.821, 435.235 218.324, 432.630 217.063 C 427.746 214.699, 422.187 214.486, 416.674 216.452 M 883.393 242.582 C 883.727 243.452, 884 250.427, 884 258.082 L 884 272 886.639 272 C 889.237 272, 889.269 271.917, 888.648 266.750 C 888.301 263.863, 888.013 256.887, 888.009 251.250 L 888 241 885.393 241 C 883.427 241, 882.935 241.389, 883.393 242.582 M 893.250 272.723 L 890 273.127 890 287.544 C 890 304.660, 888.339 303.214, 907.500 302.788 L 920.500 302.500 920.776 287.250 L 921.052 272 908.776 272.160 C 902.024 272.248, 895.038 272.502, 893.250 272.723 M 883.347 306.162 C 883.691 307.448, 883.979 314.462, 883.986 321.750 C 883.999 334.386, 884.094 335, 886.026 335 C 887.984 335, 888.043 334.490, 887.776 319.750 C 887.500 304.522, 887.497 304.500, 885.110 304.162 C 883.040 303.869, 882.804 304.136, 883.347 306.162 M 893.250 335.723 L 890 336.127 890 351.563 L 890 367 905.500 367 L 921 367 921 351.607 C 921 338.493, 920.766 336.124, 919.418 335.607 C 917.736 334.962, 898.707 335.046, 893.250 335.723 M 358.345 366.433 C 354.797 367.543, 333.926 381.692, 332.548 383.922 C 331.588 385.476, 343.344 383.865, 347.157 381.920 C 352.027 379.435, 366.663 364.971, 364.210 365.067 C 363.269 365.104, 360.630 365.719, 358.345 366.433 M 884 383.883 C 884 397.926, 884.113 398.796, 886 399.290 C 887.936 399.796, 888 399.320, 888 384.406 C 888 369.667, 887.913 369, 886 369 C 884.090 369, 884 369.667, 884 383.883 M 256.334 382.683 C 254.043 383.601, 249.093 386.410, 245.334 388.926 L 238.500 393.500 238.227 411.841 C 238.077 421.929, 238.302 430.006, 238.727 429.790 C 253.181 422.459, 262.720 420.722, 275.526 423.089 C 283.657 424.592, 289.422 427.749, 299.781 436.372 C 311.128 445.816, 315.406 448.481, 322.556 450.559 C 334.215 453.949, 345.432 450.610, 357.238 440.236 C 366.372 432.210, 374.124 427.323, 381.873 424.706 C 399.270 418.830, 413.734 422.815, 432.500 438.654 C 444.145 448.482, 450.067 451.279, 459.419 451.370 C 471.036 451.484, 476.320 449.280, 486.607 440.033 C 501.159 426.953, 514.973 421.189, 529.053 422.323 C 539.371 423.154, 547.124 426.871, 560.054 437.188 C 575.097 449.190, 579.981 451.461, 590.654 451.417 C 600.390 451.377, 605.074 449.328, 616.319 440.187 C 634.209 425.644, 646.811 420.685, 660.238 422.902 C 669.574 424.444, 675.807 427.246, 684.939 434.006 C 698.049 443.710, 704.324 447.633, 710.288 449.849 C 717.524 452.539, 721.422 452.553, 729.241 449.919 C 735.860 447.689, 737.902 446.440, 748 438.444 C 751.575 435.613, 757.650 431.162, 761.500 428.551 C 765.350 425.941, 767.825 423.903, 767 424.021 C 766.175 424.140, 765.015 424.184, 764.423 424.118 C 763.072 423.970, 763.850 418, 765.220 418 C 765.767 418, 765.940 417.212, 765.605 416.250 C 765.076 414.732, 765.161 414.699, 766.248 416 C 766.936 416.825, 768.063 417.545, 768.750 417.600 C 769.438 417.655, 770.927 417.767, 772.059 417.850 C 773.331 417.943, 773.847 418.438, 773.410 419.146 C 772.911 419.952, 773.560 420.113, 775.601 419.687 L 778.500 419.082 775.500 420.582 L 772.500 422.082 775.500 421.476 C 785.956 419.363, 802.455 422.424, 810.778 428.021 L 816.500 431.868 816.788 413.684 L 817.076 395.500 813.369 392.358 C 808.254 388.023, 798.162 383.166, 791.481 381.825 C 780.889 379.697, 772.557 383.116, 756.089 396.347 C 745.988 404.462, 740.518 407.768, 733.191 410.185 C 726.922 412.253, 714.694 412.597, 708.500 410.880 C 703.674 409.541, 694.563 403.678, 682.702 394.279 C 669.742 384.008, 666.316 382.500, 655.946 382.500 C 648.053 382.500, 646.817 382.790, 639.946 386.248 C 635.851 388.310, 629.800 392.254, 626.500 395.013 C 611.408 407.629, 603.221 411.256, 589.500 411.403 C 580.993 411.495, 580.089 411.293, 573 407.730 C 568.875 405.657, 561.450 400.612, 556.500 396.520 C 551.550 392.428, 545.025 387.599, 542 385.790 C 536.812 382.687, 535.960 382.500, 527 382.500 C 518.046 382.500, 517.127 382.701, 511.011 386 C 507.442 387.925, 500.917 392.547, 496.511 396.271 C 478.954 411.111, 460.574 415.530, 445.368 408.568 C 438.467 405.409, 433.200 401.715, 424 393.580 C 415.304 385.891, 410.586 383.356, 402.241 381.886 C 390.944 379.896, 381.038 383.936, 366.228 396.573 C 357.109 404.353, 349.093 408.475, 339 410.575 C 323.530 413.792, 310.381 409.074, 295.343 394.909 C 284.628 384.816, 278.877 381.957, 268.195 381.409 C 262.587 381.121, 259.370 381.467, 256.334 382.683 M 760.500 395.638 C 750.454 402.767, 744.597 406.500, 739.500 409.024 C 735.297 411.105, 733.466 412.594, 733.387 413.997 C 733.278 415.913, 733.895 416, 747.637 416 L 762 416 762.015 406.250 C 762.026 399.586, 762.337 396.975, 763 398 C 763.862 399.333, 763.969 399.333, 763.969 398 C 763.969 395.041, 762.628 394.128, 760.500 395.638 M 289 396.378 C 289 396.585, 289.788 397.373, 290.750 398.128 C 292.336 399.371, 292.371 399.336, 291.128 397.750 C 289.821 396.084, 289 395.555, 289 396.378 M 814 397 C 812.910 397.704, 812.858 397.974, 813.809 397.985 C 814.572 397.994, 814.818 398.522, 814.399 399.250 C 814.003 399.938, 814.065 400.149, 814.535 399.721 C 815.245 399.075, 816.190 395.965, 815.662 396.015 C 815.573 396.024, 814.825 396.467, 814 397 M 284 405.906 C 284 414.254, 285.123 417.934, 286.862 415.283 C 287.213 414.748, 289.167 414.255, 291.205 414.187 C 296.558 414.010, 302 411.502, 302 409.212 C 302 407.763, 301.338 407.361, 299.167 407.490 C 297.438 407.593, 296.333 407.158, 296.333 406.373 C 296.333 405.666, 296.652 405.285, 297.042 405.526 C 298.538 406.450, 297.665 400.971, 296.125 399.769 C 294.674 398.636, 294.650 398.690, 295.893 400.274 C 296.658 401.250, 297.056 402.277, 296.776 402.557 C 295.723 403.610, 288 401.718, 288 400.407 C 288 399.672, 287.100 398.589, 286 398 C 284.069 396.967, 284 397.240, 284 405.906 M 796.232 403 C 796.232 404.925, 796.438 405.712, 796.689 404.750 C 796.941 403.788, 796.941 402.212, 796.689 401.250 C 796.438 400.288, 796.232 401.075, 796.232 403 M 890 414.933 C 890 428.300, 890.183 429.917, 891.750 430.358 C 892.712 430.630, 899.575 430.998, 907 431.176 L 920.500 431.500 920.775 415.750 L 921.051 400 905.525 400 L 890 400 890 414.933 M 299.507 405.989 C 299.157 406.555, 299.558 406.723, 300.448 406.382 C 302.180 405.717, 302.497 405, 301.059 405 C 300.541 405, 299.843 405.445, 299.507 405.989 M 297.813 409.683 C 298.534 409.972, 299.397 409.936, 299.729 409.604 C 300.061 409.272, 299.471 409.036, 298.417 409.079 C 297.252 409.127, 297.015 409.364, 297.813 409.683 M 764.429 411 C 764.429 412.100, 764.782 413, 765.214 413 C 765.646 413, 766 412.100, 766 411 C 766 409.900, 765.646 409, 765.214 409 C 764.782 409, 764.429 409.900, 764.429 411 M 700.500 411.739 C 702.015 413.258, 706.252 413.913, 708.500 412.975 C 710.449 412.162, 710.446 412.139, 708.375 412.070 C 707.206 412.032, 704.731 411.715, 702.875 411.368 C 700.619 410.945, 699.832 411.068, 700.500 411.739 M 777.813 417.683 C 778.534 417.972, 779.397 417.936, 779.729 417.604 C 780.061 417.272, 779.471 417.036, 778.417 417.079 C 777.252 417.127, 777.015 417.364, 777.813 417.683 M 799 418 C 799.825 418.533, 801.175 418.945, 802 418.914 C 802.989 418.878, 802.819 418.567, 801.500 418 C 798.751 416.819, 797.172 416.819, 799 418 M 883.993 441.250 C 883.989 446.337, 883.699 453.538, 883.348 457.250 L 882.711 464 886.002 464 L 889.293 464 888.647 456.349 C 888.291 452.141, 888 444.941, 888 440.349 C 888 432.667, 887.840 432, 886 432 C 884.145 432, 883.999 432.669, 883.993 441.250 M 260.407 446.020 C 254.823 447.142, 248.452 450.271, 242.629 454.752 L 237.757 458.500 237.923 474.918 C 238.014 483.947, 238.295 491.668, 238.547 492.076 C 238.799 492.483, 240.782 491.957, 242.955 490.908 C 255.171 485.006, 274.475 484.591, 284.968 490.004 C 286.911 491.006, 293.675 496.204, 300 501.555 C 306.704 507.226, 314.132 512.527, 317.810 514.264 C 323.586 516.992, 324.816 517.208, 332.351 516.812 C 343.004 516.253, 347.143 514.182, 357.965 503.992 C 372.402 490.398, 386.304 484.937, 401.202 487.008 C 411.298 488.411, 418.558 492.272, 431.483 503.109 C 445.514 514.874, 448.930 516.478, 460 516.490 C 470.553 516.502, 474.710 514.661, 485.131 505.359 C 495.497 496.107, 503.103 491.370, 512.223 488.489 C 529.391 483.066, 542.071 486.742, 560.500 502.485 C 573.595 513.671, 580.980 517.412, 589.968 517.412 C 598.526 517.412, 605.280 514.165, 616.460 504.676 C 631.625 491.805, 642.706 486.684, 655.500 486.632 C 666.092 486.589, 671.843 488.927, 686.009 499.033 C 692.879 503.934, 701.641 509.869, 705.479 512.222 C 712.069 516.261, 712.877 516.500, 719.979 516.500 C 728.797 516.500, 732.479 514.906, 742.844 506.601 C 753.532 498.039, 764.007 490.898, 769.962 488.113 C 774.823 485.842, 776.785 485.526, 786 485.535 C 798.066 485.546, 804.157 487.198, 811.985 492.583 C 814.717 494.463, 817.075 496, 817.226 495.999 C 817.377 495.999, 817.500 488.011, 817.500 478.249 L 817.500 460.500 813.358 456.248 C 811.081 453.910, 806.131 450.535, 802.358 448.748 C 796.400 445.926, 794.450 445.500, 787.500 445.500 C 777.805 445.500, 773.351 447.402, 763.916 455.573 C 760.389 458.627, 753.580 463.737, 748.784 466.929 C 743.989 470.120, 740.388 473.089, 740.782 473.526 C 741.177 473.963, 740.993 474.031, 740.374 473.678 C 739.754 473.324, 735.929 474.184, 731.874 475.589 C 725.713 477.722, 723.431 478.040, 718 477.522 C 714.425 477.182, 710.600 476.695, 709.500 476.441 C 708.400 476.188, 706.825 476.435, 706 476.990 C 704.725 477.848, 704.711 478.136, 705.903 478.904 C 706.923 479.561, 706.606 479.766, 704.739 479.654 C 702.640 479.528, 702.384 479.238, 703.336 478.063 C 704.286 476.890, 704.168 476.750, 702.698 477.301 C 701.707 477.673, 701.147 477.571, 701.454 477.074 C 701.761 476.577, 701.447 475.938, 700.756 475.653 C 700.065 475.368, 701.075 475.368, 703 475.652 C 706.337 476.145, 706.267 476.054, 701.500 473.700 C 698.750 472.342, 691.641 467.241, 685.702 462.365 C 666.378 446.500, 660.839 444.290, 648.500 447.518 C 641.828 449.264, 640.062 450.358, 625 462.082 C 607.529 475.680, 596.855 479.278, 582.263 476.486 C 571.333 474.395, 562.383 469.008, 548.955 456.440 C 540.672 448.687, 536.041 446.609, 527 446.588 C 515.717 446.562, 509.284 449.880, 493.533 463.852 C 481.947 474.129, 467.223 479.009, 453.983 476.961 C 444.061 475.426, 434.812 470.351, 423.173 460.056 C 417.567 455.098, 411.747 450.412, 410.240 449.642 C 405.003 446.968, 397.530 445.970, 391.329 447.116 C 382.506 448.747, 378.709 451.045, 364.723 463.218 C 355.786 470.997, 351.920 473.182, 342.940 475.532 C 329.248 479.114, 313.477 476.200, 303.164 468.184 C 297.735 463.964, 296.928 463.603, 297.606 465.698 C 298.076 467.152, 297.990 467.219, 297.160 466.048 C 296.595 465.249, 296.306 464.315, 296.518 463.971 C 296.730 463.628, 294.113 460.590, 290.702 457.220 C 281.338 447.970, 270.551 443.982, 260.407 446.020 M 750.564 467.707 C 750.022 469.132, 750.136 469.247, 751.124 468.267 C 751.808 467.588, 752.115 466.781, 751.807 466.474 C 751.499 466.166, 750.940 466.721, 750.564 467.707 M 286.232 471 C 286.232 472.925, 286.438 473.712, 286.689 472.750 C 286.941 471.788, 286.941 470.212, 286.689 469.250 C 286.438 468.288, 286.232 469.075, 286.232 471 M 747 469.892 C 747 470.566, 746.658 470.906, 746.239 470.648 C 745.820 470.389, 744.609 470.812, 743.548 471.589 C 742.486 472.365, 742.127 473, 742.750 473 C 743.373 473, 744.165 472.543, 744.510 471.984 C 744.856 471.425, 745.526 471.207, 746 471.500 C 747.028 472.135, 748.464 470.131, 747.600 469.267 C 747.270 468.937, 747 469.218, 747 469.892 M 735.321 476.337 C 735.419 476.839, 734.875 477.477, 734.111 477.755 C 733.260 478.064, 732.992 477.822, 733.420 477.130 C 733.804 476.508, 733.882 476, 733.594 476 C 733.306 476, 732.624 476.834, 732.079 477.853 C 731.217 479.463, 731.410 479.644, 733.543 479.236 C 734.895 478.978, 736 478.383, 736 477.915 C 736 477.446, 736.788 477.316, 737.750 477.626 C 739.122 478.067, 739.199 477.974, 738.105 477.196 C 736.964 476.383, 737.055 476.113, 738.605 475.713 C 739.810 475.402, 739.524 475.260, 737.821 475.324 C 736.347 475.379, 735.222 475.835, 735.321 476.337 M 883.822 512.250 C 883.645 520.638, 883.501 527.576, 883.502 527.669 C 883.503 527.762, 884.723 528.143, 886.212 528.517 L 888.919 529.197 888.710 513.105 C 888.504 497.308, 888.460 497.013, 886.322 497.007 C 884.194 497, 884.137 497.347, 883.822 512.250 M 261.500 509.664 C 255.388 511.050, 249.825 513.488, 244.390 517.163 L 238.279 521.295 238.569 538.397 C 238.728 547.804, 238.890 556.719, 238.929 558.208 L 239 560.916 245.336 558.074 C 248.820 556.510, 253.099 554.917, 254.844 554.534 C 256.590 554.151, 257.797 553.480, 257.527 553.044 C 256.743 551.775, 264.150 550.997, 268.200 551.922 C 270.235 552.387, 272.147 552.519, 272.450 552.217 C 272.752 551.914, 273 552.192, 273 552.833 C 273 553.475, 273.911 554, 275.025 554 C 278.880 554, 291.543 561.284, 301.500 569.230 C 317.003 581.600, 325.518 584.988, 336.074 582.986 C 343.654 581.548, 347.142 579.533, 356.236 571.337 C 362.368 565.810, 367.209 562.552, 375 558.708 C 385.436 553.559, 385.558 553.527, 395 553.547 C 403.868 553.564, 404.999 553.808, 412 557.206 C 416.125 559.209, 425.018 564.956, 431.763 569.978 C 447.108 581.404, 450.414 582.950, 459.572 582.978 C 469.904 583.010, 474.358 581.087, 484.076 572.399 C 496.631 561.174, 514.694 553, 526.944 553 C 536.576 553, 552.636 561.145, 564.755 572.177 C 575.374 581.843, 584.698 585.133, 595.728 583.104 C 603.397 581.693, 607.285 579.483, 617.410 570.779 C 626.564 562.909, 640.782 555.386, 648.936 554.099 C 662.654 551.932, 677.539 557.613, 694.998 571.680 C 705.456 580.105, 710.596 582.810, 717.751 583.655 C 726.425 584.679, 734.439 580.942, 749.088 569.046 C 752.615 566.181, 757.188 562.862, 759.251 561.669 C 761.314 560.476, 763.268 558.679, 763.592 557.675 C 763.917 556.671, 764.406 556.073, 764.680 556.347 C 764.953 556.620, 768.072 555.754, 771.611 554.422 C 783.831 549.822, 800.170 551.915, 811 559.466 C 813.475 561.192, 815.950 562.875, 816.500 563.206 C 817.153 563.600, 817.500 557.006, 817.500 544.195 L 817.500 524.580 813.168 520.540 C 808.006 515.726, 799.200 510.825, 796.749 511.401 C 795.785 511.628, 795.235 511.428, 795.526 510.957 C 796.336 509.647, 789.409 508.673, 783.909 509.324 C 776.058 510.254, 770.927 513.177, 760.901 522.430 C 755.730 527.202, 748.789 532.640, 745.476 534.513 C 737.514 539.015, 726.170 543.325, 722.792 543.130 C 720.994 543.027, 719.722 543.651, 719.007 544.987 C 718.414 546.094, 717.259 547, 716.440 547 C 715.619 547, 714.694 548.235, 714.380 549.750 C 713.714 552.968, 707.152 558, 703.623 558 C 701.584 558, 701.187 557.384, 700.636 553.360 C 699.432 544.574, 699.813 540.001, 701.750 539.986 C 702.712 539.978, 701.656 539.028, 699.403 537.874 C 697.149 536.720, 689.730 531.029, 682.915 525.227 C 668.866 513.265, 664.013 510.651, 656 510.729 C 646.171 510.824, 639.492 514.499, 624.549 528.032 C 616.612 535.221, 613.129 537.303, 603.824 540.425 C 594.505 543.551, 587.037 543.727, 577.652 541.044 C 568.834 538.522, 562.684 534.510, 551.440 523.943 C 540.249 513.427, 536.887 511.692, 526.692 511.177 C 519.582 510.818, 518.330 511.056, 512.692 513.834 C 509.202 515.554, 502.573 520.430, 497.500 525.009 C 482.461 538.584, 466.658 544.691, 452.766 542.297 C 447.797 541.441, 447.387 541.519, 447.249 543.346 C 447.167 544.432, 446.740 545.586, 446.300 545.910 C 445.860 546.235, 445.462 547.288, 445.417 548.250 C 445.088 555.160, 444.576 555.636, 444.073 549.500 C 443.758 545.650, 443.836 542.005, 444.247 541.401 C 444.712 540.717, 443.388 539.582, 440.747 538.401 C 436.055 536.301, 428.787 530.708, 419.217 521.834 C 409.818 513.117, 406.229 511.524, 396 511.526 C 385.358 511.529, 381.312 513.502, 368.500 524.940 C 359.376 533.086, 350.152 538.725, 342.024 541.129 C 335.801 542.969, 329.801 549.068, 330.031 553.321 C 330.342 559.083, 330.444 559, 323.093 559 L 316.187 559 315.490 549.703 L 314.793 540.405 309.149 537.453 C 305.966 535.787, 298.975 530.198, 293.113 524.631 C 286.421 518.276, 280.900 513.949, 277.610 512.481 C 272.364 510.141, 265.044 508.861, 261.500 509.664 M 917.813 523.683 C 918.534 523.972, 919.397 523.936, 919.729 523.604 C 920.061 523.272, 919.471 523.036, 918.417 523.079 C 917.252 523.127, 917.015 523.364, 917.813 523.683 M 448.750 543.662 C 449.438 543.940, 450.563 543.940, 451.250 543.662 C 451.938 543.385, 451.375 543.158, 450 543.158 C 448.625 543.158, 448.063 543.385, 448.750 543.662 M 251.015 546.750 C 251.025 547.861, 251.299 548.086, 251.765 547.366 C 252.169 546.742, 253.400 546.007, 254.500 545.732 C 256.033 545.349, 255.858 545.205, 253.750 545.116 C 251.748 545.032, 251.004 545.476, 251.015 546.750 M 259.250 545.689 C 260.212 545.941, 261.788 545.941, 262.750 545.689 C 263.712 545.438, 262.925 545.232, 261 545.232 C 259.075 545.232, 258.288 545.438, 259.250 545.689 M 262.500 548 C 262.840 548.550, 264.104 548.993, 265.309 548.985 C 267.090 548.972, 267.219 548.788, 266 548 C 264.030 546.727, 261.713 546.727, 262.500 548 M 884 577 L 884 593 886.645 593 L 889.289 593 888.652 586.250 C 888.301 582.538, 888.011 575.337, 888.007 570.250 C 888.001 561.669, 887.855 561, 886 561 C 884.083 561, 884 561.667, 884 577 M 920.232 573 C 920.232 574.925, 920.438 575.712, 920.689 574.750 C 920.941 573.788, 920.941 572.212, 920.689 571.250 C 920.438 570.288, 920.232 571.075, 920.232 573 M 256 578.668 C 253.525 579.534, 248.465 582.325, 244.755 584.871 L 238.010 589.500 238.005 608.867 C 238 626.867, 238.123 628.192, 239.750 627.652 C 240.713 627.333, 244.824 625.899, 248.886 624.466 C 262.088 619.809, 275.082 620.142, 286.244 625.422 C 289.146 626.795, 296.241 631.834, 302.010 636.619 C 307.780 641.404, 315.346 646.655, 318.824 648.289 C 324.402 650.907, 325.939 651.202, 331.840 650.779 C 340.931 650.129, 345.659 647.793, 358.240 637.738 C 369.783 628.513, 375.963 625.097, 385.644 622.591 C 393.335 620.600, 397.989 620.586, 405.455 622.530 C 415.444 625.132, 421.539 628.776, 438.448 642.255 C 454.064 654.704, 467.621 653.582, 486.670 638.265 C 501.623 626.242, 513.727 620.828, 525.518 620.890 C 536.874 620.949, 545.247 624.733, 560 636.473 C 573.433 647.162, 580.371 650.444, 589.529 650.444 C 595.700 650.444, 597.646 649.971, 603.318 647.092 C 606.951 645.248, 612.576 641.602, 615.819 638.989 C 627.945 629.217, 640.832 622.754, 650.835 621.427 C 656.888 620.625, 669.410 623.166, 676 626.536 C 678.475 627.801, 685.378 632.864, 691.341 637.786 C 705.755 649.686, 709.418 651.502, 719 651.494 C 728.270 651.488, 732.218 649.708, 743.883 640.277 C 757.580 629.203, 764.010 625.161, 772.338 622.387 C 779.015 620.164, 781.472 619.830, 788.362 620.212 C 795.258 620.594, 797.568 621.217, 803.500 624.291 C 807.350 626.286, 811.962 628.881, 813.750 630.057 L 817 632.196 817.011 615.348 C 817.017 606.082, 817.281 596.925, 817.598 595 C 818.154 591.624, 817.936 591.326, 811.477 586.589 C 801.597 579.345, 794.227 576.643, 785.957 577.235 C 776.794 577.891, 770.094 581.254, 760.334 590.099 C 751.124 598.446, 744.102 602.998, 735.432 606.245 C 730.699 608.017, 727.373 608.469, 718.978 608.483 C 709.140 608.499, 708.032 608.292, 701.945 605.294 C 698.365 603.531, 691.032 598.356, 685.649 593.794 C 672.635 582.763, 669.209 580.589, 662.467 579.080 C 651.003 576.515, 643.969 579.142, 628.247 591.860 C 622.058 596.866, 615.241 601.857, 613.099 602.949 C 607.123 605.998, 595.162 609, 588.988 609 C 576.550 609, 568.261 604.947, 551.744 590.789 C 539.212 580.048, 533.815 577.643, 523.500 578.203 C 514.921 578.669, 511.089 580.451, 502.291 588.068 C 483.901 603.987, 474.745 608.330, 459.500 608.367 C 445.175 608.402, 436.198 604.176, 420.500 590.009 C 409.275 579.878, 406.440 578.549, 396 578.522 C 385.375 578.495, 381.416 580.333, 369.111 591.011 C 358.842 599.921, 353.997 602.887, 344.500 606.076 C 334.069 609.578, 323.781 609.307, 314.282 605.281 C 305.924 601.738, 297.311 595.810, 287.736 587.012 C 277.344 577.464, 267.130 574.778, 256 578.668 M 921.015 604.191 C 921.026 612.508, 921.345 616.013, 922 615 C 922.533 614.175, 922.976 612.461, 922.985 611.191 C 922.993 609.921, 923.446 609.158, 923.992 609.495 C 924.538 609.832, 925.775 609.648, 926.742 609.085 C 927.709 608.521, 928.050 608.048, 927.500 608.032 C 926.950 608.016, 926.500 606.090, 926.500 603.751 C 926.500 601.413, 926.950 599.169, 927.500 598.765 C 928.119 598.310, 928.024 598.025, 927.250 598.015 C 926.563 598.007, 926 597.277, 926 596.393 C 926 595.417, 926.557 595, 927.417 595.330 C 928.197 595.629, 929.065 595.272, 929.347 594.537 C 929.713 593.584, 928.893 593.200, 926.497 593.200 C 924.646 593.200, 922.653 592.903, 922.066 592.541 C 921.333 592.088, 921.005 595.726, 921.015 604.191 M 923.211 600.399 C 923.920 601.169, 924.658 601.649, 924.850 601.466 C 925.443 600.902, 923.940 599, 922.902 599 C 922.362 599, 922.501 599.630, 923.211 600.399 M 883.813 638.500 C 883.709 645.375, 883.597 652.237, 883.563 653.750 C 883.511 656.017, 883.977 656.555, 886.217 656.813 L 888.933 657.126 888.717 641.570 C 888.502 626.171, 888.477 626.014, 886.250 626.007 C 884.046 626, 883.996 626.257, 883.813 638.500 M 920.360 641 C 920.360 646.225, 920.529 648.362, 920.735 645.750 C 920.941 643.138, 920.941 638.862, 920.735 636.250 C 920.529 633.638, 920.360 635.775, 920.360 641 M 778 644.294 C 772.355 646.436, 767.083 650.202, 757.500 658.934 C 747.662 667.899, 743.036 670.682, 732.645 673.886 C 723.053 676.844, 715.024 676.649, 704.798 673.209 C 695.506 670.084, 690.920 667.275, 683.545 660.191 C 671.816 648.925, 663.081 644, 654.829 644 C 647.972 644, 639.294 648.997, 624.500 661.466 C 615.061 669.422, 600.536 675, 589.258 675 C 578.148 675, 564.102 668.306, 551.500 657.004 C 540.891 647.490, 534.694 644.520, 525.500 644.545 C 516.692 644.568, 511.990 646.890, 499.500 657.382 C 480.284 673.524, 463.476 678.519, 446.944 673.001 C 438.040 670.028, 433.429 667.160, 421.664 657.275 C 416.074 652.578, 409.250 647.674, 406.500 646.377 C 395.795 641.329, 385.574 644.366, 371.024 656.919 C 361.018 665.552, 356.578 668.242, 346.916 671.529 C 336.746 674.988, 330.911 675.472, 322 673.595 C 310.985 671.274, 303.472 667.125, 292.851 657.497 C 280.853 646.622, 276.821 644.604, 266.964 644.545 C 258.326 644.493, 252.524 646.903, 243.434 654.314 L 238.302 658.500 238.093 718 L 237.884 777.500 527.403 777.500 L 816.923 777.500 817.259 721 C 817.443 689.925, 817.894 663.600, 818.261 662.500 C 818.811 660.852, 817.570 659.515, 811.214 654.906 C 798.535 645.710, 794.668 643.811, 787.710 643.364 C 783.996 643.126, 780.093 643.499, 778 644.294 M 920.332 658.423 C 920.699 659.380, 921.053 666.989, 921.117 675.332 L 921.234 690.500 923.182 682 C 924.254 677.325, 925.820 672.231, 926.663 670.679 C 927.507 669.128, 927.977 667.020, 927.709 665.994 C 927.441 664.969, 927.872 663.200, 928.667 662.065 C 929.463 660.929, 929.750 659.993, 929.307 659.985 C 928.863 659.976, 929.175 659.533, 930 659 C 931.178 658.239, 930.937 658.027, 928.875 658.015 C 927.431 658.007, 924.768 657.704, 922.957 657.341 C 920.105 656.771, 919.754 656.916, 920.332 658.423 M 883.481 707.250 L 883.896 723.500 887.088 723.824 C 890.189 724.138, 890.261 724.057, 889.640 720.949 C 889.288 719.189, 889 711.731, 889 704.375 L 889 691 886.034 691 L 883.067 691 883.481 707.250 M 921 740.441 C 921 748.998, 921.337 756, 921.750 756.001 C 922.163 756.001, 922.426 753.638, 922.335 750.751 C 922.180 745.782, 922.209 745.715, 922.888 749.500 C 923.531 753.089, 923.699 752.574, 924.529 744.500 C 925.439 735.646, 925.465 735.581, 926.126 740.500 L 926.799 745.500 926.464 740.500 C 926.085 734.843, 924.316 725.577, 924.125 728.250 C 924.056 729.212, 923.498 730, 922.883 730 C 922.259 730, 921.997 729.118, 922.289 728.001 C 922.577 726.902, 922.404 725.750, 921.906 725.442 C 921.379 725.116, 921 731.398, 921 740.441 M 883.417 775.277 L 883.383 791.554 886.575 791.181 L 889.767 790.808 889.352 782.154 C 888.335 760.949, 888.023 759, 885.640 759 C 883.479 759, 883.451 759.209, 883.417 775.277 M 920.079 771.583 C 920.127 772.748, 920.364 772.985, 920.683 772.188 C 920.972 771.466, 920.936 770.603, 920.604 770.271 C 920.272 769.939, 920.036 770.529, 920.079 771.583 M 881.222 824.178 C 880.550 824.850, 880 825.911, 880 826.536 C 880 827.161, 878.399 829.726, 876.443 832.237 C 873.092 836.539, 865.572 841, 861.672 841 C 859.682 841, 859 843.190, 859 849.582 L 859 855 874.500 855 L 890 855 890 839.500 L 890 824 887.582 824 C 886.252 824, 884.552 823.765, 883.804 823.478 C 883.056 823.191, 881.894 823.506, 881.222 824.178 M 920.232 839 C 920.232 840.925, 920.438 841.712, 920.689 840.750 C 920.941 839.788, 920.941 838.212, 920.689 837.250 C 920.438 836.288, 920.232 837.075, 920.232 839 M 218.607 842.582 C 218.273 843.452, 218 846.377, 218 849.082 L 218 854 234 854 L 250 854 250 847.500 L 250 841 234.607 841 C 221.493 841, 219.124 841.234, 218.607 842.582 M 320.750 841.732 C 323.087 841.943, 326.913 841.943, 329.250 841.732 C 331.587 841.522, 329.675 841.349, 325 841.349 C 320.325 841.349, 318.413 841.522, 320.750 841.732 M 339.011 841.972 C 337.959 842.637, 338.745 842.864, 341.691 842.747 C 343.983 842.655, 345.639 842.225, 345.370 841.790 C 344.703 840.710, 340.832 840.821, 339.011 841.972 M 441 844.141 L 441 847.616 429.250 847.857 C 412.162 848.208, 412.050 848.237, 412.015 852.250 C 412.001 853.842, 413.394 854, 427.405 854 L 442.810 854 442.270 847.750 C 441.664 840.746, 441 838.859, 441 844.141 M 475.424 841.917 C 474.778 842.552, 474.919 850.625, 475.607 852.418 C 476.123 853.763, 478.449 854, 491.107 854 L 506 854 506 847.392 L 506 840.783 490.924 841.142 C 482.632 841.339, 475.657 841.688, 475.424 841.917 M 554.500 841.705 C 560.584 842.615, 559.414 844, 552.450 844.132 C 546.768 844.239, 546.139 844.398, 549 845 L 552.500 845.737 549 845.939 C 546.183 846.101, 545.890 846.293, 547.498 846.920 C 549.212 847.589, 549.042 847.767, 546.301 848.169 C 544.543 848.427, 543.333 848.270, 543.612 847.819 C 543.890 847.369, 543.191 847, 542.059 847 C 540.438 847, 540 847.638, 540 850 L 540 853 555 853 C 569.333 853, 570 852.911, 570 851 C 570 849.900, 569.561 849, 569.025 849 C 568.447 849, 568.370 848.083, 568.835 846.750 C 570.565 841.800, 570.112 841.508, 560.500 841.378 C 555.550 841.312, 552.850 841.459, 554.500 841.705 M 700.030 847.250 L 700 854 714.833 854 C 722.992 854, 729.854 853.814, 730.083 853.587 C 730.313 853.359, 730.348 850.434, 730.161 847.087 L 729.822 841 718.161 841.045 C 707.464 841.086, 706.748 841.204, 709.500 842.464 L 712.500 843.838 707.300 843.919 C 703.344 843.981, 701.855 843.581, 701.080 842.250 C 700.314 840.935, 700.053 842.176, 700.030 847.250 M 796 844.375 C 796 846.231, 795.727 849.115, 795.393 850.783 C 794.902 853.242, 795.206 854.040, 797.001 855 C 798.602 855.857, 799.517 855.883, 800.307 855.093 C 800.977 854.423, 806.092 854, 813.533 854 C 820.207 854, 825.854 853.814, 826.083 853.587 C 826.313 853.359, 826.348 850.435, 826.161 847.089 L 825.823 841.006 813.375 841.253 C 803.593 841.447, 800.723 841.821, 799.979 843 C 799.171 844.279, 799.028 844.242, 799.015 842.750 C 799.007 841.788, 798.325 841, 797.500 841 C 796.463 841, 796 842.042, 796 844.375 M 316.986 846.191 C 316.979 848.011, 316.701 850.513, 316.370 851.750 L 315.767 854 330.883 854 L 346 854 345.985 850.250 C 345.974 847.656, 345.694 846.935, 345.075 847.912 C 344.317 849.110, 343.938 849.081, 342.577 847.720 C 341.104 846.247, 341.117 846.024, 342.736 845.010 C 344.217 844.082, 344.099 844.012, 342 844.573 C 340.625 844.941, 338.974 845.525, 338.330 845.871 C 336.573 846.816, 317.885 845.995, 318.500 845 C 318.793 844.526, 318.575 843.856, 318.016 843.510 C 317.407 843.133, 316.995 844.207, 316.986 846.191 M 284 847.428 C 284 848.753, 283.727 850.548, 283.393 851.418 C 282.896 852.713, 283.584 853, 287.180 853 C 290.931 853, 291.598 852.692, 291.733 850.894 C 291.862 849.178, 291.444 848.873, 289.476 849.249 C 288.148 849.503, 287.249 849.406, 287.479 849.034 C 287.709 848.661, 287.021 847.606, 285.949 846.688 C 284.095 845.101, 284 845.137, 284 847.428 M 380 850.570 L 380 854.141 394.250 853.441 C 402.087 853.057, 408.837 852.549, 409.250 852.312 C 410.392 851.657, 410.144 849, 408.941 849 C 408.359 849, 408.092 849.337, 408.348 849.750 C 408.605 850.163, 404.132 850.359, 398.407 850.186 C 392.683 850.013, 388 849.450, 388 848.936 C 388 847.530, 383.243 847.810, 382.662 849.250 C 382.361 849.997, 382.126 849.795, 382.079 848.750 C 381.926 845.360, 380 847.046, 380 850.570 M 393.750 848.706 C 394.988 848.944, 397.012 848.944, 398.250 848.706 C 399.488 848.467, 398.475 848.272, 396 848.272 C 393.525 848.272, 392.512 848.467, 393.750 848.706 M 603 851.500 C 603 852.325, 603.177 853, 603.393 853 C 603.609 853, 604.045 852.325, 604.362 851.500 C 604.678 850.675, 604.501 850, 603.969 850 C 603.436 850, 603 850.675, 603 851.500 M 606 851.559 C 606 852.416, 606.457 852.835, 607.016 852.490 C 607.575 852.144, 607.774 851.443, 607.457 850.931 C 606.600 849.544, 606 849.802, 606 851.559 M 616.492 850.987 C 617.207 852.143, 633.005 852.395, 632.990 851.250 C 632.984 850.837, 629.129 850.382, 624.423 850.237 C 618.837 850.065, 616.083 850.326, 616.492 850.987 M 921.419 855.917 C 921.188 856.146, 921 861.283, 921 867.333 C 921 873.383, 921.183 878.146, 921.406 877.917 C 921.630 877.688, 922.124 875.025, 922.504 872 C 922.884 868.975, 923.478 866.050, 923.823 865.500 C 924.168 864.950, 924.378 863.600, 924.290 862.500 C 924.176 861.073, 924.271 860.977, 924.622 862.165 C 925.345 864.612, 927.904 865.348, 927.271 862.927 C 926.994 861.869, 927.495 859.894, 928.384 858.537 C 929.273 857.180, 930 855.873, 930 855.631 C 930 855.082, 921.990 855.348, 921.419 855.917 M 288 857.393 C 288 857.609, 288.698 858.054, 289.552 858.382 C 290.442 858.723, 290.843 858.555, 290.493 857.989 C 289.906 857.038, 288 856.583, 288 857.393 M 642 858 C 642 858.550, 642.675 859, 643.500 859 C 644.325 859, 645 858.550, 645 858 C 645 857.450, 644.325 857, 643.500 857 C 642.675 857, 642 857.450, 642 858 M 648 858 C 648 858.550, 649.800 859, 652 859 C 654.200 859, 656 858.550, 656 858 C 656 857.450, 654.200 857, 652 857 C 649.800 857, 648 857.450, 648 858 M 234 870 C 234 870.550, 234.450 871, 235 871 C 235.550 871, 236 870.550, 236 870 C 236 869.450, 235.550 869, 235 869 C 234.450 869, 234 869.450, 234 870 M 241.750 885.706 C 242.988 885.944, 245.012 885.944, 246.250 885.706 C 247.488 885.467, 246.475 885.272, 244 885.272 C 241.525 885.272, 240.512 885.467, 241.750 885.706 M 289.500 887 C 291.150 887.420, 294.525 887.763, 297 887.763 C 301.023 887.763, 301.182 887.683, 298.500 887 C 296.850 886.580, 293.475 886.237, 291 886.237 C 286.977 886.237, 286.818 886.317, 289.500 887 M 669.728 886.722 C 671.503 886.943, 674.653 886.946, 676.728 886.730 C 678.802 886.513, 677.350 886.333, 673.500 886.328 C 669.650 886.324, 667.952 886.501, 669.728 886.722 M 360.250 887.728 C 362.313 887.944, 365.688 887.944, 367.750 887.728 C 369.813 887.513, 368.125 887.336, 364 887.336 C 359.875 887.336, 358.188 887.513, 360.250 887.728" stroke="none" fill="#000000" fill-rule="evenodd"/>
</svg>