<svg xmlns="http://www.w3.org/2000/svg" width="1024" height="1024" viewBox="0 0 1024 1024" version="1.1">
	<path d="M 276.389 198.768 C 255.226 199.014, 253.134 199.195, 251.574 200.918 C 249.978 202.681, 249.876 218.629, 249.964 452.650 C 250.054 691.310, 250.138 702.580, 251.848 704.291 C 253.559 706.003, 265.060 706.081, 513.569 706.057 L 773.500 706.031 775.756 703.453 L 778.012 700.875 777.756 450.987 C 777.548 247.546, 777.258 200.858, 776.200 199.800 C 775.141 198.741, 730.899 198.500, 537.200 198.500 C 406.465 198.500, 289.100 198.621, 276.389 198.768 M 318.500 269.016 C 309.015 270.954, 303.273 274.888, 299.835 281.804 L 297.500 286.500 297.444 439.387 C 297.394 575.823, 297.555 592.606, 298.944 595.366 C 300.866 599.186, 309.702 605.988, 312.750 605.995 C 314.212 605.998, 315.011 606.613, 315.033 607.750 C 315.050 608.712, 315.679 614.393, 316.429 620.373 C 317.903 632.122, 319.134 634.764, 324.990 638.750 C 328.173 640.916, 329.119 641, 350.398 640.994 C 362.554 640.991, 374.101 640.544, 376.057 640.001 C 384.012 637.791, 386.981 630.801, 386.994 614.250 L 387 607 513.402 607 L 639.804 607 640.464 613.250 C 642.211 629.792, 643.605 633.404, 649.892 637.684 C 654.252 640.652, 660.722 641.286, 682.211 640.850 C 698.370 640.522, 700.966 640.236, 704.500 638.392 C 710.843 635.083, 712.040 632.039, 712.389 618.333 L 712.691 606.500 715.488 606.170 C 719.350 605.714, 725.600 601.383, 728.001 597.498 C 729.977 594.302, 730 592.494, 730 442.498 C 730 326.263, 729.715 289.768, 728.784 286.616 C 727.344 281.744, 719.424 273.374, 713.500 270.464 C 709.569 268.534, 706.149 268.497, 516 268.350 C 409.575 268.267, 320.700 268.567, 318.500 269.016 M 385.285 287 C 323.441 287.467, 318.952 287.618, 317.285 289.285 C 315.602 290.969, 315.482 296.324, 315.187 382.785 C 315.014 433.228, 315.173 482.216, 315.540 491.647 L 316.206 508.794 457.569 508.837 L 598.932 508.879 599.467 505.690 C 599.996 502.534, 600.735 446.998, 600.247 446.999 C 600.108 447, 598.410 448.754, 596.474 450.897 C 592.627 455.155, 587.550 458, 583.798 458 C 581.573 458, 581.319 458.550, 580.313 465.532 C 579.540 470.900, 578.433 474.211, 576.457 477.061 C 573.273 481.657, 565.447 487.725, 561.094 488.973 C 559.458 489.442, 512.755 489.945, 457.310 490.090 C 356.740 490.354, 356.490 490.350, 352.500 488.265 C 345.559 484.638, 340.460 479.403, 336.462 471.801 L 332.623 464.500 331.756 445.500 C 331.280 435.050, 331.056 405.125, 331.260 379 C 331.588 337.013, 331.836 330.876, 333.391 326.127 C 335.741 318.951, 342.431 311.898, 350.789 307.783 L 357.287 304.584 454.394 304.863 C 513.477 305.033, 553.262 305.529, 556 306.130 C 568.099 308.784, 576.776 319.199, 578.504 333.142 C 579.310 339.641, 578.622 342.683, 576.203 343.320 C 575.266 343.566, 576.975 343.823, 580 343.890 C 587.665 344.059, 592.471 345.596, 596.561 349.188 C 598.489 350.881, 600.165 352.094, 600.284 351.883 C 600.403 351.672, 600.376 336.842, 600.224 318.927 L 599.947 286.354 525.724 286.427 C 484.901 286.467, 421.703 286.725, 385.285 287 M 617.022 395.335 C 617.026 455.247, 617.268 505.219, 617.560 506.383 C 618.091 508.495, 618.204 508.501, 665.046 508.856 L 712 509.213 712.148 490.856 C 712.489 448.692, 711.912 291.362, 711.411 289.752 C 711.112 288.791, 709.884 287.798, 708.683 287.546 C 707.483 287.294, 686.366 286.934, 661.758 286.746 L 617.016 286.403 617.022 395.335 M 644.500 306.021 C 641.402 307.230, 638 310.874, 638 312.983 C 638 315.924, 642.257 320.250, 645.150 320.250 C 650.945 320.250, 655.415 314.513, 653.055 310.103 C 651.514 307.224, 646.972 305.056, 644.500 306.021 M 680.646 307.452 C 677.311 310.543, 677.239 314.330, 680.455 317.545 C 683.624 320.715, 686.489 320.655, 689.548 317.354 C 692.714 313.938, 692.648 311.286, 689.313 307.805 C 686.011 304.359, 684.069 304.280, 680.646 307.452 M 387.500 321.965 L 359.500 322.500 355.691 325.414 C 353.596 327.016, 351.295 329.491, 350.578 330.914 C 348.419 335.195, 347.907 345.896, 349.108 361.619 C 349.972 372.940, 349.951 383.437, 349.018 405.500 C 348.192 425.041, 348.090 439.313, 348.704 449.255 L 349.617 464.009 353.058 467.602 C 354.951 469.577, 357.571 471.611, 358.881 472.122 C 360.273 472.665, 400.547 473.121, 455.946 473.221 L 550.631 473.391 554.103 471.245 C 561.381 466.748, 564.573 455.924, 561.620 445.763 C 560.245 441.035, 560 434.058, 560 399.661 C 560 374.322, 560.385 358.117, 561.028 356.426 C 562.466 352.644, 566.668 347.826, 570.370 345.716 C 572.525 344.487, 572.799 344.119, 571.250 344.533 C 567.158 345.628, 565.216 344.176, 563.455 338.703 C 561.250 331.850, 557.559 326.512, 553.111 323.746 L 549.500 321.500 482.500 321.465 C 445.650 321.445, 402.900 321.670, 387.500 321.965 M 527.411 335.867 C 520.609 340.068, 517.967 347.744, 521.285 353.669 C 522.398 355.656, 522.758 355.729, 525.578 354.540 C 530.056 352.651, 535.521 347.529, 537.494 343.372 C 539.140 339.902, 539.131 339.652, 537.256 337.129 C 534.810 333.838, 531.403 333.401, 527.411 335.867 M 658.897 337.905 C 650.895 339.532, 640.467 348.228, 634.682 358.099 C 629.218 367.423, 630.400 382.594, 637.352 392.356 C 650.243 410.456, 672.711 413.667, 686.641 399.400 C 698.866 386.878, 701.722 370.696, 694.184 356.661 C 691.080 350.881, 682.066 342.357, 676.500 339.936 C 671.638 337.822, 663.770 336.914, 658.897 337.905 M 493 346.234 C 490.434 347.593, 488.723 350.444, 487.615 355.204 C 486.840 358.530, 489.670 361.521, 495.139 363.160 C 498.285 364.102, 499.341 363.984, 502.071 362.386 C 508.374 358.695, 511.314 351.789, 508.179 348.036 C 505.999 345.426, 496.627 344.313, 493 346.234 M 662.228 352.039 C 660.978 352.541, 659.694 353.633, 659.375 354.465 C 658.283 357.311, 678.640 383, 681.987 383 C 685.604 383, 687.379 371.566, 684.597 366.187 C 682.736 362.590, 672.799 353.254, 669.491 351.997 C 666.387 350.816, 665.256 350.823, 662.228 352.039 M 577.631 362.750 C 576.499 364.941, 576.140 372.969, 575.865 402.214 C 575.529 437.908, 575.574 438.970, 577.510 440.432 C 580.044 442.347, 587.028 442.432, 589.559 440.579 C 591.420 439.216, 591.500 437.627, 591.500 401.992 L 591.500 364.826 588.694 362.413 C 584.665 358.948, 579.514 359.105, 577.631 362.750 M 646.035 366.934 C 644.307 370.164, 644.816 378.720, 646.991 382.982 C 650.255 389.380, 659.083 395, 665.869 395 C 670.644 395, 673 394.203, 673 392.588 C 673 390.106, 650.494 365, 648.269 365 C 647.610 365, 646.605 365.870, 646.035 366.934 M 397.500 375.403 C 387.774 379.696, 386.617 391.812, 395.330 398.124 C 399.389 401.065, 400.233 401.118, 406.241 398.815 C 409.877 397.422, 413.349 391.658, 413.185 387.289 C 413.007 382.573, 409.395 377.063, 405.380 375.385 C 401.405 373.725, 401.301 373.725, 397.500 375.403 M 421.592 379.250 C 421.288 382.137, 420.908 388.007, 420.748 392.294 L 420.457 400.089 422.978 399.794 C 425.340 399.519, 425.519 399.099, 425.800 393.169 C 426.056 387.770, 426.313 387.015, 427.550 388.041 C 428.347 388.703, 429 389.795, 429 390.467 C 429 391.648, 432.101 395, 433.193 395 C 433.487 395, 434.975 393.200, 436.500 391 C 438.025 388.800, 439.644 387, 440.098 387 C 440.553 387, 440.652 389.925, 440.318 393.500 L 439.711 400 442.761 400 L 445.811 400 445.362 391.750 C 444.324 372.650, 443.122 370.778, 437.521 379.535 C 435.598 382.541, 433.623 385, 433.133 385 C 432.642 385, 430.372 382.525, 428.088 379.500 C 425.804 376.475, 423.532 374, 423.040 374 C 422.547 374, 421.895 376.363, 421.592 379.250 M 454.360 375.503 C 454.124 376.119, 454.059 381.770, 454.215 388.061 C 454.489 399.063, 454.586 399.512, 456.750 399.820 C 458.758 400.105, 459 399.714, 459 396.181 C 459 392.430, 459.188 392.187, 462.589 391.549 C 468.775 390.389, 470.921 388.936, 471.572 385.469 C 472.347 381.337, 469.802 376.255, 466.288 374.919 C 462.942 373.647, 454.922 374.040, 454.360 375.503 M 482.973 375.533 C 481.659 377.116, 475.913 389.647, 473.474 396.250 L 472.089 400 475.525 400 C 478.357 400, 479.072 399.560, 479.589 397.500 C 480.151 395.261, 480.726 395, 485.089 395 C 489.453 395, 490.027 395.261, 490.589 397.500 C 491.040 399.295, 491.891 400, 493.608 400 C 495.075 400, 496 399.416, 496 398.490 C 496 395.715, 486.624 374, 485.426 374 C 484.776 374, 483.672 374.690, 482.973 375.533 M 503.631 374.702 C 503.284 375.049, 503 380.883, 503 387.667 L 503 400 505.500 400 C 507.934 400, 508.001 399.808, 508.034 392.750 L 508.069 385.500 514.784 392.775 C 518.478 396.777, 522.010 400.039, 522.633 400.025 C 524.337 399.987, 524.797 395.894, 524.244 385.697 C 523.737 376.354, 522.936 374, 520.265 374 C 519.050 374, 518.847 375.279, 519.165 380.908 L 519.555 387.816 516.028 384.753 C 514.087 383.068, 511.394 380.375, 510.042 378.768 C 507.268 375.473, 504.571 373.762, 503.631 374.702 M 531.667 374.667 C 530.135 376.199, 531.236 379.773, 534.510 383.891 C 537.347 387.460, 538.003 389.144, 538.015 392.891 C 538.033 398.336, 539.057 400.328, 541.586 399.841 C 543.104 399.549, 543.385 398.688, 543.167 394.993 C 542.954 391.390, 543.524 389.522, 546.045 385.566 C 550.906 377.939, 551.335 376.250, 548.766 374.875 C 547.572 374.236, 546.460 374.115, 546.294 374.607 C 545.389 377.287, 541.856 381.997, 540.765 381.979 C 540.069 381.967, 538.233 380.167, 536.685 377.979 C 533.884 374.020, 532.938 373.395, 531.667 374.667 M 368.129 377.678 C 364.088 380.862, 361.980 385.442, 362.735 389.394 C 363.409 392.921, 369.735 399.466, 373.347 400.372 C 377.029 401.296, 383.262 398.593, 382.809 396.269 C 382.541 394.897, 381.456 394.493, 377.982 394.469 C 369.607 394.412, 365.712 389.554, 369.719 384.163 C 371.820 381.336, 376.506 380.106, 378.308 381.908 C 379.061 382.661, 379.904 382.492, 381.186 381.331 C 383.827 378.941, 383.419 377.342, 379.851 376.098 C 374.923 374.380, 371.777 374.804, 368.129 377.678 M 459.051 381.439 C 457.089 383.803, 458.527 386, 462.035 386 C 464.825 386, 465.101 385.726, 464.816 383.250 C 464.448 380.048, 461.082 378.991, 459.051 381.439 M 398.500 382.195 C 395.870 383.686, 395.034 385.019, 395.015 387.750 C 394.995 390.674, 398.363 394, 401.345 394 C 406.672 394, 409.179 385.640, 404.777 382.557 C 402.164 380.726, 401.190 380.670, 398.500 382.195 M 483.150 387 C 482.166 389.823, 482.254 390, 484.659 390 C 486.578 390, 487.063 389.606, 486.607 388.418 C 486.273 387.548, 486 386.198, 486 385.418 C 486 382.919, 484.230 383.901, 483.150 387 M 448.206 412.480 C 443.515 416.428, 442.410 420.166, 444.396 425.368 C 446.630 431.217, 450.182 434.400, 454.478 434.400 C 458.105 434.400, 462 431.712, 462 429.209 C 462 428.026, 461.082 427.854, 457.443 428.353 C 453.484 428.895, 452.566 428.657, 450.443 426.534 C 447.244 423.335, 447.305 419.692, 450.599 417.101 C 453.013 415.202, 453.450 415.161, 456.721 416.528 C 458.659 417.338, 460.639 418, 461.122 418 C 462.848 418, 461.957 414.866, 459.545 412.455 C 456.350 409.259, 452.023 409.268, 448.206 412.480 M 396.289 415.025 C 393.973 417.211, 391.610 419, 391.039 419 C 390.467 419, 390 417.425, 390 415.500 C 390 412.667, 389.619 412, 388 412 C 386.121 412, 386 412.667, 386 423 L 386 434 389.111 434 C 392.112 434, 392.200 433.878, 391.581 430.578 C 390.646 425.594, 392.514 425.308, 395.595 429.964 C 397.724 433.181, 398.872 434, 401.252 434 L 404.237 434 401.422 430.250 C 398.616 426.514, 397.369 425.337, 395.534 424.694 C 395.003 424.508, 396.240 422.078, 398.284 419.294 C 401.728 414.602, 403.033 410.966, 401.250 411.025 C 400.837 411.039, 398.605 412.839, 396.289 415.025 M 410.212 412.188 C 408.917 413.483, 408.589 423.877, 409.642 430.250 C 410.105 433.052, 410.743 434, 412.164 434 C 413.936 434, 414.046 433.240, 413.783 422.831 C 413.504 411.832, 412.767 409.633, 410.212 412.188 M 427.750 411.719 C 424.587 411.928, 421.933 412.527, 421.850 413.050 C 421.391 415.959, 421.763 416.526, 424.436 416.990 L 427.371 417.500 427.436 425.995 C 427.503 434.913, 427.364 434.670, 432.082 434.125 C 432.791 434.043, 433.050 431.154, 432.832 425.750 L 432.500 417.500 435.810 417.182 C 438.748 416.900, 439.085 416.563, 438.810 414.182 C 438.466 411.204, 437.789 411.054, 427.750 411.719 M 470.667 411.667 C 470.300 412.033, 470 417.208, 470 423.167 C 470 433.333, 470.123 434, 472 434 C 473.543 434, 474 433.333, 474 431.082 C 474 426.087, 474.894 425, 478.999 425 C 482.104 425, 482.886 425.409, 483.355 427.280 C 483.670 428.534, 483.667 430.559, 483.347 431.780 C 482.857 433.656, 483.173 434, 485.383 434 L 488 434 488 423 L 488 412 485.500 412 C 483.306 412, 483 412.432, 483 415.525 C 483 418.361, 482.513 419.235, 480.509 419.997 C 476.628 421.472, 475 420.291, 475 416 C 475 413.470, 474.475 412.013, 473.418 411.607 C 471.460 410.855, 471.478 410.855, 470.667 411.667 M 501.250 411.807 L 497 412.115 497 423.057 L 497 434 503.500 434 C 509.767 434, 510 433.910, 510 431.500 C 510 429.198, 509.638 429, 505.430 429 C 501.264 429, 500.889 428.802, 501.180 426.750 C 501.437 424.943, 502.238 424.439, 505.250 424.190 C 509.089 423.872, 510.766 421.107, 507.250 420.894 C 506.288 420.835, 504.600 420.723, 503.500 420.644 C 502.262 420.555, 501.381 419.666, 501.188 418.311 C 500.915 416.387, 501.399 416.083, 505.180 415.811 C 508.193 415.593, 509.575 415.013, 509.790 413.876 C 510.149 411.983, 507.544 411.352, 501.250 411.807 M 518.217 423.250 C 518.481 433.739, 518.635 434.500, 520.500 434.500 C 522.194 434.500, 522.576 433.667, 523 429.050 L 523.500 423.601 527.843 428.800 C 530.491 431.971, 532.988 434, 534.241 434 C 536.201 434, 536.266 433.615, 535.654 425.750 C 535.301 421.212, 535.009 416.262, 535.006 414.750 C 535.001 412.669, 534.514 412, 533 412 C 531.233 412, 531 412.667, 531 417.719 L 531 423.437 525.221 417.719 C 522.043 414.573, 519.103 412, 518.688 412 C 518.274 412, 518.062 417.063, 518.217 423.250 M 655.300 424.801 C 648.266 427.314, 643.139 431.033, 638.846 436.736 C 633.960 443.228, 632.993 445.294, 632.024 451.317 C 630.317 461.924, 634.167 473.100, 642.278 481.085 C 649.542 488.235, 656.662 491.418, 665.441 491.439 C 678.206 491.471, 688.266 484.605, 694.615 471.528 C 698.782 462.946, 699.223 454.345, 695.946 445.586 C 689.966 429.602, 670.182 419.485, 655.300 424.801 M 660.370 437.440 C 657.172 438.832, 655.062 441, 656.906 441 C 658.793 441, 665.097 447.269, 667.039 451.077 C 669.302 455.512, 679.679 467, 681.423 467 C 683.241 467, 686 460.440, 686 456.116 C 686 449.669, 676.579 439.174, 668.785 436.938 C 664.657 435.755, 664.178 435.783, 660.370 437.440 M 418 450 C 417.411 451.100, 417.305 452, 417.765 452 C 418.828 452, 421 449.852, 421 448.800 C 421 447.248, 419.057 448.025, 418 450 M 646.098 451.149 C 641.637 463.945, 652.407 478.229, 666.665 478.428 C 669.505 478.468, 672.119 478.211, 672.473 477.858 C 674.141 476.196, 669.131 468.968, 659.380 458.969 C 653.497 452.936, 648.349 448, 647.939 448 C 647.530 448, 646.702 449.417, 646.098 451.149 M 315.823 533.500 C 315.645 537.350, 315.661 551.525, 315.858 565 L 316.216 589.500 513.460 589.500 L 710.704 589.500 711.360 571.332 C 711.721 561.340, 711.724 547.390, 711.366 540.332 L 710.717 527.500 557.108 527.176 C 472.624 526.998, 383.845 526.773, 359.823 526.676 L 316.145 526.500 315.823 533.500 M 458.061 543.941 C 456.454 544.958, 455.213 552.973, 455.084 563.171 C 455.001 569.782, 455.026 569.847, 457.976 570.495 C 459.612 570.854, 461.412 570.863, 461.976 570.515 C 462.539 570.167, 463.019 567.096, 463.043 563.691 L 463.085 557.500 466.930 561.878 L 470.774 566.255 474.504 562.128 C 476.555 559.857, 478.694 558, 479.259 558 C 479.914 558, 480.062 560.132, 479.668 563.898 C 479.068 569.639, 479.122 569.814, 481.671 570.453 C 483.111 570.815, 484.689 570.711, 485.177 570.223 C 485.665 569.735, 485.937 563.753, 485.782 556.930 C 485.530 545.832, 485.307 544.487, 483.671 544.174 C 479.970 543.464, 477.131 545.084, 474.345 549.493 C 471.723 553.644, 470 555.125, 470 553.228 C 470 552.084, 461.467 542.997, 460.409 543.015 C 459.909 543.024, 458.852 543.440, 458.061 543.941 M 600.750 544.080 C 598.110 545.618, 598.636 549.203, 602.220 554.100 C 604.987 557.880, 605.445 559.345, 605.470 564.500 L 605.500 570.500 608.487 570.175 C 612.268 569.764, 612.966 568.621, 612.985 562.811 C 612.998 558.788, 613.568 557.465, 617 553.500 C 621.821 547.930, 622.572 543, 618.599 543 C 616.915 543, 615.581 544.045, 614.133 546.500 C 612.997 548.425, 611.414 550, 610.615 550 C 609.817 550, 608.190 548.425, 607 546.500 C 604.730 542.827, 603.631 542.402, 600.750 544.080 M 396.411 545.891 C 391.477 548.900, 388.999 552.746, 389.007 557.385 C 389.024 568.341, 401.935 575.219, 409.077 568.077 C 412.844 564.310, 412.911 561.977, 409.250 562.070 C 407.738 562.109, 405.600 562.495, 404.500 562.928 C 399.484 564.902, 395.347 559.171, 398.412 554.494 C 399.828 552.334, 400.701 552.030, 404.974 552.216 C 410.671 552.464, 411.462 551.976, 410.644 548.718 C 409.490 544.120, 401.815 542.596, 396.411 545.891 M 425.027 547.634 C 421.790 550.653, 420.750 552.445, 420.304 555.771 C 419.752 559.886, 419.925 560.229, 425.214 565.518 C 431.527 571.832, 434.197 572.388, 438.959 568.381 C 443.183 564.827, 445 560.972, 445 555.565 C 445 548.938, 441.189 544.917, 434.279 544.253 C 429.449 543.789, 428.956 543.969, 425.027 547.634 M 499.221 557.250 L 499.500 570.500 502.250 570.816 C 504.833 571.114, 505 570.897, 505 567.243 L 505 563.353 511.131 562.213 C 520.570 560.457, 523.037 556.840, 519.483 549.967 C 517.307 545.758, 513.192 544, 505.521 544 L 498.942 544 499.221 557.250 M 537.219 544.672 C 536.515 544.955, 534.897 547.282, 533.624 549.844 C 530.981 555.161, 526.427 568.761, 527.074 569.407 C 527.310 569.644, 528.704 570.139, 530.171 570.507 C 532.442 571.077, 532.887 570.829, 533.169 568.838 C 533.460 566.782, 534.118 566.464, 538.621 566.202 C 543.074 565.943, 543.812 566.172, 544.277 567.952 C 544.692 569.537, 545.626 570, 548.406 570 C 550.912 570, 552 569.552, 552 568.520 C 552 566.671, 544.193 546.948, 542.789 545.250 C 541.736 543.977, 539.522 543.747, 537.219 544.672 M 565.218 545.677 C 563.751 548.553, 562.163 555.899, 561.406 563.319 L 560.710 570.138 564.605 569.819 L 568.500 569.500 569 562.500 L 569.500 555.500 571.909 559.500 C 575.095 564.790, 582.516 570.986, 585.678 570.996 C 586.963 571, 587.787 565.141, 588.252 552.705 L 588.543 544.909 584.041 545.205 C 580.128 545.461, 579.410 545.867, 578.559 548.299 C 577.844 550.343, 577.944 551.680, 578.929 553.259 C 579.674 554.451, 577.939 553.420, 575.060 550.960 C 566.600 543.730, 566.295 543.566, 565.218 545.677 M 506 554 C 506 556.653, 506.340 557, 508.941 557 C 512.374 557, 513.117 556.163, 512.335 553.174 C 511.917 551.576, 511.002 551, 508.883 551 C 506.346 551, 506 551.360, 506 554 M 661.465 551.905 C 656.159 554.177, 656.038 559.171, 661.186 563.503 C 665.092 566.790, 667.273 566.653, 670.411 562.923 C 673.251 559.548, 673.805 554.913, 671.589 553.074 C 669.684 551.493, 663.969 550.833, 661.465 551.905 M 429.750 553.080 C 427.117 554.614, 427.482 559.615, 430.365 561.504 C 432.131 562.660, 433.376 562.807, 435.279 562.084 C 438.373 560.908, 439.393 558.164, 438.050 554.632 C 437.296 552.648, 436.366 552.007, 434.275 552.030 C 432.749 552.047, 430.712 552.519, 429.750 553.080 M 537.085 557.135 C 535.866 558.271, 535.102 559.435, 535.387 559.721 C 536.397 560.730, 541 558.942, 541 557.540 C 541 555.135, 539.409 554.970, 537.085 557.135 M 334 615.500 L 334 624 350.883 624 C 370.307 624, 368.961 624.799, 368.986 613.250 L 369 607 351.500 607 L 334 607 334 615.500 M 658.375 610.125 C 658.719 611.844, 659 615.444, 659 618.125 L 659 623 677.136 623 L 695.272 623 694.636 618.360 C 694.286 615.809, 694 612.209, 694 610.360 L 694 607 675.875 607 L 657.750 607 658.375 610.125 M 490 843.559 C 490 844.416, 490.450 844.840, 491 844.500 C 491.550 844.160, 492 843.459, 492 842.941 C 492 842.423, 491.550 842, 491 842 C 490.450 842, 490 842.702, 490 843.559 M 493 843 C 493 843.569, 495.906 843.993, 499.750 843.985 C 504.477 843.974, 506.050 843.679, 505 843 C 503.017 841.719, 493 841.719, 493 843 M 526.264 844.718 C 527.784 844.947, 530.034 844.941, 531.264 844.704 C 532.494 844.467, 531.250 844.279, 528.500 844.286 C 525.750 844.294, 524.744 844.488, 526.264 844.718 M 535.269 844.693 C 536.242 844.947, 537.592 844.930, 538.269 844.656 C 538.946 844.382, 538.150 844.175, 536.500 844.195 C 534.850 844.215, 534.296 844.439, 535.269 844.693" stroke="none" fill="#000000" fill-rule="evenodd"/>
</svg>