<svg xmlns="http://www.w3.org/2000/svg" width="1024" height="1024" viewBox="0 0 1024 1024" version="1.1">
	<path d="M 510 137.997 C 501.784 139.009, 492.596 142.100, 484.118 146.704 C 474.919 151.699, 471.830 154.062, 458.865 166.026 C 452.622 171.787, 444.586 179.190, 441.007 182.477 C 437.428 185.764, 429.325 193.427, 423 199.506 C 416.675 205.584, 406.359 215.270, 400.076 221.029 C 372.855 245.980, 345.475 271.539, 331.525 285.020 C 315.051 300.940, 305.847 309.591, 290.054 324 C 284.327 329.225, 274.659 338.258, 268.571 344.074 C 247.304 364.387, 235.448 375.262, 228.500 380.827 C 206.427 398.508, 199.824 408.287, 199.690 423.500 C 199.608 432.832, 202.011 440.228, 207.489 447.500 C 218.839 462.567, 238.825 467.033, 256.614 458.477 C 267.408 453.286, 283.922 440.107, 306.625 418.568 C 315.671 409.986, 330.725 396.234, 332.808 394.649 C 334.289 393.522, 339.100 389.168, 343.500 384.972 C 347.900 380.777, 357.350 371.991, 364.500 365.449 C 371.650 358.907, 380.200 350.994, 383.500 347.864 C 386.800 344.733, 391.300 340.613, 393.500 338.707 C 409.766 324.618, 417.876 317.468, 434.003 303 C 444.119 293.925, 458.725 280.650, 466.462 273.500 C 496.586 245.661, 509.995 235.317, 516.561 234.853 C 518.178 234.738, 521.160 235.200, 523.189 235.880 C 528.453 237.642, 539.888 245.348, 544 249.904 C 545.925 252.036, 547.837 253.831, 548.250 253.891 C 548.663 253.951, 549.092 254.338, 549.205 254.750 C 549.585 256.146, 553.926 260.025, 554.813 259.761 C 555.298 259.618, 557.063 260.850, 558.737 262.500 C 567.913 271.546, 579.487 282.453, 586.898 289.038 C 591.517 293.142, 598.090 299.200, 601.505 302.500 C 604.919 305.800, 609.240 309.805, 611.107 311.401 C 612.973 312.996, 618.550 318.143, 623.500 322.838 C 636.156 334.841, 641.959 340.154, 646 343.436 C 649.953 346.647, 662.321 357.465, 665.507 360.500 C 666.662 361.600, 670.057 364.519, 673.053 366.986 C 676.049 369.454, 678.732 371.704, 679.015 371.986 C 680.276 373.243, 698.314 390.234, 706.014 397.418 C 710.681 401.773, 717.425 408.080, 721 411.434 C 724.575 414.788, 729.975 419.611, 733 422.151 C 736.025 424.691, 744.575 432.252, 752 438.952 C 772.266 457.240, 781.627 462.254, 795.500 462.251 C 801.942 462.250, 804.863 461.702, 810.500 459.436 C 819.214 455.934, 828.231 447.380, 832.569 438.500 C 835.154 433.207, 835.500 431.430, 835.500 423.422 C 835.500 414.763, 835.305 413.952, 831.274 405.819 C 826.927 397.049, 823.511 393.443, 794.029 366.500 C 791.019 363.750, 785.507 358.614, 781.779 355.086 C 778.050 351.558, 775 349.130, 775 349.690 C 775 350.250, 777.560 352.911, 780.690 355.604 C 793.169 366.342, 822.492 395.197, 826.003 400.192 C 828.054 403.112, 830.260 407.135, 830.905 409.134 C 832.282 413.397, 832.050 420.177, 830.545 419.695 C 829.970 419.512, 827.762 416.168, 825.638 412.266 C 821.800 405.216, 816.879 400.013, 788.947 373.474 C 778.203 363.266, 759.699 347.838, 745.531 337.276 C 739.464 332.753, 733.956 328.591, 733.292 328.026 C 732.628 327.462, 731.653 327, 731.126 327 C 730.598 327, 730.017 326.663, 729.833 326.250 C 729.650 325.837, 726.591 323.025, 723.036 320 C 711.132 309.872, 704.728 303.718, 660.504 259.909 C 619.422 219.212, 604.360 204.679, 595.940 197.613 C 579.024 183.418, 573.760 178.887, 569 174.429 C 565.975 171.596, 561.475 167.528, 559 165.389 C 556.525 163.250, 554.275 161.222, 554 160.883 C 551.874 158.259, 531.462 147.319, 527.099 146.466 C 526.220 146.294, 525.388 146.062, 525.250 145.952 C 525.112 145.841, 524.663 145.687, 524.250 145.610 C 523.837 145.533, 522.876 145.074, 522.114 144.592 C 521.352 144.109, 519.814 143.666, 518.697 143.607 C 517.580 143.548, 516.474 142.923, 516.239 142.219 C 516.004 141.514, 516.192 141.025, 516.656 141.133 C 517.120 141.240, 518.670 140.997, 520.101 140.593 C 526.942 138.660, 546.100 145.258, 557.291 153.401 C 560.706 155.886, 568.647 162.887, 574.937 168.960 C 581.228 175.032, 586.928 180, 587.604 180 C 588.280 180, 588.983 180.338, 589.167 180.752 C 589.350 181.166, 592.200 183.729, 595.500 186.448 C 598.800 189.166, 603.517 193.216, 605.983 195.446 C 608.509 197.730, 609.382 198.250, 607.983 196.638 C 606.617 195.064, 599.650 188.650, 592.500 182.385 C 585.350 176.120, 575.225 167.131, 570 162.409 C 558.539 152.052, 554.524 149.190, 544.324 144.106 C 532.305 138.114, 522.790 136.420, 510 137.997 M 629.511 218.093 C 639.955 228.224, 652.262 240.110, 656.860 244.506 C 661.458 248.903, 667.010 255.120, 669.196 258.322 C 675.362 267.351, 726.421 318.068, 732.588 321.290 C 739.280 324.787, 744.153 325.244, 744.930 322.449 C 745.243 321.320, 747.386 318.704, 749.692 316.635 C 751.997 314.566, 754.872 310.829, 756.082 308.331 C 758.219 303.916, 758.275 302.906, 758.093 271.782 C 757.990 254.177, 757.481 237.537, 756.963 234.803 C 755.860 228.991, 752.012 222.901, 746.784 218.694 C 743.414 215.984, 742.060 215.618, 732.284 214.773 C 726.353 214.261, 715.420 213.997, 707.990 214.185 C 695.356 214.507, 694.174 214.708, 689.765 217.292 C 685.076 220.039, 678 228.064, 678 230.632 C 678 231.426, 677.090 231.879, 675.778 231.738 C 672.725 231.411, 671.129 236.316, 671.056 246.250 C 671.024 250.763, 670.578 254, 669.990 254 C 668.760 254, 659.799 245.739, 633.199 220.082 C 622.033 209.312, 612.363 200.314, 611.710 200.087 C 611.057 199.860, 619.068 207.963, 629.511 218.093 M 700.199 217.550 C 699.119 218.775, 699.183 219.133, 700.582 219.670 C 701.508 220.025, 703.105 219.791, 704.132 219.149 C 705.160 218.508, 706 218.395, 706 218.899 C 706 219.421, 711.698 219.697, 719.250 219.542 C 726.538 219.391, 732.950 219.596, 733.500 219.996 C 734.050 220.397, 735.625 221.013, 737 221.365 C 738.375 221.718, 740.866 223.262, 742.535 224.797 C 745.949 227.936, 750.502 234, 749.446 234 C 749.066 234, 749.315 234.675, 750 235.500 C 750.685 236.325, 750.875 237, 750.422 237 C 749.970 237, 750.140 237.540, 750.800 238.200 C 751.460 238.860, 752 240.510, 752 241.867 C 752 244.776, 753.234 243.945, 753.690 240.730 C 755.330 229.176, 751.485 221.305, 742.282 217.374 C 737.493 215.329, 702.029 215.477, 700.199 217.550 M 506.500 244.583 C 502.650 247.640, 497.700 251.711, 495.500 253.630 L 491.500 257.118 496.268 253.809 C 498.890 251.989, 503.840 248.543, 507.268 246.151 C 512.803 242.289, 513.977 241.856, 517.762 242.280 C 520.106 242.542, 524.310 243.888, 527.104 245.271 L 532.184 247.785 528.887 244.383 C 525.615 241.007, 520.804 239.005, 516 239.018 C 514.480 239.023, 510.756 241.204, 506.500 244.583 M 752.651 267.468 C 752.341 268.275, 752.518 269.202, 753.044 269.527 C 753.570 269.852, 754 269.191, 754 268.059 C 754 265.644, 753.444 265.401, 752.651 267.468 M 755.158 268 C 755.158 269.375, 755.385 269.938, 755.662 269.250 C 755.940 268.563, 755.940 267.438, 755.662 266.750 C 755.385 266.063, 755.158 266.625, 755.158 268 M 510.059 269.545 C 506.516 270.319, 501.341 272.074, 498.559 273.444 C 493.636 275.869, 479.083 288.515, 452.500 313.465 C 445.350 320.176, 436.589 328.330, 433.031 331.584 C 419.017 344.401, 391.639 370.434, 373.047 388.621 C 362.296 399.138, 348.972 411.738, 343.437 416.621 C 301.488 453.637, 281.251 473.947, 275.805 484.500 C 273.818 488.350, 271.389 493.975, 270.406 497 C 268.317 503.429, 268.322 503.128, 268.022 648 C 267.829 741.156, 267.875 743.689, 269.857 751.196 C 273.661 765.593, 280.115 776.150, 291.928 787.294 C 299.362 794.306, 308.077 799.087, 321.289 803.400 C 336.694 808.428, 331.773 808.323, 522.275 807.691 C 712.819 807.059, 703.690 807.308, 715.623 802.414 C 728.016 797.331, 736.124 792.513, 742.087 786.685 C 745.568 783.283, 748.053 781.175, 747.608 782 C 747.164 782.825, 748.426 781.700, 750.413 779.500 C 752.399 777.300, 754.671 774.038, 755.461 772.250 C 756.252 770.462, 757.397 769, 758.008 769 C 758.619 769, 758.840 768.550, 758.500 768 C 758.160 767.450, 758.385 767, 759 767 C 759.615 767, 759.840 766.550, 759.500 766 C 759.160 765.450, 759.310 765, 759.832 765 C 761.271 765, 764.052 757.298, 763.310 755.366 C 762.885 754.259, 763.047 753.911, 763.776 754.362 C 765.019 755.130, 766.389 751.012, 768.053 741.500 C 768.759 737.461, 768.984 697.909, 768.741 620.500 C 768.340 493.105, 768.595 498.093, 761.791 484.562 C 756.894 474.822, 744.104 460.220, 732 450.548 C 727.703 447.115, 703.709 425.403, 692.067 414.413 C 687.355 409.966, 679.370 402.541, 674.321 397.913 C 649.200 374.887, 634.027 360.919, 616.297 344.500 C 605.607 334.600, 589.580 320.047, 580.680 312.160 C 571.781 304.272, 560.927 294.597, 556.560 290.660 C 533.540 269.902, 525.379 266.196, 510.059 269.545 M 752.401 271.891 C 754.209 273.888, 753.807 278.617, 751.928 277.456 C 749.771 276.123, 751.219 277.914, 753.514 279.417 L 756.028 281.064 755.722 276.381 C 755.469 272.495, 755.009 271.547, 753.019 270.811 C 750.688 269.949, 750.671 269.979, 752.401 271.891 M 751.500 274 C 751.840 274.550, 752.316 275, 752.559 275 C 752.802 275, 753 274.550, 753 274 C 753 273.450, 752.523 273, 751.941 273 C 751.359 273, 751.160 273.450, 751.500 274 M 517.084 275.399 C 516.353 276.279, 515.923 277.037, 516.128 277.082 C 516.332 277.127, 517.705 277.364, 519.179 277.607 C 525.873 278.713, 535.238 284.430, 544.500 293.065 C 551.175 299.288, 570.124 316, 576.500 321.286 C 582.174 325.991, 593.357 336.023, 607.977 349.524 C 611.565 352.837, 616.975 357.765, 620 360.476 C 623.025 363.186, 633.375 372.891, 643 382.042 C 652.625 391.192, 663.200 401.064, 666.500 403.978 C 669.800 406.892, 676.550 413.177, 681.500 417.945 C 686.450 422.712, 693.951 429.399, 698.170 432.805 C 702.388 436.211, 709.138 441.996, 713.170 445.661 C 717.201 449.326, 724.775 456.187, 730 460.909 C 745.569 474.977, 750.302 480.190, 754.830 488.258 C 756.367 490.997, 758.030 492.813, 758.750 492.539 C 759.438 492.277, 760 492.461, 760 492.948 C 760 493.435, 759.460 494.013, 758.799 494.234 C 757.888 494.537, 757.881 494.809, 758.770 495.358 C 759.502 495.810, 760.167 495.183, 760.543 493.684 C 761.618 489.401, 757.126 482.076, 747.526 472.456 C 734.992 459.897, 704.350 431.753, 703.458 431.982 C 703.054 432.086, 702.352 431.570, 701.898 430.835 C 701.444 430.101, 700.604 429.500, 700.030 429.500 C 698.908 429.500, 693.006 422.992, 693.002 421.750 C 693.001 421.337, 692.653 421.112, 692.230 421.250 C 691.504 421.485, 689.897 420.088, 678.141 409 C 675.517 406.525, 666.425 397.975, 657.938 390 C 649.451 382.025, 638.230 371.404, 633.003 366.398 C 627.776 361.392, 621.950 355.992, 620.055 354.398 C 618.160 352.804, 615.193 350.150, 613.461 348.500 C 601.765 337.357, 590.387 327.035, 589.767 327.004 C 589.363 326.983, 587.527 325.512, 585.685 323.733 C 583.843 321.955, 581.248 319.640, 579.918 318.589 C 573.754 313.719, 557.145 298.966, 547.526 289.816 C 536.055 278.904, 530.520 275.403, 523.208 274.433 C 519.474 273.938, 518.119 274.151, 517.084 275.399 M 513 276.378 C 513 276.585, 513.788 277.373, 514.750 278.128 C 516.336 279.371, 516.371 279.336, 515.128 277.750 C 513.821 276.084, 513 275.555, 513 276.378 M 462.235 281.595 L 458.500 285.189 462.750 281.927 C 465.087 280.133, 467 278.516, 467 278.333 C 467 277.394, 465.615 278.343, 462.235 281.595 M 751.803 280.857 C 752.519 281.311, 753.029 282.092, 752.934 282.592 C 752.840 283.091, 752.877 283.950, 753.016 284.500 C 753.155 285.050, 753.321 287.192, 753.384 289.261 C 753.475 292.194, 753.170 292.909, 752 292.508 C 751.137 292.213, 751.325 292.633, 752.441 293.497 C 755.053 295.519, 755.965 293.963, 755.985 287.450 C 756 282.277, 754.789 279.988, 752.050 280.015 C 750.848 280.027, 750.793 280.216, 751.803 280.857 M 436.409 304.593 L 426.500 314.186 436.750 304.955 C 446.159 296.480, 447.633 295, 446.659 295 C 446.472 295, 441.859 299.317, 436.409 304.593 M 766 341.283 C 766 341.501, 767.800 343.344, 770 345.380 C 772.200 347.415, 773.992 348.725, 773.982 348.290 C 773.964 347.509, 766 340.518, 766 341.283 M 540.604 389.590 C 540.268 390.465, 540.247 391.590, 540.556 392.090 C 540.888 392.627, 530.703 393, 515.684 393 L 490.250 393 489.654 395.979 C 488.646 401.019, 487.664 433.393, 488.400 437.316 C 489.588 443.652, 490.448 443.844, 519.222 444.190 L 544.943 444.500 547.686 441.763 L 550.428 439.026 550.213 425.263 C 549.767 396.651, 548.414 387.390, 544.988 389.507 C 544.521 389.796, 543.856 389.575, 543.510 389.016 C 542.587 387.523, 541.299 387.777, 540.604 389.590 M 481.077 438.500 C 481.131 443.625, 484.286 450.276, 487.780 452.631 C 490.698 454.597, 491.950 454.767, 500.262 454.323 C 505.343 454.052, 510.996 453.445, 512.825 452.975 C 514.653 452.505, 516.903 452.384, 517.825 452.707 C 519.179 453.182, 519.264 453.039, 518.266 451.963 C 517.353 450.978, 513.860 450.672, 504.814 450.784 L 492.595 450.935 488.533 446.696 C 486.299 444.364, 483.700 440.891, 482.758 438.978 L 481.046 435.500 481.077 438.500 M 525 452.059 C 525 452.641, 525.450 452.840, 526 452.500 C 526.550 452.160, 527 451.684, 527 451.441 C 527 451.198, 526.550 451, 526 451 C 525.450 451, 525 451.477, 525 452.059 M 475.500 548.935 C 457.132 549.429, 454.150 549.737, 451.709 551.392 C 450.175 552.432, 448.502 554.063, 447.992 555.015 C 447.315 556.280, 446.350 725.988, 446.940 740 C 446.990 741.180, 448.453 741.500, 453.797 741.500 L 460.591 741.500 460.546 653.333 L 460.500 565.166 462.940 562.566 C 467.297 557.924, 469.563 557.745, 518.600 558.185 C 563.350 558.587, 564.604 558.652, 568.649 560.768 C 570.931 561.961, 573.856 564.639, 575.149 566.719 L 577.500 570.500 577.851 656.395 C 578.044 703.638, 578.519 741.778, 578.906 741.152 C 579.294 740.525, 581.780 739.607, 584.431 739.112 C 587.082 738.616, 589.652 737.601, 590.142 736.856 C 590.650 736.081, 590.918 697.771, 590.766 647.500 C 590.544 574.024, 590.267 559.045, 589.087 556.744 C 588.224 555.062, 585.494 552.917, 582.087 551.244 L 576.500 548.500 536.500 548.435 C 514.500 548.400, 487.050 548.625, 475.500 548.935 M 541.974 645.750 C 538.862 649.692, 539.623 656.953, 543.580 661.083 C 547.234 664.897, 550.003 665.567, 553.863 663.571 C 557.748 661.562, 559 659.222, 559 653.966 C 559 644.822, 547.201 639.129, 541.974 645.750 M 533.662 658.169 C 531.247 659.521, 531.574 660.774, 535.635 665.730 C 540.137 671.224, 542.923 672.647, 545.980 671.011 L 548.213 669.816 545.356 667.751 C 543.785 666.615, 540.885 663.785, 538.912 661.462 C 536.101 658.154, 534.964 657.441, 533.662 658.169 M 439.361 759.502 C 437.597 764.097, 443.803 772.009, 449.151 771.985 C 455.225 771.957, 455.935 770.567, 451.988 766.435 C 448.817 763.114, 441.844 758, 440.488 758 C 440.185 758, 439.678 758.676, 439.361 759.502 M 566.740 769.043 C 567.422 769.778, 568.701 770.486, 569.582 770.615 C 570.462 770.744, 570.880 770.546, 570.508 770.175 C 570.137 769.804, 569.533 769.493, 569.167 769.485 C 568.800 769.476, 567.825 769.073, 567 768.588 C 565.784 767.874, 565.735 767.960, 566.740 769.043 M 573.731 770.080 C 574.085 771.432, 574.538 771.886, 574.788 771.137 C 575.028 770.415, 574.750 769.350, 574.168 768.768 C 573.426 768.026, 573.296 768.417, 573.731 770.080 M 407.500 857.460 C 406.950 857.712, 400.425 858.104, 393 858.330 C 385.575 858.557, 377.700 859.229, 375.500 859.825 C 373.300 860.420, 368.906 861.186, 365.736 861.527 C 362.567 861.868, 360.231 862.564, 360.546 863.074 C 360.860 863.583, 359.179 864.037, 356.809 864.083 C 354.439 864.129, 351.600 864.339, 350.500 864.550 C 349.400 864.761, 346.925 865.134, 345 865.378 C 343.075 865.623, 340.150 866.535, 338.500 867.405 C 336.850 868.276, 334.488 868.990, 333.250 868.994 C 330.842 869, 330.181 870.527, 332.250 871.300 C 333.034 871.593, 332.754 872.028, 331.500 872.467 C 330.400 872.852, 328.600 873.549, 327.500 874.016 C 325.770 874.750, 325.895 874.874, 328.421 874.932 C 330.028 874.970, 332.053 875.641, 332.921 876.425 C 334.674 878.007, 340.179 878.252, 411.500 879.914 C 463.333 881.123, 550.686 881.164, 565.500 879.986 C 571.550 879.506, 579.650 878.525, 583.500 877.806 C 589.308 876.722, 590.550 876.147, 590.797 874.425 C 591.105 872.264, 590.841 872.143, 579 869.012 C 574.172 867.735, 560.921 865.876, 544 864.102 C 538.225 863.496, 531.250 862.565, 528.500 862.033 C 517.804 859.961, 481.836 857.988, 446 857.506 C 425.375 857.229, 408.050 857.209, 407.500 857.460" stroke="none" fill="#000000" fill-rule="evenodd"/>
</svg>