<svg xmlns="http://www.w3.org/2000/svg" width="1024" height="1024" viewBox="0 0 1024 1024" version="1.1">
	<path d="M 490 139.022 C 460.530 141.751, 430.454 148.310, 400.522 158.534 C 375.032 167.241, 328.721 191.422, 309 206.323 C 275.649 231.522, 258.562 248.552, 234.500 280.571 C 207.846 316.040, 186.672 361.371, 175.913 406 C 167.332 441.595, 165.618 456.432, 165.572 495.500 C 165.544 519.955, 165.911 529.139, 167.309 539 C 175.638 597.750, 194.004 644.887, 227.506 693.500 C 250.660 727.098, 269.738 747.524, 302.062 773.323 C 330.613 796.111, 373.227 818.971, 407.803 830.046 C 425.535 835.726, 449.312 841.041, 469 843.726 C 486.409 846.101, 491.663 846.387, 518 846.399 C 547.543 846.412, 556.113 845.826, 583.500 841.920 C 604.441 838.934, 635.255 830.568, 655.092 822.485 C 699.228 804.499, 740.914 777.069, 773.220 744.756 C 805.846 712.123, 835.238 667.169, 853.480 622 C 862.583 599.459, 871.949 561.702, 875.185 534.500 C 877.202 517.545, 876.861 465.913, 874.624 449.500 C 870.968 422.680, 863.489 391.822, 855.477 370.500 C 833.995 313.335, 794.282 256.633, 749.477 219.154 C 727.937 201.136, 708.216 188.131, 684.154 176.077 C 664.704 166.334, 653.400 161.782, 631.802 154.998 C 593.799 143.060, 568.336 139.053, 527 138.506 C 511.875 138.306, 495.225 138.538, 490 139.022 M 504.500 185.569 C 502.850 185.795, 495.875 186.479, 489 187.089 C 424.316 192.821, 362.048 220.580, 310.899 266.487 C 271.997 301.403, 242.400 349.754, 227.031 403.500 C 216.507 440.305, 213.487 463.163, 214.350 499.500 C 215.116 531.794, 217.769 551.564, 224.944 578.449 C 230.699 600.013, 244.244 630.328, 258.603 653.782 C 289.060 703.528, 332.194 742.828, 384.500 768.490 C 429.017 790.331, 471.417 799.926, 523.644 799.980 C 544.507 800.002, 557.039 799.029, 575.498 795.956 C 631.629 786.610, 686.223 759.784, 730.189 719.943 C 744.498 706.976, 765.787 681.502, 778.611 662 C 792.480 640.910, 805.994 612.439, 813.931 587.588 C 823.920 556.311, 826.950 536.798, 827.687 499 C 828.224 471.431, 827.050 454.017, 823.457 436.307 C 816.497 401.989, 803.682 367.614, 786.996 338.500 C 773.302 314.606, 759.230 295.763, 740.408 276.116 C 706.740 240.975, 665.780 215.636, 616.500 199.464 C 602.396 194.836, 576.882 189.333, 561 187.494 C 548.006 185.990, 510.690 184.718, 504.500 185.569 M 602.500 233.990 C 598.100 234.419, 588.875 235.284, 582 235.912 C 551.107 238.732, 499.782 245.976, 495.872 248.068 C 494.842 248.619, 493.960 250.067, 493.911 251.285 C 493.701 256.515, 494.202 263.554, 494.830 264.206 C 495.205 264.594, 497.490 263.137, 499.909 260.970 C 513.612 248.691, 535.074 249.597, 550.387 263.101 C 556.201 268.228, 557.761 271.575, 558.613 280.748 C 559.198 287.044, 558.227 293.034, 555.444 300.286 C 555.038 301.342, 557.443 301.920, 566.211 302.873 C 603.839 306.962, 628.179 316.859, 648.859 336.479 C 655.360 342.648, 656.649 343.449, 659.926 343.363 C 666.970 343.178, 670.067 339.550, 668.558 333.250 C 667.605 329.269, 645.179 307.503, 635.500 301.165 C 618.039 289.731, 595.773 279.990, 575.959 275.119 C 567.556 273.053, 564.275 271.794, 563.244 270.241 C 561.414 267.484, 562.073 267.159, 578.500 262.719 C 606.601 255.122, 617.623 253.693, 636.009 255.263 C 642.969 255.857, 649.412 256.056, 650.326 255.705 C 652.771 254.767, 655.992 248.954, 655.996 245.473 C 656.001 241.437, 653.752 238.444, 648.684 235.743 C 644.869 233.710, 643.001 233.500, 627.500 233.361 C 618.150 233.277, 606.900 233.560, 602.500 233.990 M 516.803 262.388 C 509.832 264.282, 504.912 268.059, 501.072 274.466 C 498.186 279.280, 497.635 281.161, 497.593 286.343 C 497.496 298.118, 504.054 306.168, 516.484 309.533 C 522.638 311.199, 523.021 311.188, 529.661 309.170 C 537.065 306.919, 543.031 301.921, 546.575 295 C 550.531 287.273, 548.221 274.255, 541.835 268.299 C 536.090 262.940, 524.686 260.247, 516.803 262.388 M 474.250 266.744 L 466 267.081 466 286.058 L 466 305.036 477.250 304.380 C 483.438 304.019, 488.654 303.594, 488.843 303.436 C 489.032 303.277, 488.618 299.134, 487.924 294.229 C 486.943 287.299, 486.922 284.013, 487.831 279.489 C 488.474 276.286, 489 271.941, 489 269.833 C 489 266.133, 488.887 266.007, 485.750 266.204 C 483.962 266.315, 478.788 266.559, 474.250 266.744 M 441.017 275.126 C 420.816 277.464, 401.239 288.737, 388.720 305.239 C 381.958 314.153, 379.813 318.364, 376.272 329.678 L 373.511 338.500 373.201 437 C 373.031 491.175, 373.169 537.413, 373.507 539.750 L 374.123 544 385.025 544 L 395.927 544 396.260 444.750 C 396.564 354.466, 396.750 344.921, 398.324 339.087 C 404.177 317.381, 423.101 302.265, 448.330 299.143 C 452.636 298.610, 456.383 297.950, 456.657 297.676 C 456.931 297.402, 457.308 291.963, 457.495 285.589 L 457.834 274 453.167 274.130 C 450.600 274.201, 445.133 274.649, 441.017 275.126 M 517.775 278.559 C 514.260 280.467, 513 282.916, 513 287.845 C 513 296.270, 523.905 300.249, 530.077 294.077 C 538.380 285.774, 528.183 272.911, 517.775 278.559 M 493.607 310.582 C 493.273 311.452, 493 314.768, 493 317.952 L 493 323.740 488.250 325.004 C 474.579 328.642, 455.603 343.739, 442.631 361.298 C 438.459 366.944, 432.513 380.369, 429.917 390 C 427.733 398.104, 427.600 400.646, 427.063 444.594 L 426.500 490.688 477.500 491.255 C 519.446 491.721, 548.421 491.470, 616 490.054 L 618.500 490.002 617.925 444.251 C 617.312 395.449, 617.266 394.972, 611.813 381 C 605.786 365.556, 596.026 351.364, 585.407 342.605 C 578.427 336.849, 565.613 329.079, 555.750 324.624 L 550 322.027 550 316.014 C 550 312.706, 549.741 310, 549.425 310 C 549.108 310, 545.846 311.780, 542.175 313.955 C 535.605 317.849, 526.110 321, 520.949 321 C 516.113 321, 509.180 318.273, 502.173 313.615 C 498.355 311.077, 495.002 309, 494.723 309 C 494.443 309, 493.941 309.712, 493.607 310.582 M 501 340.940 C 495.814 342.534, 481.285 350.436, 475.839 354.626 C 463.613 364.029, 455.312 376.434, 451.496 391 C 449.521 398.542, 447.546 451.221, 449.127 454.215 C 449.625 455.158, 451.805 456.460, 453.971 457.109 C 457.289 458.104, 458.300 458.034, 460.386 456.667 C 463.453 454.657, 463.698 452.675, 462.752 437.500 C 461.611 419.188, 461.856 406.813, 463.519 398.911 C 467.645 379.296, 483.514 362.496, 505.500 354.468 C 508.250 353.464, 511.781 351.761, 513.347 350.684 C 515.742 349.037, 516.099 348.245, 515.592 345.708 C 515.260 344.048, 514.486 342.085, 513.872 341.345 C 512.662 339.888, 505.190 339.653, 501 340.940 M 605.500 506.140 C 581.295 508.480, 490.492 508.667, 442.410 506.476 L 425.320 505.697 426.087 511.099 C 426.509 514.069, 426.887 559.043, 426.927 611.040 C 426.990 692.715, 427.209 706.391, 428.539 711.540 C 433.081 729.137, 444.641 743.682, 460.485 751.737 C 468.711 755.920, 489.831 760.701, 506.036 762.050 C 524.144 763.558, 539.321 762.795, 555.198 759.580 C 574.411 755.690, 584.718 751.389, 594.145 743.327 C 602.482 736.198, 607.546 729.621, 612.803 719.094 L 617.500 709.689 617.764 607.344 C 618.015 510.090, 617.940 505.007, 616.264 505.135 C 615.294 505.209, 610.450 505.662, 605.500 506.140 M 450.571 529.571 C 448.710 531.433, 448.441 549.352, 448.864 643.466 C 449.190 715.984, 449.109 715.433, 461.145 727.218 C 465.065 731.056, 469.724 734.261, 475.316 736.968 C 490.498 744.316, 493.872 741.290, 481.394 731.516 C 472.259 724.361, 465.475 717.019, 462.668 711.248 C 460.900 707.613, 460.770 706.525, 461.771 703.748 C 462.629 701.369, 462.968 677.684, 463.036 615.259 C 463.087 568.376, 462.849 529.564, 462.506 529.009 C 461.488 527.363, 452.349 527.794, 450.571 529.571 M 404 552.189 C 397.948 553.534, 372.760 554.242, 366.667 553.238 L 360.834 552.277 361.545 565.138 C 362.068 574.596, 361.951 578, 361.104 578 C 359.775 578, 358.424 581.201, 356.459 589 C 354.917 595.122, 352.819 622.033, 350.534 665 C 349.700 680.675, 348.775 696.014, 348.478 699.088 L 347.937 704.675 379.663 704.867 C 397.113 704.973, 412.320 705.293, 413.458 705.579 L 415.527 706.098 415.210 660.799 C 414.807 603.109, 414.038 589.240, 410.869 582.500 C 408.900 578.312, 408.436 575.382, 408.009 564.456 L 407.500 551.412 404 552.189 M 371.748 589.163 C 370.218 589.722, 368.786 591.130, 368.523 592.334 C 367.816 595.567, 366 652.570, 366 671.507 L 366 688 372 688 L 378 688 378 644.960 C 378 603.548, 378.078 601.768, 380.049 597.903 C 383.942 590.273, 380.018 586.143, 371.748 589.163" stroke="none" fill="#000000" fill-rule="evenodd"/>
</svg>