<svg xmlns="http://www.w3.org/2000/svg" width="1024" height="1024" viewBox="0 0 1024 1024" version="1.1">
	<path d="M 120.882 110.882 L 117 114.765 117 494.414 C 117 905.830, 116.625 878.559, 122.334 882.299 C 124.783 883.904, 148.639 883.992, 515.951 883.754 L 906.962 883.500 910.231 880.231 L 913.500 876.962 914 496.564 C 914.275 287.345, 914.800 115.866, 915.167 115.500 C 915.533 115.133, 916.771 115.771, 917.917 116.917 C 919.063 118.063, 920.007 118.662, 920.015 118.250 C 920.024 117.837, 920.467 118.175, 921 119 C 921.572 119.885, 921.976 120.016, 921.985 119.318 C 921.993 118.668, 920.538 117.118, 918.750 115.873 C 916.962 114.629, 913.732 112.123, 911.570 110.305 L 907.640 107 516.202 107 L 124.765 107 120.882 110.882 M 236 351.844 L 236 528.188 230.885 527.484 C 228.072 527.097, 218.265 527.103, 209.091 527.496 L 192.412 528.211 189.076 535.624 C 185.036 544.602, 178.617 555.885, 167.133 574.198 C 148.601 603.750, 145 609.778, 145 611.252 C 145 612.550, 148.054 612.884, 165.250 613.472 C 176.387 613.852, 196.863 614.014, 210.751 613.832 L 236.002 613.500 236.001 657.060 L 236 700.620 216.750 720.564 C 188.183 750.162, 174.315 766.043, 168.777 775.500 C 168.388 776.164, 204.583 776.480, 276.586 776.440 L 384.981 776.380 392.069 767.940 C 395.967 763.298, 407.307 751.010, 417.269 740.633 C 427.230 730.256, 438.333 718.279, 441.940 714.017 C 445.548 709.755, 450.075 704.977, 452 703.401 C 453.925 701.824, 455.860 699.964, 456.300 699.267 C 456.917 698.289, 463.984 698.008, 487.300 698.034 L 517.500 698.067 513.500 701.207 C 501.430 710.683, 450.746 765.789, 446.438 774.120 L 444.873 777.146 480.187 776.851 L 515.500 776.556 523.500 767.140 C 527.900 761.961, 535.775 753.160, 541 747.581 C 552.729 735.059, 563.911 721.877, 571.198 711.982 C 574.243 707.848, 577.470 703.855, 578.367 703.110 C 579.863 701.869, 580 690.313, 580 565.517 L 580 429.279 574.750 428.648 C 571.862 428.301, 555.909 428.013, 539.298 428.009 L 509.095 428 499.687 416.699 C 494.513 410.484, 487.892 402.046, 484.975 397.949 C 478.177 388.401, 472.017 381.079, 469.771 379.877 C 468.286 379.083, 467.250 380.096, 463.290 386.216 C 460.698 390.222, 454.893 400.250, 450.390 408.500 C 441.666 424.485, 433.573 438.844, 428.211 447.849 C 426.401 450.887, 422.351 458.235, 419.211 464.177 L 413.500 474.981 415.816 479.240 C 417.089 481.583, 421.533 490.025, 425.691 498 C 429.848 505.975, 434.706 514.975, 436.487 518 C 442.731 528.612, 472.765 588.915, 486.291 618 C 488.352 622.431, 504.098 652.101, 511.659 665.799 C 515.697 673.114, 519 679.534, 519 680.066 C 519 680.671, 508.805 680.933, 491.750 680.766 L 464.500 680.500 455.336 663 C 450.295 653.375, 436.387 625.523, 424.427 601.107 C 412.468 576.691, 396.648 545.416, 389.272 531.607 C 381.897 517.798, 373.984 502.675, 371.688 498 L 367.515 489.500 366.886 504.500 C 366.541 512.750, 366.200 534.290, 366.129 552.368 L 366 585.235 362.118 589.118 L 358.235 593 277.368 593.006 C 232.890 593.009, 192.787 593.301, 188.250 593.654 C 178.540 594.410, 178.003 593.693, 183.482 587.293 C 188.465 581.471, 203.400 558.606, 206.122 552.631 C 207.285 550.078, 207.753 549.879, 211.449 550.366 C 215.182 550.857, 298.480 551.476, 316.250 551.145 L 324 551 324 509.970 L 324 468.940 326.507 462.983 C 327.886 459.707, 332.996 450.608, 337.863 442.763 C 345.833 429.915, 358.492 407.399, 376.783 373.536 C 380.337 366.956, 384.247 359.981, 385.472 358.036 C 386.697 356.091, 388.454 353.038, 389.375 351.250 L 391.051 348 367.776 348.058 L 344.500 348.115 339.823 354.308 C 337.250 357.713, 330.998 366.800, 325.927 374.500 C 300.904 412.503, 303.853 409.290, 292.831 410.558 C 289.714 410.917, 284.845 410.891, 282.011 410.502 C 276.051 409.682, 271.721 406.056, 268.199 398.937 L 266.049 394.592 268.672 390.046 C 274.407 380.104, 312.517 325.472, 317.419 320.165 C 323.943 313.101, 319.880 313.480, 387 313.683 C 427.207 313.805, 449.177 314.240, 452.500 314.982 C 460.244 316.710, 472.986 323.377, 478.211 328.435 C 480.802 330.943, 484.773 335.721, 487.035 339.052 C 489.298 342.384, 494.420 349.022, 498.417 353.805 C 507.535 364.713, 521.849 383.343, 524.780 388.119 C 527.653 392.800, 528.930 392.993, 556.500 392.919 C 577.353 392.863, 583.857 392.266, 581.241 390.649 C 580.416 390.139, 580.192 361.458, 580.402 282.977 L 580.688 176 574.094 175.865 C 570.467 175.791, 492.913 175.678, 401.750 175.615 L 236 175.500 236 351.844 M 466.500 223.341 C 446.561 229.969, 436.240 245.121, 437.174 266.394 C 437.506 273.955, 438.093 276.603, 440.634 282 C 446.499 294.455, 455.617 301.842, 469.631 305.492 C 479.141 307.969, 487.720 307.031, 497.543 302.441 C 503.916 299.463, 513.620 289.075, 517.288 281.305 C 520.296 274.931, 520.494 273.834, 520.412 264 C 520.294 249.953, 518.131 244.296, 509.296 234.931 C 499.994 225.070, 494.760 222.728, 481.121 222.325 C 474.159 222.119, 469.122 222.469, 466.500 223.341 M 671 292.753 C 671 296.168, 683.382 309.606, 720.891 346.900 L 757.500 383.300 751.500 382.638 C 748.200 382.274, 720.933 381.686, 690.908 381.331 L 636.315 380.686 635.673 383.093 C 635.320 384.417, 635.322 400.012, 635.677 417.750 L 636.323 450 698.389 450 L 760.456 450 756.478 453.154 C 750.907 457.571, 699.893 508.771, 685.187 524.705 C 674.605 536.171, 673 538.357, 673 541.296 L 673 544.681 696.250 545.338 C 709.038 545.700, 724.099 545.996, 729.720 545.998 L 739.940 546 757.220 529.558 C 774.891 512.744, 866.367 420.320, 868.904 416.717 C 870.220 414.848, 868.492 412.931, 841.320 386.111 C 825.377 370.375, 797.144 342.650, 778.581 324.500 L 744.830 291.500 707.915 291.156 C 671.919 290.820, 671 290.860, 671 292.753 M 626 753.945 C 616.375 754.250, 607.938 754.864, 607.250 755.309 C 606.563 755.754, 606 757.673, 606 759.574 C 606 761.475, 605.251 765.724, 604.335 769.017 C 603.420 772.310, 602.882 775.215, 603.139 775.473 C 603.397 775.730, 623.824 776.067, 648.533 776.220 L 693.459 776.500 695.684 766 C 696.907 760.225, 697.929 754.938, 697.954 754.250 C 698.003 752.923, 662.933 752.774, 626 753.945" stroke="none" fill="#000000" fill-rule="evenodd"/>
</svg>