<svg xmlns="http://www.w3.org/2000/svg" width="1024" height="1024" viewBox="0 0 1024 1024" version="1.1">
	<path d="M 443.378 118.459 C 436.079 122.889, 436 123.202, 436 147.721 C 436 159.707, 436.441 171.051, 436.980 172.931 C 437.519 174.811, 439.179 177.621, 440.667 179.175 L 443.374 182 521.283 182 C 597.819 182, 599.241 181.964, 602.025 179.982 C 603.584 178.872, 605.815 176.418, 606.983 174.527 C 609.009 171.249, 609.093 170.061, 608.804 148.795 C 608.511 127.320, 608.415 126.387, 606.199 123.436 C 604.934 121.750, 602.459 119.500, 600.699 118.436 C 597.622 116.574, 594.639 116.490, 522.500 116.228 L 447.500 115.957 443.378 118.459 M 374 134.886 C 370.975 135.864, 366.642 137.621, 364.370 138.791 C 360.498 140.785, 328.150 172.329, 293 208.387 C 285.025 216.568, 274.079 227.468, 268.675 232.609 L 258.849 241.957 281.314 241.450 L 303.778 240.943 329.532 214.722 C 357.576 186.168, 364.183 179.620, 373.933 170.722 L 380.365 164.852 399.684 165.176 L 419.002 165.500 419.001 149.250 L 419 133 399.250 133.054 C 383.156 133.098, 378.482 133.437, 374 134.886 M 627 149.440 L 627 166.022 645.250 165.373 L 663.500 164.724 687 188.612 C 699.925 201.750, 717.076 219.145, 725.112 227.267 L 739.725 242.033 760.858 241.767 C 772.482 241.620, 781.869 241.126, 781.719 240.668 C 781.295 239.377, 696.299 152.223, 689.177 145.777 C 685.699 142.629, 679.861 138.579, 676.203 136.777 L 669.553 133.500 648.276 133.179 L 627 132.858 627 149.440 M 201.557 258.984 C 198.975 259.484, 196.595 260.889, 194.660 263.055 L 191.705 266.361 192.349 280.431 C 192.703 288.169, 192.994 299.822, 192.996 306.327 C 193 317.898, 193.059 318.213, 195.750 320.884 L 198.500 323.615 523.214 323.557 C 833.563 323.503, 848.007 323.421, 849.714 321.714 C 851.340 320.089, 851.500 317.529, 851.500 293.214 C 851.500 268.061, 851.383 266.343, 849.500 263.818 C 848.400 262.343, 846.375 260.543, 845 259.818 C 842.948 258.736, 785.472 258.475, 524 258.360 C 348.825 258.282, 203.726 258.563, 201.557 258.984 M 778 341.189 C 756.275 341.666, 735.975 341.908, 732.890 341.725 L 727.280 341.393 727.390 549.946 L 727.500 758.500 754.189 758.580 L 780.877 758.660 781.406 752.580 C 781.697 749.236, 782.626 739.300, 783.472 730.500 C 784.994 714.657, 787.932 682.671, 789.992 659.500 C 790.578 652.900, 791.941 639.400, 793.019 629.500 C 794.098 619.600, 796.111 597.887, 797.494 581.249 C 798.876 564.611, 800.430 547.961, 800.947 544.249 C 801.463 540.537, 802.610 527.825, 803.496 516 C 805.205 493.166, 810.693 430.599, 813.949 396.815 C 818.106 353.686, 819.139 339.952, 818.212 340.160 C 817.821 340.248, 799.725 340.711, 778 341.189 M 223.481 344.500 C 224.998 354.060, 226.193 365.111, 228.024 386.500 C 229.154 399.700, 230.496 414.325, 231.005 419 C 231.514 423.675, 232.851 438.525, 233.977 452 C 235.102 465.475, 236.903 484.825, 237.979 495 C 239.055 505.175, 240.867 523.850, 242.005 536.500 C 243.143 549.150, 244.942 568.050, 246.004 578.500 C 247.065 588.950, 248.617 605.600, 249.453 615.500 C 250.289 625.400, 251.861 642.050, 252.946 652.500 C 254.031 662.950, 255.625 681.175, 256.487 693 C 257.349 704.825, 259.168 724.350, 260.528 736.388 C 261.887 748.427, 263 758.327, 263 758.388 C 263 758.450, 274.363 758.500, 288.250 758.500 L 313.500 758.500 313.500 549.632 L 313.500 340.765 268.253 341.132 L 223.005 341.500 223.481 344.500 M 331.385 380.792 C 331.448 402.631, 331.481 489.350, 331.458 573.500 C 331.414 728.677, 331.432 737.662, 331.795 751 L 332 758.500 371.500 758.500 L 411 758.500 411 723.309 C 411 699.841, 411.349 687.902, 412.049 687.470 C 413.663 686.472, 411.291 684.181, 405.723 681.359 C 398.441 677.669, 393.347 672.460, 383.430 658.562 C 373.572 644.746, 350.319 607.436, 346.528 599.349 C 341.566 588.766, 339.793 581.795, 339.262 570.784 C 338.748 560.102, 338.757 560.043, 342.321 552.539 C 346.725 543.266, 354.480 531.137, 356.500 530.362 C 357.325 530.045, 358 529.227, 358 528.543 C 358 527.338, 350.979 520.916, 342.220 514.110 C 336.718 509.835, 335 506.397, 335 499.660 C 335 491.360, 336.043 490.649, 352 488.075 C 359.425 486.877, 373.375 485.468, 383 484.944 C 399.869 484.026, 408 482.786, 408 481.134 C 408 479.732, 403.603 476.414, 399.250 474.533 C 396.913 473.523, 395 472.525, 395 472.315 C 395 470.894, 401.158 460.213, 405.736 453.693 C 408.866 449.236, 411.256 444.731, 411.308 443.193 C 411.358 441.712, 411.309 418.104, 411.200 390.731 L 411 340.962 371.135 341.023 L 331.270 341.083 331.385 380.792 M 429.058 370.838 C 429.089 387.152, 429.427 402.225, 429.808 404.332 L 430.500 408.165 435.252 401.688 C 449.875 381.759, 465.553 374.396, 495.750 373.278 L 511 372.713 511 356.821 L 511 340.930 470 341.053 L 429 341.176 429.058 370.838 M 529.003 357.127 L 529 372.755 550.250 373.231 C 569.753 373.668, 572.044 373.910, 578.120 376.182 C 590.317 380.743, 599.463 387.699, 605.745 397.191 C 607.132 399.286, 608.597 401, 609.002 401 C 610.500 401, 610.978 392.852, 610.989 367.122 L 611 340.743 570.003 341.122 L 529.006 341.500 529.003 357.127 M 629.224 378.500 C 629.464 410.714, 629.694 415.472, 631 415.284 C 631.825 415.165, 638.528 414.152, 645.896 413.034 C 662.986 410.439, 665 410.429, 665 412.933 C 665 413.996, 661.790 421.533, 657.867 429.683 C 653.943 437.832, 649.282 447.877, 647.509 452.005 C 645.736 456.133, 641.971 464.008, 639.141 469.505 L 633.997 479.500 637.529 479.812 C 639.471 479.984, 643.479 479.421, 646.434 478.562 C 653.523 476.501, 653.553 476.507, 655.052 480.125 C 655.764 481.844, 658.210 485.782, 660.487 488.875 C 667.576 498.506, 694.219 541.069, 698.749 550 C 702.599 557.591, 703.121 559.463, 703.636 567.500 C 704.653 583.364, 701.974 590.639, 682.095 626 C 672.469 643.122, 668.287 650.115, 657.711 666.781 C 652.589 674.852, 646.275 680.453, 636.399 685.686 L 628.500 689.872 628.776 724.186 L 629.052 758.500 669.632 758.500 L 710.211 758.500 709.864 549.770 L 709.516 341.040 669.232 341.270 L 628.948 341.500 629.224 378.500 M 495.500 391.860 C 500.926 395.212, 511.413 406.354, 516.992 414.697 L 522.473 422.893 524.310 418.197 C 526.573 412.407, 530.984 406.633, 537.350 401.127 C 542.342 396.809, 550.568 392.134, 553.717 391.825 C 558.023 391.402, 529.753 390.259, 512 390.139 C 492.628 390.008, 492.520 390.020, 495.500 391.860 M 571.863 394.750 C 571.664 395.261, 567.811 397.589, 563.303 399.923 C 554.276 404.598, 545.030 412.510, 536.932 422.491 C 533.925 426.197, 530.865 429, 529.825 429 C 528.427 429, 528 429.772, 528 432.299 C 528 434.787, 530.726 439.878, 539.079 452.989 C 545.173 462.554, 551.216 472.466, 552.508 475.016 L 554.858 479.653 549.679 482.229 C 546.831 483.646, 541.823 487.212, 538.551 490.153 L 532.603 495.500 538.051 496.151 C 541.048 496.509, 558.618 496.847, 577.095 496.901 L 610.691 497 613.453 487.750 C 617.535 474.082, 625.138 457.044, 633.122 443.675 C 637.006 437.171, 640.027 431.694, 639.836 431.503 C 639.263 430.929, 620.748 436.544, 617.300 438.336 C 613.964 440.070, 610 440.557, 610 439.232 C 610 437.930, 590.671 405.211, 587.712 401.504 C 586.179 399.584, 583.689 397.373, 582.178 396.592 C 578.511 394.696, 572.317 393.589, 571.863 394.750 M 461.280 397.971 C 459.509 399.050, 456.658 401.861, 454.945 404.217 C 450.600 410.189, 437.119 432.958, 428.776 448.415 C 424.930 455.541, 420.635 463.106, 419.232 465.226 C 417.740 467.481, 417.058 469.428, 417.590 469.917 C 418.091 470.377, 425.250 474.794, 433.500 479.732 C 441.750 484.670, 453.875 491.992, 460.444 496.004 C 471.821 502.951, 472.454 503.207, 473.773 501.399 C 474.535 500.354, 478.308 494.100, 482.158 487.500 C 490.090 473.903, 490.719 472.898, 501.416 456.744 C 505.697 450.278, 510.317 444.109, 511.681 443.036 L 514.163 441.084 506.339 427.921 C 497.035 412.268, 491.116 406.283, 480 401.291 C 475.875 399.439, 471.719 397.490, 470.764 396.962 C 468.076 395.473, 464.806 395.821, 461.280 397.971 M 519.670 460.250 C 518.912 461.488, 516.815 465.191, 515.008 468.480 C 513.202 471.769, 510.073 476.719, 508.056 479.480 C 504.371 484.524, 498.355 494.359, 489.485 509.838 C 486.857 514.423, 484.032 518.434, 483.206 518.751 C 482.381 519.068, 480.309 518.766, 478.603 518.079 C 476.896 517.393, 473.363 516.235, 470.750 515.506 L 466 514.181 466 517.395 C 466 520.788, 469.700 527.357, 475.814 534.818 L 479.365 539.151 474.745 543.100 C 470.100 547.070, 461.646 557.916, 458.591 563.825 C 457.688 565.571, 456.173 567.001, 455.224 567.002 C 452.734 567.004, 441.951 585.283, 443.515 586.849 C 443.873 587.207, 459.193 587.654, 477.560 587.841 L 510.956 588.182 511.228 547.341 C 511.435 516.213, 511.189 505.311, 510.194 501.500 C 508.430 494.749, 509.179 488.508, 512.134 485.337 C 514.714 482.568, 526.971 476, 529.558 476 C 530.443 476, 531.011 475.663, 530.821 475.250 C 526.714 466.348, 522.337 458.005, 521.773 458.003 C 521.373 458.001, 520.427 459.012, 519.670 460.250 M 640.500 497.517 C 638.300 499.410, 633.800 502.374, 630.500 504.105 C 620.626 509.284, 590.026 528.428, 590.013 529.436 C 590.006 529.950, 590.861 531.300, 591.914 532.436 C 593.885 534.561, 607.505 556.583, 621.022 579.500 L 628.689 592.500 645.595 592.125 C 664.419 591.707, 669.582 590.488, 677.228 584.657 C 682.332 580.764, 686.500 573.040, 686.500 567.475 C 686.500 563.153, 683.072 556.538, 670.708 537 C 657.907 516.772, 649.696 503.308, 647.380 498.750 C 646.052 496.137, 644.861 494.017, 644.733 494.038 C 644.605 494.058, 642.700 495.624, 640.500 497.517 M 424.500 500.171 C 417.720 501.863, 412.001 502.244, 387 502.669 C 370.775 502.945, 357.148 503.507, 356.717 503.918 C 355.102 505.461, 357.257 507.664, 364.639 512.016 C 368.822 514.482, 373.837 517.876, 375.784 519.559 L 379.324 522.620 376.263 529.098 C 374.580 532.662, 369.558 541.402, 365.103 548.521 C 360.648 555.641, 356.710 563.031, 356.351 564.944 C 355.519 569.378, 357.486 576.803, 360.312 579.892 C 364.649 584.634, 373.916 589.758, 382.225 592.008 C 389.575 593.999, 391.875 594.174, 402.802 593.573 C 409.568 593.202, 415.698 592.669, 416.425 592.391 C 417.151 592.112, 419.014 589.547, 420.564 586.692 C 422.114 583.836, 424.984 578.945, 426.941 575.821 C 428.899 572.698, 432.525 566.469, 435 561.978 C 441.060 550.984, 442.708 549.156, 450.750 544.515 L 457.656 540.530 451.150 532.015 C 445.107 524.107, 437.915 510.580, 435.058 501.750 C 434.391 499.688, 433.542 498.039, 433.172 498.087 C 432.803 498.135, 428.900 499.072, 424.500 500.171 M 528.798 526.750 C 528.548 534.862, 528.552 553.688, 528.807 568.583 C 529.175 590.127, 529.540 595.667, 530.591 595.667 C 531.318 595.667, 531.694 595.314, 531.428 594.884 C 530.781 593.836, 534.835 591.723, 536.364 592.309 C 538.601 593.168, 543.828 589.535, 547.598 584.500 C 554.466 575.328, 562.280 566.854, 567.507 562.907 C 571.808 559.660, 573.471 559, 577.356 559 C 581.549 559, 582.231 559.331, 583.990 562.225 C 585.069 563.998, 586.441 567.936, 587.039 570.975 C 587.637 574.014, 588.786 578.862, 589.591 581.750 L 591.056 587 595.946 587 C 598.636 587, 601.548 587.273, 602.418 587.607 C 603.318 587.952, 604 587.697, 604 587.015 C 604 584.362, 583.236 549.270, 573.172 534.917 C 565.920 524.573, 565.771 525.491, 575.872 518.251 L 582.500 513.500 571.500 512.877 C 565.450 512.535, 553.469 512.197, 544.876 512.127 L 529.252 512 528.798 526.750 M 566.840 582.685 C 558.836 595.452, 541.704 620.473, 533.285 631.691 L 524.887 642.882 529.943 649.191 C 536.208 657.006, 549.882 675.917, 559.814 690.499 C 563.935 696.550, 568.314 702.714, 569.545 704.198 L 571.783 706.895 572.525 701.198 C 572.933 698.064, 573.545 690.550, 573.884 684.500 L 574.500 673.500 600 673 C 628.671 672.438, 628.783 672.410, 636.378 664.003 C 640.770 659.142, 641.440 656.645, 640.645 648.094 C 639.800 639, 637.811 632.853, 633.400 625.708 C 631.359 622.401, 628.910 617.176, 627.958 614.098 L 626.226 608.500 600.613 608.233 L 575 607.966 574.868 603.733 C 574.349 587.022, 573.379 576.619, 572.306 576.265 C 571.650 576.048, 569.190 578.937, 566.840 582.685 M 529.122 598.772 C 528.466 599.998, 528.152 601, 528.423 601 C 528.694 601, 527.585 603.967, 525.958 607.593 C 522.435 615.447, 522.371 615.879, 525.106 613.405 C 527.234 611.481, 531.512 604, 530.485 604 C 530.180 604, 530.339 603.212, 530.839 602.250 C 531.339 601.288, 531.426 599.610, 531.031 598.522 C 530.336 596.605, 530.278 596.613, 529.122 598.772 M 367.723 600.750 C 368.723 603.401, 374.833 613.763, 379.351 620.470 C 381.563 623.753, 385.501 630.468, 388.102 635.392 L 392.830 644.344 393.950 639.922 C 395.694 633.039, 397.940 627.308, 403.003 616.826 L 407.675 607.152 399.087 606.506 C 389.864 605.811, 375.199 602.637, 370.800 600.383 C 367.305 598.593, 366.926 598.638, 367.723 600.750 M 670.872 603.591 C 666.615 605.379, 661.989 606.203, 651.872 606.975 C 644.518 607.536, 637.600 608.003, 636.500 608.013 C 635.296 608.024, 634.945 608.323, 635.619 608.765 C 638.323 610.541, 648.700 628.056, 650.426 633.756 C 651.466 637.190, 652.583 639.999, 652.908 639.998 C 653.674 639.996, 659.316 631.517, 661.558 627 C 662.513 625.075, 665.409 620.350, 667.993 616.500 C 675.346 605.544, 678.089 600.990, 677.263 601.113 C 676.843 601.176, 673.968 602.291, 670.872 603.591 M 423.721 610.617 C 422.336 613.302, 418.255 620.645, 414.651 626.932 C 407.619 639.201, 406.334 643.954, 407.206 654.469 C 407.769 661.265, 411.479 666.422, 417.892 669.323 C 422.033 671.196, 425.187 671.479, 449 672.115 C 463.575 672.505, 481.913 672.863, 489.750 672.912 L 504 673 504 640 L 504 607 471.750 606.993 C 454.012 606.989, 436.516 606.704, 432.870 606.359 L 426.239 605.733 423.721 610.617 M 528.453 680.390 C 528.754 683.079, 529.001 701.754, 529.001 721.890 L 529.003 758.500 570.002 758.500 L 611.001 758.500 611 724.857 C 611 695.102, 610.817 691.144, 609.418 690.607 C 608.548 690.273, 603.661 690, 598.558 690 L 589.280 690 588.777 706.577 C 588.404 718.896, 587.918 723.490, 586.887 724.462 C 586.124 725.182, 581.967 726.538, 577.649 727.476 L 569.799 729.181 566.869 726.375 C 565.258 724.831, 559.924 717.928, 555.016 711.034 C 550.108 704.140, 542.776 694.375, 538.723 689.333 C 534.671 684.292, 530.579 679.117, 529.631 677.833 C 527.932 675.534, 527.915 675.571, 528.453 680.390 M 429 724.239 L 429.001 758.500 469.373 758.500 L 509.745 758.500 510.367 743 C 510.710 734.475, 511.068 719.175, 511.163 709 L 511.336 690.500 470.168 690.239 L 429 689.978 429 724.239 M 264.639 789.684 C 266.215 807.737, 266.574 809.354, 270.815 817.500 C 275.722 826.925, 287.200 838.379, 296.073 842.705 C 310.464 849.720, 312.305 849.924, 364.250 850.227 L 411.001 850.500 410.999 813.500 L 410.997 776.500 337.226 776.314 L 263.455 776.129 264.639 789.684 M 429.145 812.669 C 429.343 832.562, 429.818 849.151, 430.201 849.535 C 431.029 850.363, 610.972 850.892, 611.407 850.067 C 611.571 849.755, 611.490 833.075, 611.226 813 L 610.747 776.500 519.766 776.500 L 428.785 776.500 429.145 812.669 M 629.003 813.250 L 629 850 677.250 849.994 C 709.196 849.991, 726.852 849.618, 729.500 848.890 C 736.259 847.034, 749.337 840.350, 755.979 835.357 C 763.047 830.043, 772.616 816.683, 775.437 808.188 C 776.990 803.515, 778.594 792.019, 779.161 781.500 L 779.430 776.500 704.218 776.500 L 629.005 776.500 629.003 813.250" stroke="none" fill="#000000" fill-rule="evenodd"/>
</svg>