<svg xmlns="http://www.w3.org/2000/svg" width="1024" height="1024" viewBox="0 0 1024 1024" version="1.1">
	<path d="M 330.002 232.250 C 330.003 290.138, 330.299 349.941, 330.660 365.147 L 331.317 392.795 511.499 392.946 L 691.682 393.097 692.341 376.389 C 693.196 354.706, 693.199 158.475, 692.345 140.658 L 691.690 127 510.845 127 L 330 127 330.002 232.250 M 168.999 141.250 L 169 146 198.750 145.986 C 215.113 145.979, 229.536 145.695, 230.803 145.356 C 232.749 144.835, 233.058 144.180, 232.803 141.120 L 232.500 137.500 200.749 137 L 168.999 136.500 168.999 141.250 M 245 141.500 L 245 146 277.924 146 L 310.847 146 310.674 141.500 L 310.500 137 277.750 137 L 245 137 245 141.500 M 713 141.750 L 713 146 746 146 L 779 146 779 142.115 L 779 138.230 773.469 137.539 C 770.426 137.159, 755.576 136.995, 740.469 137.174 L 713 137.500 713 141.750 M 791.667 137.667 C 791.300 138.033, 791 140.058, 791 142.167 L 791 146 824.500 146 L 858 146 858 141.500 L 858 137 825.167 137 C 807.108 137, 792.033 137.300, 791.667 137.667 M 146.914 149.787 C 143.386 153.520, 136.073 161.653, 130.662 167.862 C 120.936 179.022, 120.846 179.173, 122.662 181.246 C 123.857 182.610, 123.975 183.031, 123 182.450 C 120.219 180.793, 119.233 181.195, 114.650 185.855 C 109.864 190.720, 108.597 195.180, 112.273 194.218 C 113.301 193.949, 115.442 194.690, 117.031 195.865 C 120.427 198.376, 122 198.577, 122 196.500 C 122 195.500, 123 195, 125 195 C 127.682 195, 128.497 194.150, 128.118 191.750 C 127.906 190.405, 130.196 190.958, 133.632 193.082 C 136.492 194.849, 137 194.925, 137 193.582 C 137 192.531, 137.923 191.989, 139.750 191.968 C 142.893 191.932, 145.308 190.340, 146.324 187.636 C 146.828 186.295, 147.723 185.905, 149.512 186.247 C 152.260 186.772, 152.649 186.088, 150.750 184.075 C 149.741 183.006, 149.789 182.837, 151 183.203 C 151.904 183.475, 152.738 185.413, 153.100 188.078 C 153.430 190.510, 153.767 181.363, 153.850 167.750 C 153.932 154.137, 153.849 143, 153.664 143 C 153.479 143, 150.442 146.054, 146.914 149.787 M 872.645 149.279 C 872.300 152.150, 872.013 163.788, 872.009 175.141 L 872 195.781 875.250 196.317 C 877.038 196.612, 880.750 197.531, 883.500 198.359 C 887.907 199.687, 888.144 199.887, 885.500 200.051 L 882.500 200.237 885.500 200.901 C 887.150 201.266, 888.650 201.212, 888.833 200.782 C 889.017 200.352, 889.992 200, 891.002 200 C 893.904 200, 896 198.907, 896 197.393 C 896 196.627, 896.450 196, 897 196 C 897.550 196, 898 195.100, 898 194 C 898 192.444, 898.667 192, 901 192 C 903.833 192, 904 191.778, 904 188 C 904 184.993, 903.601 184, 902.393 184 C 901.334 184, 900.994 183.457, 901.397 182.407 C 902.849 178.625, 903.087 176.172, 902.065 175.540 C 901.461 175.167, 901.269 174.373, 901.638 173.776 C 902.039 173.129, 901.844 172.979, 901.155 173.405 C 900.507 173.805, 899.998 173.543, 899.995 172.809 C 899.990 171.271, 894.332 165, 892.949 165 C 892.427 165, 892.112 164.631, 892.250 164.179 C 892.571 163.124, 879.421 148.436, 875.929 145.949 L 873.272 144.057 872.645 149.279 M 504.250 147.750 L 351 148.006 351 260.503 L 351 373 511 373 L 671 373 671.085 319.750 C 671.131 290.462, 671.359 239.613, 671.589 206.750 L 672.009 147 664.755 147.247 C 660.765 147.383, 588.538 147.609, 504.250 147.750 M 176.750 152.743 L 169 153.084 169.003 156.292 L 169.005 159.500 201.076 159.886 L 233.147 160.271 232.823 156.886 L 232.500 153.500 225 152.881 C 217.168 152.234, 190.085 152.157, 176.750 152.743 M 807.250 152.761 L 792 153.052 792 156.345 L 792 159.638 819.250 159.808 C 851.240 160.007, 858.007 159.543, 857.985 157.152 C 857.976 156.243, 857.639 155.006, 857.235 154.401 C 856.392 153.141, 830.989 152.307, 807.250 152.761 M 246 155.500 C 246 156.875, 245.887 158.286, 245.750 158.635 C 245.456 159.383, 309.843 159.490, 310.590 158.743 C 310.869 158.464, 310.802 157.058, 310.440 155.618 L 309.783 153 277.892 153 L 246 153 246 155.500 M 713.004 156.236 L 713.008 159.500 746.076 159.864 L 779.144 160.228 778.822 156.864 L 778.500 153.500 745.750 153.236 L 713 152.973 713.004 156.236 M 168.630 167.250 C 167.305 172.195, 165.996 172, 200.500 172 L 233 172 233 169.475 C 233 167.685, 232.254 166.667, 230.435 165.975 C 228.980 165.422, 215.181 165, 198.552 165 L 169.233 165 168.630 167.250 M 245.667 165.667 C 245.300 166.033, 245 167.608, 245 169.167 L 245 172 277.500 172 L 310 172 310 169.131 C 310 166.592, 309.568 166.190, 306.250 165.642 C 301.183 164.804, 246.507 164.827, 245.667 165.667 M 713 168.343 L 713 172 746 172 L 779 172 779 169.559 C 779 168.216, 778.606 166.874, 778.123 166.576 C 777.641 166.278, 762.791 165.731, 745.123 165.360 L 713 164.686 713 168.343 M 792 168.462 L 792 172.027 824.750 171.764 L 857.500 171.500 857.228 169.062 C 857.079 167.721, 856.705 166.371, 856.397 166.062 C 856.088 165.753, 841.473 165.364, 823.918 165.198 L 792 164.896 792 168.462 M 191.250 177.769 L 169 178.038 169 180.920 L 169 183.802 186.250 184.151 C 195.738 184.343, 210.137 184.345, 218.250 184.156 L 233 183.812 233 180.906 C 233 178.185, 232.730 177.987, 228.750 177.802 C 221.996 177.488, 214.993 177.482, 191.250 177.769 M 245.634 180.236 C 245.300 181.481, 245.021 182.838, 245.014 183.250 C 245.006 183.662, 259.655 184, 277.566 184 L 310.133 184 309.816 181.250 L 309.500 178.500 277.870 178.236 L 246.241 177.972 245.634 180.236 M 713.667 178.667 C 713.300 179.033, 713 180.311, 713 181.507 C 713 183.666, 713.170 183.684, 738.933 184.309 C 765.754 184.959, 778.006 184.454, 779.180 182.652 C 779.554 182.078, 779.426 180.796, 778.895 179.804 C 777.996 178.123, 775.754 178, 746.131 178 C 728.643 178, 714.033 178.300, 713.667 178.667 M 792 180.840 L 792 183.679 817.750 184.313 C 831.913 184.661, 846.763 184.668, 850.750 184.328 C 857.417 183.760, 858 183.529, 858 181.462 C 858 180.226, 857.288 178.941, 856.418 178.607 C 855.548 178.273, 840.698 178, 823.418 178 L 792 178 792 180.840 M 114.988 187.513 C 113.039 189.588, 112.859 190.242, 113.960 191.263 C 115.026 192.252, 115.143 192.235, 114.542 191.176 C 114.086 190.373, 114.687 188.897, 116.070 187.426 C 117.323 186.092, 118.124 185, 117.849 185 C 117.574 185, 116.286 186.131, 114.988 187.513 M 118.138 190.333 C 117.311 191.330, 117.365 191.667, 118.349 191.667 C 119.074 191.667, 119.667 191.067, 119.667 190.333 C 119.667 189.600, 119.572 189, 119.456 189 C 119.340 189, 118.747 189.600, 118.138 190.333 M 169 192.847 L 169 195.693 190.134 196.270 C 215.962 196.975, 233 196.244, 233 194.432 C 233 189.917, 233.610 190, 200.393 190 L 169 190 169 192.847 M 246 192.854 L 246 195.736 268.448 196.465 C 280.794 196.866, 295.219 196.870, 300.502 196.474 L 310.109 195.754 309.805 193.127 L 309.500 190.500 277.750 190.236 L 246 189.972 246 192.854 M 713 193 L 713 196 746 196 C 777.111 196, 779 195.897, 779 194.200 C 779 190.143, 777.834 190, 744.800 190 L 713 190 713 193 M 792 193 L 792 196 825.117 196 L 858.233 196 857.630 193.750 C 857.299 192.512, 857.021 191.162, 857.014 190.750 C 857.006 190.338, 842.375 190, 824.500 190 L 792 190 792 193 M 106.020 194.476 C 105.324 195.314, 105.121 196, 105.569 196 C 106.016 196, 105.509 196.700, 104.441 197.555 C 102.620 199.014, 102.655 199.032, 105 197.843 C 106.375 197.146, 107.796 196.657, 108.157 196.757 C 108.918 196.967, 108.659 194.326, 107.838 193.505 C 107.534 193.201, 106.716 193.638, 106.020 194.476 M 109.250 197.496 C 107.579 199.394, 107.674 199.871, 109.667 199.578 C 110.584 199.444, 111.444 198.584, 111.578 197.667 C 111.875 195.647, 110.938 195.579, 109.250 197.496 M 102 201 C 101.099 201.582, 100.975 201.975, 101.691 201.985 C 102.346 201.993, 103.160 201.550, 103.500 201 C 104.267 199.758, 103.921 199.758, 102 201 M 98.553 202.915 C 98.231 203.436, 98.394 204.125, 98.915 204.447 C 99.436 204.769, 100.125 204.606, 100.447 204.085 C 100.769 203.564, 100.606 202.875, 100.085 202.553 C 99.564 202.231, 98.875 202.394, 98.553 202.915 M 170.250 202.662 C 169.563 202.940, 169.001 204.367, 169.003 205.833 L 169.005 208.500 200.753 208.500 L 232.500 208.500 232.804 205.881 C 233.038 203.858, 232.583 203.121, 230.804 202.644 C 228.074 201.913, 172.066 201.930, 170.250 202.662 M 245.810 204.841 L 245.390 207.701 261.855 208.351 C 285.832 209.296, 306.859 209.146, 308.976 208.013 C 310.180 207.368, 310.637 206.328, 310.293 205.013 C 309.802 203.135, 308.917 202.995, 297.133 202.918 C 290.185 202.873, 275.889 202.644, 265.365 202.408 L 246.230 201.980 245.810 204.841 M 714.250 202.662 C 713.563 202.940, 713 204.185, 713 205.430 C 713 207.620, 713.388 207.714, 725.157 208.346 C 740.638 209.179, 758.153 209.180, 769.846 208.350 C 778.459 207.739, 779 207.568, 779 205.467 C 779 203.996, 778.232 203.027, 776.750 202.630 C 774.057 201.909, 716.044 201.938, 714.250 202.662 M 791.809 204.850 L 791.390 207.700 808.445 208.347 C 830.101 209.168, 850.845 209.181, 854.875 208.375 C 857.268 207.896, 858 207.221, 858 205.492 C 858 203.995, 857.241 203.030, 855.750 202.630 C 854.513 202.299, 839.714 202.021, 822.863 202.014 L 792.227 202 791.809 204.850 M 93.924 208.750 L 91.500 211.500 94.074 209.241 C 95.490 207.998, 97.025 207.323, 97.485 207.741 C 97.944 208.158, 97.997 207.938, 97.601 207.250 C 96.654 205.605, 96.721 205.578, 93.924 208.750 M 88.405 214.250 C 86.502 216.498, 86.502 216.499, 88.581 214.748 C 89.726 213.784, 91.035 213.334, 91.491 213.748 C 91.948 214.162, 91.997 213.938, 91.601 213.250 C 90.660 211.615, 90.628 211.625, 88.405 214.250 M 168.808 217.520 L 168.402 221 198.451 220.986 C 214.978 220.979, 229.525 220.698, 230.778 220.362 C 232.551 219.887, 232.912 219.281, 232.404 217.626 C 232.045 216.457, 231.583 215.313, 231.377 215.085 C 231.171 214.856, 217.100 214.528, 200.108 214.355 L 169.214 214.041 168.808 217.520 M 249.750 214.728 C 246.283 215.091, 246 215.361, 245.999 218.310 L 245.998 221.500 277.918 221 C 295.473 220.725, 310.135 220.201, 310.499 219.836 C 310.864 219.470, 310.696 218.301, 310.126 217.236 C 309.295 215.683, 307.572 215.173, 301.395 214.651 C 293.446 213.979, 256.384 214.035, 249.750 214.728 M 713.002 217.650 L 713 220.799 744.750 220.910 C 762.212 220.970, 777.107 220.624, 777.848 220.140 C 778.590 219.656, 779.035 218.419, 778.837 217.391 C 778.283 214.517, 771.757 213.980, 740.752 214.254 L 713.005 214.500 713.002 217.650 M 791.820 217.420 L 791.399 221.026 824.436 220.763 C 852.880 220.537, 857.510 220.291, 857.735 219 C 858.499 214.629, 857.730 214.518, 824.157 214.157 L 792.241 213.813 791.820 217.420 M 174.250 226.737 C 169.548 227.066, 169 227.344, 169 229.401 L 169 231.697 192.458 232.404 C 205.360 232.793, 219.760 232.799, 224.458 232.418 C 232.405 231.773, 233 231.570, 233 229.507 C 233 227.499, 232.363 227.229, 226.250 226.652 C 219.407 226.005, 183.875 226.064, 174.250 226.737 M 249.250 226.648 C 246.507 227.052, 246 227.546, 246.003 229.813 L 246.006 232.500 274.842 232.865 C 290.702 233.065, 305.100 232.917, 306.839 232.535 C 309.325 231.989, 310 231.324, 310 229.421 C 310 227.033, 309.874 227, 300.661 227 C 295.524 227, 282.587 226.813, 271.911 226.585 C 261.235 226.357, 251.037 226.385, 249.250 226.648 M 719.855 226.739 C 714.033 227.044, 713.141 227.354, 712.645 229.250 C 712.334 230.439, 712.243 231.576, 712.443 231.777 C 713.299 232.632, 754.592 233.218, 766.250 232.540 C 778.643 231.819, 779 231.735, 779 229.516 C 779 227.994, 778.250 227.032, 776.750 226.630 C 774.471 226.019, 732.068 226.101, 719.855 226.739 M 793.412 226.765 C 792.814 227.169, 792.082 228.463, 791.785 229.640 C 791.247 231.773, 791.336 231.783, 817.457 232.508 C 831.874 232.909, 846.919 232.910, 850.890 232.511 C 857.517 231.845, 858.086 231.610, 857.806 229.643 C 857.563 227.940, 856.576 227.361, 853 226.824 C 846.856 225.901, 794.768 225.850, 793.412 226.765 M 246 241.553 L 246 244.692 270.750 245.244 C 284.363 245.548, 298.762 245.557, 302.750 245.264 C 309.585 244.762, 310 244.594, 310 242.334 C 310 241.016, 309.438 239.755, 308.750 239.531 C 308.063 239.308, 293.663 238.965, 276.750 238.769 L 246 238.413 246 241.553 M 169 241.887 L 169 244.773 195.451 245.508 C 224.487 246.314, 233.516 245.786, 232.576 243.337 C 232.259 242.512, 232 241.198, 232 240.418 C 232 239.224, 227.026 239, 200.500 239 L 169 239 169 241.887 M 712.787 242 L 712.346 245 729.423 245.045 C 754.097 245.111, 778.391 244.943, 778.623 244.705 C 778.733 244.592, 778.586 243.262, 778.295 241.750 L 777.767 239 745.497 239 L 713.227 239 712.787 242 M 792 242 L 792 245 813.750 245.217 C 834.690 245.426, 857.178 245.062, 857.799 244.504 C 857.963 244.357, 857.802 243.058, 857.440 241.618 L 856.783 239 824.392 239 L 792 239 792 242 M 172.250 251.716 C 169.585 252.053, 169 252.565, 169 254.563 L 169 257 201.066 257 L 233.133 257 232.816 254.250 L 232.500 251.500 204 251.403 C 188.325 251.349, 174.037 251.490, 172.250 251.716 M 247.250 251.655 C 246.563 251.936, 246 253.254, 246 254.583 L 246 257 278.066 257 L 310.133 257 309.816 254.250 L 309.500 251.500 279 251.322 C 262.225 251.223, 247.938 251.373, 247.250 251.655 M 716.250 251.716 C 713.585 252.053, 713 252.565, 713 254.563 L 713 257 745.566 257 L 778.133 257 777.816 254.250 L 777.500 251.500 748.500 251.403 C 732.550 251.349, 718.038 251.490, 716.250 251.716 M 794.250 251.706 C 792.653 252.013, 792 252.844, 792 254.570 L 792 257 824.383 257 C 855.451 257, 856.787 256.922, 857.268 255.084 C 857.543 254.031, 857.281 252.681, 856.684 252.084 C 855.630 251.030, 799.523 250.690, 794.250 251.706 M 191.040 263.769 L 169 264.038 169 266.983 L 169 269.927 201 269.971 C 230.882 270.012, 232.999 269.898, 232.985 268.257 C 232.976 267.291, 232.639 265.985, 232.235 265.356 C 231.295 263.893, 219.169 263.426, 191.040 263.769 M 246.007 266.750 L 246 270 273.250 269.901 C 288.238 269.847, 302.805 269.509, 305.622 269.151 C 310.419 268.541, 310.690 268.357, 309.904 266.250 C 308.927 263.632, 308.137 263.579, 269.257 263.529 L 246.013 263.500 246.007 266.750 M 713 266.785 L 713 270.070 746.078 269.959 C 775.098 269.862, 779.085 269.664, 778.578 268.342 C 778.260 267.514, 778 266.210, 778 265.445 C 778 264.291, 772.463 264.006, 745.500 263.777 L 712.999 263.500 713 266.785 M 791.999 266.824 L 792 270.147 824.418 269.824 C 842.248 269.646, 857.134 269.201, 857.499 268.836 C 857.864 268.470, 857.666 267.245, 857.060 266.113 C 855.988 264.110, 855.095 264.047, 823.979 263.777 L 791.999 263.500 791.999 266.824 M 733 275.984 C 713.717 276.494, 713.496 276.525, 713.180 278.750 L 712.861 281 745.930 281 C 779.642 281, 780.572 280.896, 778.235 277.401 C 777.262 275.947, 757.638 275.333, 733 275.984 M 169.681 276.653 C 169.306 277.027, 169 278.158, 169 279.167 C 169 280.906, 170.638 281, 201.070 281 L 233.139 281 232.820 278.750 L 232.500 276.500 201.431 276.236 C 184.343 276.091, 170.055 276.278, 169.681 276.653 M 246 278.500 L 246 281 275.750 280.986 C 292.113 280.979, 306.512 280.701, 307.750 280.370 C 309.073 280.015, 310 278.991, 310 277.883 C 310 276.078, 308.673 276, 278 276 L 246 276 246 278.500 M 792 278.500 L 792 281 823.750 280.985 C 841.212 280.976, 856.128 280.572, 856.896 280.086 C 857.663 279.600, 858.015 278.481, 857.677 277.601 C 857.131 276.178, 853.437 276, 824.531 276 L 792 276 792 278.500 M 180.250 288.672 L 169 289.066 169 292.547 L 169 296.028 201.250 295.764 C 233.091 295.503, 233.504 295.474, 233.798 293.412 C 234.370 289.414, 232.184 288.945, 211.355 288.604 C 200.435 288.424, 186.438 288.455, 180.250 288.672 M 713.003 291.250 C 713.002 292.762, 713.112 294.208, 713.250 294.461 C 713.733 295.352, 757.626 296.130, 768.805 295.445 L 780.109 294.753 779.805 292.139 C 779.359 288.311, 775.855 287.947, 742.253 288.243 L 713.007 288.500 713.003 291.250 M 791.794 291.637 C 791.574 293.520, 791.606 295.272, 791.864 295.531 C 792.572 296.239, 838.372 296.094, 848.846 295.350 C 856.602 294.800, 858 294.437, 858 292.973 C 858 292.022, 857.419 290.763, 856.710 290.174 C 855.879 289.485, 844.159 288.945, 823.807 288.658 L 792.194 288.213 791.794 291.637 M 246 292.612 L 246 296.224 277.925 295.853 C 295.484 295.650, 310.182 295.151, 310.588 294.746 C 310.993 294.340, 310.811 292.882, 310.184 291.504 L 309.043 289 277.521 289 L 246 289 246 292.612 M 169.917 301.500 C 169.872 301.500, 169.641 302.672, 169.403 304.103 L 168.971 306.707 192.303 307.420 C 205.136 307.813, 219.565 307.815, 224.369 307.425 C 232.497 306.766, 233.081 306.571, 232.801 304.608 C 232.504 302.528, 232.091 302.493, 201.249 302 C 184.061 301.725, 169.962 301.500, 169.917 301.500 M 246.004 304.102 L 246.009 307.500 266.874 307.868 C 278.350 308.070, 292.749 307.908, 298.870 307.508 C 309.737 306.799, 310 306.725, 310 304.391 L 310 302 286.250 301.994 C 273.188 301.991, 258.788 301.699, 254.250 301.346 L 246 300.704 246.004 304.102 M 713 304.171 L 713 307.027 745.750 306.764 C 777.876 306.505, 778.493 306.462, 778.155 304.500 C 777.965 303.400, 777.657 302.342, 777.470 302.149 C 777.284 301.956, 762.701 301.689, 745.065 301.556 L 713 301.315 713 304.171 M 792 304.510 L 792 307.520 824.644 307.283 C 842.598 307.152, 857.458 306.876, 857.665 306.668 C 857.873 306.460, 857.654 305.240, 857.179 303.956 L 856.316 301.621 824.158 301.561 L 792 301.500 792 304.510 M 245.998 316.844 L 246 320.189 277.917 319.844 C 295.472 319.655, 310.108 319.227, 310.441 318.893 C 310.774 318.559, 310.763 317.547, 310.417 316.643 C 309.876 315.234, 307.773 314.984, 295.643 314.886 C 287.864 314.824, 273.512 314.486, 263.748 314.136 L 245.997 313.500 245.998 316.844 M 169.667 314.667 C 169.300 315.033, 169 316.383, 169 317.667 L 169 320 201.500 320 C 223.837 320, 234 319.667, 234 318.934 C 234 318.348, 233.534 316.998, 232.965 315.934 C 231.976 314.086, 230.557 314, 201.131 314 C 184.193 314, 170.033 314.300, 169.667 314.667 M 713 317 L 713 320 743.750 319.986 C 760.663 319.979, 775.513 319.701, 776.750 319.370 C 778.285 318.958, 779 318.010, 779 316.383 L 779 314 746 314 L 713 314 713 317 M 792 317.111 L 792 320.222 824.422 319.856 C 842.254 319.654, 857.145 319.188, 857.513 318.820 C 857.881 318.452, 857.886 317.217, 857.524 316.075 C 856.875 314.031, 856.380 314, 824.433 314 L 792 314 792 317.111 M 169.801 328.903 L 169.371 331.834 196.186 332.167 C 210.934 332.350, 225.276 332.342, 228.057 332.150 C 232.865 331.817, 233.098 331.669, 232.807 329.150 L 232.500 326.500 201.366 326.236 L 170.231 325.972 169.801 328.903 M 246 328.857 L 246 332.028 278.167 331.764 C 298.499 331.597, 310.451 331.132, 310.651 330.500 C 311.714 327.143, 309.576 326.869, 277.649 326.276 L 246 325.687 246 328.857 M 713 328.733 L 713 331.681 741.250 332.271 C 773.605 332.947, 779 332.612, 779 329.929 C 779 328.933, 778.620 327.883, 778.155 327.596 C 777.691 327.309, 762.841 326.784, 745.155 326.430 L 713 325.785 713 328.733 M 792 329.028 L 792 332 825 332 C 847.690 332, 858 331.667, 858 330.934 C 858 330.348, 857.552 329.032, 857.005 328.010 C 856.069 326.260, 854.148 326.149, 824.005 326.104 L 792 326.057 792 329.028 M 183.500 338.957 C 170.348 339.467, 169.500 339.621, 169.500 341.500 C 169.500 343.458, 170.167 343.500, 201.417 343.500 C 234.291 343.500, 236.127 343.270, 232.473 339.616 C 231.096 338.239, 228.388 338.031, 214.179 338.207 C 205.005 338.321, 191.200 338.658, 183.500 338.957 M 796.250 338.807 C 792.494 339.079, 792 339.399, 792 341.557 L 792 344 824.531 344 C 853.146 344, 857.135 343.811, 857.664 342.433 C 859.051 338.820, 856.653 338.500, 828.198 338.500 C 812.964 338.500, 798.587 338.638, 796.250 338.807 M 245.755 341.500 L 245.277 344 277.639 344 L 310 344 310 341.500 L 310 339 278.117 339 L 246.233 339 245.755 341.500 M 713 341.500 L 713 344 746 344 L 779 344 779 341.500 L 779 339 746 339 L 713 339 713 341.500 M 169 353.986 L 169 357 201.066 357 L 233.133 357 232.816 354.250 L 232.500 351.500 200.750 351.236 L 169 350.972 169 353.986 M 246 353.986 L 246 357 278.066 357 L 310.133 357 309.816 354.250 L 309.500 351.500 277.750 351.236 L 246 350.972 246 353.986 M 713 353.986 L 713 357 746.066 357 L 779.133 357 778.816 354.250 L 778.500 351.500 745.750 351.236 L 713 350.973 713 353.986 M 792 354.051 L 792 357.103 824.418 356.801 C 842.248 356.636, 857.134 356.201, 857.499 355.836 C 857.864 355.470, 857.660 354.233, 857.046 353.086 C 855.950 351.038, 855.344 351, 823.965 351 L 792 351 792 354.051 M 169.507 364.977 C 169.157 366.080, 169.152 367.436, 169.494 367.991 C 169.893 368.635, 181.513 369, 201.625 369 L 233.133 369 232.816 366.250 L 232.500 363.500 201.322 363.236 C 170.877 362.978, 170.129 363.019, 169.507 364.977 M 248.335 363.687 C 246.083 364.134, 244.581 366.513, 245.556 368.090 C 245.874 368.606, 259.982 369, 278.125 369 L 310.133 369 309.816 366.250 L 309.500 363.500 280 363.379 C 263.775 363.312, 249.526 363.451, 248.335 363.687 M 715.750 363.716 C 713.613 364.040, 713 364.678, 713 366.580 L 713 369.027 745.750 368.764 C 778.259 368.502, 778.502 368.484, 778.802 366.380 C 779.017 364.875, 778.438 364.082, 776.802 363.644 C 774.297 362.973, 720.234 363.037, 715.750 363.716 M 792 366.094 L 792 369.188 823.250 368.635 C 840.438 368.331, 855.063 368.064, 855.750 368.041 C 856.438 368.019, 857 366.875, 857 365.500 L 857 363 824.500 363 L 792 363 792 366.094 M 246.008 378 L 246.009 380.500 277.754 380.500 C 308.768 380.500, 309.500 380.454, 309.500 378.512 C 309.500 375.464, 303.034 374.883, 272.754 375.210 L 246.008 375.500 246.008 378 M 169 378.486 L 169 381 201.070 381 L 233.139 381 232.820 378.750 L 232.500 376.500 200.750 376.236 L 169 375.972 169 378.486 M 713 378.500 L 713 381 746.107 381 C 775.885 381, 779.153 380.841, 778.607 379.418 C 778.273 378.548, 778 377.423, 778 376.918 C 778 376.379, 764.570 376, 745.500 376 L 713 376 713 378.500 M 792 378.500 L 792 381 823.941 381 C 842.044 381, 856.126 380.606, 856.444 380.090 C 856.753 379.590, 856.732 378.465, 856.396 377.590 C 855.856 376.183, 852.124 376, 823.893 376 L 792 376 792 378.500 M 170 389.352 L 170 391.704 197.750 392.206 C 229.442 392.780, 233 392.561, 233 390.035 C 233 387.613, 225.463 387.016, 194.750 387.007 L 170 387 170 389.352 M 246 389.500 L 246 392 278 392 L 310 392 310 389.500 L 310 387 278 387 L 246 387 246 389.500 M 713 389.486 L 713 392 746.070 392 L 779.139 392 778.820 389.750 L 778.500 387.500 745.750 387.236 L 713 386.973 713 389.486 M 792 389.500 L 792 392 824.500 392 L 857 392 857 389.500 L 857 387 824.500 387 L 792 387 792 389.500 M 169 400.839 C 169 402.597, 170.557 402.748, 195.754 403.420 C 225.250 404.207, 233.283 403.707, 232.784 401.115 C 232.507 399.676, 229.024 399.471, 200.737 399.236 C 170.326 398.983, 169 399.050, 169 400.839 M 246.002 401.250 L 246.003 403.500 277.452 403.466 C 294.749 403.447, 309.204 403.129, 309.574 402.759 C 309.944 402.389, 309.981 401.392, 309.655 400.543 C 309.139 399.197, 305.028 399, 277.531 399 L 246 399 246.002 401.250 M 713 400.785 C 713 402.564, 714.261 402.723, 733.250 403.339 C 744.388 403.700, 759.013 403.996, 765.750 403.997 C 777.979 404, 778 403.996, 778 401.625 L 778 399.250 745.500 399.069 C 714.187 398.894, 713 398.957, 713 400.785 M 791.999 401.250 L 791.999 403.500 824.207 403.209 C 841.921 403.049, 856.602 402.731, 856.831 402.502 C 857.060 402.274, 856.981 401.392, 856.655 400.543 C 856.138 399.197, 851.979 399, 824.031 399 L 792 399 791.999 401.250 M 169.667 412.667 C 169.300 413.033, 169 414.721, 169 416.417 L 169 419.500 193.750 419.769 C 207.363 419.917, 221.988 419.757, 226.250 419.415 C 233.915 418.799, 234 418.761, 234 416.003 C 234 414.382, 233.337 412.960, 232.418 412.607 C 230.255 411.777, 170.500 411.834, 169.667 412.667 M 245 415.500 L 245 419 277.799 419 L 310.598 419 310.190 415.500 L 309.781 412 277.391 412 L 245 412 245 415.500 M 713 415.750 L 712.999 419.500 747 419.224 L 781 418.949 781 416.081 C 781 414.389, 780.352 412.965, 779.418 412.607 C 778.548 412.273, 763.248 412, 745.418 412 L 713 412 713 415.750 M 790.667 412.667 C 790.300 413.033, 790 414.547, 790 416.031 C 790 418.482, 790.424 418.786, 794.640 419.364 C 800.575 420.178, 846.880 420.010, 853.571 419.151 L 858.642 418.500 857.792 415.250 L 856.943 412 824.138 412 C 806.095 412, 791.033 412.300, 790.667 412.667 M 496.001 465.750 C 496 491.678, 495.974 492, 493.918 492 C 491.975 492, 491.858 491.532, 492.168 484.998 L 492.500 477.995 488.750 477.998 L 485 478 485 491.500 L 485 505 497.500 505 L 510 505 510 510.767 L 510 516.534 502.250 519.277 C 497.988 520.785, 492.813 522.015, 490.750 522.010 L 487 522 487 527.430 C 487 532.267, 487.246 532.908, 489.250 533.294 L 491.500 533.728 489.295 533.864 C 486.950 534.009, 487.023 533.785, 485.007 547 C 483.223 558.695, 481.011 557.542, 504.593 557.210 C 515.920 557.051, 529.083 557.349, 533.844 557.873 C 538.605 558.397, 542.640 558.687, 542.812 558.518 C 543.142 558.191, 541.332 543.452, 540.376 538.683 C 540.056 537.083, 538.881 535.490, 537.656 534.996 L 535.500 534.127 537.750 534.063 C 539.741 534.007, 540 533.481, 540 529.500 C 540 527.025, 540.066 524.663, 540.146 524.250 C 540.226 523.837, 538.763 523.246, 536.896 522.935 C 535.028 522.624, 532.375 521.757, 531 521.007 C 529.625 520.258, 526.025 518.878, 523 517.941 C 517.944 516.376, 517.474 515.976, 517.176 512.981 C 516.998 511.189, 517.119 508.661, 517.445 507.362 C 518.011 505.106, 518.431 505, 526.769 504.989 C 531.571 504.983, 537.155 504.704, 539.178 504.370 L 542.855 503.762 542.678 490.882 L 542.500 478.002 539.250 478.001 L 536 478 536 485.573 C 536 492.249, 535.793 493.106, 534.250 492.806 C 532.623 492.489, 532.528 490.573, 532.895 465.633 L 533.291 438.801 514.647 439.150 L 496.003 439.500 496.001 465.750 M 423.150 440.747 C 412.011 441.061, 411.810 441.108, 412.321 443.284 C 412.608 444.503, 413.115 450, 413.449 455.500 C 413.782 461, 414.290 467.781, 414.577 470.568 C 415.093 475.584, 415.142 475.646, 419.299 476.568 C 423.487 477.497, 423.501 477.515, 423.815 482.497 C 424.288 490.009, 423.296 494, 420.955 494 C 419.265 494, 418.998 493.288, 418.985 488.750 C 418.976 485.863, 418.639 483.006, 418.235 482.402 C 417.831 481.798, 415.587 481.005, 413.250 480.640 C 409.235 480.013, 409 480.110, 409 482.405 C 409 483.741, 409.493 484.998, 410.096 485.199 C 410.794 485.431, 411.157 488.874, 411.095 494.675 C 411.014 502.228, 411.276 503.892, 412.626 504.410 C 413.521 504.753, 418.922 505.320, 424.627 505.669 L 435 506.304 434.995 512.402 L 434.990 518.500 426.745 520.763 C 422.210 522.008, 416.973 523.020, 415.108 523.013 L 411.715 523 412.337 528.950 L 412.959 534.900 407.451 542.896 C 402.405 550.221, 398.425 557.759, 399.196 558.530 C 399.369 558.702, 406.286 558.404, 414.568 557.867 C 422.850 557.330, 435.977 557.027, 443.739 557.195 L 457.851 557.500 458.451 553.500 C 458.780 551.300, 460.614 545.905, 462.525 541.510 C 464.886 536.082, 466 531.994, 466 528.760 C 466 524.203, 465.879 524, 463.175 524 C 461.621 524, 457.043 522.875, 453 521.500 C 448.957 520.125, 444.875 519, 443.928 519 C 442.448 519, 442.253 518.125, 442.539 512.750 C 442.813 507.594, 443.189 506.465, 444.686 506.300 C 445.684 506.190, 451.788 505.808, 458.250 505.451 L 470 504.803 470 499.370 C 470 495.618, 469.564 493.770, 468.590 493.396 C 466.584 492.627, 465.999 489.212, 466.980 484 C 467.445 481.525, 467.639 479.311, 467.410 479.080 C 467.180 478.849, 463.957 478.399, 460.246 478.080 L 453.500 477.500 452.727 464 C 452.302 456.575, 451.708 448.137, 451.405 445.250 L 450.856 440 442.678 440.214 C 438.180 440.331, 429.393 440.571, 423.150 440.747 M 575.563 458.677 C 575.163 468.455, 574.622 476.803, 574.359 477.228 C 574.097 477.652, 570.759 478, 566.941 478 L 560 478 560 485.500 C 560 491.500, 559.700 493, 558.500 493 C 557.337 493, 557 494.317, 557 498.855 L 557 504.711 563.750 505.348 C 567.462 505.699, 573.538 505.989, 577.250 505.993 L 584 506 584 512.369 L 584 518.738 580.750 519.356 C 578.962 519.696, 575.039 520.655, 572.032 521.487 C 569.025 522.319, 565.087 523, 563.282 523 L 560 523 560 528.500 C 560 531.525, 560.450 534, 561 534 C 561.550 534, 562 534.693, 562 535.540 C 562 536.387, 562.864 538.774, 563.920 540.844 C 564.976 542.914, 566.417 547.396, 567.120 550.804 L 568.400 557 582.804 557 C 590.725 557, 603.710 557.501, 611.657 558.113 C 619.605 558.725, 626.368 558.965, 626.687 558.646 C 627.501 557.832, 622.884 548.764, 617.532 540.669 C 613.937 535.232, 613.218 533.460, 614.008 531.985 C 615.278 529.613, 615.289 525.296, 614.027 524.517 C 613.492 524.186, 611.544 523.722, 609.699 523.486 C 607.854 523.250, 604.354 522.154, 601.922 521.050 C 599.490 519.947, 596.263 519.034, 594.750 519.022 C 592.298 519.002, 592 518.635, 592 515.625 C 592 513.769, 591.733 510.915, 591.407 509.283 L 590.813 506.315 601.280 505.675 C 607.036 505.323, 612.478 504.754, 613.373 504.410 C 614.715 503.896, 615 502.150, 615 494.460 C 615 486.013, 615.188 485.075, 617 484.500 C 618.100 484.151, 619 482.996, 619 481.933 C 619 480.398, 618.293 480, 615.565 480 C 613.676 480, 610.922 480.459, 609.446 481.020 C 606.872 481.999, 606.780 482.284, 607.195 488.020 L 607.628 494 604.814 494 L 602 494 602 485.607 C 602 476.502, 602.315 476, 608.023 476 C 609.595 476, 611.119 475.617, 611.408 475.149 C 611.698 474.680, 612.408 468.043, 612.987 460.399 C 613.565 452.754, 614.143 445.375, 614.269 444 L 614.500 441.500 595.395 441.200 L 576.290 440.899 575.563 458.677 M 349.005 443.714 C 340.483 444.507, 333.437 445.233, 333.347 445.328 C 333.258 445.423, 333.945 453.130, 334.875 462.455 L 336.567 479.409 344.836 480.591 C 349.385 481.241, 353.222 481.936, 353.363 482.136 C 353.504 482.336, 353.434 486.438, 353.207 491.250 C 352.858 498.651, 352.533 500, 351.097 500 C 348.015 500, 347.186 498.045, 347.729 492.057 L 348.250 486.306 343.485 485.653 C 334.800 484.463, 333.877 484.662, 334.607 487.569 C 334.961 488.982, 335.532 493.550, 335.876 497.721 L 336.500 505.305 340.500 506.687 C 342.700 507.448, 348.212 508.799, 352.750 509.691 L 361 511.313 361 517.074 L 361 522.836 353.250 525.378 C 348.988 526.776, 343.700 528.050, 341.500 528.210 C 337.605 528.492, 337.492 528.605, 337.206 532.500 C 337.036 534.809, 337.508 537.315, 338.322 538.427 C 339.594 540.165, 339.440 540.600, 336.755 542.860 C 333.022 546.001, 321 561.848, 321 563.627 C 321 564.514, 321.907 564.800, 323.750 564.495 C 328.102 563.775, 357.439 561.148, 369.206 560.425 L 379.912 559.767 382.564 554.634 C 384.023 551.810, 387.009 547.102, 389.201 544.170 C 393.157 538.879, 395 534.490, 395 530.363 C 395 528.542, 394.121 528.043, 389.250 527.099 C 386.087 526.486, 380.350 525.172, 376.500 524.178 L 369.500 522.372 369.190 517.547 C 369.019 514.893, 369.244 512.370, 369.690 511.940 C 370.626 511.039, 392.599 507, 396.570 507 C 398.844 507, 399.145 506.671, 398.630 504.750 C 398.299 503.512, 398.021 500.813, 398.014 498.750 C 398.002 495.439, 397.713 495, 395.546 495 C 393.212 495, 393.077 494.670, 392.796 488.250 L 392.500 481.500 383.771 480.119 C 373.633 478.514, 374.738 480.521, 372.967 460.500 C 372.384 453.900, 371.652 447.038, 371.342 445.250 C 370.682 441.448, 372.216 441.553, 349.005 443.714 M 655 443.096 C 655 445.142, 652.909 470.313, 652.412 474.250 C 651.874 478.513, 651.552 479, 649.271 479 C 647.874 479, 643.866 479.528, 640.365 480.173 L 634 481.346 634 488.173 C 634 494.718, 633.901 495, 631.593 495 C 629.384 495, 629.157 495.452, 628.843 500.482 L 628.500 505.965 633.500 506.921 C 636.250 507.447, 642.663 508.646, 647.750 509.586 L 657 511.293 657 515.565 C 657 517.914, 657.256 520.503, 657.569 521.319 C 657.995 522.429, 657.068 522.982, 653.874 523.521 C 651.530 523.917, 647.153 525.087, 644.149 526.121 C 641.145 527.154, 636.957 528, 634.843 528 C 631.116 528, 631 528.106, 631 531.509 C 631 534.176, 632.526 537.253, 637.368 544.344 C 640.871 549.474, 644.262 555.264, 644.904 557.209 L 646.071 560.746 656.786 561.292 C 669.227 561.927, 700.456 564.729, 703.750 565.507 C 708.331 566.588, 706.356 562.726, 695.006 548.406 C 691.560 544.058, 688.044 540.241, 687.193 539.925 C 685.840 539.422, 685.857 539.269, 687.323 538.706 C 689.385 537.915, 689.757 529.132, 687.750 528.615 C 685.486 528.032, 673.583 524.924, 669.205 523.772 L 664.911 522.643 665.205 517.071 C 665.490 511.688, 665.601 511.490, 668.500 511.210 C 673.362 510.740, 690.434 505.772, 691.255 504.588 C 691.671 503.990, 691.736 500.575, 691.401 497 C 690.859 491.223, 691.025 490.287, 692.895 488.595 C 694.053 487.547, 695 486.020, 695 485.201 C 695 483.961, 693.814 483.823, 687.874 484.375 C 683.955 484.739, 680.355 485.280, 679.874 485.578 C 679.393 485.875, 679 488.791, 679 492.059 C 679 497.729, 678.886 498, 676.500 498 C 674.032 498, 674 497.893, 674 489.608 C 674 480.098, 673.321 480.769, 684.260 479.458 C 689.036 478.885, 690.100 478.402, 690.487 476.634 C 691.010 474.243, 694 447.890, 694 445.671 C 694 444.550, 691.922 444.202, 684.250 444.037 C 678.888 443.921, 670.112 443.524, 664.750 443.155 C 659.388 442.785, 655 442.759, 655 443.096 M 280.222 448.147 C 276.769 448.642, 270.019 449.374, 265.222 449.773 L 256.500 450.500 256.259 454.500 C 256.126 456.700, 256.802 464.569, 257.762 471.987 L 259.508 485.474 264.504 486.141 C 267.252 486.509, 272.087 487.109, 275.250 487.476 L 281 488.144 281 497.642 C 281 506.919, 280.948 507.132, 278.750 506.820 C 276.709 506.530, 276.473 505.881, 276.206 499.825 L 275.912 493.150 269.206 492.494 C 265.518 492.134, 261.712 491.620, 260.750 491.352 C 258.636 490.764, 258.645 490.539, 260.500 497.661 C 261.325 500.829, 262 505.333, 262 507.671 C 262 511.903, 262.023 511.929, 266.954 513.394 C 269.679 514.203, 275.548 515.683, 279.997 516.683 L 288.085 518.500 287.792 523.879 L 287.500 529.258 280 532.071 C 275.875 533.618, 271.028 534.909, 269.229 534.942 C 266.767 534.986, 265.683 535.601, 264.852 537.426 C 263.337 540.750, 264.561 544.843, 267.464 546.165 C 271.075 547.811, 273 546.598, 273 542.678 L 273 539.293 279.943 538.147 C 289.632 536.546, 289.348 536.468, 288.685 540.555 C 288.091 544.214, 279.123 557.355, 276.545 558.345 C 274.376 559.177, 258.848 561.181, 258.359 560.692 C 258.121 560.454, 260.396 557.648, 263.415 554.456 C 266.433 551.264, 268.673 548.280, 268.393 547.826 C 266.976 545.534, 263.517 547.714, 256.616 555.250 C 249.947 562.532, 249.321 563.534, 251.280 563.793 C 252.501 563.954, 259.614 565.434, 267.086 567.081 C 276.968 569.259, 281.337 569.822, 283.111 569.148 C 284.453 568.638, 289.909 567.894, 295.235 567.494 L 304.919 566.768 307.063 562.654 C 308.243 560.392, 311.858 555.245, 315.098 551.218 C 321.265 543.552, 322.370 541.114, 321.828 536.371 C 321.574 534.151, 320.933 533.441, 319 533.240 C 316.229 532.953, 299.221 529.957, 297.250 529.410 C 296.433 529.183, 296 527.046, 296 523.238 L 296 517.413 308.250 515.099 C 314.988 513.827, 321.535 512.595, 322.799 512.362 C 324.924 511.969, 325.075 511.505, 324.799 506.219 C 324.516 500.809, 324.351 500.483, 321.750 500.184 C 319.072 499.875, 319 499.701, 319 493.513 C 319 486.320, 320.535 487.378, 306.500 484.897 C 302.650 484.216, 299.205 483.398, 298.845 483.079 C 298.485 482.761, 297.441 476.875, 296.524 470 C 295.608 463.125, 294.408 455.137, 293.858 452.250 C 292.723 446.289, 292.871 446.334, 280.222 448.147 M 732.487 452.940 C 732.152 455.998, 731.118 464.115, 730.189 470.978 L 728.500 483.457 718.500 485.166 C 713 486.106, 708.388 486.904, 708.250 486.938 C 708.112 486.972, 708 489.936, 708 493.525 C 708 499.975, 707.966 500.057, 705 500.650 C 702.115 501.227, 702 501.455, 702 506.606 C 702 512.720, 700.489 511.896, 716.500 514.516 C 731.063 516.900, 730 516.230, 730 523.029 L 730 528.923 725.750 530.016 C 723.413 530.616, 719.181 531.759, 716.346 532.554 C 713.511 533.349, 709.785 534, 708.065 534 C 704.384 534, 703.558 535.516, 704.745 540.096 C 705.340 542.394, 706.373 543.649, 708.055 544.118 C 709.748 544.591, 709.944 544.831, 708.693 544.900 C 707.272 544.979, 708.093 546.543, 712.542 552.229 C 715.653 556.205, 719.256 561.546, 720.549 564.098 L 722.900 568.737 734.700 569.415 C 744.884 569.999, 747.527 569.811, 754 568.039 C 758.125 566.910, 764.763 565.245, 768.750 564.339 C 772.737 563.433, 776 562.352, 776 561.937 C 776 560.696, 767.048 550.096, 765.135 549.072 C 763.672 548.289, 763.434 547.112, 763.767 542.312 L 764.171 536.500 753.835 533.273 C 748.151 531.499, 742.487 529.781, 741.250 529.456 C 739.344 528.956, 739 528.188, 739 524.433 C 739 521.995, 738.978 519.678, 738.951 519.283 C 738.924 518.889, 741.511 517.975, 744.701 517.251 C 747.890 516.527, 753.538 515.030, 757.250 513.925 L 764 511.915 764 507.617 C 764 505.252, 764.670 501.109, 765.489 498.409 C 767.664 491.239, 767.695 491.289, 761.250 491.720 C 750.666 492.427, 751 492.173, 751 499.519 L 751 506 748 506 C 745.007 506, 745 505.986, 745 500.125 C 745 496.894, 745.270 492.901, 745.600 491.252 C 746.195 488.276, 746.275 488.244, 756.333 486.877 L 766.467 485.500 768.159 471.500 C 769.089 463.800, 770.059 455.864, 770.315 453.864 L 770.779 450.228 758.140 449.133 C 751.188 448.531, 742.709 447.890, 739.298 447.709 L 733.097 447.379 732.487 452.940 M 210.500 457.482 C 209.950 457.660, 203.088 458.609, 195.250 459.591 C 183.746 461.032, 181.003 461.677, 181.015 462.938 C 181.038 465.392, 185.927 497.260, 186.344 497.677 C 186.549 497.883, 192.694 498.928, 200 500 C 207.306 501.072, 213.484 502.150, 213.729 502.396 C 214.578 503.245, 215.259 514.831, 214.612 517.411 C 214.131 519.326, 213.316 520, 211.481 520 C 209.118 520, 209 519.717, 209 514.059 C 209 510.791, 208.512 507.817, 207.917 507.448 C 206.568 506.615, 187.729 503.938, 187.167 504.500 C 186.666 505, 188.958 517.624, 190.116 520.750 C 190.575 521.987, 191.524 523, 192.225 523.001 C 192.926 523.001, 196.395 524.371, 199.933 526.045 C 203.472 527.719, 208.309 529.355, 210.683 529.680 L 215 530.272 215 536.056 C 215 541.772, 214.961 541.849, 211.750 542.544 C 209.963 542.930, 206.273 544.369, 203.551 545.741 C 198.932 548.069, 198.728 548.328, 200.492 549.618 C 203.094 551.521, 206.015 551.351, 211.556 548.976 L 216.278 546.952 215.684 551.287 C 215.133 555.306, 215.306 555.749, 218.047 557.369 C 221.472 559.392, 223 558.835, 223 555.566 C 223 554.292, 223.273 551.887, 223.606 550.222 L 224.211 547.193 228.646 548.704 C 231.085 549.535, 234.376 550.025, 235.961 549.792 C 238.499 549.420, 239.012 549.803, 240.272 553.010 C 241.578 556.336, 241.538 556.852, 239.811 558.985 C 237.219 562.186, 238.980 563.898, 242.496 561.594 C 246.731 558.820, 249.081 554.104, 248.772 549 L 248.500 544.500 242 543.907 C 238.425 543.581, 232.912 542.762, 229.750 542.086 L 224 540.858 224 537.011 C 224 534.895, 223.758 532.534, 223.463 531.765 C 223.052 530.694, 226.555 529.454, 238.385 526.481 L 253.843 522.596 254.171 516.796 L 254.500 510.996 250.822 510.998 L 247.144 511 246.564 505.750 C 246.245 502.863, 246.101 499.617, 246.242 498.538 C 246.390 497.413, 245.860 496.486, 245 496.365 C 244.175 496.248, 239.318 495.578, 234.206 494.876 C 229.094 494.173, 224.549 493.127, 224.105 492.549 C 223.661 491.972, 222.040 483.738, 220.502 474.250 L 217.707 457 214.604 457.079 C 212.897 457.122, 211.050 457.304, 210.500 457.482 M 806.580 458.750 C 806.275 459.712, 805.357 464.775, 804.542 470 C 803.726 475.225, 802.531 482.519, 801.888 486.210 L 800.718 492.920 796.109 493.571 C 789.957 494.440, 780.424 496.620, 779.044 497.473 C 778.372 497.888, 778.046 500.590, 778.217 504.329 L 778.500 510.500 774.500 510.189 L 770.500 509.877 770.427 516.439 C 770.356 522.906, 770.393 523, 773.034 523 C 775.849 523, 796.242 528.559, 799.250 530.147 C 801.347 531.253, 801.723 539.203, 799.750 540.709 C 798.084 541.982, 786.410 544, 780.718 544 C 778.183 544, 775.997 544.508, 775.784 545.147 C 775.574 545.778, 775.724 549.029, 776.118 552.371 C 776.647 556.857, 777.409 558.913, 779.028 560.224 C 781.205 561.987, 787 562.713, 787 561.223 C 787 559.537, 783.796 556, 782.269 556 C 780.939 556, 781.038 555.588, 782.826 553.686 C 784.022 552.413, 785 550.950, 785 550.436 C 785 549.921, 786.237 549.479, 787.750 549.454 C 789.263 549.428, 792.836 549.052, 795.692 548.618 L 800.883 547.828 801.192 552.664 C 801.478 557.151, 801.681 557.482, 804 557.256 C 809.409 556.728, 811.193 555.945, 810.587 554.365 C 810.259 553.512, 809.720 551.734, 809.389 550.414 L 808.787 548.013 812.878 549.457 C 818.456 551.425, 830 549.729, 830 546.941 C 830 546.423, 829.117 546, 828.037 546 C 826.957 546, 822.232 545.027, 817.537 543.838 L 809 541.677 809 537.420 C 809 535.079, 808.727 532.452, 808.393 531.582 C 807.904 530.308, 808.537 530, 811.643 530 C 814.955 530, 822.038 527.165, 834 521.052 C 834.911 520.586, 835.780 518.069, 836.214 514.644 C 836.606 511.542, 837.430 508.064, 838.045 506.916 C 838.659 505.768, 838.932 504.598, 838.650 504.317 C 837.975 503.641, 820.114 505.903, 817.329 507.017 C 815.608 507.705, 815.014 509.036, 814.464 513.443 C 813.721 519.390, 813.394 519.740, 810.538 517.651 C 808.922 516.470, 808.780 515.446, 809.399 509.401 C 809.787 505.606, 810.454 502.150, 810.880 501.722 C 811.307 501.294, 817.663 500.277, 825.004 499.463 C 832.346 498.648, 838.418 497.873, 838.498 497.741 C 838.772 497.289, 844.764 461.501, 844.599 461.301 C 844.277 460.911, 812.812 457, 809.998 457 C 808.149 457, 806.938 457.620, 806.580 458.750 M 133.500 471.574 C 130.200 472.296, 123.450 473.443, 118.500 474.122 C 113.550 474.801, 109.377 475.436, 109.228 475.534 C 109.078 475.632, 110.334 482.189, 112.019 490.106 C 113.704 498.023, 115.596 507.099, 116.223 510.276 C 117.114 514.794, 117.814 516.153, 119.431 516.514 C 121.909 517.066, 144.866 520, 146.708 520 C 147.419 520, 148.900 520.900, 150 522 C 152.586 524.586, 152.819 534.385, 150.378 537.870 C 148.960 539.895, 148.939 540.368, 150.210 541.639 C 152.116 543.544, 161.370 545.973, 166.782 545.988 C 169.137 545.995, 172.665 545.331, 174.621 544.514 C 176.578 543.696, 181.063 542.525, 184.589 541.911 L 191 540.795 191 534.305 L 191 527.816 185.750 528.158 L 180.500 528.500 180 520.539 L 179.500 512.578 167.500 510.679 C 160.900 509.634, 155.375 508.666, 155.223 508.529 C 155.070 508.391, 153.363 500.678, 151.430 491.389 C 149.497 482.100, 147.700 473.488, 147.438 472.250 C 147.041 470.372, 146.345 470.022, 143.231 470.130 C 141.179 470.202, 136.800 470.851, 133.500 471.574 M 876.962 470.135 C 876.941 470.336, 875.028 479.275, 872.712 490 L 868.500 509.500 865 509.750 C 863.075 509.887, 857.563 510.760, 852.750 511.691 L 844 513.382 844 521.306 L 844 529.230 838.453 528.537 L 832.905 527.844 833.203 534.658 L 833.500 541.473 837 542.084 C 838.925 542.419, 843.810 543.721, 847.855 544.976 C 854.579 547.063, 855.815 547.158, 862.280 546.091 C 866.169 545.449, 872.085 543.846, 875.426 542.529 C 884.179 539.078, 892.516 536.841, 897.303 536.659 C 901.245 536.508, 901.497 536.314, 902.040 533 C 902.355 531.075, 903.436 528.248, 904.442 526.719 C 905.448 525.189, 905.990 523.657, 905.647 523.314 C 905.304 522.970, 900.538 523.434, 895.057 524.345 C 889.575 525.255, 883.548 526, 881.662 526 C 877.989 526, 877.042 527.483, 877.014 533.281 C 876.998 536.561, 875.021 537.617, 871.962 535.980 C 870.010 534.935, 869.819 534.195, 870.229 529.253 C 870.785 522.542, 871.967 521.488, 879.948 520.585 C 888.770 519.587, 905.132 516.283, 905.961 515.332 C 906.858 514.303, 912.642 488.416, 913.572 481.267 C 914.094 477.261, 913.930 475.920, 912.877 475.545 C 909.166 474.226, 877.040 469.387, 876.962 470.135 M 454 487.544 C 454 492.303, 454.254 493.117, 455.582 492.607 C 456.452 492.273, 458.051 492, 459.137 492 C 460.866 492, 461.072 491.415, 460.805 487.250 C 460.513 482.695, 460.366 482.487, 457.250 482.187 L 454 481.873 454 487.544 M 567.697 482.700 C 566.255 483.073, 565.954 484.004, 566.197 487.334 C 566.491 491.371, 566.609 491.500, 570 491.500 C 573.466 491.500, 573.503 491.454, 573.805 486.750 C 574.088 482.342, 573.944 482.008, 571.805 482.116 C 570.537 482.180, 568.688 482.442, 567.697 482.700 M 643.750 484.716 C 641.201 485.102, 641 485.475, 641 489.816 L 641 494.500 645.410 494.500 C 649.672 494.500, 649.839 494.383, 650.399 491 C 651.624 483.594, 651.560 483.533, 643.750 484.716 M 376 490 L 376 495 380.893 495 C 386.294 495, 387 494.239, 387 488.418 L 387 485 381.500 485 L 376 485 376 490 M 720.173 490.289 C 714.438 491.206, 713.898 491.497, 714.409 493.400 C 714.719 494.555, 714.979 496.288, 714.986 497.250 C 714.998 498.721, 715.958 499, 721 499 L 727 499 727 494 C 727 491.250, 726.888 489.063, 726.750 489.139 C 726.612 489.216, 723.653 489.733, 720.173 490.289 M 300.135 495.451 C 300.257 500.753, 300.419 501.123, 302.383 500.595 C 303.548 500.283, 306.188 500.021, 308.250 500.014 L 312 500 312 495.500 C 312 491.503, 311.748 490.999, 309.750 490.989 C 308.512 490.983, 305.813 490.699, 303.752 490.358 L 300.003 489.739 300.135 495.451 M 791.750 500.242 L 786 501.227 786 506.021 L 786 510.815 791.750 511.207 C 794.913 511.423, 797.578 511.574, 797.673 511.543 C 798.369 511.319, 799.069 499.028, 798.379 499.128 C 797.896 499.199, 794.913 499.700, 791.750 500.242 M 226.398 504 C 226.717 505.925, 226.982 508.625, 226.987 510 C 226.996 512.424, 227.177 512.490, 232.969 512.163 C 238.837 511.831, 238.953 511.768, 239.558 508.544 C 240.869 501.555, 240.254 500.853, 232.659 500.667 L 225.818 500.500 226.398 504 M 157.433 516.687 C 157.716 517.423, 158.240 520.882, 158.597 524.375 L 159.248 530.724 162.874 529.919 C 164.868 529.476, 167.738 528.854, 169.250 528.538 C 171.845 527.994, 172 527.654, 172 522.481 C 172 517.485, 171.801 516.994, 169.750 516.927 C 168.512 516.887, 165.119 516.515, 162.210 516.101 C 157.981 515.499, 157.023 515.617, 157.433 516.687 M 858 516.421 L 851.500 517.555 851.199 522.745 C 850.863 528.531, 850.472 528.239, 860.250 529.507 C 864.723 530.087, 865.001 529.988, 865.009 527.811 C 865.013 526.540, 865.301 523.138, 865.648 520.250 C 865.996 517.352, 865.880 515.064, 865.389 515.144 C 864.900 515.222, 861.575 515.797, 858 516.421 M 55 521.535 C 55 522.489, 62.765 551.290, 65.028 558.732 C 67.596 567.173, 73 595.657, 73 600.748 L 73 604.858 78.696 606.514 C 81.829 607.425, 89.294 610.382, 95.286 613.085 C 106.697 618.234, 109.978 618.790, 117.608 616.869 C 121.949 615.775, 122.080 615.632, 121.468 612.619 C 120.123 605.989, 118.909 602.062, 118.039 601.524 C 117.541 601.216, 115.190 601.641, 112.816 602.467 C 103.829 605.598, 103.751 605.529, 101.206 592.250 C 99.967 585.788, 97.846 576.225, 96.492 571 C 95.138 565.775, 92.400 554.525, 90.407 546 C 88.414 537.475, 86.720 530.473, 86.642 530.439 C 86.234 530.265, 58.238 521.742, 56.750 521.339 C 55.788 521.079, 55 521.167, 55 521.535 M 959 522.189 C 957.625 522.774, 951.132 524.934, 944.571 526.990 L 932.641 530.728 930.840 539.114 C 929.849 543.726, 928.119 552.675, 926.996 559 C 925.872 565.325, 923.646 575.066, 922.048 580.646 C 920.449 586.226, 918.593 593.578, 917.923 596.984 C 917.253 600.389, 916.096 603.410, 915.351 603.696 C 914.606 603.982, 912.167 603.484, 909.932 602.589 C 907.697 601.695, 905.493 601.195, 905.035 601.479 C 904.576 601.762, 903.666 604.358, 903.013 607.247 C 902.360 610.136, 901.625 613.238, 901.380 614.141 C 900.870 616.020, 905.427 618, 910.264 618 C 911.895 618, 920.142 614.964, 928.590 611.252 L 943.952 604.505 944.552 600.002 C 945.223 594.966, 946.622 589.333, 953.493 564 C 958.929 543.956, 962.412 530.161, 963.404 524.750 C 964.154 520.654, 963.503 520.275, 959 522.189 M 118 523.095 C 118 523.771, 118.745 526.689, 119.656 529.579 L 121.313 534.833 126.406 534.807 C 130.104 534.788, 132.734 535.493, 136 537.378 C 143.265 541.572, 144 541.177, 144 533.079 C 144 525.120, 145.216 525.910, 130 523.981 C 125.325 523.388, 120.713 522.670, 119.750 522.384 C 118.751 522.088, 118 522.393, 118 523.095 M 517.507 523.826 C 517.228 524.105, 517 526.283, 517 528.667 C 517 532.815, 516.872 533, 514 533 C 511.100 533, 511 532.846, 511 528.389 L 511 523.777 507.250 524.551 C 505.188 524.977, 501.482 525.590, 499.015 525.913 C 494.839 526.460, 494.483 526.741, 493.864 530 C 493.499 531.925, 492.615 536.073, 491.900 539.217 C 491.186 542.362, 490.803 545.128, 491.050 545.365 C 491.298 545.602, 495.641 545.556, 500.702 545.262 L 509.905 544.728 510.202 539.614 C 510.491 534.647, 510.593 534.491, 513.750 534.187 L 517 533.873 517 539.437 L 517 545 520.353 545 C 522.198 545, 526.473 545.289, 529.853 545.642 C 535.986 546.283, 536 546.279, 536 543.657 C 536 542.211, 535.557 539.110, 535.016 536.764 C 534.475 534.419, 533.810 531.337, 533.538 529.915 C 533.105 527.646, 532.126 527.085, 525.529 525.325 C 521.396 524.222, 517.786 523.547, 517.507 523.826 M 431.993 525.549 C 430.622 526.308, 427.925 526.952, 426 526.980 C 421.456 527.046, 420.449 527.809, 419.678 531.771 C 419.328 533.570, 417.999 536.167, 416.725 537.541 C 415.450 538.916, 413.630 541.356, 412.681 542.964 L 410.954 545.887 420.132 545.694 L 429.310 545.500 431.100 540.234 C 432.084 537.338, 433.589 534.268, 434.445 533.413 C 436.070 531.787, 436.501 527.336, 435.228 525.335 C 434.673 524.463, 433.858 524.517, 431.993 525.549 M 442.342 529.197 C 442.235 532.715, 441.655 534.779, 440.546 535.590 C 439.646 536.248, 438.645 538.410, 438.324 540.394 L 437.738 544 445.869 544.150 C 450.341 544.232, 454.548 544.345, 455.218 544.400 C 455.888 544.455, 456.933 542.729, 457.540 540.565 C 458.423 537.419, 459.331 536.382, 462.072 535.391 C 465.489 534.156, 465.491 534.152, 462.663 534.076 C 460.462 534.017, 459.572 533.327, 458.694 531 C 457.894 528.880, 456.895 528, 455.291 528 C 454.043 528, 450.654 527.100, 447.761 526.001 C 444.867 524.901, 442.500 524.001, 442.500 524.002 C 442.500 524.002, 442.429 526.340, 442.342 529.197 M 578 525.552 C 575.525 526.332, 572.128 526.976, 570.451 526.985 C 567.570 526.999, 567.424 527.189, 567.801 530.424 C 568.165 533.541, 567.945 533.886, 565.351 534.274 L 562.500 534.700 565.231 534.850 C 567.943 534.999, 568.356 535.687, 569.219 541.500 C 569.578 543.913, 573.486 544.493, 582.750 543.506 L 589 542.841 589 539.537 C 589 537.074, 588.491 536.100, 587 535.710 C 585.301 535.266, 585 534.346, 585 529.594 C 585 523.373, 584.970 523.355, 578 525.552 M 591.331 525.651 C 591.621 526.668, 592.629 530.875, 593.570 535 C 594.511 539.125, 595.780 543.036, 596.390 543.691 C 597.052 544.402, 600.931 544.954, 606 545.059 C 615.610 545.259, 615.679 545.165, 610.837 538.423 C 609.157 536.083, 607.478 532.683, 607.107 530.868 C 606.482 527.812, 606.028 527.486, 600.966 526.453 C 597.960 525.839, 594.443 524.992, 593.151 524.570 C 591.174 523.924, 590.886 524.095, 591.331 525.651 M 356 530.552 C 353.525 531.332, 350.262 531.976, 348.750 531.985 C 346.570 531.997, 345.999 532.467, 345.996 534.250 C 345.992 536.958, 343.166 541.758, 337.899 548.005 C 335.754 550.548, 334 552.846, 334 553.112 C 334 553.889, 347.218 552.943, 350.500 551.931 C 354.747 550.621, 361.744 538.261, 361.924 531.750 C 362.010 528.626, 362.073 528.638, 356 530.552 M 369 533.960 C 369 537.749, 368.385 539.498, 366 542.500 C 364.350 544.576, 363 546.888, 363 547.638 C 363 548.387, 362.999 549.246, 362.998 549.547 C 362.997 549.848, 366.409 550.229, 370.580 550.393 L 378.165 550.692 382.262 545.096 C 384.516 542.018, 386.842 539.178, 387.430 538.785 C 388.156 538.300, 387.963 537.184, 386.832 535.316 C 385.595 533.275, 384.214 532.471, 381.486 532.205 C 379.463 532.008, 375.826 531.250, 373.404 530.521 L 369 529.196 369 533.960 M 650.500 530.575 C 647.750 531.338, 644.315 531.970, 642.867 531.981 C 640.796 531.996, 640.119 532.588, 639.700 534.750 C 639.403 536.287, 639.728 538.162, 640.438 539 C 641.137 539.825, 643.002 542.919, 644.581 545.875 L 647.454 551.250 655.434 550.584 C 659.824 550.218, 663.583 549.750, 663.788 549.545 C 664.362 548.971, 661.997 544.772, 659.625 542.156 C 658.047 540.415, 657.500 538.508, 657.500 534.752 C 657.500 531.970, 657.050 529.580, 656.500 529.441 C 655.950 529.302, 653.250 529.812, 650.500 530.575 M 664.856 533.349 C 664.588 536.708, 664.913 538.089, 666.152 538.863 C 667.062 539.431, 668.950 542.396, 670.350 545.452 C 673.393 552.101, 675.212 553, 685.615 553 C 694.291 553, 694.285 553.076, 686.280 544.696 C 682.337 540.568, 680.900 538.229, 680.405 535.134 C 680.045 532.880, 679.404 531.250, 678.980 531.512 C 678.177 532.009, 669.708 530.605, 666.856 529.503 C 665.508 528.982, 665.148 529.674, 664.856 533.349 M 296 540.630 C 296 546.063, 294.206 549.756, 290.097 552.780 C 285.003 556.530, 286.011 557.627, 295.201 558.336 C 301.204 558.799, 303.606 558.638, 304.163 557.734 C 304.581 557.055, 306.808 554.138, 309.111 551.250 C 312.156 547.433, 314.009 545.978, 315.899 545.921 L 318.500 545.842 315.810 544.858 C 314.006 544.197, 313.019 543.030, 312.810 541.310 C 312.532 539.007, 311.991 538.704, 307.500 538.336 C 304.750 538.111, 301.038 537.529, 299.250 537.044 L 296 536.161 296 540.630 M 720 537.385 C 713.619 538.480, 713.502 538.556, 713.600 541.571 C 713.715 545.114, 713.988 545.623, 719.922 553.367 L 724.345 559.138 731.922 558.448 C 736.090 558.068, 739.694 557.580, 739.932 557.363 C 740.169 557.147, 739.002 555.514, 737.339 553.735 C 732.663 548.734, 730 543.617, 730 539.632 C 730 535.536, 730.339 535.612, 720 537.385 M 738.647 540.750 C 739.055 543.935, 740.155 546.488, 741.988 548.500 C 743.491 550.150, 745.567 552.981, 746.601 554.791 C 747.634 556.601, 749.384 558.284, 750.490 558.532 C 753.617 559.230, 769.313 561.020, 769.620 560.713 C 770.274 560.060, 764.347 553.540, 760.694 550.893 C 757.032 548.241, 756.900 547.992, 759.100 547.900 L 761.500 547.801 759 547.111 C 756.993 546.557, 756.439 545.689, 756.190 542.714 C 755.948 539.819, 755.400 538.918, 753.690 538.596 C 752.485 538.370, 749.103 537.693, 746.174 537.093 C 737.866 535.388, 737.954 535.346, 738.647 540.750 M 116.001 546.683 C 116.002 547.132, 117.087 552, 118.413 557.500 C 127.294 594.340, 133.970 626.453, 134.007 632.500 C 134.020 634.700, 134.364 637.023, 134.771 637.663 C 135.442 638.718, 141.990 641.402, 165.500 650.256 C 169.900 651.914, 173.562 653.321, 173.638 653.385 C 173.714 653.448, 174.096 657.184, 174.487 661.686 L 175.197 669.872 171.348 670.534 C 169.232 670.898, 163.332 672.501, 158.238 674.098 C 153.144 675.694, 147.602 677, 145.922 677 C 140.485 677, 139 678.496, 139 683.976 C 139 686.674, 139.439 689.153, 139.976 689.485 C 141.076 690.165, 129.207 698.761, 118.245 705.223 C 106.041 712.417, 101.624 715.455, 101.851 716.500 C 101.970 717.050, 103.848 717.461, 106.024 717.414 L 109.980 717.329 106.297 719.832 C 104.271 721.208, 85.091 731.090, 63.674 741.790 L 24.734 761.246 40.617 769.007 C 49.353 773.276, 61.633 779.512, 67.907 782.863 L 79.314 788.958 93.407 780.131 C 116.853 765.446, 125.191 760.091, 128.420 757.645 C 133.389 753.881, 135.996 752.756, 137.314 753.809 C 137.966 754.331, 142.302 754.968, 146.949 755.225 C 152.060 755.508, 155.549 756.148, 155.782 756.846 C 155.994 757.481, 156.635 758, 157.208 758 C 159.016 758, 175.683 742.258, 200.250 717.347 L 224 693.264 224 687.178 L 224 681.091 220.250 680.456 C 215.541 679.659, 203.993 676.597, 193.239 673.294 C 184.026 670.465, 183.644 669.968, 184.188 661.507 L 184.500 656.647 200 650.451 C 210.773 646.145, 215.384 643.835, 215.121 642.878 C 214.912 642.120, 214.509 639.250, 214.224 636.500 C 213.939 633.750, 213.140 630.600, 212.447 629.500 C 211.395 627.828, 209.891 617.919, 209.580 610.614 C 209.393 606.210, 206.708 606.317, 191.522 611.339 C 178.605 615.611, 177 616.388, 177 618.371 C 177 619.597, 177.477 621.077, 178.060 621.660 C 179.346 622.946, 185.791 621.880, 194.814 618.888 C 198.287 617.736, 201.279 616.953, 201.464 617.147 C 201.648 617.341, 202.119 620.945, 202.509 625.157 C 203.178 632.390, 203.095 632.879, 201.012 633.994 C 197.743 635.743, 178.810 642.144, 178.329 641.662 C 178.101 641.434, 177.665 639.505, 177.361 637.374 C 177.056 635.243, 173.945 620.900, 170.447 605.500 C 166.949 590.100, 163.310 572.962, 162.361 567.415 L 160.636 557.329 151.568 555.200 C 142.808 553.144, 121.566 547.632, 117.827 546.445 C 116.822 546.126, 116.001 546.233, 116.001 546.683 M 901 547.625 C 898.525 548.409, 891.325 550.420, 885 552.093 C 878.675 553.766, 871.236 555.783, 868.470 556.575 L 863.439 558.014 861.757 564.757 C 860.831 568.466, 859.576 574.425, 858.969 578 C 858.361 581.575, 856.518 590.125, 854.873 597 C 851.639 610.516, 847.097 631.535, 846.290 636.715 C 845.509 641.730, 844.090 642.230, 838.279 639.538 C 835.462 638.232, 830.371 636.149, 826.966 634.907 L 820.776 632.650 821.388 628.186 C 821.725 625.730, 822 622.288, 822 620.537 L 822 617.353 828.796 619.632 C 832.534 620.885, 837.477 622.213, 839.782 622.581 C 843.568 623.187, 844.060 623.022, 844.886 620.876 C 846.172 617.538, 845.092 616.733, 833.057 612.057 C 822.657 608.017, 814.683 606.767, 815.145 609.250 C 815.273 609.938, 814.810 613.875, 814.115 618 C 813.421 622.125, 812.210 629.325, 811.424 634 C 810.639 638.675, 809.997 643.194, 809.998 644.042 C 809.999 645.075, 813.054 646.705, 819.250 648.978 C 824.337 650.845, 830.883 653.398, 833.795 654.651 L 839.089 656.929 838.795 664.141 L 838.500 671.352 823 675.670 C 814.475 678.045, 806.086 679.990, 804.357 679.994 C 800.954 680.001, 800 681.319, 800 686.017 C 800 691.485, 802.210 694.522, 817.805 710.486 C 826.437 719.323, 837.775 730.997, 843 736.429 C 848.225 741.861, 855.425 748.654, 859 751.524 L 865.500 756.744 874.665 755.466 C 879.705 754.764, 884.718 753.907, 885.804 753.562 C 887.880 752.903, 891.895 755.432, 922.816 776.878 C 931.239 782.720, 938.664 787.862, 939.316 788.304 C 940.493 789.104, 949.325 784.586, 976.465 769.302 C 983.595 765.286, 990.008 762, 990.715 762 C 993.592 762, 991.635 760.250, 985.250 757.112 C 981.538 755.287, 972.200 750.291, 964.500 746.010 C 956.800 741.728, 945.051 735.503, 938.390 732.175 C 925.028 725.500, 905.764 713.981, 908.047 714.033 C 908.846 714.051, 911.963 714.915, 914.972 715.954 C 917.982 716.993, 920.775 717.639, 921.179 717.390 C 923.124 716.188, 919.634 713.426, 905.583 705.050 C 883.038 691.609, 883.585 692.096, 883.882 685.684 C 884.170 679.453, 883.373 678.509, 877 677.546 C 874.525 677.172, 868.155 675.546, 862.844 673.933 C 857.533 672.320, 852.245 671, 851.094 671 C 849.228 671, 849 670.414, 849 665.625 C 849 662.669, 848.732 658.908, 848.403 657.267 C 847.809 654.293, 847.839 654.271, 859.132 649.534 C 865.360 646.921, 874.291 643.431, 878.978 641.780 C 883.665 640.128, 887.831 638.265, 888.235 637.638 C 888.639 637.012, 888.976 634.575, 888.985 632.223 C 889.007 625.967, 894.139 600.906, 900.996 573.561 C 904.298 560.395, 907 548.808, 907 547.811 C 907 545.727, 906.986 545.727, 901 547.625 M 104.047 559.643 C 103.999 567.906, 104.926 569.900, 107.948 568.032 C 109.420 567.123, 108.836 563.642, 105.991 556.357 L 104.094 551.500 104.047 559.643 M 914.536 564.250 C 913.151 567.543, 913.327 569.139, 914.888 567.433 C 915.948 566.275, 917.246 561, 916.471 561 C 916.159 561, 915.288 562.462, 914.536 564.250 M 213.391 569.423 C 212.971 570.517, 219.228 606.043, 222.122 619 C 223.106 623.405, 225.922 641.939, 228.222 659.149 L 229.379 667.798 234.939 669.437 C 237.998 670.339, 247.250 672.972, 255.500 675.288 L 270.500 679.500 270.500 687.500 L 270.500 695.500 257.760 699.729 C 250.753 702.055, 241.989 704.443, 238.285 705.034 C 234.581 705.626, 231.178 706.648, 230.723 707.305 C 230.268 707.962, 230.088 711.265, 230.324 714.645 L 230.753 720.789 226.626 723.856 C 224.357 725.542, 217.945 730.652, 212.378 735.211 C 206.811 739.770, 200.511 744.175, 198.378 745 C 195.805 745.995, 191.052 750.110, 184.250 757.229 C 178.613 763.130, 174 768.417, 174 768.979 C 174 769.541, 175.238 770.020, 176.750 770.045 C 178.262 770.070, 180.767 770.632, 182.316 771.295 L 185.133 772.500 182.316 775.172 C 180.767 776.642, 177.410 779.342, 174.855 781.172 C 162.725 789.862, 137.198 809.530, 134.691 812.118 C 132.722 814.150, 132.274 815.161, 133.191 815.498 C 133.911 815.762, 136.975 816.849, 140 817.912 C 143.025 818.976, 157.650 824.185, 172.500 829.489 C 187.350 834.792, 200.196 839.356, 201.046 839.629 C 202.888 840.222, 214.237 828.660, 231.114 809 C 237.488 801.575, 243.557 794.776, 244.601 793.892 C 246.329 792.428, 247.606 792.416, 258.764 793.752 C 272.863 795.441, 272.353 795.622, 277.170 787.203 C 278.921 784.143, 282.411 778.856, 284.927 775.454 C 287.442 772.052, 292.425 765.157, 296 760.131 C 309.737 740.820, 315.324 733.372, 318.734 729.821 C 320.843 727.625, 322.038 725.541, 321.697 724.653 C 321.382 723.833, 321.792 722.910, 322.609 722.596 C 323.760 722.155, 324.026 720.515, 323.796 715.264 L 323.500 708.500 319.500 708.195 C 317.300 708.027, 309.200 706.145, 301.500 704.014 C 293.800 701.883, 286.262 699.874, 284.750 699.551 C 282.029 698.968, 282 698.878, 282 690.981 C 282 686.591, 282.255 683, 282.566 683 C 282.877 683, 283.940 683.432, 284.927 683.961 C 286.300 684.696, 290.234 683.371, 301.612 678.342 C 309.800 674.722, 318.750 670.946, 321.500 669.950 C 324.250 668.953, 326.455 667.657, 326.400 667.069 C 326.345 666.481, 326.233 663.525, 326.150 660.500 C 326.002 655.089, 325.952 655, 323 655 L 320 655 320 644.519 L 320 634.038 317.360 633.376 C 314.537 632.667, 301.975 636.218, 289.592 641.224 C 285.792 642.760, 282.488 643.821, 282.248 643.581 C 281.775 643.109, 279.142 628.576, 276.073 609.500 C 275.011 602.900, 273.636 595.199, 273.017 592.386 C 272.399 589.573, 271.756 585.973, 271.590 584.386 C 271.234 580.996, 269.997 580.602, 240.500 574.471 C 230.600 572.414, 220.560 570.152, 218.188 569.444 C 214.718 568.410, 213.782 568.406, 213.391 569.423 M 805.500 569.688 C 804.400 569.939, 798.325 571.402, 792 572.940 C 785.675 574.477, 774.031 577.031, 766.124 578.615 C 758.217 580.198, 751.625 581.946, 751.476 582.497 C 750.568 585.847, 747.681 604.879, 745.938 619 C 744.818 628.075, 742.799 641.492, 741.451 648.817 C 740.103 656.141, 739 663.453, 739 665.067 C 739 668.901, 737.978 668.818, 727.844 664.158 C 723.249 662.045, 717.804 659.761, 715.745 659.081 L 712 657.845 712 650.922 C 712 647.115, 712.419 644, 712.932 644 C 713.444 644, 717.583 645.372, 722.130 647.048 C 732.555 650.892, 738.344 650.843, 738.801 646.907 C 739.072 644.577, 738.403 644.001, 732.219 641.236 C 716.253 634.097, 706.046 632.177, 704.035 635.934 C 703.466 636.998, 703 641.937, 703 646.909 L 703 655.950 700 655.350 L 697 654.750 697 661.723 L 697 668.696 700.750 670.287 C 726.911 681.383, 737.212 685.188, 738.259 684.141 C 740.801 681.599, 741.719 683.096, 742.296 690.727 C 742.617 694.976, 742.778 698.555, 742.654 698.679 C 741.886 699.448, 709.976 707.170, 707.647 707.151 C 706.078 707.138, 703.715 707.538, 702.397 708.039 C 700.301 708.836, 700 709.590, 700 714.041 C 700 716.841, 700.535 720.114, 701.189 721.316 C 701.842 722.517, 702.444 724.175, 702.526 725 C 702.608 725.825, 706.050 731, 710.175 736.500 C 717.455 746.206, 721.627 752.391, 731.424 768 C 735.934 775.185, 744.573 787.416, 749.275 793.271 L 751.500 796.042 762.500 794.541 C 768.550 793.715, 774.235 793.030, 775.134 793.020 C 776.032 793.009, 781.432 798.467, 787.134 805.149 C 804.565 825.579, 817.314 840, 817.945 840 C 818.275 840, 826.635 837.065, 836.523 833.478 C 846.410 829.890, 859.450 825.405, 865.500 823.510 C 871.550 821.615, 880.027 818.773, 884.339 817.195 L 892.177 814.325 878.339 803.316 C 870.727 797.262, 858.783 788.179, 851.796 783.133 C 844.808 778.086, 838.846 773.561, 838.547 773.076 C 837.905 772.038, 843.273 770, 846.649 770 C 847.942 770, 849 769.708, 849 769.352 C 849 768.996, 845.217 764.780, 840.594 759.984 C 835.971 755.189, 831.459 749.855, 830.568 748.132 C 829.434 745.938, 828.228 745, 826.540 745 C 823.804 745, 809.723 734.727, 800.500 726.002 C 797.200 722.880, 793.825 720.062, 793 719.739 C 791.667 719.217, 791.667 719.037, 793 718.113 C 794.591 717.010, 795.168 707.835, 793.736 706.403 C 793.316 705.983, 790.062 705.289, 786.504 704.860 C 782.947 704.432, 774.897 702.263, 768.616 700.041 C 762.334 697.818, 756.476 696, 755.598 696 C 754.260 696, 754 694.623, 754 687.542 L 754 679.085 761.250 676.991 C 785.070 670.114, 793.198 667.570, 794.461 666.595 C 795.444 665.837, 796.377 660.581, 797.496 649.500 C 799.083 633.778, 803.325 610.037, 809.084 584.643 C 810.688 577.571, 812 571.159, 812 570.393 C 812 569.018, 809.586 568.756, 805.500 569.688 M 106 579.285 C 103.243 580.242, 102.430 581.112, 102.171 583.380 L 101.842 586.261 107.420 585.798 C 113.886 585.262, 114.024 585.173, 114.295 581.372 C 114.467 578.969, 114.091 578.465, 112 578.285 C 110.625 578.166, 107.925 578.616, 106 579.285 M 176.317 580.250 C 176.611 581.487, 177.168 585.139, 177.555 588.365 L 178.259 594.229 183.880 596.830 C 188.448 598.943, 191.028 599.436, 197.665 599.465 C 202.156 599.484, 206.015 599.275, 206.239 599 C 206.464 598.725, 206.460 596.411, 206.232 593.858 L 205.816 589.217 197.658 586.474 C 193.171 584.965, 186.625 582.441, 183.112 580.865 C 179.598 579.289, 176.512 578, 176.253 578 C 175.995 578, 176.024 579.013, 176.317 580.250 M 909.667 578.667 C 909.300 579.033, 909 580.833, 909 582.667 C 909 586.575, 910.841 586.997, 916.375 584.358 L 919.817 582.717 917.014 580.358 C 914.289 578.066, 911.020 577.313, 909.667 578.667 M 684.500 580.534 C 666.817 583.863, 636.042 589.216, 631.750 589.709 C 628.262 590.110, 626.999 590.685, 626.996 591.877 C 626.987 594.938, 623.027 637.497, 621.887 646.769 C 621.261 651.867, 620.395 656.256, 619.963 656.523 C 619.531 656.790, 617.900 656.336, 616.339 655.515 C 611.729 653.089, 589.982 645, 588.070 645 C 584.602 645, 582.642 648.616, 582.883 654.569 C 583.245 663.520, 582.107 669, 579.886 669 C 578.218 669, 578 669.807, 578 676 C 578 681.714, 578.290 683, 579.581 683 C 581.016 683, 604.118 693.232, 613.256 697.916 C 616.555 699.606, 617.346 699.676, 619.756 698.488 C 621.265 697.744, 623.737 696.831, 625.250 696.459 L 628 695.783 628 704.278 C 628 712.765, 627.997 712.773, 625.250 713.243 C 623.737 713.501, 615.300 715.543, 606.500 717.780 C 597.700 720.017, 588.813 722.127, 586.750 722.469 L 583 723.091 583 729.996 C 583 735.512, 583.352 737.108, 584.750 737.932 C 586.144 738.753, 586.230 739.141, 585.176 739.836 C 584.116 740.536, 584.389 741.982, 586.547 747.105 C 589.019 752.969, 599.532 785.193, 606.903 809.500 L 609.936 819.500 622.530 819.541 C 632.438 819.574, 635.324 819.894, 636.060 821.041 C 637.259 822.909, 654.170 865.812, 656.439 872.743 C 657.867 877.103, 658.438 877.837, 659.828 877.100 C 660.748 876.613, 667.800 874.832, 675.500 873.144 C 710.673 865.431, 747.286 857.048, 747.727 856.607 C 747.994 856.340, 744.902 851.801, 740.856 846.520 C 731.452 834.246, 719.897 817.379, 716.140 810.443 L 713.214 805.040 718.130 804.388 C 720.833 804.030, 723.296 803.330, 723.603 802.834 C 724.719 801.027, 707.500 773.083, 701.076 766.277 C 698.531 763.580, 693.129 756.452, 689.073 750.437 C 685.018 744.421, 680.852 738.555, 679.816 737.400 C 678.138 735.528, 678.100 735.162, 679.467 734.028 C 681.064 732.702, 681.586 725.447, 680.235 723.372 C 679.831 722.752, 677.522 721.914, 675.105 721.510 C 670.020 720.660, 656.543 716.161, 650 713.129 C 647.525 711.982, 644.038 711.034, 642.250 711.022 L 639 711 639 702.479 C 639 694.580, 639.164 693.890, 641.250 693.041 C 642.487 692.537, 651.825 690.218, 662 687.888 C 672.175 685.558, 680.800 683.392, 681.168 683.076 C 681.535 682.759, 682.558 675.075, 683.441 666 C 685.490 644.931, 688.450 622.577, 692.410 598.250 C 696.011 576.132, 696.932 578.194, 684.500 580.534 M 327.458 582.250 C 327.731 583.487, 328.418 587.875, 328.985 592 C 329.551 596.125, 330.899 605.125, 331.981 612 C 333.929 624.387, 336.540 644.699, 340.532 678.520 L 341.124 683.540 357.837 687.289 C 367.029 689.350, 376.226 691.500, 378.275 692.066 L 382 693.094 382 701.383 L 382 709.672 367.864 714.910 C 360.089 717.791, 351.137 720.604, 347.971 721.162 C 342.666 722.096, 342.167 722.414, 341.607 725.213 C 340.551 730.494, 340.914 735.030, 342.439 735.615 C 343.500 736.022, 342.959 736.975, 340.381 739.239 C 338.457 740.928, 335.479 744.378, 333.764 746.905 C 328.192 755.115, 319.684 766.463, 317.950 768 C 317.019 768.825, 313.210 774.450, 309.486 780.500 C 305.762 786.550, 301.204 793.826, 299.357 796.669 C 297.511 799.513, 296 802.262, 296 802.780 C 296 803.297, 298.522 803.981, 301.605 804.299 C 304.688 804.617, 307.449 805.115, 307.740 805.407 C 309.224 806.890, 300.240 821.329, 283.166 844.903 C 278.623 851.175, 275.265 856.610, 275.703 856.981 C 276.141 857.352, 282.575 858.831, 290 860.267 C 301.769 862.544, 311.233 864.651, 351.500 873.959 C 355.900 874.977, 360.067 875.964, 360.761 876.154 C 362.059 876.510, 362.806 874.807, 375.911 841.592 C 379.798 831.742, 383.634 822.681, 384.437 821.455 C 385.799 819.377, 386.690 819.216, 397.670 819.064 C 404.145 818.974, 409.691 818.500, 409.993 818.011 C 410.296 817.521, 413.182 809.106, 416.406 799.310 C 427.458 765.733, 434.244 746.497, 436.154 743.329 C 437.578 740.967, 437.758 739.969, 436.862 739.414 C 436.038 738.906, 436.344 738.417, 437.829 737.868 C 439.750 737.157, 440 736.321, 440 730.600 C 440 723.524, 440.253 723.796, 432.500 722.512 C 430.300 722.147, 421.536 719.858, 413.025 717.425 C 404.514 714.991, 396.812 713, 395.911 713 C 394.223 713, 393 707.691, 393 700.360 C 393 696.637, 394.759 696.022, 399.384 698.129 C 402.060 699.348, 402.487 699.194, 431 686.694 L 443.500 681.213 443.500 674.857 C 443.500 668.846, 443.373 668.505, 441.176 668.587 C 438.871 668.674, 438.854 668.593, 439.114 658.168 C 439.497 642.744, 439.252 642.692, 412.163 652.439 C 406.477 654.485, 401.574 655.907, 401.266 655.599 C 400.409 654.742, 398.304 637.191, 397.083 620.735 C 396.481 612.614, 395.542 602.823, 394.997 598.977 C 394.451 595.131, 394.116 591.459, 394.253 590.817 C 394.414 590.056, 391.022 589.179, 384.500 588.297 C 379 587.553, 364.628 585.382, 352.562 583.472 C 326.189 579.298, 326.814 579.328, 327.458 582.250 M 837.092 583.048 C 833.017 584.615, 827.392 586.452, 824.592 587.131 C 821.791 587.810, 819.213 588.620, 818.863 588.933 C 818.512 589.245, 818.028 592.061, 817.786 595.190 L 817.345 600.881 820.423 600.373 C 822.115 600.093, 827.100 599.153, 831.500 598.283 C 835.900 597.414, 840.303 596.673, 841.285 596.637 C 842.266 596.601, 843.271 595.655, 843.518 594.536 C 843.765 593.416, 844.589 589.688, 845.350 586.250 C 846.328 581.827, 846.406 580.029, 845.616 580.100 C 845.002 580.155, 841.166 581.482, 837.092 583.048 M 471.795 618.562 C 472.141 639.669, 471.952 648.222, 471.101 649.812 C 470.137 651.612, 469.049 652, 464.965 652 L 460 652 460 658.417 C 460 665.552, 460.600 666.204, 465.844 664.769 C 467.683 664.266, 469.483 664.152, 469.844 664.515 C 470.205 664.879, 470.500 671.887, 470.500 680.089 L 470.500 695.001 487.750 695 L 505 695 504.973 704.750 L 504.946 714.500 487.223 720.271 C 477.475 723.445, 468.262 726.033, 466.750 726.021 C 464.012 726, 464 726.031, 464 732.941 C 464 736.936, 464.470 740.172, 465.107 740.566 C 465.908 741.061, 465.895 741.447, 465.061 741.963 C 464.426 742.355, 462.566 750.961, 460.926 761.088 C 459.285 771.214, 456.156 788.400, 453.972 799.278 C 451.787 810.155, 450 819.718, 450 820.528 C 450 821.709, 451.682 822, 458.500 822 C 465.929 822, 467 822.220, 466.998 823.750 C 466.995 827.590, 461.494 872.032, 460.096 879.516 L 459.258 884 510.138 884 L 561.017 884 560.460 878.250 C 560.153 875.087, 559.242 867.325, 558.436 861 C 555.262 836.105, 554.078 823.522, 554.839 822.761 C 555.276 822.324, 559.309 821.682, 563.799 821.336 C 571.438 820.747, 571.934 820.571, 571.492 818.603 C 570.190 812.810, 566.617 794.624, 565.479 788 C 564.770 783.875, 563.053 774.875, 561.663 768 C 560.272 761.125, 558.821 753.025, 558.438 750 C 558.055 746.975, 557.091 743.753, 556.298 742.841 C 555.033 741.387, 555.055 741.068, 556.479 740.271 C 557.771 739.548, 558.043 738.044, 557.802 732.940 L 557.500 726.518 552.896 725.863 C 550.364 725.502, 542.300 723.136, 534.976 720.604 C 527.652 718.072, 520.611 716, 519.330 716 C 517.038 716, 517 715.829, 517 705.500 L 517 695 533.926 695 L 550.852 695 551.176 680.417 C 551.470 667.200, 551.687 665.697, 553.500 664.367 C 555.276 663.064, 555.537 663.080, 555.835 664.508 C 556.062 665.602, 557.021 666.018, 558.835 665.808 C 561.417 665.510, 561.509 665.274, 561.794 658.250 L 562.088 651 556.044 651 L 550 651 550 619.892 L 550 588.783 510.659 589.142 L 471.317 589.500 471.795 618.562 M 111.389 591.008 C 108.528 592.125, 107.565 594.994, 109.426 596.855 C 110.635 598.064, 111.418 598.130, 113.463 597.199 C 116.256 595.926, 116.660 594.226, 114.750 591.783 C 113.865 590.651, 112.883 590.425, 111.389 591.008 M 909.336 592.140 C 907.249 594.741, 906.736 598, 908.414 598 C 909.973 598, 911.525 594.074, 910.811 591.933 C 910.541 591.123, 910.103 591.184, 909.336 592.140 M 286.999 606.775 C 286.999 607.174, 287.724 611.154, 288.610 615.621 L 290.222 623.742 303.657 624.454 C 311.046 624.845, 318.469 625.561, 320.152 626.044 C 322.994 626.859, 323.169 626.764, 322.599 624.711 C 322.261 623.495, 321.705 619.971, 321.364 616.881 L 320.742 611.262 306.621 609.107 C 298.855 607.922, 291.262 606.749, 289.750 606.501 C 288.238 606.253, 287 606.376, 286.999 606.775 M 731.905 607.429 C 731.669 607.664, 724.772 608.787, 716.578 609.922 C 708.384 611.058, 701.591 612.103, 701.484 612.244 C 701.376 612.385, 700.855 615.802, 700.325 619.837 L 699.363 627.174 702.431 626.579 C 705.591 625.967, 725.445 624.160, 730.139 624.058 C 732.987 623.995, 733.171 623.508, 734.594 612.250 C 735.130 608.008, 734.977 607, 733.795 607 C 732.991 607, 732.140 607.193, 731.905 607.429 M 113.702 619.632 C 113.316 620.018, 113 623.529, 113 627.436 L 113 634.538 99.750 637.276 C 92.463 638.782, 85.200 640.011, 83.610 640.007 L 80.720 640 81.288 645.502 L 81.856 651.003 77.419 654.056 C 74.978 655.735, 68.148 658.924, 62.241 661.142 C 49.485 665.931, 48.072 666.848, 50.601 668.697 C 51.581 669.414, 53.286 670, 54.391 670 C 58.591 670, 53.924 671.934, 34 678.451 C 22.725 682.140, 10.575 686.188, 7 687.448 L 0.500 689.738 0.500 700.146 L 0.500 710.553 5.416 717.527 C 8.120 721.362, 10.436 724.641, 10.563 724.813 C 10.689 724.985, 16.127 722.690, 22.646 719.712 C 35.829 713.691, 67.179 701, 68.871 701 C 69.630 701, 69.605 701.774, 68.785 703.572 C 67.840 705.646, 67.888 706.313, 69.033 707.020 C 71.038 708.260, 85.938 707.277, 87.883 705.777 C 88.773 705.092, 91.929 702.499, 94.899 700.016 C 102.014 694.064, 126.053 677.509, 138 670.333 C 151.024 662.510, 151 662.535, 151 656.904 C 151 654.272, 150.499 651.809, 149.887 651.430 C 149.275 651.052, 145.780 649.972, 142.120 649.031 C 134.812 647.151, 127 642.777, 127 640.564 C 127 639.788, 125.875 637.816, 124.500 636.182 C 122.521 633.830, 121.997 632.095, 121.985 627.856 C 121.976 624.910, 121.639 621.994, 121.235 621.376 C 120.326 619.985, 114.660 618.673, 113.702 619.632 M 900.643 624.589 C 900.289 627.169, 900 630.791, 900 632.640 C 900 634.946, 899.534 636, 898.513 636 C 897.696 636, 896.394 637.516, 895.620 639.368 C 894.216 642.728, 888.400 648, 886.097 648 C 885.429 648, 885.161 648.452, 885.502 649.004 C 886.259 650.228, 890.236 649.349, 895.210 646.858 C 897.251 645.836, 899.146 645, 899.422 645 C 899.697 645, 900.434 646.913, 901.059 649.250 C 902.523 654.726, 903.152 655.424, 909.882 659.050 C 912.972 660.715, 917.450 663.758, 919.832 665.814 L 924.165 669.551 917.332 672.347 C 913.575 673.885, 909.341 675.630, 907.924 676.225 C 905.586 677.207, 904.477 676.676, 895.924 670.481 C 883.155 661.232, 882 660.107, 882 656.907 C 882 652.513, 880.997 651, 878.084 651 C 873.499 651, 871.597 653.130, 872.302 657.474 C 873.037 662.002, 875.151 664.524, 880.500 667.254 C 885.888 670.003, 904.965 682.808, 913 689.067 C 916.575 691.852, 924.225 697.418, 930 701.435 L 940.500 708.740 947.430 707.887 C 954.320 707.039, 956.284 705.904, 955.300 703.341 C 955.018 702.603, 955.003 702, 955.267 702 C 956.074 702, 971.548 708.420, 990 716.410 C 999.625 720.578, 1008.024 723.990, 1008.665 723.994 C 1010.092 724.001, 1016.908 716.364, 1021.033 710.137 C 1023.861 705.867, 1024.054 705.001, 1023.787 697.743 L 1023.500 689.940 1002.500 683.008 C 990.950 679.195, 976.775 674.629, 971 672.862 C 957.035 668.588, 955.913 667.637, 964.085 667 L 970.500 666.500 967.087 664.640 C 965.210 663.617, 961.175 661.921, 958.121 660.870 C 955.067 659.819, 949.823 657.308, 946.468 655.290 L 940.367 651.621 940.806 646.326 C 941.130 642.413, 940.887 640.924, 939.873 640.619 C 939.118 640.392, 934.675 639.462, 930 638.551 C 925.325 637.641, 918.930 636.370, 915.789 635.727 L 910.079 634.557 909.789 627.529 L 909.500 620.500 905.393 620.199 L 901.286 619.899 900.643 624.589 M 583 623.553 C 572.825 624.255, 563.712 624.868, 562.750 624.915 C 561.249 624.988, 561 626.051, 561 632.402 L 561 639.804 566.807 640.478 C 571.355 641.005, 573.949 640.702, 578.775 639.076 C 585.725 636.735, 594.657 636.396, 603.357 638.143 C 606.487 638.771, 609.200 639.109, 609.386 638.893 C 609.573 638.677, 610.023 634.788, 610.386 630.250 L 611.047 622 606.273 622.138 C 603.648 622.213, 593.175 622.850, 583 623.553 M 410.345 627.499 C 410.705 630.128, 411.007 633.454, 411.015 634.890 C 411.044 639.837, 411.818 640.115, 421.052 638.490 C 432.226 636.523, 435.941 636.610, 442.740 639 C 445.927 640.120, 450.994 641, 454.257 641 L 460.084 641 459.792 633.250 L 459.500 625.500 451 624.849 C 446.325 624.490, 435.118 623.865, 426.095 623.458 L 409.690 622.719 410.345 627.499 M 185.250 626.662 C 184.563 626.940, 184 628.313, 184 629.714 C 184 632.035, 184.290 632.213, 187.250 631.711 C 189.037 631.408, 192.265 630.411, 194.421 629.495 C 197.404 628.229, 198.002 627.614, 196.921 626.930 C 195.427 625.984, 187.387 625.800, 185.250 626.662 M 827.529 627.953 C 827.205 628.478, 828.866 629.422, 831.220 630.051 C 833.574 630.681, 835.991 631.598, 836.592 632.089 C 837.934 633.188, 839 632.241, 839 629.950 C 839 627.357, 828.976 625.612, 827.529 627.953 M 106 643.659 C 91.944 645.022, 92 645.007, 92 647.572 C 92 650.932, 88.957 653.654, 81.424 657.034 C 77.891 658.619, 75 660.407, 75 661.007 C 75 662.493, 82.849 665.951, 86.283 665.978 C 89.036 666, 109.036 653.600, 111.750 650.189 C 113.705 647.731, 113.366 642.966, 111.250 643.160 C 110.287 643.248, 107.925 643.473, 106 643.659 M 305.032 644.582 C 297.899 647.677, 286.904 650.019, 284.799 648.893 C 283.107 647.987, 282.887 648.102, 283.323 649.664 C 283.605 650.674, 284.125 654.200, 284.477 657.500 C 285.358 665.739, 285.836 667, 288.077 667 C 290.400 667, 308.949 659.288, 310.795 657.554 C 312.406 656.042, 311.341 642.978, 309.612 643.039 C 309 643.061, 306.940 643.755, 305.032 644.582 M 909.014 644.103 C 909.047 647.517, 910.369 649.784, 913.321 651.488 C 915.070 652.497, 918.402 655.050, 920.728 657.162 C 923.053 659.273, 925.315 661, 925.755 661 C 926.195 661, 928.054 662.370, 929.887 664.044 L 933.220 667.088 937.860 665.508 C 940.412 664.639, 943.625 663.302, 945 662.536 C 947.390 661.206, 947.412 661.111, 945.500 660.381 C 944.400 659.961, 940.965 658.138, 937.867 656.329 C 932.638 653.277, 932.185 652.716, 931.555 648.520 C 930.910 644.214, 930.722 644, 927.590 644 C 925.781 644, 920.859 643.709, 916.651 643.353 C 910.456 642.830, 909.003 642.972, 909.014 644.103 M 121.340 649.278 C 120.800 652.652, 120.023 653.663, 116.268 655.881 C 107.597 661.001, 97 668.156, 97 668.890 C 97 669.299, 99.587 670.446, 102.750 671.437 C 105.912 672.428, 110.232 674.117, 112.349 675.190 L 116.198 677.142 122.349 672.914 C 136.563 663.145, 139.617 661.203, 141.822 660.529 C 143.506 660.014, 143.949 659.363, 143.431 658.160 C 143.038 657.247, 142.513 655.320, 142.264 653.878 C 141.862 651.552, 141.232 651.188, 136.692 650.650 C 133.877 650.317, 129.414 648.975, 126.775 647.669 L 121.977 645.294 121.340 649.278 M 292.549 654.920 C 291.554 656.531, 294.068 657.121, 297.500 656.081 C 299.150 655.581, 299.825 655.127, 299 655.072 C 298.175 655.018, 296.538 654.715, 295.363 654.399 C 294.187 654.084, 292.921 654.318, 292.549 654.920 M 419.726 658.637 C 414.900 660.506, 409.186 662.153, 407.029 662.298 C 404.871 662.442, 402.863 662.804, 402.566 663.101 C 402.104 663.563, 403.898 681.024, 404.484 681.763 C 404.895 682.282, 418.293 676.890, 424.088 673.874 L 430 670.797 430 664.480 C 430 661.006, 430.273 657.452, 430.607 656.582 C 431.447 654.393, 429.958 654.674, 419.726 658.637 M 592 663.378 C 592 668.165, 592.451 671.129, 593.284 671.821 C 593.991 672.407, 599.278 674.746, 605.034 677.018 C 610.790 679.290, 616.002 681.366, 616.617 681.631 C 617.366 681.953, 617.970 679.082, 618.453 672.913 C 618.849 667.853, 619.379 663.177, 619.630 662.521 C 619.962 661.656, 618.614 661.450, 614.731 661.772 C 610.393 662.132, 607.898 661.625, 601.612 659.108 C 597.342 657.399, 593.433 656, 592.924 656 C 592.416 656, 592 659.320, 592 663.378 M 954.813 665.683 C 955.534 665.972, 956.397 665.936, 956.729 665.604 C 957.061 665.272, 956.471 665.036, 955.417 665.079 C 954.252 665.127, 954.015 665.364, 954.813 665.683 M 413.163 666.878 C 412.427 667.345, 411.977 668.660, 412.163 669.802 L 412.500 671.877 417.234 669.818 C 419.838 668.685, 421.724 667.363, 421.425 666.879 C 420.734 665.761, 414.927 665.760, 413.163 666.878 M 60 668 C 60 669.253, 61.061 669.253, 63 668 C 64.213 667.216, 64.069 667.028, 62.250 667.015 C 61.013 667.007, 60 667.450, 60 668 M 603 669 C 607.516 671.472, 609 671.472, 609 669 C 609 667.275, 608.347 667.006, 604.250 667.042 L 599.500 667.084 603 669 M 702 690.397 C 702 702.231, 702.108 702.900, 704.125 703.540 C 707.310 704.550, 707.969 702.570, 707.969 692 C 707.969 681.823, 707.714 680.939, 704.250 679.115 L 702 677.930 702 690.397 M 166.500 680.559 C 163.200 681.303, 158.137 681.932, 155.250 681.956 L 150 682 150 685.277 C 150 689.720, 148.208 691.978, 139.463 698.560 C 135.358 701.649, 132 704.492, 132 704.876 C 132 705.260, 133.389 705.680, 135.086 705.810 C 136.783 705.939, 139.820 706.749, 141.836 707.609 C 150.026 711.107, 149.398 711.166, 154.417 706.425 C 156.993 703.991, 159.528 702, 160.051 702 C 160.573 702, 161 699.952, 161 697.449 C 161 693.262, 161.260 692.789, 164.250 691.531 C 167.691 690.083, 172.012 685.948, 173.878 682.316 C 175.864 678.451, 175.853 678.448, 166.500 680.559 M 319.244 679.664 C 318.553 679.943, 318.242 680.582, 318.553 681.085 C 319.435 682.512, 321.725 682.160, 322.362 680.500 C 322.933 679.011, 321.691 678.678, 319.244 679.664 M 836 680.127 C 832.304 681.606, 817.304 685, 814.461 685 C 812.447 685, 811.997 685.499, 811.985 687.750 C 811.976 689.263, 811.583 691.110, 811.110 691.856 C 810.490 692.835, 813.993 696.869, 823.700 706.356 C 831.096 713.585, 837.585 719.657, 838.119 719.848 C 838.652 720.040, 841.431 719.266, 844.294 718.130 C 847.157 716.993, 852.532 715.321, 856.237 714.413 L 862.974 712.763 856.886 705.708 C 853.538 701.828, 850.317 697.595, 849.728 696.302 C 849.139 695.009, 847.172 693.033, 845.358 691.912 C 842.201 689.961, 840.020 685.413, 840.006 680.750 C 839.999 678.779, 839.545 678.709, 836 680.127 M 850 681.258 C 850 684.697, 853.108 688.294, 857.977 690.490 C 861.774 692.202, 862.076 692.621, 861.800 695.793 C 861.544 698.734, 862.170 699.912, 866.093 703.868 C 868.619 706.416, 871.135 709.328, 871.684 710.341 C 872.614 712.058, 873.269 711.886, 881.459 707.771 L 890.237 703.360 885.368 700.234 C 882.691 698.514, 878.813 695.560, 876.750 693.669 C 873.552 690.736, 873 689.609, 873 686.008 C 873 682.647, 872.691 681.905, 871.485 682.367 C 870.022 682.929, 854.943 680.683, 851.625 679.410 C 850.395 678.938, 850 679.387, 850 681.258 M 183.416 684.187 C 182.467 686.291, 179.769 689.587, 177.421 691.511 C 175.021 693.478, 172.658 696.506, 172.024 698.428 C 171.344 700.489, 168.733 703.694, 165.448 706.500 C 162.452 709.060, 160 711.508, 160 711.940 C 160 712.373, 163.928 713.506, 168.730 714.460 C 173.531 715.414, 179.190 717.077, 181.305 718.156 C 183.420 719.235, 185.763 719.979, 186.512 719.809 C 188.638 719.326, 213.920 694.068, 212.904 693.441 C 212.407 693.133, 212 691.174, 212 689.086 L 212 685.289 205.750 684.659 C 202.313 684.312, 196.269 683.203, 192.320 682.195 L 185.141 680.361 183.416 684.187 M 918 686.444 C 918 686.688, 921.400 689.501, 925.555 692.694 C 929.711 695.887, 934.098 699.291, 935.305 700.258 C 937.192 701.769, 937.957 701.843, 940.750 700.789 C 942.538 700.114, 944 699.290, 944 698.959 C 944 698.132, 930.592 690.568, 924.667 688.052 C 919.907 686.031, 918 685.571, 918 686.444 M 94.184 689.528 C 90.710 690.865, 86.589 692.868, 85.028 693.980 C 83.466 695.092, 80.234 696.870, 77.844 697.930 L 73.500 699.859 81.500 699.893 C 88.646 699.924, 89.820 699.656, 92.500 697.383 C 94.150 695.983, 97.678 693.075, 100.340 690.919 C 104.492 687.557, 104.847 687.007, 102.840 687.049 C 101.553 687.076, 97.658 688.191, 94.184 689.528 M 584.367 704.184 C 584.734 709.785, 585.159 714.492, 585.311 714.644 C 585.463 714.796, 586.528 714.675, 587.677 714.374 C 590.012 713.764, 590.971 709.994, 590.989 701.348 C 590.999 696.464, 590.836 696.138, 587.851 695.098 C 586.119 694.494, 584.476 694, 584.200 694 C 583.925 694, 584 698.583, 584.367 704.184 M 433 695.906 C 433 696.405, 433.900 696.577, 435 696.290 C 436.100 696.002, 437 695.594, 437 695.383 C 437 695.173, 436.100 695, 435 695 C 433.900 695, 433 695.408, 433 695.906 M 751.783 706.550 C 751.128 707.206, 752.343 713.007, 753.607 715.255 C 754.098 716.129, 756.633 718.471, 759.241 720.460 C 762.165 722.691, 764.197 725.116, 764.543 726.789 C 765.245 730.178, 768.824 737.238, 771.616 740.744 L 773.732 743.401 784.116 740.629 C 789.827 739.104, 795.977 737.551, 797.783 737.178 L 801.066 736.500 794.033 729.527 C 790.165 725.692, 787 722.087, 787 721.517 C 787 720.947, 786.100 719.919, 785 719.232 C 783.750 718.451, 783 716.900, 783 715.094 C 783 712.328, 782.730 712.158, 776.643 711.098 C 773.146 710.489, 766.774 709.093, 762.483 707.996 C 754.208 705.879, 752.663 705.670, 751.783 706.550 M 260 709.042 C 255.875 710.051, 250.137 711.181, 247.250 711.553 C 242.259 712.197, 242 712.376, 242 715.173 C 242 718.269, 239.160 721.528, 227.991 731.250 C 223.870 734.837, 223.020 736.004, 224.517 736.015 C 225.608 736.023, 231.872 737.586, 238.439 739.487 L 250.378 742.943 255.439 738.222 C 260.216 733.765, 260.500 733.219, 260.500 728.500 C 260.500 723.603, 260.587 723.460, 264.701 721.548 C 267.752 720.130, 269.600 718.313, 271.451 714.912 C 272.853 712.337, 274 709.503, 274 708.615 C 274 706.502, 269.873 706.628, 260 709.042 M 282.471 712.132 C 282.131 713.681, 279.861 717.163, 277.426 719.871 C 274.992 722.578, 273 725.545, 273 726.463 C 273 729.008, 271.152 731.973, 265.842 737.950 C 263.179 740.947, 261 743.890, 261 744.490 C 261 745.093, 264.911 746.175, 269.750 746.910 C 274.563 747.641, 281.200 749.080, 284.500 750.107 C 287.800 751.134, 290.801 751.980, 291.170 751.987 C 291.538 751.994, 294.756 748.027, 298.320 743.171 C 301.884 738.316, 305.424 733.703, 306.186 732.921 C 306.949 732.140, 308.790 729.888, 310.277 727.918 C 312.860 724.497, 312.928 724.109, 311.793 719.331 L 310.604 714.327 301.581 713.049 C 296.619 712.347, 290.428 711.220, 287.824 710.544 L 283.089 709.316 282.471 712.132 M 729.500 711.583 C 724 712.883, 718.038 713.958, 716.250 713.973 C 713.158 713.999, 713 714.185, 713 717.800 C 713 719.890, 712.531 722.069, 711.958 722.642 C 711.236 723.364, 714.148 728.026, 721.452 737.842 C 727.246 745.629, 732.327 751.995, 732.743 751.989 C 733.160 751.983, 735.750 751.287, 738.500 750.442 C 744.299 748.660, 761.146 745.973, 762.250 746.655 C 762.663 746.910, 763 746.571, 763 745.903 C 763 744.601, 759.813 740.182, 755.709 735.795 C 754.317 734.307, 752.863 731.654, 752.478 729.900 C 752.093 728.146, 750.316 725.249, 748.528 723.462 C 746.741 721.675, 744.234 717.690, 742.956 714.606 C 741.678 711.523, 740.377 709.050, 740.066 709.110 C 739.755 709.171, 735 710.284, 729.500 711.583 M 638.190 726.278 C 638.578 730.962, 639.171 732.358, 641.827 734.838 C 644.594 737.423, 645 738.459, 645 742.936 C 645 745.760, 645.640 749.067, 646.421 750.285 C 647.203 751.503, 648.616 754.896, 649.561 757.825 L 651.279 763.150 662.390 762.453 C 668.500 762.069, 675.750 761.407, 678.500 760.982 C 681.616 760.501, 684.254 760.609, 685.500 761.269 C 687.155 762.145, 687.316 762.084, 686.435 760.914 C 682.218 755.319, 672 738.889, 672 737.704 C 672 736.901, 671.351 735.706, 670.558 735.048 C 669.765 734.390, 668.977 732.422, 668.808 730.676 C 668.544 727.959, 668.066 727.459, 665.500 727.217 C 662.337 726.919, 641.943 722.299, 639.283 721.278 C 637.956 720.769, 637.795 721.510, 638.190 726.278 M 368.500 724.539 C 363.550 725.813, 358.316 726.888, 356.869 726.928 C 354.600 726.990, 354.080 727.626, 353.094 731.541 C 352.465 734.038, 351.289 736.335, 350.481 736.646 C 349.673 736.956, 349.228 737.560, 349.492 737.987 C 349.756 738.415, 349.137 739.830, 348.115 741.132 C 340.832 750.413, 331.151 764.118, 333.111 762.371 C 335.387 760.343, 336.019 760.285, 346.500 761.153 C 352.550 761.654, 360.538 762.402, 364.250 762.815 C 368.708 763.311, 371.008 763.215, 371.024 762.533 C 371.037 761.965, 372.195 758.800, 373.598 755.500 C 375 752.200, 376.247 747.407, 376.368 744.849 C 376.546 741.082, 377.272 739.442, 380.190 736.212 C 382.171 734.019, 384.097 730.712, 384.471 728.862 C 384.844 727.013, 385.371 724.712, 385.642 723.750 C 386.060 722.266, 385.477 722.017, 381.817 722.111 C 379.443 722.173, 373.450 723.265, 368.500 724.539 M 622 724.515 C 619.525 725.197, 612.438 726.568, 606.250 727.562 L 595 729.368 595 732.984 C 595 734.973, 594.512 737.088, 593.915 737.685 C 593.135 738.465, 593.234 739.575, 594.268 741.635 C 595.058 743.211, 597.559 750.381, 599.825 757.568 L 603.945 770.636 622.223 768.175 C 632.275 766.822, 640.606 765.635, 640.735 765.539 C 641.113 765.257, 636.055 751.782, 634.339 748.500 C 633.477 746.850, 632.382 742.800, 631.906 739.500 C 630.771 731.620, 628.534 723.643, 627.402 723.438 C 626.906 723.349, 624.475 723.833, 622 724.515 M 394.990 725.750 C 394.985 726.712, 393.935 729.750, 392.657 732.500 C 391.378 735.250, 390.031 739.717, 389.661 742.427 C 389.292 745.137, 388.329 748.084, 387.520 748.977 C 385.592 751.108, 380.010 764.677, 380.755 765.422 C 381.073 765.740, 383.077 766, 385.208 766 C 387.339 766, 394.939 766.714, 402.095 767.586 C 409.252 768.459, 415.684 768.951, 416.390 768.681 C 417.095 768.410, 419.824 762.065, 422.453 754.581 C 425.083 747.096, 427.705 740.682, 428.280 740.327 C 428.855 739.972, 430.715 739.349, 432.413 738.943 C 435.395 738.230, 435.409 738.201, 432.832 738.102 C 427.875 737.912, 427 737.070, 427 732.487 C 427 728.885, 426.716 728.261, 425.250 728.644 C 424.288 728.896, 417.650 727.955, 410.500 726.554 C 395.028 723.523, 395.003 723.522, 394.990 725.750 M 499.500 726.928 C 498.400 727.369, 492.701 728.786, 486.835 730.076 C 476.371 732.378, 476.160 732.480, 475.691 735.461 C 475.428 737.133, 474.498 740.975, 473.625 744 C 472.752 747.025, 471.109 755.350, 469.973 762.500 C 468.838 769.650, 467.688 776.544, 467.418 777.820 C 466.987 779.856, 467.264 780.101, 469.687 779.820 C 472.057 779.545, 472.566 778.899, 473.283 775.250 L 474.118 771 489.559 771 L 505 771 505 763.559 C 505 759.466, 505.453 755.838, 506.008 755.495 C 506.632 755.109, 506.442 754.299, 505.508 753.365 C 503.776 751.633, 503.369 740.508, 505 739.500 C 505.550 739.160, 506 735.984, 506 732.441 C 506 726.409, 505.857 726.004, 503.750 726.063 C 502.512 726.098, 500.600 726.488, 499.500 726.928 M 514.795 731.750 C 514.478 736.420, 514.763 737.856, 516.314 739.393 C 518.861 741.918, 518.285 751.587, 515.464 753.650 C 514.449 754.392, 514.154 755, 514.809 755 C 515.631 755, 516 757.478, 516 763 L 516 771 532.372 771 L 548.744 771 549.384 775 C 550.192 780.055, 553.002 780.638, 552.996 775.750 C 552.992 771.794, 550.701 757.748, 548.685 749.313 C 547.872 745.911, 547.439 742.894, 547.722 742.611 C 548.006 742.327, 547.510 741.367, 546.619 740.476 C 545.729 739.586, 545 737.314, 545 735.429 C 545 732.479, 544.666 732, 542.607 732 C 541.290 732, 534.878 730.651, 528.357 729.003 C 521.836 727.354, 516.204 726.004, 515.843 726.003 C 515.481 726.001, 515.009 728.587, 514.795 731.750 M 850.616 730.398 L 845.732 731.558 852.871 737.326 C 856.797 740.498, 860.994 744.426, 862.197 746.053 C 864.514 749.186, 864.892 749.197, 871.772 746.322 L 875.219 744.882 868.067 739.843 C 864.133 737.071, 859.949 733.498, 858.769 731.902 C 857.589 730.306, 856.371 729.053, 856.062 729.119 C 855.753 729.184, 853.302 729.760, 850.616 730.398 M 164.320 732.835 C 163.122 734.381, 159.522 737.049, 156.320 738.763 C 145.828 744.381, 145.740 744.564, 152.938 745.832 C 156.394 746.441, 159.890 747.494, 160.708 748.172 C 161.920 749.179, 162.392 749.046, 163.269 747.453 C 163.861 746.379, 167.227 742.504, 170.748 738.841 C 177.659 731.655, 177.668 731.752, 170 730.565 C 167.016 730.103, 166.179 730.437, 164.320 732.835 M 194.797 753.750 C 193.898 755.263, 191.766 757.831, 190.060 759.457 L 186.958 762.414 191.161 763.655 C 195.959 765.072, 195.872 765.108, 203.045 758.781 L 208.394 754.063 204.729 752.531 C 199.289 750.258, 196.682 750.578, 194.797 753.750 M 818.250 752.119 C 816.462 752.635, 815 753.283, 815 753.559 C 815 754.302, 821.862 760.249, 824.883 762.125 C 826.618 763.203, 828.797 763.583, 831.349 763.254 L 835.198 762.758 829.380 756.879 C 823.210 750.643, 823.270 750.669, 818.250 752.119 M 270.222 765.412 C 269.598 766.781, 265.912 771.245, 262.030 775.332 L 254.972 782.762 262.736 783.771 C 269.319 784.627, 270.652 784.551, 271.500 783.271 C 279.752 770.821, 283 765.816, 283 765.550 C 283 765.372, 280.917 764.915, 278.372 764.533 C 275.827 764.151, 273.207 763.633, 272.550 763.381 C 271.894 763.129, 270.846 764.043, 270.222 765.412 M 747.915 763.988 C 747.043 764.498, 744.686 765.026, 742.678 765.161 C 739.196 765.396, 739.095 765.502, 740.505 767.454 C 741.319 768.579, 744.345 772.987, 747.230 777.250 C 752.995 785.768, 752.635 785.614, 763.423 784.162 L 768.346 783.500 763.078 777.500 C 760.181 774.200, 756.685 769.587, 755.310 767.250 C 752.828 763.031, 750.960 762.207, 747.915 763.988 M 697.750 777.413 C 696.237 777.948, 695.022 778.637, 695.049 778.943 C 695.076 779.249, 697.689 783.100, 700.857 787.500 C 705.270 793.629, 707.246 795.574, 709.309 795.816 C 710.789 795.990, 712 795.936, 712 795.696 C 712 795.455, 709.413 791.024, 706.250 785.849 C 700.646 776.678, 700.430 776.464, 697.750 777.413 M 313.786 786.040 L 308.072 794.961 311.286 795.847 C 315.174 796.918, 315.167 796.924, 322.312 786.343 C 327.524 778.625, 327.704 778.155, 325.660 777.607 C 320.608 776.251, 319.594 776.971, 313.786 786.040 M 619 783.609 C 618.175 783.754, 615.420 784.145, 612.877 784.479 L 608.255 785.084 610.568 792.792 C 611.840 797.031, 613.375 802.413, 613.979 804.750 L 615.077 809 623.024 809 L 630.971 809 628.871 803.750 C 627.715 800.862, 625.691 795.367, 624.372 791.537 C 621.765 783.967, 621.254 783.213, 619 783.609 M 398.354 786.789 C 397.988 788.280, 396.243 792.946, 394.476 797.158 C 388.992 810.229, 388.851 809.626, 397.286 809.179 C 401.254 808.969, 404.769 808.506, 405.098 808.149 C 405.785 807.403, 413.078 785.716, 412.730 785.453 C 412.604 785.357, 409.467 785.009, 405.759 784.678 C 399.062 784.081, 399.015 784.094, 398.354 786.789 M 462.996 791.750 C 462.994 792.163, 462.307 796.725, 461.469 801.890 C 460.632 807.054, 460.151 811.484, 460.401 811.735 C 460.651 811.985, 462.308 812.259, 464.084 812.345 C 467.726 812.520, 468.167 811.624, 470.011 800.304 C 470.567 796.897, 471.289 793.409, 471.617 792.554 C 472.104 791.287, 471.363 791, 467.607 791 C 465.073 791, 462.998 791.337, 462.996 791.750 M 551.348 793.250 C 551.658 794.487, 552.222 799.212, 552.600 803.750 L 553.288 812 557.751 812 C 561.374 812, 562.102 811.708, 561.618 810.447 C 561.290 809.593, 560.486 804.868, 559.831 799.947 L 558.640 791 554.712 791 C 551.137 791, 550.834 791.203, 551.348 793.250" stroke="none" fill="#000000" fill-rule="evenodd"/>
</svg>