<svg xmlns="http://www.w3.org/2000/svg" width="1024" height="1024" viewBox="0 0 1024 1024" version="1.1">
	<path d="M 287.500 208.020 C 249.642 208.661, 248.257 208.927, 234.347 218.231 C 224.165 225.041, 217.780 233.827, 212.350 248.500 C 210.572 253.307, 210.490 262.852, 210.240 495.465 L 209.980 737.430 212.128 743.965 C 216.887 758.446, 224.110 768.366, 235 775.377 C 239.712 778.410, 250.411 782.745, 256.290 784.002 C 259.490 784.686, 344.950 785.020, 513.667 785.008 C 792.159 784.987, 770.853 785.472, 784.822 778.834 C 792.552 775.160, 803.228 765.306, 807.926 757.509 C 809.810 754.382, 812.383 748.261, 813.644 743.908 L 815.937 735.992 816.022 495.746 L 816.107 255.500 813.775 247.500 C 812.469 243.021, 809.759 236.964, 807.617 233.740 C 799.207 221.075, 782.857 210.221, 769 208.103 C 762.126 207.053, 348.830 206.981, 287.500 208.020 M 320.878 318.750 C 320.690 421.928, 320.986 492.537, 321.652 503.250 L 322.258 513 299.830 513 L 277.402 513 276.076 516.750 C 273.320 524.543, 258.576 549.532, 249.267 562.189 C 244.573 568.572, 241.842 575.176, 243.296 576.630 C 244.992 578.325, 302.825 581.689, 314.358 580.763 L 320.781 580.248 320.553 608.922 C 320.428 624.693, 319.914 638.328, 319.413 639.222 C 318.911 640.116, 312.630 647.294, 305.455 655.173 C 298.281 663.053, 288.636 674, 284.022 679.500 C 279.409 685, 274.959 690.004, 274.134 690.621 C 273.021 691.452, 292.118 691.771, 348.067 691.855 C 389.555 691.918, 428.114 692.263, 433.753 692.621 L 444.007 693.273 461.574 675.387 C 471.236 665.549, 482.708 653.800, 487.067 649.277 L 494.993 641.054 519.025 640.722 C 532.243 640.540, 543.273 640.606, 543.537 640.870 C 543.800 641.134, 542.950 642.058, 541.648 642.925 C 537.200 645.884, 513.515 671.514, 505.755 681.767 L 498.009 692 520.406 692 L 542.802 692 544.728 688.750 C 545.787 686.962, 549.100 682.575, 552.091 679 C 555.083 675.425, 561.561 667.166, 566.488 660.647 C 571.415 654.128, 576.551 647.925, 577.900 646.864 L 580.353 644.934 580.427 543.967 L 580.500 443 559.825 443 L 539.149 443 522.445 426.460 C 513.257 417.363, 505.398 410.051, 504.981 410.210 C 503.924 410.614, 495.505 422.657, 492.893 427.500 C 491.707 429.700, 488.687 434.650, 486.181 438.500 C 483.676 442.350, 479.625 449.100, 477.178 453.500 C 464.248 476.757, 461.977 481.352, 462.538 483.119 C 462.862 484.139, 465.735 488.946, 468.923 493.801 C 472.111 498.656, 478.676 509.350, 483.511 517.564 C 488.347 525.779, 493.745 534.750, 495.507 537.500 C 497.269 540.250, 503.347 551.275, 509.014 562 C 521.149 584.968, 534.526 608.774, 540.639 618.281 C 543.038 622.011, 545 625.168, 545 625.297 C 545 625.625, 524.906 625.103, 510.311 624.396 L 498.121 623.806 491.686 612.153 C 485.001 600.050, 476.282 583.831, 461.765 556.500 C 441.491 518.327, 430.859 500.468, 423.738 492.619 L 420.216 488.738 419.411 501.619 C 418.968 508.704, 418.591 524.712, 418.573 537.194 L 418.540 559.889 416.223 560.944 C 414.686 561.645, 393.304 562.036, 352.703 562.106 C 319.041 562.164, 286.830 562.502, 281.122 562.856 C 269.126 563.600, 268.223 563.013, 272.427 557.202 C 273.900 555.166, 278.569 548.176, 282.802 541.668 L 290.500 529.836 299.500 530.343 C 304.450 530.621, 326.226 530.545, 347.891 530.174 L 387.282 529.500 387.391 500.500 L 387.500 471.500 396.893 456.500 C 402.058 448.250, 408.767 437.450, 411.801 432.500 C 414.834 427.550, 418.850 421.100, 420.724 418.166 C 425.784 410.246, 439.081 387.952, 439.687 386.372 C 440.121 385.243, 437.225 385, 423.315 385 L 406.416 385 402.396 389.250 C 397.707 394.207, 390.973 403.219, 388.754 407.506 C 387.902 409.153, 385.823 412.075, 384.134 414 C 382.446 415.925, 379.404 420.332, 377.375 423.793 C 371.095 434.506, 367.447 436.292, 355.783 434.364 C 352.537 433.827, 351.554 432.932, 348.021 427.298 C 345.763 423.696, 344.296 420.329, 344.700 419.674 C 345.098 419.028, 347.951 415.125, 351.039 411 C 354.128 406.875, 359.505 399.225, 362.988 394 C 373.567 378.132, 387.881 360.062, 390.291 359.531 C 395.545 358.373, 469.051 359.780, 484.224 361.328 C 504.739 363.422, 509.827 365.981, 519.288 378.966 C 521.506 382.010, 529.999 391.137, 538.161 399.250 L 553.001 414 566.751 413.998 L 580.500 413.997 580.822 332.998 L 581.143 252 451.072 252 L 321 252 320.878 318.750 M 500.870 286.505 C 480.502 293.041, 471.508 314.371, 480.995 333.642 C 486.818 345.470, 497.332 352.042, 510.542 352.111 C 517.198 352.146, 519.116 351.725, 524.584 349.034 C 531.842 345.460, 537.048 340.017, 540.875 332 C 543.071 327.398, 543.500 325.112, 543.500 318 C 543.500 310.549, 543.153 308.873, 540.685 304.423 C 536.683 297.205, 530.382 291.085, 524 288.217 C 517.151 285.140, 507.378 284.416, 500.870 286.505 M 651.473 349.044 C 650.312 350.922, 653.749 354.737, 683.808 384.953 L 713.500 414.799 670.344 414.532 L 627.188 414.264 626.733 417.367 C 626.482 419.073, 626.500 427.451, 626.772 435.984 L 627.267 451.500 670.133 451.175 C 693.710 450.996, 712.982 450.996, 712.959 451.175 C 712.936 451.354, 699.718 464.956, 683.585 481.402 C 667.452 497.848, 653.524 512.536, 652.634 514.043 L 651.016 516.782 670.758 517.465 C 681.616 517.841, 691.262 518.362, 692.192 518.624 C 693.286 518.930, 696.294 516.867, 700.692 512.795 C 711.931 502.388, 780.500 433.031, 780.500 432.070 C 780.500 431.580, 778.843 429.862, 776.817 428.252 C 774.791 426.642, 755.441 407.927, 733.817 386.663 L 694.500 348.001 673.309 348 C 659.665 348, 651.888 348.372, 651.473 349.044" stroke="none" fill="#000000" fill-rule="evenodd"/>
</svg>