<svg xmlns="http://www.w3.org/2000/svg" width="1024" height="1024" viewBox="0 0 1024 1024" version="1.1">
	<path d="M 275.250 202.662 C 274.254 203.064, 274 256.160, 274 463.452 L 274 723.738 270.250 724.358 C 268.188 724.699, 258.786 724.983, 249.357 724.989 C 234.654 724.998, 232.128 725.225, 231.607 726.582 C 231.273 727.452, 231 732.316, 231 737.391 C 231 751.264, 229.756 750.572, 253.923 750.148 L 274 749.796 274 766.398 L 274 783 279.250 783.007 C 282.137 783.011, 287.538 783.301, 291.250 783.652 L 298 784.289 298 767.109 L 298 749.928 511 750.074 L 724 750.220 724 767.110 L 724 784 736 784 L 748 784 748 766.955 L 748 749.910 767.839 750.205 C 783.519 750.438, 788.027 750.212, 789.339 749.128 C 791.599 747.260, 791.794 727.904, 789.571 726.059 C 788.632 725.279, 781.265 724.670, 768.071 724.281 L 748 723.690 748 464.467 C 748 224.769, 747.876 205.142, 746.350 203.872 C 745.191 202.909, 741.691 202.500, 734.600 202.500 L 724.500 202.500 724.248 463.250 L 723.996 724 709.748 724.004 C 701.912 724.006, 616.525 724.282, 520 724.618 C 423.475 724.953, 334.031 724.900, 321.235 724.501 L 297.971 723.775 298.015 463.715 C 298.051 253.488, 297.814 203.499, 296.780 202.843 C 295.409 201.973, 277.334 201.821, 275.250 202.662 M 381.898 213.283 C 378.644 215.469, 376.941 218.908, 375.532 226.140 C 375.114 228.284, 374.359 228.856, 371.509 229.189 C 369.579 229.414, 366.388 229.410, 364.417 229.180 L 360.834 228.762 361.167 222.969 L 361.500 217.176 358 216.599 C 356.075 216.282, 345.163 216.017, 333.750 216.011 L 313 216 313 226.418 C 313 232.148, 312.727 237.548, 312.393 238.418 C 311.849 239.836, 314.516 239.998, 338.143 239.984 C 365.127 239.968, 373.108 239.125, 378.269 235.743 C 381.861 233.390, 384 235.135, 384 240.417 C 384 244.396, 383.667 244.950, 379.750 247.495 C 377.413 249.014, 374.100 251.299, 372.388 252.574 L 369.276 254.891 371.033 266.196 C 371.999 272.413, 375.300 286.896, 378.368 298.379 C 381.437 309.863, 384.843 323.392, 385.937 328.444 C 389.280 343.871, 389.097 343.825, 393.729 330.377 C 395.979 323.845, 398.337 315.575, 398.969 312 C 399.600 308.425, 401.719 299.425, 403.676 292 C 406.696 280.545, 409.419 265.721, 410.281 256.046 C 410.458 254.067, 409.388 252.853, 404.750 249.769 L 399 245.945 398.978 234.223 C 398.952 220.135, 397.337 215.337, 391.726 212.674 C 387.112 210.485, 385.956 210.556, 381.898 213.283 M 502.756 213.977 C 499.442 216.584, 498.937 219.860, 500.614 227.877 C 501.376 231.519, 502 236.571, 502 239.103 C 502 243.662, 501.935 243.751, 495.250 248.337 C 491.538 250.884, 482.382 257.190, 474.904 262.349 C 467.426 267.509, 460.759 271.914, 460.088 272.137 C 459.239 272.420, 459.798 274.508, 461.934 279.022 C 463.619 282.585, 464.999 286.561, 464.999 287.857 C 465 289.595, 465.415 290.055, 466.582 289.607 C 467.452 289.273, 487.163 289, 510.384 289 L 552.605 289 554.405 283.995 C 555.591 280.695, 557.673 277.697, 560.516 275.195 L 564.827 271.400 560.163 268.496 C 547.859 260.831, 522.430 243.665, 521.872 242.646 C 521.526 242.016, 521.036 236.967, 520.782 231.426 C 520.255 219.896, 518.697 216.180, 513.318 213.615 C 508.829 211.474, 505.806 211.578, 502.756 213.977 M 623.314 213.899 C 619.206 216.470, 618 218.833, 618 224.309 C 618 228.483, 617.812 228.788, 614.875 229.375 C 613.156 229.719, 609.587 230, 606.942 230 C 601.249 230, 600.446 228.662, 601.508 220.942 L 602.188 216 568.202 216 L 534.215 216 534.686 226.750 C 534.945 232.662, 535.332 238.063, 535.547 238.750 C 536.081 240.461, 605.086 240.533, 616.244 238.834 C 620.504 238.186, 624.176 237.846, 624.405 238.078 C 624.634 238.310, 625.093 240.075, 625.425 242 C 626.019 245.443, 625.894 245.595, 617.764 251.359 C 613.219 254.581, 608.964 257.516, 608.309 257.881 C 607.420 258.377, 607.609 260.031, 609.055 264.415 C 611.960 273.221, 612.412 273.526, 617.885 270.373 C 620.423 268.912, 624.361 266.216, 626.636 264.384 L 630.772 261.053 635.044 264.147 C 639.717 267.532, 648.156 272, 649.876 272 C 650.473 272, 651.259 270.762, 651.623 269.250 C 651.986 267.738, 653.057 264.925, 654.003 263 C 654.949 261.075, 655.521 258.932, 655.274 258.238 C 655.027 257.544, 651.985 254.950, 648.514 252.473 C 645.042 249.995, 641.931 247.264, 641.601 246.402 C 641.270 245.541, 641 239.909, 641 233.886 C 641 221.784, 639.738 217.185, 635.689 214.532 C 631.645 211.882, 626.921 211.641, 623.314 213.899 M 761.998 227.780 L 762 240.060 774.644 239.780 C 787.189 239.502, 787.305 239.478, 789.376 236.701 C 792.530 232.473, 792.387 222.112, 789.128 218.639 C 786.874 216.238, 786.134 216.095, 774.376 215.805 L 761.996 215.500 761.998 227.780 M 233.248 218.250 C 228.870 222.941, 229.126 233.359, 233.726 237.621 C 236.135 239.855, 237.033 240, 248.442 240 L 260.592 240 260.251 230.250 C 259.706 214.672, 260.927 216, 247.155 216 C 236.200 216, 235.197 216.162, 233.248 218.250 M 412.627 221.291 C 413.070 224.156, 413.447 229.650, 413.466 233.500 L 413.500 240.500 448.724 240.365 C 468.097 240.291, 485.052 239.953, 486.402 239.614 L 488.858 238.998 486.319 234.454 C 484.119 230.519, 483.832 228.978, 484.173 222.940 L 484.567 215.969 448.195 216.026 L 411.824 216.082 412.627 221.291 M 654.521 217.750 C 654.925 218.713, 655.419 224.154, 655.618 229.843 L 655.979 240.185 682.701 240.048 C 697.398 239.972, 709.608 239.726, 709.834 239.499 C 710.060 239.273, 709.921 233.893, 709.524 227.544 L 708.803 216 681.294 216 C 655.483 216, 653.831 216.108, 654.521 217.750 M 505.500 259.400 C 497.051 264.933, 488.255 270, 487.099 270 C 486.495 270, 486 270.358, 486 270.796 C 486 271.234, 495.788 271.699, 507.750 271.829 C 519.712 271.958, 531.413 272.326, 533.750 272.646 C 536.087 272.966, 538 272.942, 538 272.593 C 538 271.812, 523.075 262, 521.887 262 C 521.416 262, 518.836 260.650, 516.154 259 C 513.473 257.350, 511.104 256.028, 510.889 256.063 C 510.675 256.097, 508.250 257.599, 505.500 259.400 M 352.835 261.843 C 352.651 262.313, 348.162 265.691, 342.861 269.349 L 333.222 276.001 331.653 282.250 C 330.790 285.688, 329.561 291.650, 328.922 295.500 C 328.283 299.350, 327.131 304.975, 326.361 308 C 324.148 316.697, 318.267 352.780, 315.510 374.578 C 314.124 385.535, 312.358 396.861, 311.586 399.747 C 310.771 402.794, 310.565 405.231, 311.095 405.559 C 311.597 405.869, 317.631 406.389, 324.504 406.714 L 337 407.304 337.007 396.402 C 337.014 386.569, 338.980 355.303, 340.602 339.250 L 341.233 333 346.366 333.015 C 349.190 333.024, 352.126 333.427, 352.892 333.912 C 354.074 334.660, 354.104 339.441, 353.092 365.647 C 352.437 382.616, 351.459 403.649, 350.920 412.386 C 350.380 421.123, 350.152 428.485, 350.412 428.745 C 350.672 429.005, 358.223 428.893, 367.192 428.497 L 383.500 427.776 383.793 400.973 C 384.110 372.009, 383.881 370.136, 377.556 350 C 376.261 345.875, 373.320 336.200, 371.021 328.500 C 368.722 320.800, 365.560 310.225, 363.996 305 C 362.431 299.775, 360.197 289.650, 359.031 282.500 C 357.865 275.350, 356.469 267.831, 355.929 265.792 C 354.950 262.100, 353.474 260.215, 352.835 261.843 M 426.252 266.346 C 425.664 267.636, 423.975 274.723, 422.497 282.096 C 418.783 300.630, 416.810 307.981, 404.910 347.623 L 397.969 370.746 398.234 399.623 L 398.500 428.500 414.669 428.500 C 423.561 428.500, 431.172 428.165, 431.580 427.755 C 431.989 427.346, 431.584 415.421, 430.682 401.255 C 429.779 387.090, 428.743 366.163, 428.379 354.750 C 427.826 337.389, 427.945 333.993, 429.109 333.956 C 429.874 333.931, 432.572 333.761, 435.104 333.577 L 439.707 333.242 440.885 346.871 C 441.533 354.367, 442.456 365, 442.937 370.500 C 443.417 376, 444.128 386.462, 444.517 393.750 L 445.223 407 453.862 407.073 C 458.613 407.113, 464.863 407.482, 467.750 407.894 C 471.148 408.378, 473 408.281, 473 407.619 C 473 407.057, 472.132 402.750, 471.072 398.048 C 470.011 393.347, 468.186 383.650, 467.015 376.500 C 465.844 369.350, 463.564 355.625, 461.948 346 C 460.331 336.375, 457.841 320.850, 456.415 311.500 C 451.254 277.682, 451.379 277.966, 438 269.801 C 432.775 266.612, 428.235 264.002, 427.911 264.001 C 427.586 264.001, 426.840 265.056, 426.252 266.346 M 667.222 269.222 C 665.023 275.048, 656.807 287.436, 652.866 290.866 C 647.271 295.738, 637.811 299.327, 630.499 299.353 C 617.794 299.399, 605.276 290.187, 597.951 275.402 L 593.777 266.975 590.138 269.138 C 581.523 274.261, 571.511 282.812, 561.081 293.958 L 549.902 305.902 559.585 317.201 C 564.910 323.415, 569.439 328.694, 569.649 328.932 C 569.858 329.169, 571.486 328.018, 573.265 326.373 C 577.674 322.297, 583.644 318, 584.898 318 C 585.465 318, 586.318 318.788, 586.793 319.750 C 587.268 320.712, 587.394 344.675, 587.072 373 C 586.751 401.325, 586.506 424.590, 586.528 424.700 C 586.550 424.811, 606.465 425.036, 630.784 425.200 L 675.001 425.500 675.003 398 C 675.004 382.875, 674.511 358.880, 673.908 344.678 C 673.305 330.475, 673.040 318.626, 673.320 318.347 C 674.100 317.567, 678.009 319.910, 683.170 324.250 C 685.738 326.410, 688.478 328.025, 689.258 327.839 C 690.038 327.652, 693.597 323.900, 697.166 319.500 C 700.735 315.100, 705.196 310.460, 707.078 309.190 C 708.960 307.919, 710.660 306.428, 710.855 305.876 C 711.653 303.617, 672.075 266, 668.900 266 C 668.646 266, 667.891 267.450, 667.222 269.222" stroke="none" fill="#000000" fill-rule="evenodd"/>
</svg>