<svg xmlns="http://www.w3.org/2000/svg" width="1024" height="1024" viewBox="0 0 1024 1024" version="1.1">
	<path d="M 0 512.001 L 0 1024.002 512.250 1023.751 L 1024.500 1023.500 1024.751 511.750 L 1025.002 0 512.501 0 L 0 0 0 512.001 M 0.496 512.500 C 0.496 794.100, 0.610 909.151, 0.750 768.168 C 0.890 627.186, 0.890 396.786, 0.750 256.168 C 0.610 115.551, 0.496 230.900, 0.496 512.500 M 539.602 168.153 C 539.336 169.444, 538.591 173.650, 537.947 177.500 C 536.237 187.724, 532.639 195.106, 526.568 200.847 C 517.461 209.461, 517.465 209.459, 493.500 209.158 C 461.035 208.750, 428.886 207.301, 424.818 206.064 C 414.834 203.026, 405.381 192.946, 401.784 181.500 C 400.573 177.650, 399.499 174.359, 399.396 174.188 C 398.984 173.501, 381.885 178.082, 372.091 181.504 C 343.935 191.339, 309.130 214.481, 294.129 233.340 C 276.487 255.521, 266.036 279.627, 261.499 308.604 C 257.966 331.169, 256.832 353.690, 257.187 394.248 L 257.500 429.997 266.500 430.004 C 271.450 430.008, 279.960 430.684, 285.412 431.506 C 296.492 433.176, 302.400 435.948, 306.185 441.254 L 308.500 444.500 308.159 516.500 C 307.972 556.100, 308.143 602.850, 308.539 620.388 L 309.260 652.277 348.205 651.733 L 387.151 651.189 389.163 647.434 C 390.270 645.369, 410.599 623.823, 434.338 599.554 C 480.688 552.170, 484.349 547.701, 484.321 538.547 C 484.309 534.509, 471.149 500.758, 450.575 452 C 434.601 414.144, 430.765 404.585, 424.288 386.500 C 406.719 337.442, 408.538 343.933, 408.592 330.500 C 408.635 319.790, 408.980 317.476, 411.795 308.975 C 418.990 287.252, 431.814 272.056, 451.574 261.838 C 469.996 252.312, 471.662 252, 504.134 252 C 520.998 252, 537.689 252.565, 546.278 253.426 C 554.100 254.211, 563.939 255.144, 568.142 255.501 C 575.931 256.163, 580 258.224, 580 261.508 C 580 262.385, 580.596 262.709, 581.542 262.345 C 583.172 261.720, 596.480 263.189, 611.500 265.651 C 627.022 268.195, 651.532 274.831, 663.897 279.838 C 682.736 287.465, 690.114 292.105, 701.589 303.545 C 712.285 314.206, 716.604 321.069, 719.525 332.045 C 721.712 340.266, 721.427 353.657, 718.900 361.354 C 714.785 373.892, 703.281 384.600, 689.072 389.120 C 682.553 391.194, 681.578 391.210, 569.204 391.069 C 506.891 390.991, 454.327 391.223, 452.394 391.586 C 450.324 391.974, 449.088 392.708, 449.386 393.373 C 451.852 398.870, 481.182 469.277, 488.180 486.500 C 504.101 525.680, 506.272 531.432, 506.771 535.754 C 507.295 540.302, 505.280 548.852, 501.865 556.572 C 499.228 562.533, 484.699 579.033, 453.500 611.498 C 439.750 625.807, 425.641 640.773, 422.147 644.757 L 415.794 652 528.756 652 L 641.718 652 642.269 643.750 C 642.811 635.622, 645.411 626.994, 650.071 617.860 C 653.451 611.236, 660.601 605.104, 670.451 600.381 C 682.619 594.547, 688.990 593.075, 705.340 592.320 C 713.051 591.964, 718.552 591.329, 717.762 590.886 C 716.981 590.450, 714.386 590.170, 711.994 590.266 C 709.326 590.372, 707.489 589.968, 707.240 589.220 C 707.016 588.549, 705.783 588, 704.498 588 C 701.180 588, 699 586.999, 699 585.476 C 699 584.756, 698.438 583.940, 697.750 583.662 C 696.894 583.317, 696.973 583.131, 698 583.073 C 698.825 583.026, 698.196 582.308, 696.602 581.476 C 694.687 580.478, 692.517 580.188, 690.207 580.621 C 687.715 581.088, 686.913 580.950, 687.414 580.138 C 687.918 579.324, 696.576 579.033, 717.809 579.115 C 734.139 579.178, 745.808 579.558, 743.739 579.959 C 739.208 580.838, 738.689 581.295, 738.250 584.788 C 738.063 586.280, 737.264 587.993, 736.474 588.596 C 735.316 589.481, 735.767 589.933, 738.810 590.937 C 744.969 592.970, 800.260 591.916, 810 589.581 C 819.579 587.284, 826.920 583.390, 834.626 576.522 C 841.990 569.958, 846.543 563.144, 849.140 554.799 C 850.946 548.995, 851.080 544.733, 851.259 487.551 L 851.449 426.500 849.166 419.819 C 846.731 412.694, 842.900 406.720, 837.703 401.945 C 834.397 398.907, 821.719 392, 819.449 392 C 816.753 392, 808.743 387.885, 804.402 384.271 C 795.574 376.919, 795.586 376.967, 794.854 347.500 C 794.163 319.734, 793.288 313.648, 787.511 296.439 C 778.191 268.673, 754.392 239.914, 723 218.481 C 692.127 197.402, 637.395 180.588, 565.487 170.091 C 554.494 168.486, 544.282 166.865, 542.794 166.489 C 540.495 165.908, 540.014 166.159, 539.602 168.153 M 476.641 269.711 C 476.346 271.245, 475.818 275.693, 475.466 279.596 L 474.828 286.692 491.243 287.385 C 515.683 288.417, 529.660 289.726, 534.930 291.477 C 537.575 292.355, 542.463 295.440, 546.071 298.507 C 553.568 304.880, 557.449 305.642, 561.545 301.545 C 563.908 299.183, 564 298.586, 564 285.676 L 564 272.262 560.250 271.642 C 558.188 271.301, 551.271 271.017, 544.879 271.011 C 532.181 270.999, 481.513 268.253, 478.838 267.431 C 477.633 267.061, 477.029 267.687, 476.641 269.711 M 326.007 269.538 C 315.795 274.128, 311.441 284.878, 315.896 294.500 C 318.919 301.029, 326.974 307.012, 332.718 306.994 C 336.660 306.982, 342.246 304.723, 345.586 301.790 C 356.485 292.221, 355.027 277.121, 342.581 270.663 C 337.521 268.037, 330.419 267.555, 326.007 269.538 M 269.210 450.759 C 259.837 450.990, 257.107 451.351, 257.707 452.281 C 258.139 452.951, 258.719 473.413, 258.996 497.751 L 259.500 542.002 242.750 542.001 L 226 542 226 519.950 C 226 502.270, 225.702 497.324, 224.494 494.989 C 222.547 491.223, 215.595 487.180, 209.669 486.368 L 205 485.728 205 477.833 C 205 472.390, 204.612 469.817, 203.750 469.550 C 203.063 469.337, 198.367 468.887, 193.316 468.550 L 184.132 467.938 183.456 472.442 C 183.085 474.919, 183.168 484.946, 183.640 494.723 L 184.500 512.500 192 512.577 C 196.125 512.619, 200.206 512.731, 201.068 512.827 C 202.456 512.980, 202.620 516.362, 202.500 542.250 C 202.425 558.337, 202.282 577.462, 202.182 584.750 L 202 598 191.472 598 L 180.944 598 181.222 611.750 L 181.500 625.500 189.144 625.147 C 193.349 624.953, 198.186 625.102, 199.894 625.477 L 203 626.159 203 639.079 L 203 652 214.810 652 L 226.621 652 226.180 637.342 L 225.739 622.684 233.369 623.329 C 240.778 623.956, 241 623.910, 241 621.756 C 241 620.285, 238.471 617.172, 233.496 612.519 L 225.992 605.500 225.996 586.106 L 226 566.713 241.546 567.235 C 250.096 567.523, 257.408 568.074, 257.796 568.461 C 258.183 568.848, 258.635 588.253, 258.800 611.582 L 259.100 654 270.491 654 C 276.756 654, 282.086 653.663, 282.335 653.250 C 283.326 651.611, 283.489 450.666, 282.500 450.561 C 281.950 450.503, 275.970 450.592, 269.210 450.759 M 532.411 453.389 C 527.986 457.814, 527.989 460.926, 532.423 465.765 L 535.846 469.500 661.876 470 C 731.192 470.275, 789.382 470.198, 791.188 469.828 C 795.454 468.955, 800 463.885, 800 460 C 800 458.133, 798.917 455.820, 797.082 453.766 L 794.164 450.500 664.993 450.239 L 535.822 449.978 532.411 453.389 M 380.547 455.086 C 360.542 458.087, 345.270 469.480, 335.757 488.500 C 331.169 497.673, 329.577 504.723, 329.662 515.500 C 329.830 536.969, 339.971 555.514, 358.151 567.600 C 370.850 576.042, 386.242 579.579, 399.500 577.101 C 416.390 573.944, 432.690 560.630, 441.250 543 C 451.651 521.577, 451.198 501.446, 439.922 484.001 C 426.410 463.095, 403.035 451.711, 380.547 455.086 M 373 477.859 C 357.794 484.573, 356.830 485.163, 355.377 488.640 C 352.837 494.718, 353.367 495.732, 359.750 497.008 C 375.164 500.090, 380.539 502.433, 379.344 505.546 C 378.516 507.703, 373.413 508.893, 360.062 510.043 C 353.220 510.633, 347.258 511.341, 346.812 511.616 C 346.365 511.892, 346 514.791, 346 518.059 L 346 524 358.750 524.006 C 370.779 524.011, 379.595 525.253, 378.608 526.804 C 378.059 527.668, 373.410 530.019, 365.207 533.580 C 359.592 536.017, 355 540.117, 355 542.692 C 355 543.178, 356.238 545.047, 357.750 546.846 C 360.089 549.626, 362.146 550.567, 371.500 553.136 C 385.603 557.008, 394.494 557.294, 401.500 554.101 C 404.250 552.847, 409.383 551.212, 412.907 550.466 C 419.705 549.027, 420.446 548.428, 421.939 543.165 C 423.486 537.715, 422.014 535.714, 414.204 532.650 C 409.418 530.772, 407.043 529.271, 406.683 527.898 C 405.918 524.971, 409.443 523.987, 422.426 523.503 L 433.500 523.089 433.144 517.295 C 432.948 514.108, 432.697 511.399, 432.587 511.276 C 432.476 511.153, 426.637 510.745, 419.610 510.369 C 406.258 509.656, 403.468 508.698, 402.807 504.600 C 402.564 503.095, 403.932 502.109, 409.402 499.850 C 413.370 498.212, 418.153 497, 420.652 497 C 425.726 497, 426.092 495.921, 422.718 490.898 C 419.084 485.489, 408.809 478.330, 401.387 476.038 C 390.985 472.825, 383.282 473.319, 373 477.859 M 536.750 490.173 C 533.621 493.214, 533.316 495.778, 535.566 500.128 C 538.683 506.156, 532.320 505.872, 668.431 506.066 C 790.971 506.241, 793.243 506.209, 795.848 504.282 C 799.979 501.226, 801.444 497.487, 799.937 493.848 C 797.368 487.647, 806.173 488.049, 666.945 487.763 L 539.500 487.500 536.750 490.173 M 545.013 526.750 C 543.353 528.263, 541.724 530.918, 541.392 532.650 C 540.886 535.299, 541.352 536.413, 544.318 539.650 L 547.846 543.500 669.150 543.777 C 759.401 543.983, 791.171 543.757, 793.253 542.895 C 796.545 541.532, 800 537.049, 800 534.143 C 800 530.719, 797.763 526.929, 794.855 525.425 C 792.514 524.215, 773.730 524, 670.065 524 L 548.032 524 545.013 526.750 M 674.926 582.533 C 670.760 583.875, 664.544 586.788, 661.113 589.005 C 654.418 593.333, 645 601.654, 645 603.243 C 645 603.775, 646.260 602.926, 647.800 601.356 C 653.748 595.290, 659.967 590.861, 661.342 591.711 C 661.874 592.040, 661.998 591.806, 661.617 591.190 C 660.754 589.794, 668.808 585.618, 678.430 582.473 C 682.319 581.202, 684.825 580.147, 684 580.128 C 683.175 580.109, 679.092 581.192, 674.926 582.533 M 696.813 580.683 C 697.534 580.972, 698.397 580.936, 698.729 580.604 C 699.061 580.272, 698.471 580.036, 697.417 580.079 C 696.252 580.127, 696.015 580.364, 696.813 580.683 M 642.459 606.067 C 642.096 606.653, 642.014 607.348, 642.276 607.610 C 642.538 607.872, 643.019 607.392, 643.345 606.543 C 644.021 604.781, 643.445 604.471, 642.459 606.067 M 164.578 673.876 C 164.367 674.219, 164.044 684.001, 163.861 695.613 C 163.598 712.312, 163.813 717.069, 164.887 718.363 C 165.999 719.703, 168.307 720, 177.622 720 L 189 720 189.100 713.750 C 189.267 703.254, 188.953 703.538, 200.750 703.250 L 211 702.999 211 711.500 L 211 720 220.364 720 L 229.728 720 230.364 715.360 C 230.714 712.809, 231.001 709.096, 231.001 707.110 L 231.002 703.500 241.002 703.500 L 251.001 703.500 251 711.571 L 251 719.641 260.421 719.571 L 269.842 719.500 270.421 716.625 C 270.739 715.044, 271 711.444, 271 708.625 L 271 703.500 280.964 703.500 L 290.927 703.500 291.214 711.500 L 291.500 719.500 300.750 719.788 L 310 720.075 310.011 715.288 C 310.017 712.654, 310.284 708.925, 310.605 707 L 311.188 703.500 321.094 703.441 L 331 703.381 331 711.728 L 331 720.075 340.250 719.788 L 349.500 719.500 349.787 711.500 L 350.075 703.500 360.037 703.382 L 370 703.263 370 711.632 L 370 720 379.369 720 L 388.738 720 389.358 716.250 C 389.699 714.188, 389.985 710.475, 389.993 708 L 390.007 703.500 400.004 703.441 L 410 703.381 410 711.727 L 410 720.072 419.750 719.786 L 429.500 719.500 429.788 711.500 L 430.077 703.500 439.538 703.399 L 449 703.298 449.014 709.399 C 449.038 720.228, 448.811 720, 459.576 720 L 468.919 720 469.210 711.910 L 469.500 703.820 478.750 703.629 L 488 703.437 488 710.137 C 488 720.237, 487.748 720, 498.482 720 L 507.750 720 508.375 716.875 C 508.719 715.156, 509 711.428, 509 708.590 L 509 703.430 518 703.332 L 527 703.235 527 710.036 C 527 720.297, 526.673 720, 537.976 720 L 547.738 720 548.358 716.250 C 548.699 714.188, 548.983 710.362, 548.989 707.750 L 549 703 557.883 703 C 568.139 703, 567.962 702.812, 567.986 713.750 L 568 720 577.882 720 L 587.763 720 588.451 711.750 L 589.138 703.500 597.819 703.705 L 606.500 703.910 606.790 711.955 L 607.081 720 616.910 720 L 626.738 720 627.358 716.250 C 627.699 714.188, 627.982 710.475, 627.987 708 L 627.995 703.500 636.998 703.821 L 646 704.142 646 708.946 C 646 711.588, 646.275 715.127, 646.612 716.809 L 647.224 719.868 656.603 720.184 C 663.721 720.424, 666.106 720.179, 666.492 719.168 C 666.771 718.436, 667 714.611, 667 710.668 L 667.001 703.500 676.427 703.416 C 687.288 703.319, 686.963 703.001, 686.986 713.750 L 687 720 696.861 720 L 706.721 720 707.352 714.750 C 707.699 711.862, 707.987 707.989, 707.991 706.143 C 707.998 703.495, 708.334 702.914, 709.582 703.393 C 710.452 703.727, 714.727 704, 719.082 704 L 727 704 727 711.941 C 727 716.309, 727.337 720.029, 727.750 720.208 C 728.163 720.387, 732.663 720.382, 737.750 720.196 L 747 719.858 747 711.929 L 747 704 757 704 L 767 704 767 708.875 C 767 711.556, 767.281 715.156, 767.625 716.875 L 768.250 720 777.518 720 C 788.248 720, 787.998 720.234, 788.004 710.168 L 788.008 703.500 797.468 703.500 L 806.928 703.500 807.214 711.500 L 807.500 719.500 816.722 719.787 C 827.196 720.113, 826.307 720.930, 827.503 709.878 L 828.112 704.257 832.696 703.628 C 835.217 703.283, 839.643 703, 842.533 703 C 846.401 703, 847.946 702.583, 848.393 701.418 C 849.410 698.769, 849.069 676.998, 847.979 674.961 C 846.978 673.091, 840.450 673.056, 505.961 673.153 C 318.412 673.207, 164.790 673.533, 164.578 673.876" stroke="none" fill="#000000" fill-rule="evenodd"/>
</svg>