<svg xmlns="http://www.w3.org/2000/svg" width="1024" height="1024" viewBox="0 0 1024 1024" version="1.1">
	<path d="M 333.355 159 C 192.395 159.486, 188.149 159.555, 186.105 161.405 L 184 163.310 184.003 453.064 C 184.006 612.428, 183.751 743.486, 183.437 744.304 C 183.123 745.121, 183.363 747.635, 183.970 749.889 C 186.073 757.698, 153.981 757, 510.869 757 C 686.851 757, 831.565 756.720, 832.455 756.379 C 837.184 754.564, 836.950 769.920, 837.006 457.845 C 837.035 297.055, 837.046 164.723, 837.029 163.773 C 837.013 162.823, 835.782 161.248, 834.293 160.273 C 831.727 158.593, 822.369 158.500, 655.043 158.500 C 557.944 158.500, 413.185 158.725, 333.355 159 M 266.548 366.017 L 266.732 497.699 254.732 497.600 L 242.733 497.500 241.559 502 C 240.914 504.475, 238.333 510.100, 235.823 514.500 C 233.314 518.900, 229.569 525.875, 227.500 530 C 225.432 534.125, 221.555 541.136, 218.885 545.581 C 214.496 552.887, 211 560.701, 211 563.204 C 211 563.790, 221.668 564.058, 238.750 563.902 L 266.500 563.648 266.731 598.074 L 266.962 632.500 255.731 644.561 C 249.554 651.194, 239.452 662.530, 233.282 669.751 L 222.064 682.881 304.602 682.691 C 381.881 682.512, 387.203 682.389, 388.115 680.760 C 389.917 677.539, 397.182 669.607, 416.977 649.250 L 436.668 629 457.834 629 C 469.475 629, 479 629.397, 479 629.881 C 479 630.366, 477.518 631.893, 475.707 633.274 C 470.586 637.180, 445.263 664.134, 435.257 676.329 L 431.015 681.500 451.137 682.174 C 462.205 682.545, 472.275 683.103, 473.516 683.415 C 475.373 683.881, 476.542 682.968, 480.135 678.240 C 482.534 675.083, 489.248 667.100, 495.055 660.500 C 500.862 653.900, 507.950 645.582, 510.806 642.014 L 516 635.529 516 542.264 L 516 449 534.344 449 L 552.687 449 553.342 433.125 C 553.702 424.393, 553.701 412.432, 553.341 406.545 C 552.462 392.175, 553.095 392.565, 531.713 393.214 L 515.500 393.706 515.814 313.803 L 516.129 233.900 391.247 234.117 L 266.365 234.334 266.548 366.017 M 649.376 242.131 C 649.713 243.814, 653.608 252.460, 658.033 261.345 C 664.359 274.048, 666.711 280.033, 669.039 289.357 C 674.564 311.480, 672.831 327.047, 661.529 356.822 C 658.048 365.995, 654.438 377.325, 653.508 382 C 652.578 386.675, 650.932 393.650, 649.851 397.500 C 648.710 401.564, 647.640 409.369, 647.302 416.108 C 646.791 426.273, 646.995 428.634, 648.937 435.108 C 650.158 439.174, 652.403 444.750, 653.928 447.500 C 656.881 452.826, 660.427 463.065, 661.465 469.263 C 662.294 474.212, 660.425 474.939, 654.838 471.844 C 649.832 469.070, 647.116 464.320, 643.609 452.206 C 642.288 447.644, 640.074 442.200, 638.690 440.107 C 634.027 433.062, 627.275 418.591, 622.075 404.500 C 612.395 378.270, 598.002 362.208, 579.039 356.475 C 576.611 355.741, 576.601 355.763, 578.288 358.116 C 584.239 366.412, 588.211 377.022, 590.506 390.746 C 591.873 398.918, 591.982 402.771, 591.154 413.540 C 589.964 429.025, 591.441 443.397, 594.908 450.047 C 596.110 452.353, 596.911 454.422, 596.689 454.644 C 596.147 455.186, 588.019 445.564, 584.516 440.233 C 582.974 437.887, 580.246 432.331, 578.454 427.887 C 576.207 422.312, 575.028 420.379, 574.654 421.653 C 573.321 426.196, 571.725 444.549, 571.710 455.500 C 571.674 481.981, 581.157 502.494, 604.919 527.335 C 612.264 535.014, 616.748 538.002, 627 542.049 C 638.150 546.450, 639.048 547.255, 636.194 550.294 C 633.378 553.291, 633.400 556.462, 636.250 558.479 C 639.194 560.563, 667.660 569.564, 676 571.048 C 679.754 571.716, 685.566 571.933, 689.756 571.560 C 701.315 570.533, 719.469 567.339, 723.135 565.687 C 739.057 558.512, 744.042 555.902, 747.318 553.026 C 751.916 548.989, 754.157 544.881, 754.353 540.131 C 754.491 536.776, 754.940 536.319, 761.814 532.530 C 770.682 527.644, 775.934 522.599, 785.702 509.582 C 794.418 497.966, 799.114 489.082, 802.242 478.291 C 804.261 471.324, 804.495 468.386, 804.450 450.500 C 804.401 430.803, 804.351 430.343, 801.154 420.125 C 799.368 414.418, 796.730 407.443, 795.292 404.625 L 792.677 399.500 790.904 406.650 C 786.266 425.357, 777.939 439.211, 761.391 455.750 C 754.650 462.488, 748.654 468, 748.067 468 C 746.466 468, 746.759 456.953, 748.573 448.980 C 750.034 442.554, 752.534 437.240, 770.672 402 C 783.093 377.867, 779.567 348.517, 761.121 322.500 C 753.706 312.042, 743.811 301.856, 742.419 303.247 C 742.257 303.409, 743.533 307.358, 745.254 312.021 C 748.095 319.717, 748.389 321.609, 748.442 332.500 C 748.508 346.130, 746.340 354.826, 740.517 364.287 C 715.201 405.416, 713.529 408.951, 711.453 425.763 C 709.989 437.610, 708.933 440, 705.163 440 C 703.206 440, 694.046 431.474, 691.273 427.071 C 687.697 421.395, 686.699 414.436, 688.081 404.817 C 688.739 400.243, 689.242 395.712, 689.200 394.750 C 689.031 390.858, 692.751 393.462, 694.914 398.750 C 695.645 400.538, 696.568 402, 696.966 402 C 698.557 402, 701.163 397.883, 708.047 384.500 C 721.261 358.809, 724.262 348.758, 724.319 330 C 724.351 319.572, 724.047 317.592, 721.053 308.756 C 715.004 290.903, 702.443 274.088, 684.288 259.540 C 674.151 251.417, 658.253 241.793, 652.016 240.005 C 648.783 239.077, 648.768 239.089, 649.376 242.131 M 437.734 281.027 C 427.437 283.620, 417.624 292.708, 414.542 302.506 C 412.420 309.252, 412.815 318.808, 415.425 323.855 C 421.980 336.531, 435.707 343.379, 449.960 341.084 C 458.207 339.756, 464.367 336.498, 469.567 330.714 C 477.905 321.441, 480.221 308.235, 475.228 298.446 C 472.573 293.242, 464.113 285.380, 458.494 282.894 C 453.293 280.594, 443.096 279.676, 437.734 281.027 M 602 299.348 C 602 299.636, 604.703 303.613, 608.007 308.186 C 615.860 319.056, 618.714 324.963, 620.615 334.288 C 622.035 341.248, 622.032 343.072, 620.589 354.266 C 619.715 361.042, 619 366.903, 619 367.293 C 619 367.682, 621.868 368, 625.374 368 C 632.358 368, 630.893 367.005, 643.250 380.140 C 646.900 384.020, 647.611 382.631, 649.143 368.620 C 650.591 355.386, 649.739 340.150, 647.138 332.767 C 642.286 318.990, 630.058 307.009, 615.864 302.125 C 609.955 300.092, 602 298.499, 602 299.348 M 331.176 347.130 C 327.476 348.501, 315.605 363.471, 296.059 391.416 L 287.724 403.332 289.479 406.591 C 290.445 408.384, 292.527 411.089, 294.106 412.602 C 296.726 415.112, 297.670 415.359, 304.845 415.419 C 309.889 415.461, 313.269 415.022, 314.266 414.194 C 315.121 413.484, 321.964 403.700, 329.472 392.452 L 343.122 372 361.061 372 C 370.928 372, 379 372.364, 379 372.809 C 379 373.254, 377.353 376.291, 375.339 379.559 C 373.326 382.826, 367.814 392.118, 363.089 400.207 C 358.365 408.296, 351.855 419.321, 348.621 424.707 C 345.388 430.093, 340.888 437.637, 338.621 441.470 L 334.500 448.440 333.866 481.470 C 333.517 499.637, 333.179 514.632, 333.116 514.794 C 333.052 514.955, 315.225 514.955, 293.499 514.794 C 271.774 514.632, 253.999 514.806, 253.999 515.179 C 254 515.553, 252.261 518.478, 250.135 521.679 C 244.915 529.541, 236 545.169, 236 546.458 C 236 547.172, 255.404 547.412, 297.721 547.220 C 350.447 546.981, 359.774 546.723, 361.721 545.447 L 364 543.954 364.009 515.727 C 364.019 482.877, 364.478 477, 367.036 477 C 370.958 477, 387.633 506.322, 415.089 561.500 C 423.847 579.100, 433.525 598.112, 436.596 603.750 L 442.179 614 462.090 614 C 479.160 614, 482 613.785, 482 612.493 C 482 611.665, 478.988 605.702, 475.307 599.243 C 471.626 592.784, 461.821 574, 453.519 557.500 C 437.488 525.638, 427.751 507.739, 411.843 480.885 C 406.429 471.747, 402 463.803, 402 463.231 C 402 462.050, 408.507 450.279, 410.420 448 C 411.112 447.175, 412.809 444.475, 414.191 442 C 427.528 418.109, 440.941 396.135, 442.240 396.049 C 443.274 395.980, 455.948 409.459, 466.876 422.250 L 476.060 433 510.408 433 C 538.660 433, 544.962 432.751, 545.919 431.597 C 546.809 430.526, 546.797 430.099, 545.869 429.790 C 544.226 429.242, 543.580 418.615, 544.853 413.064 C 546.697 405.025, 547.362 405.222, 520.199 405.782 C 489.497 406.415, 488.293 406.237, 484.692 400.546 C 483.160 398.124, 479.095 393.073, 475.659 389.321 C 472.224 385.570, 465.052 377.034, 459.722 370.352 C 449.650 357.726, 445.388 353.492, 441.056 351.811 C 436.700 350.120, 419.032 347.797, 407.500 347.398 C 386.929 346.687, 332.882 346.497, 331.176 347.130 M 632.472 463.593 C 631.005 465.948, 633.179 483.867, 635.077 485.069 C 637.393 486.535, 638 486.156, 637.992 483.250 C 637.981 478.930, 636.047 468.097, 634.712 464.871 C 633.663 462.336, 633.362 462.164, 632.472 463.593 M 733.035 484.934 C 732.466 485.998, 732 487.845, 732 489.039 C 732 491.910, 727.927 499.906, 723.533 505.661 C 721.590 508.206, 719.983 510.785, 719.962 511.394 C 719.941 512.002, 719.694 514.081, 719.412 516.014 C 718.994 518.889, 719.426 520.117, 721.789 522.764 C 723.378 524.544, 725.088 525.996, 725.589 525.991 C 726.090 525.986, 728.189 523.360, 730.254 520.156 C 739.284 506.138, 742.900 483, 736.060 483 C 734.966 483, 733.605 483.870, 733.035 484.934 M 652 547.881 C 652 548.366, 653.688 550.035, 655.750 551.591 C 657.813 553.146, 660.048 555.112, 660.718 555.959 C 661.776 557.297, 661.941 557.215, 661.968 555.337 C 661.989 553.931, 660.529 552.091, 657.803 550.087 C 653.485 546.911, 652 546.347, 652 547.881 M 507.004 883.740 C 505.081 883.973, 502.958 884.620, 502.285 885.178 C 501.508 885.823, 495.765 885.980, 486.531 885.608 C 478.425 885.282, 472 885.411, 472 885.900 C 472 887.233, 466.659 887.909, 454.250 888.148 C 448.047 888.267, 443 888.786, 443 889.305 C 443 889.822, 442.325 889.685, 441.500 889 C 440.201 887.922, 440 888.419, 440 892.709 C 440 896.932, 440.358 897.854, 442.433 898.964 C 443.770 899.680, 445.528 900.012, 446.337 899.701 C 447.147 899.390, 453.140 899.717, 459.655 900.427 C 466.170 901.137, 471.737 901.356, 472.026 900.913 C 472.315 900.470, 479.184 899.971, 487.289 899.804 C 500.989 899.521, 502.069 899.633, 502.623 901.382 C 502.951 902.417, 503.507 902.867, 503.859 902.382 C 504.212 901.897, 508.100 901.483, 512.500 901.462 C 516.900 901.441, 523.758 901.216, 527.741 900.962 C 534.151 900.553, 534.985 900.270, 535.006 898.500 C 535.043 895.511, 536.449 893.851, 538.331 894.574 C 539.250 894.926, 543.098 894.456, 546.881 893.529 L 553.759 891.844 551.630 889.572 C 547.337 884.994, 543.514 884.100, 526.500 883.696 C 517.700 883.487, 508.927 883.507, 507.004 883.740 M 568 892.117 C 568 896.916, 569.189 898.266, 571.550 896.147 C 572.072 895.679, 574.581 894.736, 577.125 894.052 C 580.999 893.012, 581.750 892.419, 581.750 890.405 C 581.750 888.327, 581.256 887.985, 578.125 887.890 C 576.131 887.830, 573.038 887.658, 571.250 887.507 L 568 887.234 568 892.117 M 0.812 986.683 C 1.534 986.972, 2.397 986.936, 2.729 986.604 C 3.061 986.272, 2.471 986.036, 1.417 986.079 C 0.252 986.127, 0.015 986.364, 0.812 986.683 M 5.232 1003 C 5.232 1004.925, 5.438 1005.712, 5.689 1004.750 C 5.941 1003.788, 5.941 1002.212, 5.689 1001.250 C 5.438 1000.288, 5.232 1001.075, 5.232 1003" stroke="none" fill="#000000" fill-rule="evenodd"/>
</svg>