<svg xmlns="http://www.w3.org/2000/svg" width="1024" height="1024" viewBox="0 0 1024 1024" version="1.1">
	<path d="M 685 132.536 C 675.791 135.100, 661.720 140.283, 599.500 164.030 C 586.300 169.067, 566.500 176.551, 555.500 180.659 C 544.500 184.768, 527.850 191.065, 518.500 194.652 C 509.150 198.240, 486.650 206.798, 468.500 213.671 C 450.350 220.544, 431.225 227.889, 426 229.993 C 417.067 233.590, 396.755 241.396, 347.500 260.162 C 298.455 278.849, 280.473 286.072, 275.240 289.190 C 272.184 291.010, 265.707 296.262, 260.845 300.860 C 247.725 313.271, 239.464 326.775, 232.927 346.500 L 229.613 356.500 228.898 405.500 C 228.081 461.474, 228.121 640.347, 228.972 739.500 L 229.547 806.500 232.277 813.630 C 238.431 829.706, 245.518 838.115, 258.294 844.502 L 266.087 848.398 258.294 850.702 C 254.007 851.970, 249.825 853.298, 249 853.654 C 246.362 854.792, 242.524 854.773, 241.765 853.619 C 241.285 852.887, 241.025 853.031, 241.015 854.036 C 241.003 855.229, 239.772 855.571, 235.500 855.571 C 232.475 855.571, 230 855.218, 230 854.786 C 230 854.354, 229.362 854, 228.583 854 C 227.804 854, 226.966 853.438, 226.720 852.750 C 226.475 852.063, 225.888 851.862, 225.416 852.304 C 224.944 852.747, 225.207 853.510, 226 854 C 228.688 855.661, 226.145 856.219, 223.011 854.655 C 219.969 853.138, 216.501 853.384, 217.527 855.044 C 217.811 855.503, 217.246 855.876, 216.272 855.872 C 215.297 855.869, 213.262 856.059, 211.750 856.295 C 210.238 856.532, 209 856.439, 209 856.090 C 209 854.638, 201.047 855.647, 199.181 857.336 C 197.955 858.446, 196.958 858.740, 196.567 858.109 C 196.220 857.547, 195.275 857.341, 194.468 857.651 C 193.553 858.002, 193 857.609, 193 856.607 C 193 854.600, 189.651 854.492, 187.707 856.436 C 186.636 857.507, 185.983 857.583, 185.136 856.736 C 184.288 855.888, 184 856.004, 184 857.193 C 184 859.264, 181.577 860.172, 180.055 858.672 C 179.143 857.774, 178.531 857.954, 177.433 859.441 C 176.106 861.239, 176 861.250, 176 859.583 C 176 858.163, 175.473 857.915, 173.500 858.411 C 171.560 858.898, 171 858.653, 171 857.319 C 171 856.017, 170.719 855.881, 169.842 856.758 C 168.970 857.630, 168.968 858.256, 169.834 859.300 C 171.195 860.940, 170.385 862.085, 168.402 861.324 C 167.631 861.028, 167 859.709, 167 858.393 C 167 857.077, 166.550 856, 166 856 C 165.450 856, 165 857.090, 165 858.422 C 165 861.161, 161.497 862.749, 154.410 863.225 C 150.873 863.463, 150.389 863.771, 150.833 865.500 C 151.260 867.163, 151.098 867.297, 149.871 866.292 C 149.060 865.627, 147.369 865.352, 146.113 865.681 C 144.379 866.134, 144.152 866.492, 145.165 867.169 C 146.025 867.744, 145.553 867.841, 143.837 867.444 C 141.971 867.012, 140.623 867.377, 139.337 868.663 C 138.102 869.898, 136.352 870.407, 134 870.218 C 131.368 870.006, 130.872 870.188, 132 870.953 C 133.196 871.763, 132.959 871.972, 130.833 871.985 C 129.367 871.993, 127.960 871.437, 127.708 870.750 C 127.342 869.750, 126.985 869.750, 125.925 870.750 C 124.834 871.779, 124.900 872, 126.300 872 C 127.235 872, 128 872.450, 128 873 C 128 874.519, 125.406 874.195, 124 872.500 C 121.982 870.069, 120.630 870.787, 122.333 873.385 C 123.193 874.697, 123.619 876.047, 123.281 876.385 C 122.176 877.490, 119.002 877.030, 118.900 875.750 C 118.845 875.063, 118.488 875.623, 118.106 876.995 C 117.725 878.367, 116.564 879.653, 115.527 879.853 C 113.353 880.271, 110.505 882.858, 110.489 884.429 C 110.483 885.018, 109.471 885.359, 108.239 885.187 C 106.543 884.950, 106 885.374, 106 886.937 C 106 888.072, 105.495 889, 104.878 889 C 104.087 889, 104.113 889.431, 104.964 890.456 C 105.628 891.257, 105.903 892.348, 105.573 892.881 C 105.244 893.414, 105.510 895.025, 106.165 896.462 C 107.146 898.617, 107.078 899.351, 105.773 900.655 C 103.924 902.504, 101.818 901.638, 102.683 899.384 C 103.164 898.130, 103.440 898.088, 104.124 899.166 C 104.802 900.235, 104.969 900.202, 104.969 899 C 104.969 895.734, 103.385 894.880, 97.905 895.192 L 92.500 895.500 92.825 900 C 93.200 905.184, 94.842 907.576, 96.651 905.572 C 97.362 904.784, 97.463 903.762, 96.916 902.898 C 96.223 901.804, 96.027 901.916, 96.015 903.417 C 96.007 904.471, 95.730 905.064, 95.401 904.734 C 94.326 903.659, 96.132 896, 97.460 896 C 98.562 896, 100.591 902.985, 100.147 905.250 C 100.066 905.663, 99.887 906.563, 99.750 907.250 C 99.598 908.010, 100.352 908.382, 101.674 908.200 C 103.269 907.980, 103.965 908.512, 104.288 910.200 C 104.677 912.234, 104.743 912.181, 104.864 909.750 C 104.946 908.093, 105.569 907, 106.433 907 C 107.980 907, 109.480 910.415, 108.576 911.878 C 107.873 913.014, 110.809 915.524, 111.745 914.588 C 112.128 914.205, 111.780 913.473, 110.971 912.961 C 110.057 912.383, 109.954 912.025, 110.700 912.015 C 111.360 912.007, 112.343 912.788, 112.883 913.750 C 113.817 915.413, 113.899 915.413, 114.538 913.756 C 115.355 911.634, 117 912.423, 117 914.937 C 117 915.937, 117.626 917.275, 118.391 917.910 C 119.510 918.839, 120.017 918.423, 120.983 915.782 C 122.031 912.918, 122.278 912.747, 122.922 914.439 C 123.567 916.137, 124.831 916.416, 133.080 916.676 C 138.261 916.839, 144.975 917.168, 148 917.407 C 151.025 917.646, 154.539 917.877, 155.809 917.920 C 157.079 917.964, 157.840 918.450, 157.500 919 C 157.160 919.550, 157.546 920, 158.358 920 C 159.169 920, 159.996 919.511, 160.195 918.914 C 160.546 917.861, 164.204 917.585, 172.500 917.985 C 174.700 918.091, 176.725 918.096, 177 917.996 C 178.430 917.474, 186.985 916.912, 199.500 916.518 C 213.515 916.076, 234.500 914.624, 234.500 914.097 C 234.500 914.008, 237.200 913.736, 240.500 913.492 C 243.800 913.248, 250.021 912.685, 254.325 912.241 C 258.629 911.797, 262.328 911.722, 262.545 912.073 C 262.762 912.424, 265.272 912.342, 268.123 911.891 C 270.975 911.441, 273.657 911.288, 274.085 911.552 C 274.512 911.816, 275.163 911.545, 275.532 910.948 C 275.901 910.352, 276.817 910.100, 277.569 910.388 C 278.321 910.677, 279.169 910.535, 279.455 910.073 C 279.740 909.612, 282.567 908.932, 285.737 908.562 C 288.907 908.193, 294.371 906.959, 297.881 905.820 C 301.390 904.682, 305.336 903.750, 306.649 903.750 C 307.962 903.750, 309.280 903.356, 309.577 902.875 C 309.875 902.394, 310.934 902, 311.932 902 C 312.930 902, 315.857 901.066, 318.437 899.925 C 321.017 898.784, 324.111 897.718, 325.314 897.557 C 326.516 897.396, 328.175 896.999, 329 896.675 C 329.825 896.350, 332.750 895.658, 335.500 895.136 C 345.067 893.321, 357.891 889.210, 363.179 886.263 C 368.297 883.410, 373.405 881.228, 388.500 875.445 C 392.350 873.970, 400.900 870.380, 407.500 867.467 C 414.100 864.554, 422.425 861.208, 426 860.032 C 429.575 858.856, 433.269 857.475, 434.209 856.964 C 435.149 856.453, 444.599 852.611, 455.209 848.427 C 476.014 840.222, 496.747 831.567, 506.753 826.910 C 510.192 825.310, 513.347 824, 513.764 824 C 514.181 824, 519.243 821.934, 525.011 819.410 C 530.780 816.885, 541.686 812.399, 549.246 809.441 C 556.807 806.483, 568.057 801.846, 574.246 799.138 C 592.983 790.939, 616.574 781, 617.298 781 C 617.904 781, 633.239 774.607, 670 759.030 C 676.325 756.350, 686.675 752.058, 693 749.491 C 713.666 741.105, 756.363 722.830, 762.500 719.744 C 777.588 712.156, 787.436 703.172, 799.171 686.291 C 810.072 670.610, 815.466 658.948, 819.093 643.225 C 819.861 639.893, 820.170 576.592, 820.141 428.500 C 820.101 220.919, 820.077 218.410, 818.075 210.686 C 812.484 189.120, 797.684 174.563, 779 172.254 C 767.215 170.797, 760.240 172.481, 730.500 183.962 C 700.065 195.712, 688.469 200.176, 681 203.021 C 676.875 204.592, 664.275 209.461, 653 213.841 C 641.725 218.221, 630.700 222.344, 628.500 223.003 C 626.300 223.662, 616.850 227.248, 607.500 230.971 C 598.150 234.694, 588.025 238.533, 585 239.501 C 581.975 240.469, 572.839 243.928, 564.699 247.188 C 556.558 250.449, 547.108 254.006, 543.699 255.095 C 540.289 256.183, 530.750 259.732, 522.500 262.983 C 514.250 266.233, 500.750 271.355, 492.500 274.366 C 484.250 277.377, 473.675 281.380, 469 283.262 C 464.325 285.143, 456 288.383, 450.500 290.460 C 445 292.538, 436.900 295.730, 432.500 297.554 C 428.100 299.378, 420 302.520, 414.500 304.537 C 403.942 308.408, 374.843 319.710, 366.653 323.121 C 363.987 324.231, 361.633 324.966, 361.421 324.754 C 361.023 324.356, 379.276 316, 380.545 316 C 380.940 316, 385.366 314.224, 390.381 312.053 C 395.396 309.883, 406.025 305.661, 414 302.671 C 421.975 299.681, 431.875 295.852, 436 294.162 C 440.125 292.472, 450.700 288.302, 459.500 284.894 C 468.300 281.487, 480 276.947, 485.500 274.805 C 491 272.664, 499.775 269.376, 505 267.497 C 510.225 265.619, 518.550 262.416, 523.500 260.379 C 528.450 258.342, 538.575 254.536, 546 251.920 C 553.425 249.305, 564.900 245.069, 571.500 242.508 C 578.100 239.946, 587.100 236.583, 591.500 235.033 C 595.900 233.484, 601.750 231.227, 604.500 230.018 C 610.792 227.253, 619.356 224.014, 633.920 218.891 C 640.202 216.682, 646.539 214.256, 648.003 213.499 C 649.467 212.741, 656.928 209.844, 664.582 207.060 C 672.237 204.276, 680.750 201.066, 683.500 199.928 C 686.250 198.789, 695.700 195.154, 704.500 191.851 C 713.300 188.548, 725.900 183.673, 732.500 181.018 C 757.481 170.967, 772.018 167.038, 779.344 168.355 C 781.228 168.694, 778.470 166.889, 772.500 163.876 C 767 161.100, 753.025 153.689, 741.444 147.407 C 729.864 141.125, 717.714 135.032, 714.444 133.867 C 706.598 131.070, 692.547 130.435, 685 132.536 M 734 201.479 C 721.625 205.995, 708.125 211.082, 704 212.784 C 699.875 214.487, 690.425 218.183, 683 220.998 C 675.575 223.813, 665.450 227.655, 660.500 229.536 C 655.550 231.417, 640.700 236.987, 627.500 241.915 C 601.282 251.703, 557.405 268.358, 533 277.787 C 524.475 281.081, 510.750 286.341, 502.500 289.476 C 457.629 306.529, 438.412 313.890, 419 321.460 C 407.175 326.071, 387.825 333.535, 376 338.045 C 349.858 348.017, 347.170 349.344, 337.854 356.868 C 329.580 363.549, 325.787 368.288, 317.737 382 C 308.187 398.266, 308.500 396.089, 308.500 446.166 C 308.500 470.183, 308.742 490.074, 309.037 490.370 C 309.332 490.665, 312.164 489.672, 315.330 488.163 C 318.496 486.654, 320.838 485.171, 320.535 484.868 C 318.211 482.544, 317.999 454.448, 320.045 420 C 320.860 406.291, 322.792 399.077, 326.467 396.027 C 327.287 395.347, 330.053 391.575, 332.616 387.645 C 344.675 369.148, 347.113 367.175, 366.500 360.214 C 374.200 357.449, 389.275 351.771, 400 347.596 C 420.292 339.697, 430.970 335.603, 467 321.912 C 478.825 317.419, 495.475 311.074, 504 307.812 C 512.525 304.550, 524.675 300.069, 531 297.853 C 537.325 295.637, 547.450 291.779, 553.500 289.279 C 559.550 286.780, 567.425 283.711, 571 282.460 C 574.575 281.209, 588.300 276.060, 601.500 271.019 C 614.700 265.978, 630.225 260.126, 636 258.014 C 650.794 252.606, 672.590 244.304, 678.480 241.835 C 692.480 235.965, 756.039 212.887, 759.500 212.417 C 763.530 211.870, 742.029 220.551, 728.315 225.009 C 721.326 227.281, 708.612 232.066, 680.500 243.006 C 671.700 246.431, 656.625 252.117, 647 255.643 C 637.375 259.168, 625.675 263.608, 621 265.508 C 612.523 268.953, 587.566 278.361, 570.500 284.545 C 565.550 286.339, 554.975 290.360, 547 293.480 C 539.025 296.601, 528.900 300.415, 524.500 301.956 C 520.100 303.497, 510.650 307.111, 503.500 309.987 C 496.350 312.863, 482.400 318.284, 472.500 322.033 C 448.278 331.205, 414.020 344.355, 394.500 351.973 C 385.700 355.407, 373.335 360.206, 367.021 362.637 C 360.708 365.068, 355.105 367.495, 354.571 368.029 C 352.855 369.745, 355.688 369.113, 361.721 366.434 C 364.900 365.023, 376.050 360.559, 386.500 356.514 C 396.950 352.470, 407.750 348.175, 410.500 346.971 C 413.250 345.767, 418.425 343.745, 422 342.478 C 425.575 341.211, 434.575 337.836, 442 334.978 C 449.425 332.120, 460.225 328.059, 466 325.952 C 478.625 321.346, 490.406 316.876, 506.500 310.583 C 513.100 308.002, 522.158 304.612, 526.629 303.050 C 531.100 301.487, 536.275 299.504, 538.129 298.643 C 539.983 297.782, 549.150 294.331, 558.500 290.975 C 567.850 287.619, 577.975 283.793, 581 282.472 C 584.025 281.151, 592.800 277.785, 600.500 274.992 C 608.200 272.198, 617.200 268.822, 620.500 267.488 C 626.923 264.892, 668.329 249.304, 695.633 239.204 C 700.106 237.550, 704.831 235.620, 706.133 234.916 C 707.435 234.212, 717.725 230.505, 729 226.677 C 740.275 222.849, 753.409 218.364, 758.186 216.711 C 768.476 213.150, 769.816 213.437, 777.935 220.940 L 783.138 225.748 782.417 283.758 L 781.696 341.767 786.098 344.849 C 788.519 346.544, 792.344 349.297, 794.598 350.966 C 799.058 354.268, 800.171 354.673, 799.503 352.750 C 798.277 349.224, 798.031 337.591, 798.025 282.960 L 798.019 223.421 795.023 218.697 C 793.375 216.098, 791.062 212.066, 789.883 209.736 C 787.458 204.945, 781.617 199.236, 778.250 198.365 C 777.013 198.045, 776 197.444, 776 197.028 C 776 195.756, 765.767 193.153, 761 193.212 C 757.965 193.250, 749.173 195.942, 734 201.479 M 681.647 317.257 C 681.301 320.141, 680.966 332.175, 680.903 344 C 680.840 355.825, 680.498 369.508, 680.144 374.407 L 679.500 383.314 673 386.012 C 669.425 387.496, 661.490 390.864, 655.367 393.497 L 644.233 398.283 643.617 402.781 C 643.277 405.255, 643 409.973, 643 413.265 L 643 419.250 645.996 418.651 C 647.643 418.321, 654.056 415.991, 660.246 413.473 C 666.436 410.954, 674.513 407.781, 678.195 406.420 C 684.666 404.029, 694.399 399.037, 692.636 399.012 C 692.161 399.005, 690.136 399.899, 688.136 400.998 C 686.136 402.096, 680.450 404.534, 675.500 406.416 C 670.550 408.297, 661.792 411.673, 656.039 413.918 C 645.450 418.050, 642.786 418.784, 644.550 417.085 C 645.527 416.144, 661.937 409.292, 677.031 403.524 C 681.723 401.731, 687.443 399.304, 689.741 398.132 C 692.040 396.959, 694.613 396, 695.460 396 C 697.243 396, 697.368 394.771, 696.054 390.189 C 694.580 385.048, 697.223 353.974, 699.400 350.848 C 701.285 348.143, 708.256 351.568, 728 364.899 C 733.775 368.799, 745.413 376.586, 753.862 382.205 C 762.311 387.823, 769.449 393.006, 769.723 393.722 C 769.998 394.438, 768.231 397.381, 765.797 400.262 C 763.363 403.143, 759.685 408.200, 757.624 411.500 C 753.916 417.440, 751.980 420.229, 746.862 427.006 C 745.411 428.928, 743.029 432.750, 741.568 435.500 C 740.107 438.250, 736.918 443.200, 734.482 446.500 C 732.045 449.800, 728.859 454.750, 727.402 457.500 C 725.944 460.250, 722.406 465.650, 719.539 469.500 C 714.859 475.784, 703.440 493.525, 699.907 500 C 698.608 502.382, 698.510 502.194, 697.830 496 C 697.437 492.425, 697.125 483.566, 697.135 476.314 C 697.151 465.933, 696.792 462.364, 695.450 459.537 C 693.427 455.274, 693.826 455.214, 679 461.986 C 667.399 467.286, 645.655 476, 644.034 476 C 643.388 476, 643 479.913, 643 486.432 L 643 496.865 651.250 493.525 C 655.788 491.688, 664 488.368, 669.500 486.148 L 679.500 482.110 680.112 497.305 C 680.448 505.662, 680.522 522.625, 680.277 535 L 679.830 557.500 683.165 551.375 C 690.482 537.935, 696.010 529.176, 707.257 513.200 C 720.516 494.366, 734.920 473.283, 751.119 449 C 757.172 439.925, 768.671 422.686, 776.671 410.692 C 784.671 398.697, 790.943 388.610, 790.608 388.275 C 790.274 387.940, 790 388.192, 790 388.833 C 790 389.475, 789.512 390, 788.917 390 C 788.321 390, 788.033 389.438, 788.278 388.750 C 789.380 385.651, 783.039 377.490, 774.615 371.166 C 771.573 368.882, 771.808 368.292, 775.066 370.035 C 776.130 370.605, 777 370.873, 777 370.632 C 777 369.612, 758.064 359, 756.242 359 C 755.144 359, 753.660 358.295, 752.945 357.434 C 752.230 356.573, 750.375 355.211, 748.823 354.408 C 747.270 353.606, 746 352.420, 746 351.774 C 746 350.889, 746.296 350.896, 747.200 351.800 C 747.860 352.460, 748.872 352.996, 749.450 352.990 C 751.090 352.976, 738.596 345.312, 733.025 342.916 C 730.192 341.697, 728.305 340.316, 728.668 339.728 C 729.053 339.105, 728.818 338.994, 728.080 339.450 C 727.376 339.885, 725.923 339.399, 724.676 338.309 C 723.479 337.264, 721.278 335.799, 719.784 335.054 C 718.290 334.308, 717.347 333.247, 717.689 332.695 C 718.053 332.105, 717.802 332.004, 717.080 332.450 C 716.371 332.889, 714.933 332.377, 713.676 331.238 C 712.479 330.154, 709.362 328.471, 706.750 327.498 C 704.138 326.525, 702 325.313, 702 324.805 C 702 324.297, 701.550 324.160, 701 324.500 C 700.450 324.840, 700 324.641, 700 324.059 C 700 323.477, 699.559 323, 699.019 323 C 698.480 323, 695.577 321.425, 692.567 319.500 C 689.558 317.575, 686.790 316, 686.415 316 C 686.041 316, 684.957 315.103, 684.006 314.007 C 682.327 312.071, 682.259 312.165, 681.647 317.257 M 602.500 332.968 C 587.910 337.985, 574.161 343.213, 553 351.790 C 546.125 354.576, 531.050 360.548, 519.500 365.060 C 473.454 383.050, 453.061 391.322, 443.750 395.786 L 434 400.461 434 548.231 C 434 644.176, 434.344 696, 434.981 696 C 435.521 696, 438.783 694.608, 442.231 692.907 L 448.500 689.815 448.306 663.157 C 447.593 565.474, 448.402 429.883, 449.752 420.701 C 450.433 416.069, 451.349 413.452, 452.626 412.491 C 457.250 409.010, 467.132 404.593, 488.500 396.456 C 501.150 391.639, 518.700 384.785, 527.500 381.225 C 577.395 361.040, 604.640 350.805, 607.422 351.203 C 609.306 351.472, 609.560 352.387, 610.138 361 C 610.489 366.225, 610.827 426.836, 610.888 495.691 C 610.950 564.546, 611.380 621.117, 611.845 621.404 C 612.309 621.691, 615.014 621.043, 617.855 619.963 C 620.697 618.883, 623.978 618, 625.148 618 C 627.222 618, 627.256 617.763, 626.519 608.250 C 625.687 597.512, 625.813 544.898, 626.836 475.500 C 627.201 450.750, 627.174 420.600, 626.777 408.500 C 626.379 396.400, 625.686 375.025, 625.238 361 C 624.735 345.277, 623.986 334.733, 623.284 333.500 C 622.658 332.400, 621.902 330.712, 621.604 329.750 C 620.803 327.160, 618.036 327.626, 602.500 332.968 M 584.500 360.635 C 572.400 365.296, 559.350 370.241, 555.500 371.623 C 546.684 374.790, 524.924 384.257, 525.390 384.724 C 525.582 384.916, 530.636 382.974, 536.620 380.408 C 542.604 377.843, 550.425 374.708, 554 373.443 C 557.575 372.177, 566.575 368.812, 574 365.964 C 581.425 363.117, 592.188 359.373, 597.918 357.644 C 603.648 355.915, 608.523 353.938, 608.751 353.250 C 608.980 352.563, 608.567 352.036, 607.833 352.080 C 607.100 352.125, 596.600 355.974, 584.500 360.635 M 588.158 380.065 C 586.869 380.582, 585.418 380.759, 584.933 380.459 C 584.448 380.159, 578.302 382.167, 571.275 384.920 C 564.249 387.674, 553.775 391.707, 548 393.881 C 542.225 396.056, 525.800 402.638, 511.500 408.507 C 497.200 414.376, 481.793 420.600, 477.263 422.339 L 469.026 425.500 469.013 553.121 L 469 680.742 481.750 675.478 C 488.762 672.583, 499.450 668.111, 505.500 665.541 C 511.550 662.971, 518.750 660.046, 521.500 659.040 C 524.250 658.035, 529.650 655.776, 533.500 654.019 C 537.350 652.263, 543.200 649.793, 546.500 648.531 C 549.800 647.269, 558.800 643.538, 566.500 640.240 C 574.200 636.942, 582.814 633.666, 585.641 632.961 L 590.782 631.678 591.522 605.089 C 591.928 590.465, 591.867 565.675, 591.386 550 C 590.904 534.325, 590.523 518.350, 590.538 514.500 C 590.553 510.650, 590.621 500.075, 590.690 491 C 590.994 451.191, 591.059 379.006, 590.793 379.063 C 590.632 379.098, 589.446 379.549, 588.158 380.065 M 518 386.957 C 515.525 387.945, 509.088 390.434, 503.696 392.489 C 498.304 394.544, 494.057 396.390, 494.258 396.591 C 494.459 396.792, 498.611 395.392, 503.484 393.478 C 508.357 391.565, 512.829 389.994, 513.422 389.987 C 514.015 389.980, 516.750 388.891, 519.500 387.566 C 525.363 384.742, 524.465 384.378, 518 386.957 M 487.500 398.945 C 485.300 399.986, 483.950 400.841, 484.500 400.845 C 485.864 400.854, 493.755 397.161, 492.500 397.100 C 491.950 397.074, 489.700 397.904, 487.500 398.945 M 742.141 401.363 C 742.847 402.938, 743.606 403.682, 743.828 403.015 C 744.050 402.349, 743.473 401.060, 742.545 400.152 C 740.966 398.606, 740.940 398.683, 742.141 401.363 M 472.500 404.561 C 462.405 408.314, 453.826 412.159, 454.359 412.692 C 454.553 412.887, 457.619 411.741, 461.172 410.147 C 464.724 408.553, 470.077 406.512, 473.066 405.612 C 478.171 404.073, 484.695 400.984, 482.500 401.144 C 481.950 401.184, 477.450 402.722, 472.500 404.561 M 727 403.136 C 724.525 404.286, 715.300 408.151, 706.500 411.724 C 697.700 415.297, 683.300 421.151, 674.500 424.732 C 665.700 428.314, 654.900 432.682, 650.500 434.440 L 642.500 437.636 641.960 445.568 C 641.663 449.931, 641.533 453.670, 641.671 453.878 C 642.396 454.967, 659.436 449.464, 673.500 443.600 C 682.300 439.930, 694.675 434.894, 701 432.409 C 722.885 423.811, 732.388 419.612, 734.306 417.694 C 735.862 416.138, 736.102 414.974, 735.552 411.634 C 735.178 409.360, 734.915 406.038, 734.968 404.250 C 735.083 400.307, 733.547 400.093, 727 403.136 M 707 432.121 C 701.775 434.314, 695.563 436.810, 693.196 437.667 C 690.828 438.524, 689.108 439.441, 689.373 439.706 C 689.828 440.162, 713.751 430.843, 716.978 428.953 C 720.386 426.956, 715.951 428.365, 707 432.121 M 786.708 442.133 L 783 447.517 782.990 547.509 L 782.981 647.500 776.240 657.164 C 767.984 669.001, 765.173 672.196, 760.004 675.616 C 755.267 678.751, 726.393 691.688, 713.465 696.468 C 708.496 698.305, 700.171 701.614, 694.965 703.820 C 668.912 714.861, 635.540 728.737, 602.500 742.267 C 593.700 745.871, 583.350 750.242, 579.500 751.982 C 570.777 755.922, 539.932 768.542, 522 775.506 C 514.575 778.390, 503.100 783.103, 496.500 785.981 C 489.900 788.858, 481.125 792.559, 477 794.206 C 465.788 798.683, 436.106 810.971, 431.241 813.151 C 428.898 814.200, 421.698 817.037, 415.241 819.455 C 408.783 821.873, 399.675 825.500, 395 827.515 C 390.325 829.529, 384.025 832.097, 381 833.222 C 377.975 834.346, 374.900 835.742, 374.167 836.325 C 373.433 836.907, 371.952 837.448, 370.876 837.528 C 369.799 837.607, 368.236 838.646, 367.402 839.836 C 366.569 841.026, 365.125 841.984, 364.193 841.965 C 362.958 841.939, 363.176 841.543, 365 840.500 C 368.283 838.623, 367.388 838.648, 361.678 840.594 C 358.717 841.603, 356.971 842.796, 356.921 843.844 C 356.872 844.868, 356.651 845.027, 356.341 844.259 C 355.952 843.297, 355.531 843.327, 354.469 844.388 C 352.387 846.470, 342.283 845.755, 338 843.223 C 328.374 837.531, 321.785 830.782, 321.187 826 C 321.015 824.625, 320.724 809.866, 320.540 793.203 C 320.356 776.539, 319.904 761.303, 319.537 759.344 C 318.399 753.281, 312.436 749.528, 309 752.712 C 308.725 752.967, 308.657 770.798, 308.849 792.338 C 309.238 835.944, 309.300 836.401, 316.664 850 C 323.416 862.470, 327.652 865.307, 339.490 865.286 C 347.338 865.273, 348.036 865.056, 374 854.583 C 388.575 848.704, 405.450 841.955, 411.500 839.586 C 417.550 837.217, 437.575 829.074, 456 821.489 C 513.750 797.718, 518.035 795.967, 601.611 761.986 C 614.872 756.594, 627.558 751.246, 629.803 750.101 C 632.047 748.956, 638.297 746.269, 643.692 744.131 C 658.964 738.078, 689.960 725.434, 695.500 722.997 C 698.250 721.788, 711.975 716.156, 726 710.481 C 759.737 696.831, 758.095 697.574, 763.280 693.616 C 777.149 683.029, 793.480 658.987, 794.533 647.603 C 794.824 644.458, 794.642 640.361, 794.128 638.500 C 793.566 636.465, 793.534 630.804, 794.048 624.307 C 795.161 610.241, 796.354 588.382, 796.236 584.250 C 796.184 582.462, 796.448 581, 796.821 581 C 799.051 580.999, 797.255 457.393, 795.004 456.003 C 794.397 455.627, 793.754 453.111, 793.576 450.410 C 793.398 447.710, 793.006 444.825, 792.705 444 C 792.405 443.175, 791.766 441.206, 791.287 439.625 L 790.416 436.749 786.708 442.133 M 678 444.500 C 673.325 446.920, 669.950 448.900, 670.500 448.900 C 671.050 448.900, 675.325 446.920, 680 444.500 C 684.675 442.080, 688.050 440.100, 687.500 440.100 C 686.950 440.100, 682.675 442.080, 678 444.500 M 665 450.500 C 663.625 451.286, 662.950 451.929, 663.500 451.929 C 664.050 451.929, 665.625 451.286, 667 450.500 C 668.375 449.714, 669.050 449.071, 668.500 449.071 C 667.950 449.071, 666.375 449.714, 665 450.500 M 648.500 455.110 C 642.041 456.590, 641.476 456.850, 645.565 456.461 C 648.351 456.197, 652.626 455.354, 655.065 454.589 C 661.189 452.668, 658.083 452.914, 648.500 455.110 M 407.500 472.517 C 362.526 489.973, 331.567 502.772, 318 509.516 C 314.425 511.293, 308.238 513.792, 304.250 515.070 L 297 517.394 297 527.197 C 297 532.589, 297.240 537, 297.533 537 C 297.827 537, 300.189 535.936, 302.783 534.637 C 305.377 533.337, 309.300 531.708, 311.500 531.018 C 316.519 529.444, 326.584 525.116, 339.500 518.979 C 345 516.366, 350.625 513.900, 352 513.499 C 353.375 513.098, 356.075 511.939, 358 510.923 C 361.424 509.116, 387.341 499, 388.548 499 C 388.884 499, 395.648 496.020, 403.579 492.379 L 418 485.758 417.900 480.629 C 417.845 477.808, 417.440 474.375, 417 473 L 416.199 470.500 415.984 473 C 415.831 474.774, 415.635 474.992, 415.311 473.750 C 415.059 472.788, 414.410 472, 413.868 472 C 413.326 472, 413.160 471.550, 413.500 471 C 413.840 470.450, 413.979 470.042, 413.809 470.094 C 413.639 470.145, 410.800 471.236, 407.500 472.517 M 675 486 C 673.075 487.054, 671.860 487.935, 672.300 487.958 C 673.359 488.014, 679 485.081, 679 484.474 C 679 483.820, 678.941 483.842, 675 486 M 571 487.159 C 567.975 488.269, 564.645 489.432, 563.601 489.744 C 561.806 490.280, 561.738 491.139, 562.358 505.406 C 562.718 513.708, 563.348 521.948, 563.757 523.719 L 564.500 526.937 571.500 523.141 L 578.500 519.345 578.131 507.095 C 577.929 500.358, 577.479 492.662, 577.131 489.994 L 576.500 485.142 571 487.159 M 404 494.500 C 402.625 495.286, 401.950 495.929, 402.500 495.929 C 403.050 495.929, 404.625 495.286, 406 494.500 C 407.375 493.714, 408.050 493.071, 407.500 493.071 C 406.950 493.071, 405.375 493.714, 404 494.500 M 416.854 508.743 C 416.659 509.220, 412.225 511.006, 407 512.711 C 396.111 516.265, 369.371 526.506, 360.500 530.520 C 357.200 532.013, 347.525 536.057, 339 539.505 C 330.475 542.954, 319.139 547.881, 313.808 550.454 C 304.326 555.032, 304.085 555.233, 302.652 559.816 C 299.945 568.476, 299.958 568.740, 303.169 570.070 C 305.880 571.193, 307.862 570.597, 328.306 562.515 C 340.513 557.689, 351.850 553.050, 353.500 552.205 C 355.150 551.360, 360.775 549.003, 366 546.967 C 384.487 539.764, 412.540 528.313, 415.471 526.773 L 418.441 525.213 418.129 516.856 C 417.822 508.660, 417.563 507.007, 416.854 508.743 M 357 513.500 C 355.625 514.286, 354.950 514.929, 355.500 514.929 C 356.050 514.929, 357.625 514.286, 359 513.500 C 360.375 512.714, 361.050 512.071, 360.500 512.071 C 359.950 512.071, 358.375 512.714, 357 513.500 M 351 516 C 350.175 516.533, 349.950 516.969, 350.500 516.969 C 351.050 516.969, 352.175 516.533, 353 516 C 353.825 515.467, 354.050 515.031, 353.500 515.031 C 352.950 515.031, 351.825 515.467, 351 516 M 390 539.500 C 388.625 540.286, 387.950 540.929, 388.500 540.929 C 389.050 540.929, 390.625 540.286, 392 539.500 C 393.375 538.714, 394.050 538.071, 393.500 538.071 C 392.950 538.071, 391.375 538.714, 390 539.500 M 379 544 C 378.175 544.533, 377.950 544.969, 378.500 544.969 C 379.050 544.969, 380.175 544.533, 381 544 C 381.825 543.467, 382.050 543.031, 381.500 543.031 C 380.950 543.031, 379.825 543.467, 379 544 M 371.500 547.464 C 369.850 548.219, 369.201 548.874, 370.059 548.919 C 370.916 548.963, 372.491 548.339, 373.559 547.532 C 375.970 545.708, 375.377 545.689, 371.500 547.464 M 404 552.682 C 403.175 552.970, 395.750 555.925, 387.500 559.248 C 371.518 565.686, 362.806 569.130, 335 580.001 C 325.375 583.764, 312.938 588.709, 307.361 590.989 C 295.955 595.654, 296 595.590, 296 607.204 L 296 613.159 299.250 612.448 C 302.192 611.805, 326.149 602.718, 333.500 599.456 C 335.150 598.724, 343.925 595.150, 353 591.514 C 404.087 571.044, 412.770 567.475, 415.500 565.823 C 417.150 564.824, 417.911 564.006, 417.191 564.004 C 416.471 564.002, 416.160 563.550, 416.500 563 C 417.077 562.067, 407.395 551.906, 406.094 552.079 C 405.767 552.122, 404.825 552.394, 404 552.682 M 325 566 C 324.175 566.533, 323.950 566.969, 324.500 566.969 C 325.050 566.969, 326.175 566.533, 327 566 C 327.825 565.467, 328.050 565.031, 327.500 565.031 C 326.950 565.031, 325.825 565.467, 325 566 M 313 571 C 310.525 572.039, 309.008 572.913, 309.628 572.944 C 311.046 573.014, 318 570.143, 318 569.487 C 318 568.869, 318.281 568.784, 313 571 M 388.500 579.072 C 386.300 580.130, 385.625 580.715, 387 580.373 C 389.831 579.668, 395.030 577.062, 393.500 577.114 C 392.950 577.133, 390.700 578.014, 388.500 579.072 M 403.500 593.617 C 400.200 595.011, 393.900 597.440, 389.500 599.017 C 381.312 601.951, 347.419 615.559, 329.500 623.108 C 324 625.425, 314.325 629.167, 308 631.425 L 296.500 635.529 296.215 645.803 L 295.929 656.077 300.195 653.900 C 302.542 652.703, 307.395 650.687, 310.981 649.419 C 319.958 646.245, 336.567 639.739, 342 637.269 C 347.955 634.561, 359.402 629.902, 370.500 625.670 C 389.135 618.564, 414.564 607.776, 416.250 606.262 C 419.848 603.030, 416.979 594, 412.354 594 C 411.371 594, 411.001 593.440, 411.362 592.500 C 412.156 590.429, 410.491 590.666, 403.500 593.617 M 417.079 592.583 C 417.127 593.748, 417.364 593.985, 417.683 593.188 C 417.972 592.466, 417.936 591.603, 417.604 591.271 C 417.272 590.939, 417.036 591.529, 417.079 592.583 M 413.813 592.683 C 414.534 592.972, 415.397 592.936, 415.729 592.604 C 416.061 592.272, 415.471 592.036, 414.417 592.079 C 413.252 592.127, 413.015 592.364, 413.813 592.683 M 347 596 C 346.175 596.533, 345.950 596.969, 346.500 596.969 C 347.050 596.969, 348.175 596.533, 349 596 C 349.825 595.467, 350.050 595.031, 349.500 595.031 C 348.950 595.031, 347.825 595.467, 347 596 M 766.868 602.465 C 766.526 602.808, 764.953 603.309, 763.373 603.580 C 755.458 604.935, 720.012 619.195, 686.202 634.626 C 680.964 637.016, 679.993 637.837, 680.438 639.500 C 680.732 640.600, 680.979 643.837, 680.986 646.693 L 681 651.886 688.250 648.593 C 692.237 646.782, 708.775 639.994, 725 633.509 C 741.225 627.023, 757.763 620.231, 761.750 618.415 L 769 615.114 768.900 610.807 C 768.784 605.779, 767.760 601.574, 766.868 602.465 M 681.011 609.083 C 681.030 613.268, 682.225 618.979, 682.983 618.510 C 683.744 618.040, 682.481 608.148, 681.540 607.207 C 681.243 606.910, 681.005 607.754, 681.011 609.083 M 659 626.386 C 655.975 627.652, 650.794 630.061, 647.486 631.739 C 642.386 634.327, 635.916 637.164, 618.749 644.339 C 616.825 645.143, 615.862 646.391, 615.544 648.494 C 615.095 651.466, 614.197 662.016, 614.397 661.983 C 614.454 661.974, 618.325 660.406, 623 658.500 C 627.675 656.594, 631.996 655.026, 632.603 655.017 C 633.393 655.005, 633.565 662.577, 633.210 681.631 C 632.923 697.081, 633.089 708.102, 633.607 707.881 C 634.098 707.671, 637.541 706.013, 641.258 704.195 L 648.016 700.890 647.834 693.195 C 647.733 688.963, 647.730 677.534, 647.826 667.798 L 648 650.096 652.250 647.216 C 654.587 645.632, 658.608 643.479, 661.185 642.432 L 665.870 640.529 665.685 632.270 C 665.583 627.727, 665.275 624.027, 665 624.047 C 664.725 624.068, 662.025 625.120, 659 626.386 M 393.454 637.635 C 383.029 641.755, 366.850 648.247, 357.500 652.062 C 348.150 655.877, 335.775 660.753, 330 662.897 C 318.786 667.062, 306.817 671.928, 300.825 674.760 C 296.600 676.756, 296 678.556, 296 689.232 C 296 694.440, 296.318 696.076, 297.250 695.672 C 297.938 695.374, 303.552 692.847, 309.726 690.056 C 320.046 685.391, 326.814 682.726, 348.250 674.886 C 352.513 673.327, 357.268 671.396, 358.818 670.594 C 360.367 669.793, 368.804 666.455, 377.567 663.176 C 390.469 658.349, 417.579 647.363, 418.784 646.474 C 418.941 646.359, 418.769 642.672, 418.403 638.281 C 417.754 630.492, 417.672 630.295, 415.073 630.221 C 413.608 630.179, 403.879 633.516, 393.454 637.635 M 766.485 638.902 C 765.943 639.437, 763.250 640.070, 760.500 640.308 C 757.750 640.546, 751.225 642.558, 746 644.778 C 740.775 646.998, 729.975 651.289, 722 654.314 C 714.025 657.339, 701.425 662.474, 694 665.726 L 680.500 671.639 680.209 680.476 C 679.965 687.887, 680.140 689.129, 681.294 688.171 C 682.051 687.543, 690.507 683.921, 700.085 680.123 C 709.663 676.325, 723.125 670.778, 730 667.797 C 736.875 664.817, 748.700 659.944, 756.278 656.970 L 770.057 651.561 769.380 647.050 C 768.297 639.825, 767.584 637.818, 766.485 638.902 M 597.352 651.084 L 592.205 653.063 591.495 667.282 C 590.517 686.855, 591.208 722.609, 592.591 723.991 C 593.378 724.778, 595.375 724.346, 599.771 722.440 L 605.862 719.799 605.431 686.413 C 605.194 668.051, 605 652.122, 605 651.014 C 605 648.546, 603.925 648.556, 597.352 651.084 M 572.318 661.993 C 565.673 665.320, 562.338 669.366, 556.238 681.503 C 554.578 684.805, 552.306 688.630, 551.189 690.003 L 549.157 692.500 546.002 689.500 C 544.266 687.850, 541.148 683.961, 539.071 680.857 L 535.295 675.213 529.023 678.564 C 525.574 680.407, 522.541 682.125, 522.284 682.382 C 521.050 683.616, 523.906 687.829, 532.558 697.540 C 537.751 703.368, 542.053 708.668, 542.118 709.318 C 542.388 712.005, 541.548 713.940, 536.176 723 C 531.726 730.506, 521 752.768, 521 754.497 C 521 754.695, 524.658 753.211, 529.129 751.200 L 537.258 747.544 540.635 740.134 C 543.993 732.767, 552.045 719.067, 553 719.098 C 553.987 719.129, 562.928 730.751, 564.153 733.595 C 564.842 735.193, 565.513 736.662, 565.645 736.859 C 565.777 737.057, 567.148 736.332, 568.692 735.249 C 570.237 734.166, 573.894 732.398, 576.820 731.319 L 582.141 729.357 576.315 722.928 C 567.750 713.477, 559 702.449, 559 701.106 C 559 699.437, 563.736 690.278, 567.246 685.158 C 571.153 679.459, 579.193 662.203, 578.804 660.350 C 578.565 659.208, 577.181 659.559, 572.318 661.993 M 403.187 674.028 C 400.966 675.022, 392.036 678.403, 383.343 681.541 C 374.650 684.679, 364.154 688.718, 360.019 690.517 C 355.883 692.317, 347.775 695.465, 342 697.513 C 336.225 699.561, 327.225 703.165, 322 705.523 C 316.775 707.880, 309.125 710.858, 305 712.139 C 300.875 713.421, 297.169 714.927, 296.765 715.485 C 295.765 716.867, 295.798 734, 296.800 734 C 297.241 734, 304.778 731.155, 313.550 727.678 C 322.323 724.201, 334.225 719.492, 340 717.214 C 345.775 714.936, 355 711.213, 360.500 708.941 C 366 706.668, 374.100 703.333, 378.500 701.530 C 382.900 699.726, 390.325 696.678, 395 694.757 C 399.675 692.836, 406.694 690.066, 410.599 688.602 C 417.303 686.089, 417.702 685.764, 417.788 682.760 C 417.853 680.448, 417.626 679.978, 416.954 681.040 C 416.224 682.194, 416.027 682.043, 416.015 680.321 C 416.005 678.872, 414.529 677.149, 411.613 675.181 L 407.225 672.220 403.187 674.028 M 501 690.544 C 491.537 695.558, 468.913 706, 467.512 706 C 465.973 706, 465 725.246, 465 755.700 L 465 778.084 469.283 775.574 C 471.638 774.194, 475.351 772.429, 477.533 771.652 C 479.715 770.876, 484.875 768.678, 489 766.769 C 493.125 764.860, 499.538 762.247, 503.250 760.964 L 510 758.630 510 749.273 L 510 739.916 505.750 742.383 C 501.957 744.585, 478.456 755, 477.281 755 C 476.780 755, 477.815 745.664, 478.640 742.750 C 478.912 741.788, 479.667 740.991, 480.317 740.980 C 482.392 740.946, 503.410 732.019, 504.882 730.547 C 506.074 729.355, 506.093 728.405, 505.005 724.518 C 503.755 720.054, 503.612 719.926, 500.607 720.576 C 498.898 720.945, 493.134 723.163, 487.798 725.505 C 482.462 727.847, 477.849 729.516, 477.548 729.215 C 477.247 728.913, 477 726.546, 477 723.954 L 477 719.241 488.250 714.176 C 494.438 711.391, 501.750 708.287, 504.500 707.279 L 509.500 705.446 509.811 699.473 C 510.144 693.072, 509.355 686.969, 508.205 687.050 C 507.817 687.077, 504.575 688.649, 501 690.544 M 316 690 C 315.099 690.582, 314.975 690.975, 315.691 690.985 C 316.346 690.993, 317.160 690.550, 317.500 690 C 318.267 688.758, 317.921 688.758, 316 690 M 311.507 691.989 C 311.157 692.555, 311.558 692.723, 312.448 692.382 C 314.180 691.717, 314.497 691, 313.059 691 C 312.541 691, 311.843 691.445, 311.507 691.989 M 751.500 704.662 C 746 707.139, 738.125 710.441, 734 711.999 C 724.896 715.438, 716.559 719.238, 720 718.380 C 721.375 718.037, 727.450 715.740, 733.500 713.277 C 739.550 710.813, 747.808 707.487, 751.852 705.884 C 758.709 703.167, 764.685 699.900, 762.473 700.079 C 761.938 700.122, 757 702.184, 751.500 704.662 M 373 706 C 372.175 706.533, 371.950 706.969, 372.500 706.969 C 373.050 706.969, 374.175 706.533, 375 706 C 375.825 705.467, 376.050 705.031, 375.500 705.031 C 374.950 705.031, 373.825 705.467, 373 706 M 686 732 C 685.175 732.533, 684.950 732.969, 685.500 732.969 C 686.050 732.969, 687.175 732.533, 688 732 C 688.825 731.467, 689.050 731.031, 688.500 731.031 C 687.950 731.031, 686.825 731.467, 686 732 M 442 735.752 C 437.090 737.318, 412.109 746.871, 397 752.961 C 391.775 755.067, 383.900 758.230, 379.500 759.990 C 375.100 761.751, 365.200 765.833, 357.500 769.062 L 343.500 774.934 343 782.969 C 342.713 787.582, 342.894 791.003, 343.424 791.002 C 343.933 791.001, 349.558 788.777, 355.924 786.061 C 362.291 783.345, 370.875 779.772, 375 778.122 C 379.125 776.472, 387.450 773.026, 393.500 770.465 C 399.550 767.903, 412.375 762.994, 422 759.556 C 431.625 756.117, 441.413 752.326, 443.750 751.132 C 448.374 748.768, 448.692 747.586, 447.176 738.408 L 446.500 734.317 442 735.752 M 671 738 C 670.175 738.533, 669.950 738.969, 670.500 738.969 C 671.050 738.969, 672.175 738.533, 673 738 C 673.825 737.467, 674.050 737.031, 673.500 737.031 C 672.950 737.031, 671.825 737.467, 671 738 M 652 746 C 651.099 746.582, 650.975 746.975, 651.691 746.985 C 652.346 746.993, 653.160 746.550, 653.500 746 C 654.267 744.758, 653.921 744.758, 652 746 M 343 751.674 C 343 757.986, 342.230 757.929, 354.624 752.540 L 362.337 749.186 356.418 748.546 C 353.163 748.195, 348.813 747.526, 346.750 747.060 L 343 746.213 343 751.674 M 647 748 C 646.175 748.533, 645.950 748.969, 646.500 748.969 C 647.050 748.969, 648.175 748.533, 649 748 C 649.825 747.467, 650.050 747.031, 649.500 747.031 C 648.950 747.031, 647.825 747.467, 647 748 M 628 755.500 C 626.625 756.286, 625.950 756.929, 626.500 756.929 C 627.050 756.929, 628.625 756.286, 630 755.500 C 631.375 754.714, 632.050 754.071, 631.500 754.071 C 630.950 754.071, 629.375 754.714, 628 755.500 M 446.244 768.749 C 445.553 768.981, 445.171 769.470, 445.395 769.835 C 445.620 770.201, 444.610 770.565, 443.152 770.645 C 439.405 770.850, 389.912 791.048, 390.565 792.106 C 390.862 792.585, 390.332 792.681, 389.388 792.319 C 388.355 791.922, 387.919 792.059, 388.292 792.663 C 388.648 793.239, 387.759 793.672, 386.206 793.679 C 384.718 793.686, 381.475 794.606, 379 795.722 C 376.525 796.839, 367.413 800.591, 358.750 804.060 L 343 810.367 343 818.184 C 343 822.483, 343.390 826, 343.866 826 C 344.342 826, 350.754 823.490, 358.116 820.422 C 365.477 817.354, 375.550 813.332, 380.500 811.483 C 385.450 809.635, 394.900 805.814, 401.500 802.993 C 408.100 800.172, 420.700 795.184, 429.500 791.909 C 438.300 788.634, 446.082 785.588, 446.793 785.141 C 448.601 784.005, 448.069 768.136, 446.244 768.749 M 189 857.969 C 189 858.501, 189.675 858.678, 190.500 858.362 C 191.325 858.045, 192 857.609, 192 857.393 C 192 857.177, 191.325 857, 190.500 857 C 189.675 857, 189 857.436, 189 857.969 M 157 858.882 C 157 859.432, 157.450 860.160, 158 860.500 C 158.550 860.840, 159 860.668, 159 860.118 C 159 859.568, 158.550 858.840, 158 858.500 C 157.450 858.160, 157 858.332, 157 858.882 M 153 860 C 153 860.550, 153.477 861, 154.059 861 C 154.641 861, 154.840 860.550, 154.500 860 C 154.160 859.450, 153.684 859, 153.441 859 C 153.198 859, 153 859.450, 153 860 M 332.438 867.670 C 334.053 868.545, 338.328 869.486, 341.938 869.763 C 349.175 870.316, 349.897 869.317, 342.910 868.419 C 340.484 868.107, 336.925 867.437, 335 866.931 C 329.946 865.603, 329.079 865.852, 332.438 867.670 M 119 879 C 119 879.550, 119.477 880, 120.059 880 C 120.641 880, 120.840 879.550, 120.500 879 C 120.160 878.450, 119.684 878, 119.441 878 C 119.198 878, 119 878.450, 119 879 M 102.035 882.934 C 100.741 885.353, 100.733 886, 102 886 C 102.550 886, 103 885.310, 103 884.468 C 103 883.625, 104.013 882.529, 105.250 882.031 L 107.500 881.127 105.285 881.063 C 104.067 881.029, 102.605 881.870, 102.035 882.934 M 113 885 C 113 885.550, 113.450 886, 114 886 C 114.550 886, 115 885.550, 115 885 C 115 884.450, 114.550 884, 114 884 C 113.450 884, 113 884.450, 113 885 M 91.459 888.067 C 90.383 889.808, 91.608 890.177, 92.980 888.524 C 93.769 887.574, 93.845 887, 93.181 887 C 92.597 887, 91.821 887.480, 91.459 888.067 M 108.638 888.500 C 108.955 889.325, 109.953 889.964, 110.857 889.921 C 111.904 889.871, 112.044 889.658, 111.244 889.336 C 110.553 889.057, 110.242 888.418, 110.553 887.915 C 110.864 887.412, 110.431 887, 109.590 887 C 108.643 887, 108.282 887.570, 108.638 888.500 M 101.020 890.988 C 99.778 891.755, 99.824 891.995, 101.321 892.570 C 103.408 893.370, 104.770 892.370, 103.425 891.025 C 102.857 890.457, 101.903 890.442, 101.020 890.988 M 91.510 893.016 C 91.856 893.575, 92.557 893.774, 93.069 893.457 C 94.456 892.600, 94.198 892, 92.441 892 C 91.584 892, 91.165 892.457, 91.510 893.016 M 87.600 895.600 C 87.244 896.527, 87.178 897.511, 87.453 897.786 C 87.728 898.061, 88.244 897.527, 88.600 896.600 C 88.956 895.673, 89.022 894.689, 88.747 894.414 C 88.472 894.139, 87.956 894.673, 87.600 895.600 M 110.500 895 C 110.840 895.550, 111.316 896, 111.559 896 C 111.802 896, 112 895.550, 112 895 C 112 894.450, 111.523 894, 110.941 894 C 110.359 894, 110.160 894.450, 110.500 895 M 85 902.559 C 85 903.416, 85.450 903.840, 86 903.500 C 86.550 903.160, 87 902.459, 87 901.941 C 87 901.423, 86.550 901, 86 901 C 85.450 901, 85 901.702, 85 902.559" stroke="none" fill="#000000" fill-rule="evenodd"/>
</svg>