<svg xmlns="http://www.w3.org/2000/svg" width="1024" height="1024" viewBox="0 0 1024 1024" version="1.1">
	<path d="M 235.973 162.520 C 234.094 163.906, 232.247 165.595, 231.867 166.272 C 231.488 166.950, 231.050 195.404, 230.893 229.502 L 230.608 291.500 506.804 291.500 L 782.999 291.500 783.185 253.500 C 783.287 232.600, 783.432 204.747, 783.506 191.604 L 783.642 167.708 779.976 163.854 L 776.310 160 507.849 160 L 239.389 160 235.973 162.520 M 651.579 178.103 C 636.601 183.254, 622.370 198.677, 617.595 214.932 C 615.436 222.282, 615.553 234.930, 617.855 243.234 C 622.667 260.588, 637.242 275.184, 655 280.436 C 662.752 282.728, 675.925 282.595, 683.787 280.146 C 696.408 276.213, 710.961 263.911, 716.581 252.425 C 721.933 241.485, 723.519 227.293, 720.610 216.368 C 715.792 198.274, 699.676 182.457, 680.992 177.485 C 672.862 175.322, 658.808 175.617, 651.579 178.103 M 325.665 195.499 C 311.188 200.993, 300.417 217.985, 302.900 231.415 C 304.978 242.659, 313.104 253.202, 323.500 258.145 C 336.484 264.319, 350.233 260.997, 361.338 249.001 C 369.935 239.716, 372.593 227.941, 368.686 216.443 C 366.612 210.341, 356.962 200.144, 350.054 196.754 C 344.340 193.951, 331.487 193.290, 325.665 195.499 M 653.500 196.649 C 640.959 203.060, 634.743 213.245, 634.674 227.500 C 634.565 249.884, 648.305 264.429, 669.500 264.369 C 673.664 264.357, 677.995 263.701, 680.189 262.751 C 686.293 260.107, 694.519 253.441, 697.811 248.471 C 701.783 242.474, 704.467 230.893, 703.562 223.651 C 702.152 212.369, 694.871 201.983, 684.810 196.904 L 679 193.971 678.985 212.736 C 678.969 233.048, 678.401 235.783, 673.869 237.377 C 670.547 238.545, 667.081 237.656, 664.088 234.867 L 661.715 232.657 662.418 213.328 L 663.120 194 660.810 194.047 C 659.540 194.072, 656.250 195.243, 653.500 196.649 M 331.401 212.905 C 325.868 215.418, 322.733 220.048, 322.258 226.408 C 321.775 232.863, 324.232 237.654, 329.604 240.734 C 336.948 244.944, 344.503 242.792, 349.815 234.976 C 351.759 232.116, 352.103 230.562, 351.754 226.211 C 351.391 221.698, 350.759 220.338, 347.449 216.948 C 345.316 214.763, 341.979 212.533, 340.035 211.993 C 335.625 210.768, 336.254 210.701, 331.401 212.905 M 420.198 217.673 C 416.152 219.667, 414 223.588, 414 228.965 C 414 232.198, 414.700 233.793, 417.423 236.765 C 420.604 240.235, 421.248 240.500, 426.505 240.500 C 431.633 240.500, 432.438 240.193, 435.082 237.234 C 437.397 234.644, 438 233.031, 438 229.435 C 438 218.688, 429.514 213.081, 420.198 217.673 M 468.304 218.250 C 461.367 223.177, 460.114 229.783, 465.050 235.404 C 472.342 243.709, 484.273 241.915, 486.981 232.106 C 490.160 220.593, 477.856 211.466, 468.304 218.250 M 516.213 218.139 C 512.333 220.623, 510 224.697, 510 228.989 C 510 233.787, 516.260 239.957, 521.895 240.713 C 535.189 242.496, 541.189 225.967, 530.111 218.079 C 526.325 215.383, 520.477 215.408, 516.213 218.139 M 567.415 217.421 C 560.938 220.242, 557.836 227.279, 560.383 233.375 C 564.241 242.607, 579.018 243.668, 583.483 235.033 C 586.908 228.409, 584.540 220.882, 577.961 217.480 C 574.465 215.672, 571.472 215.655, 567.415 217.421 M 606.253 308.177 C 602.817 308.563, 599.500 309.191, 598.880 309.574 C 597.228 310.595, 598.219 331.899, 599.970 332.981 C 600.692 333.427, 613.031 337.714, 627.391 342.508 C 641.751 347.301, 658.900 353.234, 665.500 355.692 C 672.100 358.150, 679.406 360.859, 681.736 361.711 C 687.565 363.844, 688.383 365.118, 687.689 370.982 L 687.103 375.929 690.801 376.563 C 708.290 379.563, 717.175 384.301, 721.247 392.799 C 723.362 397.211, 723.531 399.127, 724 424 L 724.500 450.500 732.421 451.218 C 737.061 451.638, 740.679 452.467, 741.156 453.218 C 742.165 454.808, 742.130 458.032, 741.033 464.500 C 740.049 470.299, 741.322 493.044, 743.606 510.500 C 744.470 517.100, 745.232 528.800, 745.301 536.500 C 745.445 552.689, 744.599 555.608, 737.916 561.965 C 731.460 568.107, 725.744 570.514, 717.828 570.425 C 708.260 570.319, 699.972 566.085, 692.266 557.367 C 689.095 553.779, 686.111 550.153, 685.636 549.308 C 684.654 547.561, 684.654 498.402, 685.636 471.797 L 686.289 454.095 689.394 452.989 C 691.102 452.381, 695.589 451.615, 699.365 451.287 L 706.229 450.691 705.615 446.206 C 705.277 443.739, 705 437.734, 705 432.860 C 705 424.723, 704.840 424, 703.038 424 C 700.098 424, 690.347 420.137, 684.059 416.482 C 674.931 411.176, 674.481 411.185, 672.983 416.726 C 672.273 419.352, 670.589 424.313, 669.240 427.750 C 666.267 435.327, 665.863 435.396, 652.791 430.570 C 647.681 428.684, 638.550 425.304, 632.500 423.060 C 626.450 420.815, 617.815 417.619, 613.310 415.956 C 608.806 414.293, 599.581 410.301, 592.810 407.086 C 579.185 400.616, 564.033 394.736, 555.071 392.440 L 549.215 390.939 546.274 393.879 C 544.657 395.497, 541.439 397.387, 539.124 398.081 L 534.913 399.343 539.316 403.921 C 548.357 413.323, 553.567 423.565, 554.669 434.103 L 555.285 440 545.281 440 L 535.278 440 533.084 434.269 C 526.012 415.788, 506.934 405.038, 490.928 410.515 C 480.667 414.027, 468.139 426.508, 464.600 436.747 L 463.303 440.500 452.651 440.784 L 442 441.068 442 438.215 C 442 429.694, 448.446 416.147, 456.929 406.838 C 460.268 403.174, 463 399.965, 463 399.707 C 463 399.449, 461.013 398.737, 458.585 398.126 C 453.329 396.802, 448.213 392.760, 446.462 388.547 C 445.765 386.871, 444.660 381.225, 444.006 376 L 442.816 366.500 422.372 366.500 C 405.287 366.500, 401.771 366.254, 400.979 365 C 400.445 364.155, 400.024 352.065, 400.015 337.309 C 400.004 317.468, 399.697 310.922, 398.750 310.309 C 398.063 309.864, 366.261 309.603, 328.080 309.729 C 261.088 309.949, 250.885 310.388, 252.485 312.976 C 252.762 313.424, 252.293 314.057, 251.442 314.384 C 250.443 314.767, 250.146 314.573, 250.603 313.834 C 251.022 313.156, 250.868 312.964, 250.224 313.362 C 249.627 313.731, 248.856 313.575, 248.510 313.016 C 248.165 312.457, 247.380 312, 246.767 312 C 246.153 312, 246.695 313.111, 247.971 314.469 C 249.247 315.827, 250.788 316.655, 251.395 316.309 C 252.003 315.963, 252.162 316.052, 251.748 316.509 C 251.334 316.965, 251.784 318.210, 252.748 319.275 C 254.399 321.101, 254.507 329.576, 254.615 466.856 C 254.678 546.960, 254.791 613.354, 254.865 614.397 C 254.991 616.163, 255.638 616.250, 264.250 615.654 C 269.337 615.302, 277.100 614.558, 281.500 614 C 285.900 613.443, 323.003 612.758, 363.951 612.477 C 421.444 612.084, 438.580 611.687, 439.186 610.734 C 440.722 608.315, 439.937 606.916, 435.256 603.729 C 421.996 594.703, 410.933 581.075, 403.865 565.056 C 396.175 547.631, 395.840 545.124, 395.660 503.718 C 395.530 473.818, 395.752 466.779, 396.848 466.098 C 398.893 464.828, 511.753 463.684, 555.726 464.489 C 586.207 465.046, 594.971 465.496, 596.704 466.592 C 598.562 467.767, 598.955 469.047, 599.204 474.743 L 599.500 481.500 607.500 482.167 C 617.657 483.014, 625.504 485.959, 633.324 491.858 C 645.645 501.153, 650.726 517.756, 646.512 534.950 C 641.397 555.822, 621.874 569.383, 599.514 567.596 L 591.500 566.956 587.696 574.392 C 582.989 583.594, 574.780 592.677, 564.134 600.464 C 559.660 603.736, 556 606.684, 556 607.015 C 556 607.347, 556.582 608.413, 557.292 609.385 C 558.846 611.509, 570.482 611.834, 666 612.420 C 719.226 612.746, 728.167 613.014, 732.458 614.413 C 735.789 615.499, 740.466 615.976, 746.708 615.867 C 755.989 615.705, 756 615.702, 756.069 613.102 C 756.511 596.508, 755.922 322.606, 755.433 317.281 C 754.877 311.215, 754.445 309.959, 752.732 309.415 C 751.611 309.059, 741.875 308.915, 731.097 309.095 C 720.319 309.275, 699.350 309.069, 684.500 308.637 C 646.874 307.543, 613.647 307.347, 606.253 308.177 M 428.571 309.262 C 423.111 309.681, 418.611 310.131, 418.571 310.262 C 418.532 310.393, 418.631 318.890, 418.792 329.145 L 419.084 347.789 499.042 347.861 L 579 347.933 579 332.606 C 579 324.176, 579.280 315.238, 579.622 312.744 L 580.243 308.210 509.372 308.355 C 470.392 308.435, 434.032 308.843, 428.571 309.262 M 594.794 353.724 C 594.539 356.351, 593.381 360.637, 592.221 363.250 C 589.750 368.816, 590.676 368.669, 571.533 366.533 C 557.257 364.940, 557.043 365.001, 557.015 370.711 C 557.001 373.659, 557.350 374.011, 561.250 374.997 C 570.975 377.455, 583.667 382.326, 586 384.497 C 587.375 385.776, 592.981 388.492, 598.458 390.531 C 611.551 395.407, 649.612 410.733, 652.880 412.445 C 655.430 413.781, 655.460 413.749, 658.834 406.144 C 660.699 401.940, 663.759 393.683, 665.634 387.796 C 667.508 381.909, 669.552 376.777, 670.175 376.392 C 670.799 376.006, 660.102 371.994, 646.404 367.476 C 622.336 359.536, 613.510 356.354, 604 352.186 C 595.282 348.365, 595.317 348.360, 594.794 353.724 M 462.176 373.117 C 462.938 386.596, 466.586 387.660, 508.935 386.761 C 538.219 386.139, 537 386.698, 537 373.889 L 537 366 499.387 366 L 461.774 366 462.176 373.117 M 679.665 396.145 C 676.413 407.468, 676.212 406.482, 682.357 409.389 C 685.393 410.825, 688.242 412.006, 688.688 412.013 C 689.790 412.030, 700.978 417.737, 702.682 419.151 C 704.920 421.008, 705.483 419.313, 705.831 409.668 L 706.162 400.500 696.831 396.258 C 691.699 393.925, 686.083 391.740, 684.351 391.403 C 681.265 390.803, 681.172 390.896, 679.665 396.145 M 707.140 467.747 L 696.781 468.072 697.444 470.786 C 697.808 472.279, 698.367 488.764, 698.685 507.419 L 699.262 541.339 701.767 543.660 C 703.144 544.936, 705.898 546.433, 707.886 546.985 C 711.889 548.097, 722.229 548.313, 725.790 547.359 C 731.364 545.866, 732.061 538.511, 729.426 509 C 727.563 488.128, 728.190 472.810, 731.024 469.976 C 732.746 468.254, 732.731 468.162, 730.658 467.606 C 729.471 467.288, 726.025 467.116, 723 467.225 C 719.975 467.333, 712.838 467.568, 707.140 467.747 M 415.328 484.281 C 415.062 484.711, 415.162 497.086, 415.551 511.781 C 416.364 542.512, 417.255 547.575, 424.333 561.668 C 430.493 573.933, 436.033 580.334, 450.776 592.223 L 463.421 602.419 497.249 602.516 C 525.201 602.596, 531.279 602.368, 532.245 601.205 C 532.887 600.431, 537.708 596.735, 542.957 592.993 C 557.330 582.745, 563.862 575.247, 571.360 560.391 C 578.416 546.411, 578.968 542.821, 578.985 510.810 L 579 483.121 497.407 483.310 C 452.530 483.415, 415.595 483.852, 415.328 484.281 M 437.384 499.716 L 432.267 500.095 431.642 505.298 C 431.299 508.159, 431.013 518.012, 431.009 527.194 C 431 543.143, 431.102 544.007, 433.283 546.543 C 434.945 548.475, 436.829 549.339, 440.207 549.720 C 444.239 550.174, 445.186 549.905, 447.424 547.667 L 450 545.091 450 524.237 C 450 509.093, 449.658 502.934, 448.750 501.746 C 447.235 499.763, 444.161 499.214, 437.384 499.716 M 599.826 517.753 C 600.076 532.260, 599.799 538.007, 598.638 542.453 L 597.126 548.246 604.313 547.548 C 617.163 546.299, 622.522 542.325, 626.461 531.124 C 629.695 521.930, 627.904 513.800, 621.167 507.092 C 616.437 502.382, 612.733 500.742, 604 499.491 L 599.500 498.846 599.826 517.753 M 488.648 626.210 C 488.993 629.670, 489.691 633.030, 490.199 633.677 C 491.512 635.348, 499.751 638, 503.629 638 C 509.041 638, 516.757 635.979, 519.459 633.853 C 521.570 632.193, 522 631.015, 522 626.896 C 522 623.802, 521.530 621.792, 520.750 621.550 C 520.063 621.337, 512.418 620.883, 503.761 620.542 L 488.022 619.920 488.648 626.210 M 456 623.196 C 450.225 623.633, 444.961 624.194, 444.302 624.443 C 442.425 625.155, 440.161 630.265, 439.815 634.574 L 439.500 638.500 450.355 638.785 C 461.977 639.090, 463.369 638.646, 465.241 634.041 C 466.601 630.696, 467.856 623, 467.097 622.666 C 466.769 622.522, 461.775 622.760, 456 623.196 M 549.699 624.745 L 540.898 625.079 541.199 630.265 C 541.590 637.007, 543.388 637.966, 555.683 637.985 C 565.692 638.001, 565.069 638.388, 566.500 631.272 C 567.588 625.865, 566.429 623.969, 562.183 624.206 C 560.157 624.319, 554.540 624.562, 549.699 624.745 M 315.778 632.750 C 316.030 637.013, 316.366 640.646, 316.526 640.825 C 316.685 641.003, 321.070 641.403, 326.269 641.713 C 334.886 642.227, 335.904 642.096, 337.772 640.228 C 339.898 638.102, 342.608 627.793, 341.509 626.014 C 341.138 625.414, 335.664 625, 328.101 625 L 315.321 625 315.778 632.750 M 356.999 629.691 C 356.999 631.996, 357.452 634.161, 358.005 634.503 C 358.558 634.845, 362.830 635.518, 367.500 636 C 372.170 636.482, 376.391 637.124, 376.881 637.427 C 377.694 637.929, 379.602 627.255, 378.832 626.509 C 378.650 626.332, 373.662 626.032, 367.749 625.843 L 356.998 625.500 356.999 629.691 M 396.568 631.250 C 396.188 634.688, 395.631 638.513, 395.330 639.750 C 394.800 641.930, 395.011 641.999, 402.142 641.978 C 412.398 641.947, 417.134 639.686, 420.267 633.323 C 424.214 625.308, 423.818 625, 409.556 625 L 397.258 625 396.568 631.250 M 583 626.996 C 583 630.123, 586.580 636.522, 589.722 639.012 C 592.199 640.975, 593.204 641.137, 599 640.509 C 602.575 640.122, 608.650 639.511, 612.500 639.153 L 619.500 638.500 619.500 633.544 C 619.500 628.619, 619.475 628.581, 615.500 627.443 C 613.300 626.813, 605.087 625.986, 597.250 625.605 C 583.254 624.924, 583 624.949, 583 626.996 M 649.549 628.345 C 651.002 635.220, 657.025 639, 666.530 639 L 673.159 639 672.614 636.250 C 672.314 634.737, 671.778 631.813, 671.423 629.750 C 671.068 627.688, 670.265 625.936, 669.639 625.858 C 669.012 625.780, 664.086 625.598, 658.691 625.453 L 648.883 625.190 649.549 628.345 M 688 628.809 C 688 629.804, 688.563 631.364, 689.250 632.276 C 690.563 634.018, 698.989 636.532, 707.136 637.612 C 711.674 638.214, 712.012 638.099, 712.952 635.626 C 713.564 634.017, 713.604 632.088, 713.055 630.644 C 711.981 627.821, 708.308 627.027, 696.250 627.011 C 688.953 627.001, 688 627.209, 688 628.809 M 290 629 C 291.375 629.440, 293.400 629.839, 294.500 629.885 C 296.148 629.955, 296.236 629.799, 295 629 C 294.175 628.467, 292.150 628.069, 290.500 628.115 C 287.560 628.198, 287.550 628.215, 290 629 M 636 629.904 C 633.540 630.598, 633.556 630.631, 637 631.940 C 643.169 634.285, 644 634.232, 644 631.494 C 644 629.416, 643.541 629.017, 641.250 629.100 C 639.737 629.155, 637.375 629.517, 636 629.904 M 375.871 650.802 C 375.667 651.367, 370.100 652.274, 363.500 652.818 C 351.648 653.795, 340.005 653.701, 267.500 652.047 C 247.150 651.583, 230.438 651.270, 230.363 651.351 C 230.288 651.433, 230.041 672.966, 229.815 699.202 L 229.405 746.905 254.452 747.212 C 268.229 747.380, 392.906 747.639, 531.513 747.786 L 783.525 748.053 783.190 700.776 L 782.855 653.500 780.177 652.727 C 778.705 652.302, 775.961 652.224, 774.081 652.554 C 768.250 653.577, 604.756 653.891, 581.500 652.923 C 569.400 652.420, 535.650 652.079, 506.500 652.165 C 399.554 652.481, 377.793 652.284, 376.993 650.989 C 376.528 650.236, 376.101 650.165, 375.871 650.802 M 232.813 786.669 C 232.568 799.385, 232.806 803.867, 233.783 805 C 234.814 806.195, 237.191 806.437, 245.461 806.189 C 255.628 805.884, 255.854 805.926, 256.286 808.189 L 256.728 810.500 256.864 808.137 L 257 805.774 269.236 806.415 C 275.966 806.767, 288.229 807.012, 296.486 806.960 C 304.744 806.907, 316.184 806.926, 321.908 807.002 L 332.317 807.140 331.658 793.412 C 331.296 785.861, 331 777.697, 331 775.270 L 331 770.856 283.750 771.070 C 257.762 771.188, 235.743 770.959, 234.818 770.561 C 233.288 769.903, 233.108 771.350, 232.813 786.669 M 722.500 771.073 C 703.800 771.487, 685.963 771.588, 682.862 771.297 L 677.223 770.767 676.644 776.633 C 676.326 779.860, 675.938 787.900, 675.782 794.500 L 675.500 806.500 681 806.693 C 694.994 807.185, 773.323 806.957, 775.468 806.419 L 777.882 805.813 777.324 791.656 C 777.017 783.870, 776.462 775.925, 776.090 774 L 775.415 770.500 765.957 770.410 C 760.756 770.360, 741.200 770.659, 722.500 771.073" stroke="none" fill="#000000" fill-rule="evenodd"/>
</svg>