<svg xmlns="http://www.w3.org/2000/svg" width="1024" height="1024" viewBox="0 0 1024 1024" version="1.1">
	<path d="M 255.500 225.185 C 240.967 239.725, 213.322 265.103, 202.342 273.983 L 194.327 280.466 193.680 385.851 C 193.324 443.813, 193.363 491.820, 193.766 492.535 C 194.170 493.249, 205.527 505.008, 219.005 518.667 C 232.482 532.325, 248.177 548.675, 253.882 555 C 259.587 561.325, 265.147 567.288, 266.238 568.250 C 268.021 569.823, 270.861 569.997, 294.361 569.969 C 310.515 569.950, 324.893 569.400, 332 568.531 C 371.442 563.705, 393.007 560.609, 411.514 557.113 C 440.676 551.606, 531.217 536.956, 543.065 535.827 L 546.500 535.500 546.654 506.500 C 546.739 490.550, 547.326 472.869, 547.959 467.210 C 548.591 461.550, 548.829 456.038, 548.487 454.960 C 547.901 453.113, 548.382 453, 556.851 453 L 565.837 453 565.404 489.750 C 564.902 532.392, 564.462 545.818, 563.487 548.250 C 562.895 549.728, 563.362 550, 566.500 550 C 569.642 550, 570.104 550.269, 569.500 551.750 C 568.674 553.774, 567.373 600.392, 566.087 674 C 565.260 721.366, 565.022 726.102, 563.118 733 C 560.772 741.497, 560.463 747.125, 562.166 750.316 C 562.807 751.517, 567.348 757.225, 572.256 763 C 578.926 770.848, 582.306 775.900, 585.637 783 C 594.144 801.132, 596.514 805.393, 599.163 807.322 C 605.004 811.574, 609.192 806.988, 612.645 792.559 C 613.426 789.291, 615.333 784.116, 616.881 781.059 C 618.430 778.001, 620.275 773.736, 620.982 771.579 C 621.689 769.423, 623.895 765.973, 625.884 763.913 C 638.551 750.794, 639.507 748.513, 636.557 738.432 C 635.764 735.719, 634.182 721.800, 633.042 707.500 C 629.246 659.873, 628.239 619.922, 629.652 573 L 630.300 551.500 635.900 551.500 L 641.500 551.500 641.200 524.500 C 641.035 509.650, 641.196 487.976, 641.558 476.335 L 642.216 455.171 649.408 455.714 C 661.286 456.613, 666.503 451.989, 665.801 441.184 C 665.561 437.490, 665.026 436.312, 663.166 435.390 C 660.007 433.823, 587.470 432.527, 557.126 433.496 L 534 434.234 534 445.117 L 534 456 531.250 456.147 C 529.737 456.228, 481.250 456.186, 423.500 456.053 L 318.500 455.812 314.201 453.335 C 311.836 451.973, 307.521 448.477, 304.611 445.567 L 299.320 440.276 298.665 430.388 C 298.305 424.950, 298.008 402.200, 298.005 379.833 C 298 342.119, 298.138 338.845, 299.897 334.741 C 302.210 329.345, 307.668 324.673, 315 321.815 L 320.500 319.671 434.064 319.930 L 547.628 320.188 547.826 290.344 C 547.935 273.930, 547.743 255.923, 547.398 250.330 C 546.794 240.515, 546.684 240.137, 544.249 239.526 C 540.229 238.518, 508.102 233.319, 488.901 230.571 C 479.222 229.186, 467.297 227.110, 462.401 225.959 C 457.505 224.808, 446.075 222.340, 437 220.475 C 427.925 218.611, 417.350 216.371, 413.500 215.498 C 407.566 214.153, 395.917 213.856, 337 213.545 L 267.500 213.179 255.500 225.185 M 586.750 216.749 L 566 217.041 566 270.277 L 566 323.514 602 323.507 L 637.999 323.500 638.704 320 C 639.092 318.075, 639.430 295.105, 639.455 268.957 C 639.496 225.080, 639.363 221.204, 637.727 218.707 L 635.954 216 621.727 216.229 C 613.902 216.354, 598.163 216.588, 586.750 216.749 M 593.411 257.891 C 586.212 262.281, 584.102 269.199, 587.670 276.717 C 589.959 281.541, 594.319 283.992, 600.621 283.996 C 605.156 284, 606.245 283.555, 610.121 280.114 C 614.380 276.335, 614.500 276.063, 614.500 270.195 C 614.500 265.148, 614.091 263.718, 612 261.452 C 606.986 256.018, 598.993 254.487, 593.411 257.891 M 249.921 269.250 C 247.591 271.038, 244.755 273.756, 243.617 275.292 L 241.547 278.083 243.976 282.661 C 250.161 294.319, 264.338 296.027, 270.416 285.846 C 273.699 280.345, 271.728 273.183, 265.657 268.552 C 260.773 264.827, 255.372 265.066, 249.921 269.250 M 751.750 270.975 L 749 273.145 749 291.573 L 749 310 759.500 310 L 770 310 770 292.111 C 770 270.488, 769.752 269.896, 760.399 269.227 C 755.462 268.873, 754.052 269.159, 751.750 270.975 M 306.962 290.359 C 297.820 292.825, 281.819 303.063, 277 309.530 C 275.625 311.375, 273.150 314.563, 271.500 316.614 L 268.500 320.344 268.500 382.070 L 268.500 443.796 272.560 451.648 C 276.211 458.707, 277.642 460.323, 286.734 467.650 C 302.762 480.565, 301.715 480.320, 344 481.069 C 416.330 482.349, 532.800 480.600, 535.202 478.198 C 535.605 477.795, 535.685 476.512, 535.380 475.346 L 534.826 473.226 451.663 472.526 C 405.923 472.140, 356.800 471.752, 342.500 471.663 C 324.705 471.551, 315.173 471.097, 312.294 470.223 C 306.957 468.603, 294.386 460.228, 288.588 454.430 C 281.284 447.127, 280.160 442.678, 279.581 418.810 C 278.558 376.616, 278.794 333.257, 280.060 330.825 C 282.250 326.617, 291.812 315.472, 296.942 311.146 C 304.813 304.509, 311.961 301.677, 322 301.218 C 326.675 301.004, 358.175 301.256, 392 301.778 C 450.755 302.685, 522.226 302.014, 530.300 300.480 L 534.100 299.759 533.800 295.129 L 533.500 290.500 523.500 289.867 C 518 289.520, 468.050 289.212, 412.500 289.185 C 335.849 289.147, 310.406 289.430, 306.962 290.359 M 736.182 311.883 L 722.865 312.500 722.682 356.750 L 722.500 401 735.694 401 L 748.888 401 749.203 462.250 C 749.377 495.938, 749.740 524.079, 750.010 524.787 C 750.327 525.620, 748.676 526.703, 745.330 527.856 C 734.922 531.444, 724.359 542.004, 721.180 552 C 717.440 563.757, 717.813 574.204, 722.322 584 C 725.304 590.478, 736.244 601.059, 743.500 604.484 C 756.135 610.447, 772.620 608.453, 782.847 599.724 C 797.703 587.043, 802.806 572.619, 798.423 555.704 C 796.134 546.869, 793.442 542.224, 786.900 535.823 C 782.693 531.706, 779.420 529.531, 775.016 527.926 C 771.673 526.707, 768.658 525.255, 768.315 524.700 C 767.972 524.145, 768.146 523.972, 768.703 524.316 C 770.008 525.123, 771.461 434.934, 770.467 414.867 L 769.755 400.500 785.069 400.500 L 800.383 400.500 800.650 356.250 L 800.916 312 790.117 312 C 784.178 312, 772.609 311.835, 764.409 311.633 C 756.209 311.431, 743.507 311.544, 736.182 311.883 M 326.997 327.461 C 326.995 328.032, 326.913 347.400, 326.815 370.500 L 326.637 412.500 336.069 412.500 C 341.256 412.500, 346.296 412.173, 347.269 411.774 C 348.923 411.095, 349.034 408.301, 348.975 368.774 L 348.913 326.500 337.957 326.461 C 331.020 326.436, 326.999 326.803, 326.997 327.461 M 436.101 335.122 C 433.116 338.326, 432.842 341.099, 433.189 364.647 C 433.470 383.785, 433.681 385.995, 435.405 387.897 C 437.731 390.464, 440.163 390.583, 442.290 388.232 C 443.650 386.729, 443.917 382.900, 444.073 362.642 C 444.243 340.468, 444.122 338.640, 442.317 336.223 C 439.691 332.706, 438.542 332.502, 436.101 335.122 M 668.588 335.321 C 665.431 338.478, 664.651 345.861, 665.155 367.817 C 665.474 381.729, 665.845 385.114, 667.293 387.325 C 669.354 390.469, 672.925 390.845, 675.345 388.171 C 676.787 386.578, 677 383.290, 677 362.606 C 677 338.318, 676.668 335.963, 672.970 333.984 C 671.361 333.123, 670.534 333.375, 668.588 335.321 M 687.873 334.902 C 685.847 336.542, 685.431 338.021, 684.849 345.652 C 684.478 350.518, 684.135 361.397, 684.087 369.827 L 684 385.154 687.005 388.159 C 690.365 391.518, 691.601 391.480, 694.092 387.937 C 695.551 385.862, 695.889 381.957, 696.365 361.666 L 696.924 337.833 694.507 335.416 C 691.594 332.503, 690.902 332.449, 687.873 334.902 M 707.947 334.843 C 704.801 337.392, 704.050 342.881, 704.025 363.500 C 704.006 379.618, 704.268 383.031, 705.752 386 C 707.781 390.062, 710.710 390.899, 713.786 388.297 C 715.831 386.567, 715.919 385.600, 716.134 362.500 C 716.287 345.964, 716 337.839, 715.210 336.375 C 713.660 333.502, 710.440 332.823, 707.947 334.843 M 378.405 336.103 C 376.665 338.024, 376.477 340.207, 376.237 361.353 C 375.950 386.658, 376.397 389.249, 381.147 389.804 C 386.726 390.457, 387 389.174, 387 362.429 C 387 339.333, 386.891 337.891, 385 336 C 382.448 333.448, 380.787 333.474, 378.405 336.103 M 397.171 336.510 C 395.593 338.516, 395.053 341.306, 394.486 350.383 C 393.375 368.160, 394.145 384.046, 396.274 387.295 C 398.715 391.021, 403.631 391.100, 405.025 387.435 C 405.561 386.024, 406 374.169, 406 361.090 C 406 339.322, 405.845 337.170, 404.171 335.655 C 401.604 333.331, 399.466 333.593, 397.171 336.510 M 416.861 335.910 C 414.522 337.802, 414.497 338.035, 414.195 360.624 C 414.028 373.166, 414.147 384.451, 414.461 385.701 C 414.775 386.952, 416.180 388.727, 417.584 389.647 C 420.045 391.260, 420.228 391.226, 422.754 388.701 L 425.372 386.083 425.115 362.291 C 424.871 339.677, 424.754 338.389, 422.755 336.250 C 420.199 333.516, 419.845 333.495, 416.861 335.910 M 454.273 336.705 C 452.747 339.032, 452.451 342.388, 452.150 360.756 C 451.773 383.738, 452.267 386.889, 456.556 388.843 C 459.816 390.329, 461.649 389.446, 462.930 385.771 C 464.427 381.476, 464.359 340.551, 462.850 337.684 C 460.475 333.173, 456.859 332.760, 454.273 336.705 M 474.452 336.053 C 473.376 337.242, 472.294 340.504, 471.881 343.803 C 470.907 351.591, 470.937 377.388, 471.926 383.416 C 473.096 390.544, 477.033 392.967, 481 389 C 482.890 387.110, 483 385.667, 483 362.674 C 483 338.540, 482.982 338.332, 480.686 336.174 C 477.813 333.476, 476.802 333.456, 474.452 336.053 M 493.488 335.655 C 490.435 338.708, 490 342.033, 490.002 362.315 C 490.003 379.529, 490.260 383.015, 491.752 386 C 493.161 388.822, 494.075 389.500, 496.470 389.500 C 501.507 389.500, 501.969 387.185, 501.985 361.885 C 501.999 340.508, 501.887 339.125, 499.927 336.635 C 497.532 333.589, 495.815 333.328, 493.488 335.655 M 512.924 336.578 C 510.524 339.131, 510.497 339.384, 510.197 362.173 C 509.943 381.485, 510.140 385.564, 511.420 387.519 C 513.562 390.787, 516.708 391.575, 519.072 389.435 C 520.879 387.800, 521 386.108, 521 362.500 C 521 339.366, 520.851 337.175, 519.171 335.655 C 516.701 333.420, 515.764 333.558, 512.924 336.578 M 531.405 336.105 C 529.644 338.051, 529.500 340.009, 529.500 362 C 529.500 384.174, 529.632 385.936, 531.448 387.942 C 533.997 390.759, 538.049 390.316, 539.672 387.044 C 540.512 385.349, 540.912 377.699, 540.961 362.389 L 541.031 340.190 538.426 337.095 C 535.359 333.450, 533.983 333.256, 531.405 336.105 M 551.764 335.112 C 548.812 336.764, 548.011 342.981, 548.006 364.295 C 548 385.045, 548.005 385.096, 550.455 387.545 C 553.504 390.595, 556.411 390.680, 558.443 387.777 C 560.748 384.487, 560.753 341.520, 558.449 338.230 C 556.278 335.131, 553.797 333.974, 551.764 335.112 M 648.128 336.364 C 646.010 338.618, 645.881 339.762, 645.340 361.114 C 644.956 376.309, 645.126 384.392, 645.872 386.277 C 647.923 391.460, 654.055 391.615, 655.988 386.533 C 656.478 385.243, 656.976 373.795, 657.094 361.093 C 657.290 340.033, 657.150 337.823, 655.500 336 C 653.113 333.362, 650.843 333.474, 648.128 336.364 M 358.156 336.750 C 357.653 337.712, 357.039 349.441, 356.792 362.814 C 356.356 386.454, 356.400 387.167, 358.394 388.564 C 361.309 390.605, 363.645 390.345, 365.443 387.777 C 366.746 385.918, 367 381.694, 367 361.932 C 367 340.317, 366.845 338.169, 365.171 336.655 C 362.784 334.495, 359.310 334.542, 358.156 336.750 M 630 337.061 C 629.027 337.729, 617.779 337.987, 598 337.796 L 567.500 337.500 567.237 369 L 566.975 400.500 585.737 400.352 C 609.782 400.163, 631.536 398.804, 631.381 397.500 C 631.315 396.950, 630.989 395.038, 630.656 393.250 C 630.145 390.509, 630.348 390, 631.954 390 C 636.323 390, 636.561 388.600, 636.398 363.824 C 636.313 350.909, 635.933 339.366, 635.554 338.171 C 634.818 335.852, 632.449 335.379, 630 337.061 M 585.014 416 C 585.035 429.501, 583.829 428.497, 600.053 428.517 L 614 428.534 614 418.017 L 614 407.500 599.500 407.500 L 585 407.500 585.014 416 M 255.839 476.019 C 249.765 479.155, 246.991 482.301, 245.066 488.235 C 243.986 491.565, 244.098 492.403, 246.104 495.971 C 248.526 500.280, 253.832 504.466, 258.234 505.541 C 261.934 506.445, 268.845 502.335, 272.902 496.818 C 276.918 491.357, 277.095 485.893, 273.432 480.495 C 267.824 472.232, 264.709 471.439, 255.839 476.019 M 594.328 479.938 C 589.949 481.926, 587.778 484.471, 585.925 489.784 C 584.312 494.411, 587.784 501.339, 593.066 504.033 C 601.270 508.219, 609.511 505.417, 613.772 496.992 C 616.334 491.927, 616.053 488.341, 612.727 483.637 C 608.831 478.126, 601.544 476.662, 594.328 479.938 M 523 506.044 C 517.225 507.078, 507.550 508.614, 501.500 509.458 C 495.450 510.302, 483.300 512.344, 474.500 513.996 C 465.700 515.648, 453.325 517.857, 447 518.906 C 436.281 520.682, 427.451 522.252, 393 528.504 C 385.575 529.851, 365.550 533.017, 348.500 535.540 C 331.450 538.062, 314.800 540.660, 311.500 541.313 C 305.720 542.456, 305.466 542.637, 304.576 546.242 C 304.067 548.300, 303.920 550.254, 304.250 550.583 C 305.151 551.484, 330.632 549.271, 346.500 546.913 C 354.200 545.769, 366.575 544.007, 374 542.997 C 387.824 541.116, 403.766 538.191, 428.500 532.998 C 436.200 531.382, 449.056 529.157, 457.069 528.054 C 465.081 526.951, 475.656 525.152, 480.569 524.057 C 493.232 521.233, 536.167 512.991, 538.191 512.996 C 540.797 513.002, 541.202 511.418, 539.583 507.544 C 537.843 503.381, 537.863 503.382, 523 506.044 M 743.814 549.902 C 738.241 553.438, 736.003 556.562, 735.302 561.782 C 734.845 565.196, 735.152 565.950, 737.969 568.321 C 742.193 571.874, 744.998 571.695, 747.566 567.708 C 748.702 565.943, 751.121 562.404, 752.942 559.843 L 756.254 555.186 754.377 551.343 C 751.989 546.454, 749.733 546.146, 743.814 549.902 M 593.646 557.452 C 592.191 558.801, 591 560.406, 591 561.018 C 591 565.345, 596.827 568.484, 602.069 566.980 C 608.334 565.183, 609.550 562.240, 605.927 557.635 C 603.118 554.063, 597.395 553.978, 593.646 557.452 M 595.339 579.935 C 590.756 582.730, 590.082 585.814, 593.428 588.691 C 596.626 591.443, 601.060 591.668, 605.096 589.284 C 608.909 587.032, 608.847 583.891, 604.923 580.589 C 601.249 577.497, 599.529 577.380, 595.339 579.935 M 595.781 602.052 C 593.735 603.132, 591.537 604.996, 590.896 606.195 C 589.879 608.094, 590.099 608.672, 592.615 610.708 C 597.946 615.022, 603.676 614.950, 606.570 610.533 C 608.660 607.343, 607.654 604.370, 603.661 601.935 C 599.880 599.629, 600.384 599.622, 595.781 602.052 M 593.898 626.284 C 589.374 629.326, 589.091 632.013, 593.058 634.250 C 597.079 636.517, 602.860 636.448, 605.920 634.095 C 608.165 632.370, 608.245 632.006, 607.033 629.079 C 604.733 623.528, 599.617 622.439, 593.898 626.284 M 596.686 647.017 C 590.583 648.849, 589.532 651.622, 593.455 655.545 C 596.668 658.759, 601.913 658.839, 605.528 655.730 C 607.908 653.682, 608.047 653.198, 606.945 650.780 C 606.272 649.302, 604.374 647.629, 602.713 647.050 C 601.057 646.472, 599.656 646.039, 599.601 646.086 C 599.545 646.133, 598.234 646.552, 596.686 647.017 M 594.077 670.589 C 590.271 673.792, 590.241 674.899, 593.871 678.376 C 597.679 682.025, 602.273 682.181, 605.675 678.779 C 607.895 676.560, 608.055 675.960, 606.985 673.875 C 605.319 670.628, 601.943 668.049, 599.327 668.022 C 598.131 668.010, 595.769 669.165, 594.077 670.589 M 593.113 693.558 C 590.534 695.729, 590.165 696.600, 590.679 699.308 C 591.013 701.064, 591.873 703.671, 592.592 705.101 C 593.607 707.123, 593.630 707.969, 592.699 708.900 C 591.931 709.668, 591.374 714.759, 591.149 723.071 C 590.746 737.972, 591.527 740.223, 597.691 741.925 C 600.726 742.763, 601.957 742.626, 604.451 741.172 C 608.468 738.831, 609.029 734.619, 608.265 712.543 C 607.713 696.599, 607.541 695.450, 605.384 693.293 C 602.218 690.127, 597.058 690.238, 593.113 693.558" stroke="none" fill="#000000" fill-rule="evenodd"/>
</svg>