<svg xmlns="http://www.w3.org/2000/svg" width="1024" height="1024" viewBox="0 0 1024 1024" version="1.1">
	<path d="M 222.615 171.519 C 212.523 174.081, 204.837 180.906, 199.603 191.953 L 196.500 198.500 196.500 499 L 196.500 799.500 198.783 805.147 C 201.834 812.691, 207.518 818.922, 214.644 822.533 L 220.500 825.500 267.500 826.138 C 293.350 826.489, 329.575 827.073, 348 827.436 C 366.425 827.799, 383.528 827.703, 386.007 827.223 C 389.018 826.639, 394.605 826.844, 402.844 827.842 C 412.910 829.060, 415.323 829.096, 415.977 828.037 C 416.524 827.152, 417.844 826.955, 420.139 827.418 C 421.988 827.790, 425.075 828.270, 427 828.484 L 430.500 828.874 427 828.069 C 424.637 827.525, 427.562 827.281, 436 827.318 C 447.970 827.370, 448.139 827.399, 440 828 L 431.500 828.627 444 828.964 C 453.327 829.215, 455.358 829.478, 452 830 C 447.723 830.665, 447.673 830.709, 451 830.885 C 453.602 831.023, 563.977 831.060, 615.919 830.940 C 618.350 830.935, 620.648 831.430, 621.026 832.042 C 621.529 832.857, 622.850 832.848, 625.962 832.010 C 628.298 831.381, 630.883 831.125, 631.706 831.441 C 632.529 831.757, 638.557 832.041, 645.101 832.073 C 651.766 832.106, 657 832.543, 657 833.066 C 657 833.580, 658.575 834, 660.500 834 C 662.425 834, 664 833.663, 664 833.250 C 664 832.418, 666.090 832.309, 686.826 832.056 C 697.140 831.930, 701.580 832.236, 702.679 833.148 C 703.762 834.047, 707.662 834.345, 716.103 834.174 C 723.780 834.019, 728 834.300, 728 834.967 C 728 835.535, 729.964 836, 732.364 836 C 738.201 836, 747.418 837.799, 747.833 839.020 C 748.272 840.309, 752 840.292, 752 839 C 752 838.450, 752.900 838, 754 838 C 755.100 838, 756 838.450, 756 839 C 756 839.550, 756.900 840, 758 840 C 759.100 840, 760 839.550, 760 839 C 760 838.375, 766 838, 776 838 C 791.799 838, 792 837.972, 792 835.809 C 792 833.733, 792.071 833.714, 793.339 835.449 C 794.604 837.179, 794.716 837.183, 795.351 835.527 C 795.786 834.394, 796.711 833.953, 797.964 834.280 C 799.031 834.559, 800.038 834.388, 800.202 833.899 C 800.366 833.410, 803.632 832.769, 807.459 832.476 C 811.287 832.182, 814.662 831.617, 814.959 831.221 C 815.257 830.824, 816.063 830.455, 816.750 830.400 C 819.405 830.188, 819.782 829.941, 820.262 828.106 C 820.554 826.989, 822.028 825.933, 823.854 825.532 C 825.557 825.158, 826.849 824.323, 826.725 823.676 C 826.601 823.029, 827.071 822.615, 827.769 822.756 C 828.466 822.897, 829.551 821.885, 830.179 820.506 C 830.807 819.128, 831.972 818, 832.768 818 C 833.630 818, 833.986 817.406, 833.649 816.527 C 833.327 815.689, 833.971 814.433, 835.146 813.610 C 836.825 812.434, 837.196 811.133, 837.143 806.623 C 837.106 803.530, 837.730 799.848, 838.555 798.291 C 839.805 795.932, 839.947 790.717, 839.469 764.577 C 839.158 747.569, 838.715 733.349, 838.485 732.976 C 837.986 732.169, 837.091 722.094, 836.354 709 C 835.332 690.848, 834.211 550.271, 834.778 511.500 C 835.092 490.050, 835.369 470.475, 835.394 468 C 835.419 465.525, 834.884 454.500, 834.205 443.500 C 833.253 428.062, 833.235 419.622, 834.125 406.500 C 834.759 397.150, 835.337 380.050, 835.410 368.500 C 835.504 353.685, 835.914 346.840, 836.803 345.258 C 837.729 343.609, 838.165 333.541, 838.449 307.258 C 838.662 287.591, 839.158 270.682, 839.551 269.683 C 839.944 268.683, 839.680 266.770, 838.964 265.433 C 837.882 263.411, 837.902 262.553, 839.081 260.352 C 840.070 258.508, 840.489 254.337, 840.464 246.602 C 840.415 231.171, 839.201 223.597, 835.878 218 C 833.411 213.844, 831.935 205.790, 833.325 204.070 C 834.240 202.938, 834.223 202.782, 833.250 203.367 C 832.562 203.780, 832 203.641, 832 203.059 C 832 202.477, 832.528 202, 833.174 202 C 833.820 202, 833.292 200.875, 832 199.500 C 829.624 196.971, 826.852 195.896, 828.777 198.250 C 829.492 199.124, 829.379 199.888, 828.400 200.789 C 827.219 201.877, 827 201.471, 827 198.194 C 827 195.389, 825.938 192.670, 823.177 188.405 C 816.826 178.595, 810.377 174.031, 798.820 171.167 C 792.388 169.572, 228.926 169.917, 222.615 171.519 M 246.500 204.805 C 242.675 205.389, 236.509 210.512, 234.245 214.987 L 231.990 219.445 232.245 500.546 L 232.500 781.647 234.910 785.163 C 236.235 787.098, 238.749 789.660, 240.496 790.857 L 243.673 793.034 511.865 792.613 C 753.867 792.234, 780.291 792.039, 782.462 790.617 C 783.784 789.750, 786.134 787.379, 787.683 785.348 L 790.500 781.656 790.775 501.078 C 791.084 186.445, 791.792 215.241, 783.583 208.514 L 779.331 205.031 513.916 204.765 C 367.937 204.619, 247.600 204.637, 246.500 204.805 M 464.500 246.975 C 373.839 247.542, 377.539 247.313, 372.876 252.648 C 368.706 257.418, 368.823 252.422, 368.955 421.281 C 369.070 567.607, 369.238 583.699, 370.682 586.742 C 372.499 590.571, 377.782 595, 380.533 595 C 383.116 595, 388.281 591.264, 390.821 587.557 L 392.961 584.433 392.987 429.110 C 393.002 343.683, 393.254 273.398, 393.549 272.921 C 393.843 272.444, 395.753 271.607, 397.792 271.061 C 401.960 269.944, 626.731 269.398, 627.836 270.502 C 628.201 270.867, 628.725 342.489, 629 429.660 L 629.500 588.154 633.235 591.577 C 637.966 595.912, 642.451 596.175, 646.959 592.381 C 653.464 586.907, 653.002 599.968, 652.978 422.300 C 652.957 265.513, 652.897 260.370, 651.057 256.316 C 649.862 253.685, 647.579 251.087, 644.903 249.316 L 640.648 246.500 594.574 246.475 C 569.233 246.461, 510.700 246.686, 464.500 246.975 M 422 298.452 L 422 313.904 426.350 316.897 C 430.601 319.821, 430.715 320.046, 431.343 326.695 C 432.408 337.974, 432.083 353.278, 430.721 355.970 C 430.033 357.328, 428.128 359.128, 426.486 359.970 C 424.843 360.811, 423.169 361.950, 422.765 362.500 C 422.361 363.050, 422.024 394.751, 422.015 432.946 L 422 502.392 426.708 506.535 L 431.416 510.678 431.827 526.800 C 432.360 547.759, 432.072 549.166, 426.458 553.029 L 422 556.096 422 572.393 C 422 594.318, 422.113 594.405, 444.287 589.540 C 460.707 585.938, 486.007 580.764, 515.500 574.978 C 553.539 567.514, 590.338 559.139, 596.618 556.515 L 600.295 554.979 599.653 546.739 C 599.301 542.208, 599.009 488.022, 599.006 426.328 L 599 314.155 595.750 313.095 C 592.084 311.900, 556.723 305.013, 541.500 302.530 C 536 301.633, 528.575 300.222, 525 299.394 C 516.367 297.395, 481.997 291.465, 464.500 288.957 C 456.800 287.853, 445.865 286.061, 440.199 284.975 C 434.534 283.889, 428.121 283, 425.949 283 L 422 283 422 298.452 M 406.579 321.871 C 406.283 322.351, 405.748 328.988, 405.390 336.621 C 404.783 349.566, 404.870 350.617, 406.685 352.238 C 410.002 355.200, 414.154 355.453, 417.412 352.891 L 420.292 350.625 419.647 337.166 C 419.287 329.667, 418.504 323.107, 417.878 322.353 C 416.631 320.850, 407.453 320.459, 406.579 321.871 M 507.729 340.933 C 503.300 344.821, 502.292 348.705, 504.501 353.360 C 505.402 355.260, 511.952 362.113, 519.055 368.588 C 526.159 375.064, 531.865 380.439, 531.735 380.532 C 531.606 380.625, 516.425 380.377, 498 379.982 C 459.883 379.164, 460.162 379.119, 456.883 386.531 C 454.070 392.890, 455.704 398.187, 461.695 402.137 C 464.282 403.843, 467.086 403.987, 497.750 403.993 C 516.038 403.997, 531 404.351, 531 404.780 C 531 405.208, 525.145 411.268, 517.988 418.246 C 510.832 425.223, 504.532 432.102, 503.988 433.531 C 500.080 443.810, 509.844 453.052, 520.379 449.046 C 522.961 448.064, 567.123 403.866, 570.243 399.140 C 572.415 395.851, 572.461 392.773, 570.401 388.433 C 569.521 386.579, 558.595 374.622, 546.119 361.861 L 523.437 338.659 517.377 338.221 C 511.714 337.811, 511.082 337.989, 507.729 340.933 M 571.253 427.250 C 562.925 433.071, 563.380 445.042, 572.100 449.552 C 576.351 451.750, 582.544 450.609, 586.198 446.956 C 588.539 444.615, 589 443.309, 589 439.027 C 589 427.198, 579.934 421.182, 571.253 427.250 M 827.349 456 C 827.349 460.675, 827.522 462.587, 827.732 460.250 C 827.943 457.913, 827.943 454.087, 827.732 451.750 C 827.522 449.413, 827.349 451.325, 827.349 456 M 405.607 510.582 C 405.273 511.452, 405 519.575, 405 528.633 L 405 545.102 408.508 546.568 C 412.774 548.350, 416.588 547.558, 418.612 544.470 C 419.859 542.566, 419.991 539.657, 419.404 527.044 C 418.764 513.298, 418.508 511.769, 416.627 510.451 C 413.759 508.442, 406.395 508.529, 405.607 510.582 M 827.374 581.500 C 827.376 587.550, 827.541 589.896, 827.740 586.713 C 827.939 583.531, 827.937 578.581, 827.736 575.713 C 827.535 572.846, 827.372 575.450, 827.374 581.500 M 547.661 649.750 C 546.813 674.005, 546.912 734.360, 547.808 739.384 L 548.500 743.267 561.385 743.267 L 574.271 743.267 573.885 705.383 C 573.673 684.548, 573.517 659.567, 573.538 649.870 L 573.576 632.241 567.641 631.620 C 564.377 631.279, 558.694 631, 555.011 631 L 548.316 631 547.661 649.750 M 387.383 632.748 L 368.266 633.042 367.529 678.380 C 367.124 703.316, 367.114 728.009, 367.507 733.255 L 368.222 742.791 403.361 743.197 C 422.687 743.420, 438.725 743.430, 439 743.219 C 439.275 743.008, 439.500 737.810, 439.500 731.668 L 439.500 720.500 415.148 720.500 L 390.797 720.500 391.398 716.110 C 391.729 713.696, 392 708.828, 392 705.292 L 392 698.863 412.250 699.088 L 432.500 699.314 432.783 689.304 L 433.067 679.295 426.283 678.655 C 422.553 678.302, 413.313 678.011, 405.750 678.007 L 392 678 392 667 L 392 656 414.500 656 C 426.875 656, 437.337 656.112, 437.750 656.250 C 438.468 656.489, 439.829 634.298, 439.191 632.750 C 438.899 632.040, 433.414 632.040, 387.383 632.748 M 445 632.550 C 445 634.337, 470.618 677.336, 475.108 683.086 L 477.908 686.671 475.636 690.086 C 474.387 691.964, 471.627 696.650, 469.503 700.500 C 467.379 704.350, 462.165 712.675, 457.917 719 C 449.103 732.123, 445 739.477, 445 742.149 C 445 743.854, 446.012 744, 457.866 744 L 470.732 744 472.882 738.104 C 474.064 734.862, 477.178 728.899, 479.802 724.854 C 482.426 720.809, 485.813 715.362, 487.329 712.750 C 488.844 710.138, 490.541 708, 491.098 708 C 491.656 708, 493.055 710.138, 494.207 712.750 C 495.359 715.362, 498.846 721.325, 501.957 726 C 505.067 730.675, 508.873 736.688, 510.415 739.363 C 513.120 744.058, 513.343 744.206, 516.859 743.624 C 518.861 743.293, 524.873 743.017, 530.219 743.011 C 541.645 742.998, 541.468 743.759, 533.020 731 C 529.925 726.325, 524.751 718, 521.522 712.500 C 518.293 707, 514.453 700.700, 512.989 698.500 C 511.525 696.300, 509.052 692.129, 507.494 689.231 L 504.662 683.963 507.158 681.231 C 508.532 679.729, 511.828 674.900, 514.484 670.500 C 517.140 666.100, 520.112 661.600, 521.089 660.500 C 522.066 659.400, 523.808 656.295, 524.961 653.600 C 526.114 650.906, 529.294 645.625, 532.029 641.866 C 534.763 638.106, 537 634.349, 537 633.515 C 537 632.237, 534.903 632, 523.582 632 L 510.163 632 508.180 635.250 C 505.803 639.147, 503.986 642.420, 497.058 655.285 C 492.753 663.280, 491.534 664.858, 490.395 663.913 C 489.628 663.276, 488.990 662.248, 488.978 661.628 C 488.966 661.007, 487.621 658.025, 485.989 655 C 484.357 651.975, 480.987 645.563, 478.501 640.750 L 473.980 632 459.490 632 C 451.520 632, 445 632.247, 445 632.550 M 583.617 636.750 C 583.303 639.362, 582.923 644.650, 582.773 648.500 L 582.500 655.500 596.500 655.776 L 610.500 656.051 610.167 699.526 L 609.835 743 622.917 743 L 636 743 636 699.530 L 636 656.060 648.750 655.780 L 661.500 655.500 661.782 643.750 L 662.063 632 623.126 632 L 584.188 632 583.617 636.750 M 827.272 712 C 827.272 714.475, 827.467 715.487, 827.706 714.250 C 827.944 713.013, 827.944 710.987, 827.706 709.750 C 827.467 708.513, 827.272 709.525, 827.272 712 M 811.384 820.256 C 810.348 821.471, 810.175 821.971, 811 821.367 C 811.825 820.763, 813.153 820.066, 813.951 819.817 C 814.880 819.528, 815.018 819.129, 814.334 818.707 C 813.747 818.344, 812.420 819.041, 811.384 820.256 M 595.750 826.732 C 598.087 826.943, 601.913 826.943, 604.250 826.732 C 606.587 826.522, 604.675 826.349, 600 826.349 C 595.325 826.349, 593.413 826.522, 595.750 826.732 M 678.784 826.738 C 681.689 826.941, 686.189 826.939, 688.784 826.734 C 691.378 826.528, 689 826.363, 683.500 826.365 C 678 826.368, 675.878 826.536, 678.784 826.738 M 696.750 826.662 C 697.438 826.940, 698.563 826.940, 699.250 826.662 C 699.938 826.385, 699.375 826.158, 698 826.158 C 696.625 826.158, 696.063 826.385, 696.750 826.662 M 791.250 826.728 C 793.313 826.944, 796.688 826.944, 798.750 826.728 C 800.813 826.513, 799.125 826.336, 795 826.336 C 790.875 826.336, 789.188 826.513, 791.250 826.728 M 465.750 827.706 C 466.988 827.944, 469.012 827.944, 470.250 827.706 C 471.488 827.467, 470.475 827.272, 468 827.272 C 465.525 827.272, 464.512 827.467, 465.750 827.706 M 527.750 827.744 C 532.288 827.929, 539.712 827.929, 544.250 827.744 C 548.788 827.559, 545.075 827.407, 536 827.407 C 526.925 827.407, 523.212 827.559, 527.750 827.744 M 297.750 828.706 C 298.988 828.944, 301.012 828.944, 302.250 828.706 C 303.488 828.467, 302.475 828.272, 300 828.272 C 297.525 828.272, 296.512 828.467, 297.750 828.706 M 324.269 828.693 C 325.242 828.947, 326.592 828.930, 327.269 828.656 C 327.946 828.382, 327.150 828.175, 325.500 828.195 C 323.850 828.215, 323.296 828.439, 324.269 828.693 M 558.813 828.683 C 559.534 828.972, 560.397 828.936, 560.729 828.604 C 561.061 828.272, 560.471 828.036, 559.417 828.079 C 558.252 828.127, 558.015 828.364, 558.813 828.683 M 800.813 828.683 C 801.534 828.972, 802.397 828.936, 802.729 828.604 C 803.061 828.272, 802.471 828.036, 801.417 828.079 C 800.252 828.127, 800.015 828.364, 800.813 828.683 M 465.750 829.706 C 466.988 829.944, 469.012 829.944, 470.250 829.706 C 471.488 829.467, 470.475 829.272, 468 829.272 C 465.525 829.272, 464.512 829.467, 465.750 829.706 M 497.750 829.706 C 498.988 829.944, 501.012 829.944, 502.250 829.706 C 503.488 829.467, 502.475 829.272, 500 829.272 C 497.525 829.272, 496.512 829.467, 497.750 829.706 M 521.750 829.706 C 522.987 829.944, 525.013 829.944, 526.250 829.706 C 527.487 829.467, 526.475 829.272, 524 829.272 C 521.525 829.272, 520.513 829.467, 521.750 829.706 M 545.750 829.706 C 546.987 829.944, 549.013 829.944, 550.250 829.706 C 551.487 829.467, 550.475 829.272, 548 829.272 C 545.525 829.272, 544.513 829.467, 545.750 829.706 M 608.813 829.683 C 609.534 829.972, 610.397 829.936, 610.729 829.604 C 611.061 829.272, 610.471 829.036, 609.417 829.079 C 608.252 829.127, 608.015 829.364, 608.813 829.683 M 617.250 829.689 C 618.212 829.941, 619.788 829.941, 620.750 829.689 C 621.712 829.438, 620.925 829.232, 619 829.232 C 617.075 829.232, 616.288 829.438, 617.250 829.689 M 431.250 830.735 C 433.863 830.941, 438.137 830.941, 440.750 830.735 C 443.363 830.529, 441.225 830.360, 436 830.360 C 430.775 830.360, 428.637 830.529, 431.250 830.735 M 488.750 830.662 C 489.438 830.940, 490.563 830.940, 491.250 830.662 C 491.938 830.385, 491.375 830.158, 490 830.158 C 488.625 830.158, 488.063 830.385, 488.750 830.662 M 701.813 830.683 C 702.534 830.972, 703.397 830.936, 703.729 830.604 C 704.061 830.272, 703.471 830.036, 702.417 830.079 C 701.252 830.127, 701.015 830.364, 701.813 830.683 M 802.813 830.683 C 803.534 830.972, 804.397 830.936, 804.729 830.604 C 805.061 830.272, 804.471 830.036, 803.417 830.079 C 802.252 830.127, 802.015 830.364, 802.813 830.683" stroke="none" fill="#000000" fill-rule="evenodd"/>
</svg>