<svg xmlns="http://www.w3.org/2000/svg" width="1024" height="1024" viewBox="0 0 1024 1024" version="1.1">
	<path d="M 438.005 139.111 C 428.900 152.449, 422.741 167.739, 424.046 173.764 C 425.132 178.775, 429.734 184.991, 433.534 186.579 C 437.838 188.377, 444.110 188.399, 448.343 186.630 C 452.096 185.062, 458.785 177.705, 459.672 174.170 C 460.561 170.628, 458.190 161.364, 454.509 154 C 452.722 150.425, 450.223 144.575, 448.956 141 C 447.689 137.425, 446.618 134.443, 446.576 134.374 C 446.534 134.305, 445.537 133.953, 444.360 133.592 C 442.567 133.041, 441.537 133.935, 438.005 139.111 M 708.116 144.520 C 704.788 150.857, 701.376 158.072, 700.533 160.555 C 697.235 170.269, 699.515 179.242, 706.665 184.692 C 716.697 192.338, 734.924 183.560, 734.984 171.054 C 734.994 168.783, 732.634 162.813, 728.063 153.554 C 719.769 136.751, 717.494 133, 715.598 133 C 714.790 133, 711.535 138.012, 708.116 144.520 M 375.258 141.196 C 369.401 151.937, 362.798 168.005, 362.814 171.475 C 362.842 177.633, 366.596 183.679, 372.200 186.595 C 373.686 187.368, 377.347 188, 380.337 188 C 384.821 188, 386.614 187.430, 390.567 184.750 C 393.273 182.915, 396.214 179.831, 397.321 177.668 C 399.056 174.275, 399.148 173.242, 398.121 168.668 C 396.352 160.796, 383.417 134.567, 381.120 134.196 C 379.692 133.965, 378.282 135.650, 375.258 141.196 M 503.797 135.237 C 500.554 137.763, 490.664 154.406, 488.361 161.212 C 485.535 169.567, 485.458 172.230, 487.890 177.500 C 490.504 183.165, 494.191 186.194, 499.439 186.991 C 507.371 188.195, 514.149 184.489, 518.097 176.790 C 521.012 171.106, 520.469 166.935, 515.149 154.154 C 512.481 147.744, 509.664 140.736, 508.888 138.580 C 507.298 134.161, 506.148 133.405, 503.797 135.237 M 579.943 138.637 C 570.765 151, 567.733 157.915, 566.357 169.618 C 565.803 174.337, 566.045 175.470, 568.359 178.966 C 569.807 181.154, 572.456 183.720, 574.246 184.668 C 578.732 187.044, 587.536 186.788, 592.748 184.129 C 597.462 181.724, 602.658 175.834, 603.517 171.921 C 604.810 166.036, 600.615 156.177, 588.340 136.250 C 586.228 132.822, 583.733 133.532, 579.943 138.637 M 649.194 136.480 C 646.020 140.516, 639.419 153.984, 637.021 161.316 C 634.300 169.639, 634.837 175.094, 638.932 180.748 C 642.518 185.698, 646.502 187.372, 653.345 186.804 C 663.106 185.995, 669.913 180.607, 671.437 172.486 C 672.222 168.302, 668.541 159.012, 659.969 143.538 C 654.265 133.242, 652.600 132.151, 649.194 136.480 M 751.352 142.500 C 751.675 145.800, 753.400 154.641, 755.185 162.147 L 758.431 175.794 762.353 176.320 C 764.510 176.610, 771.050 176.595, 776.887 176.288 C 789.312 175.633, 805.490 177.290, 814.820 180.172 C 822.804 182.638, 834.145 190.093, 843.348 198.927 C 851.013 206.284, 853.689 210.339, 857.590 220.511 L 860.270 227.500 860.055 414.099 L 859.839 600.698 880.519 601.416 C 891.893 601.811, 901.492 601.841, 901.849 601.483 C 902.207 601.125, 902.449 519.082, 902.387 419.166 C 902.303 284.220, 901.966 235.204, 901.076 228.572 C 898.593 210.069, 892.123 195.528, 878.302 177.389 C 872.853 170.238, 865.914 163.762, 855.617 156.216 C 849.300 151.588, 830.222 142.975, 820.500 140.363 C 811.034 137.820, 808.905 137.645, 780.632 137.088 L 750.765 136.500 751.352 142.500 M 307 137.674 C 287.180 138.555, 271.915 141.590, 261.557 146.708 C 253.264 150.805, 250.851 152.435, 240.853 160.688 C 236.305 164.442, 232.253 167.006, 230.853 167.015 C 229.311 167.025, 228.929 167.303, 229.747 167.822 C 230.643 168.391, 229.985 169.582, 227.408 172.057 C 217.422 181.647, 206.476 199.828, 200.953 216 C 195.290 232.585, 195.631 220.303, 195.446 414 C 195.351 512.175, 195.481 594.862, 195.734 597.750 L 196.193 603 216.362 603 L 236.531 603 236.731 421.228 C 236.955 218.150, 236.463 231.787, 244.139 216 C 247.583 208.918, 249.876 205.911, 257.886 197.975 C 274.072 181.939, 285.856 177.334, 313 176.438 C 321.525 176.157, 331.762 175.679, 335.750 175.378 L 343 174.829 343 171.613 C 343 169.844, 344.134 164.595, 345.520 159.949 C 346.906 155.302, 348.316 148.531, 348.652 144.901 C 349.241 138.562, 349.171 138.277, 346.882 137.665 C 344.609 137.056, 320.771 137.062, 307 137.674 M 403.574 200.319 C 391.779 222.308, 390.221 227.807, 393.538 235.746 C 396.283 242.314, 400.087 244.994, 408.739 246.456 C 417.558 247.946, 426.579 242.476, 429.082 234.120 C 430.656 228.868, 429.757 225.803, 421.278 207.500 C 415.099 194.162, 412.533 190, 410.486 190 C 409.729 190, 406.618 194.644, 403.574 200.319 M 470.357 191.463 C 467.501 193.463, 456.357 216.120, 454.417 223.872 C 452.947 229.745, 452.951 230.583, 454.471 234.562 C 456.868 240.841, 461.273 244.694, 467.695 246.131 C 481.132 249.138, 492.829 238.864, 490.511 226.091 C 489.954 223.019, 475.119 192.890, 473.115 190.759 C 472.732 190.352, 471.491 190.668, 470.357 191.463 M 683.196 191.264 C 681.328 193.514, 670.336 215.486, 668.136 221.365 C 665.464 228.507, 665.457 231.247, 668.096 236.698 C 673.745 248.368, 690.837 249.300, 699.798 238.428 C 703.428 234.025, 704.176 230.786, 702.914 224.941 C 701.635 219.020, 687.217 190, 685.554 190 C 684.834 190, 683.773 190.569, 683.196 191.264 M 744.809 192.250 C 744.027 193.488, 740.511 200.536, 736.996 207.913 C 729.370 223.916, 728.340 229.940, 731.954 237.405 C 734.837 243.361, 742.770 247.612, 749.108 246.599 C 757.889 245.195, 765.311 239.187, 766.573 232.463 C 767.414 227.979, 765.327 221.578, 758.435 207.500 C 749.499 189.248, 747.862 187.416, 744.809 192.250 M 616.755 198.709 C 610.445 209.445, 604 225.339, 604 230.166 C 604 239.393, 611.564 246.303, 621.566 246.213 C 629.574 246.141, 635.900 241.944, 639.529 234.297 C 641.010 231.177, 641.082 229.977, 640.052 225.589 C 638.431 218.684, 624.922 191.578, 622.917 191.209 C 621.861 191.015, 619.809 193.513, 616.755 198.709 M 348 193.091 C 348 193.764, 346.210 196.635, 344.023 199.470 C 339.269 205.632, 332.338 220.033, 331.448 225.598 C 330.444 231.881, 332.407 237.198, 337.447 241.844 C 342.602 246.596, 345.080 247.407, 352.556 246.787 C 358.986 246.254, 364.184 242.657, 367.355 236.548 C 370.114 231.232, 368.928 226.332, 360.323 207.500 C 354.114 193.910, 353.213 192.470, 350.735 192.184 C 349.072 191.991, 348 192.347, 348 193.091 M 534.480 197.667 C 533.592 199.775, 532.419 203.975, 531.874 207 C 530.491 214.677, 527.867 224.317, 526.851 225.450 C 525.211 227.280, 526.022 233.363, 528.462 237.525 C 531.046 241.934, 533.697 243.451, 540.686 244.516 C 548.545 245.714, 556 239.616, 556 231.990 C 556 227.890, 552.452 215.799, 549.693 210.500 C 548.548 208.300, 547.361 204.482, 547.056 202.015 C 546.528 197.752, 546.316 197.500, 542.802 196.931 C 540.769 196.601, 538.428 195.770, 537.600 195.083 C 536.329 194.029, 535.845 194.430, 534.480 197.667 M 589.233 254.771 C 587.190 257.922, 582.926 265.632, 579.759 271.904 C 573.063 285.162, 572.337 290.505, 576.282 297.470 C 579.760 303.612, 584.065 306, 591.659 306 C 603.707 306, 610.902 299.990, 611.813 289.166 C 612.238 284.115, 611.822 282.940, 603.948 266.953 C 599.375 257.669, 595.029 249.841, 594.291 249.558 C 593.457 249.238, 591.538 251.216, 589.233 254.771 M 650.166 253.742 C 648.464 256.394, 644.305 264.346, 640.925 271.413 C 635.173 283.437, 634.805 284.632, 635.196 290.033 C 636.221 304.209, 651.171 311.207, 664.412 303.709 C 669.956 300.569, 672.252 297.004, 672.773 290.727 C 673.178 285.841, 672.693 284.235, 667.252 272.436 C 660.682 258.188, 656.033 249.844, 654.354 249.285 C 653.752 249.084, 651.867 251.090, 650.166 253.742 M 713.385 251.810 C 712.414 253.290, 708.330 260.986, 704.310 268.914 C 698.680 280.015, 697.010 284.266, 697.044 287.414 C 697.196 301.588, 707.848 309.669, 721.416 305.902 C 726.700 304.435, 730.283 301.621, 732.982 296.818 C 736.648 290.295, 735.599 285.030, 727.339 268.500 C 717.011 247.833, 716.442 247.153, 713.385 251.810 M 316.830 251.713 C 314.072 254.898, 306.932 267.678, 303.435 275.689 C 299.221 285.340, 298.857 292.432, 302.266 298.426 C 308.232 308.912, 326.057 309.852, 334.252 300.113 C 337.302 296.488, 338.483 291.640, 337.714 285.904 C 337.063 281.050, 321.788 250.613, 319.803 250.213 C 319.019 250.055, 317.681 250.730, 316.830 251.713 M 376.130 252.562 C 375.021 253.971, 371.051 261.201, 367.307 268.628 C 360.900 281.338, 360.500 282.528, 360.500 288.893 C 360.500 294.760, 360.871 296.142, 363.302 299.329 C 367.366 304.658, 371.268 306.362, 379.572 306.437 C 387.574 306.508, 391.801 304.423, 395.962 298.351 C 399.822 292.717, 399.724 287.709, 395.569 278.277 C 388.528 262.296, 381.280 250, 378.898 250 C 378.484 250, 377.238 251.153, 376.130 252.562 M 435.717 254.551 C 430.939 261.135, 422.226 280.819, 421.428 286.830 C 419.687 299.956, 432.649 309.873, 446.619 306.104 C 454.559 303.963, 459.930 296.968, 459.978 288.709 C 460.005 283.977, 443.421 250.705, 440.782 250.197 C 439.731 249.994, 437.850 251.612, 435.717 254.551 M 498.811 251.750 C 495.696 255.388, 487.689 271.501, 485.344 278.852 C 481.310 291.499, 483.843 300.084, 493.008 304.823 C 496.623 306.692, 498.591 307.055, 503.088 306.682 C 513.868 305.789, 520.087 299.983, 520.792 290.152 C 521.179 284.755, 520.862 283.844, 513.745 269.938 C 502.924 248.795, 502.150 247.851, 498.811 251.750 M 770.851 258.278 C 760.754 276.134, 757.134 287.072, 759.013 294.049 C 760.944 301.218, 769.073 307, 777.222 307 C 783.687 307, 791.890 302.565, 794.792 297.500 C 798.551 290.939, 797.532 286.049, 788.875 269.124 C 781.074 253.873, 778.589 249.983, 776.677 250.028 C 776.030 250.043, 773.408 253.756, 770.851 258.278 M 572.836 340.497 C 572.563 340.771, 542.225 341.019, 505.420 341.050 C 468.614 341.080, 435.258 341.477, 431.296 341.932 C 424.953 342.660, 423.304 343.321, 417.488 347.472 C 413.855 350.064, 406.723 356.306, 401.639 361.342 C 387.636 375.215, 358.439 403.528, 349.156 412.238 C 343.117 417.903, 340.184 419.981, 338.204 419.996 C 336.717 420.008, 321.927 419.730, 305.337 419.378 C 288.748 419.027, 274.025 419.028, 272.619 419.381 L 270.064 420.022 270.308 464.261 L 270.552 508.500 273.311 513.786 C 276.816 520.501, 281.803 526.023, 287.890 529.930 C 292.416 532.834, 293.217 533, 302.687 533 L 312.699 533 313.339 523.250 C 314.826 500.580, 321.830 487.141, 340.684 470.787 C 354.623 458.696, 376.508 453.591, 399.308 457.110 C 407.960 458.446, 416.168 462.016, 426.104 468.767 C 436.930 476.123, 443.308 483.538, 449.909 496.446 C 454.388 505.203, 457.524 519.663, 456.812 528.272 L 456.379 533.500 494.440 533.500 C 515.373 533.500, 557.025 533.387, 587 533.248 L 641.500 532.996 641.626 523.748 C 641.757 514.134, 643.826 504.222, 647 498 C 649.948 492.221, 660.310 478.740, 666.140 473.098 C 672.087 467.342, 684.153 460.867, 693.187 458.581 C 702.011 456.349, 718.316 455.594, 727.500 456.992 C 742.217 459.233, 755.943 467.531, 768.537 481.800 C 779.435 494.147, 784.909 508.169, 785.304 524.749 L 785.500 532.999 798.270 532.999 C 812.242 533, 814.810 532.145, 821.197 525.363 C 826.272 519.976, 827 516.572, 827 498.243 C 827 481.470, 826.993 481.421, 824.750 481.403 C 823.513 481.392, 816.628 481.298, 809.450 481.192 L 796.401 481 791.191 473.103 C 785.163 463.966, 781 455.073, 781 451.334 C 781 448.745, 781.046 448.730, 786.750 449.403 C 789.913 449.776, 797.225 450.556, 803 451.136 C 815.497 452.392, 819.328 453.800, 821.459 457.921 C 823.917 462.674, 824.205 461.570, 822.027 455.750 C 818.922 447.456, 808.950 438.508, 796.973 433.271 C 781.299 426.416, 750.053 422.455, 724 424.020 C 716.025 424.499, 703.200 424.913, 695.500 424.941 L 681.500 424.990 665 408.945 C 655.925 400.120, 643.615 388.310, 637.645 382.700 C 631.675 377.090, 623.110 368.898, 618.610 364.495 C 606.536 352.679, 594.223 342.035, 591.374 340.952 C 588.804 339.975, 573.728 339.605, 572.836 340.497 M 466.833 371.763 L 432.166 372.026 407.333 397.068 C 393.675 410.841, 382.500 422.873, 382.500 423.805 C 382.500 425.317, 384.551 425.567, 401.500 426.120 C 427.294 426.961, 494.610 427.125, 499.250 426.358 L 503 425.738 503 398.928 C 503 384.183, 502.663 371.979, 502.250 371.809 C 501.837 371.639, 485.900 371.618, 466.833 371.763 M 551.928 371.748 L 531.357 372.039 531.726 396.770 C 531.930 410.371, 532.294 422.458, 532.537 423.629 C 532.951 425.632, 533.788 425.800, 546.739 426.475 C 554.307 426.870, 562.413 427.542, 564.750 427.968 C 567.087 428.393, 569 428.438, 569 428.067 C 569 426.006, 561.683 416.455, 554.041 408.542 C 549.226 403.556, 544.974 398.494, 544.593 397.293 C 544.113 395.779, 544.672 393.941, 546.416 391.304 C 547.800 389.212, 549.437 386.049, 550.055 384.275 L 551.179 381.049 554.581 383.361 C 561.911 388.342, 594.353 418.590, 600.658 426.322 C 601.786 427.706, 603.029 428.015, 605.822 427.610 C 607.845 427.316, 616.980 427.059, 626.121 427.038 L 642.742 427 634.121 418.720 C 625.882 410.806, 612.767 398.701, 591.884 379.734 C 582.351 371.075, 582.226 371.002, 577.384 371.229 C 574.698 371.354, 563.243 371.588, 551.928 371.748 M 369.394 477.291 C 353.922 482.889, 342.918 492.316, 336.355 505.596 C 332.925 512.537, 332.612 513.912, 332.202 523.856 C 331.660 537.009, 333.885 547.020, 339.659 557.413 C 345.462 567.857, 357.960 576.776, 372.045 580.525 C 396.026 586.906, 425.009 572.016, 434.109 548.637 C 439.595 534.544, 439.321 518.721, 433.354 505.118 C 430.440 498.474, 416.897 484.727, 409.280 480.681 C 398.300 474.848, 380.359 473.323, 369.394 477.291 M 704.500 476.018 C 687.295 478.896, 672.924 489.790, 665.249 505.773 C 658.220 520.411, 658.675 537.831, 666.490 553.282 C 673.356 566.856, 686.255 576.962, 701.219 580.489 C 729.775 587.222, 759.525 568.613, 765.533 540.257 C 771.069 514.137, 759.992 492.018, 735.579 480.444 C 727.672 476.695, 725.402 476.078, 718 475.660 C 713.325 475.397, 707.250 475.558, 704.500 476.018 M 375.500 502.328 C 369.670 504.614, 366.162 506.993, 362.761 510.966 C 351.645 523.953, 357.398 545.431, 374 552.925 C 379.922 555.598, 389.931 555.669, 395.637 553.078 C 408.632 547.177, 415.310 533.458, 411.525 520.438 C 409.411 513.166, 401.650 505.091, 394.401 502.621 C 388.927 500.756, 379.869 500.616, 375.500 502.328 M 703.028 503.072 C 692.640 507.785, 687.184 514.882, 686.279 524.861 C 684.964 539.367, 695.829 552.974, 710.713 555.460 C 719.506 556.928, 731.626 551.299, 736.939 543.279 C 742.865 534.332, 743.222 522.949, 737.848 514.254 C 735.062 509.746, 726.841 503.328, 722.203 502.040 C 716.237 500.383, 707.978 500.827, 703.028 503.072 M 710.415 517.421 C 706.445 519.150, 702.999 523.551, 703.004 526.885 C 703.008 530.163, 706.199 535.501, 709.072 537.039 C 710.271 537.680, 712.825 538.250, 714.747 538.304 C 717.564 538.384, 718.898 537.687, 721.621 534.716 C 727.311 528.508, 725.821 520.494, 718.401 517.394 C 714.399 515.722, 714.318 515.722, 710.415 517.421 M 378.303 518.197 C 375.248 519.673, 372.707 525.391, 373.501 529.005 C 373.853 530.606, 375.700 533.285, 377.605 534.958 C 384.072 540.636, 393.630 538.306, 395.569 530.580 C 396.611 526.428, 395.163 521.274, 392.328 519.043 C 389.453 516.782, 382.144 516.341, 378.303 518.197 M 541.456 549.809 C 538.681 550.769, 531.745 554.219, 526.041 557.477 C 514.498 564.069, 511.567 564.602, 505.446 561.218 C 488.418 551.806, 487.906 551.615, 479.500 551.570 C 472.327 551.532, 470.828 551.876, 465 554.894 C 461.425 556.746, 456.363 560.044, 453.750 562.223 C 449.421 565.835, 449 566.571, 449 570.528 C 449 572.916, 449.457 576.071, 450.015 577.540 C 450.881 579.818, 451.431 580.111, 453.765 579.536 C 455.269 579.166, 459.875 576.893, 464 574.484 C 473.372 569.012, 478.156 566.996, 481.718 567.016 C 483.248 567.024, 490.800 570.174, 498.499 574.016 C 506.199 577.857, 513.174 580.988, 513.999 580.974 C 515.388 580.949, 520.899 578.123, 535.110 570.149 C 547.804 563.027, 556.370 563.803, 571.901 573.486 C 577.573 577.022, 583.759 580.425, 585.647 581.049 C 588.850 582.106, 589.499 581.911, 595.291 578.155 C 603.505 572.829, 615.185 567.314, 619.960 566.507 C 624.731 565.701, 628.883 567.669, 641.751 576.839 C 651.043 583.460, 652.846 585.665, 651.271 588.480 C 650.563 589.746, 649.099 589.167, 642.537 585.024 C 632.047 578.400, 626.486 576.624, 618.116 577.227 C 610.942 577.744, 604.065 580.648, 595.866 586.623 C 588.692 591.851, 584.913 591.319, 565.776 582.388 C 557.945 578.733, 554.618 577.741, 548.686 577.293 C 541.733 576.767, 540.478 577.023, 526.291 581.868 C 518.025 584.690, 510.669 587, 509.945 587 C 509.220 587, 504.098 584.866, 498.563 582.258 C 489.595 578.032, 487.767 577.521, 481.770 577.564 C 475.893 577.606, 473.993 578.144, 466.770 581.817 C 457.628 586.465, 448.657 593, 451.418 593 C 452.353 593, 452.838 593.453, 452.496 594.007 C 451.117 596.238, 455.579 596.102, 465.312 593.618 C 477.508 590.504, 483.592 590.373, 491 593.062 C 494.605 594.370, 500.944 595.361, 509.397 595.936 C 522.227 596.809, 526.844 596.307, 535.157 593.134 C 541.651 590.656, 549.257 590.733, 561.136 593.397 C 573.033 596.065, 583.402 596.777, 584.500 595 C 584.840 594.450, 586.329 594.032, 587.809 594.070 C 590.104 594.130, 590.213 594.253, 588.554 594.902 C 586.751 595.608, 586.788 595.712, 589.054 596.318 C 594.285 597.718, 601.050 596.931, 609 594 C 619.082 590.283, 624.050 590.224, 632.739 593.720 C 641.137 597.098, 645.826 597.101, 653.499 593.735 C 662.243 589.899, 663.364 588.130, 662.696 579.221 C 662.148 571.919, 659.985 566.488, 657 564.926 C 656.175 564.494, 651.900 562.373, 647.500 560.213 C 643.100 558.053, 636.591 554.759, 633.037 552.893 C 621.763 546.975, 611.316 548.753, 598.573 558.757 C 590.594 565.022, 587.918 564.898, 575.607 557.691 C 559.137 548.048, 551.588 546.306, 541.456 549.809 M 791.718 551.092 C 783.629 552.996, 769.660 562.701, 766.235 568.795 C 764.212 572.396, 763.142 579, 764.582 579 C 766.435 579, 781.550 573.211, 787.500 570.222 C 795.608 566.150, 794.813 566.080, 817.500 572.838 C 832.628 577.344, 835.508 577.139, 836.570 571.477 C 837.396 567.076, 835.500 561.558, 832.483 559.581 C 831.154 558.710, 826.114 557.079, 821.283 555.955 C 816.452 554.832, 809.640 553.033, 806.145 551.957 C 799.267 549.839, 797.489 549.732, 791.718 551.092 M 288.804 552.584 C 286.221 553.379, 280.601 556.385, 276.315 559.265 C 264.291 567.343, 261.300 573.637, 266.531 579.854 L 269.062 582.862 276.324 578.053 C 286.952 571.015, 293.938 567.727, 298.267 567.727 C 300.677 567.727, 304.541 569.026, 308.850 571.283 C 317.257 575.687, 325.750 578.223, 330.720 577.812 C 334.307 577.516, 334.492 577.330, 334.346 574.187 C 334.261 572.365, 333.160 568.538, 331.900 565.683 C 329.664 560.616, 329.430 560.428, 322.055 557.811 C 317.900 556.336, 312.025 554.215, 309 553.097 C 302.592 550.730, 295.423 550.548, 288.804 552.584 M 789.500 576.887 C 781.488 579.001, 766 588.688, 766 591.584 C 766 593.783, 777.464 593.421, 784.500 591 C 791.705 588.521, 794.733 588.505, 805.761 590.889 C 819.403 593.837, 822.992 594.218, 823.447 592.766 C 823.666 592.070, 824.116 589.858, 824.448 587.851 L 825.053 584.202 813.435 580.543 C 801.032 576.637, 794.327 575.613, 789.500 576.887 M 293 579.176 C 285.391 580.927, 276.227 588.664, 278.789 591.175 C 279.180 591.558, 283.775 590.753, 289 589.385 C 298.970 586.776, 301.734 586.730, 318.500 588.893 C 322.900 589.461, 328.075 589.585, 330 589.168 L 333.500 588.410 328.500 586.635 C 306.552 578.843, 300.224 577.513, 293 579.176 M 193.647 633 C 193.418 633.709, 193.459 647.633, 193.750 667.850 L 194 685.201 207.250 684.610 C 214.537 684.285, 232.923 683.740, 248.106 683.399 L 275.713 682.778 278.359 685.631 C 283.795 691.494, 284.334 700.251, 279.639 706.407 L 277.097 709.739 235.798 709.738 L 194.500 709.737 194.810 735.119 C 195.163 763.958, 196.402 773.855, 201.287 786.846 C 212.665 817.108, 235.263 837.279, 270 848.181 L 280.500 851.476 543.500 851.706 C 765.790 851.900, 807.506 851.719, 813 850.535 C 824.764 848.002, 847.588 839.364, 854.728 834.743 C 863.454 829.096, 876.815 817.230, 881.856 810.651 C 888.978 801.356, 895.698 787.363, 898.496 776 C 901.191 765.061, 901.620 759.557, 902.416 725.769 L 902.857 707.039 899.178 706.120 C 897.155 705.614, 894.245 704.918, 892.711 704.572 L 889.923 703.943 890.211 695.221 L 890.500 686.500 896.876 685.557 L 903.251 684.615 902.525 659.057 C 902.126 645.001, 901.701 633.394, 901.581 633.265 C 901.136 632.784, 193.803 632.520, 193.647 633 M 322.270 683.703 C 316.719 684.775, 313.130 696.484, 316.409 702.825 C 319.786 709.354, 320.537 709.501, 348.932 709.173 C 374.158 708.881, 374.532 708.846, 376.863 706.553 C 381.821 701.675, 381.123 691.869, 375.392 685.887 L 372.626 683 348.563 683.136 C 335.328 683.211, 323.497 683.466, 322.270 683.703 M 443.581 683.750 C 426.469 683.946, 418.222 684.401, 417.258 685.201 C 415.202 686.907, 412 693.572, 412 696.144 C 412 699.310, 415.849 706.849, 418.072 708.039 C 419.179 708.631, 430.934 709.090, 446.725 709.156 L 473.500 709.269 475.750 705.987 C 478.424 702.086, 478.793 694.434, 476.520 690.039 C 475.039 687.175, 470.274 682.795, 469.115 683.232 C 468.777 683.359, 457.286 683.592, 443.581 683.750 M 522.030 683.748 C 515.601 684.185, 514.310 685.068, 511.792 690.748 C 509.419 696.100, 510.129 700.488, 514.162 705.380 L 517.146 709 543.398 709 L 569.651 709 571.908 706.598 C 574.986 703.322, 575.688 697.090, 573.597 691.614 C 570.793 684.273, 570.943 684.319, 548 683.821 C 536.725 683.576, 525.039 683.543, 522.030 683.748 M 629.739 683.748 L 612.977 684.048 609.989 688.174 C 605.863 693.869, 605.953 698.472, 610.301 704.172 L 613.602 708.500 641.943 708.500 L 670.284 708.500 672.252 705.864 C 673.334 704.415, 674.451 701.175, 674.734 698.664 C 675.154 694.945, 674.757 693.262, 672.593 689.569 C 671.132 687.076, 669.081 684.579, 668.034 684.018 C 666.988 683.458, 661.714 683.101, 656.316 683.224 C 650.917 683.347, 638.957 683.583, 629.739 683.748 M 739.253 683.767 L 713.006 684.033 710.595 687.767 C 706.009 694.866, 706.368 700.607, 711.751 706.250 L 714.374 709 741.598 709 L 768.822 709 771.411 705.923 C 776.487 699.890, 774.158 686.953, 767.518 684.305 C 766.408 683.862, 753.689 683.620, 739.253 683.767 M 812.852 684.816 C 810.352 686.568, 807 693.274, 807 696.526 C 807 699.722, 808.444 702.642, 811.809 706.250 L 814.374 709 841.598 709 L 868.822 709 871.411 705.923 C 873.399 703.560, 873.995 701.762, 873.978 698.173 C 873.954 692.992, 870.926 685.293, 868.555 684.383 C 867.714 684.060, 855.259 683.729, 840.878 683.648 C 820.685 683.534, 814.303 683.800, 812.852 684.816" stroke="none" fill="#000000" fill-rule="evenodd"/>
</svg>