<svg xmlns="http://www.w3.org/2000/svg" width="1024" height="1024" viewBox="0 0 1024 1024" version="1.1">
	<path d="M 386 159.039 L 331.500 159.578 319 163.318 C 305.790 167.272, 294.800 172.007, 287.756 176.780 C 285.415 178.366, 282.704 179.953, 281.730 180.308 C 274.426 182.968, 255.867 200.283, 245.645 213.974 C 237.020 225.528, 228.143 246.698, 224.017 265.557 L 221.842 275.500 221.912 477.614 C 221.989 699.889, 221.586 685.206, 228.151 704.992 C 235.304 726.549, 243.609 741.100, 260.260 761.249 C 264.320 766.162, 278.019 776.879, 288.500 783.342 C 297.088 788.638, 313.204 794.673, 324.115 796.680 C 332.782 798.273, 347.233 798.404, 513 798.381 L 692.500 798.357 703.524 796.192 C 716.859 793.572, 730.315 789.140, 737.892 784.871 C 763.165 770.632, 781.448 752.410, 792.257 730.687 C 795.398 724.375, 799.303 715.224, 800.936 710.351 C 807.335 691.252, 807 703.963, 807 480 C 807 255.876, 807.342 268.784, 800.891 249.504 C 797.332 238.869, 789.137 223.193, 782.046 213.459 C 770.446 197.535, 751.037 180.922, 734.399 172.675 C 725.782 168.404, 711.404 163.678, 699 161.040 C 689.798 159.083, 685.591 159.011, 565 158.760 C 496.525 158.617, 415.975 158.742, 386 159.039 M 334.500 196.114 C 319.648 198.053, 302.432 205.530, 291.342 214.858 C 283.996 221.037, 273.441 233.570, 268.073 242.488 C 263.500 250.085, 258.109 266.484, 256.912 276.438 C 256.307 281.466, 256.048 359.572, 256.221 484 L 256.500 683.500 258.718 691.284 C 261.789 702.065, 267.697 714.258, 275.050 724.994 C 287.320 742.908, 303.776 754.579, 325.375 760.685 C 334.354 763.224, 335.202 763.275, 378.500 763.916 C 402.700 764.274, 483.700 764.507, 558.500 764.434 L 694.500 764.301 702 762.092 C 706.125 760.877, 714.163 757.663, 719.862 754.949 C 746.863 742.093, 760.399 725.598, 769.513 694.444 L 772.129 685.500 772.059 564 C 772.021 497.175, 771.880 404.250, 771.745 357.500 L 771.500 272.500 768.640 264.500 C 764.826 253.829, 758.888 241.148, 755.214 235.827 C 750.321 228.741, 735.971 214.799, 728.368 209.745 C 719.620 203.929, 705.488 198.363, 695.795 196.917 C 687.734 195.714, 343.425 194.949, 334.500 196.114 M 542.344 215.598 C 539.937 219.272, 539.971 227.202, 542.405 229.894 C 544.074 231.739, 545.438 232.002, 553.405 232.015 C 558.407 232.024, 563.059 232.386, 563.743 232.820 C 564.608 233.370, 569.992 246.796, 570 248.425 C 570.002 248.777, 468.004 247.893, 466.421 247.528 C 464.680 247.126, 462 243.371, 462 241.333 C 462 241.018, 464.725 240.957, 468.056 241.198 C 473.886 241.619, 474.221 241.512, 477.007 238.339 C 482.264 232.352, 481.895 223.640, 476.277 221.080 C 474.372 220.212, 467.085 220.088, 448.687 220.608 C 420.013 221.418, 420 221.422, 420 229.532 C 420 239.311, 424.036 244.018, 433.180 244.902 L 439.366 245.500 443.717 251.864 L 448.068 258.227 443.784 263.695 C 441.428 266.702, 437.700 271.682, 435.500 274.761 C 433.300 277.840, 431.050 280.202, 430.500 280.010 C 429.950 279.818, 426.582 278.296, 423.016 276.627 C 417.240 273.924, 415.273 273.548, 404.990 273.181 C 391.451 272.698, 384.375 274.126, 373.181 279.599 C 364.267 283.957, 350.260 297.261, 344.582 306.763 C 326.776 336.560, 335.230 378.165, 362.902 396.927 C 376.889 406.411, 384.045 408.519, 402 408.443 C 417.366 408.378, 421.986 407.159, 434.408 399.891 C 449.559 391.026, 459.187 378.541, 463.975 361.552 C 465.957 354.516, 466.390 354.311, 479.655 354.118 C 487.650 354.002, 487.897 354.072, 492.155 357.648 C 503.939 367.542, 514.046 367.481, 524.879 357.451 C 532.177 350.695, 534.173 346.724, 533.882 339.540 L 533.662 334.097 545.581 321.480 C 552.136 314.540, 562.277 303.381, 568.116 296.681 C 573.955 289.981, 579.899 283.426, 581.325 282.114 L 583.919 279.728 585.170 282.614 C 585.858 284.201, 587.219 286.565, 588.196 287.867 C 589.934 290.184, 589.914 290.280, 587.238 292.367 C 582.344 296.185, 580.130 299.327, 574.464 310.500 C 564.991 329.179, 563.770 344.545, 570.277 363.215 C 576.279 380.440, 586.599 392.759, 601.730 400.764 C 630.033 415.737, 658.572 410.358, 679.699 386.068 C 692.005 371.921, 696.951 359.442, 696.983 342.460 C 697.005 330.962, 695.225 324.003, 689.043 311.421 C 683.194 299.516, 674.266 289.194, 663.926 282.382 C 654.026 275.860, 647.488 273.845, 634.500 273.313 C 623.804 272.875, 619.941 273.463, 607.500 277.424 C 605.796 277.966, 604.443 276.319, 598.352 266.280 C 589.612 251.874, 588.389 249.006, 585.934 237.134 C 583.617 225.926, 581.113 221.134, 575.142 216.483 L 570.672 213 557.359 213 C 544.129 213, 544.036 213.016, 542.344 215.598 M 476 268.835 C 476 269.294, 478.333 273.457, 481.184 278.085 C 484.035 282.713, 489.176 291.450, 492.608 297.500 C 503.995 317.572, 503.525 317, 508.610 317 C 511.060 317, 514.737 317.714, 516.782 318.587 L 520.500 320.174 529.500 310.398 C 534.450 305.021, 544.350 294.518, 551.500 287.057 C 558.650 279.597, 565.510 272.257, 566.743 270.747 L 568.987 268 522.493 268 C 496.922 268, 476 268.376, 476 268.835 M 456.792 279.100 C 456.495 279.874, 454.142 283.098, 451.563 286.263 L 446.875 292.018 452.304 299.759 C 459.300 309.733, 460.469 312.101, 464.383 324.221 L 467.631 334.283 477.016 334.077 C 482.177 333.964, 486.760 333.648, 487.200 333.376 C 489.078 332.216, 487.604 327.898, 482.230 318.820 C 479.079 313.496, 472.900 302.951, 468.500 295.386 C 459.093 279.215, 457.564 277.087, 456.792 279.100 M 387.279 295.346 C 373.028 300.801, 362.296 310.468, 357.882 321.826 C 354.495 330.540, 354.091 345.649, 356.989 355.191 C 360.083 365.374, 362.418 369.539, 368.776 376.204 C 374.738 382.454, 380.877 385.881, 390.644 388.409 C 405.944 392.370, 422.588 387.859, 434.232 376.595 C 440.003 371.014, 446 360.776, 446 356.508 L 446 353.797 419.918 354.148 L 393.836 354.500 390.918 351.234 C 385.546 345.222, 387.283 337.992, 396.499 328 C 398.275 326.075, 401.672 321.575, 404.048 318 C 406.425 314.425, 410.761 308.525, 413.684 304.889 C 416.608 301.254, 419 297.810, 419 297.237 C 419 295.371, 412.693 293.862, 403 293.409 C 394.739 293.023, 392.688 293.275, 387.279 295.346 M 621.828 293.912 C 620.359 294.392, 618.667 295.088, 618.068 295.458 C 616.721 296.290, 628.841 319.736, 637.158 332.387 C 644.213 343.118, 644.836 347.318, 640.077 352.077 C 636.174 355.980, 627.404 356.566, 623.641 353.175 C 622.619 352.254, 616.876 341.405, 610.879 329.066 L 599.974 306.633 596.591 309.912 C 594.731 311.715, 591.712 316.410, 589.884 320.345 C 586.921 326.722, 586.518 328.642, 586.181 338 C 585.732 350.457, 587.675 357.680, 594.174 367.725 C 599.418 375.828, 604.591 380.403, 613.150 384.504 C 622.563 389.016, 631.742 390.611, 639.282 389.045 C 659.613 384.825, 674.832 367.865, 676.525 347.543 C 678.470 324.193, 666.172 303.739, 645.597 296.104 C 639.143 293.709, 626.125 292.509, 621.828 293.912 M 430.308 313.250 C 425.433 319.759, 419.392 329.752, 418.520 332.750 C 417.866 334.996, 417.884 335, 430.183 335.014 C 436.957 335.021, 443.574 335.315, 444.886 335.666 C 447.230 336.293, 447.260 336.217, 446.540 331.402 C 445.245 322.734, 438.022 308, 435.069 308 C 434.613 308, 432.471 310.363, 430.308 313.250 M 504.655 337.829 C 502.121 340.628, 502.560 344.666, 505.615 346.667 C 507.957 348.202, 508.505 348.227, 510.852 346.910 C 512.294 346.100, 513.916 344.179, 514.458 342.640 C 515.308 340.223, 515.106 339.583, 512.971 337.943 C 509.835 335.534, 506.770 335.491, 504.655 337.829 M 511.079 369.583 C 511.127 370.748, 511.364 370.985, 511.683 370.188 C 511.972 369.466, 511.936 368.603, 511.604 368.271 C 511.272 367.939, 511.036 368.529, 511.079 369.583 M 492.289 372.343 C 491.607 373.445, 491.350 385.733, 492 386.166 C 492.275 386.350, 499.792 386.357, 508.704 386.182 C 527.233 385.818, 526.742 386.096, 525.561 376.642 L 524.919 371.500 508.865 371.500 C 500.035 371.500, 492.575 371.879, 492.289 372.343 M 439.219 512.414 L 439.500 607.999 458 608.010 C 468.175 608.017, 478.223 608.307, 480.329 608.655 L 484.159 609.287 483.829 579.394 L 483.500 549.500 517.500 549.438 L 551.500 549.377 559.500 546.615 C 571.328 542.531, 577.587 538.584, 586.511 529.582 C 595.268 520.748, 599.611 513.270, 602.527 502 C 605.114 492.005, 604.171 469.231, 600.735 458.716 C 594.512 439.674, 579.341 425.024, 560.482 419.845 C 552.798 417.735, 550.382 417.638, 495.719 417.241 L 438.938 416.830 439.219 512.414 M 483.197 484.027 L 483.224 512.107 506.862 511.530 C 537.169 510.789, 542.443 510.330, 546.868 508.045 C 551.679 505.561, 557.530 499.394, 559.451 494.782 C 561.261 490.438, 561.488 479.308, 559.885 473.500 C 558.373 468.022, 549.847 459.544, 544.500 458.202 C 542.300 457.650, 527.601 456.917, 511.834 456.573 L 483.169 455.947 483.197 484.027 M 604.750 624.662 C 605.438 624.940, 606.563 624.940, 607.250 624.662 C 607.938 624.385, 607.375 624.158, 606 624.158 C 604.625 624.158, 604.063 624.385, 604.750 624.662 M 283.015 653 C 283.031 683.404, 283.671 688.285, 289.166 699.912 C 293.372 708.812, 306.668 722.069, 316.500 727.165 C 327.836 733.040, 341.901 737.070, 354.733 738.121 C 361.220 738.652, 434.301 738.880, 527.733 738.659 L 689.500 738.278 698.934 735.515 C 719.913 729.369, 731.484 721.272, 742.470 705.045 C 751.363 691.909, 751.397 691.734, 751.796 656.500 L 752.147 625.500 517.573 625.500 L 283 625.500 283.015 653 M 519.073 653.448 C 517.039 656.227, 513.843 660.750, 511.972 663.500 C 507.414 670.197, 501.065 677, 499.373 677 C 498.332 677, 497.963 675.003, 497.848 668.750 C 497.765 664.212, 497.652 658.137, 497.598 655.250 L 497.500 650 491 650.003 L 484.500 650.007 484.500 680.253 L 484.500 710.500 488.712 710.806 C 496.318 711.358, 497 710.384, 497 698.965 L 497 689 499.532 689 C 500.925 689, 503.573 688.370, 505.417 687.599 C 508.660 686.244, 508.808 686.285, 509.964 688.849 C 510.621 690.307, 514.072 695.888, 517.633 701.250 C 524.761 711.984, 524.953 712.081, 535.290 710.192 L 539.080 709.500 532.938 701.500 C 529.560 697.100, 525.630 691.475, 524.204 689 C 522.777 686.525, 520.561 683.091, 519.278 681.370 L 516.946 678.240 521.785 672.370 C 524.446 669.141, 527.696 664.925, 529.007 663 C 530.318 661.075, 532.877 657.732, 534.695 655.570 C 536.513 653.409, 538 651.344, 538 650.983 C 538 650.622, 534.573 649.892, 530.385 649.361 L 522.771 648.396 519.073 653.448 M 424.279 650.164 C 423.670 650.899, 422.060 654.425, 420.703 658 C 419.346 661.575, 415.897 669.900, 413.038 676.500 C 406.919 690.630, 401.001 706.755, 401 709.300 C 401 710.859, 401.769 711.060, 406.750 710.800 L 412.500 710.500 414.480 704.750 L 416.460 699 428.652 699 L 440.845 699 442.034 702.750 C 444.157 709.445, 445.644 711.011, 449.773 710.900 C 451.823 710.845, 454.484 710.508, 455.686 710.150 C 458.062 709.443, 457.645 708.187, 440.972 665.885 C 438.237 658.947, 436 652.534, 436 651.635 C 436 650.581, 435.157 650, 433.625 650 C 432.319 650, 429.931 649.736, 428.319 649.414 C 426.461 649.042, 424.982 649.317, 424.279 650.164 M 561.618 652.130 C 560.636 658.515, 560.140 683.531, 560.723 697.250 L 561.307 711 564.107 711 C 569.354 711, 571.865 709.091, 572.518 704.608 C 573.270 699.443, 573.683 651.378, 572.982 650.660 C 572.697 650.369, 570.140 649.822, 567.300 649.445 L 562.136 648.760 561.618 652.130 M 675.994 649.934 C 668.297 652.276, 662.399 657.800, 658.378 666.435 C 655.489 672.640, 655.050 685.791, 657.535 691.737 C 663.691 706.471, 678.986 714.794, 691.270 710.094 C 695.633 708.425, 705.105 700.853, 706.099 698.240 C 706.594 696.936, 707 691.849, 707 686.935 L 707 678 696 678 L 685 678 685 683.500 L 685 689 689.500 689 C 693.516 689, 694 689.245, 694 691.277 C 694 692.530, 693.299 694.555, 692.443 695.777 C 691.103 697.691, 689.972 698, 684.311 698 C 678.082 698, 677.561 697.815, 674.407 694.470 C 670.648 690.484, 669.014 685.718, 669.006 678.718 C 668.998 672.592, 670.899 668.104, 674.941 664.703 C 679.370 660.977, 687.081 660.887, 692.405 664.500 C 696.193 667.070, 698 667.614, 698 666.184 C 698 665.735, 699.800 664.357, 702 663.120 C 704.200 661.884, 706 660.471, 706 659.982 C 706 658.195, 696.561 651.947, 691.666 650.494 C 686.316 648.905, 680.106 648.683, 675.994 649.934 M 334.778 680.499 L 335.057 711 341.028 711 L 347 711 347.011 705.750 C 347.017 702.862, 347.301 698.813, 347.642 696.750 L 348.262 693 355.449 693 C 369.224 693, 379.010 687.778, 382.535 678.547 C 385.842 669.887, 380.597 657.451, 371.453 652.272 C 367.805 650.206, 366.227 650.032, 351 650.016 L 334.500 649.999 334.778 680.499 M 585.954 650.750 C 585.928 651.163, 585.968 658.250, 586.042 666.500 C 586.274 692.214, 586.828 708.913, 587.486 709.977 C 587.834 710.540, 590.606 711, 593.647 711 L 599.176 711 598.838 694.999 C 598.652 686.199, 598.797 678.999, 599.161 678.999 C 600.558 679.001, 605.244 685.585, 612.718 698.046 L 620.488 711 626.244 711 L 632 711 632 680.500 L 632 650 626.054 650 L 620.108 650 620.710 667.500 C 621.061 677.736, 620.935 684.981, 620.405 684.953 C 619.907 684.927, 615 677.919, 609.500 669.379 C 604 660.840, 598.427 652.986, 597.115 651.926 C 594.766 650.029, 586.055 649.111, 585.954 650.750 M 347.227 671.497 L 347.500 680.994 356.795 680.997 C 365.334 681, 366.291 680.800, 368.545 678.545 C 372.177 674.914, 371.967 668.813, 368.077 664.923 C 365.274 662.121, 364.778 662, 356.054 662 L 346.955 662 347.227 671.497 M 428.432 669.500 C 428.046 670.600, 426.438 674.802, 424.860 678.838 C 423.282 682.873, 422.173 686.473, 422.397 686.838 C 422.620 687.202, 425.953 687.352, 429.803 687.172 L 436.803 686.844 433.839 678.721 C 429.873 667.855, 429.333 666.934, 428.432 669.500" stroke="none" fill="#000000" fill-rule="evenodd"/>
</svg>