<svg xmlns="http://www.w3.org/2000/svg" width="1024" height="1024" viewBox="0 0 1024 1024" version="1.1">
	<path d="M 19.215 6.429 C 11.595 14.575, 6 22.970, 6 26.257 C 6 28.784, 6.098 28.814, 16.511 29.524 C 28.350 30.331, 28.294 30.284, 27.815 39 C 27.679 41.475, 27.665 47.663, 27.784 52.750 L 28 62 43.500 62 L 59 62 59.038 74.250 C 59.059 80.987, 59.320 88.188, 59.619 90.250 L 60.163 94 43.582 94 L 27 94 27 78 L 27 62 18.250 61.926 C 13.438 61.885, 8.488 61.663, 7.250 61.432 C 5.042 61.020, 5 61.192, 5.007 70.756 C 5.011 76.115, 5.301 83.537, 5.652 87.250 L 6.289 94 16.645 94 L 27 94 27 100.846 C 27 104.612, 27.292 111.812, 27.650 116.846 L 28.299 126 16.500 126 L 4.701 126 5.350 135.154 C 5.708 140.188, 6 147.649, 6 151.733 L 6 159.159 16.250 158.882 L 26.500 158.604 27 173.904 C 27.275 182.319, 27.207 189.676, 26.848 190.252 C 26.417 190.946, 22.789 191.065, 16.098 190.604 L 6 189.908 6 206.954 L 6 224 16.500 224 L 27 224 27.152 237.250 C 27.314 251.317, 27.309 254.019, 27.119 255.306 C 27.054 255.749, 22.163 256.027, 16.250 255.924 L 5.500 255.737 5.178 263.618 C 5.001 267.953, 5.154 275.212, 5.518 279.750 L 6.180 288 16.590 288 L 27 288 27 304 L 27 320 16.500 320 L 6 320 5.998 353.250 L 5.996 386.500 16.498 386.186 L 27 385.871 27 402.014 L 27 418.156 16.250 417.895 L 5.500 417.634 5.645 426.067 C 5.725 430.705, 5.838 438.212, 5.895 442.750 L 6 451 16.500 451 L 27 451 27 467.056 L 27 483.111 16.250 482.927 L 5.500 482.742 5.533 488.871 C 5.552 492.242, 5.663 500.063, 5.781 506.250 L 5.996 517.500 15.853 517.187 L 25.711 516.873 26.355 521.576 C 26.710 524.163, 27 531.841, 27 538.640 L 27 551 24.250 550.929 C 22.738 550.890, 18.012 550.540, 13.750 550.152 L 6 549.447 6 566.723 L 6 584 16.500 584 L 27 584 27 599.944 L 27 615.888 16.500 615.293 L 6 614.699 6 631.349 L 6 648 16.525 648 L 27.050 648 26.775 664.190 L 26.500 680.381 15.599 680.109 L 4.698 679.837 5.349 686.065 C 5.707 689.491, 6 697.162, 6 703.112 L 6 713.930 16.250 714.215 L 26.500 714.500 26.775 730.250 L 27.051 746 16.275 746 L 5.500 746.001 5.557 760.750 C 5.588 768.863, 5.701 776.513, 5.807 777.750 C 5.994 779.928, 6.335 780, 16.500 780 L 27 780 27 795.556 L 27 811.111 16.289 810.927 L 5.579 810.743 5.579 827.500 L 5.579 844.257 16.173 844.075 L 26.766 843.893 27.485 860.696 L 28.205 877.500 43.261 877.198 C 52.195 877.019, 58.558 877.288, 58.909 877.860 C 59.234 878.391, 59.500 885.727, 59.500 894.162 L 59.500 909.500 43.250 909.775 L 27 910.050 27 893.589 L 27 877.129 16.413 876.814 C 10.589 876.641, 5.639 876.687, 5.413 876.917 C 4.780 877.556, 4.940 899.852, 5.617 905.500 L 6.217 910.500 16.472 910.163 L 26.727 909.826 27.233 925.663 C 27.512 934.373, 27.507 941.901, 27.223 942.392 C 26.938 942.885, 21.847 943.028, 15.853 942.712 L 5 942.139 4.773 950.320 C 4.496 960.261, 4.738 967.447, 5.491 971.656 L 6.055 974.811 16.528 975.525 L 27 976.239 27 988.494 C 27 995.235, 27.279 1002.145, 27.620 1003.850 L 28.240 1006.949 43.370 1007.225 L 58.500 1007.500 58.790 1015.750 L 59.081 1024 75.540 1024 L 92 1024 92 1015.500 L 92 1007 107.355 1007 L 122.709 1007 123.254 991.750 C 123.553 983.363, 123.592 976.163, 123.340 975.750 C 123.088 975.337, 115.934 975, 107.441 975 L 92 975 92 959.085 L 92 943.171 98.425 942.835 C 101.959 942.651, 108.884 942.643, 113.814 942.818 L 122.777 943.136 123.389 946.193 C 123.725 947.874, 124 955.032, 124 962.100 L 124 974.949 139.750 975.225 L 155.500 975.500 155.775 991.250 L 156.051 1007 140.025 1007 L 124 1007 124 1015.500 L 124 1024 140 1024 L 156 1024 156 1015.608 C 156 1007.473, 156.077 1007.198, 158.521 1006.584 C 159.908 1006.236, 167.108 1006.256, 174.521 1006.628 L 188 1007.304 188 1015.652 L 188 1024 204.500 1024 L 221 1024 221 1015.500 L 221 1007 204.500 1007 L 188 1007 188 990.840 L 188 974.680 212.750 975.128 C 226.363 975.375, 233.787 975.429, 229.250 975.249 C 223.696 975.029, 220.974 974.526, 220.920 973.711 C 220.877 973.045, 220.909 966.022, 220.993 958.104 C 221.109 947.122, 220.832 943.509, 219.823 942.869 C 219.095 942.408, 211.570 942.024, 203.100 942.015 L 187.701 942 188.350 932.846 C 188.708 927.812, 189 920.661, 189 916.956 L 189 910.219 199.924 909.505 C 205.932 909.112, 213.132 909.106, 215.924 909.490 L 221 910.188 221 925.975 L 221 941.762 252.049 942.501 C 277.121 943.098, 283.377 943.520, 284.549 944.692 C 285.682 945.825, 286 949.282, 286 960.465 L 286 974.786 301.417 975.143 C 309.896 975.339, 317.068 975.734, 317.354 976.020 C 317.640 976.306, 318.015 983.281, 318.187 991.520 L 318.500 1006.500 334.250 1006.775 L 350 1007.051 350 1015.525 L 350 1024 366 1024 L 382 1024 382 1015.500 L 382 1007 366.628 1007 L 351.256 1007 350.539 993.070 C 350.144 985.408, 350.117 978.208, 350.478 977.070 C 351.102 975.103, 351.852 975, 365.486 975 C 373.379 975, 380.548 975.273, 381.418 975.607 C 382.766 976.124, 383 978.493, 383 991.607 L 383 1007 398.500 1007 L 414 1007 414 1015.500 L 414 1024 430 1024 L 446 1024 446 1015.500 L 446 1007 462 1007 L 478 1007 478 1015.500 L 478 1024 494 1024 L 510 1024 510 1015.486 L 510 1006.972 541.750 1007.236 L 573.500 1007.500 573.790 1015.750 L 574.081 1024 590 1024 L 605.919 1024 606.210 1015.750 L 606.500 1007.500 622.250 1007.225 L 638 1006.949 638 1015.475 L 638 1024 653.960 1024 L 669.919 1024 670.210 1015.750 L 670.500 1007.500 686.250 1007.225 L 702 1006.949 702 1015.475 L 702 1024 718.500 1024 L 735 1024 735 1015.500 L 735 1007 751 1007 L 767 1007 767 1015.500 L 767 1024 783 1024 L 799 1024 799 1015.500 L 799 1007 815 1007 L 831 1007 831 1015.500 L 831 1024 847 1024 L 863 1024 863 1018.625 C 863 1015.669, 863.281 1011.844, 863.625 1010.125 L 864.250 1007 879.792 1007 C 888.340 1007, 895.045 1006.712, 894.693 1006.360 C 894.341 1006.008, 887.794 1005.763, 880.143 1005.816 L 866.233 1005.913 865.616 1002.831 C 865.277 1001.137, 864.993 998.569, 864.985 997.125 C 864.976 995.681, 864.518 993.825, 863.967 993 C 863.251 991.929, 863.001 993.358, 863.092 998 C 863.162 1001.575, 863.170 1005.063, 863.110 1005.750 C 863.027 1006.693, 859.075 1007, 847 1007 L 831 1007 831 991.567 C 831 977.637, 831.174 976.080, 832.784 975.569 C 833.765 975.257, 845.802 974.972, 859.534 974.935 C 873.265 974.897, 886.862 974.620, 889.750 974.318 L 895 973.770 895 958.410 L 895 943.051 879.250 942.775 L 863.500 942.500 863.195 931 C 863.027 924.675, 863.167 917.587, 863.506 915.250 L 864.123 911 879.561 911 L 895 911 895 926.386 L 895 941.773 899.676 942.474 C 902.248 942.860, 909.448 942.857, 915.676 942.468 L 927 941.760 927 958.355 L 927 974.949 911.250 975.225 L 895.500 975.500 895.381 990.174 L 895.261 1004.849 897.881 1005.526 C 901.222 1006.390, 920.521 1006.958, 924.585 1006.312 L 927.669 1005.822 927.201 990.411 L 926.732 975 942.892 975 L 959.051 975 958.775 990.750 L 958.500 1006.500 943.250 1006.776 L 928 1007.052 928 1015.526 L 928 1024 943.985 1024 L 959.969 1024 959.352 1018.096 C 959.013 1014.848, 959.028 1011.023, 959.387 1009.596 L 960.038 1007 975.383 1007 L 990.728 1007 991.364 1011.640 C 991.714 1014.191, 992 1018.016, 992 1020.140 L 992 1024 998.750 1023.978 C 1006.001 1023.954, 1010.694 1022.319, 1019.250 1016.836 C 1023.946 1013.826, 1023.999 1013.733, 1023.884 1008.646 C 1023.820 1005.816, 1023.562 1004.288, 1023.311 1005.250 C 1022.900 1006.821, 1021.283 1007, 1007.534 1007 C 994.487 1007, 992.124 1006.765, 991.607 1005.418 C 991.273 1004.548, 991 997.348, 991 989.418 L 991 975 1007 975 L 1023 975 1023 961.625 C 1023 954.269, 1022.719 946.844, 1022.375 945.125 L 1021.750 942 1006.375 942 L 991 942 991 926 L 991 910 1006.500 910 L 1022 910 1022.114 913.250 C 1023.114 941.747, 1023.503 930.014, 1023.514 871 C 1023.522 831.675, 1023.388 801.814, 1023.216 804.642 L 1022.903 809.784 1007.701 810.215 C 999.341 810.451, 992.181 810.484, 991.791 810.289 C 991.401 810.093, 991.176 795.660, 991.291 778.216 L 991.500 746.500 1006.750 746.224 L 1022 745.948 1022 761.974 C 1022 772.467, 1022.361 778, 1023.047 778 C 1023.756 778, 1023.910 772.610, 1023.525 761.250 C 1022.767 738.906, 1022.766 717.914, 1023.522 698.604 C 1023.901 688.948, 1023.773 682.471, 1023.197 682.104 C 1022.608 681.729, 1022.563 676.563, 1023.077 668.500 C 1024.349 648.557, 1024.225 584.257, 1022.914 583.447 C 1022.153 582.977, 1022.057 577.939, 1022.593 566.638 C 1023.014 557.762, 1023.390 542.850, 1023.429 533.500 L 1023.500 516.500 1008.330 516 C 999.986 515.725, 992.786 515.126, 992.330 514.669 C 991.873 514.213, 991.357 506.675, 991.181 497.919 L 990.862 482 1005.963 482 C 1023.201 482, 1021.802 481.158, 1022.965 492.235 L 1023.728 499.500 1023.864 490.750 C 1023.955 484.874, 1023.632 482, 1022.879 482 C 1022.078 482, 1021.933 478.362, 1022.369 469.250 C 1024.099 433.109, 1024.263 419.860, 1023.009 417.516 C 1022.054 415.733, 1021.932 411.561, 1022.504 400.331 C 1023.380 383.146, 1023.371 361.001, 1022.478 339.074 C 1022.045 328.417, 1022.199 322.997, 1022.978 321.542 C 1023.752 320.096, 1023.921 314.589, 1023.517 303.968 C 1022.949 289.013, 1022.887 282.088, 1022.979 243.500 C 1023.031 221.750, 1023.007 189.899, 1022.905 144.500 C 1022.888 136.800, 1023.164 122.513, 1023.520 112.750 C 1024.015 99.122, 1023.883 95, 1022.949 95 C 1022.014 95, 1021.899 98.603, 1022.454 110.526 L 1023.175 126.052 1007.338 125.776 L 991.500 125.500 991.225 109.873 C 990.961 94.827, 991.027 94.226, 993.008 93.708 C 994.139 93.412, 1001.065 93.422, 1008.397 93.729 L 1021.730 94.288 1022.339 89.894 C 1022.674 87.477, 1023.252 73.013, 1023.623 57.750 C 1024.170 35.290, 1024.050 30, 1022.997 30 C 1021.962 30, 1021.814 26.943, 1022.273 15 L 1022.849 0 1006.925 0 L 991 0 991 14.383 C 991 31.489, 992.785 29.966, 972.700 29.986 L 958.900 30 959.200 14.999 L 959.500 -0.003 943.250 -0.001 L 927 0 927 15 L 927 30 910.908 30 L 894.817 30 895.158 14.999 L 895.500 -0.002 879.250 -0.001 L 863 0 863 15 L 863 30 846.876 30 L 830.752 30 831.179 15 L 831.605 -0 815.302 -0 L 799 0 799 15 L 799 30 783 30 L 767 30 767 15 L 767 0 751.027 0 L 735.053 0 734.777 14.750 L 734.500 29.500 718.500 29.500 L 702.500 29.500 702.878 14.750 L 703.257 0 686.531 0 L 669.805 0 670.145 14.750 L 670.485 29.500 654.243 29.775 L 638 30.050 638 15.025 L 638 0 622 0 L 606 0 606 15 L 606 30 590 30 L 574 30 574 15 L 574 0 558.027 0 L 542.053 0 541.777 14.730 L 541.500 29.460 525.750 29.480 L 510.001 29.500 510 14.750 L 510 0 494 0 L 478 0 478 15.157 L 478 30.313 461.821 29.676 C 451.497 29.270, 445.389 28.629, 444.942 27.907 C 444.463 27.131, 444.125 27.110, 443.871 27.842 C 443.634 28.523, 438.253 28.964, 429 29.061 L 414.500 29.212 414.223 14.606 L 413.947 -0 398.473 -0 L 383 0 383 14.500 L 383 29 397.418 29 C 405.348 29, 412.539 29.270, 413.397 29.599 C 414.756 30.120, 414.876 32.170, 414.329 45.441 L 413.700 60.684 419.997 61.342 C 423.460 61.704, 437.927 62, 452.147 62 L 478 62 478.139 74.250 C 478.263 85.204, 478.389 88.419, 478.863 92.750 C 478.966 93.690, 482.840 94, 494.500 94 L 510 94 510.006 101.750 C 510.009 106.013, 510.301 113.212, 510.654 117.750 L 511.296 126 526.648 126 L 542 126 542 110 L 542 94 558 94 L 574 94 574 110 L 574 126 589.975 126 L 605.949 126 606.225 110.250 L 606.500 94.500 622.250 94.225 L 638 93.949 638.158 109.225 C 638.244 117.626, 638.287 125.104, 638.253 125.842 C 638.212 126.735, 638.911 126.990, 640.346 126.605 C 641.531 126.287, 648.800 126.022, 656.500 126.015 L 670.500 126.003 670.170 112.387 C 669.682 92.220, 668.099 94, 686.519 94 L 702 94 702 99.344 C 702 102.284, 702.293 109.484, 702.652 115.344 L 703.304 126 719.127 126 L 734.949 126 735.225 110.250 L 735.500 94.500 751 94.500 L 766.500 94.500 767 110 L 767.500 125.500 771.750 125.545 C 774.087 125.570, 780.928 125.683, 786.950 125.795 L 797.901 126 798.575 131.961 L 799.250 137.923 809.875 143.304 C 815.719 146.263, 822.750 150.086, 825.500 151.799 L 830.500 154.912 830.777 140.456 L 831.053 126 847.027 126 L 863 126 863 142.406 L 863 158.812 849.250 158.357 L 835.500 157.902 841 162.671 C 844.025 165.294, 850.145 170.955, 854.599 175.251 L 862.699 183.061 863.343 174.780 C 863.698 170.226, 863.991 164.588, 863.994 162.250 L 864 158 879.475 158 L 894.949 158 895.225 142.250 L 895.500 126.500 911.198 126.225 L 926.897 125.950 927.198 140.225 C 927.644 161.337, 929.669 159, 910.930 159 L 895 159 895 175.107 C 895 190.045, 894.873 191.164, 893.250 190.520 C 891.528 189.837, 869.910 189.757, 869.236 190.431 C 869.046 190.621, 871.662 194.989, 875.050 200.138 C 890.603 223.775, 898.478 246.880, 899.882 273 C 901.098 295.625, 901.263 738.054, 900.058 747.275 C 896.274 776.247, 882.791 808.087, 864.725 830.713 C 858.514 838.492, 854.984 841.804, 842.678 851.400 C 826.245 864.213, 810.503 872.096, 788.773 878.393 C 768.885 884.156, 779.876 883.945, 521 883.542 C 311.291 883.216, 282.229 882.988, 272.641 881.595 C 254.952 879.026, 247.277 876.581, 229.500 867.849 C 213.801 860.138, 205.588 854.776, 196.974 846.614 C 190.639 840.612, 189.768 840.090, 188.390 841.467 C 187.145 842.712, 183.957 843, 171.429 843 L 156 843 156 827.500 L 156 812 161.459 812 L 166.917 812 162.762 804.250 C 160.477 799.987, 158.243 796.349, 157.797 796.165 C 157.352 795.980, 157.201 795.484, 157.462 795.062 C 157.723 794.640, 157.388 793.544, 156.718 792.626 C 155.738 791.283, 155.566 792.888, 155.840 800.847 L 156.179 810.735 141.144 811.460 C 132.875 811.859, 125.634 811.892, 125.054 811.534 C 124.387 811.121, 124 805.038, 124 794.941 L 124 779 138 779 C 145.700 779, 152 778.629, 152 778.175 C 152 777.721, 150.855 774.009, 149.456 769.925 C 148.056 765.841, 146.117 758.900, 145.146 754.500 L 143.382 746.500 139.941 746.254 C 138.048 746.118, 133.688 745.745, 130.250 745.424 L 124 744.841 124 728.920 L 124 713 132.500 713 L 141 713 141 705.154 C 141 700.838, 140.713 693.266, 140.363 688.327 L 139.725 679.347 131.837 679.803 L 123.949 680.260 124.225 663.880 L 124.500 647.500 132.853 647.208 L 141.207 646.916 140.853 630.964 L 140.500 615.012 132.225 615.006 L 123.949 615 124.225 599.250 L 124.500 583.500 132.831 583.208 L 141.162 582.916 140.831 566.463 L 140.500 550.009 132.225 550.004 L 123.950 550 124.225 533.750 L 124.500 517.500 132.750 517.210 L 141 516.919 141 499.710 L 141 482.500 132.500 482.853 L 124 483.205 124 467.739 L 124 452.272 128.640 451.636 C 131.191 451.286, 135.016 451, 137.140 451 L 141 451 141 434 L 141 417 132.474 417 L 123.948 417 124.224 401.750 L 124.500 386.500 132.750 386.210 L 141 385.919 141 369.460 L 141 353 132.500 353 L 124 353 124 321 L 124 289 132.500 289 C 140.640 289, 141.001 288.905, 141.029 286.750 C 141.110 280.482, 142.983 259.208, 143.593 257.617 C 144.248 255.911, 143.644 255.815, 134.397 256.146 L 124.500 256.500 124.500 240.500 L 124.500 224.500 139.653 224.224 C 152.876 223.984, 154.902 223.729, 155.566 222.224 C 155.984 221.276, 156.528 213.827, 156.774 205.670 L 157.222 190.841 166.020 191.119 L 174.818 191.398 181.909 183.805 L 189 176.212 189 167.734 L 189 159.257 200.105 158.538 C 209.637 157.920, 211.869 157.431, 215.855 155.091 L 220.500 152.363 220.778 139.273 L 221.057 126.182 226.278 125.841 C 229.150 125.653, 236.225 125.725, 242 126 L 252.500 126.500 252.805 131.836 C 253.068 136.433, 253.345 137.065, 254.805 136.402 C 255.737 135.979, 263.002 133.983, 270.950 131.967 C 278.897 129.950, 285.572 127.783, 285.783 127.150 C 286.062 126.314, 281.634 126, 269.559 126 L 252.950 126 253.225 109.750 L 253.500 93.500 269.091 93.863 L 284.681 94.226 285.297 78.456 C 285.636 69.783, 286.318 62.282, 286.813 61.787 C 287.331 61.269, 294.163 61.187, 302.881 61.593 L 318.049 62.299 317.775 77.899 L 317.500 93.500 301.750 93.775 L 286 94.051 286 109.525 L 286 125 294.849 125 C 299.716 125, 307.029 125.282, 311.099 125.626 L 318.500 126.253 318.500 110.128 C 318.500 101.260, 318.837 94.003, 319.250 94.002 C 319.663 94.001, 326.750 94, 335 94 L 350 94 350 110 L 350 126 382.250 125.778 C 399.988 125.656, 407.544 125.419, 399.042 125.251 C 388.239 125.038, 383.351 124.577, 382.808 123.723 C 382.380 123.050, 382.024 116.088, 382.015 108.250 L 382 94 366 94 L 350 94 350.015 78.750 C 350.024 70.362, 350.374 62.959, 350.795 62.298 C 351.368 61.396, 355.423 61.271, 367.029 61.798 L 382.500 62.500 382.675 77.878 L 382.851 93.257 398.425 93.745 L 414 94.232 414 78.116 L 414 62 398 62 L 382 62 382 46 L 382 30 367.582 30 C 359.652 30, 352.452 29.727, 351.582 29.393 C 350.241 28.878, 350 26.595, 350 14.393 L 350 0 334 0 L 318 0 318 14.378 L 318 28.757 333.460 29.172 C 341.964 29.401, 349.110 29.793, 349.340 30.044 C 349.571 30.295, 349.926 37.475, 350.130 46 L 350.500 61.500 334.250 61.775 L 318 62.050 318 46.025 L 318 30 307.750 29.773 C 302.113 29.648, 295.025 29.536, 292 29.523 L 286.500 29.500 286.223 14.750 L 285.947 -0 269.473 -0 L 253 0 253 14.500 L 253 29 258.844 29 C 262.059 29, 269.484 29.293, 275.344 29.652 L 286 30.304 286 46.152 L 286 62 269.500 62 L 253 62 253 46.097 L 253 30.194 237 29.469 L 221 28.744 221 14.372 L 221 0 204.500 0 L 188 0 188 15.025 L 188 30.051 172.250 29.775 L 156.500 29.500 156.223 14.750 L 155.947 -0 139.973 -0 L 124 0 124 15 L 124 30 108 30 L 92 30 92 15 L 92 0 75.390 0 L 58.780 0 59.140 14.692 L 59.500 29.383 44.016 29.106 C 35.500 28.953, 28.187 28.616, 27.766 28.355 C 27.345 28.095, 27 21.609, 27 13.941 C 27 6.273, 26.602 0, 26.115 0 C 25.628 0, 22.523 2.893, 19.215 6.429 M 865.750 29.639 C 864.369 30.040, 864 31.258, 864 35.418 C 864 38.317, 863.707 45.473, 863.350 51.320 L 862.699 61.951 847.100 62.225 L 831.500 62.500 831.225 78.250 L 830.949 94 814.975 94 L 799 94 799 78 L 799 62 783 62 L 767 62 767 46 L 767 30 750.975 30 L 734.950 30 735.225 46.098 L 735.500 62.196 751.250 62.054 L 767 61.912 767 77.956 L 767 94 780 94.125 C 787.150 94.194, 793.450 94.362, 794 94.500 C 794.550 94.638, 795.900 94.806, 797 94.875 C 798.909 94.994, 799 95.708, 799 110.500 L 799 126 815 126 L 831 126 831 110 L 831 94 847 94 L 863 94 863 78 L 863 62 879 62 L 895 62 895 46 L 895 30 885.640 30 C 880.491 30, 874.304 29.805, 871.890 29.566 C 869.475 29.327, 866.712 29.360, 865.750 29.639 M 992.120 29.926 C 991.283 30.443, 991.026 35.083, 991.223 46.076 L 991.500 61.500 1007.338 61.776 L 1023.175 62.052 1022.463 46.276 C 1022.071 37.599, 1021.694 30.447, 1021.625 30.383 C 1021.009 29.809, 993.012 29.375, 992.120 29.926 M 60 42.875 C 60 49.956, 59.719 57.156, 59.375 58.875 L 58.750 62 75.375 62 L 92 62 92 78 L 92 94 76 94 L 60 94 60 110 L 60 126 76 126 L 92 126 92.001 142.250 L 92.002 158.500 108.002 158.500 L 124.001 158.500 124.001 142.250 L 124 126 139.975 126 L 155.950 126 156.225 141.957 L 156.500 157.914 172.859 158.378 L 189.218 158.842 188.799 142.671 L 188.380 126.500 172.190 126.225 L 156 125.950 156 109.897 L 156 93.843 172.250 94.105 L 188.500 94.367 188.458 89.684 C 188.435 87.108, 188.323 79.825, 188.208 73.500 L 188 62 172 62 L 156 62 156 46 L 156 30 140 30 L 124 30 124 46 L 124 62 140 62 L 156 62 156 78 L 156 94 140.025 94 L 124.051 94 123.775 78.250 L 123.500 62.500 107.750 62.225 L 92 61.949 92 47.556 C 92 39.640, 91.727 32.452, 91.393 31.582 C 90.876 30.234, 88.507 30, 75.393 30 L 60 30 60 42.875 M 188.878 42.750 C 188.811 49.763, 188.699 56.850, 188.628 58.500 L 188.500 61.500 204.750 61.775 L 221 62.050 221 78.025 L 221 94 205 94 L 189 94 188.962 106.250 C 188.941 112.987, 188.680 120.188, 188.381 122.250 L 187.837 126 204.418 126 L 221 126 221 110 L 221 94 237 94 L 253 94 253 78 L 253 62 237 62 L 221 62 221 46 L 221 30 205 30 L 189 30 188.878 42.750 M 443.755 32.500 C 444.018 33.875, 444.406 35, 444.617 35 C 444.827 35, 445 33.875, 445 32.500 C 445 31.125, 444.612 30, 444.139 30 C 443.665 30, 443.492 31.125, 443.755 32.500 M 478 46 L 478 62 494 62 L 510 62 510 78 L 510 94 526 94 L 542 94 542 78 L 542 62 558 62 L 574 62 574 78 L 574 94 590 94 L 606 94 606 78 L 606 62 622 62 L 638 62 638 46 L 638 30 622 30 L 606 30 606 46 L 606 62 590 62 L 574 62 574 46 L 574 30 558 30 L 542 30 542 46 L 542 62 526 62 L 510 62 510 46 L 510 30 494 30 L 478 30 478 46 M 671 46 L 671 62 687.154 62 L 703.309 62 702.715 77.952 C 702.179 92.381, 702.283 93.948, 703.811 94.361 C 706.361 95.050, 724.843 95.078, 730.275 94.401 L 735.050 93.805 734.775 78.153 L 734.500 62.500 718.883 62.225 L 703.265 61.951 702.633 57.336 C 702.285 54.798, 702 47.609, 702 41.360 L 702 30 686.500 30 L 671 30 671 46 M 799.667 30.667 C 799.300 31.033, 799 38.185, 799 46.560 C 799 57.884, 799.320 61.878, 800.250 62.143 C 800.938 62.339, 808.138 62.364, 816.250 62.199 L 831 61.897 831 45.949 L 831 30 815.667 30 C 807.233 30, 800.033 30.300, 799.667 30.667 M 927.498 43.250 C 927.109 50.538, 926.950 57.625, 927.145 59 L 927.500 61.500 943.250 61.775 L 959 62.051 959 46.025 L 959 30 943.602 30 L 928.205 30 927.498 43.250 M 638.854 62.750 C 638.774 63.163, 638.661 70.362, 638.604 78.749 L 638.500 93.998 654.201 93.999 L 669.902 94 670.201 78.414 C 670.365 69.841, 670.313 62.641, 670.083 62.414 C 669.324 61.659, 639.003 61.986, 638.854 62.750 M 895.817 64.750 C 895.716 66.263, 895.595 70.200, 895.546 73.500 C 895.498 76.800, 895.356 82.763, 895.229 86.750 L 895 94 879.650 94 L 864.299 94 863.650 103.154 C 863.292 108.188, 863 115.388, 863 119.154 L 863 126 879 126 L 895 126 895 110 L 895 94 911 94 L 927 94 927 78 L 927 62 911.500 62 L 896 62 895.817 64.750 M 959.642 65.750 C 959.301 67.813, 959.017 75.013, 959.011 81.750 L 959 94 943.607 94 C 930.493 94, 928.124 94.234, 927.607 95.582 C 926.729 97.871, 926.859 125.824, 927.750 126.191 C 928.163 126.361, 935.362 126.365, 943.750 126.200 L 959 125.900 959 109.950 L 959 94 975 94 L 991 94 991 78 L 991 62 975.631 62 L 960.262 62 959.642 65.750 M 445.183 81 C 444.891 87.139, 444.095 88.022, 438.414 88.509 C 435.711 88.740, 431.250 89.615, 428.500 90.454 C 425.750 91.292, 421.700 92.028, 419.500 92.089 C 416.015 92.185, 415.822 92.302, 418 93 C 419.375 93.440, 426.027 93.845, 432.781 93.900 C 442.211 93.977, 445.182 93.688, 445.578 92.656 C 445.862 91.917, 445.937 87.980, 445.746 83.906 C 445.537 79.464, 445.312 78.301, 445.183 81 M 92 110 L 92 126 108 126 L 124 126 124 110 L 124 94 108 94 L 92 94 92 110 M 446.005 110 L 446.002 125.500 466.251 125.500 C 477.388 125.500, 484.587 125.362, 482.250 125.193 L 478 124.885 478 109.331 L 478 93.778 462.004 94.139 L 446.008 94.500 446.005 110 M 27.770 129.112 C 27.519 130.823, 27.212 138.023, 27.087 145.112 L 26.860 158 43.430 158 L 60 158 60 174.500 L 60 191 76 191 L 92 191 92 207.500 L 92 224 108 224 L 124 224 124 209.082 C 124 200.877, 123.727 193.452, 123.393 192.582 C 122.876 191.235, 120.515 191, 107.483 191 L 92.179 191 91.840 175.582 C 91.653 167.101, 91.204 159.868, 90.842 159.506 C 89.714 158.382, 86.922 158.155, 73.250 158.077 L 60 158 60 152.656 C 60 149.716, 59.707 142.516, 59.348 136.656 L 58.696 126 43.462 126 L 28.227 126 27.770 129.112 M 959.692 126.642 C 959.311 127.022, 959 134.233, 959 142.667 L 959 158 943.625 158 L 928.250 158 927.625 161.125 C 927.281 162.844, 927 170.216, 927 177.508 L 927 190.767 924.250 191.343 C 922.737 191.660, 915.721 191.754, 908.658 191.552 C 895.911 191.188, 895.819 191.201, 896.394 193.343 C 896.712 194.529, 896.979 196.259, 896.986 197.187 C 897.001 198.997, 906.770 209.018, 908.475 208.973 C 909.039 208.958, 907.819 207.383, 905.765 205.473 C 903.710 203.563, 902.384 202, 902.819 202 C 904.566 202, 910.043 208.725, 909.483 210.184 C 909.119 211.132, 909.852 212.328, 911.429 213.361 C 914.459 215.347, 917.713 221, 915.826 221 C 913.864 221, 916.237 222.801, 918.500 223.029 C 919.600 223.140, 921.962 223.178, 923.750 223.115 L 927 223 927 207 L 927 191 943 191 L 959 191 959 175.051 L 959 159.103 973.365 158.801 C 981.266 158.636, 988.466 158.645, 989.365 158.823 C 990.796 159.106, 991 161.131, 991 175.073 L 991 191 1006.430 191 C 1024.605 191, 1022.740 193.216, 1022 172.500 L 1021.500 158.500 1006.275 158.224 L 991.051 157.948 990.775 142.224 L 990.500 126.500 975.442 126.225 C 967.160 126.074, 960.072 126.261, 959.692 126.642 M 124.692 158.642 C 124.311 159.022, 124 166.458, 124 175.167 L 124 191 140.025 191 L 156.050 191 155.775 174.750 L 155.500 158.500 140.442 158.225 C 132.160 158.074, 125.072 158.261, 124.692 158.642 M 27.498 194.250 C 27.171 196.037, 27.038 203.350, 27.202 210.500 L 27.500 223.500 39 223.522 C 45.325 223.534, 52.638 223.646, 55.250 223.772 L 60 224 60 240 L 60 256 76 256 L 92 256 91.991 245.250 C 91.987 239.338, 91.699 232.137, 91.352 229.250 L 90.721 224 75.361 224 L 60 224 59.989 211.250 C 59.983 204.238, 59.699 196.813, 59.358 194.750 L 58.738 191 43.414 191 L 28.091 191 27.498 194.250 M 959.692 191.642 C 959.311 192.022, 959 199.458, 959 208.167 L 959 224 943.652 224 L 928.304 224 928.199 240 L 928.094 256 943.547 256 L 959 256 959 240 L 959 224 974.975 224 L 990.950 224 991.225 240.250 L 991.500 256.500 1006.422 256.778 C 1014.783 256.933, 1021.757 256.643, 1022.282 256.118 C 1022.848 255.552, 1022.930 249.007, 1022.488 239.590 L 1021.758 224 1006.404 224 L 991.050 224 990.775 207.750 L 990.500 191.500 975.442 191.225 C 967.160 191.074, 960.072 191.261, 959.692 191.642 M 583.591 204.750 C 580.189 211.922, 570.105 228.119, 545.458 266 C 543.132 269.575, 537.954 277.675, 533.952 284 C 529.949 290.325, 521.957 302.925, 516.192 312 C 500.807 336.218, 502.066 333.404, 505.143 336.697 C 506.583 338.239, 509.196 342.200, 510.949 345.500 C 514.496 352.179, 516.796 355.571, 517.340 354.927 C 518.478 353.578, 531.981 331.989, 533.315 329.386 C 535.517 325.088, 567.520 273.306, 575.057 261.847 C 578.437 256.706, 582.313 250.318, 583.669 247.651 C 585.025 244.983, 586.340 243.007, 586.592 243.258 C 586.843 243.510, 586.629 253.792, 586.115 266.108 C 585.355 284.316, 584.808 289.528, 583.187 294 C 580.613 301.102, 575.791 311.351, 572.473 316.775 L 569.857 321.049 574.679 323.124 C 586.340 328.143, 590.613 330.231, 600.009 335.505 C 606.162 338.958, 610 341.727, 610 342.712 C 610 344.612, 607.361 348.184, 596.257 361.317 C 591.692 366.717, 584.860 375.267, 581.074 380.317 C 577.289 385.368, 572.981 390.625, 571.501 392 C 570.021 393.375, 568.137 395.793, 567.315 397.374 C 566.009 399.886, 566.003 400.432, 567.271 401.699 C 568.069 402.497, 570.487 403.547, 572.645 404.032 C 574.803 404.516, 579.122 406.082, 582.243 407.511 L 587.918 410.109 585.209 413.283 C 583.719 415.029, 580.535 418.311, 578.134 420.576 C 574.684 423.829, 573.911 425.145, 574.451 426.847 C 574.827 428.031, 575.503 429, 575.953 429 C 576.404 429, 578.664 425.816, 580.976 421.924 C 583.288 418.032, 587.227 412.744, 589.728 410.174 C 592.230 407.603, 598.617 398.750, 603.922 390.500 C 609.226 382.250, 619.605 366.725, 626.986 356 C 634.367 345.275, 643.208 332.225, 646.633 327 C 650.058 321.775, 653.607 316.672, 654.521 315.659 C 656.080 313.931, 655.984 313.442, 652.943 307.659 C 651.162 304.272, 648.352 299.475, 646.699 297 C 643.667 292.460, 624.254 262.340, 607.707 236.500 C 602.776 228.800, 595.831 217.662, 592.274 211.750 C 588.716 205.838, 585.708 201, 585.588 201 C 585.468 201, 584.570 202.688, 583.591 204.750 M 897.079 203.583 C 897.127 204.748, 897.364 204.985, 897.683 204.188 C 897.972 203.466, 897.936 202.603, 897.604 202.271 C 897.272 201.939, 897.036 202.529, 897.079 203.583 M 415 224.317 C 415 225.658, 388.455 268.802, 382.586 277 C 380.814 279.475, 374.495 289.375, 368.544 299 C 358.667 314.975, 352.967 323.975, 335.502 351.163 C 317.905 378.558, 300 407.656, 300 408.857 C 300 409.610, 301.158 411.637, 302.573 413.363 C 305.885 417.401, 313 428.777, 313 430.034 C 313 433.657, 316.820 428.065, 334.198 399 C 339.953 389.375, 351.063 371.216, 358.886 358.646 C 366.709 346.077, 375.510 331.677, 378.443 326.646 C 387.280 311.491, 399.463 291.049, 405.349 281.500 C 408.401 276.550, 412.252 269.575, 413.908 266 L 416.919 259.500 416.486 265.500 C 416.247 268.800, 415.810 278.700, 415.515 287.500 C 415.219 296.300, 414.299 306.373, 413.469 309.885 C 412.151 315.462, 407.829 324.705, 403.268 331.702 C 401.909 333.787, 402.031 333.986, 405.584 335.471 C 407.647 336.333, 416.042 340.267, 424.240 344.214 L 439.145 351.391 433.322 356.992 C 430.120 360.072, 421.875 368.326, 415 375.335 C 408.125 382.343, 398.815 390.872, 394.311 394.288 C 389.807 397.705, 386.432 400.807, 386.811 401.183 C 387.190 401.558, 391.100 403.057, 395.500 404.513 C 399.900 405.970, 407.550 408.644, 412.500 410.456 C 417.450 412.268, 424.762 414.530, 428.750 415.483 C 433.130 416.530, 436 417.729, 436 418.512 C 436 422.002, 422.506 442.617, 403.933 467.500 C 400.238 472.450, 395.526 479.425, 393.462 483 C 385.302 497.132, 373.421 512, 370.288 512 C 369.579 512, 369 512.361, 369 512.803 C 369 513.744, 378.947 529.727, 382.399 534.334 C 383.704 536.076, 385.678 539.307, 386.787 541.516 L 388.802 545.532 424.925 545.463 L 461.048 545.393 463.370 541.947 C 464.647 540.051, 468.833 532.875, 472.674 526 C 476.514 519.125, 483.269 507.875, 487.685 501 C 492.100 494.125, 497.876 484.900, 500.520 480.500 C 503.164 476.100, 508.707 467.325, 512.838 461 C 530.089 434.583, 541.071 416.522, 540.795 415.023 C 540.513 413.493, 533.681 402.808, 509.500 366.079 C 503.450 356.890, 492.458 340.175, 485.072 328.936 C 477.687 317.696, 465.691 299.500, 458.415 288.500 C 445.970 269.687, 440.866 261.709, 423.710 234.250 C 417.074 223.630, 415 221.264, 415 224.317 M 27.654 264.250 C 27.301 268.788, 27.009 275.988, 27.006 280.250 L 27 288 43.644 288 L 60.288 288 59.673 272.250 C 59.334 263.587, 59.044 256.387, 59.029 256.250 C 59.013 256.113, 52.092 256, 43.648 256 L 28.296 256 27.654 264.250 M 92.441 257.294 C 92.168 258.006, 92.069 265.262, 92.222 273.420 L 92.500 288.252 98.250 288.189 C 101.412 288.154, 108.500 288.097, 114 288.063 L 124 288 124 272.650 L 124 257.299 114.846 256.650 C 100.279 255.616, 93.004 255.825, 92.441 257.294 M 959.999 272.750 L 959.999 288.500 973.537 288.151 C 993.376 287.640, 991.556 285.908, 991.202 304.955 L 990.905 321 977.702 321.070 C 969.395 321.115, 965.242 321.459, 966.500 322 C 968.181 322.723, 967.987 322.871, 965.282 322.930 C 962.417 322.992, 962.152 323.236, 962.862 325.155 C 963.344 326.458, 963.113 328.895, 962.279 331.315 C 961.304 334.147, 961.219 335.517, 961.989 335.993 C 962.758 336.468, 962.773 337.468, 962.039 339.398 C 960.547 343.321, 960.724 343.996, 963.250 344.030 C 965.266 344.058, 965.317 344.167, 963.742 345.085 C 962.775 345.648, 961.538 345.832, 960.992 345.495 C 960.402 345.131, 960.001 346.426, 960.003 348.691 L 960.006 352.500 975.253 352.500 L 990.500 352.500 990.775 336.750 L 991.051 321 1007.025 321 L 1023 321 1022.993 311.750 C 1022.989 306.663, 1022.705 299.530, 1022.362 295.899 L 1021.739 289.299 1007.191 288.638 C 999.190 288.274, 992.388 287.722, 992.077 287.410 C 991.765 287.098, 991.346 280.129, 991.146 271.922 L 990.782 257 975.391 257 L 960 257 959.999 272.750 M 60.486 289.023 C 60.236 289.428, 59.912 298.475, 59.766 309.129 C 59.620 319.783, 59.275 326.812, 59 324.750 L 58.500 321 43.397 320.447 L 28.295 319.894 27.660 328.697 C 27.311 333.539, 27.018 348.139, 27.011 361.142 C 26.998 381.798, 27.196 384.861, 28.580 385.392 C 29.451 385.727, 36.604 386, 44.475 386 C 55.045 386, 58.890 385.673, 59.184 384.750 C 59.403 384.063, 59.410 376.904, 59.199 368.843 L 58.816 354.186 47.158 353.546 C 30.195 352.615, 29.207 352.339, 41.500 351.965 C 56.148 351.520, 56.379 351.502, 57.670 350.704 C 58.286 350.323, 59.053 350.695, 59.374 351.531 C 59.868 352.819, 62.368 353.009, 75.728 352.776 L 91.500 352.500 91.352 333 C 91.271 322.275, 91.158 307.875, 91.102 301 L 90.999 288.500 75.969 288.394 C 67.703 288.336, 60.735 288.619, 60.486 289.023 M 956.360 291.436 C 956.283 292.775, 956.767 294.080, 957.435 294.337 C 958.196 294.629, 958.560 293.997, 958.409 292.652 C 958.276 291.468, 958.129 290.163, 958.083 289.750 C 957.877 287.892, 956.486 289.253, 956.360 291.436 M 674.298 304.239 C 670.447 310.433, 666.492 317.060, 665.510 318.967 C 664.528 320.874, 661.371 326.049, 658.495 330.467 C 655.619 334.885, 649.434 344.575, 644.752 352 C 640.069 359.425, 625.901 381.025, 613.265 400 C 600.630 418.975, 589.581 435.883, 588.712 437.573 C 587.843 439.263, 586.427 441.230, 585.566 441.945 C 583.533 443.632, 583.579 445.877, 585.695 448.215 C 586.626 449.245, 589.022 453.105, 591.019 456.794 C 593.015 460.482, 595.278 463.500, 596.047 463.500 C 597.773 463.500, 610.877 443.809, 636.975 402 C 645.146 388.910, 660.117 364.869, 666.866 354 C 670.452 348.225, 675.315 339.722, 677.672 335.104 C 680.029 330.487, 682.080 326.587, 682.229 326.437 C 682.378 326.288, 682.182 332.478, 681.793 340.194 C 680.879 358.323, 678.885 368.604, 674.486 377.867 C 671.735 383.661, 671.224 385.538, 672.218 386.213 C 674.792 387.962, 686.650 393.725, 692.250 395.949 C 695.413 397.205, 698 398.762, 698 399.410 C 698 400.599, 672.826 424.336, 661.232 434.078 L 654.964 439.345 661.732 441.111 C 665.454 442.083, 673.147 444.480, 678.826 446.439 C 684.505 448.397, 689.538 450, 690.011 450 C 690.483 450, 692.083 450.461, 693.567 451.025 C 695.995 451.949, 696.119 452.223, 694.808 453.775 C 694.008 454.724, 690.505 460, 687.024 465.500 C 683.544 471, 675.864 482.048, 669.959 490.050 C 658.918 505.014, 653.913 512.715, 646.367 526.352 L 642.022 534.204 644.761 539.662 L 647.500 545.120 746.750 545.310 C 801.338 545.415, 846 545.482, 846 545.459 C 846 545.437, 836.888 531.626, 825.750 514.768 C 814.612 497.911, 797.668 471.830, 788.096 456.809 C 772.928 433.009, 727.890 365.047, 709.682 338.481 C 706.282 333.521, 699.484 322.721, 694.575 314.481 C 689.666 306.242, 684.671 298.033, 683.475 296.239 L 681.300 292.978 674.298 304.239 M 956.825 297.674 C 957.251 299.767, 957.503 300.019, 957.794 298.644 C 958.011 297.623, 957.751 296.351, 957.218 295.818 C 956.592 295.192, 956.452 295.849, 956.825 297.674 M 92 369.500 L 92 386 108 386 L 124 386 124 370.142 L 124 354.285 117.853 353.642 C 114.473 353.289, 107.273 353, 101.853 353 L 92 353 92 369.500 M 991.440 354.296 C 991.166 355.009, 991.068 362.096, 991.221 370.046 L 991.500 384.500 1006.422 384.778 C 1014.630 384.930, 1021.678 384.705, 1022.086 384.278 C 1022.493 383.850, 1022.576 376.637, 1022.268 368.250 L 1021.709 353 1006.823 353 C 995.555 353, 991.816 353.315, 991.440 354.296 M 956.638 355.500 C 956.955 356.325, 957.391 357, 957.607 357 C 957.823 357, 958 356.325, 958 355.500 C 958 354.675, 957.564 354, 957.031 354 C 956.499 354, 956.322 354.675, 956.638 355.500 M 957.195 362.500 C 957.215 364.150, 957.439 364.704, 957.693 363.731 C 957.947 362.758, 957.930 361.408, 957.656 360.731 C 957.382 360.054, 957.175 360.850, 957.195 362.500 M 547.805 376.805 C 542.412 382.198, 538 387.352, 538 388.259 C 538 389.166, 540.101 391.513, 542.670 393.474 C 545.238 395.435, 547.964 397.931, 548.726 399.020 C 550.623 401.728, 553.839 401.576, 554.441 398.750 C 558.032 381.866, 559.909 367, 558.448 367 C 557.987 367, 553.198 371.412, 547.805 376.805 M 956.336 372.930 C 956.669 374.593, 956.473 376.009, 955.883 376.206 C 955.311 376.396, 954.766 378.099, 954.672 379.990 C 954.482 383.795, 957.207 385.508, 958.421 382.346 C 959.344 379.940, 958.007 370, 956.760 370 C 956.177 370, 955.997 371.237, 956.336 372.930 M 959.719 400.205 C 959.398 408.567, 959.356 415.767, 959.626 416.205 C 959.897 416.642, 967.066 417, 975.559 417 L 991 417 991 401 L 991 385 975.652 385 L 960.304 385 959.719 400.205 M 59.720 401.180 C 59.398 409.556, 59.356 416.767, 59.626 417.205 C 59.897 417.642, 67.291 418, 76.059 418 L 92 418 92 433.893 C 92 447.463, 92.231 449.875, 93.582 450.393 C 94.452 450.727, 101.652 451, 109.582 451 L 124 451 124 434.500 L 124 418 108.025 418 L 92.051 418 91.775 402.250 L 91.500 386.500 75.903 386.225 L 60.306 385.951 59.720 401.180 M 282.354 411.750 C 279.972 415.895, 247.865 467.848, 233.688 490.500 C 227.286 500.728, 215.895 518.296, 206.048 533.129 L 198.328 544.757 204.664 545.407 C 208.149 545.764, 213.869 545.762, 217.375 545.403 C 223.405 544.785, 223.838 544.564, 225.387 541.315 C 226.288 539.426, 230.770 531.945, 235.347 524.690 C 239.924 517.436, 246.300 507, 249.516 501.500 C 252.732 496, 256.798 489.250, 258.553 486.500 C 269.741 468.964, 277.263 456.466, 280.825 449.500 C 286.960 437.498, 287.211 437.343, 286.493 446 C 285.441 458.678, 283.970 465.272, 280.938 470.900 C 278.219 475.949, 278.142 476.387, 279.765 477.618 C 281.676 479.069, 297.664 486, 299.100 486 C 301.002 486, 299.809 488.345, 294.618 494.803 C 291.658 498.487, 286.954 505.100, 284.163 509.500 C 273.609 526.145, 269.976 531.590, 267.485 534.500 L 264.916 537.500 265.514 529 C 265.843 524.325, 266.806 515.182, 267.655 508.682 C 268.503 502.182, 268.939 496.606, 268.623 496.290 C 267.114 494.781, 259.633 505.337, 248.984 524 C 244.397 532.039, 243.504 534.435, 243.176 539.577 L 242.789 545.654 308.645 545.577 C 360.542 545.516, 374.448 545.237, 374.253 544.258 C 373.951 542.745, 357.237 517.629, 351.454 510 C 342.419 498.079, 331.762 481.710, 314.999 454 C 311.506 448.225, 305.407 438.550, 301.446 432.500 C 297.485 426.450, 292.502 418.245, 290.372 414.267 C 288.243 410.289, 286.181 407.026, 285.792 407.017 C 285.403 407.008, 283.856 409.137, 282.354 411.750 M 550.684 421.250 C 549.364 423.587, 546.132 429.325, 543.502 434 C 540.872 438.675, 532.560 452.400, 525.031 464.500 C 517.502 476.600, 508.634 491, 505.324 496.500 C 502.015 502, 494.975 513.357, 489.680 521.737 C 478.907 538.790, 475.664 544.700, 476.757 545.295 C 479.516 546.796, 499 545.541, 499 543.862 C 499 542.814, 505.022 532.053, 515.991 513.500 C 520.218 506.350, 525.388 497.350, 527.480 493.500 C 529.571 489.650, 535.657 479.075, 541.003 470 C 546.348 460.925, 551.493 451.996, 552.435 450.157 C 553.377 448.318, 554.349 447.015, 554.594 447.261 C 555.611 448.278, 552.670 467.964, 550.462 474.915 C 549.153 479.040, 548.175 482.467, 548.290 482.530 C 548.406 482.594, 552.445 483.907, 557.267 485.447 C 562.090 486.987, 566.293 488.664, 566.607 489.174 C 566.922 489.683, 565.196 492.221, 562.771 494.814 C 560.346 497.407, 555.186 504.247, 551.304 510.014 C 547.422 515.781, 542.279 522.725, 539.873 525.444 L 535.500 530.388 535 519.444 L 534.500 508.500 530.714 515.227 C 523.336 528.336, 519.881 541.511, 523.250 543.691 C 523.938 544.136, 548.918 544.725, 578.761 545 C 624.451 545.421, 632.940 545.284, 632.497 544.130 C 632.207 543.376, 625.509 533.026, 617.612 521.130 C 603.702 500.176, 582.532 466.291, 575.046 453 C 573.033 449.425, 568.366 441.474, 564.676 435.332 C 560.986 429.189, 557.293 422.552, 556.470 420.582 C 555.647 418.612, 554.548 417, 554.029 417 C 553.509 417, 552.004 418.913, 550.684 421.250 M 991.667 417.667 C 991.300 418.033, 991 425.475, 991 434.203 L 991 450.072 1006.500 449.947 L 1022 449.823 1022 433.411 L 1022 417 1007.167 417 C 999.008 417, 992.033 417.300, 991.667 417.667 M 27.667 418.667 C 27.300 419.033, 27 426.458, 27 435.167 L 27 451 43.649 451 L 60.299 451 59.743 467 L 59.188 483 75.594 483 L 92 483 91.989 470.750 C 91.983 464.012, 91.699 456.813, 91.358 454.750 L 90.738 451 75.369 451 L 60 451 59.994 442.750 C 59.991 438.212, 59.699 430.788, 59.346 426.250 L 58.704 418 43.518 418 C 35.167 418, 28.033 418.300, 27.667 418.667 M 947.289 420.954 C 947.921 422.629, 948.748 424, 949.126 424 C 949.504 424, 949.579 424.895, 949.293 425.988 C 948.963 427.249, 949.363 428.202, 950.387 428.595 C 952.414 429.373, 952.460 431.373, 950.489 433.009 C 949.151 434.120, 949.180 434.416, 950.739 435.600 C 952.411 436.869, 952.411 436.938, 950.750 436.968 C 948.534 437.008, 948.426 439, 950.640 439 C 952.024 439, 952.194 439.834, 951.729 444.341 L 951.177 449.683 954.589 449.811 L 958 449.939 958.179 436.470 C 958.277 429.061, 958.389 421.988, 958.429 420.750 C 958.494 418.682, 958 418.476, 952.320 418.204 L 946.139 417.908 947.289 420.954 M 377.391 434.404 C 360.867 456.218, 354.665 464.258, 349.643 470.377 C 346.540 474.160, 344 477.543, 344 477.895 C 344 478.248, 345.845 480.770, 348.101 483.499 C 350.356 486.229, 353.991 491.722, 356.178 495.707 C 358.365 499.692, 361.526 504.107, 363.203 505.517 C 366.019 507.887, 366.386 507.960, 368.019 506.483 C 370.267 504.448, 372.542 495.271, 373.963 482.500 C 374.575 477, 376.393 465.525, 378.003 457 C 381.521 438.367, 383.068 428.735, 382.616 428.282 C 382.432 428.098, 380.080 430.853, 377.391 434.404 M 962.400 450.672 C 960.466 451.066, 960.249 451.983, 959.654 462.300 C 959.300 468.460, 959.007 475.413, 959.005 477.750 L 959 482 975.025 482 L 991.051 482 990.775 466.250 L 990.500 450.500 977.500 450.372 C 970.350 450.302, 963.555 450.437, 962.400 450.672 M 649.447 458.765 C 648.868 459.169, 647.068 461.300, 645.447 463.500 C 643.826 465.699, 640.700 469.749, 638.499 472.500 C 636.298 475.250, 631.891 481.386, 628.705 486.135 C 625.518 490.885, 622.031 495.567, 620.956 496.540 C 618.258 498.981, 618.505 501.361, 621.856 505.215 C 623.426 507.022, 627.243 512.325, 630.338 517 C 633.433 521.675, 636.986 526.957, 638.233 528.737 C 640.549 532.044, 642.365 533.114, 641.402 530.605 C 641.107 529.837, 641.332 527.475, 641.900 525.355 C 642.469 523.235, 643.425 516.100, 644.025 509.500 C 644.625 502.900, 646.266 490.975, 647.670 483 C 650.230 468.460, 651.573 457.987, 650.874 458.015 C 650.668 458.024, 650.026 458.361, 649.447 458.765 M 31.250 483.672 L 27 484.115 27 500.557 L 27 517 43.654 517 L 60.309 517 59.709 500.888 C 59.380 492.027, 58.973 484.641, 58.805 484.475 C 58.220 483.895, 35.468 483.233, 31.250 483.672 M 93.250 483.712 C 92.321 484.050, 92 488.259, 92 500.083 L 92 516 97.344 516 C 100.284 516, 107.484 516.293, 113.344 516.652 L 124 517.304 124 503.277 C 124 495.562, 123.715 487.826, 123.367 486.085 L 122.734 482.919 108.617 483.088 C 100.853 483.181, 93.938 483.462, 93.250 483.712 M 987.263 496.797 C 986.032 498.284, 984.755 500.908, 984.424 502.630 C 984.038 504.636, 982.935 506.164, 981.351 506.886 C 979.263 507.837, 978.928 508.592, 979.190 511.756 L 979.500 515.500 984.926 515.500 L 990.353 515.500 990.099 508.509 C 989.959 504.664, 989.411 500.995, 988.881 500.356 C 988.248 499.594, 988.309 499.064, 989.056 498.815 C 989.683 498.606, 990.039 497.458, 989.848 496.264 C 989.509 494.148, 989.444 494.162, 987.263 496.797 M 980 511 C 980 511.550, 980.702 512, 981.559 512 C 982.416 512, 982.840 511.550, 982.500 511 C 982.160 510.450, 981.459 510, 980.941 510 C 980.423 510, 980 510.450, 980 511 M 960.813 515.683 C 961.534 515.972, 962.397 515.936, 962.729 515.604 C 963.061 515.272, 962.471 515.036, 961.417 515.079 C 960.252 515.127, 960.015 515.364, 960.813 515.683 M 60.684 517.750 C 60.445 518.163, 59.929 525.587, 59.538 534.250 L 58.827 550 75.413 550 L 92 550 91.993 540.250 C 91.989 534.888, 91.699 527.462, 91.348 523.750 L 90.711 517 75.914 517 C 67.776 517, 60.923 517.337, 60.684 517.750 M 991.482 519.250 C 991.175 520.487, 991.054 527.800, 991.212 535.500 L 991.500 549.500 1006.250 549.777 C 1019.809 550.031, 1021.003 549.910, 1021.032 548.277 C 1021.050 547.300, 1021.187 539.862, 1021.336 531.750 L 1021.608 517 1006.823 517 C 992.322 517, 992.027 517.043, 991.482 519.250 M 957.222 518.725 C 957.075 519.535, 955.900 519.761, 953.750 519.391 C 951.800 519.055, 950.982 519.178, 951.704 519.697 C 953.185 520.760, 953 525.138, 951.417 526.500 C 949.596 528.067, 949.023 531.930, 949.680 538.214 C 950.064 541.891, 950.746 544, 951.549 544 C 952.311 544, 952.610 544.777, 952.302 545.955 C 951.914 547.438, 952.430 548.070, 954.442 548.575 C 955.900 548.941, 957.309 549.024, 957.573 548.760 C 957.837 548.496, 957.916 541.354, 957.749 532.890 C 957.581 524.425, 957.344 518.051, 957.222 518.725 M 92.603 550.839 C 92.381 551.203, 92.044 558.475, 91.855 567 L 91.512 582.500 107.756 582.775 L 124 583.050 124 567.025 L 124 551 110.250 550.923 C 102.688 550.881, 95.714 550.696, 94.754 550.513 C 93.794 550.329, 92.826 550.476, 92.603 550.839 M 27 567 L 27 583 42.941 583 C 52.728 583, 59.126 582.605, 59.514 581.977 C 59.862 581.415, 59.826 574.215, 59.433 565.977 L 58.721 551 42.860 551 L 27 551 27 567 M 960 566.250 L 960.001 581.500 975.500 581.701 L 991 581.903 991 566.451 L 991 551 975.500 551 L 960 551 960 566.250 M 197.157 576.679 C 197.359 584.477, 197.744 591.077, 198.013 591.346 C 198.697 592.031, 682.490 592.754, 772.250 592.205 L 846 591.754 846 577.127 L 846 562.500 521.395 562.500 L 196.791 562.500 197.157 576.679 M 59.512 588.250 C 58.702 594.983, 59.265 615.578, 60.250 615.250 C 60.663 615.112, 67.975 615, 76.500 615 L 92 615 91.993 605.750 C 91.989 600.663, 91.699 593.462, 91.348 589.750 L 90.711 583 75.427 583 L 60.144 583 59.512 588.250 M 951.016 584 C 950.570 584.275, 949.925 589.654, 949.582 595.954 C 949.239 602.253, 948.630 607.653, 948.229 607.954 C 947.828 608.254, 946.959 609.472, 946.297 610.661 C 944.766 613.412, 946.074 614, 953.724 614 L 959.285 614 958.642 607.853 C 958.289 604.473, 958 597.516, 958 592.394 L 958 583.081 954.914 583.290 C 953.216 583.406, 951.462 583.725, 951.016 584 M 991.630 586.099 C 991.284 587.832, 991 594.833, 991 601.656 C 991 611.762, 991.278 614.170, 992.500 614.638 C 993.325 614.955, 994 615.841, 994 616.607 C 994 617.373, 994.450 618, 995 618 C 995.550 618, 996 618.900, 996 620 C 996 621.100, 995.578 622, 995.062 622 C 994.546 622, 994.132 622.788, 994.141 623.750 C 994.184 628.364, 992.624 640, 991.963 640 C 991.552 640, 991.148 634.731, 991.065 628.291 C 990.983 621.851, 990.793 616.459, 990.642 616.309 C 989.990 615.656, 962.242 615.733, 961.178 616.390 C 960.359 616.896, 960 621.670, 960 632.059 L 960 647 975.355 647 L 990.711 647 991.753 643.750 C 992.771 640.578, 992.798 640.565, 992.898 643.205 C 993.020 646.448, 994.186 646.717, 1010.726 647.329 L 1021.952 647.743 1021.726 615.622 L 1021.500 583.500 1006.880 583.224 L 992.260 582.948 991.630 586.099 M 197 626.250 L 197 641 521.487 641 L 845.974 641 845.737 626.250 L 845.500 611.500 521.250 611.500 L 197 611.500 197 626.250 M 27.667 616.667 C 27.300 617.033, 27 624.233, 27 632.667 L 27 648 43.250 647.999 L 59.500 647.999 59.500 664.078 L 59.500 680.158 75.500 680.329 L 91.500 680.500 91.810 669.500 C 91.980 663.450, 91.836 656.138, 91.488 653.250 L 90.856 648 75.542 648 L 60.228 648 59.500 632 L 58.772 616 43.553 616 C 35.182 616, 28.033 616.300, 27.667 616.667 M 91.800 631.250 C 91.635 639.638, 91.500 646.552, 91.500 646.617 C 91.500 646.681, 98.813 647.043, 107.750 647.422 L 124 648.111 124 632.056 L 124 616 108.050 616 L 92.100 616 91.800 631.250 M 955.750 649.662 C 957.602 650.410, 957.265 651.998, 955.250 652.015 C 953.887 652.027, 953.800 652.221, 954.857 652.890 C 956.479 653.918, 955.475 658.075, 953.689 657.730 C 952.916 657.580, 952.590 658.724, 952.756 661 C 952.922 663.261, 952.705 664.028, 952.145 663.166 C 951.452 662.099, 951.150 662.166, 950.639 663.498 C 950.288 664.414, 950 666.053, 950 667.141 C 950 668.337, 949.561 668.847, 948.888 668.431 C 948.110 667.950, 947.913 669.125, 948.234 672.339 C 948.517 675.170, 948.272 677.079, 947.596 677.310 C 946.993 677.516, 947.939 677.899, 949.697 678.161 C 951.456 678.423, 952.667 678.270, 952.388 677.819 C 952.110 677.369, 952.546 677, 953.358 677 C 954.169 677, 954.983 677.436, 955.167 677.968 C 955.382 678.592, 956.033 678.592, 957 677.968 C 958.333 677.108, 958.333 676.891, 957 676.015 C 956.168 675.469, 956.012 675.024, 956.650 675.015 C 957.451 675.005, 957.843 671.043, 957.939 662 C 958.065 650.101, 957.925 649.007, 956.288 649.079 C 955.240 649.125, 955.017 649.367, 955.750 649.662 M 989.079 654.583 C 989.127 655.748, 989.364 655.985, 989.683 655.188 C 989.972 654.466, 989.936 653.603, 989.604 653.271 C 989.272 652.939, 989.036 653.529, 989.079 654.583 M 197 675.109 L 197 690 506.750 690.208 C 677.112 690.323, 823.025 690.318, 831 690.198 L 845.500 689.980 845.775 675.203 L 846.050 660.427 521.525 660.322 L 197 660.218 197 675.109 M 988.607 668.582 C 987.671 671.020, 987.888 674, 989 674 C 989.550 674, 990 672.425, 990 670.500 C 990 666.705, 989.560 666.099, 988.607 668.582 M 27.667 681.667 C 27.300 682.033, 27 689.233, 27 697.667 L 27 713 34.750 713.006 C 39.013 713.009, 46.162 713.297, 50.638 713.646 C 60.733 714.432, 60.419 715.080, 59.447 695.456 L 58.731 681 43.532 681 C 35.173 681, 28.033 681.300, 27.667 681.667 M 91.799 696.750 C 91.590 705.413, 91.505 712.725, 91.612 713 C 91.718 713.275, 99.049 713.366, 107.903 713.202 L 124 712.905 124 696.952 L 124 681 108.090 681 L 92.179 681 91.799 696.750 M 991 697.455 C 991 715.836, 989.264 714.215, 1008.500 713.788 L 1021.500 713.500 1021.500 698 L 1021.500 682.500 1006.250 682.224 L 991 681.948 991 697.455 M 197 724 L 197 739 521.500 739 L 846 739 846 724 L 846 709 521.500 709 L 197 709 197 724 M 59.518 723.250 C 59.150 728.337, 58.995 735.650, 59.174 739.500 L 59.500 746.500 65.500 746.470 C 84.795 746.374, 90.803 745.955, 91.295 744.673 C 91.575 743.943, 91.558 736.743, 91.255 728.673 L 90.706 714 75.446 714 L 60.187 714 59.518 723.250 M 972.250 714.747 L 960 715.062 960 730.031 L 960 745 971.750 745.147 C 978.212 745.228, 985.075 745.340, 987 745.397 L 990.500 745.500 990.788 732 C 991.143 715.354, 990.858 713.929, 987.231 714.216 C 985.729 714.335, 978.987 714.574, 972.250 714.747 M 30 746.894 L 27.500 747.588 27.225 763.294 L 26.949 779 42.868 779 C 54.695 779, 58.902 778.679, 59.236 777.750 C 59.484 777.063, 59.477 769.922, 59.221 761.883 L 58.756 747.266 52.128 746.640 C 43.851 745.858, 33.292 745.979, 30 746.894 M 93.750 746.689 C 92.243 747.083, 91.970 748.592, 91.786 757.573 C 91.327 779.904, 91.294 779.485, 93.500 779.390 C 94.600 779.343, 101.912 779.236, 109.750 779.152 L 124 779 124 763.107 C 124 749.537, 123.769 747.125, 122.418 746.607 C 120.625 745.919, 96.432 745.989, 93.750 746.689 M 518.750 757.750 L 197 758.003 197 773.345 L 197 788.686 521.508 788.593 L 846.015 788.500 845.944 772.750 L 845.872 757 843.186 757.248 C 841.709 757.385, 695.713 757.611, 518.750 757.750 M 62.750 779.716 L 60 780.133 59.833 794.066 C 59.742 801.730, 59.629 808.788, 59.583 809.750 C 59.508 811.338, 60.958 811.519, 75.250 811.703 L 91 811.907 91 796.102 L 91 780.296 82.750 779.654 C 74.158 778.985, 67.437 779.006, 62.750 779.716 M 945.823 779.709 C 943.376 780.084, 943.183 780.437, 943.591 783.809 C 943.913 786.478, 943.796 786.947, 943.169 785.505 C 942.498 783.961, 942.183 784.746, 941.777 788.970 C 941.478 792.078, 941.712 795.168, 942.320 796.141 C 943.089 797.372, 943.054 798.587, 942.194 800.473 C 941.537 801.915, 941 804.165, 941 805.474 C 941 806.899, 940.298 808.037, 939.250 808.311 C 938.288 808.562, 942.048 808.820, 947.608 808.884 L 957.715 809 958.358 802.853 C 958.711 799.473, 959 792.723, 959 787.853 L 959 779 953.750 779.150 C 950.862 779.232, 947.295 779.484, 945.823 779.709 M 1023.158 790 C 1023.158 791.375, 1023.385 791.938, 1023.662 791.250 C 1023.940 790.563, 1023.940 789.438, 1023.662 788.750 C 1023.385 788.063, 1023.158 788.625, 1023.158 790 M 1023.079 794.583 C 1023.127 795.748, 1023.364 795.985, 1023.683 795.188 C 1023.972 794.466, 1023.936 793.603, 1023.604 793.271 C 1023.272 792.939, 1023.036 793.529, 1023.079 794.583 M 959.517 819.250 C 959.152 823.788, 958.999 830.875, 959.177 835 L 959.500 842.500 975 842.500 L 990.500 842.500 990.775 826.750 L 991.051 811 975.615 811 L 960.180 811 959.517 819.250 M 27.667 812.667 C 27.300 813.033, 27 820.233, 27 828.667 L 27 844 42.941 844 C 51.709 844, 59.118 843.617, 59.407 843.150 C 59.696 842.682, 59.653 835.482, 59.311 827.150 L 58.689 812 43.511 812 C 35.163 812, 28.033 812.300, 27.667 812.667 M 91.767 827.250 C 91.503 835.638, 91.595 842.850, 91.971 843.277 C 92.346 843.704, 99.594 843.929, 108.077 843.777 L 123.500 843.500 123.788 830 C 124.210 810.195, 125.833 812, 107.605 812 L 92.248 812 91.767 827.250 M 992.726 842.640 C 991.106 843.111, 990.975 844.565, 991.226 859.328 L 991.500 875.500 997 875.832 C 1000.025 876.014, 1007.038 875.863, 1012.585 875.497 L 1022.669 874.830 1022.213 859.165 C 1021.961 850.549, 1021.698 843.435, 1021.628 843.355 C 1021.212 842.883, 994.186 842.215, 992.726 842.640 M 955.907 843.426 C 955.650 843.684, 950.832 843.974, 945.202 844.071 C 939.572 844.168, 934.768 844.566, 934.527 844.957 C 934.285 845.347, 932.718 845.465, 931.044 845.220 L 928 844.773 928 859.743 L 928 874.713 936.955 875.389 C 941.880 875.761, 948.840 875.765, 952.422 875.398 L 958.934 874.731 958.717 859.198 C 958.520 845.097, 957.872 841.461, 955.907 843.426 M 59.657 847.250 C 59.346 849.038, 59.095 856.237, 59.101 863.250 L 59.111 876 66.805 876.006 C 71.037 876.009, 78.148 876.296, 82.607 876.643 L 90.714 877.274 91.438 874.392 C 91.836 872.807, 91.842 865.320, 91.452 857.755 L 90.744 844 75.483 844 L 60.223 844 59.657 847.250 M 123.761 859.250 C 123.480 867.638, 123.445 874.837, 123.684 875.250 C 123.923 875.663, 131.291 876, 140.059 876 L 156 876 156 860 L 156 844 140.136 844 L 124.272 844 123.761 859.250 M 189 860.500 L 189 876 200.067 876 C 211.085 876, 211.132 875.990, 210.436 873.750 C 210.052 872.513, 209.122 871.140, 208.369 870.700 C 207.616 870.260, 207 869.446, 207 868.891 C 207 868.336, 207.445 868.157, 207.989 868.493 C 208.566 868.850, 208.716 868.424, 208.349 867.468 C 207.927 866.368, 207.493 866.202, 207.024 866.961 C 206.235 868.238, 196.001 856, 192.214 849.250 C 190.902 846.913, 189.642 845, 189.415 845 C 189.187 845, 189 851.975, 189 860.500 M 215 870.044 C 215 870.618, 214.259 870.955, 213.354 870.794 C 211.179 870.406, 210.465 872.581, 212.510 873.365 C 213.570 873.772, 213.894 873.562, 213.478 872.739 C 213.133 872.057, 213.517 872.314, 214.330 873.310 C 215.268 874.459, 216.047 874.733, 216.463 874.060 C 216.823 873.477, 216.684 873, 216.153 873 C 215.622 873, 215.423 872.100, 215.710 871 C 215.998 869.900, 215.956 869, 215.617 869 C 215.277 869, 215 869.470, 215 870.044 M 959 892.475 L 959 909 975.025 909 L 991.050 909 990.775 892.750 L 990.500 876.500 974.750 876.225 L 959 875.949 959 892.475 M 92 893.443 L 92 909.886 107.750 909.693 L 123.500 909.500 123.775 893.250 L 124.050 877 108.025 877 L 92 877 92 893.443 M 156 892.951 L 156 908.902 171.626 909.201 C 185.505 909.467, 187.322 909.312, 187.876 907.823 C 188.219 906.900, 188.364 899.587, 188.199 891.573 L 187.897 877 171.949 877 L 156 877 156 892.951 M 222.750 877.662 C 223.438 877.940, 224.563 877.940, 225.250 877.662 C 225.938 877.385, 225.375 877.158, 224 877.158 C 222.625 877.158, 222.063 877.385, 222.750 877.662 M 896 893.500 L 896 910 911.500 910 L 927 910 927 893.500 L 927 877 911.500 877 L 896 877 896 893.500 M 221.625 883.125 C 221.281 884.844, 221 891.369, 221 897.625 L 221 909 233.750 908.930 C 240.762 908.891, 247.400 908.473, 248.500 908 L 250.500 907.141 248.500 907.055 C 246.906 906.987, 246.791 906.785, 247.934 906.062 C 249.097 905.326, 248.661 904.292, 245.617 900.577 C 243.554 898.060, 241.554 896, 241.173 896 C 240.791 896, 238.684 894.305, 236.490 892.233 C 234.295 890.161, 231.262 887.835, 229.750 887.064 C 228.215 886.281, 227 884.827, 227 883.772 C 227 882.732, 226.550 882.160, 226 882.500 C 225.450 882.840, 225 882.416, 225 881.559 C 225 878.688, 222.258 879.961, 221.625 883.125 M 59.511 910.983 C 58.858 912.039, 58.998 939.689, 59.665 941.500 C 59.890 942.109, 66.190 942.500, 75.767 942.500 L 91.500 942.500 91.500 926.500 L 91.500 910.500 75.824 910.225 C 65.825 910.050, 59.918 910.324, 59.511 910.983 M 123.598 919.750 C 123.259 925.112, 123.163 932.425, 123.385 936 L 123.790 942.500 139.895 942.775 L 156 943.050 156 959.025 L 156 975 172 975 L 188 975 188 958.395 L 188 941.790 172 942.145 L 156 942.500 156 926.250 L 156 910 140.108 910 L 124.216 910 123.598 919.750 M 927.607 911.582 C 927.273 912.452, 927 919.652, 927 927.582 L 927 942 943 942 L 959 942 959 926 L 959 910 943.607 910 C 930.493 910, 928.124 910.234, 927.607 911.582 M 254 927.232 L 254 940.765 261.250 941.424 C 265.251 941.788, 270.914 941.617, 273.886 941.042 C 276.849 940.469, 279.421 940, 279.603 940 C 280.808 940, 275.497 933.127, 273.034 931.500 C 271.368 930.400, 270.004 929.163, 270.003 928.750 C 270.001 928.337, 269.438 928.004, 268.750 928.009 C 268.063 928.013, 264.462 924.796, 260.750 920.858 L 254 913.699 254 927.232 M 443.875 924.333 C 443.806 927.450, 443.694 930.555, 443.625 931.233 C 443.470 932.757, 437.442 933.887, 429.500 933.879 C 424.927 933.875, 424.035 933.658, 425.750 932.969 C 428.917 931.696, 428.547 930.991, 424.750 931.062 C 422.962 931.095, 420.038 930.819, 418.250 930.448 L 415 929.773 415 936.270 L 415 942.767 430.233 942.412 L 445.465 942.057 445.137 930.779 C 444.785 918.670, 444.079 915.067, 443.875 924.333 M 732.151 924.589 L 732 929.677 718.617 929.470 C 711.256 929.356, 704.731 928.952, 704.117 928.572 C 703.332 928.087, 703 930.130, 703 935.441 L 703 943 717.941 943 C 726.159 943, 733.082 942.663, 733.327 942.250 C 733.572 941.837, 733.442 936.550, 733.037 930.500 C 732.633 924.450, 732.234 921.790, 732.151 924.589 M 286.079 932.250 L 286 943 302 943 L 318 943 317.882 936.750 C 317.817 933.313, 317.459 929.150, 317.088 927.500 L 316.412 924.500 315.687 927.250 C 314.920 930.157, 313.602 930.783, 312.387 928.816 C 311.879 927.995, 311.461 928.186, 311.021 929.439 C 310.465 931.024, 310.209 931.066, 308.924 929.781 C 308.119 928.976, 306.035 928.277, 304.293 928.227 C 302.551 928.178, 300.188 927.636, 299.042 927.022 C 297.896 926.409, 296.541 926.166, 296.030 926.482 C 295.518 926.798, 294.588 926.098, 293.961 924.928 C 293.099 923.317, 292.120 922.902, 289.935 923.223 C 288.348 923.456, 286.848 923.163, 286.603 922.573 C 286.358 921.983, 286.122 926.337, 286.079 932.250 M 351 932.500 L 351 943 366.500 943 L 382 943 381.930 936.250 C 381.881 931.552, 381.598 930.108, 381 931.500 C 380.527 932.600, 380.109 932.882, 380.070 932.128 C 380.018 931.115, 379.659 931.038, 378.698 931.836 C 377.200 933.079, 373 932.271, 373 930.738 C 373 930.075, 370.496 929.920, 365.950 930.301 C 359.290 930.859, 358.934 930.784, 359.517 928.946 C 360.006 927.405, 359.653 926.993, 357.817 926.968 C 354.924 926.928, 351.578 924.492, 352.459 923.067 C 352.821 922.480, 352.641 922, 352.059 922 C 351.381 922, 351 925.777, 351 932.500 M 355 924.383 C 355 924.594, 355.900 925.002, 357 925.290 C 358.100 925.577, 359 925.405, 359 924.906 C 359 924.408, 358.100 924, 357 924 C 355.900 924, 355 924.173, 355 924.383 M 602 927.917 C 602 930.163, 601.550 932, 601 932 C 600.450 932, 599.986 931.438, 599.968 930.750 C 599.948 929.956, 599.474 930.108, 598.670 931.166 C 597.425 932.802, 588.637 934.302, 587.418 933.086 C 587.094 932.764, 584.956 932.459, 582.665 932.409 C 580.374 932.359, 577.487 932.048, 576.250 931.717 C 574.106 931.143, 574 931.388, 574 936.922 L 574 942.728 589.250 943.250 C 597.638 943.537, 604.742 943.485, 605.038 943.136 C 606.142 941.831, 604.517 924.664, 603.250 924.246 C 602.387 923.961, 602 925.097, 602 927.917 M 797.186 925.750 C 796.985 928.181, 795.480 928.777, 794.662 926.750 C 794.274 925.789, 794.140 925.802, 794.079 926.809 C 794.035 927.536, 793.487 927.801, 792.845 927.405 C 792.165 926.984, 791.961 927.128, 792.349 927.755 C 793.281 929.264, 792.043 932, 790.428 932 C 789.681 932, 788.619 931.156, 788.067 930.125 C 786.938 928.015, 782.942 926.534, 783.284 928.353 C 783.422 929.083, 782.189 929.400, 779.894 929.225 C 777.784 929.064, 775.823 929.508, 775.170 930.295 C 774.523 931.075, 772.573 931.523, 770.527 931.362 L 767 931.084 767 937.098 L 767 943.111 782.003 942.904 C 791.557 942.772, 797.278 942.298, 797.753 941.598 C 798.164 940.994, 798.246 936.675, 797.936 932 C 797.626 927.325, 797.289 924.513, 797.186 925.750 M 662 927.725 C 662.825 928.025, 664.288 928.675, 665.250 929.170 C 666.476 929.801, 666.999 929.685, 666.998 928.785 C 666.997 928.035, 665.643 927.433, 663.748 927.340 C 661.962 927.252, 661.175 927.425, 662 927.725 M 668 929.429 C 668 930.373, 666.050 931.235, 662.250 931.968 C 659.087 932.579, 655.515 933.288, 654.311 933.543 C 653.107 933.798, 651.843 933.556, 651.502 933.004 C 650.542 931.450, 640.037 931.740, 639.424 933.337 C 639.142 934.073, 638.819 936.546, 638.705 938.833 L 638.500 942.991 653.751 943.245 L 669.001 943.500 669.001 935.750 C 669 931.487, 668.775 928, 668.500 928 C 668.225 928, 668 928.643, 668 929.429 M 712 932.094 C 712 932.592, 712.900 933, 714 933 C 715.100 933, 716 932.827, 716 932.617 C 716 932.406, 715.100 931.998, 714 931.710 C 712.900 931.423, 712 931.595, 712 932.094 M 479.079 936.750 L 479 942 491.250 942.142 C 503.785 942.288, 508.034 942.278, 509.111 942.101 C 509.448 942.045, 509.500 940.834, 509.227 939.408 C 508.865 937.515, 508.502 937.178, 507.881 938.158 C 507.244 939.163, 507.027 939.013, 507.015 937.559 C 507.001 935.686, 506.953 935.683, 505.653 937.460 C 504.601 938.899, 504.128 939.017, 503.498 937.997 C 502.965 937.134, 503.082 936.933, 503.845 937.405 C 504.480 937.797, 505 937.654, 505 937.086 C 505 936.404, 501.722 936.269, 495.331 936.689 C 486.601 937.262, 485.723 937.163, 486.296 935.672 C 486.750 934.488, 486.248 933.849, 484.522 933.416 C 483.197 933.084, 481.677 933.082, 481.142 933.412 C 480.608 933.742, 479.943 933.447, 479.664 932.756 C 479.386 932.065, 479.122 933.862, 479.079 936.750 M 508.079 934.583 C 508.127 935.748, 508.364 935.985, 508.683 935.188 C 508.972 934.466, 508.936 933.603, 508.604 933.271 C 508.272 932.939, 508.036 933.529, 508.079 934.583 M 490.250 938.689 C 491.212 938.941, 492.788 938.941, 493.750 938.689 C 494.712 938.438, 493.925 938.232, 492 938.232 C 490.075 938.232, 489.288 938.438, 490.250 938.689 M 831 940.516 L 831 943.032 843.750 942.378 C 850.763 942.018, 856.688 941.561, 856.917 941.362 C 857.146 941.163, 851.521 940.941, 844.417 940.868 C 837.198 940.795, 833.044 940.453, 835 940.093 C 838.326 939.482, 838.376 939.414, 836 938.738 C 831.878 937.566, 831 937.878, 831 940.516 M 959.667 942.667 C 959.300 943.033, 959 950.470, 959 959.192 L 959 975.051 974.750 974.775 L 990.500 974.500 990.775 958.250 L 991.050 942 975.691 942 C 967.244 942, 960.033 942.300, 959.667 942.667 M 27 957.418 C 27 965.348, 27.273 972.548, 27.607 973.418 C 28.124 974.765, 30.484 975, 43.500 975 C 56.516 975, 58.876 974.765, 59.393 973.418 C 60.191 971.338, 60.170 956.920, 59.358 949.147 L 58.715 943 42.858 943 L 27 943 27 957.418 M 449.396 943.622 C 447.509 944.052, 447.226 945.038, 446.646 953.204 C 446.291 958.211, 446 965.163, 446 968.654 L 446 975 461.975 975 L 477.949 975 478.225 990.750 L 478.500 1006.500 494.250 1006.775 L 510 1007.051 510 990.976 L 510 974.901 541.750 975.052 L 573.500 975.203 573.377 971.851 C 573.309 970.008, 573.197 963.100, 573.128 956.500 L 573.003 944.500 557.544 944.798 L 542.086 945.097 541.742 952.298 L 541.397 959.500 541.199 951.387 C 541.009 943.620, 540.904 943.283, 538.750 943.509 C 537.513 943.639, 530.538 943.802, 523.250 943.872 L 510 944 510 959.500 L 510 975 494 975 L 478 975 478 959.500 L 478 944 472.750 943.994 C 469.863 943.991, 463.900 943.798, 459.500 943.566 C 455.100 943.334, 450.553 943.359, 449.396 943.622 M 318.647 951.651 C 318.291 955.859, 318 962.834, 318 967.151 L 318 975 334.631 975 L 351.262 975 350.642 971.250 C 350.301 969.188, 350.017 962.212, 350.011 955.750 L 350 944 334.647 944 L 319.293 944 318.647 951.651 M 383 957.918 C 383 965.573, 382.727 972.548, 382.393 973.418 C 381.855 974.820, 383.616 975, 397.893 975 L 414 975 414 959.500 L 414 944 398.500 944 L 383 944 383 957.918 M 613.250 944.712 L 606 945.088 606 960.695 L 606 976.302 590.650 975.617 C 578.698 975.084, 575.072 975.217, 574.268 976.216 C 573.608 977.037, 573.423 982.805, 573.754 992.204 L 574.273 1006.907 590.138 1007.204 L 606.003 1007.500 606.001 991.889 L 606 976.279 611.135 975.670 C 613.959 975.336, 621.232 975.346, 627.297 975.693 L 638.325 976.324 637.662 964.005 C 637.298 957.230, 637 950.046, 637 948.041 L 637 944.396 628.750 944.366 C 624.212 944.350, 617.237 944.506, 613.250 944.712 M 678.750 944.789 L 670 945.078 670 960.039 L 670 975 685.441 975 C 694.245 975, 701.137 974.587, 701.476 974.038 C 701.803 973.510, 701.760 966.507, 701.381 958.478 L 700.691 943.879 694.095 944.190 C 690.468 944.360, 683.563 944.630, 678.750 944.789 M 735 959.500 L 735 975 749.418 975 C 757.348 975, 764.436 974.771, 765.168 974.491 C 766.214 974.091, 766.436 970.766, 766.200 958.991 L 765.900 944 750.450 944 L 735 944 735 959.500 M 799.667 944.667 C 799.300 945.033, 799 952.008, 799 960.167 L 799 975 815 975 L 831 975 830.995 969.250 C 830.992 966.087, 830.699 959.112, 830.344 953.750 L 829.698 944 815.016 944 C 806.940 944, 800.033 944.300, 799.667 944.667 M 246 973.950 L 239.500 974.400 246 974.950 L 252.500 975.500 252.775 991.225 L 253.051 1006.951 269.275 1007.225 L 285.500 1007.500 285.790 1015.750 L 286.081 1024 302.040 1024 L 318 1024 318 1015.500 L 318 1007 302 1007 L 286 1007 286 991.500 L 286 976 270.571 976 C 259.600 976, 254.761 975.639, 253.821 974.750 C 252.931 973.907, 250.382 973.647, 246 973.950 M 59.514 980.225 C 59.165 983.126, 59.018 990.225, 59.189 996 L 59.500 1006.500 75.776 1006.775 L 92.051 1007.050 91.776 991.275 L 91.500 975.500 75.825 975.225 L 60.150 974.950 59.514 980.225 M 414.463 976.237 C 414.177 976.982, 414.068 984.096, 414.221 992.046 L 414.500 1006.500 430.276 1006.776 L 446.051 1007.051 445.776 991.276 L 445.500 975.500 430.241 975.191 C 418.110 974.945, 414.876 975.160, 414.463 976.237 M 639.250 975.591 C 638.329 976.015, 638 980.224, 638 991.583 L 638 1007 654 1007 L 670 1007 670 991.500 L 670 976 665.656 976 C 663.266 976, 656.629 975.778, 650.906 975.507 C 645.183 975.236, 639.938 975.274, 639.250 975.591 M 702.440 976.296 C 702.166 977.009, 702.068 984.096, 702.221 992.046 L 702.500 1006.500 718.250 1006.775 L 734 1007.051 734 991.025 L 734 975 718.469 975 C 706.672 975, 702.818 975.312, 702.440 976.296 M 767 991 L 767 1007.051 782.750 1006.775 L 798.500 1006.500 798.500 991 L 798.500 975.500 782.750 975.225 L 767 974.949 767 991 M 1022.769 988.248 C 1023.236 1002.534, 1023.658 1003.925, 1023.832 991.750 C 1023.924 985.288, 1023.663 979.999, 1023.250 979.998 C 1022.837 979.996, 1022.621 983.709, 1022.769 988.248 M 251.826 1016.002 C 251.647 1020.404, 251.838 1024.004, 252.250 1024.002 C 252.662 1024.001, 253 1020.400, 253 1016 C 253 1011.600, 252.809 1008, 252.576 1008 C 252.343 1008, 252.006 1011.601, 251.826 1016.002" stroke="none" fill="#000000" fill-rule="evenodd"/>
</svg>