<svg xmlns="http://www.w3.org/2000/svg" width="1024" height="1024" viewBox="0 0 1024 1024" version="1.1">
	<path d="M 0.005 512 L -0.009 1024 4.001 1024 L 8.011 1024 7.994 512 L 7.978 0 3.998 0 L 0.019 0 0.005 512 M 84.167 3.589 C 78.479 8.458, 71.738 18.225, 69.045 25.500 C 66.229 33.107, 65.246 47.460, 66.942 56.184 C 69.490 69.287, 78.693 82.619, 90.682 90.577 C 110.995 104.060, 140.504 101.700, 158.276 85.172 C 171.301 73.059, 177.372 60.024, 177.454 44 C 177.514 32.197, 174.512 22.919, 166.999 11.696 C 158.656 -0.769, 161.598 0, 122.220 -0 L 88.360 -0 84.167 3.589 M 912.750 3.993 C 909.683 6.189, 904.416 11.414, 901.045 15.604 C 891.928 26.937, 887.406 36.778, 886.848 46.500 C 886.722 48.700, 885.990 52.042, 885.222 53.926 C 883.810 57.391, 884.262 65.426, 885.926 66.455 C 886.372 66.730, 887.032 68.799, 887.392 71.052 C 889.022 81.245, 899.429 98.208, 907.840 104.383 C 916.242 110.550, 927.178 115.167, 934.760 115.748 C 939.684 116.126, 942.007 116.794, 943.381 118.231 C 945.463 120.407, 950.076 120.106, 952.934 117.608 C 953.881 116.780, 955.280 116.524, 956.472 116.961 C 957.588 117.369, 960.845 116.935, 963.972 115.962 C 983.172 109.990, 994.921 100.277, 1003.240 83.500 C 1008.635 72.621, 1013.149 50.961, 1009.750 52.266 C 1008.828 52.620, 1008.500 51.010, 1008.499 46.123 C 1008.498 40.569, 1007.916 38.290, 1004.888 32 C 999.807 21.443, 993.464 13.325, 984.702 6.165 L 977.157 -0 947.741 -0 L 918.326 -0 912.750 3.993 M 954.607 5.430 C 953.602 9.432, 950.465 12, 946.579 12 C 943.530 12, 943.083 11.647, 942.462 8.750 C 942.078 6.962, 941.592 5.204, 941.381 4.843 C 940.808 3.863, 925.526 10.542, 920.619 13.918 C 910.394 20.953, 900.586 34.694, 897.639 46.112 L 896.248 51.500 899.374 52.584 C 902.811 53.776, 903.595 56.014, 902.541 61.631 C 902.031 64.353, 901.445 65, 899.493 65 L 897.076 65 900.603 73.241 C 902.543 77.774, 905.296 83.061, 906.719 84.991 C 912.473 92.791, 921.850 99.901, 930.704 103.179 C 933.892 104.359, 937.030 105.968, 937.677 106.754 C 938.659 107.945, 939.119 107.671, 940.448 105.101 C 942.471 101.188, 946.294 98.641, 948.901 99.469 C 950.001 99.818, 951.877 101.683, 953.070 103.613 C 954.263 105.543, 955.748 106.923, 956.369 106.679 C 956.991 106.436, 961.299 104.767, 965.943 102.971 C 973.368 100.099, 975.299 98.788, 981.969 92.092 C 987.733 86.305, 990.566 82.431, 993.776 75.951 C 996.099 71.262, 998 66.931, 998 66.328 C 998 65.724, 996.875 64.493, 995.500 63.592 C 993.459 62.255, 993 61.144, 993 57.544 C 993 53.924, 993.381 53.014, 995.129 52.459 C 997.051 51.849, 997.204 51.263, 996.704 46.416 C 995.906 38.689, 990.963 29.468, 983.191 21.206 C 977.451 15.105, 975.079 13.431, 966.500 9.430 C 961 6.864, 956.222 4.326, 955.882 3.788 C 955.542 3.250, 954.969 3.989, 954.607 5.430 M 119.491 12.028 C 119.137 13.144, 116.401 17.081, 113.410 20.778 C 110.420 24.475, 107.705 28.516, 107.376 29.757 C 106.686 32.369, 109.315 37, 111.488 37 C 112.281 37, 114.526 38.401, 116.475 40.112 L 120.020 43.225 124.609 39.362 C 129.743 35.041, 130.732 34.382, 133.273 33.595 C 134.248 33.293, 135.284 32.423, 135.576 31.662 C 136.120 30.244, 122.466 10, 120.966 10 C 120.509 10, 119.845 10.913, 119.491 12.028 M 943.432 20.750 C 940.918 32.153, 934.056 49.071, 930.231 53.298 C 928.767 54.915, 927.648 55.088, 922.332 54.519 C 918.613 54.121, 915.360 54.272, 914.189 54.899 C 911.993 56.074, 908.627 63.587, 909.595 65.153 C 909.990 65.793, 916.806 66.128, 927.863 66.052 C 937.563 65.984, 947.300 65.938, 949.500 65.949 C 951.700 65.961, 960.025 65.864, 968 65.735 L 982.500 65.500 982.810 62.296 C 982.980 60.534, 982.637 58.191, 982.048 57.089 C 980.772 54.705, 975.688 53.611, 971.500 54.819 C 967.164 56.069, 964.996 54.689, 960.578 47.867 C 956.748 41.951, 953.555 33.697, 951.056 23.250 C 949.901 18.422, 949.569 18, 946.919 18 C 944.590 18, 943.922 18.527, 943.432 20.750 M 142.866 31.777 C 142.665 32.312, 137.863 37.594, 132.197 43.515 C 122.687 53.451, 121.724 54.189, 119.697 53.095 C 118.488 52.442, 112.836 47.429, 107.136 41.954 C 101.435 36.479, 96.633 32, 96.465 32 C 96.297 32, 95.865 33.338, 95.506 34.974 C 95.147 36.609, 93.087 40.546, 90.929 43.724 C 88.771 46.901, 87.019 49.950, 87.036 50.500 C 87.083 52.029, 90.070 55.233, 94.500 58.506 C 96.700 60.131, 101.508 64.204, 105.184 67.556 C 108.860 70.909, 113.862 74.710, 116.299 76.003 C 121.915 78.982, 123.826 78.294, 133.748 69.723 C 137.710 66.300, 144.078 60.800, 147.898 57.500 C 151.719 54.200, 154.879 50.813, 154.922 49.974 C 154.999 48.469, 146.997 34.769, 144.512 32.152 C 143.797 31.399, 143.071 31.233, 142.866 31.777 M 538.024 48.750 C 525.339 70.417, 446.208 187.363, 422.655 219.250 L 420.623 222.001 422.670 223.908 C 424.693 225.792, 424.747 225.780, 427.268 222.907 C 428.672 221.308, 430.240 220, 430.755 220 C 432.207 220, 434.697 223.126, 437.878 228.944 C 440.743 234.183, 440.807 234.228, 442.034 231.882 C 442.720 230.572, 447.644 223.425, 452.977 216 C 458.310 208.575, 467.561 195.300, 473.535 186.500 C 479.509 177.700, 486.727 167.575, 489.575 164 C 492.423 160.425, 497.027 153.450, 499.807 148.500 C 502.586 143.550, 508.380 134.450, 512.680 128.277 C 528.667 105.333, 538.744 90.457, 539.285 89 C 540.263 86.367, 540.004 120.129, 538.971 130 C 537.497 144.069, 535.670 149.997, 527.926 165.832 C 517.622 186.903, 517.124 184.555, 533.638 192.769 C 541.262 196.562, 551.212 201.141, 555.750 202.945 C 560.288 204.749, 563.987 206.512, 563.971 206.862 C 563.956 207.213, 551.304 220.325, 535.857 236 C 507.644 264.630, 497.604 276, 500.536 276 C 503.528 276, 543.208 257.194, 553.927 250.696 C 557.669 248.427, 557.691 248.356, 552.002 257 C 534.320 283.867, 523.150 299.909, 517.535 306.500 C 510.915 314.270, 506 320.624, 506 321.412 C 506 321.755, 509.333 326.191, 513.406 331.268 C 517.480 336.346, 525.044 346.125, 530.215 353 C 535.386 359.875, 540.140 365.500, 540.780 365.500 C 541.926 365.500, 552.282 352.085, 565 334.124 C 568.575 329.075, 573.904 321.695, 576.841 317.722 C 579.779 313.750, 587.344 303.075, 593.651 294 C 599.959 284.925, 609.792 270.975, 615.502 263 C 621.212 255.025, 630.249 242.087, 635.582 234.250 C 640.916 226.412, 645.556 220, 645.892 220 C 646.228 220, 647.608 222.083, 648.959 224.628 C 650.309 227.174, 652.263 230.336, 653.300 231.655 L 655.186 234.052 660.127 227.526 C 662.844 223.937, 665.727 221, 666.534 221 C 667.340 221, 668 220.745, 668 220.434 C 668 219.218, 665.497 215.244, 661.194 209.628 C 656.377 203.340, 651.169 195.825, 618.146 147.500 C 606.495 130.450, 595.386 114.250, 593.460 111.500 C 578.925 90.748, 555.806 55.952, 551.159 47.833 C 548.063 42.425, 545.257 38, 544.924 38 C 544.590 38, 541.486 42.837, 538.024 48.750 M 101.455 51.142 C 100.939 52.766, 101.542 54, 103.948 56.249 C 105.692 57.879, 107.394 58.939, 107.729 58.605 C 108.064 58.270, 109.239 58.784, 110.341 59.748 C 111.627 60.873, 112.039 60.982, 111.491 60.053 C 111.022 59.258, 112.177 59.702, 114.056 61.040 L 117.473 63.473 115.216 60.304 C 112.772 56.871, 104.214 49, 102.927 49 C 102.491 49, 101.829 49.964, 101.455 51.142 M 751.772 117.143 C 745.490 127.612, 744 130.195, 744 130.616 C 744 132.438, 690.125 211.619, 672.107 236.279 C 665.207 245.722, 664.806 246.547, 666.107 248.625 C 672.057 258.134, 677.665 265.817, 678.500 265.605 C 679.625 265.320, 699.006 239.256, 710.552 222.500 C 714.721 216.450, 723.718 203.625, 730.545 194 C 741.777 178.165, 748.336 168.227, 749.353 165.500 C 749.558 164.950, 750.061 164.811, 750.471 165.191 C 751.367 166.023, 749.554 208.755, 748.517 211.244 C 748.117 212.204, 747.432 212.767, 746.994 212.496 C 745.419 211.523, 736.283 222.875, 733.981 228.666 C 730.667 237.005, 722.540 253.145, 717.356 261.685 C 714.913 265.708, 711.582 271.812, 709.952 275.250 C 706.155 283.257, 707.441 283.729, 717.302 277.944 C 721.261 275.621, 727.200 272.130, 730.500 270.186 C 733.800 268.242, 740.276 263.989, 744.892 260.733 L 753.284 254.814 752.569 279.657 L 751.854 304.500 746.072 310.500 C 742.891 313.800, 737.730 319.762, 734.602 323.750 C 731.474 327.738, 728.484 331, 727.957 331 C 726.483 331, 726.823 333.609, 728.476 334.980 C 729.288 335.654, 732.590 339.872, 735.813 344.353 C 760.074 378.085, 761.774 380.518, 785.167 415 C 788.712 420.225, 794.929 429.225, 798.982 435 C 803.035 440.775, 808.158 448.087, 810.367 451.250 L 814.382 457 901.313 457 C 970.706 457, 988.050 456.748, 987.280 455.750 C 975.082 439.941, 963.751 423.918, 935.478 382.500 C 924.966 367.100, 912.760 349.325, 908.354 343 C 903.947 336.675, 896.892 326.550, 892.675 320.500 C 888.458 314.450, 882.194 305.675, 878.755 301 C 875.316 296.325, 866.475 283.500, 859.108 272.500 C 843.872 249.749, 821.770 217.048, 812.134 203 C 808.550 197.775, 798.827 183.600, 790.526 171.500 C 782.226 159.400, 773.615 147.025, 771.391 144 C 769.167 140.975, 764.521 133.550, 761.067 127.500 C 757.612 121.450, 754.426 116.114, 753.986 115.643 C 753.546 115.172, 752.550 115.847, 751.772 117.143 M 328.245 126.781 C 322.707 137.022, 316.172 147.071, 288.500 187.902 C 279.150 201.699, 269.401 216.418, 266.836 220.613 C 264.270 224.808, 253.020 242.167, 241.836 259.188 C 230.651 276.210, 215.695 298.993, 208.600 309.818 C 173.599 363.222, 132.813 424.018, 124.488 435.198 C 121.744 438.882, 117.735 444.392, 115.578 447.444 C 113.421 450.495, 110.816 453.894, 109.789 454.996 C 107.927 456.994, 107.959 457, 121.211 456.985 C 128.520 456.976, 134.974 456.639, 135.553 456.235 C 136.132 455.831, 137.699 453.700, 139.036 451.500 C 140.372 449.300, 142.877 445.925, 144.603 444 C 149.032 439.058, 155.496 429.585, 196.115 368.500 C 215.864 338.800, 241.021 301, 252.020 284.500 C 263.018 268, 274.387 250.900, 277.283 246.500 C 280.180 242.100, 287.898 230.850, 294.434 221.500 C 313.958 193.574, 324.585 177.760, 326.940 173.131 C 330.740 165.661, 331.289 168.688, 330.210 191.144 C 329.671 202.340, 328.931 212.175, 328.565 213 C 328.198 213.825, 326.459 215.400, 324.699 216.500 C 322.372 217.955, 319.865 221.658, 315.500 230.091 C 312.200 236.466, 306.740 245.916, 303.366 251.091 C 291.934 268.627, 283.021 286, 285.457 286 C 287.565 286, 312.276 269.685, 321.382 262.282 C 327.270 257.494, 331.197 254.864, 331.702 255.369 C 331.850 255.517, 331.567 264.382, 331.072 275.069 C 330.577 285.756, 330.523 299.225, 330.950 305 L 331.729 315.500 324.731 324.737 C 320.882 329.817, 314.756 337.283, 311.117 341.329 C 307.478 345.374, 301.708 352.692, 298.297 357.592 C 294.885 362.491, 289.779 369.200, 286.950 372.500 C 284.121 375.800, 280.682 380.248, 279.307 382.384 C 276.542 386.677, 264.973 401, 264.269 401 C 263.682 401, 264.559 395.548, 267.970 378 C 274.470 344.558, 276.220 331, 274.037 331 C 272.777 331, 266.686 340.122, 260.015 352 C 257.080 357.225, 253.008 364.200, 250.966 367.500 C 248.924 370.800, 241.203 383.625, 233.809 396 C 226.414 408.375, 216.445 424.926, 211.655 432.779 C 202.514 447.766, 198.317 455.650, 199.075 456.409 C 199.324 456.658, 214.715 456.959, 233.277 457.079 L 267.025 457.296 270.785 451.898 C 272.853 448.929, 278.096 440.650, 282.437 433.500 C 308.126 391.186, 344.523 336.776, 368.060 305.500 C 372.199 300, 378.242 291.675, 381.487 287 C 387.646 278.130, 408.596 249.686, 414.534 242.132 L 417.968 237.763 415.709 235.986 C 414.467 235.009, 408.313 226.850, 402.035 217.855 C 395.757 208.860, 384.279 192.500, 376.529 181.500 C 368.779 170.500, 360.704 158.800, 358.585 155.500 C 356.466 152.200, 353.232 147.642, 351.399 145.371 C 349.565 143.100, 345.195 135.924, 341.687 129.423 C 338.180 122.922, 334.903 117.481, 334.405 117.333 C 333.907 117.184, 331.135 121.436, 328.245 126.781 M 118.500 134.910 C 112.771 135.940, 106.845 139.283, 101.622 144.432 C 99.127 146.892, 95.716 149.613, 94.043 150.478 L 91 152.051 91.007 161.276 C 91.014 170.973, 91.385 172.046, 97 178.611 C 98.375 180.218, 101.188 182.817, 103.250 184.386 C 106.843 187.118, 107.199 187.187, 111.750 186.038 C 114.965 185.227, 120.100 185.064, 127.642 185.533 C 140.528 186.335, 144.143 185.513, 148.771 180.731 C 153.426 175.921, 155 171.214, 155 162.097 L 155 154.130 147.664 146.698 C 142.120 141.082, 138.985 138.764, 134.831 137.210 C 127.883 134.610, 123.557 134.001, 118.500 134.910 M 103.500 161.254 C 103.500 166.889, 103.864 172.063, 104.309 172.750 C 105.424 174.473, 112.644 174.370, 113.315 172.621 C 113.606 171.863, 113.465 169.562, 113.002 167.507 C 112.538 165.452, 112.321 162.932, 112.518 161.906 C 112.715 160.881, 112.455 159.781, 111.939 159.462 C 111.422 159.143, 111 157.649, 111 156.141 C 111 152.716, 109.346 150.999, 106.050 151.004 L 103.500 151.008 103.500 161.254 M 135.500 152.765 C 134.950 153.169, 134.436 156.650, 134.357 160.500 C 134.278 164.350, 134.053 168.850, 133.857 170.500 C 133.509 173.422, 133.621 173.508, 138.182 173.802 L 142.865 174.104 143.182 163.802 C 143.370 157.706, 143.092 153.200, 142.500 152.765 C 141.950 152.361, 140.375 152.031, 139 152.031 C 137.625 152.031, 136.050 152.361, 135.500 152.765 M 135.907 215.250 C 132.545 220.151, 129.991 221.814, 124.704 222.541 C 118.808 223.352, 115.057 221.973, 109.109 216.811 C 106.694 214.715, 103.981 213, 103.079 213 C 101.385 213, 95.813 218.344, 92.757 222.901 C 88.904 228.644, 91.448 236.963, 99.875 246.177 C 106.710 253.650, 111.892 256.090, 122.301 256.738 C 129.367 257.178, 131.157 256.939, 135.251 255.014 C 139.937 252.810, 148.555 244.392, 152.158 238.500 C 156.262 231.789, 153.588 221.103, 146.301 215.097 C 141.438 211.088, 138.734 211.128, 135.907 215.250 M 133.680 229.988 C 128.011 233.583, 126.171 236.884, 127.818 240.500 C 129.595 244.400, 135.726 243.070, 136.376 238.643 C 136.522 237.651, 137.284 236.433, 138.070 235.935 C 138.857 235.438, 139.152 235.024, 138.727 235.015 C 138.302 235.007, 138.689 233.878, 139.587 232.508 C 141.160 230.107, 140.957 227, 139.227 227 C 138.768 227, 136.271 228.345, 133.680 229.988 M 104.004 231.250 C 104.009 234.244, 107.290 239.489, 110.457 241.564 C 113.869 243.799, 116 242.068, 116 237.062 C 116 233.812, 115.533 233.106, 112.114 231.184 C 106.945 228.279, 103.999 228.303, 104.004 231.250 M 428 250.410 C 425.756 254.011, 406.044 282.448, 393.972 299.500 C 388.131 307.750, 378.360 321.736, 372.258 330.580 C 366.157 339.423, 357.329 351.913, 352.642 358.334 C 347.955 364.756, 341.349 374.395, 337.962 379.755 C 334.575 385.115, 325.342 398.950, 317.444 410.500 C 294.240 444.431, 285.846 457.180, 286.367 457.700 C 286.636 457.969, 292.759 457.863, 299.974 457.464 L 313.093 456.738 315.161 452.619 C 316.298 450.354, 318.234 447.150, 319.463 445.500 C 320.693 443.850, 326.123 435.975, 331.532 428 C 336.940 420.025, 344.954 408.325, 349.340 402 C 353.727 395.675, 364.142 380.600, 372.485 368.500 C 380.829 356.400, 393.353 338.708, 400.317 329.184 C 407.282 319.660, 416.022 307.297, 419.740 301.712 L 426.500 291.557 426.765 320.778 C 426.987 345.287, 427.260 350, 428.456 350 C 431.673 350, 430.709 352.022, 425.813 355.539 C 410.657 366.427, 395.889 381.394, 397.589 384.144 C 397.835 384.542, 401.291 383.744, 405.268 382.370 C 414.129 379.309, 434 373.973, 434 374.654 C 434 375.656, 424.628 389.635, 421.031 394 C 418.990 396.475, 414.038 403.225, 410.025 409 C 406.012 414.775, 400.608 421.975, 398.016 425 C 391.698 432.373, 375 454.889, 375 456.034 C 375 457.003, 478.298 457.916, 478.766 456.952 C 478.912 456.650, 480.712 454.092, 482.766 451.267 C 484.820 448.442, 489.425 441.776, 493 436.453 C 496.575 431.131, 503.054 421.764, 507.397 415.638 C 518.832 399.511, 530 383.073, 530 382.369 C 530 381.808, 505.739 349.492, 492.186 332 C 474.608 309.313, 450.556 277.351, 445.153 269.500 C 441.747 264.550, 437.057 257.719, 434.730 254.320 C 432.404 250.920, 430.275 248.109, 430 248.071 C 429.725 248.034, 428.825 249.087, 428 250.410 M 636.622 260.858 C 632.456 267.930, 624.014 280.867, 617.863 289.608 C 611.711 298.349, 602.445 311.575, 597.272 319 C 592.099 326.425, 584.409 337.260, 580.183 343.077 C 552.870 380.679, 534.040 407.211, 524.527 421.500 C 521.598 425.900, 515.219 434.760, 510.351 441.189 C 501.371 453.048, 496.875 459.814, 498.739 458.661 C 499.304 458.312, 510.957 457.524, 524.633 456.911 C 549.027 455.816, 554 454.988, 554 452.017 C 554 450.664, 547.621 449.026, 539.173 448.209 L 531.847 447.500 539.081 436.500 C 547.022 424.426, 564.455 399.809, 569.531 393.500 C 571.302 391.300, 577.675 382.525, 583.694 374 C 589.714 365.475, 599.233 352.200, 604.849 344.500 C 610.464 336.800, 617.985 326.450, 621.563 321.500 C 625.140 316.550, 630.353 309.350, 633.148 305.500 C 635.944 301.650, 638.860 297.038, 639.629 295.250 C 641.581 290.712, 643.422 291.017, 642.651 295.750 C 642.316 297.813, 642.331 309.811, 642.685 322.414 C 643.219 341.408, 643.600 345.599, 644.914 346.908 C 646.361 348.349, 645.712 349.147, 637.532 355.994 C 623.559 367.690, 616.353 374.735, 614.986 378.034 C 614.296 379.701, 613.950 381.283, 614.218 381.551 C 614.486 381.819, 621.716 379.675, 630.286 376.786 C 638.855 373.897, 646.176 371.843, 646.555 372.221 C 647.604 373.270, 643.019 380.492, 633.986 392.018 C 629.496 397.746, 623.096 406.498, 619.763 411.467 C 616.429 416.435, 610.841 423.945, 607.344 428.155 C 598.947 438.265, 589 452.918, 589 455.178 C 589 456.903, 593.524 456.993, 692.456 457.241 C 788.946 457.483, 795.831 457.388, 794.706 455.830 C 794.043 454.911, 787.936 446.858, 781.136 437.935 C 774.336 429.011, 766.718 418.513, 764.207 414.605 C 761.695 410.697, 757.100 404.125, 753.994 400 C 750.888 395.875, 745.946 388.900, 743.012 384.500 C 737.731 376.579, 733.866 371.145, 713.498 343 C 707.727 335.025, 699.773 324, 695.822 318.500 C 687.630 307.094, 666.164 278.084, 655.494 264 C 651.536 258.775, 647.544 253.037, 646.623 251.250 C 645.702 249.463, 644.779 248, 644.572 248 C 644.365 248, 640.787 253.786, 636.622 260.858 M 109.271 475.638 C 105.972 478.938, 106.232 483.966, 109.905 487.898 L 112.810 491.008 549.155 490.977 C 789.145 490.960, 985.995 490.621, 986.600 490.223 C 990.568 487.616, 991.119 479.499, 987.588 475.689 L 985.175 473.086 548.359 473.226 L 111.542 473.367 109.271 475.638 M 142.555 509.979 L 110.611 510.500 108.669 513.825 C 106.972 516.732, 106.878 517.651, 107.921 521.132 C 108.578 523.323, 109.973 525.973, 111.023 527.023 C 112.895 528.895, 120.918 528.929, 532.716 528.824 C 763.597 528.764, 960.150 528.442, 969.500 528.108 L 986.500 527.500 988.304 523.809 C 989.797 520.755, 989.925 519.436, 989.047 516.175 C 988.463 514.007, 987.245 511.618, 986.339 510.866 C 984.953 509.716, 920.598 509.497, 579.596 509.479 C 356.793 509.467, 160.125 509.692, 142.555 509.979 M 112.308 549.010 C 106.933 551.175, 105.639 558.862, 109.787 563.985 C 111.882 566.573, 52.156 566.297, 574.265 566.131 L 986.029 566 988.011 562.750 C 990.693 558.352, 990.508 554.757, 987.411 551.077 L 984.822 548 549.661 548.063 C 300.549 548.100, 113.563 548.504, 112.308 549.010 M 126.219 585.721 L 110.939 586.052 108.973 589.276 C 106.352 593.575, 106.489 597.239, 109.401 600.700 L 111.802 603.553 548.873 603.784 L 985.944 604.015 987.699 601.336 C 990.420 597.183, 989.991 591.537, 986.705 588.250 L 983.955 585.500 562.727 585.445 C 331.052 585.415, 134.624 585.539, 126.219 585.721 M 112.439 623.681 C 110.063 624.152, 107 628.811, 107 631.954 C 107 635.275, 109.582 639.489, 112.406 640.775 C 114.340 641.657, 220.861 641.886, 550.561 641.720 C 984.880 641.501, 986.165 641.494, 987.624 639.500 C 990.981 634.911, 990.548 629.457, 986.505 625.414 L 984.091 623 549.295 623.136 C 310.158 623.211, 113.573 623.456, 112.439 623.681 M 110.068 663.904 C 107.309 667.779, 107.423 672.766, 110.355 676.431 L 112.700 679.361 548.879 679.221 C 788.778 679.145, 985.441 678.845, 985.908 678.557 C 987.285 677.706, 990 671.379, 990 669.022 C 990 667.825, 988.685 665.531, 987.077 663.923 L 984.154 661 548.145 661 L 112.136 661 110.068 663.904 M 813.079 753.583 C 813.127 754.748, 813.364 754.985, 813.683 754.188 C 813.972 753.466, 813.936 752.603, 813.604 752.271 C 813.272 751.939, 813.036 752.529, 813.079 753.583 M 843 763.399 L 843 775.087 855.500 774.902 C 868.567 774.708, 871.693 773.595, 862.750 772.321 C 857.678 771.598, 857.619 771.553, 861 771.014 C 862.925 770.708, 864.813 770.903, 865.196 771.449 C 866.427 773.206, 866.757 771.682, 867.191 762.250 L 867.616 753 862.058 752.993 C 859.001 752.989, 853.462 752.699, 849.750 752.348 L 843 751.711 843 763.399 M 874.358 758.147 C 874.711 761.527, 875 766.449, 875 769.084 L 875 773.875 885.951 774.188 C 898.658 774.550, 897.964 775.185, 897.986 763.184 C 898.007 752.015, 897.990 752, 884.822 752 L 873.715 752 874.358 758.147 M 959.323 753.282 C 959.059 753.712, 958.983 758.542, 959.154 764.014 C 959.392 771.625, 959.810 774.097, 960.932 774.527 C 961.738 774.837, 967.034 775.016, 972.699 774.925 L 983 774.761 983 763.941 L 983 753.121 971.402 752.811 C 965.023 752.640, 959.587 752.852, 959.323 753.282 M 836.079 754.583 C 836.127 755.748, 836.364 755.985, 836.683 755.188 C 836.972 754.466, 836.936 753.603, 836.604 753.271 C 836.272 752.939, 836.036 753.529, 836.079 754.583 M 902.777 763.250 C 903.037 768.888, 903.306 773.570, 903.375 773.655 C 903.444 773.739, 908.675 773.960, 915 774.144 L 926.500 774.478 926.692 763.739 L 926.884 753 914.594 753 L 902.304 753 902.777 763.250 M 931.348 758.217 C 931.697 761.123, 931.987 766.087, 931.991 769.250 L 932 775 943 775 C 949.050 775, 954.011 774.663, 954.025 774.250 C 954.039 773.837, 954.130 769, 954.228 763.500 L 954.406 753.500 942.560 753.217 L 930.714 752.934 931.348 758.217 M 988 764.065 L 988 775.129 999.368 774.902 L 1010.736 774.675 1011.415 764.818 C 1011.789 759.397, 1011.821 754.520, 1011.488 753.981 C 1011.149 753.432, 1005.840 753, 999.441 753 L 988 753 988 764.065 M 864.079 761.583 C 864.127 762.748, 864.364 762.985, 864.683 762.188 C 864.972 761.466, 864.936 760.603, 864.604 760.271 C 864.272 759.939, 864.036 760.529, 864.079 761.583 M 534.728 769.457 C 531.289 774.109, 526.921 780.521, 525.023 783.707 C 523.125 786.893, 518.068 794.546, 513.786 800.713 C 509.504 806.881, 506 812.315, 506 812.789 C 506 813.263, 507.040 814.629, 508.312 815.823 C 511.245 818.579, 511.806 818.145, 519.735 807 C 523.060 802.325, 526.796 797.600, 528.036 796.500 L 530.291 794.500 529.790 797.220 C 529.514 798.716, 529.674 799.702, 530.144 799.411 C 530.615 799.120, 531 797.280, 531 795.322 C 531 792.974, 532.270 789.674, 534.729 785.631 L 538.459 779.500 539.201 783.500 C 540.374 789.820, 539.071 796.982, 535.519 803.743 L 532.238 809.986 536.072 809.372 C 540.783 808.619, 545 809.576, 545 811.399 C 545 812.147, 542.862 814.491, 540.250 816.607 C 532.867 822.588, 530.843 825.771, 535.565 823.975 C 542.181 821.460, 541.476 823.645, 532.469 833.566 L 524.939 841.861 527.771 845.180 C 531.360 849.388, 536.571 857.786, 537.490 860.844 L 538.194 863.188 541.109 860.396 C 544.608 857.043, 553.792 843.466, 557.293 836.470 C 558.678 833.704, 563.003 827.407, 566.905 822.478 C 570.807 817.549, 574 812.813, 574 811.954 C 574 810.054, 570.082 803.790, 561.653 792.212 C 558.165 787.420, 552.273 778.438, 548.560 772.250 C 544.848 766.063, 541.624 761, 541.396 761 C 541.168 761, 538.167 764.806, 534.728 769.457 M 226.286 769.728 C 224.592 772.352, 221.509 777.425, 219.434 781 C 214.554 789.408, 205.221 803.145, 200.073 809.500 C 197.844 812.250, 196.016 814.805, 196.011 815.177 C 196.002 815.739, 201.631 819, 202.611 819 C 202.777 819, 205.494 815.737, 208.648 811.750 C 211.802 807.763, 215.635 803.140, 217.167 801.478 C 218.698 799.815, 221.271 795.765, 222.885 792.478 C 224.499 789.190, 226.557 785.600, 227.460 784.500 C 228.997 782.626, 229.077 783.222, 228.725 794 C 228.357 805.324, 228.293 805.589, 224.592 811.333 C 222.524 814.541, 221.051 817.384, 221.318 817.651 C 221.584 817.918, 224.030 817.475, 226.752 816.666 C 234.417 814.390, 235.983 817.085, 230.093 822.416 C 228.942 823.458, 228 825.135, 228 826.144 C 228 827.152, 225.975 830.640, 223.500 833.895 C 221.025 837.149, 219 840.269, 219 840.827 C 219 841.757, 228.004 856.917, 230.207 859.696 C 231.414 861.218, 235.207 857, 240.722 848 C 250.697 831.724, 262.199 815.005, 263.057 815.535 C 264.863 816.652, 263.969 814.844, 259.179 807.695 C 239.783 778.748, 230.675 765.462, 230.070 765.228 C 229.683 765.078, 227.980 767.103, 226.286 769.728 M 856.004 769.250 C 855.998 770.335, 861.774 770.174, 862.457 769.070 C 862.776 768.553, 861.473 768.220, 859.520 768.320 C 857.589 768.419, 856.007 768.837, 856.004 769.250 M 846.500 772 C 846.160 772.550, 846.359 773, 846.941 773 C 847.523 773, 848 772.550, 848 772 C 848 771.450, 847.802 771, 847.559 771 C 847.316 771, 846.840 771.450, 846.500 772 M 874.812 789.877 L 875.125 801 886.562 801 L 898 801 898 790.500 L 898 780 892.750 779.993 C 889.862 779.989, 884.575 779.709, 881 779.370 L 874.500 778.753 874.812 789.877 M 902.663 779.972 C 902.563 780.262, 902.628 785.112, 902.807 790.750 L 903.133 801 913.566 801.150 C 919.305 801.232, 924.563 801.345, 925.250 801.400 C 926.814 801.525, 927.060 780.928, 925.500 780.436 C 923.669 779.858, 902.847 779.435, 902.663 779.972 M 931.698 779.636 C 930.832 780.501, 930.816 786.398, 931.655 795.281 L 932.295 802.063 943.398 801.781 L 954.500 801.500 954.784 790.750 L 955.068 780 945.116 780 C 939.642 780, 934.541 779.761, 933.780 779.469 C 933.018 779.177, 932.082 779.252, 931.698 779.636 M 987.998 790.750 L 988 802 997.750 801.986 C 1012.418 801.966, 1011.500 802.733, 1011.500 790.505 L 1011.500 780.111 999.748 779.806 L 987.996 779.500 987.998 790.750 M 812 780.799 C 812 781.239, 813.575 781.415, 815.500 781.190 C 817.425 780.965, 819 780.605, 819 780.391 C 819 780.176, 817.425 780, 815.500 780 C 813.575 780, 812 780.360, 812 780.799 M 836.079 781.583 C 836.127 782.748, 836.364 782.985, 836.683 782.188 C 836.972 781.466, 836.936 780.603, 836.604 780.271 C 836.272 779.939, 836.036 780.529, 836.079 781.583 M 842.669 780.663 C 842.576 780.752, 842.641 785.543, 842.812 791.310 L 843.125 801.795 854.812 801.271 C 861.241 800.983, 866.556 800.692, 866.625 800.624 C 866.694 800.556, 866.962 795.916, 867.220 790.312 L 867.690 780.125 855.263 780.312 C 848.429 780.416, 842.761 780.573, 842.669 780.663 M 959.216 790.750 L 959.500 801.500 971.250 801.782 L 983 802.063 983 791.032 L 983 780 970.966 780 L 958.932 780 959.216 790.750 M 469.983 794.469 C 465.867 800.777, 458.900 811.570, 454.500 818.453 C 450.100 825.336, 438.295 843.432, 428.267 858.667 C 418.239 873.902, 410.233 886.567, 410.478 886.811 C 410.722 887.055, 420.421 887.255, 432.032 887.255 L 453.142 887.255 455.762 883.378 C 457.203 881.245, 460.132 877.277, 462.271 874.559 C 464.410 871.842, 467.298 867.342, 468.689 864.559 C 470.081 861.777, 473.560 856.350, 476.421 852.500 C 479.283 848.650, 483.488 842.125, 485.766 838 C 488.044 833.875, 492.186 827.354, 494.968 823.508 C 497.785 819.615, 499.784 815.880, 499.478 815.082 C 498.566 812.706, 478.761 783, 478.089 783 C 477.746 783, 474.098 788.161, 469.983 794.469 M 588.609 800.180 L 578.718 815.184 582.267 818.733 L 585.815 822.282 588.041 817.891 C 589.265 815.476, 591.526 811.898, 593.066 809.941 C 594.606 807.983, 596.175 805.151, 596.552 803.647 C 596.930 802.143, 597.747 801.093, 598.369 801.312 C 600.143 801.938, 599.398 810.623, 597.211 814.819 C 594.648 819.737, 593.480 825, 594.953 825 C 595.564 825, 597.694 824.319, 599.686 823.487 C 601.677 822.655, 603.524 822.190, 603.788 822.455 C 604.818 823.484, 601.725 828.827, 598.885 830.927 C 592.527 835.628, 592.609 835.882, 606.494 854.539 C 613.436 863.868, 621.180 874.987, 623.701 879.250 L 628.285 887 648.157 887 L 668.029 887 665.765 883.561 C 650.116 859.796, 631.249 831.810, 620.670 816.668 C 617.277 811.810, 611.290 802.828, 607.366 796.707 C 603.442 790.585, 599.842 785.487, 599.366 785.377 C 598.890 785.266, 594.049 791.928, 588.609 800.180 M 159.752 799.250 C 154.967 805.987, 143.633 822.975, 134.565 837 C 125.497 851.025, 115.473 866.454, 112.289 871.287 C 109.105 876.120, 105.474 881.821, 104.219 883.956 L 101.939 887.839 125.181 887.543 L 148.424 887.247 149.873 884.874 C 150.671 883.568, 152.988 880.025, 155.022 877 C 157.057 873.975, 160.662 867.946, 163.033 863.601 C 165.404 859.257, 168.744 853.857, 170.455 851.601 C 172.166 849.346, 176.234 843.225, 179.495 838 C 182.756 832.775, 186.679 827.022, 188.212 825.215 C 189.745 823.409, 191 821.353, 191 820.646 C 191 818.413, 170.531 787.185, 168.976 787.047 C 168.688 787.021, 164.537 792.513, 159.752 799.250 M 280.827 796.736 C 278.809 800.070, 268.491 814.998, 267 816.741 C 265.525 818.464, 268.477 824, 270.871 824 C 273.242 824, 275.504 821.421, 278.903 814.843 C 282.808 807.286, 284.429 807.767, 284.791 816.589 C 285.064 823.273, 284.878 823.980, 281.541 828.940 C 279.593 831.833, 278 834.771, 278 835.468 C 278 836.817, 282.534 844.003, 294.109 861 C 298.042 866.774, 303.248 875.176, 305.677 879.669 L 310.095 887.839 328.547 887.956 C 338.696 888.020, 347 887.787, 347 887.439 C 347 886.506, 340.187 876.320, 295.536 810.500 C 289.567 801.700, 284.191 794.381, 283.591 794.236 C 282.991 794.092, 281.747 795.217, 280.827 796.736 M 471.492 807.017 C 470.038 809.885, 464.720 818.401, 459.674 825.940 C 454.628 833.479, 447.498 844.339, 443.829 850.073 C 440.160 855.808, 433.748 865.552, 429.579 871.726 C 425.411 877.900, 422.004 883.075, 422.010 883.226 C 422.015 883.377, 425.518 883.581, 429.795 883.679 C 436.891 883.842, 437.697 883.659, 439.035 881.579 C 439.841 880.326, 442.409 876.469, 444.743 873.007 C 447.076 869.545, 449.410 865.173, 449.930 863.292 C 450.449 861.410, 452.365 857.542, 454.187 854.695 L 457.500 849.519 458 857.510 L 458.500 865.500 460.322 860.500 C 463.586 851.543, 465.461 847.608, 467.768 844.864 C 469.056 843.333, 470.501 839.645, 471.111 836.334 C 471.702 833.125, 472.706 829.855, 473.342 829.066 C 473.979 828.278, 471.462 829.238, 467.750 831.201 C 464.038 833.163, 461 834.609, 461 834.413 C 461 832.133, 466.809 822.029, 469.577 819.493 C 472.763 816.575, 473.264 815.432, 474.016 809.367 C 474.483 805.607, 474.700 802.367, 474.499 802.166 C 474.299 801.965, 472.945 804.148, 471.492 807.017 M 162.023 810.250 C 160.733 812.587, 157.556 817.650, 154.964 821.500 C 144.576 836.930, 117.227 878.640, 116.115 880.750 C 114.939 882.982, 114.984 883, 121.965 883 C 126.903 883, 129.013 883.373, 129.044 884.250 C 129.068 884.938, 129.677 883.849, 130.398 881.831 C 131.119 879.813, 133.854 875.313, 136.477 871.831 L 141.244 865.500 137.602 865.188 L 133.960 864.877 135.725 861.888 C 137.814 858.351, 146.836 850.503, 147.756 851.422 C 148.107 851.774, 147.577 853.446, 146.577 855.139 C 144.260 859.062, 143.820 868.500, 145.955 868.500 C 146.755 868.500, 147.723 867.375, 148.105 866 C 148.488 864.625, 148.845 863.907, 148.900 864.405 C 149.059 865.843, 152.880 861.956, 153.608 859.618 C 153.970 858.453, 155.275 855.475, 156.507 853 C 157.739 850.525, 160.400 845.183, 162.420 841.129 C 164.439 837.075, 165.856 833.523, 165.568 833.235 C 165.280 832.947, 163.107 833.451, 160.739 834.356 C 152.950 837.330, 152.460 836.609, 157.149 829.066 C 159.740 824.899, 160.805 824, 163.149 824 L 166 824 166 815 C 166 810.050, 165.633 806, 165.184 806 C 164.735 806, 163.313 807.913, 162.023 810.250 M 875 816.883 L 875 828 886.500 828 L 898 828 898 817.500 L 898 807 888.750 806.986 C 883.663 806.979, 878.487 806.701, 877.250 806.370 C 875.015 805.771, 875 805.843, 875 816.883 M 903 816.879 L 903 827.879 914.598 828.189 C 920.977 828.360, 926.419 828.138, 926.691 827.696 C 926.963 827.253, 926.871 822.303, 926.487 816.696 L 925.788 806.500 914.394 806.190 L 903 805.879 903 816.879 M 806.286 811.500 C 806.294 814.250, 806.488 815.256, 806.718 813.736 C 806.947 812.216, 806.941 809.966, 806.704 808.736 C 806.467 807.506, 806.279 808.750, 806.286 811.500 M 813 817.500 L 813 828 824.167 828 C 834.031 828, 837.370 827.283, 832.221 826.270 C 829.444 825.724, 817.065 825.842, 816.123 826.424 C 815.649 826.717, 815.405 823.592, 815.581 819.478 C 815.764 815.194, 815.495 812, 814.951 812 C 813.049 812, 814.060 808.911, 816.250 808.031 C 818.413 807.162, 818.393 807.124, 815.750 807.063 L 813 807 813 817.500 M 843 817.500 L 843 828 855.250 828.002 L 867.500 828.004 867.186 817.502 L 866.871 807 854.936 807 L 843 807 843 817.500 M 931.348 813.750 C 931.699 817.462, 931.989 822.427, 931.993 824.783 L 932 829.066 943.250 828.783 L 954.500 828.500 954.784 817.750 L 955.068 807 942.889 807 L 930.711 807 931.348 813.750 M 959.011 814.250 C 959.017 818.237, 959.301 823.188, 959.642 825.250 L 960.262 829 966.381 828.991 C 969.746 828.987, 974.862 828.699, 977.750 828.352 L 983 827.721 983 817.361 L 983 807 971 807 L 959 807 959.011 814.250 M 988 817.441 C 988 823.886, 988.416 828.139, 989.088 828.554 C 989.687 828.924, 994.862 828.908, 1000.588 828.517 L 1011 827.808 1011 817.404 L 1011 807 999.500 807 L 988 807 988 817.441 M 596.195 811.500 C 596.215 813.150, 596.439 813.704, 596.693 812.731 C 596.947 811.758, 596.930 810.408, 596.656 809.731 C 596.382 809.054, 596.175 809.850, 596.195 811.500 M 806.232 821 C 806.232 822.925, 806.438 823.712, 806.689 822.750 C 806.941 821.788, 806.941 820.212, 806.689 819.250 C 806.438 818.288, 806.232 819.075, 806.232 821 M 570.437 827.743 C 567.653 831.459, 564.077 836.750, 562.492 839.500 C 558.374 846.644, 546.290 864.787, 542.511 869.500 C 537.259 876.050, 529.948 887.107, 530.391 887.829 C 530.618 888.198, 537.485 888.275, 545.652 888 C 560.254 887.508, 560.505 887.462, 560.829 885.180 C 561.156 882.872, 561.103 882.861, 551.577 883.180 C 546.307 883.356, 541.997 883.345, 541.998 883.157 C 541.999 882.968, 545.075 878.693, 548.834 873.657 C 557.751 861.710, 571.836 840.563, 573.112 837.206 C 574.837 832.668, 575.968 836.624, 575.985 847.253 L 576 857.005 571.974 860.643 C 569.759 862.644, 568.072 864.403, 568.224 864.553 C 568.376 864.704, 570.525 864.455, 573 864 C 575.475 863.545, 577.648 863.320, 577.830 863.500 C 578.350 864.015, 575.065 868.935, 569.483 876 C 566.659 879.575, 563.541 883.741, 562.554 885.257 L 560.761 888.014 591.391 887.757 C 618.138 887.533, 621.948 887.310, 621.446 886 C 620.698 884.050, 614.187 874.672, 602.353 858.500 C 597.121 851.350, 589.973 841.225, 586.469 836 C 582.965 830.775, 579.064 825.259, 577.799 823.743 L 575.500 820.987 570.437 827.743 M 499.905 826.992 C 498.032 829.772, 489.750 842.017, 481.500 854.203 C 473.250 866.389, 464.813 878.857, 462.750 881.908 C 460.688 884.960, 459 887.730, 459 888.063 C 459 888.396, 461.813 888.262, 465.250 887.764 C 468.704 887.264, 482.974 887.161, 497.149 887.535 L 522.797 888.210 527.909 880.635 C 530.721 876.468, 533.902 872.588, 534.979 872.011 C 537.433 870.698, 536.810 868.843, 530.735 859.370 C 524.541 849.710, 505.086 822.557, 504.116 822.218 C 503.673 822.063, 501.778 824.212, 499.905 826.992 M 193.779 828.250 C 191.875 830.587, 187.694 836.321, 184.488 840.991 C 181.282 845.661, 176.350 852.636, 173.528 856.491 C 166.452 866.159, 154.001 886.376, 154 888.200 C 153.999 888.672, 179.243 887.987, 181.750 887.447 C 182.988 887.180, 184 886.295, 184 885.481 C 184 884.092, 179.948 883.681, 166.750 883.733 C 163.919 883.744, 164.708 881.421, 169.451 875.787 C 174.858 869.364, 188.363 849.727, 193.021 841.514 C 196.183 835.940, 196.464 835.699, 197.109 838.014 C 197.489 839.381, 197.845 843.222, 197.900 846.550 C 197.955 849.877, 198.501 853.101, 199.113 853.713 C 200.734 855.334, 199.315 856.973, 194.412 859.142 C 192.031 860.195, 189.782 861.544, 189.413 862.140 C 188.504 863.611, 190.641 864.789, 193.315 864.291 C 194.517 864.067, 196.377 864.532, 197.450 865.324 C 199.725 867.006, 199.866 866.747, 190.721 877.601 C 187.542 881.373, 185.067 885.060, 185.221 885.793 C 185.438 886.832, 188.813 887.128, 200.500 887.135 L 215.500 887.144 217.892 882.558 C 219.208 880.036, 222.205 875.910, 224.553 873.389 L 228.821 868.806 224.891 861.142 C 222.730 856.926, 217.534 849.208, 213.344 843.989 C 209.154 838.770, 204.199 832.138, 202.332 829.250 C 200.466 826.362, 198.557 824, 198.090 824 C 197.623 824, 195.683 825.913, 193.779 828.250 M 830.813 824.683 C 831.534 824.972, 832.397 824.936, 832.729 824.604 C 833.061 824.272, 832.471 824.036, 831.417 824.079 C 830.252 824.127, 830.015 824.364, 830.813 824.683 M 836.158 826 C 836.158 827.375, 836.385 827.938, 836.662 827.250 C 836.940 826.563, 836.940 825.438, 836.662 824.750 C 836.385 824.063, 836.158 824.625, 836.158 826 M 258.125 831.816 C 255.719 835.492, 251.690 841.875, 249.171 846 C 246.652 850.125, 240.223 859.632, 234.885 867.127 C 226.102 879.457, 222 885.927, 222 887.450 C 222 887.753, 240.458 888, 263.017 888 L 304.034 888 301.379 882.750 C 299.919 879.862, 294.398 871.082, 289.112 863.238 C 275.949 843.706, 272.112 837.900, 267.782 830.960 C 265.737 827.682, 263.712 825.030, 263.282 825.066 C 262.852 825.102, 260.531 828.140, 258.125 831.816 M 806.079 826.583 C 806.127 827.748, 806.364 827.985, 806.683 827.188 C 806.972 826.466, 806.936 825.603, 806.604 825.271 C 806.272 824.939, 806.036 825.529, 806.079 826.583 M 783 834 C 783 834.550, 783.423 835, 783.941 835 C 784.459 835, 785.160 834.550, 785.500 834 C 785.840 833.450, 785.416 833, 784.559 833 C 783.702 833, 783 833.450, 783 834 M 805.356 835.499 C 805.544 838.757, 807 838.758, 807 835.500 C 807 834.125, 806.598 833, 806.106 833 C 805.614 833, 805.276 834.125, 805.356 835.499 M 824.250 833.747 L 813 834.066 813.004 844.783 L 813.009 855.500 825.004 855.806 L 837 856.113 837 844.556 C 837 838.200, 836.663 833.096, 836.250 833.214 C 835.837 833.331, 830.438 833.571, 824.250 833.747 M 874.393 834.582 C 874.727 835.452, 875 840.402, 875 845.582 L 875 855 886.500 855 L 898 855 898 844.647 L 898 834.293 890.349 833.647 C 877.330 832.546, 873.694 832.759, 874.393 834.582 M 903 844 L 903 855 915 855 L 927 855 927 845.582 C 927 840.402, 926.727 835.452, 926.393 834.582 C 925.889 833.267, 923.859 833, 914.393 833 L 903 833 903 844 M 843 845 L 843 856 855.500 856 L 868 856 868 845 L 868 834 855.500 834 L 843 834 843 845 M 931.393 835.582 C 931.727 836.452, 932 841.417, 932 846.615 L 932 856.066 943.250 855.783 L 954.500 855.500 954.784 844.750 L 955.068 834 942.927 834 C 932.267 834, 930.860 834.193, 931.393 835.582 M 959.341 844.750 L 959.712 855.500 971.356 855.782 L 983 856.063 983 845.032 L 983 834 970.985 834 L 958.970 834 959.341 844.750 M 988 845.032 L 988 856.063 999.750 855.782 L 1011.500 855.500 1011.784 844.750 L 1012.068 834 1000.034 834 L 988 834 988 845.032 M 500.376 838.500 C 499.294 841.421, 480.427 870.239, 474.024 878.750 L 470.827 883 478.854 883 C 483.270 883, 487.159 883.449, 487.498 883.997 C 488.241 885.198, 501.562 869.283, 503.017 865.456 C 503.973 862.941, 503.888 862.800, 501.772 863.402 C 492.516 866.035, 491.856 865.067, 498.750 858.966 C 501.363 856.653, 503.330 854.253, 503.123 853.631 C 502.915 853.009, 502.462 848.675, 502.116 844 C 501.545 836.288, 501.383 835.778, 500.376 838.500 M 255.793 850.777 C 248.234 862.273, 243.156 869.670, 236.952 878.216 L 233.843 882.500 242.505 883 C 249.271 883.391, 251.452 883.890, 252.467 885.281 C 253.641 886.891, 253.829 886.724, 254.428 883.531 C 254.793 881.589, 255.443 880, 255.875 880 C 256.661 880, 268.219 865.708, 268.820 863.992 C 269.004 863.467, 266.979 863.334, 264.070 863.678 C 259.848 864.178, 259 864.012, 259 862.686 C 259 861.810, 260.158 860.285, 261.572 859.297 C 262.987 858.309, 265.346 856.530, 266.813 855.345 C 269.443 853.220, 269.454 853.159, 267.595 851.105 C 266.488 849.882, 265.509 846.949, 265.227 844.010 C 264.962 841.255, 264.465 839.012, 264.123 839.027 C 263.780 839.042, 260.032 844.329, 255.793 850.777 M 805.780 845.248 C 806.255 855.875, 806.693 856.899, 806.850 847.750 C 806.933 842.938, 806.663 838.999, 806.250 838.998 C 805.837 838.997, 805.626 841.810, 805.780 845.248 M 566.098 853.149 C 564.799 856.876, 564.652 862.667, 565.838 863.400 C 566.681 863.921, 569 855.505, 569 851.924 C 569 848.942, 567.317 849.653, 566.098 853.149 M 445.500 858.943 C 443.373 859.347, 442.407 860.166, 442.180 861.756 C 441.768 864.653, 443.193 864.599, 446.694 861.585 C 449.953 858.780, 449.669 858.152, 445.500 858.943 M 902.811 871.426 L 903.121 883 915.098 883 L 927.075 883 926.787 872.017 C 926.626 865.851, 926.061 860.886, 925.500 860.698 C 924.950 860.513, 919.550 860.247, 913.500 860.106 L 902.500 859.851 902.811 871.426 M 754.216 871.750 L 754.500 882.500 766 882.500 L 777.500 882.500 777.789 873.167 C 777.969 867.323, 777.715 864.058, 777.108 864.433 C 776.574 864.763, 775.849 864.564, 775.495 863.992 C 775.141 863.419, 775.391 863.074, 776.051 863.225 C 776.710 863.376, 777.456 862.938, 777.708 862.250 C 778.059 861.294, 775.321 861, 766.050 861 L 753.932 861 754.216 871.750 M 784 872 L 784 883 795.500 883 L 807 883 807 873.582 C 807 868.402, 807.273 863.452, 807.607 862.582 C 808.140 861.193, 806.736 861, 796.107 861 L 784 861 784 872 M 812.812 871.998 L 813.125 883 825.062 883 L 837 883 837 872 L 837 861 824.750 860.998 L 812.500 860.996 812.812 871.998 M 842.720 872.249 C 842.904 881.627, 843.195 883.486, 844.470 883.417 C 845.312 883.371, 850.837 883.259, 856.750 883.167 L 867.500 883.001 867.500 872.002 L 867.500 861.002 855 861 L 842.500 860.999 842.720 872.249 M 874.160 870.250 C 874.248 875.337, 874.473 877.925, 874.659 876 C 874.846 874.075, 875.245 870.233, 875.545 867.463 L 876.091 862.426 881.735 862.189 C 889.952 861.846, 889.548 861, 881.167 861 L 874 861 874.160 870.250 M 932 872 L 932 883 943.464 883 L 954.928 883 954.724 872 L 954.520 861 943.260 861 L 932 861 932 872 M 959.217 872.069 L 959.500 883.138 971.250 883.319 L 983 883.500 983 872.250 L 983 861 970.967 861 L 958.934 861 959.217 872.069 M 988 871.968 L 988 883 1000.034 883 L 1012.068 883 1011.784 872.250 L 1011.500 861.500 999.750 861.218 L 988 860.937 988 871.968 M 768.750 862.662 C 769.438 862.940, 770.563 862.940, 771.250 862.662 C 771.938 862.385, 771.375 862.158, 770 862.158 C 768.625 862.158, 768.063 862.385, 768.750 862.662 M 757.158 870 C 757.158 871.375, 757.385 871.938, 757.662 871.250 C 757.940 870.563, 757.940 869.438, 757.662 868.750 C 757.385 868.063, 757.158 868.625, 757.158 870 M 772 873.345 C 772 874.085, 771.184 875.429, 770.186 876.331 C 768.787 877.597, 768.101 877.701, 767.186 876.786 C 766.271 875.871, 766 876.103, 766 877.800 C 766 879.010, 765.550 880, 765 880 C 764.450 880, 764 878.891, 764 877.535 C 764 876.094, 763.170 874.626, 762 874 C 760.168 873.019, 759.994 873.247, 759.932 876.715 C 759.871 880.169, 759.770 880.303, 758.780 878.250 C 757.435 875.462, 756 875.333, 756 878 C 756 879.100, 756.563 880.007, 757.250 880.015 C 758.166 880.027, 758.191 880.227, 757.343 880.765 C 756.707 881.169, 759.068 881.500, 762.590 881.500 C 766.113 881.500, 768.996 881.163, 768.997 880.750 C 768.999 880.337, 770.125 880, 771.500 880 C 773.750 880, 774 879.600, 774 876 C 774 873.800, 773.550 872, 773 872 C 772.450 872, 772 872.605, 772 873.345 M 874 881.500 C 874 882.325, 874.436 883, 874.969 883 C 875.501 883, 875.678 882.325, 875.362 881.500 C 875.045 880.675, 874.609 880, 874.393 880 C 874.177 880, 874 880.675, 874 881.500 M 784 899.500 L 784 911 795.750 911.002 L 807.500 911.004 807.189 899.502 L 806.879 888 795.439 888 L 784 888 784 899.500 M 813 899.500 L 813 911 825.607 911 C 836.692 911, 838.141 910.809, 837.607 909.418 C 837.273 908.548, 837 903.373, 837 897.918 L 837 888 825 888 L 813 888 813 899.500 M 842.386 891.179 C 842.724 892.868, 843 898.019, 843 902.625 L 843 911 855.750 911.002 L 868.500 911.004 868.184 899.752 L 867.869 888.500 854.820 888.304 L 841.772 888.109 842.386 891.179 M 874.158 890 C 874.158 891.375, 874.385 891.938, 874.662 891.250 C 874.940 890.563, 874.940 889.438, 874.662 888.750 C 874.385 888.063, 874.158 888.625, 874.158 890 M 902.647 889 C 902.556 889.275, 902.628 894.112, 902.807 899.750 L 903.133 910 915.066 910 L 927 910 927 906.651 C 927 904.809, 926.715 899.931, 926.367 895.812 L 925.734 888.322 914.273 888.411 C 907.970 888.460, 902.739 888.725, 902.647 889 M 932 899 L 932 910 943.500 910 L 955 910 955 899 L 955 888 943.500 888 L 932 888 932 899 M 959.343 890.147 C 959.689 891.441, 959.979 896.438, 959.986 901.250 L 960 910 972.139 910 L 984.279 910 983.648 904.750 C 983.301 901.862, 983.012 897.025, 983.006 894 L 982.994 888.500 970.853 888.147 L 958.713 887.793 959.343 890.147 M 988.513 888.820 C 988.231 889.103, 988 894.208, 988 900.167 L 988 911 993.853 911 C 997.073 911, 1002.473 910.711, 1005.853 910.358 L 1012 909.715 1012 899.358 C 1012 891.757, 1011.667 888.990, 1010.750 888.964 C 1010.063 888.944, 1004.893 888.789, 999.263 888.618 C 993.632 888.447, 988.795 888.538, 988.513 888.820 M 118.750 893.772 C 101.549 894.022, 100 894.191, 100 895.822 C 100 896.800, 100.540 898.140, 101.200 898.800 C 102.120 899.720, 130.507 899.997, 222.950 899.986 C 289.253 899.979, 344.481 899.709, 345.681 899.388 C 348.084 898.743, 349.540 896.140, 348.230 894.830 C 347.446 894.046, 159.586 893.180, 118.750 893.772 M 408.816 894.226 C 407.612 895.165, 407.414 896.091, 408.060 897.750 L 408.936 900 536.218 899.986 C 606.223 899.979, 664.481 899.709, 665.681 899.388 C 668.267 898.694, 669.507 896.107, 667.983 894.583 C 666.277 892.877, 410.994 892.525, 408.816 894.226 M 499 906.013 C 449.225 906.296, 408.387 906.633, 408.250 906.763 C 407.625 907.355, 408.088 910.936, 408.850 911.407 C 409.317 911.696, 467.425 911.993, 537.979 912.066 C 671.959 912.205, 667.933 912.322, 667.985 908.317 C 667.993 907.667, 667.062 906.837, 665.916 906.473 C 663.046 905.563, 606.140 905.406, 499 906.013 M 154.583 907 C 119.959 907.321, 100.553 907.858, 100.349 908.500 C 100.175 909.050, 100.459 910.175, 100.980 911 C 101.813 912.320, 116.570 912.500, 223.927 912.500 C 338.594 912.500, 346.032 912.395, 347.671 910.757 C 348.777 909.652, 349.064 908.670, 348.457 908.073 C 347.297 906.932, 231.171 906.290, 154.583 907 M 897.158 908 C 897.158 909.375, 897.385 909.938, 897.662 909.250 C 897.940 908.563, 897.940 907.438, 897.662 906.750 C 897.385 906.063, 897.158 906.625, 897.158 908 M 987.999 927.250 L 988 939 1000.250 939.001 L 1012.500 939.002 1012.159 927.751 C 1011.971 921.563, 1011.746 916.428, 1011.659 916.339 C 1011.571 916.251, 1006.212 916.026, 999.749 915.839 L 987.997 915.500 987.999 927.250 M 754 917.059 C 754 917.641, 754.450 917.840, 755 917.500 C 755.550 917.160, 756 916.684, 756 916.441 C 756 916.198, 755.550 916, 755 916 C 754.450 916, 754 916.477, 754 917.059 M 784 927.500 L 784 939 795.500 939 L 807 939 807 930.625 C 807 926.019, 807.281 920.844, 807.625 919.125 L 808.250 916 796.125 916 L 784 916 784 927.500 M 813 927.500 L 813 939 825.250 939 L 837.500 939 837.500 927.500 L 837.500 916 825.250 916 L 813 916 813 927.500 M 842.558 927.750 L 842.652 939.500 855.320 939.500 L 867.987 939.500 867.994 927.750 L 868 916 855.232 916 L 842.464 916 842.558 927.750 M 874 918 C 874 919.100, 874.125 920, 874.278 920 C 874.431 920, 875.326 919.100, 876.268 918 C 877.898 916.096, 877.885 916, 875.990 916 C 874.667 916, 874 916.670, 874 918 M 903 927.500 L 903 939 915.047 939 L 927.094 939 926.797 927.500 L 926.500 916.001 914.750 916 L 903 916 903 927.500 M 932 927.500 L 932 939 943.500 939 L 955 939 955 927.500 L 955 916 943.500 916 L 932 916 932 927.500 M 959.393 917.582 C 959.727 918.452, 960 923.627, 960 929.082 L 960 939 971.383 939 C 984.764 939, 983.965 939.872, 983.986 925.250 L 984 916 971.393 916 C 960.308 916, 958.859 916.191, 959.393 917.582 M 412.750 918.723 C 409.393 919.079, 409 919.418, 409 921.953 C 409 923.511, 409.563 924.947, 410.250 925.143 C 410.938 925.339, 469.094 925.275, 539.487 925 C 652.207 924.560, 667.504 924.321, 667.735 923 C 668.559 918.286, 674.621 918.506, 541.287 918.412 C 472.654 918.364, 414.813 918.504, 412.750 918.723 M 102.250 919.662 C 100.426 920.398, 100.692 925.668, 102.590 926.396 C 103.465 926.732, 104.554 926.775, 105.011 926.493 C 105.468 926.211, 159.833 925.972, 225.821 925.963 C 352.131 925.946, 349.108 926.050, 347.457 921.748 C 347.139 920.920, 345.219 919.968, 343.189 919.632 C 338.787 918.904, 104.056 918.934, 102.250 919.662 M 446 932.023 C 425.925 932.320, 409.387 932.661, 409.250 932.781 C 409.113 932.902, 409 933.848, 409 934.885 C 409 936.420, 409.973 936.874, 414.250 937.333 C 417.137 937.642, 457.750 937.744, 504.500 937.559 C 551.250 937.374, 606.938 937.172, 628.250 937.111 C 666.172 937.002, 667 936.958, 667 935.019 C 667 933.776, 666.162 932.856, 664.750 932.550 C 661.381 931.820, 487.975 931.402, 446 932.023 M 103.750 933.690 C 101.543 934.045, 101 934.663, 101.001 936.816 L 101.001 939.500 222.751 939.468 C 289.713 939.450, 345.092 939.337, 345.816 939.218 C 346.628 939.083, 347.011 937.945, 346.816 936.250 L 346.500 933.500 226.500 933.373 C 160.500 933.304, 105.263 933.446, 103.750 933.690 M 874 938.094 C 874 938.592, 874.900 939, 876 939 C 877.100 939, 878 938.827, 878 938.617 C 878 938.406, 877.100 937.998, 876 937.710 C 874.900 937.423, 874 937.595, 874 938.094 M 410 944.393 C 410 945.709, 410.598 947.015, 411.328 947.296 C 413.390 948.087, 656.987 947.972, 661.500 947.177 C 664.613 946.629, 665.571 945.977, 665.820 944.237 L 666.139 942 538.070 942 L 410 942 410 944.393 M 795.250 944.783 L 784 945.066 784 957.033 L 784 969 796.068 969 L 808.136 969 807.603 956.869 C 807.310 950.196, 806.942 944.684, 806.785 944.619 C 806.628 944.553, 801.438 944.627, 795.250 944.783 M 821.750 944.745 L 813 945.078 813 957.039 L 813 969 825 969 L 837 969 837 961.140 C 837 956.816, 837.286 951.191, 837.636 948.640 L 838.272 944 834.386 944.206 C 832.249 944.319, 826.563 944.561, 821.750 944.745 M 914.624 944.748 L 902.749 945.066 903.363 948.783 C 903.701 950.827, 903.982 956.100, 903.987 960.500 L 903.995 968.500 911.998 968.174 C 916.399 967.994, 920 967.432, 920 966.924 C 920 966.416, 920.675 966, 921.500 966 C 922.325 966, 923.003 965.212, 923.007 964.250 C 923.011 962.999, 923.580 963.355, 925 965.500 L 926.987 968.500 926.993 956.250 C 926.997 949.513, 926.888 944.097, 926.750 944.215 C 926.612 944.333, 921.156 944.573, 914.624 944.748 M 932.006 956.250 L 932 968 943.500 968 L 955 968 955 955.991 L 955 943.982 943.506 944.241 L 932.011 944.500 932.006 956.250 M 960 956 L 960 968.063 971.750 967.782 L 983.500 967.500 983.376 956 L 983.252 944.500 971.626 944.218 L 960 943.937 960 956 M 988 956.500 L 988 969 996.875 969 C 1001.756 969, 1007.156 968.719, 1008.875 968.375 L 1012 967.750 1012 955.875 L 1012 944 1000 944 L 988 944 988 956.500 M 842.837 957.249 C 843.023 963.987, 843.248 969.575, 843.338 969.667 C 843.428 969.759, 849.013 969.580, 855.751 969.270 L 868 968.706 868 956.853 L 868 945 855.250 944.999 L 842.500 944.997 842.837 957.249 M 108.269 949.693 C 109.242 949.947, 110.592 949.930, 111.269 949.656 C 111.946 949.382, 111.150 949.175, 109.500 949.195 C 107.850 949.215, 107.296 949.439, 108.269 949.693 M 410.750 954.697 C 409.631 954.984, 409 956.112, 409 957.823 L 409 960.500 538 960.832 C 657.269 961.139, 667 961.039, 667 959.516 C 667 958.610, 666.532 956.995, 665.961 955.927 C 664.940 954.019, 662.704 953.987, 538.711 954.116 C 469.295 954.188, 411.712 954.450, 410.750 954.697 M 104.500 955.882 C 102.397 956.324, 101.404 957.184, 101.180 958.756 L 100.861 961 223.371 961 C 304.691 961, 346.092 960.661, 346.506 959.991 C 346.848 959.436, 346.854 958.117, 346.519 957.059 C 345.921 955.175, 343.467 955.137, 226.704 955.194 C 161.142 955.226, 106.150 955.535, 104.500 955.882 M 916 963.044 C 916 963.435, 916.662 964.305, 917.472 964.977 C 918.647 965.952, 919.253 965.890, 920.472 964.671 C 922.578 962.564, 922.433 962.333, 919 962.333 C 917.350 962.333, 916 962.653, 916 963.044" stroke="none" fill="#000000" fill-rule="evenodd"/>
</svg>