<svg xmlns="http://www.w3.org/2000/svg" width="1024" height="1024" viewBox="0 0 1024 1024" version="1.1">
	<path d="M 125.898 126.500 C 125.819 138.870, 125.887 764.030, 125.981 889.750 L 126 915 507.893 915 C 854.227 915, 889.842 914.854, 890.389 913.428 C 890.721 912.563, 890.998 731.655, 891.004 511.410 L 891.015 110.965 705.408 110.916 C 603.324 110.888, 519.526 111.141, 519.190 111.477 C 518.854 111.813, 521.442 114.656, 524.941 117.794 C 528.441 120.932, 534.862 126.866, 539.211 130.981 L 547.118 138.462 555.809 138.717 C 560.589 138.857, 630.763 139.228, 711.750 139.541 L 859 140.109 859 145.305 L 859 150.500 716.750 150.203 C 616.458 149.994, 573.394 150.227, 570.750 150.993 C 566.699 152.168, 566.219 153.382, 568.575 156.500 C 570.070 158.479, 571.581 158.506, 714.293 159.048 C 793.607 159.349, 858.612 159.687, 858.750 159.798 C 858.888 159.909, 859 162.002, 859 164.450 L 859 168.899 725.750 169.259 C 652.462 169.458, 591.469 169.987, 590.209 170.437 C 587.201 171.511, 587.803 172.940, 592.579 176.066 L 596.500 178.633 660.500 177.816 C 695.700 177.367, 754.875 177.120, 792 177.269 L 859.500 177.539 859.805 182.270 L 860.110 187 753.805 187.122 C 695.337 187.189, 639.625 187.526, 630 187.872 C 613.252 188.473, 612.487 188.590, 612.202 190.588 C 611.477 195.662, 608.045 195.493, 713.905 195.591 C 768.132 195.642, 823.075 195.754, 836 195.842 L 859.500 196.002 859.781 200.364 L 860.062 204.726 748.281 204.907 C 686.801 205.006, 634.813 205.351, 632.750 205.672 C 628.473 206.338, 627.770 208.577, 630.937 211.443 C 632.758 213.091, 639.721 213.204, 746.482 213.331 L 860.091 213.466 859.795 217.983 L 859.500 222.500 756 222.752 C 699.075 222.891, 651.907 223.225, 651.183 223.496 C 650.413 223.784, 649.998 225.131, 650.183 226.740 C 650.430 228.880, 651.165 229.632, 653.500 230.127 C 655.150 230.477, 702.288 230.817, 758.250 230.882 L 860 231 860 235.500 L 860 240 766.250 240.100 C 714.688 240.155, 671.377 240.512, 670.005 240.894 C 666.526 241.862, 666.392 244.371, 669.705 246.548 C 672.375 248.304, 676.673 248.374, 765.750 248.115 L 859 247.845 859 252.275 L 859 256.704 810.683 257.431 C 784.108 257.830, 759.245 257.870, 755.433 257.519 C 745.293 256.587, 695.759 258.524, 693.079 259.958 C 691.866 260.607, 691.022 261.878, 691.199 262.792 C 691.787 265.848, 695.992 267.116, 703.500 266.501 C 709.160 266.038, 851.061 265.467, 857.250 265.882 C 858.640 265.976, 859 266.926, 859 270.500 L 859 275 794.651 275 C 759.259 275, 726.835 275.293, 722.599 275.651 L 714.896 276.302 715.198 279.401 L 715.500 282.500 787.250 282.757 L 859 283.013 859.014 285.257 C 859.021 286.490, 859.283 288.453, 859.595 289.617 L 860.164 291.734 797.596 292.186 C 763.184 292.435, 734.696 292.970, 734.291 293.376 C 733.046 294.621, 736.382 299.376, 739.015 300.109 C 740.382 300.489, 767.938 300.845, 800.250 300.900 L 859 301 859 305.385 L 859 309.770 808.034 310.151 C 770.002 310.435, 756.762 310.838, 755.861 311.739 C 754.939 312.661, 754.926 313.541, 755.806 315.473 L 756.957 318 805.729 318.014 C 832.553 318.021, 855.512 318.299, 856.750 318.630 C 858.594 319.124, 859 319.935, 859 323.117 L 859 327 835.660 327 C 822.823 327, 804.148 327.296, 794.160 327.658 C 777.877 328.248, 776 328.494, 776 330.043 C 776 330.993, 777.143 332.519, 778.539 333.434 C 780.789 334.908, 785.078 335.093, 816.148 335.054 C 835.436 335.031, 852.968 335.291, 855.109 335.633 C 858.900 336.240, 859 336.361, 859 340.378 L 859 344.500 826.500 344.148 C 791.247 343.765, 792.562 343.554, 795.213 349.172 C 796.309 351.493, 797.148 351.804, 803.864 352.371 C 807.955 352.717, 822.034 353, 835.151 353 L 859 353 859 357.500 L 859 362 835.559 362 C 821.483 362, 811.878 362.388, 811.518 362.971 C 811.188 363.504, 811.592 365.244, 812.416 366.837 C 814.410 370.693, 816.416 371, 839.625 371 L 859 371 859 374.852 L 859 378.704 850.750 379.346 C 846.212 379.699, 839.688 379.991, 836.250 379.994 C 830.693 379.999, 830 380.219, 830 381.977 C 830 385.927, 834.092 387.224, 847 387.367 L 858.993 387.500 858.997 392.698 L 859 397.895 853.750 398.198 C 849.306 398.454, 848.454 398.821, 848.202 400.588 C 847.811 403.325, 849.868 404.919, 855.717 406.409 L 860.500 407.627 860.783 419.481 C 860.939 426, 860.714 431.673, 860.283 432.088 C 859.852 432.503, 856.091 429.840, 851.925 426.171 C 847.759 422.502, 838.984 414.802, 832.425 409.060 C 821.122 399.164, 811.443 389.924, 769.470 348.963 C 759.587 339.317, 747.225 327.885, 742 323.557 C 736.775 319.229, 729.350 312.922, 725.500 309.540 C 714.712 300.066, 711.106 297.544, 703 293.806 C 694.375 289.829, 674.112 274.796, 659.527 261.555 C 654.041 256.575, 639.866 242.774, 628.027 230.887 C 616.187 219.001, 602.450 206.197, 597.500 202.436 C 587.472 194.816, 580.351 188.927, 568.500 178.453 C 564.100 174.564, 556.225 168.002, 551 163.871 C 545.775 159.739, 540.825 155.716, 540 154.930 C 539.175 154.143, 535.575 151.034, 532 148.019 C 528.425 145.005, 522.856 140.186, 519.624 137.309 L 513.747 132.080 502.124 142.408 C 495.731 148.088, 488.206 155.158, 485.402 158.118 C 476.756 167.246, 449.806 191.415, 436.470 202 C 431.966 205.575, 420.814 215.073, 411.689 223.107 C 402.564 231.141, 391.106 240.449, 386.227 243.790 C 381.348 247.132, 376.764 250.580, 376.040 251.452 C 374.986 252.722, 374.692 265.503, 374.566 315.519 C 374.479 349.884, 374.711 378, 375.082 378 C 375.452 378, 376.313 377.327, 376.996 376.505 C 378.573 374.604, 408.707 349.703, 416 344.273 C 419.025 342.021, 424.875 337.415, 429 334.037 C 433.125 330.659, 441.404 323.981, 447.398 319.197 C 453.391 314.414, 464.174 305.404, 471.359 299.175 C 484.125 288.108, 498.993 275.908, 506 270.749 L 509.500 268.172 513.500 271.636 C 515.700 273.541, 520.200 277.190, 523.500 279.746 C 526.800 282.301, 536.700 290.514, 545.500 297.997 C 554.300 305.480, 564.043 313.604, 567.152 316.051 C 570.261 318.498, 577.872 324.775, 584.067 330 C 590.261 335.225, 599.943 343.100, 605.583 347.500 C 611.222 351.900, 625.661 363.395, 637.668 373.044 C 649.676 382.693, 675.700 403.353, 695.500 418.956 C 715.300 434.558, 740.298 454.339, 751.051 462.912 C 802.506 503.938, 840.693 533.688, 846.483 537.259 L 851.697 540.475 843.099 549.988 C 838.369 555.219, 828.988 565.013, 822.250 571.751 C 815.513 578.488, 810 584.490, 810 585.088 C 810 585.686, 807.052 584.072, 803.449 581.501 C 799.845 578.929, 796.331 577.043, 795.638 577.309 C 794.946 577.574, 793.853 579.547, 793.211 581.691 C 792.568 583.836, 790.423 587.483, 788.443 589.795 L 784.844 594 788.437 598.197 C 793.070 603.610, 794.340 608.353, 794.216 619.788 C 794.110 629.687, 793.402 631.638, 786.843 640.115 C 784.168 643.573, 784.124 643.802, 785.840 645.356 C 790.993 650.018, 795.321 664.407, 794.369 673.705 L 793.728 679.955 812.614 680.227 L 831.500 680.500 831.791 688.173 L 832.081 695.846 826.547 696.537 C 823.503 696.918, 819.699 697.036, 818.094 696.801 C 815.529 696.424, 815.104 696.728, 814.588 699.311 C 813.793 703.287, 813.838 758.153, 814.642 765.853 L 815.285 772 823.548 772 L 831.810 772 831.270 778.250 C 830.973 781.688, 830.528 784.725, 830.281 785 C 829.646 785.709, 190.291 785.624, 189.581 784.915 C 189.260 784.593, 189.286 781.555, 189.641 778.165 L 190.285 772 197.642 772 L 205 772 205 734 L 205 696 197 696 L 189 696 189 688 L 189 680 209.567 680 C 229.546 680, 230.117 679.944, 229.512 678.038 C 229.170 676.959, 228.818 672.347, 228.732 667.788 C 228.595 660.642, 228.955 658.674, 231.345 653.503 C 232.869 650.205, 235.032 646.530, 236.153 645.338 L 238.190 643.169 233.854 636.835 C 229.732 630.812, 229.501 630.091, 229.154 622.193 C 228.645 610.579, 229.579 605.826, 233.522 599.967 L 236.926 594.909 233.986 590.132 C 232.369 587.504, 230.506 582.912, 229.844 579.927 C 229.183 576.942, 228.497 574.312, 228.321 574.083 C 228.018 573.690, 225.246 575.753, 215.242 583.820 L 210.984 587.254 209.925 584.214 C 209.272 582.342, 205.917 578.784, 201.183 574.943 C 196.957 571.516, 188.334 563.307, 182.021 556.701 C 175.707 550.096, 169.269 543.918, 167.715 542.973 L 164.888 541.254 170.194 538.251 C 173.112 536.600, 182.516 529.680, 191.090 522.874 C 222.689 497.793, 243.667 481.270, 250 476.473 C 259.540 469.247, 282.419 450.405, 284.073 448.412 C 285.267 446.974, 285.524 437.688, 285.646 391.597 C 285.726 361.293, 285.552 332.106, 285.259 326.735 L 284.726 316.969 267.113 334.259 C 257.426 343.769, 246.092 354.463, 241.927 358.024 C 237.761 361.586, 228.536 369.689, 221.427 376.031 C 209.621 386.562, 196.847 397.686, 171.512 419.500 C 166.402 423.900, 160.821 428.313, 159.110 429.307 L 156 431.113 156 419.057 L 156 407 158.885 407 C 160.848 407, 162.286 406.212, 163.385 404.535 C 165.852 400.770, 165.381 400, 160.607 400 C 155.630 400, 154.809 398.949, 155.666 393.672 C 156.291 389.821, 156.197 389.848, 173.528 388.435 C 180.887 387.835, 181.658 387.565, 182.778 385.191 C 185.199 380.060, 185.051 380, 170 380 L 156 380 156 375.500 L 156 371 178.250 370.985 C 190.488 370.976, 200.950 370.638, 201.500 370.234 C 202.050 369.829, 203.248 368.068, 204.163 366.320 L 205.826 363.141 199.208 362.432 C 195.568 362.042, 187.425 361.977, 181.114 362.288 C 174.803 362.599, 166.570 362.596, 162.819 362.282 L 156 361.710 156 357.355 L 156 353 178.250 352.750 C 190.488 352.613, 204.880 352.500, 210.234 352.500 L 219.969 352.500 221.984 348.754 C 223.093 346.693, 224 344.764, 224 344.468 C 224 344.171, 208.588 343.981, 189.750 344.046 L 155.500 344.164 155.239 341.332 C 154.680 335.251, 152.984 335.467, 198.269 335.845 L 239.606 336.190 240.771 332.396 C 241.411 330.309, 241.818 328.485, 241.675 328.341 C 241.531 328.198, 222.174 327.765, 198.657 327.380 L 155.901 326.679 156.200 322.589 L 156.500 318.500 207.426 318.342 L 258.352 318.185 260.154 315.842 C 262.412 312.907, 262.423 312.391, 260.250 311.480 C 259.288 311.076, 235.438 310.518, 207.250 310.240 L 156 309.735 156 305.525 L 156 301.316 174.583 300.670 C 184.804 300.314, 212.479 300.316, 236.083 300.674 L 279 301.326 279 296.663 L 279 292 217.443 292 L 155.885 292 156.193 287.750 L 156.500 283.500 218.250 283.242 L 280 282.985 280 278.992 L 280 275 218 275 L 156 275 156 270.606 L 156 266.213 172.750 265.469 C 181.963 265.060, 196.025 264.989, 204 265.311 C 211.975 265.633, 232.136 265.623, 248.801 265.288 L 279.103 264.678 278.801 261.655 C 278.564 259.273, 277.863 258.445, 275.500 257.752 C 273.850 257.268, 258.775 257.006, 242 257.170 C 225.225 257.334, 198.987 257.363, 183.693 257.234 L 155.885 257 156.193 252.750 L 156.500 248.500 217.284 248.242 C 282.935 247.964, 280.174 248.217, 278.066 242.672 L 277.050 240 216.525 240 L 156 240 156 236.117 L 156 232.235 163.750 231.499 C 168.012 231.094, 191.750 230.889, 216.500 231.043 C 241.250 231.197, 265.438 231.250, 270.250 231.161 C 278.793 231.004, 279 230.943, 279 228.582 C 279 222.603, 283.423 223, 216.893 223 L 156 223 156 218.500 L 156 214 170.250 213.858 C 178.088 213.780, 211.411 213.762, 244.303 213.818 L 304.106 213.920 303.803 209.423 L 303.500 204.926 246.117 204.979 C 214.556 205.008, 181.369 204.730, 172.367 204.361 L 156 203.690 156 199.925 L 156 196.159 162.717 195.440 C 166.412 195.044, 199.937 194.941, 237.217 195.210 L 305 195.699 304.986 193.599 C 304.979 192.445, 304.701 190.488, 304.370 189.250 L 303.767 187 229.883 187 L 156 187 156 182.607 C 156 179.352, 156.453 178.036, 157.750 177.526 C 158.713 177.148, 189.425 176.923, 226 177.027 C 262.575 177.130, 295.762 177.167, 299.750 177.108 L 307 177 307 173 L 307 169 232.117 169 L 157.233 169 156.630 166.750 C 155.295 161.768, 155.853 160.250, 159.250 159.619 C 161.037 159.287, 229.493 159.084, 311.374 159.168 L 460.248 159.321 461.609 155.410 C 462.357 153.260, 462.977 151.264, 462.985 150.975 C 462.993 150.686, 399.663 150.370, 322.250 150.273 C 244.838 150.176, 176.031 150.075, 169.347 150.048 L 157.193 150 156.847 144.999 L 156.500 139.999 245 139.790 C 293.675 139.675, 335.075 139.612, 337 139.649 C 338.925 139.687, 372.393 139.810, 411.374 139.923 L 482.248 140.129 484.374 136.632 C 485.543 134.708, 490.643 128.662, 495.707 123.195 C 500.771 117.728, 505.046 112.731, 505.207 112.090 C 505.429 111.206, 459.633 110.873, 315.750 110.712 L 126 110.500 125.898 126.500 M 515.577 162.603 C 515.186 167.419, 514.245 173.164, 513.484 175.371 L 512.102 179.383 518.865 185.942 C 523.994 190.914, 526.783 194.755, 530.402 201.829 C 533.028 206.960, 534.955 211.378, 534.686 211.647 C 534.103 212.230, 525.133 209.656, 521.829 207.957 C 520.548 207.299, 518.079 205.416, 516.343 203.774 L 513.186 200.788 511.992 206.644 C 511.335 209.865, 509.495 215.875, 507.903 220 C 506.311 224.125, 505.007 228.111, 505.005 228.858 C 504.992 232.543, 573.193 302.952, 573.787 299.867 C 574.151 297.978, 571.734 291.727, 565.721 279 C 563.252 273.775, 559.324 265.450, 556.992 260.500 C 551.931 249.755, 543.998 229.671, 544.584 229.084 C 544.813 228.855, 547.362 230.273, 550.250 232.235 C 553.137 234.197, 559.775 238.031, 565 240.755 C 585.654 251.524, 587.594 252.874, 591.201 258.983 C 596.820 268.500, 612.619 293.034, 625.343 312 C 633.796 324.601, 647.438 342.048, 655.838 351 C 662.317 357.906, 663.944 359.174, 664.508 357.764 C 665.695 354.800, 661.430 343.224, 652.438 325 C 643.237 306.350, 634.579 286.087, 635.444 285.223 C 635.732 284.935, 638.337 285.973, 641.234 287.531 C 660.135 297.693, 679.544 307.449, 679.787 306.910 C 679.946 306.561, 679.088 303.637, 677.882 300.413 C 674.852 292.316, 668.481 285.939, 652.349 274.859 C 640.335 266.608, 636.613 263.257, 617.695 243.656 C 606.038 231.579, 592.450 218.443, 587.500 214.466 C 545.413 180.649, 534.364 171.624, 531.567 168.778 C 529.794 166.975, 525.631 162.878, 522.316 159.674 L 516.287 153.847 515.577 162.603 M 363.750 169.677 L 358 170.100 358 174.050 L 358 178 397.441 178 C 419.134 178, 437.074 177.662, 437.310 177.250 C 437.545 176.838, 438.019 174.925, 438.362 173 L 438.987 169.500 404.244 169.377 C 385.135 169.310, 366.913 169.444, 363.750 169.677 M 321.583 198.136 L 321.667 216.273 331.563 216.073 C 337.006 215.963, 341.550 215.783, 341.661 215.672 C 341.772 215.561, 342.006 207.748, 342.181 198.309 L 342.500 181.147 339.625 180.574 C 338.044 180.258, 333.319 180, 329.125 180 L 321.500 180 321.583 198.136 M 360.625 191.125 C 360.281 192.844, 360 194.644, 360 195.125 C 360 195.606, 372.938 195.995, 388.750 195.990 L 417.500 195.980 419.176 191.990 L 420.851 188 391.051 188 L 361.250 188 360.625 191.125 M 376.750 205.748 L 361 206.051 361 209.388 L 361 212.725 369.250 213.284 C 373.788 213.591, 382.406 213.540, 388.403 213.171 L 399.306 212.500 400.601 208.750 L 401.895 205 397.198 205.223 C 394.614 205.345, 385.413 205.582, 376.750 205.748 M 380.220 226.179 C 380.459 226.905, 382.130 227.645, 383.934 227.821 C 386.303 228.053, 387.094 227.775, 386.780 226.821 C 386.541 226.095, 384.870 225.355, 383.066 225.179 C 380.697 224.947, 379.906 225.225, 380.220 226.179 M 296.993 244.250 C 296.989 247.137, 296.696 252.565, 296.343 256.310 L 295.700 263.121 329.951 262.892 L 364.202 262.664 363.637 259.082 C 363.327 257.112, 362.767 251.787, 362.393 247.250 L 361.712 239 329.356 239 L 297 239 296.993 244.250 M 300.354 269.521 C 299.600 271.486, 300.585 433.919, 301.356 434.689 C 301.628 434.961, 306.722 431.172, 312.675 426.269 C 318.629 421.366, 326.591 415.005, 330.368 412.132 C 334.146 409.260, 341.866 403.279, 347.524 398.840 L 357.812 390.770 358.553 378.135 C 359.344 364.634, 358.421 285.325, 357.354 275.112 C 356.830 270.100, 356.468 269.197, 355.352 270.123 C 353.629 271.553, 304.127 270.304, 302.262 268.784 C 301.380 268.065, 300.831 268.278, 300.354 269.521 M 507.500 290.171 C 506.400 291.300, 501.900 294.958, 497.500 298.301 C 493.100 301.644, 485 308.319, 479.500 313.134 C 474 317.949, 463.857 326.302, 456.960 331.695 C 450.063 337.088, 440.163 344.953, 434.960 349.174 C 414.886 365.459, 379.247 393.717, 374 397.510 C 370.975 399.697, 365.350 404.201, 361.500 407.519 C 357.650 410.837, 346.400 419.836, 336.500 427.517 C 326.600 435.198, 313.100 445.998, 306.500 451.517 C 299.900 457.035, 290.675 464.453, 286 468.001 C 281.325 471.549, 272.507 478.513, 266.406 483.476 C 260.304 488.439, 245.270 500.375, 232.998 510 C 220.726 519.625, 205.918 531.289, 200.092 535.920 C 194.267 540.551, 189.322 544.479, 189.105 544.649 C 188.390 545.206, 212.627 567.011, 213.940 566.992 C 214.248 566.987, 219.900 562.417, 226.500 556.836 C 233.100 551.254, 243.830 542.371, 250.344 537.094 C 284.226 509.649, 292.581 502.848, 301.148 495.733 C 315.387 483.907, 352.456 454.704, 383.950 430.500 C 390.391 425.550, 402.599 415.875, 411.080 408.999 C 419.561 402.124, 428.300 395.172, 430.500 393.550 C 435.825 389.625, 473.486 359.148, 488.276 346.795 C 494.754 341.385, 502.206 335.412, 504.838 333.521 L 509.623 330.083 517.562 336.603 C 521.928 340.189, 529.086 346.133, 533.469 349.812 C 545.247 359.697, 568.924 379.087, 590.888 396.834 C 611.304 413.332, 614.380 415.767, 638.688 434.682 C 647.041 441.182, 660.541 451.864, 668.688 458.421 C 687.930 473.907, 703.614 486.367, 718.500 497.996 C 725.100 503.151, 736.800 512.391, 744.500 518.529 C 752.200 524.668, 763.256 533.293, 769.068 537.697 C 774.881 542.100, 784.016 549.365, 789.369 553.839 C 794.722 558.314, 800.707 563.200, 802.669 564.697 L 806.238 567.419 816.640 556.709 C 822.362 550.819, 827.553 546, 828.177 546 C 830.274 546, 825.634 541.908, 805.124 525.665 C 793.897 516.774, 773.369 500.500, 759.507 489.500 C 745.645 478.500, 726.928 463.650, 717.913 456.500 C 708.899 449.350, 694.093 437.727, 685.011 430.671 C 667.141 416.786, 660.568 411.543, 646.581 400.016 C 641.587 395.900, 634.546 390.275, 630.935 387.516 C 617.871 377.535, 589.279 354.475, 579.500 346.034 C 574 341.286, 564.775 333.630, 559 329.021 C 553.225 324.412, 545.350 317.889, 541.500 314.526 C 537.650 311.162, 533.150 307.386, 531.500 306.135 C 529.850 304.883, 524.598 300.291, 519.828 295.929 C 515.059 291.568, 510.784 288.027, 510.328 288.059 C 509.873 288.092, 508.600 289.042, 507.500 290.171 M 706.501 312.078 C 709.143 320.666, 729.686 363.175, 734.918 370.880 C 740.646 379.314, 766.311 413.403, 771.808 419.878 C 776.685 425.624, 781.328 428.990, 784.380 428.996 C 786.001 428.999, 786.194 428.414, 785.780 424.745 C 785.359 421.003, 782.818 415.432, 771.276 392.944 C 768.711 387.948, 767.195 381, 768.670 381 C 769.182 381, 772.125 383.250, 775.211 386 C 778.296 388.750, 781.086 391, 781.410 391 C 782.557 391, 781.979 386.860, 780.408 383.821 C 777.146 377.514, 756.791 353.977, 746.746 344.897 C 736.100 335.275, 712.698 315.024, 708.242 311.578 L 705.756 309.655 706.501 312.078 M 507.405 350.107 C 506.357 351.266, 497.888 358.343, 488.584 365.833 L 471.668 379.452 475.084 380.264 C 476.963 380.710, 494.475 381.304, 514 381.584 L 549.500 382.093 545.063 378.296 C 542.623 376.208, 533.765 368.538, 525.379 361.250 C 516.993 353.962, 509.947 348, 509.721 348 C 509.495 348, 508.453 348.948, 507.405 350.107 M 459 391.293 C 456.525 393.012, 451.350 396.855, 447.500 399.833 C 443.650 402.811, 436.433 408.294, 431.462 412.016 C 422.014 419.091, 419.320 421.653, 420.300 422.634 C 421.299 423.632, 594.303 423.280, 596.900 422.274 C 599.245 421.366, 599.191 421.271, 594.579 418.158 C 591.982 416.405, 586.680 412.390, 582.796 409.236 C 566.376 395.897, 562.307 392.797, 558.814 390.961 C 555.154 389.038, 555.123 389.039, 554.496 391.012 C 554.149 392.105, 553.108 393.044, 552.183 393.099 C 546.606 393.426, 467.476 392.736, 466.474 392.352 C 465.803 392.094, 464.859 391.047, 464.377 390.026 C 463.558 388.290, 463.204 388.374, 459 391.293 M 608.752 433.244 C 608.279 434.662, 588.507 434.987, 513 434.818 C 429.927 434.632, 409.503 434.414, 408 433.696 C 405.970 432.726, 376.872 453.878, 363.113 466.325 L 358.726 470.294 372.613 469.609 C 418.839 467.328, 606.495 467.274, 649 469.530 C 658.938 470.058, 660.296 469.948, 659 468.726 C 655.244 465.183, 615.139 435.466, 610.335 432.666 C 609.695 432.293, 608.982 432.553, 608.752 433.244 M 370.499 480.681 L 343.498 481.031 336.499 486.652 C 332.649 489.743, 325.450 495.323, 320.500 499.052 C 315.550 502.780, 310.150 506.978, 308.500 508.380 L 305.500 510.928 508.500 510.908 L 711.500 510.889 708.651 508.694 C 707.084 507.487, 698.835 501.035, 690.320 494.355 L 674.837 482.210 667.168 481.630 C 658.254 480.954, 410.464 480.162, 370.499 480.681 M 291.332 523.209 C 290.140 523.919, 285.709 527.608, 281.486 531.407 C 274.797 537.424, 274.037 538.441, 275.586 539.308 C 277.518 540.389, 280.638 543.472, 285.827 549.427 C 289.719 553.894, 293.184 554.942, 304.168 554.976 C 314.598 555.009, 315 554.783, 315 548.893 L 315 544 365.500 544 L 416 544 416 550 L 416 556 431.129 556 L 446.258 556 445.580 550 L 444.901 544 509.810 544 L 574.720 544 575.299 549.605 C 575.617 552.688, 576.022 555.356, 576.200 555.533 C 576.571 555.904, 588.128 556.180, 598.800 556.073 L 606.099 556 605.420 550 L 604.742 544 656.871 544 L 709 544 709 549.500 L 709 555 712.849 555 C 714.966 555, 720.136 554.709, 724.338 554.354 L 731.979 553.708 735.130 548.798 C 736.863 546.097, 739.799 542.730, 741.655 541.314 C 745.660 538.259, 745.694 538.323, 735.535 530.045 C 724.735 521.245, 726.346 521.626, 703.047 522.359 C 676.316 523.200, 328.082 523.364, 308.500 522.545 C 297.102 522.068, 292.980 522.227, 291.332 523.209 M 257.355 550.413 C 253.275 552.232, 246.265 558.587, 244.435 562.125 C 241.953 566.924, 242.612 574.791, 245.989 580.679 C 249.924 587.540, 252.205 589.001, 258.973 588.994 C 269.932 588.983, 275.182 585.899, 279.024 577.212 C 281.899 570.713, 281.600 565.338, 278.053 559.745 C 272.867 551.568, 263.868 547.510, 257.355 550.413 M 754.021 550.118 C 750.533 551.507, 748.138 553.812, 744.849 558.946 C 742.510 562.596, 742 564.490, 742 569.524 C 742 574.680, 742.483 576.387, 745.032 580.234 C 749.706 587.291, 751.795 588.256, 761.510 587.848 C 771.328 587.435, 772.604 586.582, 777.125 577.397 C 779.717 572.133, 780.089 570.485, 779.488 566.931 C 777.814 557.020, 762.341 546.805, 754.021 550.118 M 460 664.732 L 460 770.964 510.031 771.232 L 560.061 771.500 559.781 665.833 C 559.626 607.716, 559.250 559.916, 558.944 559.611 C 558.639 559.305, 536.251 558.931, 509.194 558.778 L 459.999 558.500 460 664.732 M 620.998 574.331 L 621 590.161 636.090 589.831 L 651.181 589.500 650.601 586 C 650.283 584.075, 650.017 577.236, 650.011 570.801 L 650 559.103 635.498 558.801 L 620.997 558.500 620.998 574.331 M 330.353 566.651 C 330.709 570.859, 331.001 577.721, 331.002 581.901 L 331.004 589.500 344.502 589.500 L 358.001 589.500 358 574.250 L 358 559 343.853 559 L 329.707 559 330.353 566.651 M 372.191 574.027 L 372.500 589.054 386.250 589.364 L 400 589.674 400 574.337 L 400 559 385.941 559 L 371.882 559 372.191 574.027 M 665.358 562.750 C 665.699 564.813, 665.983 571.788, 665.989 578.250 L 666 590 679.500 590 L 693 590 693 574.500 L 693 559 678.869 559 L 664.738 559 665.358 562.750 M 294 571.149 C 294 578.524, 291.822 583.649, 285.761 590.534 L 281.615 595.244 284.473 597.326 C 287.080 599.225, 288.477 599.382, 300.415 599.114 C 307.612 598.952, 313.592 598.731, 313.705 598.622 C 313.818 598.512, 313.974 591.015, 314.052 581.962 L 314.193 565.500 304.097 565.215 L 294 564.930 294 571.149 M 709 581.941 L 709 598.882 721.250 599.191 C 733.015 599.488, 733.629 599.401, 736.750 597 C 740.677 593.979, 740.762 593.061, 737.405 589.924 C 732.468 585.312, 729.758 579.348, 729.227 571.925 L 728.731 565 718.866 565 L 709 565 709 581.941 M 418.750 566.744 L 416 567.133 416 583.066 L 416 599 430.500 599 L 445 599 445 582.556 L 445 566.111 433.250 566.233 C 426.788 566.300, 420.262 566.530, 418.750 566.744 M 576 583.500 L 576 600 591 600 L 606 600 606 589.647 C 606 583.952, 605.711 576.527, 605.358 573.147 L 604.715 567 590.358 567 L 576 567 576 583.500 M 750.356 601.409 C 749.176 602.265, 746.814 605.075, 745.106 607.654 C 739.701 615.814, 741.230 626.142, 748.926 633.454 C 751.557 635.953, 753.016 636.470, 758.418 636.814 C 767.500 637.392, 771.236 635.885, 774.820 630.195 C 779.643 622.539, 780.539 618.998, 779.024 613.584 C 778.310 611.034, 776.065 607.077, 774.036 604.790 L 770.346 600.633 761.423 600.243 C 754.468 599.939, 752.027 600.196, 750.356 601.409 M 250.722 603.004 C 247.364 605.646, 243 614.532, 243 618.730 C 243 622.580, 246.633 630.254, 250.348 634.250 C 252.716 636.797, 253.480 637, 260.720 637 C 270.457 637, 274.483 634.686, 278.392 626.841 C 281.482 620.639, 281.638 616.918, 279.033 611.500 C 274.846 602.792, 271.839 601, 261.412 601 C 254.779 601, 252.798 601.371, 250.722 603.004 M 330.500 619.496 L 330.500 634.994 344.250 634.997 L 358 635 358 619.500 L 358 604 344.250 603.999 L 330.500 603.999 330.500 619.496 M 372 619.473 L 372 635 386.250 635.001 L 400.500 635.002 400.270 619.751 L 400.040 604.500 386.020 604.223 L 372 603.945 372 619.473 M 621 619.500 L 621 635 635.750 635 L 650.500 635.001 650.500 619.503 L 650.500 604.005 635.750 604.002 L 621 604 621 619.500 M 666 619.500 L 666 635 680.042 635 L 694.085 635 693.792 619.504 L 693.500 604.007 679.750 604.004 L 666 604 666 619.500 M 293.156 613.615 C 294.835 622.261, 292.818 628.845, 285.589 638.315 C 282.070 642.926, 282.068 642.934, 284.176 644.411 C 285.338 645.224, 287.120 647.152, 288.137 648.695 C 290.105 651.680, 290.275 651.478, 290.412 646 L 290.500 642.500 301.761 642.406 C 307.955 642.354, 313.244 642.089, 313.516 641.818 C 313.787 641.546, 314.119 634.276, 314.254 625.662 L 314.500 609.999 310 609.992 C 307.525 609.989, 302.509 609.703, 298.854 609.358 L 292.208 608.730 293.156 613.615 M 416 626.650 L 416 643.299 425.154 642.650 C 430.188 642.292, 436.713 642, 439.654 642 L 445 642 445 626 L 445 610 430.500 610 L 416 610 416 626.650 M 576 626.500 L 576 643 591 643 L 606 643 606 627.107 C 606 613.537, 605.769 611.125, 604.418 610.607 C 603.548 610.273, 596.798 610, 589.418 610 L 576 610 576 626.500 M 709.225 626.250 L 709.500 642.500 723.845 642.500 C 731.735 642.500, 738.360 642.226, 738.567 641.892 C 738.773 641.558, 737.145 638.875, 734.948 635.930 C 729.934 629.211, 728.720 625.182, 729.155 616.710 L 729.500 609.996 719.225 609.998 L 708.950 610 709.225 626.250 M 482.750 641.707 L 479 642.121 479 661.560 L 479 681 485.481 681 C 491.371 681, 492.012 680.795, 492.516 678.750 C 492.820 677.513, 492.942 668.625, 492.785 659 L 492.500 641.500 489.500 641.396 C 487.850 641.339, 484.813 641.479, 482.750 641.707 M 253.500 648.893 C 250.388 650.275, 247.299 654.070, 244.934 659.416 C 242.412 665.117, 242.747 670.623, 246.002 677.003 L 248.041 681 259.270 680.882 C 274.772 680.718, 275.870 680.391, 278.670 675.093 C 281.937 668.914, 281.717 663.773, 277.921 657.549 C 276.227 654.772, 273.812 651.737, 272.554 650.804 C 269.908 648.842, 256.617 647.509, 253.500 648.893 M 753.500 648.790 C 749.789 650.107, 748.249 651.482, 744.904 656.463 C 742.170 660.534, 741.584 662.339, 741.644 666.499 C 741.685 669.315, 742.645 673.670, 743.802 676.286 L 745.888 681 759.194 680.985 C 766.512 680.976, 773.042 680.625, 773.705 680.203 C 774.368 679.782, 776.127 676.781, 777.613 673.534 C 780.110 668.079, 780.224 667.285, 779.102 663.093 C 777.437 656.868, 774.398 652.257, 770.699 650.344 C 767.329 648.602, 756.730 647.644, 753.500 648.790 M 291 652.723 C 291 653.230, 291.732 655.791, 292.626 658.414 C 294.236 663.141, 294.195 675.202, 292.556 679.135 C 291.928 680.640, 297.625 680.759, 364.328 680.635 C 434.274 680.505, 436.854 680.566, 438.891 682.405 C 441.221 684.510, 441.550 687.422, 439.937 691.665 C 438.453 695.570, 437.467 695.967, 429.226 695.985 L 421.952 696 422.226 712.750 L 422.500 729.500 433.922 729.500 L 445.343 729.500 444.973 711.500 C 444.770 701.600, 444.687 691.925, 444.790 690 C 444.892 688.075, 445.147 679.213, 445.358 670.307 C 445.693 656.113, 445.540 654.023, 444.120 653.377 C 441.687 652.270, 291 651.627, 291 652.723 M 594.500 653.033 C 586.800 653.431, 579.487 653.811, 578.250 653.878 C 576.034 653.998, 576 654.205, 576 667.435 L 576 680.871 653.045 680.685 C 730.071 680.500, 730.090 680.499, 729.578 678.458 C 727.908 671.794, 727.859 664.998, 729.441 659.556 C 730.363 656.382, 730.830 653.496, 730.476 653.143 C 729.580 652.246, 611.598 652.151, 594.500 653.033 M 271.500 696.038 C 268.200 696.448, 260.949 696.832, 255.386 696.891 L 245.272 697 243.506 701.624 C 242.141 705.197, 241.965 706.978, 242.729 709.467 C 244.200 714.263, 250.034 722.695, 252.731 723.923 C 255.704 725.278, 264.358 725.306, 269.145 723.976 C 274.998 722.351, 281 712.997, 281 705.500 C 281 702.393, 278.635 694.740, 277.801 695.147 C 277.635 695.228, 274.800 695.629, 271.500 696.038 M 576 712.393 L 576 730 586.376 730 L 596.752 730 596.730 713 L 596.707 696 587.936 696 C 583.111 696, 578.452 695.727, 577.582 695.393 C 576.176 694.854, 576 696.749, 576 712.393 M 220 733.500 L 220 771 224.485 771 L 228.969 771 228.362 765.191 C 228.028 761.996, 228.290 756.033, 228.944 751.941 C 230.133 744.495, 235.252 732, 237.114 732 C 237.657 732, 237.005 730.538, 235.665 728.750 C 230.410 721.740, 229.011 717.498, 228.340 706.524 L 227.696 696 223.848 696 L 220 696 220 733.500 M 293.306 701.632 C 294.557 709.363, 293.282 713.780, 287.035 723.349 C 284.271 727.583, 282.518 731.202, 283.066 731.541 C 283.607 731.875, 285.500 731.825, 287.274 731.430 C 289.048 731.035, 295.206 730.439, 300.958 730.106 L 311.416 729.500 311.458 713.250 L 311.500 697 307 696.991 C 304.525 696.987, 300.218 696.708, 297.429 696.373 L 292.357 695.764 293.306 701.632 M 325.414 696.917 C 324.762 697.573, 324.953 722.081, 325.642 726.250 L 326.262 730 342.631 730 L 359 730 359 713.547 L 359 697.093 342.414 696.797 C 333.292 696.633, 325.642 696.688, 325.414 696.917 M 372.999 713.274 L 373 730.047 390.250 729.774 L 407.500 729.500 407.814 719.500 C 407.987 714, 407.841 706.708, 407.490 703.295 L 406.850 697.090 389.924 696.795 L 372.997 696.500 372.999 713.274 M 706.008 713.250 L 706 730 709.250 730.165 C 717.302 730.573, 738.589 729.709, 739.406 728.940 C 739.933 728.445, 738.800 726.415, 736.699 724.089 C 730.648 717.390, 729 713.132, 729 704.188 L 729 696.297 717.508 696.398 L 706.015 696.500 706.008 713.250 M 742.885 698.815 C 741.042 703.638, 741.858 710.387, 744.849 715.054 C 749.386 722.136, 751.297 723.360, 758.531 723.821 C 768.972 724.486, 771.386 723.212, 776.685 714.242 C 779.394 709.654, 779.844 705.088, 778.105 699.818 L 777.010 696.500 760.390 696.500 C 743.936 696.500, 743.760 696.523, 742.885 698.815 M 611 711.918 C 611 720.123, 611.273 727.548, 611.607 728.418 C 612.125 729.769, 614.537 730, 628.107 730 L 644 730 644 713.500 L 644 697 627.500 697 L 611 697 611 711.918 M 659.159 713.503 L 658.817 730 674.909 730 L 691 730 691 713.500 L 691 697 675.250 697.003 L 659.500 697.006 659.159 713.503 M 796.701 702.395 C 797.177 707.003, 796.841 708.613, 794.403 713.430 C 792.832 716.531, 789.854 721.306, 787.785 724.040 L 784.022 729.012 787.374 733.402 C 790.846 737.951, 795 750.700, 795 756.807 C 795 758.552, 794.111 762.319, 793.024 765.180 C 791.937 768.040, 791.149 770.458, 791.274 770.553 C 791.398 770.647, 793.303 770.954, 795.507 771.235 L 799.515 771.745 799.845 736.436 C 800.027 717.016, 799.880 700.199, 799.520 699.064 C 799.160 697.929, 798.253 697, 797.505 697 C 796.457 697, 796.272 698.239, 796.701 702.395 M 752.415 737.421 C 746.846 739.846, 742 748.003, 742 754.951 C 742 757.432, 743.037 760.223, 745.140 763.397 C 749.817 770.459, 751.312 771.129, 761.636 770.791 L 770.500 770.500 773.751 765.635 C 778.264 758.882, 778.986 755.548, 777.246 749.500 C 775.279 742.664, 771.777 738.310, 767.231 737.047 C 762.180 735.644, 756.146 735.797, 752.415 737.421 M 250.722 739.004 C 247.364 741.646, 243 750.532, 243 754.730 C 243 758.345, 246.610 766.219, 249.825 769.615 C 251.668 771.563, 252.605 771.692, 261.663 771.247 C 272.714 770.703, 274.530 769.747, 278.234 762.523 C 280.980 757.165, 280.800 752.512, 277.601 746.200 C 273.891 738.878, 270.493 737.008, 260.885 737.004 C 254.776 737.001, 252.766 737.396, 250.722 739.004 M 290.998 740.846 C 290.999 741.036, 291.730 743.703, 292.622 746.771 C 294.595 753.559, 293.994 761.481, 291.081 767.069 L 289.032 771 294.266 771.109 C 297.145 771.169, 302.200 771.319, 305.500 771.443 L 311.500 771.668 311.500 756.395 L 311.500 741.123 301.248 740.811 C 295.609 740.640, 290.997 740.656, 290.998 740.846 M 325 756.500 L 325 772 342 772 L 359 772 359 756.500 L 359 741 342 741 L 325 741 325 756.500 M 373 755.843 L 373 770.686 389.599 771.341 C 398.729 771.701, 406.604 771.745, 407.099 771.439 C 407.595 771.132, 408 764.159, 408 755.941 L 408 741 390.500 741 L 373 741 373 755.843 M 422.500 755.997 L 422.500 770.995 433.250 770.997 C 439.163 770.999, 444.282 771.112, 444.626 771.250 C 444.970 771.388, 445.308 764.638, 445.376 756.251 L 445.500 741.001 434 741 L 422.500 740.999 422.500 755.997 M 576 756 L 576 771 586.500 771 L 597 771 597 756 L 597 741 586.500 741 L 576 741 576 756 M 611.527 741.957 C 611.201 742.483, 610.990 749.458, 611.056 757.457 L 611.178 772 628.089 772 L 645 772 645 765.654 C 645 762.163, 644.708 755.188, 644.350 750.154 L 643.701 741 627.909 741 C 618.934 741, 611.863 741.413, 611.527 741.957 M 659.667 741.667 C 658.825 742.509, 658.819 753.017, 659.654 763.750 L 660.296 772 676.148 772 L 692 772 692 756.500 L 692 741 676.167 741 C 667.458 741, 660.033 741.300, 659.667 741.667 M 706 756.502 L 706 772.005 719.498 771.752 C 726.922 771.614, 732.997 771.232, 732.998 770.904 C 732.999 770.576, 732.212 768.776, 731.250 766.904 C 729.386 763.278, 728.750 748.549, 730.278 744.374 C 731.319 741.530, 729.233 741.031, 716.250 741.014 L 706 741 706 756.502 M 430.250 802.724 C 427.913 802.939, 426 803.539, 426 804.057 C 426 804.576, 422.661 805, 418.580 805 L 411.159 805 410.589 811.250 C 410.275 814.688, 409.902 831.821, 409.759 849.324 L 409.500 881.149 415.500 880.708 C 418.800 880.466, 423.139 879.816, 425.142 879.264 C 427.859 878.515, 564.263 878.269, 594.250 878.960 C 595.212 878.982, 596 879.563, 595.999 880.250 C 595.999 881.152, 598.020 881.450, 603.249 881.322 L 610.500 881.144 610.179 844.322 C 610.002 824.070, 609.646 806.749, 609.387 805.830 C 609.027 804.555, 607.214 804.004, 601.708 803.497 C 593.942 802.781, 437.294 802.075, 430.250 802.724 M 263 804.922 L 257.500 805.500 257.362 824.359 C 257.286 834.732, 256.910 847.832, 256.525 853.470 C 255.728 865.166, 255.572 864.958, 265.205 864.986 C 269.729 864.999, 269.932 864.876, 270.495 861.750 C 271.496 856.192, 270.601 804.682, 269.500 804.504 C 268.950 804.416, 266.025 804.603, 263 804.922 M 755.665 805.733 C 755.385 806.186, 754.829 819.931, 754.430 836.278 L 753.704 866 760.743 866 L 767.783 866 768.464 847.750 C 768.839 837.712, 769 824.100, 768.823 817.500 L 768.500 805.500 762.337 805.205 C 758.948 805.042, 755.945 805.280, 755.665 805.733 M 424 823.704 L 424 833.730 509.500 833.927 L 595 834.125 595 824.563 L 595 815 539.663 815 C 509.227 815, 470.752 814.702, 454.163 814.339 L 424 813.677 424 823.704 M 424 856.358 L 424 866.500 509.750 866.240 L 595.500 865.979 595.150 856.740 C 594.957 851.658, 594.585 847.278, 594.322 847.006 C 594.060 846.735, 555.630 846.445, 508.923 846.364 L 424 846.215 424 856.358" stroke="none" fill="#000000" fill-rule="evenodd"/>
</svg>