<svg xmlns="http://www.w3.org/2000/svg" width="1024" height="1024" viewBox="0 0 1024 1024" version="1.1">
	<path d="M 275.920 152.063 C 266.396 153.565, 257.534 160.311, 252.958 169.542 L 250.500 174.500 250 215.500 C 249.725 238.050, 249.500 256.530, 249.500 256.566 C 249.500 256.602, 269.975 256.335, 295 255.973 C 320.025 255.610, 437.925 255.487, 557 255.699 L 773.500 256.084 773.500 216.274 L 773.500 176.464 770.276 169.912 C 766.381 161.997, 761.210 156.455, 755.070 153.614 L 750.500 151.500 515.500 151.420 C 386.250 151.377, 278.439 151.666, 275.920 152.063 M 599.340 176.370 C 593.404 178.319, 589.813 181.168, 585.675 187.213 C 576.082 201.225, 577.498 219.312, 589.094 230.904 C 595.782 237.589, 600.738 239.489, 611.500 239.495 C 619.522 239.499, 621.008 239.201, 625.176 236.751 C 627.748 235.239, 631.232 232.329, 632.917 230.285 C 639.545 222.243, 641.983 206.714, 638.404 195.335 C 636.367 188.856, 629.653 180.884, 623.661 177.827 C 618.470 175.179, 605.358 174.393, 599.340 176.370 M 687.640 176.632 C 674.708 180.604, 665.490 199.186, 669.017 214.172 C 671.570 225.016, 677.818 233.291, 686.776 237.689 C 693.799 241.138, 703.768 241.554, 711.145 238.707 C 716.803 236.524, 725.201 227.979, 728.301 221.251 C 731.556 214.187, 731.412 200.442, 728.010 193.500 C 724.555 186.447, 715.513 177.463, 710.500 176.099 C 704.929 174.584, 693.436 174.852, 687.640 176.632 M 299.069 192.926 C 297.526 194.577, 295.979 197.356, 295.630 199.100 C 294.755 203.475, 296.572 209.518, 299.442 211.776 C 301.735 213.579, 304.518 213.651, 365.554 213.475 L 429.272 213.291 431.114 210.895 C 434.762 206.152, 434.535 197.850, 430.610 192.481 C 429.197 190.548, 427.630 190.493, 365.518 190.212 L 301.874 189.923 299.069 192.926 M 606.966 194.820 C 600.997 197.466, 598 202.087, 598 208.646 C 598 214.586, 600.749 218.825, 606.015 221.006 C 608.631 222.090, 609.654 222.009, 613.132 220.440 C 624.097 215.496, 625.051 200.574, 614.717 195.670 C 610.980 193.896, 609.433 193.727, 606.966 194.820 M 692.253 197.250 C 688.020 200.208, 685.620 205.273, 686.343 209.725 C 687.065 214.174, 691.030 219.355, 694.957 220.982 C 701.933 223.872, 713 215.429, 713 207.218 C 713 204.441, 712.116 202.853, 708.632 199.368 C 704.799 195.536, 703.724 195, 699.867 195 C 696.930 195, 694.404 195.746, 692.253 197.250 M 249.489 279.832 C 249.770 280.564, 250 372.249, 250 483.575 L 250 685.987 511.500 685.979 L 773 685.971 773.115 491.736 C 773.178 384.906, 773.291 293.043, 773.365 287.596 L 773.500 277.693 684.500 278.341 C 617.869 278.826, 592.274 279.347, 582.664 280.413 C 575.605 281.197, 569.653 282.014, 569.437 282.229 C 569.222 282.445, 572.298 283.655, 576.273 284.918 C 587.649 288.535, 609.401 300.190, 621.500 309.153 C 636.631 320.362, 659.352 343.418, 669.209 357.564 C 681.691 375.478, 693.334 399.357, 699.025 418.709 C 705.265 439.931, 707.026 471.536, 703.580 500.500 C 701.757 515.830, 700.361 520.923, 697.001 524.499 C 695.955 525.613, 693.467 531.244, 691.472 537.012 C 687.135 549.560, 682.407 558.649, 672.315 573.844 C 658.535 594.591, 647.547 606.330, 628.500 620.656 C 593.268 647.153, 548.533 661.496, 506.668 659.718 C 452.870 657.433, 405.193 634.295, 366.167 591.534 C 357.323 581.844, 342.486 559.859, 336.448 547.500 C 321.970 517.861, 316.575 490.495, 318.836 458.166 C 320.796 430.137, 326.235 410.302, 339.544 382.650 C 359.749 340.670, 402.624 301.357, 444.891 286.055 C 450.606 283.985, 454.861 282.032, 454.346 281.714 C 451.466 279.934, 411.364 278.933, 334.739 278.729 C 263.661 278.539, 249.065 278.728, 249.489 279.832 M 492.500 299.457 C 473.302 302.114, 448.943 309.968, 434.540 318.147 C 400.673 337.377, 375.976 363.578, 360.191 397.023 C 347.234 424.478, 342.647 443.913, 342.732 471 C 342.812 496.897, 346.321 511.495, 358.475 536.500 C 363.387 546.607, 368.323 554.925, 373.607 562 C 406.068 605.464, 449.300 629.884, 501.278 634.112 C 523.082 635.886, 542.924 633.589, 563.630 626.894 C 586.978 619.345, 607.332 607.628, 624.623 591.783 C 635.054 582.224, 638.399 578.530, 646.613 567.500 C 656.269 554.532, 659.193 550.031, 664.515 539.944 L 669.557 530.389 655.297 530.444 L 641.038 530.500 639.813 533.454 C 637.758 538.411, 627.647 553.068, 620.764 561.067 C 605.624 578.662, 582.006 593.829, 556.915 602.068 C 521.657 613.646, 482.862 610.402, 447.958 592.959 C 420.706 579.340, 396.911 557.038, 384.278 533.274 C 378.749 522.874, 371.300 500.781, 369.358 489.027 C 363.366 452.750, 375.398 408.289, 399.540 377.500 C 412.380 361.124, 428.489 348.319, 448.500 338.583 C 470.590 327.835, 484.635 324.142, 506.624 323.300 C 529.769 322.414, 545.832 325.074, 566 333.131 C 595.354 344.858, 624.083 371.680, 638.958 401.246 L 644.500 412.261 657.969 412.079 C 665.376 411.978, 671.613 411.721, 671.828 411.506 C 672.042 411.291, 671.351 409.852, 670.292 408.308 C 669.233 406.763, 665.829 400.267, 662.729 393.872 C 656.492 381.008, 647.063 366.328, 638.890 356.755 C 631.724 348.360, 617.505 335.468, 606.500 327.386 C 576.327 305.227, 531.022 294.128, 492.500 299.457 M 495.346 348.011 C 490.861 349.024, 482.311 351.484, 476.346 353.477 C 445.550 363.767, 419.942 385.243, 406.455 412.091 C 384.158 456.478, 387.681 501.105, 416.316 537.022 C 436.077 561.808, 460.481 576.462, 491.934 582.428 C 502.440 584.421, 526.050 584.494, 535 582.562 C 545.011 580.400, 559.341 575.418, 568.710 570.840 C 587.733 561.547, 601.410 548.411, 617.954 523.549 C 634.443 498.768, 635.860 446.178, 620.837 416.500 C 613.974 402.942, 606.369 392.281, 596.923 382.978 C 577.361 363.711, 564.153 356.634, 532.641 348.534 C 520.606 345.441, 507.533 345.257, 495.346 348.011 M 510.500 354.552 C 509.950 354.708, 507.803 355.120, 505.729 355.467 C 498.586 356.663, 490.946 366.232, 489.396 375.922 C 487.999 384.659, 493.377 394.198, 502.834 399.757 C 512.440 405.404, 527.867 401.754, 534.415 392.285 C 542.130 381.129, 536.986 364.118, 524 357.842 C 518.875 355.365, 512.825 353.891, 510.500 354.552 M 507.077 373.077 C 502.821 377.333, 502.884 381.349, 507.250 384.011 C 511.916 386.856, 516.376 386.609, 518.927 383.365 C 521.768 379.754, 521.527 376.776, 518.099 373.106 C 514.357 369.100, 511.062 369.092, 507.077 373.077 M 451.500 384.503 C 443.242 387.424, 436.900 397.676, 438.943 404.801 C 440.990 411.940, 450.157 420, 456.228 420 C 468.757 420, 479.014 404.663, 473.551 394.099 C 471.445 390.026, 465.628 385.268, 461.277 384.060 C 456.595 382.760, 456.402 382.769, 451.500 384.503 M 564.123 389.002 C 551.506 391.981, 542.574 409.824, 548.283 420.644 C 555.268 433.881, 571.186 437.895, 582.728 429.328 C 593.790 421.117, 594.147 403.581, 583.444 394.160 C 577.255 388.711, 571.669 387.220, 564.123 389.002 M 452.974 398.049 C 452.370 399.177, 452.017 401.314, 452.188 402.799 C 452.545 405.887, 455.059 406.688, 459.316 405.070 C 461.354 404.295, 462 403.369, 462 401.225 C 462 399.671, 461.460 397.860, 460.800 397.200 C 458.844 395.244, 454.206 395.747, 452.974 398.049 M 563.747 403.984 C 560.973 406.166, 559.582 410.107, 560.530 413.096 C 561.898 417.405, 571.284 419.560, 574.267 416.250 C 581.192 408.566, 571.818 397.636, 563.747 403.984 M 495.176 428.138 C 490.019 429.624, 483.408 436.886, 481.566 443.089 C 479.322 450.645, 479.594 455.792, 482.549 461.722 C 490.093 476.861, 509.271 479.417, 522.147 467 C 531.610 457.875, 530.750 446.012, 519.831 435.049 C 512.549 427.737, 504.449 425.467, 495.176 428.138 M 653.731 437.750 C 653.518 438.163, 653.238 452.788, 653.108 470.250 L 652.872 502 667.591 502 L 682.310 502 681.598 470.313 C 681.207 452.884, 680.660 438.259, 680.384 437.813 C 679.753 436.791, 654.257 436.731, 653.731 437.750 M 426.137 443.308 C 421.035 445.247, 414.958 450.841, 412.900 455.494 C 405.056 473.226, 414.599 490.084, 432.541 490.187 C 437.832 490.218, 439.758 489.713, 444.329 487.098 C 450.525 483.553, 456.525 477.381, 458.597 472.422 C 462.741 462.504, 457.451 450.408, 446.500 444.763 C 441.620 442.247, 430.938 441.484, 426.137 443.308 M 497.687 445.805 C 494.085 449.565, 493.942 455.261, 497.394 457.523 C 504.331 462.068, 512 459.228, 512 452.115 C 512 449.322, 511.289 447.693, 509.195 445.687 C 505.431 442.081, 501.214 442.124, 497.687 445.805 M 595.750 445.080 C 591.479 447.567, 589.584 456.533, 592.460 460.640 C 597.429 467.733, 610.972 464.996, 612.551 456.578 C 613.786 449.997, 608.135 443.963, 600.800 444.030 C 598.985 444.047, 596.712 444.519, 595.750 445.080 M 430.353 459.465 C 427.597 461.395, 424.725 467.560, 425.478 469.929 C 425.805 470.962, 427.676 472.567, 429.634 473.497 C 434.415 475.765, 439.148 474.802, 442.440 470.889 C 447.535 464.834, 444.483 458, 436.684 458 C 434.352 458, 431.504 458.659, 430.353 459.465 M 557.859 472.022 C 544.215 474.318, 535.153 485.495, 534.212 501.185 C 533.795 508.135, 534.034 509.474, 536.709 515.192 C 542.229 526.988, 551.887 533.455, 564 533.466 C 569.332 533.471, 571.464 532.940, 575.864 530.515 C 585.721 525.081, 592.183 514.488, 592.132 503.846 C 592.097 496.393, 590.704 491.992, 586.232 485.203 C 579.341 474.741, 569.332 470.091, 557.859 472.022 M 556.990 492.250 C 552.494 495.310, 550.066 498.820, 549.337 503.313 C 548.768 506.814, 549.053 507.394, 553.380 511.540 C 557.350 515.343, 558.641 516, 562.150 516 C 572.881 516, 579.397 505.084, 573.974 496.190 C 571.888 492.767, 566.839 490, 562.680 490 C 561.369 490, 558.808 491.012, 556.990 492.250 M 476.459 499.824 C 462.078 506.554, 460.909 527.716, 474.500 535.284 C 481.099 538.960, 487.776 538.663, 494.694 534.386 C 503.660 528.842, 506.626 518.056, 501.879 508.250 C 497.612 499.435, 485.716 495.492, 476.459 499.824 M 481.166 513.596 C 479.459 514.792, 478.964 515.982, 479.194 518.346 C 479.480 521.294, 479.782 521.520, 483.824 521.811 C 488.954 522.180, 491 520.784, 491 516.913 C 491 512.301, 485.610 510.484, 481.166 513.596 M 249 709.123 C 249 709.465, 251.363 712.668, 254.250 716.239 C 270.741 736.635, 271.510 738.281, 274.877 760.392 C 276.297 769.720, 277.346 773.768, 278.670 775.036 C 280.352 776.646, 284.491 776.816, 330 777.144 L 379.500 777.500 383.153 770 C 385.161 765.875, 388.938 756.499, 391.545 749.164 C 394.153 741.829, 396.784 735.657, 397.393 735.449 C 398.002 735.240, 449.926 734.942, 512.779 734.785 L 627.058 734.500 628.067 738.500 C 631.199 750.908, 640.501 773.511, 643.500 776 C 645.654 777.787, 743.888 777.494, 745.708 775.694 C 746.474 774.937, 747.257 768.337, 747.848 757.662 L 748.779 740.823 751.830 737.662 C 754.517 734.877, 762.110 724.860, 770.921 712.477 L 773.783 708.455 511.392 708.477 C 367.076 708.490, 249 708.780, 249 709.123" stroke="none" fill="#000000" fill-rule="evenodd"/>
</svg>