<svg xmlns="http://www.w3.org/2000/svg" width="1024" height="1024" viewBox="0 0 1024 1024" version="1.1">
	<path d="M 750.500 169.569 C 746.206 171.798, 742.118 175.915, 739.883 180.260 C 738.032 183.859, 737.961 186.289, 738.224 236.925 L 738.500 289.829 741.537 294.150 C 746.852 301.710, 749.751 303.001, 761.398 302.994 C 775.411 302.987, 777.803 302.137, 784.431 294.813 C 791.677 286.806, 794 280.658, 794 269.486 L 794 261.047 783.250 261.662 L 772.499 262.277 767.691 257.889 C 763.238 253.824, 762.815 253.020, 761.962 247 C 761.455 243.425, 761.031 235.958, 761.020 230.407 C 760.997 218.700, 762.847 213.869, 769.380 208.579 C 773.101 205.565, 773.411 205.500, 783.978 205.500 L 794.774 205.500 795.348 200.681 C 796.896 187.685, 789.480 174.023, 778.355 169.375 C 773.590 167.384, 754.453 167.518, 750.500 169.569 M 709.500 170.423 C 706.074 171.958, 702.740 174.941, 700.320 178.635 C 698.824 180.918, 698.630 186.636, 698.429 234.340 C 698.291 267.018, 698.588 289.027, 699.199 291.464 C 699.794 293.837, 701.755 296.991, 704.088 299.323 L 707.984 303.219 715.429 302.843 C 721.557 302.534, 723.316 302.052, 725.376 300.117 L 727.878 297.766 725.978 292.943 C 724.202 288.438, 724.070 284.716, 723.970 236.311 L 723.864 184.500 727.007 177.606 C 729.499 172.141, 729.876 170.537, 728.825 169.871 C 726.729 168.542, 712.810 168.940, 709.500 170.423 M 641.415 181.421 C 639.719 182.160, 637.356 184.003, 636.165 185.517 C 634.197 188.019, 634 189.454, 634 201.251 C 634 214.226, 634.001 214.233, 636.250 213.630 C 637.487 213.299, 647.388 213.021, 658.250 213.014 L 678 213 678 200.635 C 678 187.023, 677.137 184.673, 670.961 181.480 C 667.171 179.520, 645.879 179.478, 641.415 181.421 M 301.500 183.841 C 294.809 184.580, 290.561 187.136, 287.436 192.301 C 285.599 195.337, 285.485 198.116, 285.215 246.765 C 285.023 281.443, 285.283 299.337, 286.019 302.071 C 287.297 306.815, 292.762 313.245, 297.015 315.006 C 299.056 315.851, 303.748 316.105, 311.754 315.802 C 325.169 315.296, 329.307 313.778, 335.960 306.922 C 341.523 301.189, 343 295.933, 343 281.864 L 343 270.084 333.250 270.643 C 323.545 271.200, 323.478 271.188, 318.752 268.008 C 310.274 262.305, 309.488 260.417, 309.581 246 C 309.673 231.822, 310.410 229.573, 316.876 223.731 C 321.526 219.530, 325.136 218.637, 335.374 219.154 L 342.765 219.527 343.318 214.013 C 343.952 207.688, 343.043 201.852, 340.733 197.425 C 338.676 193.480, 331.734 187.205, 327.446 185.413 C 323.454 183.745, 309.834 182.920, 301.500 183.841 M 256.180 185.682 C 254.353 186.582, 251.653 188.904, 250.180 190.842 L 247.500 194.365 247.477 217.433 C 247.464 230.120, 247.071 254.473, 246.605 271.551 C 245.776 301.882, 245.804 302.696, 247.834 306.675 C 251.009 312.898, 255.267 316, 260.634 316 C 265.604 316, 273.833 314.232, 275.718 312.760 C 276.646 312.035, 276.290 310.579, 274.227 306.654 L 271.517 301.500 271.767 249.705 L 272.017 197.910 275.008 191.983 C 276.654 188.724, 278 185.594, 278 185.029 C 278 183.255, 260.012 183.793, 256.180 185.682 M 372.812 187.916 C 366.079 188.427, 364.743 188.865, 362.062 191.437 L 359 194.374 359 206.763 L 359 219.152 380.999 218.826 L 402.997 218.500 402.999 207.154 C 403 197.267, 402.733 195.434, 400.921 192.889 C 396.755 187.038, 393.030 186.379, 372.812 187.916 M 785.836 220.703 C 777.073 221.209, 776.505 221.971, 776.502 233.238 C 776.499 246.133, 776.268 246.001, 798.861 245.996 C 814.592 245.993, 816.846 245.781, 819.701 244.040 C 826.871 239.669, 828.051 229.592, 822.093 223.628 L 818.967 220.500 805.734 220.409 C 798.455 220.360, 789.501 220.492, 785.836 220.703 M 641 229.019 C 624.225 229.472, 597 230.342, 580.500 230.952 C 542.615 232.354, 440.434 233.934, 381 234.036 C 355.975 234.080, 333.714 234.432, 331.532 234.819 C 324.204 236.120, 320.601 245.110, 325.250 250.495 L 327.500 253.102 406.859 253.028 C 463.105 252.976, 486.823 252.630, 488.297 251.841 C 489.765 251.055, 507.028 250.774, 546.939 250.885 C 578.047 250.971, 612.500 250.561, 623.500 249.974 C 634.500 249.386, 652.899 248.675, 664.386 248.394 L 685.273 247.882 685.071 238.709 C 684.960 233.664, 684.738 229.405, 684.577 229.244 C 683.701 228.368, 668.112 228.288, 641 229.019 M 217.314 238.929 C 211.768 242.348, 210.463 247.958, 213.649 254.674 C 216.203 260.055, 218.867 261.290, 226.943 260.833 C 230.765 260.617, 234.098 260.229, 234.349 259.970 C 234.601 259.712, 234.962 254.550, 235.152 248.500 L 235.499 237.500 227.999 237.232 C 221.972 237.017, 219.875 237.350, 217.314 238.929 M 653.216 262.749 L 633.933 263.043 634.216 386.022 L 634.500 509 619 509.009 C 610.475 509.014, 601.241 509.289, 598.480 509.621 L 593.460 510.224 584.070 488.362 C 578.905 476.338, 571.312 459.525, 567.197 451 C 563.082 442.475, 557.808 431.397, 555.477 426.383 C 553.147 421.369, 550.789 416.987, 550.238 416.647 C 548.742 415.722, 532 457.283, 532 461.921 C 532 463.021, 536.950 473.591, 543 485.410 C 549.050 497.230, 554 507.142, 554 507.437 C 554 507.732, 552.425 508.631, 550.500 509.436 L 547 510.898 547 607.324 L 547 703.750 550.125 704.375 C 551.844 704.719, 556.314 705, 560.060 705 C 570.191 705, 575.474 707.800, 576.150 713.530 L 576.500 716.500 397.843 717 L 219.185 717.500 215.343 720.571 C 208.770 725.824, 207.994 728.458, 208.147 744.994 C 208.268 758.067, 208.483 759.722, 210.315 761.750 L 212.349 764 516.424 763.968 C 764.303 763.942, 820.816 763.696, 822.211 762.637 C 825.178 760.382, 826 756.230, 826 743.500 C 826 730.081, 825.287 726.995, 821.186 722.661 C 815.359 716.502, 819.029 716.779, 745.349 716.944 L 678 717.096 678 632.441 C 678 557.745, 678.176 547.853, 679.494 548.359 C 680.316 548.675, 689.091 548.984, 698.994 549.046 L 717 549.160 717.003 555.330 C 717.005 558.723, 717.300 569.249, 717.659 578.721 L 718.313 595.942 710.668 595.786 C 703.832 595.646, 702.747 595.888, 700.414 598.065 C 694.748 603.353, 692.582 611.634, 695.029 618.652 C 696.619 623.214, 700.621 625, 709.249 625 L 716.689 625 717.341 639.250 C 717.699 647.087, 717.994 664.638, 717.996 678.250 L 718 703 737 703.150 C 747.450 703.232, 756.563 703.345, 757.250 703.400 C 758.222 703.478, 758.611 694.985, 759 665.213 C 759.425 632.642, 759.724 626.784, 761 625.978 C 761.825 625.457, 766.033 625.024, 770.350 625.015 C 777.894 625.001, 778.329 624.871, 781.510 621.690 C 785.253 617.947, 787.451 611.332, 786.457 606.804 C 786.091 605.138, 784.211 602.026, 782.279 599.888 L 778.767 596 768.884 596 L 759 596 759.058 576.250 C 759.089 565.388, 759.433 554.700, 759.821 552.500 L 760.527 548.500 768.646 547.970 C 777.732 547.377, 778.906 546.723, 782.795 540.087 C 787.820 531.513, 785.747 520.442, 778.161 515.329 C 774.875 513.115, 763.525 511.201, 760.519 512.354 C 759.185 512.866, 759 509.841, 759 487.469 L 759 462 768.277 462 C 775.240 462, 778.136 461.593, 779.886 460.367 C 785.179 456.660, 787.740 444.266, 784.506 438.011 C 781.864 432.902, 779.516 432, 768.861 432 C 763.529 432, 759.017 431.574, 758.833 431.054 C 758.377 429.760, 719.693 429.452, 708.750 430.656 C 699.205 431.705, 698.496 432.160, 694.967 439.500 C 691.739 446.215, 693.069 454.394, 698.164 459.153 C 700.828 461.641, 701.954 461.950, 709.314 462.211 L 717.500 462.500 717.768 485.129 L 718.037 507.757 715.768 508.365 C 714.521 508.699, 705.803 508.979, 696.395 508.986 L 679.289 509 678.652 502.250 C 678.301 498.538, 678.011 442.962, 678.007 378.750 L 678 262 675.250 262.227 C 673.737 262.352, 663.822 262.587, 653.216 262.749 M 488.994 267.900 C 481.512 270.278, 472.454 277.425, 469.294 283.444 C 468.444 285.062, 463.466 296.762, 458.231 309.444 C 452.996 322.125, 445.354 340.600, 441.247 350.500 C 419.970 401.794, 408.984 429.881, 406.933 438.233 C 404.584 447.800, 408.676 454.855, 417.720 456.830 C 443.761 462.515, 439.844 462.210, 475 461.300 C 506.968 460.473, 507.574 460.419, 512 457.978 C 515.868 455.844, 517.094 454.303, 520.731 446.998 C 523.058 442.324, 525.245 437.600, 525.592 436.500 C 525.938 435.400, 527.792 430.900, 529.712 426.500 C 531.632 422.100, 534.455 415.125, 535.985 411 C 537.515 406.875, 541.120 397.875, 543.995 391 C 546.871 384.125, 550.271 375.575, 551.552 372 C 559.368 350.179, 569.291 325.432, 577.613 307 C 581.287 298.864, 582.346 295.371, 582.319 291.488 C 582.275 285.254, 579.497 279.585, 574.095 274.705 C 566.157 267.533, 566.543 267.594, 527 267.335 C 507.475 267.208, 490.372 267.462, 488.994 267.900 M 372.750 268.748 L 359 269.056 359 362.060 C 359 435.576, 359.262 455.149, 360.250 455.475 C 360.938 455.702, 368.255 456.026, 376.511 456.195 L 391.521 456.502 390.566 450.723 C 388.685 439.348, 393.587 421.481, 400.500 414.515 C 402.457 412.543, 402.507 410.952, 402.804 340.250 L 403.107 268 394.804 268.219 C 390.237 268.340, 380.313 268.578, 372.750 268.748 M 353.330 468.982 L 301.160 469.500 298.609 471.897 C 295.002 475.287, 293.673 480.183, 294.234 488.019 C 294.805 496.003, 297.978 502.511, 302.617 505.213 C 305.537 506.914, 307.241 506.961, 329.617 505.965 C 359.182 504.649, 418.294 505.230, 422.359 506.876 C 423.932 507.513, 435.577 513.228, 448.237 519.576 C 474.206 532.598, 479.903 534.409, 485.188 531.322 C 491.897 527.404, 495.467 517.974, 493.033 510.599 C 491.907 507.187, 483.882 499, 481.664 499 C 480.073 499, 455.742 486.504, 445.393 480.372 C 440.384 477.404, 433.529 473.856, 430.158 472.486 C 424.056 470.006, 412.758 467.848, 408 468.252 C 406.625 468.369, 382.023 468.698, 353.330 468.982 M 460.250 471.110 C 457.122 474.338, 460.275 477.388, 468.795 479.375 L 475.017 480.827 477.630 476.368 C 479.067 473.916, 479.951 471.618, 479.595 471.262 C 479.238 470.905, 475.021 470.435, 470.223 470.216 C 463.970 469.932, 461.146 470.185, 460.250 471.110 M 488.191 478.643 C 487.634 479.684, 486.881 482.116, 486.519 484.045 C 485.896 487.369, 486.080 487.677, 490.036 489.900 C 492.333 491.191, 495.681 493.537, 497.478 495.114 L 500.743 497.982 501.456 488.875 C 501.848 483.866, 501.787 479.387, 501.321 478.921 C 500.854 478.454, 497.938 477.775, 494.839 477.411 C 489.936 476.835, 489.073 476.995, 488.191 478.643 M 508.150 519.677 C 508.040 523.462, 507.044 526.690, 504.445 531.677 C 499.896 540.409, 496.979 543.393, 489.290 547.178 C 477.926 552.773, 474.386 551.716, 434.500 530.825 C 426.237 526.497, 412.251 521.384, 405.896 520.367 C 400.777 519.549, 397.434 523.001, 390.651 536.113 C 383.940 549.084, 373 575.320, 373 578.442 C 373 579.541, 401.408 578.625, 402.235 577.500 C 402.639 576.950, 402.976 570.650, 402.984 563.500 L 402.998 550.500 428.749 551.261 C 442.912 551.680, 455.930 552.257, 457.678 552.543 L 460.856 553.064 460.678 575.027 L 460.500 596.990 454.643 596.995 C 449.461 596.999, 448.868 597.202, 449.500 598.750 C 453.091 607.553, 455 614.749, 455 619.481 C 455 624.701, 455.135 625, 457.500 625 L 460 625 460 663.833 C 460 685.192, 460.187 702.854, 460.415 703.083 C 460.643 703.312, 470.340 703.370, 481.965 703.211 L 503.100 702.922 502.800 623.973 C 502.535 554.176, 502.674 545.073, 504 545.453 C 505.796 545.967, 510.371 546.252, 514.506 546.106 C 517.795 545.990, 519.310 543.656, 520.537 536.814 C 521.280 532.672, 520.910 532.025, 513.833 525.080 C 510.892 522.194, 509.005 519.390, 508.732 517.500 C 508.451 515.552, 508.247 516.316, 508.150 519.677 M 345.710 518.433 C 344.770 519.373, 344 520.521, 344 520.982 C 344 521.839, 341.925 526.433, 329.990 552 C 317.366 579.043, 316.090 583, 319.997 583 C 322.334 583, 329.309 589.022, 331.742 593.140 C 333.847 596.703, 334.202 596.699, 335.799 593.092 C 336.507 591.492, 338.905 588.117, 341.128 585.592 C 345.141 581.033, 345.217 581, 351.585 581 C 357.018 581, 358.004 580.732, 358.025 579.250 C 358.066 576.332, 361.715 566.343, 364.437 561.697 C 365.847 559.292, 367 556.663, 367 555.855 C 367 555.047, 368.574 551.261, 370.497 547.443 C 372.420 543.624, 373.995 540.079, 373.997 539.563 C 373.999 539.048, 376.076 534.186, 378.613 528.759 C 381.149 523.332, 382.971 518.638, 382.661 518.328 C 382.351 518.018, 374.295 517.530, 364.759 517.243 C 349.300 516.779, 347.235 516.908, 345.710 518.433 M 589 632.903 L 589 717 611.500 717 L 634 717 634.037 714.750 C 634.068 712.906, 634.052 630.287, 634.009 564.500 L 633.999 549.500 611.500 549.153 L 589 548.806 589 632.903 M 382.954 590.972 C 347.841 591.560, 348.785 591.374, 343.703 598.707 C 335.869 610.011, 338.783 631.063, 349.341 639.449 L 353.183 642.500 389.212 642.786 L 425.240 643.073 429.029 639.090 C 431.113 636.900, 433.142 633.621, 433.538 631.804 C 433.935 629.987, 435.288 627.273, 436.545 625.774 C 441.995 619.274, 440.172 612, 433.094 612 C 429.936 612, 429.124 612.409, 428.630 614.250 C 427.480 618.542, 428.013 621.629, 430.482 624.975 C 433.769 629.431, 432.435 631.212, 426.121 630.798 C 422.210 630.542, 421.244 630.020, 419.283 627.102 C 416.381 622.783, 416.320 617.037, 419.114 611.264 C 421.728 605.865, 424.035 604.312, 430.750 603.431 C 436.547 602.671, 437.103 601.675, 434.340 596.999 C 431.724 592.571, 426.151 589.962, 419.864 590.222 C 416.914 590.345, 400.304 590.682, 382.954 590.972 M 242.411 593.891 C 235.176 598.303, 232.464 606.278, 233.208 620.951 C 233.695 630.541, 235.885 636.043, 240.896 640.259 C 243.863 642.756, 244.028 642.774, 270.499 643.509 C 311.240 644.641, 318.578 643.614, 323.982 636.025 C 326.768 632.113, 326.554 631.657, 322.250 632.335 C 317.205 633.129, 310.649 630.155, 308.566 626.128 C 304.901 619.040, 308.120 608.101, 314.677 605.361 C 316.635 604.543, 319.639 604.015, 321.353 604.187 C 327.589 604.813, 325.265 597.706, 318.025 594.013 C 314.298 592.111, 312.183 592, 279.790 592.004 C 247.971 592.007, 245.277 592.143, 242.411 593.891 M 329.915 639.593 C 327.513 644.474, 327.502 644.646, 327.810 672 C 327.981 687.125, 328.349 700.288, 328.628 701.250 C 329.081 702.815, 330.701 703, 343.965 703 L 358.795 703 359.505 689.250 C 359.896 681.688, 360.511 670.663, 360.872 664.750 L 361.528 654 357.514 653.991 C 352.419 653.979, 344.108 649.333, 340.299 644.367 C 338.759 642.360, 336.337 639.361, 334.915 637.702 L 332.330 634.686 329.915 639.593 M 373.996 671 C 373.992 679.525, 373.701 690.189, 373.350 694.697 L 372.712 702.894 387.282 703.197 L 401.853 703.500 402.427 700.625 C 402.742 699.044, 403 688.356, 403 676.875 L 403 656 397.250 655.777 C 394.087 655.654, 387.564 655.541, 382.752 655.527 L 374.005 655.500 373.996 671" stroke="none" fill="#000000" fill-rule="evenodd"/>
</svg>