<svg xmlns="http://www.w3.org/2000/svg" width="1024" height="1024" viewBox="0 0 1024 1024" version="1.1">
	<path d="M 486 99.622 C 440.256 102.923, 389.817 114.774, 349.789 131.626 C 289.834 156.869, 239.165 193.898, 198.751 242.010 C 192.845 249.040, 172.533 277.050, 166.849 286 C 129.329 345.089, 108.486 411.192, 103.945 485.500 C 101.960 517.984, 103.789 549.875, 109.546 583.128 C 118.126 632.695, 137.178 683.050, 164.017 727.099 C 188.348 767.031, 222.428 805.631, 257.500 832.977 C 280.838 851.175, 313.857 871.263, 339.987 883.161 C 365.107 894.599, 406.818 907.350, 435.647 912.405 C 443.428 913.769, 459.178 915.857, 470.647 917.045 C 499.031 919.985, 536.908 919.401, 565.777 915.579 C 612.593 909.380, 657.486 895.783, 697.827 875.587 C 732.739 858.108, 765.497 835.513, 788.727 812.889 C 830.405 772.298, 851.822 743.389, 876.021 695.060 C 904.482 638.221, 919.017 575.317, 918.991 509.089 C 918.966 442.988, 906.295 386.707, 878.556 329.500 C 862.447 296.276, 848.352 273.682, 826.728 246.423 C 818.306 235.807, 796.718 212.796, 786.050 203.065 C 738.386 159.588, 678.704 127.431, 617 111.981 C 578.430 102.323, 560.841 100.062, 520.500 99.575 C 504.550 99.383, 489.025 99.404, 486 99.622 M 492 149.667 C 478.738 150.603, 453.365 153.294, 445.500 154.598 C 423.287 158.282, 385.143 169.875, 364.394 179.248 C 306.716 205.303, 255.562 247.308, 221.430 296.642 C 190.744 340.996, 174.068 378.004, 163.139 426 C 151.906 475.327, 150.442 522.233, 158.598 571.500 C 172.322 654.410, 219.719 737.206, 283.112 789.009 C 296.987 800.347, 324.259 818.525, 340.500 827.260 C 357.226 836.256, 382.401 846.948, 401.500 853.167 C 420.800 859.452, 459.982 866.872, 485.742 869.122 C 501.835 870.528, 539.912 869.669, 558 867.493 C 603.051 862.072, 646.777 847.505, 688 824.183 C 759.392 783.794, 808.553 726.565, 843.215 643.500 C 866.653 587.330, 874.616 516.770, 864.487 455 C 857.414 411.859, 847.681 381.267, 829.430 344.803 C 801.136 288.273, 760.998 242.213, 710.500 208.325 C 673.010 183.167, 629.623 164.849, 586.605 156.017 C 561.911 150.947, 516.781 147.918, 492 149.667 M 626 205.968 C 619.675 206.987, 604.600 209.254, 592.500 211.006 C 566.395 214.785, 519.770 222.561, 512 224.431 C 508.975 225.158, 501.663 226.778, 495.750 228.029 L 485 230.304 485 238.258 L 485 246.212 487.918 243.088 C 495.406 235.072, 512.738 231.632, 524.079 235.911 C 532.162 238.960, 537.316 243.837, 541.585 252.475 C 545.015 259.415, 545.197 260.269, 544.725 267.171 C 544.449 271.202, 543.914 275.443, 543.536 276.595 C 542.874 278.610, 543.261 278.715, 553.674 279.349 C 575.353 280.668, 605.109 286.360, 619.808 291.999 C 633.222 297.146, 649.914 307.322, 660.366 316.726 C 663.608 319.643, 664.734 320.103, 667.352 319.580 C 674.643 318.121, 674.636 312.705, 667.333 302.989 C 652.090 282.712, 618.502 264.372, 584.612 257.821 C 578.500 256.639, 569 254.734, 563.500 253.586 L 553.500 251.500 553.189 248.284 C 552.918 245.477, 553.236 244.983, 555.689 244.398 C 563.498 242.536, 580.463 237.965, 588 235.693 C 599.234 232.306, 627.214 226.397, 638.500 225.027 C 653.945 223.154, 653.933 223.157, 656.044 219.696 C 658.854 215.086, 658.603 209.915, 655.424 206.928 C 653.212 204.850, 651.762 204.480, 645.174 204.312 C 640.953 204.204, 632.325 204.949, 626 205.968 M 503.994 241.934 C 493.508 245.124, 487.151 253.195, 486.257 264.455 C 485.651 272.084, 487.102 277.473, 491.049 282.251 C 495.727 287.915, 501.974 291.148, 509.387 291.743 C 514.788 292.177, 516.582 291.851, 521.874 289.476 C 532.166 284.857, 537.297 277.231, 537.329 266.500 C 537.374 251.689, 526.125 240.803, 511.068 241.086 C 508.556 241.133, 505.372 241.515, 503.994 241.934 M 459.660 258.181 C 459.303 262.756, 459.009 270.003, 459.006 274.284 L 459 282.068 469.750 281.784 L 480.500 281.500 480.238 279 C 478.946 266.664, 478.889 261.632, 479.988 257.050 C 480.669 254.213, 481.062 251.748, 480.863 251.571 C 480.663 251.395, 475.957 250.938, 470.404 250.556 L 460.307 249.861 459.660 258.181 M 438.500 257.477 C 422.668 260.411, 407.907 267.874, 395.313 279.313 C 378.034 295.007, 369.439 309.014, 364.275 329.894 C 362.830 335.737, 362.600 348.300, 362.281 438.639 L 361.921 540.778 374.460 540.715 L 387 540.652 387.024 495.576 C 387.082 385.582, 387.658 347.986, 389.439 338 C 392.031 323.463, 397.205 313.811, 408.510 302.427 C 419.532 291.327, 430.151 285.474, 445.672 281.946 C 451.077 280.717, 456.063 279.271, 456.750 278.733 C 458.064 277.705, 458.523 262.553, 457.370 258.250 C 456.831 256.239, 456.167 256.010, 451.133 256.090 C 448.035 256.140, 442.350 256.764, 438.500 257.477 M 504.583 259.062 C 500.249 262.866, 499.605 264.818, 500.987 269.950 C 501.853 273.168, 502.881 274.409, 505.998 275.999 C 512.815 279.477, 518.770 278.113, 521.452 272.460 C 523.964 267.167, 523.252 264.177, 518.191 258.750 C 514.536 254.831, 509.263 254.952, 504.583 259.062 M 485 296.317 L 485 303.635 479.250 305.439 C 466.441 309.458, 454.865 317.099, 443.771 328.859 C 432.726 340.568, 426.046 352.043, 421.277 367.500 L 418.500 376.500 418.235 565.305 L 417.969 754.109 429.235 753.422 C 435.431 753.043, 440.588 752.668, 440.695 752.589 C 440.802 752.509, 440.474 750.656, 439.967 748.472 C 438.571 742.465, 438.642 384.574, 440.041 374.599 C 441.916 361.227, 447.298 349.793, 455.758 341.208 C 465.010 331.820, 487.178 318, 492.985 318 C 494.113 318, 495.207 319.155, 495.864 321.039 C 497.154 324.741, 496.921 324.997, 484.035 333.960 C 473.521 341.274, 466.730 348.478, 460.437 358.995 C 452.856 371.662, 452.500 374.480, 452.500 421.750 L 452.500 463 472 463.200 C 513.019 463.622, 577.629 462.276, 583 460.888 C 584.277 460.558, 584.620 463.475, 585.308 480.500 C 586.159 501.550, 585.574 553.759, 584.476 554.857 C 584.122 555.211, 554.395 555.466, 518.416 555.423 C 482.437 555.381, 452.896 555.381, 452.769 555.423 C 452.643 555.466, 452.305 599.938, 452.019 654.250 L 451.500 753 529 753 L 606.500 753 606.323 574.750 C 606.225 476.713, 605.922 391.775, 605.649 386 C 604.311 357.729, 589.908 332.208, 566.225 316.147 C 558.651 311.011, 549.441 306.554, 542.976 304.897 L 538.207 303.675 537.824 296.891 C 537.613 293.160, 537.161 289.827, 536.819 289.485 C 536.476 289.143, 534.156 290.421, 531.662 292.325 C 519.348 301.724, 505.233 301.782, 491.125 292.490 C 488.210 290.571, 485.640 289, 485.413 289 C 485.186 289, 485 292.293, 485 296.317 M 472.500 485.136 C 465.350 485.486, 457.844 485.823, 455.821 485.886 L 452.142 486 451.821 495.159 L 451.500 504.318 484.413 503.659 C 502.516 503.297, 529.595 503, 544.590 503 L 571.853 503 572.177 494.370 C 572.378 489.007, 572.105 485.590, 571.457 485.343 C 569.635 484.648, 486.046 484.473, 472.500 485.136 M 506.250 519.750 L 451 520.017 451 524.369 C 451 526.762, 451.272 530.696, 451.605 533.110 L 452.210 537.500 511.855 537.500 L 571.500 537.500 571.539 528.833 L 571.579 520.166 568.664 519.583 C 567.061 519.262, 564.794 519.109, 563.625 519.241 C 562.456 519.374, 536.638 519.603, 506.250 519.750 M 355.665 549.738 C 351.833 550.038, 350.952 550.432, 351.415 551.640 C 351.737 552.478, 352 557.514, 352.001 562.832 L 352.001 572.500 376.305 572.500 L 400.608 572.500 399.864 568 C 399.454 565.525, 399.092 560.237, 399.060 556.250 L 399 549 379.750 549.180 C 369.163 549.279, 358.324 549.531, 355.665 549.738 M 350.493 583.405 C 350.314 584.007, 349.912 593.050, 349.599 603.500 C 348.720 632.911, 342.857 715.977, 339.050 752.955 C 338.515 758.155, 338.172 762.482, 338.288 762.571 C 338.405 762.659, 354.812 762.982, 374.750 763.288 L 411 763.845 410.516 754.173 C 410.250 748.853, 409.796 737.300, 409.507 728.500 C 409.218 719.700, 408.538 706.650, 407.995 699.500 C 405.131 661.740, 403.047 627.273, 402.524 609 C 402.201 597.725, 401.670 587.008, 401.344 585.184 L 400.753 581.868 375.786 582.089 C 358.734 582.239, 350.715 582.657, 350.493 583.405 M 360.969 606.750 C 360.951 612.663, 360.525 624.475, 360.022 633 C 359.518 641.525, 358.637 656.600, 358.064 666.500 C 357.491 676.400, 356.330 694.625, 355.483 707 C 352.786 746.397, 352.339 754.471, 352.782 755.750 C 353.039 756.494, 354.986 757, 357.588 757 C 362.844 757, 362.637 757.613, 363.498 739.500 C 363.838 732.350, 364.752 718.625, 365.530 709 C 366.307 699.375, 367.622 672.375, 368.450 649 C 369.279 625.625, 370.166 604.401, 370.421 601.835 C 370.939 596.632, 370.289 596, 364.418 596 L 361 596 360.969 606.750 M 518.250 766.708 L 452 767.014 452 787.507 C 452 798.778, 451.770 808, 451.489 808 C 449.021 808, 441.655 803.241, 440.813 801.102 C 440.163 799.451, 440.030 792.745, 440.450 782.750 L 441.111 767 429.432 767 L 417.753 767 418.205 778.750 C 418.607 789.188, 419.020 791.362, 421.907 798.215 C 424.507 804.387, 426.350 807.035, 431.118 811.449 C 440.635 820.260, 437.056 819.927, 514 819.156 L 580.500 818.489 584.927 816.134 C 592.067 812.335, 599.416 804.678, 602.597 797.722 C 605.124 792.197, 605.485 790.128, 605.824 779.250 L 606.206 767 598.853 766.989 C 594.809 766.983, 589.925 766.849, 588 766.690 C 586.075 766.532, 554.688 766.540, 518.250 766.708" stroke="none" fill="#000000" fill-rule="evenodd"/>
</svg>