<svg xmlns="http://www.w3.org/2000/svg" width="1024" height="1024" viewBox="0 0 1024 1024" version="1.1">
	<path d="M 150 101.371 C 142.090 103.554, 137.660 106.241, 130.911 112.950 C 126.477 117.358, 123.207 121.789, 120.911 126.500 L 117.500 133.500 117.218 496 C 117.002 773.828, 117.215 859.551, 118.127 863 C 121.430 875.491, 131.786 887.744, 143.472 892.987 L 150.128 895.974 509.959 896.014 L 869.790 896.054 875.038 893.985 C 888.528 888.668, 898.716 879.037, 903.820 866.779 L 906.921 859.330 907.047 496.782 C 907.165 156.392, 907.068 134.029, 905.461 130.868 C 902.349 124.746, 895.128 115.283, 890.277 110.969 C 887.650 108.633, 882.575 105.321, 879 103.610 L 872.500 100.500 513.500 100.315 C 230.202 100.168, 153.551 100.391, 150 101.371 M 186.490 143.358 C 186.218 144.536, 182.593 159.225, 178.436 176 C 166.419 224.485, 166.508 223.874, 170.933 227.597 C 172.547 228.955, 174.408 231.738, 175.070 233.783 C 181.293 253.009, 199.907 265, 223.529 265 C 236.942 265, 250.735 259.544, 257.821 251.436 C 263.005 245.504, 268.153 236.616, 269.517 231.243 C 270.829 226.078, 271.122 226.292, 273.346 234.047 C 277.814 249.621, 290.231 260.021, 309.878 264.647 C 322.753 267.679, 338.418 264.162, 350.020 255.636 C 355.878 251.331, 361.781 242.684, 364.619 234.250 L 366.876 227.544 368.040 230.522 C 368.680 232.160, 369.795 235.136, 370.517 237.136 C 375.299 250.370, 386.818 259.733, 403.596 264.025 C 416.068 267.214, 425.045 266.324, 436.739 260.738 C 448.665 255.041, 458.638 243.444, 461.110 232.399 C 461.783 229.393, 462.649 227.286, 463.036 227.717 C 463.422 228.147, 464.662 231.296, 465.791 234.713 C 468.222 242.071, 474.004 251.139, 478.404 254.495 C 482.959 257.969, 493.496 262.676, 501 264.590 C 513.986 267.901, 530.243 264.647, 542.235 256.337 C 549.352 251.405, 558 237.196, 558 230.433 C 558 226.054, 559.837 226.993, 561.539 232.242 C 563.983 239.778, 568.721 248.405, 572.618 252.419 C 576.517 256.433, 588.060 262.404, 596 264.515 C 609.006 267.971, 624.377 265.458, 636.051 257.967 C 644.736 252.394, 653.138 240.241, 654.592 231.150 C 655.440 225.845, 657.146 226.245, 658.615 232.094 C 661.680 244.294, 670.099 254.374, 682.109 260.220 C 690.757 264.430, 697.490 266, 706.893 266 C 716.880 266, 730.715 260.701, 738.443 253.916 C 743.301 249.651, 748.741 240.343, 750.244 233.728 C 750.935 230.685, 751.950 228.112, 752.500 228.008 C 753.050 227.905, 754.455 230.580, 755.622 233.952 C 760.820 248.969, 773.652 259.897, 791.460 264.470 C 802.728 267.363, 812.075 266.069, 825.332 259.780 C 836.370 254.544, 843.484 247.403, 846.983 238.045 C 848.392 234.277, 850.682 230.539, 852.811 228.531 L 856.318 225.222 854.590 216.361 C 853.640 211.487, 850.929 199.850, 848.566 190.500 C 846.204 181.150, 842.747 166.175, 840.885 157.223 L 837.500 140.945 512.242 141.080 L 186.984 141.215 186.490 143.358 M 220.824 163.748 L 204.148 164.048 203.485 167.274 C 203.120 169.048, 200.359 180.625, 197.349 193 C 190.112 222.756, 190.067 223.208, 193.632 230.552 C 201.099 245.935, 216.421 252.331, 233.019 246.994 C 246.763 242.575, 253.447 233.535, 258.892 212 C 261.693 200.921, 270 164.693, 270 163.555 C 270 163.028, 258.369 163.073, 220.824 163.748 M 294.233 169.750 C 293.615 173.463, 291.513 185.500, 289.560 196.500 C 287.608 207.500, 286.008 218.236, 286.005 220.357 C 285.997 226.066, 291.183 236.110, 296.598 240.877 C 302.713 246.260, 309.475 248.494, 319.500 248.443 C 332.032 248.379, 340.085 243.851, 346.965 233 C 351.172 226.366, 353.640 217.140, 358.065 191.500 C 360.248 178.850, 362.287 167.262, 362.597 165.750 L 363.159 163 329.257 163 L 295.355 163 294.233 169.750 M 388 164.076 C 388 164.478, 386.641 175.013, 384.980 187.487 C 380.861 218.422, 380.811 222.930, 384.505 230.345 C 390.336 242.047, 400.850 248.376, 414.500 248.402 C 431.131 248.432, 442.514 239.289, 447.367 222 C 448.216 218.975, 450.060 206.375, 451.464 194 C 452.868 181.625, 454.293 169.558, 454.631 167.185 L 455.247 162.870 421.623 163.108 C 403.130 163.239, 388 163.675, 388 164.076 M 478.388 178.750 C 477.935 187.412, 477.567 201.050, 477.570 209.055 C 477.575 222.810, 477.722 223.911, 480.252 229.055 C 484.266 237.221, 488.385 241.572, 495.342 244.997 C 508.300 251.376, 524.914 249.645, 533.638 241.007 C 535.906 238.762, 539.278 234.129, 541.131 230.712 L 544.500 224.500 544.803 193.750 L 545.107 163 512.159 163 L 479.211 163 478.388 178.750 M 569.405 168.737 C 569.737 171.906, 570.484 181.250, 571.064 189.500 C 573.790 228.242, 577.149 237.537, 591.111 244.978 C 602.359 250.973, 618.737 249.963, 627.509 242.732 C 632.277 238.802, 638.305 229.553, 639.967 223.618 C 641.241 219.069, 641.081 216.097, 637.110 170.500 L 636.500 163.500 602.650 163.237 L 568.801 162.973 569.405 168.737 M 662 165.306 C 662 169.431, 668.975 215.295, 670.530 221.395 C 674.834 238.278, 685.552 247.610, 701.928 248.732 C 716.993 249.765, 726.914 244.188, 733.750 230.845 C 738.382 221.803, 738.172 217.530, 731.173 178.500 L 728.483 163.500 695.241 163.237 L 662 162.973 662 165.306 M 756 165.412 C 756 169.530, 762.975 207.230, 765.496 216.736 C 766.843 221.816, 768.889 227.823, 770.044 230.085 C 773.250 236.371, 779.608 242.660, 785.858 245.730 C 790.849 248.180, 792.597 248.495, 801 248.460 C 808.464 248.428, 811.465 247.972, 815 246.334 C 820.872 243.613, 825.917 238.581, 829.964 231.409 C 833.860 224.506, 833.794 222.973, 828.659 201.500 C 826.818 193.800, 824.229 181.978, 822.906 175.228 L 820.500 162.957 788.250 163.029 L 756 163.101 756 165.412 M 757.536 276.350 C 755.783 277.632, 755.731 279.110, 756.499 305.600 C 756.944 320.945, 757.351 335.300, 757.404 337.500 L 757.500 341.500 727 341.757 C 710.225 341.898, 694.925 342.465, 693 343.016 C 689.243 344.092, 684.233 348.189, 681.416 352.487 C 679.807 354.944, 679.694 359.490, 679.912 413.264 C 680.169 476.660, 679.888 473.679, 686.165 479.699 C 692.549 485.823, 692.490 485.816, 736.513 485.506 C 780.924 485.194, 780.997 485.184, 786.766 478.614 L 790 474.930 790 415.161 L 790 355.392 787.119 350.849 C 783.590 345.284, 779.170 342, 775.209 342 C 772.424 342, 772.181 341.691, 771.524 337.313 C 771.138 334.735, 771.147 319.954, 771.544 304.465 L 772.267 276.303 769.009 275.652 C 763.862 274.622, 759.539 274.886, 757.536 276.350 M 816.136 288.789 L 806.773 292.433 807.378 297.467 C 807.710 300.235, 807.987 407.688, 807.991 536.250 L 808 770 817.858 770 L 827.715 770 828.358 763.853 C 829.172 756.066, 829.183 290.286, 828.370 287.250 C 827.604 284.392, 827.357 284.423, 816.136 288.789 M 195 528.639 L 195 771.279 200.250 770.648 C 203.137 770.301, 207.863 770.013, 210.750 770.009 L 216 770 215.891 537.750 C 215.832 410.012, 215.494 302.819, 215.141 299.543 L 214.500 293.586 209.500 291.822 C 206.750 290.852, 202.770 289.145, 200.655 288.029 C 198.541 286.913, 196.404 286, 195.905 286 C 195.367 286, 195 384.428, 195 528.639 M 281 292.661 C 269.955 294.379, 257.277 299.737, 245.500 307.664 C 234.841 314.838, 230.258 318.792, 231.506 319.737 C 232.059 320.157, 233.766 322.184, 235.300 324.241 L 238.089 327.983 245.968 322.462 C 262.485 310.888, 276.484 306.475, 294.314 307.222 C 303.839 307.620, 306.707 308.162, 313.628 310.871 C 318.098 312.620, 325.634 316.740, 330.374 320.026 C 335.114 323.311, 339.454 326, 340.018 326 C 341.517 326, 349 320.885, 349 319.861 C 349 319.380, 346.367 316.402, 343.148 313.243 C 329.014 299.371, 299.885 289.724, 281 292.661 M 387.500 305.046 C 382.151 306.633, 373.659 312.398, 370.446 316.625 C 368.385 319.336, 366.942 322.764, 366.239 326.625 C 364.813 334.446, 365.401 485.073, 366.876 489.834 C 368.470 494.981, 372.499 501.275, 375.713 503.640 C 377.313 504.817, 381.295 507.121, 384.561 508.760 L 390.500 511.740 413.500 512.111 C 426.150 512.315, 447.525 512.359, 461 512.209 C 482.513 511.970, 485.269 511.762, 483.608 510.504 C 482.568 509.717, 481.351 508.943, 480.904 508.786 C 480.458 508.629, 479.734 505.575, 479.295 502 L 478.499 495.500 436.474 495 C 395.117 494.508, 394.404 494.465, 391.665 492.309 C 390.134 491.105, 387.896 488.866, 386.691 487.335 L 384.501 484.550 384.422 408.648 L 384.343 332.746 386.750 329.885 C 388.074 328.311, 390.468 326.091, 392.070 324.950 C 394.980 322.878, 395.120 322.876, 512.112 322.967 C 584.323 323.023, 629.924 323.424, 631.023 324.012 C 632.003 324.537, 634.178 326.700, 635.857 328.819 L 638.908 332.672 639.235 408.489 L 639.561 484.306 636.719 488.230 C 631.903 494.878, 631.967 494.869, 586.055 495.201 L 544.814 495.500 537.806 502.849 C 532.522 508.391, 531.082 510.482, 531.950 511.349 C 532.787 512.186, 546.785 512.500, 583.300 512.500 L 633.500 512.500 639.752 509.110 C 647.278 505.028, 653.319 498.730, 656.618 491.522 L 659.058 486.194 658.779 406.347 C 658.467 316.976, 658.998 323.292, 651.074 314.696 C 648.656 312.073, 644.450 309.096, 640.747 307.385 L 634.500 304.500 512.500 304.328 C 443.589 304.231, 389.195 304.544, 387.500 305.046 M 273.754 323.084 C 265.330 325.070, 250.973 334.137, 251.012 337.446 C 251.019 338.026, 252.833 340.447, 255.043 342.827 L 259.061 347.153 262.730 343.932 C 269.754 337.765, 274.055 336.500, 288 336.500 C 299.608 336.500, 300.928 336.700, 306.497 339.308 C 309.795 340.852, 313.476 343.038, 314.677 344.166 L 316.860 346.217 321.430 342.397 C 323.943 340.296, 325.990 338.109, 325.978 337.538 C 325.900 333.910, 315.861 326.655, 307.230 323.989 C 302.244 322.449, 298.159 322.023, 289.145 322.100 C 282.740 322.156, 275.814 322.598, 273.754 323.084 M 499 340.082 C 490.986 341.302, 469.905 347.535, 461.640 351.128 C 441.933 359.694, 425.628 370.532, 412.110 384.050 C 403.946 392.214, 403.662 393.512, 409.029 398.135 C 414.778 403.086, 417.389 404.376, 420.173 403.641 C 421.453 403.302, 426.100 399.828, 430.500 395.920 C 446.074 382.087, 462.192 372.543, 480.057 366.574 C 509.128 356.861, 532.351 359.625, 564.949 376.677 C 576.693 382.821, 586.782 389.610, 590.045 393.565 C 590.845 394.535, 594.046 397.450, 597.157 400.043 C 601.598 403.745, 603.377 404.651, 605.434 404.257 C 608.351 403.700, 618 395.507, 618 393.588 C 618 392.083, 602.183 376.363, 596 371.724 C 578.047 358.251, 566.481 352.375, 544.450 345.535 C 523.919 339.161, 513.363 337.894, 499 340.082 M 304 361.200 C 292.175 361.690, 274.230 361.849, 264.122 361.555 L 245.743 361.020 246.449 369.102 L 247.154 377.185 239.425 376.461 L 231.697 375.737 232.349 378.993 C 232.707 380.784, 233 384.362, 233 386.943 L 233 391.636 248.126 389.288 C 257.830 387.781, 265.088 386.084, 268.376 384.552 C 277.224 380.430, 280.852 379.809, 294.011 380.163 C 305.268 380.467, 307.045 380.772, 312.025 383.257 C 315.063 384.774, 321.138 386.653, 325.525 387.434 C 329.911 388.215, 335.173 389.561, 337.218 390.427 C 339.263 391.292, 342.016 392, 343.337 392 C 345.335 392, 345.842 391.370, 346.358 388.250 C 346.699 386.188, 346.983 382.587, 346.989 380.250 L 347 376 339.371 376 L 331.742 376 332.440 368 L 333.137 360 329.319 360.155 C 327.218 360.241, 315.825 360.711, 304 361.200 M 759 361.186 C 752.125 361.681, 735.587 361.954, 722.250 361.793 L 698 361.500 698 372.250 L 698 383 736 383 L 774 383 773.991 376.750 C 773.981 369.119, 772.942 359.948, 772.111 360.144 C 771.775 360.223, 765.875 360.692, 759 361.186 M 490.081 380.531 C 470.483 386.471, 454.804 395.186, 441.001 407.813 C 429.712 418.140, 429.544 420.319, 439.444 427.957 C 444.898 432.164, 445.034 432.208, 447.569 430.547 C 448.987 429.617, 452.027 427.041, 454.324 424.822 C 462.015 417.392, 473.751 409.290, 481.496 406.066 C 501.992 397.534, 522.774 397.994, 543.348 407.437 C 552.535 411.653, 557.456 414.881, 568.873 424.180 C 573.478 427.931, 577.985 431, 578.887 431 C 579.790 431, 583.338 428.727, 586.772 425.948 C 593.970 420.124, 593.968 420.088, 586.118 411.695 C 573.507 398.213, 557.741 388.911, 536.500 382.422 C 525.904 379.185, 522.978 378.710, 511.500 378.368 C 499.776 378.018, 497.674 378.230, 490.081 380.531 M 293 398.055 C 283.375 398.441, 268.637 398.811, 260.250 398.878 L 245 399 245 403.970 C 245 412.976, 254.943 490.276, 256.272 491.606 C 256.406 491.740, 271.243 491.996, 289.243 492.175 L 321.970 492.500 322.964 487.500 C 326.401 470.214, 333.098 423.952, 334.545 407.500 C 334.884 403.650, 335.380 399.712, 335.648 398.750 C 336.095 397.143, 335.090 397.014, 323.317 397.177 C 316.268 397.275, 302.625 397.670, 293 398.055 M 697.375 404.125 C 697.719 405.844, 698 410.514, 698 414.503 L 698 421.755 707.250 422.230 C 712.337 422.491, 716.630 422.603, 716.790 422.479 C 716.949 422.355, 716.770 417.472, 716.392 411.627 L 715.705 401 706.228 401 L 696.750 401 697.375 404.125 M 727 411.750 L 727 422 736 422 L 745 422 745 417.647 C 745 415.252, 744.723 410.640, 744.384 407.397 L 743.767 401.500 735.384 401.500 L 727 401.500 727 411.750 M 755.372 408.870 C 755.717 412.957, 756 417.584, 756 419.151 L 756 422 765 422 L 774 422 773.993 418.250 C 773.989 416.188, 773.706 411.536, 773.364 407.914 L 772.741 401.327 763.742 401.382 L 754.744 401.437 755.372 408.870 M 293.500 416.111 C 279.750 416.446, 266.297 416.784, 263.605 416.861 L 258.710 417 259.318 424.250 C 259.652 428.238, 260.933 439.086, 262.164 448.357 L 264.402 465.214 290.299 464.857 L 316.196 464.500 315.600 460.126 C 315.271 457.709, 315.921 448.859, 317.053 440.337 C 318.180 431.859, 318.966 422.802, 318.801 420.211 L 318.500 415.500 293.500 416.111 M 499.390 416.447 C 485.286 420.423, 469.467 430.286, 463.825 438.622 C 459.124 445.568, 459.214 446.465, 465.174 452.016 C 468.103 454.745, 471.281 457.236, 472.235 457.552 C 473.423 457.944, 476.616 455.897, 482.356 451.063 C 492.038 442.910, 497.448 440.221, 506.225 439.196 C 520.903 437.483, 531.883 441.123, 544.828 451.992 C 553.061 458.905, 552.794 458.919, 560.353 451.187 C 564.089 447.364, 565.055 445.747, 564.549 444.156 C 563.555 441.022, 550.870 429.744, 543.254 425.223 C 531.146 418.036, 524.608 415.840, 514 415.400 C 507.650 415.137, 502.806 415.484, 499.390 416.447 M 282.708 425.681 C 272.546 432.912, 272.191 445.168, 281.952 451.747 C 286.818 455.026, 292.630 454.775, 297.750 451.066 C 302.617 447.541, 303.125 446.787, 304.053 441.710 C 305.113 435.914, 303.527 431.741, 298.506 427.113 C 292.949 421.990, 288.466 421.584, 282.708 425.681 M 697.815 436.714 C 697.623 437.146, 697.618 441.663, 697.804 446.750 L 698.142 456 705.989 456 C 710.305 456, 714.561 456.278, 715.446 456.618 C 716.876 457.166, 717.015 456.076, 716.691 446.868 L 716.325 436.500 707.244 436.214 C 702.250 436.056, 698.006 436.281, 697.815 436.714 M 726.762 437.250 C 726.514 437.938, 726.521 442.663, 726.778 447.750 L 727.245 457 736.122 457 L 745 457 745 446.500 L 745 436 736.107 436 C 729.900 436, 727.078 436.378, 726.762 437.250 M 756 446.531 L 756 457.067 765.250 456.783 L 774.500 456.500 774.500 446.500 L 774.500 436.500 765.250 436.247 L 756 435.995 756 446.531 M 507.667 455.434 C 498.432 457.916, 493 464.120, 493 472.188 C 493 486.670, 508.441 496.532, 520.458 489.725 C 528.435 485.207, 532.622 475.444, 529.995 467.486 C 528.274 462.269, 522.550 456.247, 518.152 455.025 C 513.751 453.803, 513.732 453.804, 507.667 455.434 M 768.420 519.885 C 764.330 522.380, 763.518 524.763, 760.543 543 C 756.351 568.705, 750.068 602.932, 747.761 612.629 L 745.590 621.758 739.648 622.379 C 736.380 622.721, 711.678 623, 684.754 623 C 630.568 623, 631.466 622.900, 626.444 629.485 C 622.972 634.037, 623.294 637.218, 627.653 641.452 L 631.307 645 665.403 645.215 C 705.773 645.470, 700.404 645.503, 736.316 644.781 C 752.164 644.463, 765.296 644.037, 765.497 643.836 C 766.287 643.046, 777.208 586.654, 781.539 561 C 782.885 553.025, 784.729 543.314, 785.636 539.419 C 787.828 530.011, 787.038 526.171, 781.969 521.591 C 777.371 517.437, 773.280 516.922, 768.420 519.885 M 241.658 521.995 C 235.088 527.764, 234.977 529.114, 239.313 550.500 C 240.762 557.650, 245.368 581.275, 249.547 603 C 253.726 624.725, 257.499 643.175, 257.931 644 C 258.613 645.302, 267.398 645.566, 324.608 646 C 360.849 646.275, 391.530 646.167, 392.788 645.760 C 395.991 644.725, 400 640.134, 400 637.502 C 400 634.476, 396.148 629.016, 392.078 626.274 L 388.704 624 332.993 624 L 277.281 624 274.619 611.250 C 268.821 583.485, 263.002 552.951, 261.518 542.500 C 259.522 528.445, 257.672 523.380, 253.635 520.919 C 249.157 518.189, 245.633 518.505, 241.658 521.995 M 460.500 519.648 C 441.779 523.540, 442.375 523.504, 400.500 523.333 C 377.950 523.242, 353.087 522.867, 345.250 522.500 L 331 521.833 331 524.456 C 331 530.441, 337.367 538.787, 345.626 543.627 L 350.084 546.239 511.710 546.063 C 643.321 545.920, 673.907 545.641, 676.417 544.563 C 682.899 541.778, 690.963 530.512, 690.990 524.204 C 691 521.921, 690.946 521.912, 681.250 522.568 C 663.057 523.800, 576.461 523.614, 574.912 522.340 C 574.082 521.657, 568.724 521.039, 561.907 520.840 L 550.314 520.500 548.576 524.707 L 546.838 528.913 513.649 528.943 L 480.460 528.972 478.689 523.986 L 476.918 519 469.709 519.116 C 465.744 519.180, 461.600 519.419, 460.500 519.648 M 512.800 560.984 C 390.570 561.349, 339.782 561.817, 339.014 562.586 C 338.331 563.268, 338.035 567.620, 338.214 574.319 L 338.500 584.967 421.133 585.264 C 492.053 585.518, 504.017 585.769, 505.536 587.030 C 506.510 587.839, 507.463 588.388, 507.654 588.250 C 507.844 588.112, 509.275 588, 510.833 588 C 512.685 588, 513.667 588.520, 513.667 589.500 C 513.667 590.325, 513.040 591, 512.274 591 C 511.509 591, 511.160 591.450, 511.500 592 C 511.880 592.615, 510.225 593, 507.202 593 L 502.286 593 501.553 617.250 C 501.151 630.587, 500.955 665.575, 501.118 695 L 501.415 748.500 472.778 749 C 445.839 749.470, 443.978 749.622, 441.383 751.562 C 439.865 752.696, 437.757 754.784, 436.698 756.202 C 435.034 758.432, 434.930 759.257, 435.932 762.294 C 436.570 764.226, 438.174 766.975, 439.498 768.403 L 441.905 771 512.051 771 L 582.198 771 585.109 767.883 C 589.114 763.596, 589.740 760.399, 587.406 756.153 C 583.659 749.337, 581.930 749, 550.766 749 L 523 749 523 671.821 C 523 614.280, 522.694 593.797, 521.799 591.322 C 520.852 588.701, 520.863 587.738, 521.853 586.751 C 522.836 585.770, 540.959 585.500, 605.804 585.500 L 688.500 585.500 688.783 578.500 C 689.119 570.218, 687.906 560.706, 686.498 560.567 C 685.949 560.513, 607.785 560.700, 512.800 560.984 M 267.208 658.743 C 258.497 659.157, 258.842 658.630, 256.457 675.208 C 255.564 681.419, 253.983 690.550, 252.944 695.500 C 251.905 700.450, 249.657 712.363, 247.949 721.973 C 246.240 731.583, 244.690 739.692, 244.504 739.993 C 244.207 740.475, 239 769.372, 239 770.542 C 239 770.794, 244.143 771, 250.429 771 L 261.858 771 262.890 765.750 C 272.925 714.715, 280.063 674.674, 280.718 665.750 L 281.286 658 277.893 658.199 C 276.027 658.308, 271.219 658.553, 267.208 658.743 M 352.228 659.856 C 351.940 660.603, 353.835 671.853, 356.439 684.856 C 362.196 713.604, 364.759 726.685, 369.547 751.750 L 373.224 771 384.112 771 C 391.338 771, 395 770.631, 395 769.904 C 395 768.285, 387.216 724.051, 384.957 712.831 C 383.886 707.514, 381.221 693.390, 379.036 681.445 C 376.850 669.501, 374.784 659.452, 374.445 659.114 C 374.107 658.776, 369.087 658.500, 363.291 658.500 C 355.343 658.500, 352.624 658.833, 352.228 659.856 M 648.601 659.750 C 648.308 660.712, 646.961 667.800, 645.608 675.500 C 644.255 683.200, 641.119 700.525, 638.638 714 C 636.158 727.475, 632.926 745.250, 631.457 753.500 C 629.988 761.750, 628.722 768.839, 628.643 769.254 C 628.564 769.669, 633.563 770.119, 639.751 770.254 C 645.939 770.389, 651.001 770.361, 651.001 770.190 C 651 770.020, 652.138 764.845, 653.530 758.690 C 654.921 752.536, 657.861 736.925, 660.062 724 C 662.264 711.075, 665.201 694.650, 666.590 687.500 C 667.978 680.350, 669.380 670.788, 669.706 666.250 L 670.297 658 659.716 658 C 650.509 658, 649.066 658.227, 648.601 659.750 M 740.999 660.750 C 740.998 663.514, 746.286 692.187, 754.507 734 C 756.940 746.375, 759.528 759.650, 760.258 763.500 L 761.585 770.500 773.043 770.314 C 781.871 770.172, 784.452 769.827, 784.289 768.814 C 783.544 764.175, 770.609 697.840, 769.018 690.500 C 767.946 685.550, 766.353 677.225, 765.480 672 C 762.991 657.117, 763.871 658, 751.521 658 L 741 658 740.999 660.750 M 163.570 788.763 C 163.257 789.077, 163 795.116, 163 802.185 L 163 815.036 511.551 814.744 C 768.217 814.530, 860.286 814.156, 860.801 813.329 C 861.185 812.710, 861.361 806.751, 861.191 800.085 L 860.882 787.966 512.511 788.079 C 320.907 788.142, 163.884 788.449, 163.570 788.763 M 154.500 902 C 156.648 904.200, 158.631 906, 158.906 906 C 159.181 906, 157.648 904.200, 155.500 902 C 153.352 899.800, 151.369 898, 151.094 898 C 150.819 898, 152.352 899.800, 154.500 902" stroke="none" fill="#000000" fill-rule="evenodd"/>
</svg>