<svg xmlns="http://www.w3.org/2000/svg" width="1024" height="1024" viewBox="0 0 1024 1024" version="1.1">
	<path d="M 199.418 169 C 182.594 169.492, 182.281 169.542, 178.667 172.302 C 170.850 178.271, 171.493 164.719, 171.555 322.071 L 171.609 462.643 173.873 465.821 L 176.136 469 187.913 469 C 198.616 469, 199.864 468.808, 201.595 466.895 C 203.445 464.851, 203.507 460.989, 203.761 332.342 L 204.022 199.894 348.761 200.003 C 428.367 200.063, 494.255 200.087, 495.179 200.056 C 499.230 199.921, 500 197.430, 500 184.452 C 500 172.686, 499.884 171.970, 497.748 170.570 C 495.795 169.291, 476.949 169.055, 355.998 168.797 C 279.274 168.634, 208.813 168.725, 199.418 169 M 525.849 169.670 C 522.812 170.476, 521.757 175.372, 522.150 186.836 C 522.381 193.594, 522.999 198.294, 523.780 199.235 C 524.898 200.582, 541.421 200.696, 671.353 200.254 L 817.666 199.757 817.653 331.129 C 817.640 453.036, 817.762 462.734, 819.345 465.750 C 820.284 467.538, 821.602 469.027, 822.276 469.060 C 829.135 469.397, 844.717 468.687, 846.045 467.976 C 846.977 467.477, 848.436 465.591, 849.288 463.785 C 850.666 460.862, 850.819 445.005, 850.669 319.922 L 850.500 179.344 847.698 175.671 C 842.180 168.437, 855.989 168.987, 683.300 169.116 C 597.610 169.180, 526.757 169.429, 525.849 169.670 M 234.500 234.320 L 223.500 245.500 233.412 255.500 C 238.863 261, 243.923 265.858, 244.656 266.297 C 245.577 266.847, 249.392 263.733, 256.994 256.226 C 263.048 250.250, 268 244.921, 268 244.385 C 268 243.849, 265.737 241.685, 262.970 239.575 C 260.204 237.465, 255.424 232.873, 252.348 229.370 C 249.272 225.866, 246.473 223.032, 246.128 223.070 C 245.783 223.109, 240.550 228.171, 234.500 234.320 M 598.050 224.086 C 569.410 226.844, 540.115 237.427, 514.838 254.147 C 504.267 261.139, 486.056 278.748, 478.778 289.015 C 466.891 305.784, 456.970 330.091, 453.526 350.885 C 451.638 362.288, 449.697 391.245, 450.501 396.007 C 451.220 400.261, 453.279 402.419, 460.500 406.480 C 463.250 408.027, 465.661 409.425, 465.857 409.587 C 466.054 409.749, 464.855 412.271, 463.193 415.191 C 459.539 421.612, 458.490 427.847, 459.965 434.380 C 461.038 439.131, 474.422 469.269, 487.109 495.500 C 490.568 502.650, 493.743 509.286, 494.165 510.247 C 494.770 511.623, 494.068 512.435, 490.856 514.073 L 486.779 516.153 487.463 523.827 C 489.142 542.661, 490.920 552.908, 493.334 557.672 C 498.567 568, 504.028 570.664, 517.711 569.563 L 525.922 568.902 528.866 574.701 C 532.947 582.739, 543.034 595.989, 549.280 601.517 C 552.605 604.459, 559.635 608.628, 568.643 612.998 C 584.358 620.622, 591.263 623, 597.682 623 L 602 623 602.004 680.250 C 602.007 734.930, 602.094 737.641, 603.926 740.647 C 607.667 746.782, 618.505 747.564, 624.970 742.166 L 628.279 739.404 628.079 685.283 C 627.969 655.517, 628.181 629.551, 628.551 627.582 C 629.142 624.430, 629.578 624, 632.185 624 C 639.483 624, 666.326 612.479, 675.816 605.273 C 678.740 603.053, 683.247 598.596, 685.832 595.368 C 690.928 589.006, 701.450 573.367, 702.162 571.097 C 702.497 570.029, 704.501 569.731, 710.551 569.852 C 720.554 570.052, 725.904 568.796, 728.660 565.601 C 732.720 560.896, 735.118 552.284, 736.068 539 C 737.570 518.007, 737.527 516.106, 735.523 514.640 C 733.935 513.479, 733.875 512.895, 734.982 509.417 C 735.667 507.262, 739.755 498.975, 744.066 491 C 754.285 472.096, 768.540 441.782, 770.050 435.745 C 771.871 428.469, 770.898 419.955, 767.693 415.112 C 766.212 412.874, 765 410.877, 765 410.674 C 765 410.470, 768.383 408.632, 772.519 406.588 C 782.550 401.631, 783.392 400.213, 782.524 389.765 C 778.656 343.255, 769.626 315.022, 750.641 290.083 C 725.161 256.612, 694.869 237.508, 650 226.612 C 636.294 223.284, 616.418 222.317, 598.050 224.086 M 762.254 234.984 L 751.008 245.888 761.770 256.944 C 767.689 263.025, 773.212 268, 774.044 268 C 774.875 268, 780.326 262.917, 786.156 256.705 L 796.757 245.411 785.979 234.705 C 780.051 228.817, 774.818 224.018, 774.350 224.040 C 773.883 224.062, 768.439 228.987, 762.254 234.984 M 592.863 249.012 C 579.247 251.157, 559.999 257.196, 560.001 259.322 C 560.001 259.970, 561.387 263.425, 563.080 267 C 564.773 270.575, 568.650 279.350, 571.696 286.500 C 574.743 293.650, 578.126 301.525, 579.216 304 C 584.350 315.666, 592.105 337.870, 592.164 341.076 C 592.302 348.499, 587.363 353.904, 579.736 354.679 C 572.249 355.440, 570.215 353.260, 564.070 337.894 C 558.938 325.063, 550.850 306.030, 542.122 286.244 C 538.730 278.556, 537.101 275.379, 534.400 271.180 C 533.932 270.453, 525.121 275.578, 520 279.555 C 513.100 284.914, 502.422 295.946, 497.792 302.500 C 485.654 319.683, 476.654 349.678, 475.780 375.870 L 475.500 384.241 484.975 387.680 C 490.186 389.572, 497.836 391.781, 501.975 392.589 C 513.989 394.936, 547.069 395.940, 612 395.931 C 699.518 395.918, 723.566 394.596, 747.703 388.474 C 752.977 387.136, 757.474 385.859, 757.697 385.637 C 758.448 384.886, 754.916 361.577, 752.518 351.456 C 746.247 324.993, 734.462 304.758, 715.160 287.316 C 703.644 276.910, 696.455 271.601, 695.053 272.467 C 691.189 274.855, 682.002 296.715, 669.612 333 C 667.264 339.875, 664.819 346.478, 664.178 347.672 C 659.439 356.506, 645.214 355.981, 640.051 346.781 C 638.663 344.310, 638.793 343.272, 641.766 333.038 C 645.336 320.753, 650.329 307.020, 661.719 278.168 C 670.231 256.606, 670.280 258.442, 661.097 254.962 C 647.567 249.834, 608.993 246.470, 592.863 249.012 M 310 255.523 C 275.526 262.603, 253.350 280.818, 242.578 310.904 L 239.500 319.500 239.667 341.750 L 239.834 364 236.867 364 C 233.088 364, 229.292 365.989, 225.542 369.933 C 222.649 372.976, 222.571 373.334, 221.999 386.272 C 221.677 393.547, 221.433 410.130, 221.457 423.123 L 221.500 446.746 224.108 450.412 C 227.804 455.607, 232.777 459, 236.694 459 L 240 459 239.930 478.250 C 239.892 488.837, 239.446 502.675, 238.939 509 C 236.624 537.899, 236.623 539.061, 238.906 547.869 C 242.651 562.316, 250.081 574.374, 260.751 583.320 C 263.913 585.971, 272.017 590.869, 278.760 594.204 C 289.279 599.408, 292.009 600.339, 297.996 600.768 C 307.835 601.472, 308 601.252, 308 587.443 C 308 575.296, 308.676 572.363, 312.528 567.784 L 315 564.847 315.165 579.673 C 315.257 587.828, 315.229 607.100, 315.105 622.500 C 314.781 662.574, 316.648 746.474, 317.917 748.844 C 319.193 751.229, 323.993 753, 329.181 753 C 333.346 753, 339.312 750.922, 340.455 749.073 C 340.840 748.451, 341.330 710.267, 341.546 664.221 C 341.761 618.174, 342.443 571.848, 343.062 561.272 C 344.113 543.291, 344.067 541.804, 342.343 538.337 C 339.846 533.314, 336.106 530.813, 330.251 530.250 C 324.174 529.666, 317.849 532.575, 314.944 537.290 C 312.926 540.565, 312.877 543.306, 314.549 559.137 L 315.039 563.774 305.769 561.549 C 293.605 558.629, 290.058 557.016, 284.476 551.871 C 279.380 547.174, 276.691 542.629, 274.975 535.814 C 273.898 531.537, 274.007 531.100, 277.676 524.929 L 281.500 518.500 281.792 488.750 L 282.084 459 285.792 458.984 C 290.739 458.962, 296.670 455.455, 300.703 450.167 L 304 445.845 304 410.873 C 304 371.235, 304.124 371.937, 296.249 366.943 C 292.772 364.738, 290.404 364, 286.804 364 L 282 364 282 348.468 C 282 337.345, 281.599 331.975, 280.586 329.552 C 277.925 323.182, 280.749 317.008, 290.216 308.496 C 300.020 299.681, 312.759 295.021, 327 295.039 C 341.220 295.058, 351.161 299.021, 360.579 308.428 C 368.730 316.571, 369.994 320.393, 370.716 339.098 C 371.026 347.126, 370.971 355.339, 370.595 357.348 L 369.909 361 363.705 361.004 C 356.618 361.008, 352.712 362.873, 348.708 368.165 L 346.185 371.500 346.450 396.500 C 346.596 410.250, 346.779 427.698, 346.858 435.272 L 347 449.045 351.250 453.670 C 356.169 459.024, 360.206 461, 366.218 461 L 370.500 460.999 370.176 478.250 C 369.998 487.737, 370.275 501.911, 370.792 509.748 C 371.651 522.785, 371.964 524.347, 374.474 528.140 L 377.217 532.285 375.610 538.796 C 372.998 549.382, 368.044 554.252, 352.692 561.326 L 344.884 564.924 347.192 568.042 C 349.330 570.929, 349.524 572.306, 349.822 586.683 L 350.144 602.206 354.805 601.507 C 360.933 600.588, 370.875 596.797, 378.976 592.290 C 388.333 587.084, 402.530 572.226, 407.212 562.741 C 414.446 548.083, 414.327 549.034, 414.760 502.462 L 415.150 460.424 417.628 460.219 C 421.270 459.917, 423.582 458.415, 426.709 454.316 L 429.500 450.659 429.771 411.079 C 430.030 373.115, 429.961 371.369, 428.060 368.290 C 426.010 364.970, 419.527 361, 416.154 361 C 414.360 361, 414.180 359.885, 413.534 344.750 C 413.141 335.539, 411.986 324.168, 410.866 318.500 C 407.573 301.822, 399.250 287.343, 386.890 276.793 C 380.258 271.132, 365.677 262.585, 357.104 259.333 C 344.389 254.511, 323.254 252.801, 310 255.523 M 513.239 329.335 C 504.930 332.348, 499.065 340.399, 499.022 348.849 C 498.992 354.799, 501.489 359.559, 506.385 362.886 C 514.917 368.685, 522.594 369.502, 530.679 365.473 C 539.706 360.974, 544.584 348.023, 540.386 339.700 C 535.560 330.133, 523.615 325.572, 513.239 329.335 M 699.459 330.880 C 694.944 332.931, 690.323 337.864, 689.374 341.648 C 687.080 350.786, 694.605 364.739, 703.053 367.014 C 707.523 368.218, 717.193 366.994, 721.666 364.658 C 725.592 362.608, 729.614 358.170, 731.383 353.935 C 734.465 346.557, 728.910 334.680, 720.616 330.913 C 715.137 328.425, 704.898 328.409, 699.459 330.880 M 385.975 343.565 C 384.832 346.571, 384.655 359.716, 385.750 360.242 C 386.163 360.440, 389.313 360.427, 392.750 360.212 L 399 359.822 399 351.446 C 399 341.908, 398.308 341, 391.041 341 C 387.570 341, 386.803 341.389, 385.975 343.565 M 254.667 345.667 C 254.300 346.033, 254 350.103, 254 354.710 L 254 363.088 261.250 362.794 L 268.500 362.500 268.268 356 C 267.876 345.040, 267.850 345, 261.148 345 C 257.950 345, 255.033 345.300, 254.667 345.667 M 367.873 382.666 C 364.834 383.475, 363.771 399.628, 366.571 402.429 C 368.755 404.613, 373.608 404.392, 376 402 C 378.245 399.755, 378.708 392.957, 377.018 387.064 C 375.658 382.322, 373.342 381.208, 367.873 382.666 M 395.615 384.250 C 393.669 387.309, 391.762 397.204, 392.530 400.262 C 393.047 402.323, 393.937 402.857, 397.717 403.375 C 409.657 405.011, 411 403.971, 411 393.084 C 411 383.505, 409.805 382, 402.194 382 C 397.946 382, 396.796 382.393, 395.615 384.250 M 239.486 387.250 C 239.154 389.038, 239.021 393.425, 239.191 397 L 239.500 403.500 243.328 404.445 C 249.292 405.918, 250.446 404.620, 250.796 396.040 C 251.178 386.683, 249.668 384, 244.022 384 C 240.377 384, 240.047 384.237, 239.486 387.250 M 270.196 384.661 C 268.891 384.940, 267.445 386.312, 266.860 387.827 C 265.884 390.353, 266.043 402.377, 267.066 403.399 C 268.076 404.409, 282.565 405.059, 283.894 404.153 C 285.964 402.744, 286.619 389.091, 284.737 386.595 C 283.264 384.642, 275.267 383.579, 270.196 384.661 M 482.369 413.776 C 482.636 414.724, 483.164 417.975, 483.542 421 C 484.272 426.850, 488.696 437.971, 502.377 468.350 C 510.657 486.736, 511.691 488.777, 512.290 487.917 C 512.449 487.688, 512.405 472.087, 512.191 453.250 L 511.802 419 509.651 418.984 C 506.136 418.959, 489.466 415.221, 485.529 413.577 C 482.140 412.160, 481.916 412.175, 482.369 413.776 M 741.550 415.053 C 739.928 415.538, 734.237 416.463, 728.905 417.109 L 719.210 418.284 718.487 432.244 C 718.090 439.922, 718.095 454.564, 718.498 464.783 L 719.231 483.362 721.683 479.431 C 725.613 473.129, 739.498 444.236, 742.846 435.392 C 744.534 430.933, 746.221 424.296, 746.596 420.642 C 747.338 413.401, 747.283 413.341, 741.550 415.053 M 536.866 421 C 536.792 421.825, 536.677 440.338, 536.611 462.140 L 536.491 501.780 541.217 502.339 C 551.607 503.570, 553.142 506.414, 553.699 525.480 C 553.925 533.191, 554.322 540.530, 554.583 541.789 C 555.050 544.042, 562.131 549.157, 573.501 555.456 L 578.503 558.226 583.501 555.152 C 589.505 551.459, 599.146 550, 617.540 550 C 632.558 550, 639.998 551.315, 646.761 555.165 L 652.022 558.160 658.439 553.581 C 661.968 551.063, 666.398 547.539, 668.283 545.751 L 671.712 542.500 672.434 528.089 C 672.832 520.163, 673.684 512.106, 674.328 510.185 C 676.059 505.024, 679.876 502.666, 687.261 502.196 L 693.500 501.799 693.500 460.649 L 693.500 419.500 615.250 419.500 C 546.421 419.500, 536.984 419.681, 536.866 421 M 273.225 420.709 C 269.865 421.354, 267.810 425.249, 267.734 431.118 C 267.649 437.638, 269.277 439, 277.156 439 C 281.841 439, 283.125 438.635, 283.965 437.066 C 285.399 434.386, 285.277 422.677, 283.800 421.200 C 282.637 420.037, 277.879 419.816, 273.225 420.709 M 397.041 421.306 C 393.252 422.614, 392.266 424.686, 392.100 431.693 C 391.965 437.338, 394.373 439, 402.687 439 C 407.835 439, 409.111 438.661, 409.965 437.066 C 411.399 434.386, 411.277 422.677, 409.800 421.200 C 408.287 419.687, 401.573 419.743, 397.041 421.306 M 240.547 421.925 C 239.515 423.593, 239.477 436.865, 240.500 437.838 C 242.425 439.669, 247.468 440.110, 249.499 438.625 C 251.089 437.461, 251.463 435.978, 251.479 430.752 C 251.492 426.738, 250.983 423.689, 250.128 422.657 C 248.646 420.869, 241.535 420.325, 240.547 421.925 M 366.458 422.068 C 365.139 424.203, 364.751 434.667, 365.911 436.834 C 366.828 438.547, 367.983 439, 371.428 439 C 376.525 439, 377 438.262, 377 430.352 C 377 422.789, 375.857 421, 371.024 421 C 368.876 421, 366.821 421.481, 366.458 422.068 M 255.712 460.622 C 255.320 461.013, 255 464.858, 255 469.167 L 255 477 259.965 477 C 266.154 477, 267.211 475.411, 266.797 466.728 L 266.500 460.500 261.462 460.205 C 258.690 460.043, 256.103 460.230, 255.712 460.622 M 385.654 465.199 C 384.855 471.852, 384.982 497.680, 385.849 504.980 C 386.419 509.780, 386.838 510.577, 389.222 511.413 C 390.925 512.009, 393.358 512.017, 395.722 511.433 C 399.314 510.546, 399.527 510.266, 400.046 505.752 C 400.346 503.140, 400.161 492.002, 399.635 481.002 L 398.677 461 393.921 461 C 391.304 461, 388.517 460.752, 387.727 460.449 C 386.632 460.029, 386.139 461.158, 385.654 465.199 M 174 497.265 L 171.500 500.420 171.298 652.960 C 171.172 747.437, 171.459 806.878, 172.051 809.119 C 172.577 811.110, 173.945 813.932, 175.092 815.389 C 179.757 821.320, 168.792 820.942, 339.654 821.066 L 496.500 821.180 498.235 817.864 C 500.600 813.343, 499.970 793.730, 497.367 790.853 C 495.749 789.065, 490.570 789, 349.595 789 L 203.500 789 203.823 643.145 C 204.121 508.856, 204.016 497.159, 202.502 495.645 C 201.149 494.292, 198.698 494.010, 188.679 494.055 L 176.500 494.111 174 497.265 M 820.405 496.102 C 818.687 497.998, 818.448 500.422, 817.968 520.852 C 817.675 533.308, 817.450 598.738, 817.468 666.250 L 817.500 789 671.450 789 C 559.189 789, 525.122 789.278, 524.200 790.200 C 523.393 791.007, 523 795.553, 523 804.089 C 523 814.695, 523.287 817.129, 524.750 818.912 L 526.500 821.046 681.701 821.017 C 788.576 820.997, 837.774 820.658, 839.701 819.927 C 843.230 818.590, 846.718 815.367, 848.822 811.500 C 850.310 808.765, 850.463 794.834, 850.564 653.678 C 850.671 502.726, 850.626 498.794, 848.764 496.428 C 846.928 494.093, 846.384 494, 834.582 494 C 823.382 494, 822.143 494.184, 820.405 496.102 M 517.500 523.674 C 510.004 524.609, 509.999 524.614, 510.009 530.269 C 510.013 533.146, 510.306 537.900, 510.658 540.832 L 511.298 546.165 522.568 545.832 C 528.767 545.650, 534.080 545.257, 534.375 544.961 C 534.670 544.664, 534.639 539.602, 534.305 533.711 L 533.699 523 527.099 523.150 C 523.470 523.232, 519.150 523.468, 517.500 523.674 M 693 526.743 C 693 528.918, 692.715 534.073, 692.366 538.198 L 691.732 545.698 703.004 546.412 C 709.203 546.804, 714.606 546.759, 715.010 546.312 C 715.414 545.866, 716.027 540.923, 716.372 535.329 L 717 525.159 714.250 524.632 C 712.737 524.342, 707.337 523.808, 702.250 523.446 L 693 522.788 693 526.743 M 548 565.662 C 548 570.733, 559.621 583.299, 569.061 588.437 C 574.564 591.432, 574.448 591.548, 575.469 582 L 576.057 576.500 563.236 570.250 C 556.185 566.813, 549.872 564, 549.208 564 C 548.544 564, 548 564.748, 548 565.662 M 669 568.638 C 665.425 570.626, 660.587 573.568, 658.250 575.175 C 654.136 578.003, 654.003 578.262, 654.100 583.298 C 654.155 586.159, 654.496 589.556, 654.859 590.847 C 655.511 593.170, 655.577 593.149, 661.509 588.751 C 664.804 586.308, 668.807 583.002, 670.405 581.405 C 674.965 576.844, 682.048 566.887, 681.436 565.897 C 680.289 564.040, 675.283 565.144, 669 568.638 M 595.854 585.140 C 596.081 593.677, 596.619 598.756, 597.346 599.208 C 600.568 601.215, 628.752 601.507, 631.893 599.566 C 632.610 599.123, 633 594.325, 633 585.941 L 633 573 619.250 572.991 C 611.688 572.987, 603.250 572.712, 600.500 572.381 L 595.500 571.780 595.854 585.140 M 767.334 721.250 C 765.225 723.587, 760.630 728.254, 757.123 731.619 C 753.616 734.984, 750.916 738.200, 751.123 738.765 C 751.330 739.330, 757.039 745.025, 763.808 751.419 L 776.117 763.047 786.308 752.372 C 791.914 746.501, 796.500 741.392, 796.500 741.018 C 796.500 739.398, 774.518 717, 772.928 717 C 771.960 717, 769.443 718.913, 767.334 721.250 M 235.409 729.031 C 229.409 735.098, 224.370 740.643, 224.211 741.355 C 223.950 742.520, 237.192 755.281, 244.353 760.765 L 247.206 762.950 258.506 751.256 C 267.986 741.445, 269.620 739.303, 268.653 737.957 C 266.615 735.121, 248.282 718, 247.283 718 C 246.753 718, 241.410 722.964, 235.409 729.031" stroke="none" fill="#000000" fill-rule="evenodd"/>
</svg>