<svg xmlns="http://www.w3.org/2000/svg" width="1024" height="1024" viewBox="0 0 1024 1024" version="1.1">
	<path d="M 715.644 143.689 C 715.286 144.048, 696.319 144.271, 673.496 144.185 L 632 144.029 632 148.014 L 632 152 610.250 152.012 C 586.551 152.025, 582.724 152.601, 571.532 157.838 C 557.556 164.378, 545.133 181.941, 543.122 198 C 542.553 202.547, 542.485 228.340, 542.950 263.500 C 543.791 327.098, 543.590 325.064, 550.147 336.305 C 555.726 345.869, 566.365 354.924, 578.500 360.436 C 585.477 363.606, 598.157 365.216, 613 364.817 C 618.225 364.676, 623.288 364.933, 624.250 365.388 C 625.765 366.103, 626 365.669, 626 362.156 C 626 359.924, 626.487 355.826, 627.083 353.049 C 628.274 347.496, 629.566 346.907, 635.797 349.079 C 638.268 349.940, 639.189 351.099, 640.368 354.829 C 641.669 358.949, 643.691 379.742, 642.830 380.161 C 642.649 380.249, 627.650 380.607, 609.500 380.956 L 576.500 381.592 569.725 384.412 C 553.874 391.011, 545.951 398.711, 541.941 411.411 C 539.401 419.454, 539.319 424.188, 541.038 463.500 C 541.705 478.750, 542.036 515.136, 541.838 551.500 L 541.500 613.500 543.915 618.406 C 545.243 621.104, 549.248 626.405, 552.815 630.187 C 558.029 635.713, 561.166 637.988, 568.803 641.781 L 578.305 646.500 602.403 647.059 C 615.656 647.367, 626.837 647.453, 627.250 647.250 C 627.663 647.048, 628 643.984, 628 640.441 L 628 634 678.439 634 L 728.879 634 729.569 641 L 730.258 648 740.379 647.997 C 755.303 647.992, 772.551 646.218, 780.465 643.874 C 796.106 639.243, 807.550 630.455, 813.509 618.500 L 816.500 612.500 816.415 592 C 816.368 580.725, 816.146 549.900, 815.921 523.500 C 815.641 490.525, 815.944 467.653, 816.891 450.431 C 818.801 415.677, 817.176 407.702, 805.826 396.111 C 799.176 389.320, 795.141 386.701, 787 383.893 C 781.010 381.828, 778.088 381.603, 749.760 381.036 C 727.080 380.581, 718.690 380.090, 717.760 379.161 C 715.716 377.119, 715.540 361.164, 717.466 352.507 C 719.264 344.428, 721.258 342, 726.100 342 C 730.304 342, 731.378 344.321, 731.816 354.353 L 732.215 363.500 748.857 363.218 C 769.261 362.873, 773.067 362.151, 784.632 356.439 C 796.144 350.753, 803.452 343.468, 808.672 332.475 C 812.042 325.379, 812.341 323.962, 813.057 311.680 C 813.480 304.431, 813.978 274.425, 814.163 245 L 814.500 191.500 811.405 185 C 804.653 170.816, 791.641 158.978, 777.661 154.299 C 769.720 151.642, 768.872 151.567, 746.251 151.534 L 723.002 151.500 723.001 148.309 C 723 146.554, 722.663 144.929, 722.250 144.697 C 720.540 143.738, 716.250 143.083, 715.644 143.689 M 264.500 161.649 C 249.423 164.345, 226.493 173.153, 214.581 180.823 C 205.029 186.973, 194.922 195.340, 186.633 203.956 L 177.765 213.174 178.431 218.194 C 180.346 232.629, 186.086 253.322, 192.865 270.231 C 199.078 285.730, 217.002 318.457, 228.272 334.884 L 231.280 339.267 238.737 338.704 C 242.838 338.393, 246.402 337.931, 246.657 337.676 C 247.133 337.200, 246.646 335.926, 233.584 303.525 C 221.561 273.696, 213.265 241.235, 216.378 236.197 C 217.273 234.750, 224.234 232.813, 225.102 233.770 C 225.467 234.171, 228.109 242.150, 230.974 251.500 C 238.598 276.378, 246.698 298.251, 255.414 317.500 C 265.721 340.263, 264.900 339.328, 273.814 338.450 L 281 337.742 281 286.871 L 281 236 287.875 236 L 294.750 236 295.375 239.125 C 295.719 240.844, 296 264.019, 296 290.625 L 296 339 303.861 339 L 311.721 339 314.787 333.248 C 316.473 330.084, 319.057 324.347, 320.528 320.498 C 331.965 290.577, 341.455 262.825, 345.490 247.500 C 346.938 242, 348.509 237.109, 348.981 236.631 C 350.020 235.577, 357.882 239.797, 359.381 242.213 C 362.048 246.514, 351.068 286.010, 337.339 321.500 C 334.360 329.200, 331.520 336.233, 331.028 337.130 C 330.293 338.469, 330.790 338.869, 333.816 339.369 C 343.973 341.048, 344.774 340.507, 355.059 325 C 362.672 313.522, 367.866 304.394, 375.828 288.500 C 383.577 273.031, 386.528 265.792, 390.093 253.500 C 392.910 243.786, 399 216.833, 399 214.078 C 399 211.588, 378.653 191.981, 369.719 185.862 C 352.552 174.104, 328.287 164.413, 308.872 161.561 C 295.966 159.666, 275.361 159.706, 264.500 161.649 M 600 176.933 C 589.325 177.612, 583.450 180.086, 576.480 186.838 C 569.152 193.938, 569.475 190.545, 569.720 257.788 C 569.928 314.687, 570.048 318.313, 571.847 322.288 C 574.603 328.377, 579.997 334.129, 586.141 337.532 L 591.500 340.500 619 340.169 C 659.307 339.685, 697.388 339.574, 732.778 339.836 C 768.605 340.102, 768.724 340.080, 778.055 331.352 C 787.042 322.945, 786.427 328.353, 786.107 260.500 C 785.837 203.410, 785.728 200.277, 783.857 195.908 C 781.343 190.040, 774.122 182.970, 766.648 179.061 L 760.797 176 685.148 176.165 C 643.542 176.256, 605.225 176.601, 600 176.933 M 704.576 210.250 C 668.219 246.650, 640.953 275.666, 624.478 295.491 C 621.740 298.785, 616.645 304.794, 613.156 308.843 C 606.339 316.754, 603.548 322, 604.521 325.067 C 605.658 328.650, 607.981 330, 613.004 330 C 618.362 330, 616.521 331.672, 640.431 305.093 C 643.693 301.467, 655.190 289.275, 665.980 278 C 676.770 266.725, 691.427 251.407, 698.549 243.960 C 705.672 236.513, 719.038 223.058, 728.250 214.060 C 737.462 205.062, 745 197.127, 745 196.427 C 745 195.044, 732.002 186, 730.014 186 C 729.345 186, 717.898 196.912, 704.576 210.250 M 425.505 237.750 C 420.345 244.308, 414.345 255.490, 410.883 265 C 408.548 271.416, 408.513 272.079, 408.192 316.500 C 408.013 341.250, 408.149 363.413, 408.495 365.750 L 409.123 370 416.061 370 L 423 370 423.017 326.750 C 423.036 280.790, 423.441 275.820, 428.034 265.142 C 431.400 257.318, 432.441 256.968, 435.717 262.560 C 437.248 265.172, 440.720 270.650, 443.433 274.733 C 448.988 283.092, 448.713 284.280, 441.344 283.781 L 437.188 283.500 436.493 290.922 C 436.110 295.005, 436.125 314.355, 436.526 333.922 L 437.255 369.500 464.127 369.500 L 490.999 369.500 491.250 338.500 C 491.677 285.602, 491.669 285.426, 488.625 277.963 C 483.201 264.667, 470.827 251.767, 455.017 242.925 C 447.970 238.983, 432.486 232, 430.795 232 C 430.374 232, 427.993 234.588, 425.505 237.750 M 231.796 390.963 C 231.959 411.568, 232.311 428.644, 232.577 428.910 C 232.843 429.177, 257.798 429.478, 288.031 429.579 L 343 429.764 343 391.632 L 343 353.500 287.250 353.500 L 231.500 353.500 231.796 390.963 M 657.559 364.786 C 651.542 364.943, 646.063 365.533, 645.383 366.097 C 643.747 367.455, 645.517 372.729, 647.834 373.403 C 660.121 376.980, 694.538 376.831, 710.500 373.132 C 712.954 372.563, 713.556 371.861, 713.809 369.275 C 714.092 366.386, 713.832 366.067, 710.809 365.581 C 706.680 364.917, 672.222 364.403, 657.559 364.786 M 251 394.393 L 251 421 258 421 L 265 421 265 395 L 265 369 259.582 369 C 256.602 369, 253.452 368.727, 252.582 368.393 C 251.164 367.849, 251 370.542, 251 394.393 M 394.200 439.167 C 394.365 469.785, 394.725 495.052, 395 495.317 C 395.275 495.582, 399.663 495.957, 404.751 496.150 L 414.001 496.500 414.001 448.889 L 414 401.279 419.250 400.648 C 422.137 400.301, 425.288 400.013, 426.250 400.009 C 427.889 400.001, 428 402.654, 428.007 441.750 C 428.014 483.056, 428.553 497.395, 430.062 496.462 C 430.489 496.198, 447.454 495.978, 467.760 495.974 L 504.681 495.967 505.283 440.260 C 505.615 409.621, 505.792 384.458, 505.676 384.343 C 505.560 384.227, 480.363 383.990, 449.683 383.816 L 393.900 383.500 394.200 439.167 M 657.500 404.451 C 638.958 408.093, 625.136 415.319, 606.262 431.238 C 586.692 447.745, 575.587 471.059, 573.062 500.941 C 570.525 530.978, 582.645 560.528, 606.725 583.017 C 619.553 594.996, 630.544 601.558, 646 606.462 C 678.495 616.774, 707.416 612.668, 737 593.542 C 768 573.501, 787.051 531.841, 782.113 494.887 C 780.470 482.590, 778.501 475.790, 773.574 465.389 C 765.077 447.450, 759.127 440.225, 742.593 427.766 C 729.805 418.130, 720.246 413.108, 703.500 407.231 C 694.128 403.941, 692.589 403.700, 679 403.398 C 669.491 403.187, 662.090 403.550, 657.500 404.451 M 667.500 420.671 C 645.130 425.579, 634.712 429.576, 624.494 437.172 C 617.688 442.231, 608.963 451.866, 603.822 460 C 599.299 467.157, 592.572 484.645, 590.976 493.399 C 589.448 501.774, 590.207 519.859, 592.449 528.500 C 594.919 538.022, 603.194 553.673, 610.679 562.980 C 618.827 573.111, 627.325 579.764, 639.500 585.544 C 652.487 591.709, 661.483 593.515, 678.500 593.376 C 693.045 593.257, 700.114 591.966, 713.207 587.037 C 719.029 584.845, 731.492 577.087, 736 572.848 C 744.579 564.781, 755.487 548.572, 759.862 537.388 C 763.470 528.165, 765.209 517.199, 765.315 503 C 765.407 490.480, 765.209 488.956, 762.583 482 C 756.478 465.827, 749.463 455.279, 737.452 444.212 C 720.722 428.797, 698.461 419.822, 677.685 420.116 C 673.183 420.180, 668.600 420.429, 667.500 420.671 M 231.755 560.161 C 231.895 622.498, 232.381 678.782, 232.835 685.237 C 233.605 696.192, 233.937 697.533, 237.815 705.358 C 246.578 723.043, 264.651 734.319, 287.768 736.525 C 308.577 738.510, 328.872 726.927, 339.500 707 L 343.500 699.500 343.821 614.500 C 343.997 567.750, 343.833 511.050, 343.457 488.500 L 342.773 447.500 287.136 447.161 L 231.500 446.822 231.755 560.161 M 667 459.652 C 658.343 460.969, 652.579 463.477, 647.800 468.009 C 643.265 472.308, 641 477.472, 641 483.508 C 641 490.435, 644.024 495.465, 649.745 498.053 C 654.154 500.047, 655.592 500.162, 669.500 499.626 C 696.593 498.582, 709.996 497.166, 713.548 494.971 C 716.635 493.063, 718 489.931, 718 484.758 C 718 481.047, 697.025 463, 692.711 463 C 691.990 463, 690.973 462.586, 690.450 462.081 C 688.264 459.966, 674.389 458.529, 667 459.652 M 250.229 577.250 L 250.500 689.500 252.960 694.500 C 255.823 700.318, 262.146 707.507, 266.282 709.646 C 269.531 711.326, 280.623 713.351, 281.982 712.511 C 282.469 712.210, 279.805 708.859, 276.063 705.063 C 264.124 692.958, 264.667 695.883, 265.116 646.157 C 265.327 622.695, 265.387 572.337, 265.250 534.250 L 265 465 257.479 465 L 249.957 465 250.229 577.250 M 383.798 530 C 383.962 540.175, 384.242 548.950, 384.420 549.500 C 384.635 550.164, 393.428 550.120, 410.622 549.368 C 426.600 548.669, 443.195 548.545, 454 549.044 C 463.625 549.488, 481.850 549.997, 494.500 550.175 L 517.500 550.500 517.447 531.780 C 517.418 521.485, 517.190 512.856, 516.940 512.606 C 516.690 512.356, 486.564 512.005, 449.993 511.826 L 383.500 511.500 383.798 530 M 386.463 566.742 L 377.426 567.069 377.799 638.285 L 378.173 709.500 380.472 714.620 C 383.285 720.885, 388.962 727.328, 394.416 730.443 C 402.705 735.178, 406.472 735.500, 453.500 735.500 C 497.239 735.500, 497.534 735.486, 503.262 733.174 C 509.902 730.493, 517.654 723.440, 520.419 717.563 C 522.044 714.108, 522.195 712.024, 521.648 700.563 C 521.305 693.378, 520.953 661.063, 520.867 628.752 C 520.741 581.862, 520.447 569.786, 519.407 568.923 C 516.797 566.757, 426.825 565.281, 386.463 566.742 M 400.749 614.750 C 400.472 633.862, 400.303 663.900, 400.373 681.500 L 400.500 713.500 408.750 713.790 L 417 714.081 417 647.671 L 417 581.262 413.250 580.642 C 411.188 580.301, 407.644 580.017, 405.377 580.011 L 401.253 580 400.749 614.750 M 572.352 669.025 C 562.267 670.087, 558.892 671.445, 553.755 676.510 C 545.958 684.197, 544.130 691.374, 547.900 699.500 C 550.492 705.087, 555.328 709.332, 563.500 713.193 C 570.230 716.372, 570.963 716.499, 582.500 716.467 C 592.363 716.439, 595.212 716.083, 598.500 714.467 C 602.333 712.582, 602.513 712.280, 602.803 707.215 L 603.107 701.929 606.303 702.430 C 608.062 702.705, 621.875 703.464, 637 704.118 C 663.357 705.257, 727.299 704.809, 747.993 703.340 L 756.560 702.732 757.530 707.116 C 758.898 713.299, 761.742 714.521, 774.500 714.406 C 790.912 714.257, 800.065 711.565, 806.822 704.899 C 811.968 699.822, 813.278 696.522, 812.796 689.851 C 812.260 682.446, 808.280 676.568, 801.388 673.001 C 797.015 670.739, 795.184 670.469, 781.996 670.148 C 761.941 669.659, 758.032 671.477, 757.985 681.315 C 757.976 683.067, 757.639 684.993, 757.235 685.595 C 756.712 686.374, 734.278 686.663, 679.500 686.595 L 602.500 686.500 602.483 680.383 C 602.472 676.470, 601.931 673.622, 600.983 672.478 C 597.407 668.167, 589.521 667.216, 572.352 669.025" stroke="none" fill="#000000" fill-rule="evenodd"/>
</svg>