<svg xmlns="http://www.w3.org/2000/svg" width="1024" height="1024" viewBox="0 0 1024 1024" version="1.1">
	<path d="M 432.417 111.541 C 419.768 113.388, 400.650 117.775, 393.500 120.473 C 377.847 126.378, 353.783 139.261, 349.458 144.052 C 348.381 145.244, 344.398 148.228, 340.607 150.682 C 332.858 155.699, 315.979 172.042, 311.127 179.227 C 305.689 187.281, 298.190 200.744, 294.655 208.800 C 287.881 224.237, 278.429 255.794, 271.530 286 C 269.081 296.725, 266.799 306.446, 266.460 307.602 C 265.929 309.413, 267.486 310.757, 277.715 317.317 C 284.244 321.505, 294.211 326.981, 299.864 329.488 C 305.516 331.994, 311.347 334.928, 312.821 336.007 C 314.294 337.086, 319.325 338.897, 324 340.031 C 328.675 341.164, 334.632 342.781, 337.237 343.622 L 341.974 345.152 335.785 353.326 C 332.382 357.822, 325.245 366.308, 319.927 372.184 C 309.489 383.716, 299.002 400.616, 297.080 409 C 295.316 416.698, 296.209 438.542, 298.377 440.710 C 298.990 441.323, 323.736 416.108, 333.383 405.040 C 338.398 399.288, 345.663 391.188, 349.529 387.040 C 353.396 382.893, 359.772 375.632, 363.699 370.905 C 367.627 366.179, 372.964 360.441, 375.561 358.155 C 380.128 354.135, 380.496 354.004, 386.891 354.116 C 390.526 354.180, 392.714 354.437, 391.754 354.689 C 390.389 355.045, 390.225 355.552, 391.004 357.007 C 392.289 359.408, 390.979 362.900, 386.878 368.002 C 383.610 372.069, 383.543 375.011, 386.719 374.986 C 387.698 374.979, 395.700 373.845, 404.500 372.466 C 413.410 371.070, 430.086 369.440, 442.131 368.787 C 462.373 367.690, 465.166 367.761, 485.631 369.888 C 497.659 371.138, 512.432 372.800, 518.460 373.580 C 533.815 375.569, 537 375.484, 537 373.082 C 537 372.027, 534.957 368.770, 532.459 365.844 C 526.272 358.595, 525.079 352.850, 529.627 352.198 C 531.216 351.970, 533.706 354.183, 539.756 361.198 C 555.699 379.682, 588.964 412.198, 603.500 423.507 C 611.200 429.497, 618.978 435.659, 620.785 437.199 C 622.591 438.740, 624.729 440, 625.535 440 C 629.804 440, 624.685 422.243, 614.826 402.852 L 608.545 390.500 607.817 369.500 C 607.416 357.950, 606.587 345.245, 605.974 341.268 C 605.362 337.290, 605.112 333.627, 605.421 333.128 C 605.729 332.630, 610.598 329.646, 616.240 326.497 C 631.890 317.765, 643.101 309.911, 642.552 308.063 C 641.908 305.898, 639.967 297.506, 633.402 268.500 C 630.290 254.750, 625.743 237.650, 623.298 230.500 C 618.847 217.485, 610.376 200.200, 602.469 188 C 592.393 172.452, 575.491 154.842, 565.995 149.997 C 563.870 148.914, 561.540 147.194, 560.816 146.175 C 558.533 142.964, 545.439 134.238, 535.281 129.159 C 512.969 118.002, 499.468 113.977, 476.092 111.510 C 459.096 109.716, 444.847 109.726, 432.417 111.541 M 438.500 127.649 C 436.850 127.842, 431.225 128.482, 426 129.071 C 415.024 130.310, 396.447 136.112, 386.424 141.431 C 382.780 143.365, 378.268 145.234, 376.399 145.585 C 372.255 146.362, 372.166 147.336, 375.101 159.671 C 377.574 170.066, 384.612 204.062, 389.556 229.500 C 393.436 249.463, 397.979 272.355, 398.709 275.616 C 399.152 277.601, 398.693 277.764, 391.341 278.240 C 387.028 278.519, 382.777 279.053, 381.893 279.426 C 380.737 279.914, 379.972 279.317, 379.170 277.302 C 376.850 271.474, 366.276 229.111, 359.002 196.500 C 356.793 186.600, 354.028 175.252, 352.857 171.282 L 350.727 164.063 344.702 168.282 C 332.396 176.897, 322.866 187.487, 315.259 201 C 308.274 213.407, 299.231 239.972, 292.451 268 C 290.389 276.525, 287.468 287.446, 285.960 292.270 L 283.219 301.039 289.859 304.900 C 298.807 310.101, 311.058 316.143, 319.180 319.361 C 328.766 323.159, 368.210 332.826, 380.803 334.465 C 414.912 338.903, 422.769 339.463, 451 339.474 C 481.300 339.485, 491.885 338.690, 524 333.991 C 569.492 327.335, 583.871 322.764, 620.768 303.230 C 623.229 301.927, 623.907 301.006, 623.513 299.500 C 623.226 298.400, 621.404 290.188, 619.464 281.251 C 606.851 223.140, 597.231 201.379, 574.039 178.500 C 568.463 173, 562.639 166.608, 561.095 164.296 L 558.288 160.093 556.197 167.796 C 555.047 172.033, 551.134 188.666, 547.501 204.757 C 542.001 229.120, 528.627 281.707, 527.693 282.640 C 527.547 282.786, 524.637 281.577, 521.228 279.953 C 517.818 278.329, 514.148 277, 513.073 277 C 510.117 277, 509.784 275.574, 511.389 269.784 C 512.195 266.878, 513.592 259.550, 514.495 253.500 C 515.397 247.450, 517.712 234.625, 519.640 225 C 521.567 215.375, 524.481 199.850, 526.114 190.500 C 531.174 161.544, 532.798 152.597, 533.490 149.868 C 534.100 147.461, 533.658 146.962, 528.329 144.043 C 512.903 135.592, 489.138 128.684, 472.500 127.814 L 466.500 127.500 465.080 157.750 L 463.661 188 455.392 188 L 447.123 188 446.622 183.750 C 446.346 181.412, 445.623 169.825, 445.016 158 C 443.784 134.039, 443.125 126.929, 442.156 127.150 C 441.795 127.232, 440.150 127.457, 438.500 127.649 M 682.750 151.728 L 678 152.110 678 163.406 L 678 174.702 705.250 175.324 C 720.237 175.666, 735.840 176.405, 739.922 176.967 C 744.005 177.529, 747.451 177.879, 747.581 177.744 C 747.710 177.610, 747.970 171.650, 748.158 164.500 L 748.500 151.500 718 151.423 C 701.225 151.381, 685.362 151.518, 682.750 151.728 M 642 208.962 L 642 239.924 653.862 239.712 L 665.725 239.500 666.436 223.847 C 667.161 207.880, 666.395 188.301, 664.887 184.250 C 664.426 183.012, 663.220 182, 662.207 182 C 661.194 182, 657.020 181.111, 652.932 180.024 C 640.747 176.783, 642 173.466, 642 208.962 M 674 211.311 L 674 234.820 682.750 235.434 C 702.127 236.791, 722.341 240.140, 738.500 244.670 C 754.540 249.166, 792.857 269.264, 814.865 284.724 C 830.084 295.415, 855.034 316.768, 865 327.630 C 867.475 330.327, 873.835 337.252, 879.134 343.017 C 884.433 348.783, 890.870 356.087, 893.439 359.250 C 899.094 366.211, 900.502 366.555, 899.583 360.750 C 898.158 351.749, 885.628 328.245, 868.529 302.500 C 842.080 262.678, 814.938 234.437, 780.958 211.381 C 753.212 192.556, 745.200 190.508, 691.250 188.458 L 674 187.802 674 211.311 M 323.869 243.443 C 320.042 246.043, 317.483 250.628, 314.091 260.960 C 311.405 269.144, 311.458 270.874, 314.528 275.056 C 318.840 280.930, 327.144 286.186, 334.203 287.510 C 342.295 289.028, 351.265 281.583, 354.510 270.655 C 357.595 260.265, 356.171 254.962, 348.478 248.190 C 340.329 241.016, 330.290 239.080, 323.869 243.443 M 567.480 243.898 C 561.553 247.298, 554.341 254.792, 553.404 258.524 C 553.040 259.978, 553.003 263.379, 553.323 266.083 C 554.540 276.356, 560.553 284.887, 568.189 287.175 C 571.794 288.255, 573.048 288.131, 578.886 286.124 C 588.097 282.956, 592.102 280.071, 595.174 274.392 L 597.821 269.500 595.085 261.385 C 591.317 250.211, 587.594 244.146, 583.437 242.409 C 578.163 240.206, 573.092 240.679, 567.480 243.898 M 677.521 253.500 C 675.805 262.273, 675.889 262.593, 681.014 266.915 C 687.127 272.070, 697.372 285.634, 701.093 293.500 C 703.123 297.792, 704.120 301.805, 704.597 307.599 C 705.249 315.535, 705.214 315.711, 702.881 316.335 C 701.572 316.686, 697.080 316.979, 692.899 316.986 C 682.794 317.004, 679.402 318.238, 678.613 322.183 C 677.019 330.157, 676.211 329.706, 693.516 330.517 C 702.050 330.917, 709.239 331.578, 709.492 331.987 C 709.744 332.395, 710.249 335.265, 710.613 338.365 L 711.275 344 703.888 344.005 C 699.824 344.008, 692.112 344.301, 686.750 344.656 L 677 345.302 677 353.081 L 677 360.860 680.088 359.975 C 681.787 359.488, 688.619 359.019, 695.270 358.932 C 708.961 358.755, 710 359.263, 710 366.130 C 710 370.342, 710.353 370.220, 694.500 371.451 C 690.650 371.750, 685.813 372.467, 683.750 373.044 C 680.574 373.933, 680 374.517, 680 376.859 C 680 378.735, 680.910 380.297, 682.833 381.719 C 684.945 383.280, 685.667 384.651, 685.667 387.101 C 685.667 388.909, 686.126 390.542, 686.688 390.729 C 687.250 390.917, 687.498 392.173, 687.241 393.521 C 686.439 397.715, 687.944 402.737, 690.884 405.678 C 692.435 407.230, 695.614 410.300, 697.947 412.500 C 702.155 416.467, 706 422.603, 706 425.349 C 706 427.127, 702.791 427.692, 687.750 428.561 L 676 429.240 676 437.516 L 676 445.793 670.400 445.860 C 659.550 445.990, 651.086 454.146, 652.312 463.291 C 652.944 468.004, 657.240 473.678, 662.382 476.593 L 666.074 478.685 662.057 481.344 C 657.452 484.391, 654 490.375, 654 495.310 C 654 499.485, 658.660 506.256, 663.122 508.563 L 666.284 510.198 663.392 512.563 C 661.801 513.864, 660.181 514.944, 659.792 514.964 C 659.403 514.984, 657.940 516.952, 656.542 519.338 C 652.119 526.886, 653.449 533.675, 660.577 539.934 L 664.257 543.164 660.599 546.179 C 656.621 549.458, 653 555.626, 653 559.122 C 653 562.475, 657.470 569.379, 661.371 572.052 L 664.854 574.439 660 579.094 C 653.875 584.966, 652.180 590.101, 654.519 595.700 C 657.392 602.576, 663.705 607.545, 671.184 608.815 C 674.800 609.429, 675.544 609.949, 675.770 612.024 C 675.918 613.386, 676.264 615.898, 676.538 617.607 L 677.037 620.715 699.769 621.439 C 721.025 622.115, 743.230 623.428, 740.128 623.825 C 739.165 623.948, 739.055 624.374, 739.759 625.250 C 740.311 625.938, 740.951 628.188, 741.181 630.250 C 741.499 633.104, 741.228 634.039, 740.049 634.163 C 739.197 634.253, 740.975 634.602, 744 634.939 C 752.646 635.904, 691.343 637.349, 675.628 636.551 L 661.716 635.845 662.256 639.876 C 662.940 644.975, 665.991 649.294, 670.381 651.377 C 673.324 652.773, 678.466 653.001, 707.151 653.009 C 748.221 653.019, 750.568 653.244, 753.103 657.402 C 755.546 661.408, 755.624 666.692, 753.250 667.352 C 750.312 668.170, 664.691 669.225, 661.750 668.480 C 659.563 667.926, 659 667.205, 659 664.957 C 659 661.554, 660.677 656.863, 662.313 655.688 C 664.697 653.976, 654.300 655.959, 645 658.991 C 625.275 665.422, 607.166 676.239, 593.621 689.681 C 583.797 699.430, 579.356 705.928, 571.974 721.350 C 562.034 742.117, 559.717 755.233, 559.674 791 C 559.645 814.997, 560.778 823.803, 565.274 834.500 C 575.544 858.936, 597.943 877.277, 626.500 884.635 C 636.416 887.190, 639.125 887.469, 654 887.465 C 668.648 887.460, 671.791 887.146, 682 884.663 C 707.436 878.477, 718.900 873.150, 729.604 862.541 C 735.184 857.010, 737.679 853.510, 741.237 846.223 C 745.580 837.329, 746.132 836.672, 754.633 830.304 C 768.093 820.221, 774.709 814.258, 780.534 806.957 C 786.835 799.060, 798.523 780.909, 802.723 772.500 C 808.246 761.441, 812.845 745.224, 814.989 729.243 C 816.637 716.963, 816.686 335.532, 815.040 333.548 C 813.132 331.249, 803.800 329.702, 799.318 330.943 C 797.218 331.524, 794.825 332.433, 794 332.963 C 792.678 333.812, 792.433 357.021, 791.940 528.213 C 791.505 678.826, 791.093 724.181, 790.106 729.978 C 788.386 740.081, 784.840 750.504, 779.041 762.500 C 773.067 774.860, 766.853 783.422, 759.716 789.129 C 752.950 794.538, 752.166 795.742, 750.433 803.379 L 749.044 809.500 749.597 804 C 749.902 800.975, 750.365 776.050, 750.627 748.611 L 751.104 698.722 718.802 699.354 C 701.036 699.702, 684.475 700.327, 682 700.743 L 677.500 701.500 677.210 709.750 C 676.874 719.284, 675.991 718.744, 689.178 717.071 C 693.205 716.559, 701.505 715.864, 707.622 715.525 L 718.745 714.909 719.247 720.704 C 719.523 723.892, 719.608 726.659, 719.437 726.854 C 719.266 727.049, 715.385 727.609, 710.813 728.099 C 706.241 728.589, 696.763 730.213, 689.750 731.708 L 677 734.426 677 742.814 L 677 751.201 681.250 750.760 C 683.587 750.518, 692.353 749.488, 700.728 748.471 C 709.103 747.454, 716.161 746.828, 716.413 747.079 C 716.664 747.331, 717.178 749.860, 717.555 752.700 L 718.240 757.864 714.370 758.492 C 702.590 760.401, 691.063 763.380, 683.056 766.585 C 674.296 770.091, 674.037 770.287, 674.757 772.852 C 675.165 774.309, 675.394 778.987, 675.265 783.250 L 675.030 791 678.147 791 C 679.862 791, 686.837 790.018, 693.649 788.817 C 702.378 787.278, 706.347 786.947, 707.094 787.694 C 707.678 788.278, 708.233 790.928, 708.328 793.583 L 708.500 798.410 703.500 799.597 C 700.750 800.249, 694 801.917, 688.500 803.302 C 683 804.688, 676.446 806.102, 673.935 806.444 L 669.370 807.067 669.141 811.784 C 668.875 817.238, 667.262 823.942, 665.780 825.750 C 665.020 826.677, 665.626 826.642, 668.127 825.615 C 672.897 823.656, 692.640 819.648, 694.328 820.296 C 696.200 821.014, 697.008 825.606, 695.602 827.529 C 694.986 828.372, 690.886 830.664, 686.491 832.623 C 676.848 836.921, 665.497 838.354, 662.762 835.619 C 660.605 833.463, 660.440 833.522, 659.008 836.981 C 657.305 841.093, 658.376 844.368, 663.103 849.496 C 666.567 853.254, 666.982 854.165, 666.034 855.937 C 665.053 857.769, 663.992 858, 656.553 858 C 643.148 858, 625.969 854.054, 614.829 848.417 C 607.563 844.740, 598.242 834.992, 594.279 826.927 C 588.845 815.868, 587.645 808.852, 587.623 788 C 587.580 746.480, 596.624 725.707, 624.370 703.594 C 635.494 694.729, 643.568 689.736, 651.500 686.815 C 657.368 684.655, 658.546 684.605, 705 684.553 L 752.500 684.500 756.259 682.163 C 766.336 675.898, 767.943 660.479, 758.873 657.081 C 751.830 654.443, 751 654.015, 751 653.025 C 751 652.465, 753.205 649.867, 755.900 647.253 C 761.562 641.761, 763.377 636.948, 761.858 631.448 C 760.850 627.797, 756.218 624.011, 752.750 624.004 C 751.241 624.001, 751 622.979, 751 616.588 L 751 609.176 755.048 608.492 C 759.723 607.702, 766.469 602.912, 769.739 598.060 C 774.573 590.887, 771.479 582.519, 762.266 577.847 L 757.034 575.194 761.767 572.736 C 768.794 569.087, 773 562.119, 771.583 556.475 C 770.727 553.063, 764.678 546.523, 760.950 544.979 L 757.923 543.725 761.211 541.761 C 769.672 536.706, 772.887 531.009, 771.075 524.280 C 769.809 519.576, 764.576 514.306, 759.408 512.529 L 755.565 511.208 759.033 509.752 C 763.835 507.735, 770.726 499.980, 771.531 495.687 C 772.692 489.499, 767.197 481.660, 760.210 479.536 C 758.003 478.865, 758.056 478.742, 761.710 476.092 C 768.260 471.341, 772 466.353, 772 462.366 C 772 457.224, 769.257 452.198, 764.862 449.290 C 760.795 446.598, 752.692 445.071, 751.627 446.795 C 751.278 447.360, 752.566 451.105, 754.489 455.118 C 756.412 459.131, 757.652 462.714, 757.243 463.081 C 756.121 464.088, 670.664 465.028, 669.083 464.051 C 666.988 462.756, 668.351 455.540, 671.461 451.463 L 674.102 448 709.301 447.889 C 728.660 447.828, 745.482 447.857, 746.681 447.952 C 747.934 448.051, 749.224 447.354, 749.711 446.313 C 750.464 444.703, 750.585 401.775, 750.139 295.278 L 750 262.056 744.734 260.525 C 729.392 256.065, 704.253 252.234, 687.206 251.759 C 678.602 251.519, 677.883 251.648, 677.521 253.500 M 444.500 258.427 C 438.979 260.456, 434.256 266.112, 433.418 271.700 C 432.365 278.719, 433.432 290.204, 435.419 293.236 C 438.378 297.752, 445.129 300.304, 454.394 300.409 C 465.102 300.529, 469.022 299.585, 472.689 296 C 476.957 291.827, 478.380 285.939, 477.506 276.063 C 476.712 267.101, 474.608 262.843, 469.497 259.859 C 465.199 257.349, 449.828 256.469, 444.500 258.427 M 312.578 339.874 C 312.280 340.355, 311.770 343.843, 311.444 347.624 C 310.904 353.877, 311.063 354.740, 313.201 357.145 L 315.552 359.789 316.776 357.195 C 318.360 353.839, 318.377 341.777, 316.800 340.200 C 315.392 338.792, 313.344 338.634, 312.578 339.874 M 582.500 340.582 C 579.200 341.360, 574.584 342.711, 572.243 343.584 L 567.986 345.171 570.209 348.335 C 575.066 355.250, 591.192 374.032, 593.188 375.100 C 595.274 376.217, 595.299 376.129, 594.674 369.868 C 593.866 361.781, 589.663 338.975, 589 339.084 C 588.725 339.129, 585.800 339.803, 582.500 340.582 M 202.015 361.535 C 191.312 363.471, 177.791 370.408, 170.250 377.834 C 159.967 387.958, 154.738 397.465, 151.414 412.078 C 147.367 429.873, 153.384 454.021, 165.281 467.724 L 169.816 472.948 175.642 465.724 C 178.847 461.751, 183.725 456.025, 186.484 453 L 191.500 447.500 195.727 452.075 C 202.506 459.411, 206.668 469.922, 211.141 491 C 219.134 528.666, 223.190 546.840, 226.540 560 C 229.776 572.716, 233.381 587.977, 240.002 617 C 241.571 623.875, 246.058 642.550, 249.974 658.500 C 253.890 674.450, 258.689 694.025, 260.639 702 C 265.263 720.910, 265.114 727.338, 259.805 738.081 C 254.963 747.878, 246.594 757.070, 239.219 760.692 C 233.811 763.347, 232.822 763.492, 221.035 763.354 C 212.954 763.259, 208.440 762.819, 208.201 762.104 C 207.999 761.497, 206.593 761, 205.076 761 C 200.777 761, 190.622 755.398, 186.174 750.573 C 180.853 744.800, 177.949 738.911, 177.294 732.559 L 176.759 727.374 170.172 728.257 C 166.027 728.812, 159.939 728.743, 153.753 728.070 C 148.346 727.481, 143.489 727, 142.961 727 C 141.580 727, 141.807 733.426, 143.464 741.245 C 145.936 752.909, 152.020 763.164, 162.955 774.099 C 170.654 781.797, 174.034 784.396, 180.027 787.223 C 193.488 793.574, 197.785 794.466, 215 794.484 C 232.802 794.502, 239.318 793.012, 253.500 785.676 C 268.872 777.725, 284.489 758.675, 292.021 738.689 C 299.465 718.934, 299.357 714.614, 290.473 676.500 C 281.445 637.770, 279.530 629.785, 273.207 604.500 C 263.693 566.458, 251.719 515.240, 247.968 496.548 C 245.873 486.101, 240.065 466.676, 237.416 461.250 C 233.746 453.733, 225.930 445.604, 219.190 442.294 C 214.401 439.942, 212.234 439.500, 205.500 439.500 C 195.597 439.500, 191.117 441.166, 190.321 445.144 C 190.007 446.715, 189.469 447.978, 189.125 447.952 C 187.324 447.814, 180.733 437.784, 179.351 433.079 C 174.288 415.841, 183.363 397.222, 199.829 391.064 C 207.069 388.356, 218.374 388.140, 225.608 390.571 C 240.542 395.589, 249.976 410.244, 248.706 426.450 C 248.020 435.198, 246.119 439.810, 241.547 443.824 C 239.596 445.537, 238 447.138, 238 447.382 C 238 447.626, 239.556 450.188, 241.458 453.077 C 243.360 455.965, 246.133 461.742, 247.620 465.914 C 249.107 470.086, 250.623 473.850, 250.990 474.278 C 252.045 475.511, 260.628 467.380, 265.546 460.487 C 278.231 442.711, 281.543 423.317, 275.140 404.305 C 270.972 391.928, 267.735 386.613, 259.063 377.909 C 244.100 362.892, 224.930 357.389, 202.015 361.535 M 693.500 382.838 C 690.008 383.416, 689.494 383.841, 689.454 386.183 C 689.429 387.658, 689.838 388.600, 690.362 388.276 C 690.911 387.937, 691.076 388.601, 690.751 389.844 C 690.366 391.318, 690.645 392, 691.633 392 C 694.557 392, 701.725 396.462, 710.382 403.672 C 715.268 407.740, 719.351 410.941, 719.457 410.784 C 719.563 410.628, 719.391 407.311, 719.075 403.414 C 718.467 395.924, 716.229 391.467, 710.148 385.642 C 707.055 382.678, 700.816 381.628, 693.500 382.838 M 465.142 415.693 C 464.261 416.637, 460.379 417, 451.185 417 C 431.336 417, 403.792 422.401, 384.212 430.132 C 359.796 439.772, 341.356 453.553, 335.214 466.747 C 332.905 471.707, 332.534 473.816, 332.518 482.048 C 332.501 491.084, 332.701 492.004, 336.253 499.193 C 340.331 507.448, 347.239 514.692, 358.008 522.005 C 364.534 526.437, 365.228 526.635, 366.951 524.559 C 367.608 523.767, 368.793 523.367, 369.584 523.671 C 370.558 524.044, 370.837 523.738, 370.448 522.725 C 370.086 521.782, 371.008 520.419, 372.936 519.045 C 374.621 517.845, 376 517.296, 376 517.825 C 376 518.354, 375.261 519.070, 374.357 519.417 C 373.453 519.763, 372.963 520.297, 373.268 520.602 C 373.574 520.907, 375.100 520.464, 376.662 519.618 C 378.223 518.772, 378.911 518.062, 378.191 518.040 C 375.394 517.954, 378.635 515.573, 386.677 511.804 C 396.471 507.215, 421.555 500.469, 434.500 498.944 C 446.084 497.579, 483.208 497.633, 495.215 499.033 C 500.322 499.628, 507.650 500.957, 511.500 501.986 C 515.350 503.015, 522.100 504.802, 526.500 505.959 C 530.900 507.115, 536.775 508.964, 539.555 510.067 C 544.106 511.874, 544.590 512.362, 544.409 514.965 C 544.258 517.153, 544.569 517.719, 545.688 517.289 C 546.887 516.829, 546.916 516.566, 545.842 515.902 C 544.787 515.250, 544.770 514.830, 545.758 513.842 C 546.747 512.853, 547 512.924, 547 514.193 C 547 516.008, 549.335 517.193, 551.371 516.411 C 552.125 516.122, 553.052 516.698, 553.430 517.693 C 553.968 519.105, 553.854 519.237, 552.906 518.297 C 552.028 517.426, 551.151 517.384, 549.726 518.147 C 548.224 518.950, 547.938 518.909, 548.519 517.970 C 549.316 516.680, 549.219 516.706, 544.640 518.993 C 542.082 520.271, 541.649 520.241, 540.530 518.710 C 538.906 516.489, 538.350 516.554, 537.700 519.041 C 537.254 520.744, 537.525 520.982, 539.333 520.476 C 540.849 520.051, 541.095 520.150, 540.154 520.803 C 539.142 521.505, 539.636 522.026, 542.143 522.900 C 544.384 523.681, 545.592 523.724, 545.823 523.031 C 546.012 522.464, 546.634 522, 547.206 522 C 547.833 522, 547.752 522.594, 547 523.500 C 545.778 524.973, 546.635 525.561, 549.324 525.094 C 549.778 525.015, 549.866 525.408, 549.521 525.966 C 549.115 526.623, 547.587 526.422, 545.197 525.397 C 538.313 522.446, 534.440 521.241, 521.725 518.095 C 496.886 511.948, 485.867 510.894, 458.500 512.044 C 429.829 513.249, 409.171 517.091, 388.914 524.986 C 378.302 529.121, 375 529.811, 375 527.893 C 375 527.284, 374.302 527.054, 373.448 527.382 C 372.594 527.709, 372.130 527.598, 372.417 527.135 C 372.703 526.671, 371.861 525.802, 370.545 525.202 C 368.679 524.352, 367.890 524.428, 366.963 525.544 C 366.014 526.688, 366.149 527.114, 367.637 527.662 C 368.662 528.039, 372.650 529.656, 376.500 531.256 C 380.350 532.855, 387.325 535.517, 392 537.171 C 400.071 540.026, 400.644 540.097, 403.349 538.579 C 410.124 534.776, 439.567 529.010, 452.250 529.003 L 457 529 457 538.500 L 457 548 467 548 L 477 548 477 538.500 L 477 529 480.250 529 C 482.038 529, 486.969 529.664, 491.209 530.476 C 495.450 531.287, 501.919 532.198, 505.585 532.499 C 514.394 533.224, 520.304 534.604, 525.120 537.061 C 528.631 538.853, 529.729 538.956, 535.032 537.994 C 543.231 536.507, 547.466 534.902, 561.969 527.783 C 573.166 522.287, 575.376 520.749, 582.726 513.335 C 605.312 490.555, 604.708 466.903, 581.099 449.573 C 573.496 443.992, 560.163 436.723, 548.500 431.799 C 537.210 427.034, 532.395 425.540, 518.500 422.492 C 514.100 421.527, 507.051 419.472, 502.835 417.925 C 496.107 415.457, 495.096 415.307, 494.560 416.703 C 494.042 418.054, 492.641 418.203, 485.225 417.692 C 480.426 417.362, 474.219 416.483, 471.431 415.739 C 467.260 414.627, 466.146 414.618, 465.142 415.693 M 428.602 435.104 C 418.161 436.628, 397.122 442.114, 387 445.953 C 360.598 455.964, 342.408 472.037, 341.216 486.406 C 340.937 489.775, 341.194 492.002, 341.915 492.447 C 342.582 492.860, 346.055 490.290, 350.278 486.258 C 363.611 473.530, 376.625 465.756, 394 460.141 C 418.668 452.169, 440.199 448.771, 466.500 448.701 C 504.986 448.598, 545.294 458.472, 566.922 473.301 C 569.355 474.969, 571.917 476.333, 572.617 476.333 C 573.316 476.333, 573.802 476.596, 573.697 476.917 C 573.328 478.034, 587.104 490.132, 588.297 489.739 C 591.702 488.619, 588.235 478.674, 582.179 472.192 C 578.847 468.625, 577.799 468.332, 576.023 470.472 C 574.950 471.765, 574.613 471.756, 573.255 470.398 C 571.997 469.139, 571.551 469.098, 570.855 470.176 C 570.146 471.274, 569.853 471.272, 569.141 470.169 C 568.668 469.436, 566.345 468.651, 563.978 468.423 C 558.888 467.932, 557.444 467.090, 561.911 467.217 C 563.626 467.265, 565.322 467.011, 565.681 466.653 C 566.040 466.294, 565.133 466, 563.667 466 C 561.918 466, 561 465.463, 561 464.441 C 561 463.484, 560.517 463.155, 559.750 463.588 C 558.787 464.131, 558.769 464.002, 559.672 463.025 C 560.316 462.327, 560.628 461.194, 560.364 460.506 C 560.081 459.768, 560.920 459.057, 562.412 458.772 C 563.895 458.488, 564.693 458.688, 564.342 459.256 C 564.013 459.788, 564.289 460.561, 564.956 460.973 C 565.847 461.523, 565.752 461.881, 564.596 462.325 C 563.716 462.662, 563.129 462.449, 563.262 461.839 C 563.393 461.240, 562.923 460.539, 562.219 460.281 C 560.363 459.602, 561.179 462.261, 563.315 463.852 C 565.086 465.172, 566.500 464.757, 566.500 462.917 C 566.500 462.412, 566.837 462, 567.250 462 C 567.663 462, 568.415 462, 568.923 462 C 569.431 462, 571.263 463.191, 572.993 464.648 C 575.371 466.648, 575.817 467.500, 574.820 468.132 C 573.909 468.710, 573.869 468.974, 574.691 468.985 C 577.559 469.022, 576.673 466.875, 572.257 463.087 C 558.093 450.937, 521.666 438.402, 490.789 435.053 C 479.427 433.821, 437.160 433.856, 428.602 435.104 M 611 458.962 C 611 459.519, 612.125 464.305, 613.500 469.597 C 617.379 484.526, 616.610 493.691, 610.424 506.262 C 606.010 515.232, 605.285 516.206, 596.251 525.316 C 584.037 537.632, 570.193 545.736, 548.830 553.075 C 538.742 556.540, 530.152 558.929, 528.273 558.791 C 526.037 558.627, 524.609 559.152, 523.622 560.503 C 521.619 563.242, 509.389 563.837, 501.603 561.573 C 495.166 559.702, 489 559.766, 489 561.704 C 489 562.417, 489.450 563, 490 563 C 491.614 563, 491.146 565.730, 489.418 566.393 C 486.158 567.644, 477.044 566.930, 470.880 564.940 C 467.371 563.808, 463.375 562.707, 462 562.495 C 460.625 562.283, 458.038 561.666, 456.250 561.125 C 454.462 560.583, 453 560.363, 453 560.637 C 453 560.910, 454.164 562.660, 455.587 564.526 L 458.175 567.918 455.497 568.590 C 452.038 569.458, 446.565 567.787, 441.390 564.283 C 439.129 562.752, 434.447 559.587, 430.985 557.250 C 419.879 549.752, 417.731 552.520, 426.329 563.250 C 427.982 565.312, 429.090 567.243, 428.791 567.542 C 428.493 567.841, 425.155 567.309, 421.374 566.360 C 415.128 564.794, 413.798 563.967, 406.813 557.318 C 397.061 548.033, 394.099 547.514, 397.513 555.686 C 398.345 557.677, 398.846 559.487, 398.626 559.707 C 397.780 560.553, 385.610 554.908, 380.749 551.415 C 374.867 547.189, 369 544.479, 369 545.987 C 369 549.029, 359.495 544.120, 342.388 532.242 C 331.953 524.998, 327.343 520.292, 322.053 511.490 C 314.791 499.403, 312.806 488.120, 315.383 473.565 C 316.252 468.651, 316.761 464.428, 316.513 464.180 C 316.265 463.932, 314.882 464.502, 313.440 465.447 C 306.775 469.815, 301.212 491.383, 303.944 502.268 C 309.266 523.471, 325.726 540.786, 356.425 557.476 C 369.882 564.792, 394.487 573.196, 413.344 576.917 C 434.139 581.020, 449.252 582.313, 469 581.681 C 500.762 580.663, 523.937 577.068, 545.451 569.822 C 571.996 560.882, 590.295 549.956, 606.809 533.187 C 615.985 523.869, 617.687 521.554, 622.309 512.110 L 627.500 501.500 627.429 491 C 627.350 479.220, 625.460 472.739, 619.895 465.171 C 616.845 461.025, 611 456.944, 611 458.962 M 191.340 467.839 C 181.404 475.721, 171.469 486.543, 166.404 495 C 157.182 510.400, 150.388 526.364, 146.471 541.837 C 144.475 549.723, 142.990 556.312, 143.171 556.479 C 143.352 556.646, 151.209 556.954, 160.630 557.163 L 177.761 557.543 180.302 547.274 C 183.809 533.100, 191.753 515.901, 198.661 507.526 L 204.179 500.837 204.077 490.080 C 203.969 478.706, 202.018 468.783, 199.300 465.779 C 197.127 463.377, 196.886 463.440, 191.340 467.839 M 438.876 467.002 C 418.410 468.855, 385.942 478.187, 373.500 485.792 C 367.974 489.169, 362.953 494.097, 363.699 495.408 C 364.041 496.009, 363.964 496.178, 363.529 495.785 C 362.615 494.960, 359 496.658, 359 497.912 C 359 498.375, 361.137 498.593, 363.750 498.397 C 367.414 498.121, 367.928 498.241, 366 498.920 C 364.277 499.527, 364.044 499.832, 365.250 499.900 C 367.311 500.018, 367.648 502, 365.607 502 C 364.841 502, 363.964 502.650, 363.660 503.445 C 363.355 504.239, 361.501 505.190, 359.542 505.558 C 355.728 506.274, 354.314 507.458, 356.017 508.510 C 356.594 508.867, 358.739 508.152, 360.783 506.922 C 379.992 495.366, 402.906 486.832, 422.500 483.938 C 426.350 483.369, 431.300 482.598, 433.500 482.225 C 435.700 481.852, 449.650 481.557, 464.500 481.569 C 485.297 481.586, 494.027 481.994, 502.500 483.345 C 519.313 486.025, 527.848 487.905, 535.332 490.577 C 539.090 491.919, 542.647 492.718, 543.237 492.354 C 543.833 491.985, 544.021 492.156, 543.661 492.739 C 542.893 493.982, 547.592 495.370, 549.200 494.376 C 549.831 493.986, 550.030 494.143, 549.661 494.740 C 549.293 495.335, 550.846 496.571, 553.256 497.601 C 555.590 498.599, 558.310 499.765, 559.301 500.194 C 560.412 500.675, 560.868 500.595, 560.492 499.987 C 560.156 499.444, 559.234 499, 558.441 499 C 557.648 499, 557 498.583, 557 498.073 C 557 497.564, 556.212 496.941, 555.250 496.689 C 554 496.363, 553.929 496.200, 555 496.120 C 557.210 495.954, 563.199 499.869, 562.490 501.015 C 562.156 501.557, 562.118 502, 562.406 502 C 562.694 502, 563.406 501.110, 563.988 500.023 C 564.832 498.445, 564.759 498.155, 563.624 498.591 C 562.842 498.891, 561.934 498.703, 561.607 498.173 C 560.527 496.426, 564.114 495.971, 565.786 497.643 C 568.120 499.977, 568.176 501.859, 565.894 501.262 C 561.607 500.141, 564.505 503.208, 572.217 507.954 C 580.259 512.903, 580.474 512.971, 582.314 511.131 C 584.154 509.290, 584.133 509.167, 581.347 505.338 C 573.618 494.715, 557.021 484.357, 536.917 477.608 C 527.418 474.420, 505.006 469.430, 494 468.054 C 482.102 466.566, 450.377 465.961, 438.876 467.002 M 565.056 470.568 C 565.700 471.343, 566.626 471.731, 567.113 471.430 C 567.601 471.129, 568 471.310, 568 471.834 C 568 472.358, 568.762 473.079, 569.694 473.436 C 571.239 474.029, 571.233 473.915, 569.629 472.143 C 567.502 469.793, 563.176 468.303, 565.056 470.568 M 576.882 470.750 C 576.816 471.163, 576.816 471.837, 576.882 472.250 C 577.058 473.367, 574.215 473.157, 573.500 472 C 573.160 471.450, 572.346 471.036, 571.691 471.079 C 570.773 471.140, 570.773 471.269, 571.694 471.644 C 572.350 471.911, 572.640 472.775, 572.337 473.565 C 572.024 474.380, 572.376 475, 573.153 475 C 573.905 475, 575.753 476.143, 577.260 477.540 C 578.767 478.938, 580 479.664, 580 479.155 C 580 478.646, 578.831 477.464, 577.402 476.528 L 574.804 474.826 576.902 473.356 C 578.056 472.548, 579 471.462, 579 470.943 C 579 469.831, 577.055 469.654, 576.882 470.750 M 580 472.882 C 580 473.432, 580.450 474.160, 581 474.500 C 581.550 474.840, 582 474.668, 582 474.118 C 582 473.568, 581.550 472.840, 581 472.500 C 580.450 472.160, 580 472.332, 580 472.882 M 674.606 481.868 C 670.696 482.722, 668.106 486.563, 667.775 492 L 667.500 496.500 708.500 496.793 C 754.807 497.125, 758.008 496.924, 757.984 493.689 C 757.959 490.456, 753.825 483.724, 750.979 482.284 C 749.118 481.342, 739.654 481.055, 713 481.133 C 693.475 481.190, 676.198 481.521, 674.606 481.868 M 391.513 489.021 C 391.797 489.480, 391.089 490.154, 389.939 490.519 C 388.790 490.884, 388.040 491.373, 388.273 491.607 C 388.507 491.840, 390.164 491.414, 391.957 490.660 C 394.879 489.432, 394.998 489.233, 393.107 488.738 C 391.946 488.435, 391.229 488.562, 391.513 489.021 M 383.601 493.164 C 383.856 493.576, 384.725 493.659, 385.532 493.349 C 387.568 492.568, 387.366 492.097, 385.069 492.270 C 384.007 492.350, 383.347 492.752, 383.601 493.164 M 560 492.430 C 560 492.705, 560.900 493.411, 562 494 C 563.100 494.589, 564 494.845, 564 494.570 C 564 494.295, 563.100 493.589, 562 493 C 560.900 492.411, 560 492.155, 560 492.430 M 373.500 494 C 373.160 494.550, 373.359 495, 373.941 495 C 374.523 495, 375 494.550, 375 494 C 375 493.450, 374.802 493, 374.559 493 C 374.316 493, 373.840 493.450, 373.500 494 M 559.500 496 C 559.160 496.550, 559.332 497, 559.882 497 C 560.432 497, 561.160 496.550, 561.500 496 C 561.840 495.450, 561.668 495, 561.118 495 C 560.568 495, 559.840 495.450, 559.500 496 M 368.502 497.645 C 369.807 498.949, 369.879 499.457, 368.853 500.091 C 368.141 500.531, 367.770 501.079, 368.029 501.309 C 368.288 501.539, 369.850 500.854, 371.500 499.788 C 373.599 498.431, 373.860 498.030, 372.368 498.454 C 370.958 498.855, 370.038 498.542, 369.650 497.530 C 369.327 496.688, 368.567 496, 367.960 496 C 367.353 496, 367.598 496.740, 368.502 497.645 M 358.564 501.707 C 358.022 503.132, 358.136 503.247, 359.124 502.267 C 359.808 501.588, 360.115 500.781, 359.807 500.474 C 359.499 500.166, 358.940 500.721, 358.564 501.707 M 353 503.583 C 351.535 504.396, 351.121 504.983, 352 505.001 C 353.224 505.025, 353.250 505.189, 352.143 505.890 C 351.397 506.363, 351.172 506.984, 351.643 507.270 C 352.114 507.556, 353.080 507.162, 353.789 506.395 C 354.499 505.628, 354.781 505, 354.417 505 C 354.053 505, 354.315 504.325, 355 503.500 C 356.460 501.740, 356.310 501.747, 353 503.583 M 680 513.925 C 676.975 514.331, 673.696 515.019, 672.713 515.453 C 670.209 516.559, 668 521.249, 668 525.461 L 668 529.021 712.750 528.760 L 757.500 528.500 757.295 525.627 C 757.062 522.357, 753.633 516.899, 750.567 514.916 C 748.971 513.884, 741.325 513.534, 717 513.382 C 699.675 513.273, 683.025 513.518, 680 513.925 M 380.587 515.859 C 380.295 516.332, 381.208 516.592, 382.616 516.438 C 386.124 516.053, 386.936 515, 383.726 515 C 382.291 515, 380.879 515.387, 380.587 515.859 M 378.010 520.114 C 376.091 521.142, 373.616 521.766, 372.510 521.501 C 371.405 521.235, 371.081 521.283, 371.792 521.606 C 372.724 522.031, 372.787 522.552, 372.016 523.480 C 371.229 524.429, 371.383 524.933, 372.602 525.401 C 373.592 525.781, 374.827 525.326, 375.682 524.267 C 376.986 522.653, 377.018 522.690, 376.052 524.689 C 375.351 526.142, 375.332 527.087, 375.997 527.498 C 376.549 527.839, 377 527.465, 377 526.666 C 377 525.867, 377.775 524.917, 378.722 524.553 C 380.191 523.989, 380.229 523.759, 378.977 522.986 C 377.736 522.219, 377.818 521.846, 379.505 520.568 C 380.602 519.736, 382.086 519.263, 382.802 519.517 C 383.518 519.770, 383.829 519.532, 383.493 518.989 C 382.721 517.739, 382.273 517.831, 378.010 520.114 M 557 519.024 C 557 519.626, 556.550 519.840, 556 519.500 C 555.450 519.160, 555 519.359, 555 519.941 C 555 520.523, 555.900 521, 557 521 C 558.100 521, 559 521.450, 559 522 C 559 522.550, 557.902 523, 556.559 523 C 555.216 523, 553.840 523.450, 553.500 524 C 553.139 524.583, 554.156 525, 555.941 525 C 557.623 525, 559 525.472, 559 526.050 C 559 526.676, 557.373 526.937, 554.968 526.697 C 552.751 526.475, 550.656 526.747, 550.314 527.301 C 549.971 527.856, 550.179 528.007, 550.776 527.638 C 551.373 527.269, 552.144 527.425, 552.490 527.984 C 553.487 529.598, 557.693 529.164, 559.607 527.250 C 560.570 526.288, 561.464 525.725, 561.595 526 C 561.726 526.275, 562.208 526.090, 562.667 525.590 C 563.143 525.069, 563.010 524.960, 562.355 525.334 C 561.725 525.694, 560.930 525.259, 560.588 524.368 C 560.015 522.875, 560.160 522.875, 562.431 524.363 C 563.932 525.347, 565.134 525.593, 565.504 524.993 C 565.839 524.452, 564.962 523.484, 563.556 522.844 C 562.150 522.203, 561 521.317, 561 520.875 C 561 520.432, 560.100 519.589, 559 519 C 557.566 518.233, 557 518.240, 557 519.024 M 543.500 521 C 542.181 521.567, 542.011 521.878, 543 521.914 C 543.825 521.945, 545.175 521.533, 546 521 C 547.828 519.819, 546.249 519.819, 543.500 521 M 297.339 523.605 C 295.846 525.884, 295.767 527.147, 296.710 533.693 C 298.991 549.523, 307.948 560.630, 332.203 577.701 C 354.561 593.438, 390.844 606.144, 432 612.650 C 447.445 615.091, 484.150 615.079, 501.500 612.626 C 529.193 608.711, 556.531 601.290, 572.052 593.474 C 597.347 580.735, 616.743 565.142, 627.238 549.105 C 630.777 543.699, 631.485 541.749, 631.820 536.491 C 632.240 529.895, 631.194 526.709, 628.059 525.031 C 626.375 524.130, 625.714 524.936, 622.133 532.258 C 616.678 543.415, 610.921 550.359, 599.833 559.157 C 577.198 577.117, 555.417 587.361, 534.038 590.103 C 529.067 590.740, 525 591.621, 525 592.060 C 525 592.499, 522.413 593.396, 519.250 594.053 C 513.855 595.175, 503.362 594.881, 495.297 593.382 C 492.271 592.820, 492.105 592.944, 492.297 595.643 L 492.500 598.500 484.151 598.792 C 478.769 598.980, 473.915 598.536, 470.497 597.542 C 467.579 596.694, 464.008 596, 462.561 596 C 460.240 596, 460.056 596.236, 461 598 C 462.177 600.199, 462.057 600.261, 457 600.070 C 450.985 599.843, 443.780 597.878, 436.091 594.367 C 432.017 592.506, 428.425 591.241, 428.110 591.556 C 427.795 591.871, 428.319 593.490, 429.273 595.153 L 431.009 598.177 426.754 597.473 C 424.414 597.086, 420.250 595.878, 417.500 594.790 C 414.750 593.701, 410.262 591.916, 407.527 590.824 C 404.709 589.699, 401.241 589.037, 399.527 589.296 C 395.185 589.951, 384.701 586.503, 376 581.557 C 370.966 578.695, 366.796 577.099, 363.318 576.702 C 357.401 576.026, 353.089 574.005, 341.174 566.318 C 321.841 553.846, 313.400 545.330, 305.421 530.250 C 302.729 525.163, 300.193 521, 299.786 521 C 299.379 521, 298.278 522.172, 297.339 523.605 M 381 521.786 C 381 522.218, 381.867 522.571, 382.927 522.571 C 383.986 522.571, 384.635 522.218, 384.368 521.786 C 384.100 521.354, 383.234 521, 382.441 521 C 381.648 521, 381 521.354, 381 521.786 M 378.667 525.667 C 377.452 526.881, 377.976 527.947, 379.500 527.362 C 380.325 527.045, 381 526.384, 381 525.893 C 381 524.845, 379.622 524.711, 378.667 525.667 M 674.500 545.851 C 670.785 546.655, 666.401 554.479, 667.411 558.503 L 668.038 561 712.550 561 C 762.279 561, 759.832 561.390, 756.501 554.001 C 755.535 551.861, 753.642 549.073, 752.293 547.805 L 749.841 545.500 713.671 545.351 C 693.777 545.268, 676.150 545.493, 674.500 545.851 M 624.137 563.250 C 621.812 572.232, 613.279 583.457, 601.387 593.178 C 593.265 599.818, 575.272 610.250, 566.034 613.675 C 562.441 615.007, 556.257 617.430, 552.292 619.060 C 546.706 621.356, 542.586 622.223, 533.971 622.916 C 527.859 623.407, 522.589 624.077, 522.262 624.405 C 521.935 624.732, 522.304 625.029, 523.083 625.063 C 523.862 625.098, 523.375 625.613, 522 626.206 C 520.625 626.800, 512.781 627.471, 504.570 627.698 C 493.794 627.996, 489.342 628.480, 488.570 629.436 C 486.945 631.447, 482.545 632.126, 477.781 631.101 C 475.427 630.595, 470.619 629.863, 467.099 629.474 C 461.446 628.851, 460.770 628.958, 461.317 630.384 C 461.851 631.774, 460.998 631.998, 455.219 631.983 C 449.819 631.970, 446.832 631.272, 440 628.427 C 427.071 623.044, 426 622.783, 426 625.011 C 426 626.040, 426.450 627.160, 427 627.500 C 427.550 627.840, 428 628.581, 428 629.147 C 428 630.771, 420.462 629.150, 411 625.492 C 405.480 623.358, 400.747 622.204, 397.500 622.200 C 394.197 622.195, 389.107 620.928, 382.500 618.465 C 377 616.415, 368.708 613.452, 364.072 611.880 C 349.570 606.964, 327.020 593.096, 317.032 582.952 C 313.685 579.552, 309.864 574.267, 307.891 570.306 C 304.018 562.533, 301.284 561.111, 298.470 565.406 C 296.249 568.795, 297.207 574.147, 301.609 582.945 C 307.926 595.571, 325.784 609.841, 350.500 622.010 C 365.750 629.519, 378.863 634.018, 401.615 639.549 C 431.054 646.706, 436.614 647.433, 461.500 647.379 C 506.293 647.282, 551.553 637.929, 582.081 622.459 C 591.784 617.542, 608.643 605.561, 616.358 598.100 C 626.681 588.115, 631 579.761, 631 569.778 C 631 564.333, 630.607 562.607, 629 561 C 626.127 558.127, 625.373 558.475, 624.137 563.250 M 174.500 566.268 C 173.333 566.936, 165.985 567.583, 156.852 567.823 L 141.203 568.234 140.602 571.242 C 139.372 577.388, 139.889 582.835, 141.750 583.342 C 144.239 584.020, 170.972 584.097, 174.151 583.436 C 176.676 582.911, 176.836 582.501, 177.513 574.854 C 178.276 566.238, 177.653 564.465, 174.500 566.268 M 673.223 577.642 C 671.051 578.565, 667.866 585.959, 668.192 589.324 L 668.500 592.500 707.500 592.798 C 751.809 593.136, 757 592.830, 757 589.878 C 757 587.130, 754.687 582.965, 751.516 580 L 748.841 577.500 711.671 577.300 C 691.227 577.190, 673.925 577.344, 673.223 577.642 M 624.575 593.063 C 621.009 603.188, 619.077 607.028, 614.897 612.294 C 604.233 625.726, 586.594 637.801, 563.500 647.478 C 549.487 653.350, 544.232 654.835, 535.230 655.469 C 531.231 655.750, 526.956 656.635, 525.730 657.436 C 522.232 659.718, 510.371 661.217, 501.750 660.467 C 494.173 659.807, 494 659.842, 494 662.049 C 494 664.297, 493.955 664.303, 482.750 663.648 C 476.563 663.286, 469.567 662.705, 467.204 662.357 C 463.834 661.861, 462.972 662.024, 463.204 663.112 C 463.438 664.210, 461.932 664.465, 455.984 664.331 C 449.159 664.178, 447.662 663.741, 439.709 659.581 C 431.577 655.327, 426.995 653.946, 427.004 655.750 C 427.006 656.163, 427.940 658.030, 429.081 659.900 L 431.154 663.301 425.079 662.666 C 420.913 662.231, 416.787 660.869, 411.942 658.331 C 405.893 655.162, 403.828 654.600, 397.567 654.419 C 393.546 654.303, 389.411 653.756, 388.378 653.205 C 387.345 652.653, 379.383 649.672, 370.685 646.579 C 361.987 643.487, 351.412 639.204, 347.185 637.061 C 328.971 627.829, 312.268 613.390, 306.423 601.824 C 304.568 598.153, 302.625 594.886, 302.105 594.565 C 301.585 594.244, 300.178 595.223, 298.978 596.740 C 297.156 599.044, 296.892 600.324, 297.379 604.491 C 298.841 616.987, 309.596 630.690, 326.961 642.178 C 341.559 651.837, 364.941 663.107, 379.500 667.501 C 401.210 674.054, 438.133 680.523, 456.413 680.977 C 456.963 680.991, 457.078 722.980, 456.702 786.332 C 456.011 902.721, 455.596 894.721, 462.442 896.981 C 466.316 898.259, 469.912 896.964, 473.502 892.998 C 475.469 890.825, 475.504 889.156, 475.764 785.895 L 476.027 681 482.629 681 L 489.231 681 488.865 786.293 C 488.518 886.413, 488.589 891.722, 490.303 894.339 C 494.017 900.009, 500.323 900.130, 504.439 894.611 C 506.496 891.854, 506.499 891.630, 506.119 785.443 C 505.797 695.562, 505.952 678.970, 507.119 678.602 C 507.878 678.362, 511.136 677.931, 514.357 677.644 L 520.214 677.122 519.857 783.988 L 519.500 890.853 521.600 893.676 C 525.233 898.561, 531.328 898.059, 535.546 892.528 L 538.183 889.072 537.878 790.786 C 537.711 736.729, 537.557 687.837, 537.537 682.139 L 537.500 671.777 545 669.875 C 561.045 665.806, 583.115 655.838, 598.347 645.780 C 618.900 632.209, 630.447 616.967, 630.483 603.361 C 630.498 597.822, 630.169 596.719, 627.790 594.338 C 625.718 592.264, 624.962 591.964, 624.575 593.063 M 188.500 594.052 C 186.300 594.504, 170.775 595.153, 154 595.496 L 123.500 596.118 123.563 598.559 C 123.597 599.902, 123.709 602.800, 123.813 605 L 124 609 129.952 609 L 135.905 609 136.202 615.250 C 136.464 620.734, 136.745 621.500, 138.500 621.500 C 140.167 621.500, 140.583 620.667, 141 616.500 L 141.500 611.500 154.500 610.873 C 161.650 610.528, 170.480 610.474, 174.123 610.754 L 180.746 611.264 181.285 617.211 C 181.582 620.482, 182.097 623.430, 182.429 623.762 C 183.899 625.232, 185.438 621.478, 185.819 615.497 L 186.233 609 192.116 609 L 198 609 197.986 603.250 C 197.961 592.640, 197.509 592.201, 188.500 594.052 M 128.776 631.773 L 123.053 632.098 123.610 649.799 C 123.917 659.535, 124.297 667.950, 124.455 668.500 C 124.620 669.075, 127.337 669.357, 130.848 669.162 L 136.954 668.825 137.227 651.770 C 137.464 636.985, 137.726 634.573, 139.202 633.643 C 140.138 633.053, 141.263 632.929, 141.702 633.367 C 142.141 633.804, 142.650 642.001, 142.833 651.581 L 143.165 669 149.353 669 L 155.540 669 155.520 653.750 C 155.501 639.134, 156.366 631.531, 157.819 633.552 C 158.193 634.073, 159.380 634.500, 160.455 634.500 C 163.281 634.500, 164.144 639.968, 163.794 655.635 L 163.500 668.771 169.397 669.385 C 172.640 669.723, 177.230 670, 179.597 670 L 183.900 670 184.261 675.750 L 184.622 681.500 184.811 675.750 L 185 670 191.500 670 L 198 670 197.986 652.750 C 197.979 643.263, 197.704 634.497, 197.375 633.270 L 196.777 631.041 165.639 631.244 C 148.512 631.357, 131.924 631.594, 128.776 631.773 M 177.586 647.374 C 176.793 658.171, 177.749 668.911, 179.162 665.091 C 179.844 663.248, 180.514 662.912, 182.507 663.412 L 185 664.038 185 652.953 C 185 640.875, 184.155 638, 180.602 638 C 178.379 638, 178.243 638.424, 177.586 647.374 M 130.750 682.743 L 123 683.084 123 690.497 L 123 697.909 126.250 698.383 C 141.301 700.576, 149.236 700.963, 159 699.982 C 164.775 699.402, 174.717 699.222, 181.093 699.583 C 196.553 700.457, 197 700.205, 197 690.609 L 197 683.289 190.250 682.652 C 183.590 682.023, 145.814 682.081, 130.750 682.743 M 358 698.425 C 348.204 701.856, 343.962 704.353, 338.899 709.669 C 332.464 716.426, 329.460 720.712, 326.555 727.281 L 324.043 732.959 326.666 734.333 C 329.277 735.701, 329.268 735.710, 324.604 736.235 C 318.799 736.890, 316.521 738.872, 315.103 744.504 C 313.538 750.719, 313.682 751.534, 316.577 752.853 C 319.696 754.274, 319.570 755.158, 313.842 772 C 311.691 778.325, 308.545 789.350, 306.850 796.500 C 305.155 803.650, 303.190 810.175, 302.483 811 C 300.742 813.033, 299.012 819.661, 299.006 824.324 C 299 827.816, 299.337 828.292, 302.875 829.803 L 306.750 831.458 306.276 839.479 C 305.813 847.307, 305.901 847.697, 309.944 855.713 C 318.791 873.251, 336.355 885.977, 356.500 889.444 C 388.098 894.884, 410.877 884.883, 425.034 859.357 L 430.500 849.500 430.811 819 C 431.241 776.750, 429.750 743.590, 427.025 734.794 C 424.623 727.043, 416.644 714.556, 411.046 709.787 C 396.389 697.303, 374.557 692.626, 358 698.425 M 153.500 702.944 L 143.500 703.500 142.306 707 C 141.650 708.925, 141.087 712.252, 141.056 714.392 L 141 718.285 147.147 717.642 C 150.527 717.289, 158.627 717, 165.147 717 L 177 717 177 712.625 C 177 710.219, 176.719 706.844, 176.375 705.125 C 175.669 701.596, 176.427 701.668, 153.500 702.944 M 361.250 728.413 C 358.363 729.785, 355.998 731.266, 355.995 731.704 C 355.993 732.142, 354.366 734.269, 352.381 736.430 C 348.962 740.153, 348.870 740.429, 350.636 741.677 C 356.312 745.687, 357.246 747.276, 356.688 751.965 C 355.842 759.068, 354.396 762, 351.739 762 C 349.666 762, 349.150 763.006, 346.736 771.750 C 345.255 777.112, 342.721 787.350, 341.105 794.500 C 339.488 801.650, 337.454 809.173, 336.583 811.218 C 334.368 816.420, 334.568 817.398, 338.119 818.739 C 341.062 819.850, 341.199 820.130, 340.544 823.708 C 339.341 830.274, 336.890 833.459, 332.775 833.806 L 329.149 834.112 330.671 837.806 C 334.968 848.232, 345.327 857.389, 356.394 860.545 C 365.385 863.109, 378.826 862.227, 385.856 858.613 C 392.374 855.261, 399.059 848.576, 402.032 842.433 L 404.243 837.866 403.039 792.183 C 402.377 767.057, 401.400 745.075, 400.868 743.334 C 399.460 738.725, 392.989 731.854, 387.377 729.007 C 380.042 725.287, 368.387 725.022, 361.250 728.413 M 331.200 734.200 C 330.540 734.860, 330 735.779, 330 736.242 C 330 737.158, 341.784 742.998, 343.633 742.999 C 344.964 743, 346.088 739.394, 345.354 737.481 C 344.049 734.079, 333.716 731.684, 331.200 734.200 M 330 755.866 C 330 756.915, 328.882 761.537, 327.515 766.137 C 326.148 770.737, 323.436 780.800, 321.489 788.500 C 318.234 801.370, 315.546 810.887, 314.405 813.578 C 313.852 814.883, 318.199 817, 321.433 817 C 323.564 817, 324.048 815.997, 326.860 805.750 C 331.387 789.254, 339.073 758.733, 338.765 758.472 C 338.619 758.347, 336.587 757.281, 334.250 756.103 C 330.152 754.036, 330 754.027, 330 755.866 M 404.409 841.250 C 400.127 849.725, 395.380 854.522, 387.044 858.796 C 379.050 862.895, 378.940 862.999, 382.672 862.978 C 390.900 862.931, 401.541 855.299, 405.647 846.500 C 408.117 841.208, 408.637 838, 407.026 838 C 406.490 838, 405.312 839.462, 404.409 841.250" stroke="none" fill="#000000" fill-rule="evenodd"/>
</svg>