<svg xmlns="http://www.w3.org/2000/svg" width="1024" height="1024" viewBox="0 0 1024 1024" version="1.1">
	<path d="M 295.123 237.969 C 290.271 239.162, 286.500 242.284, 286.500 245.108 C 286.500 249.144, 291.788 250.997, 303.313 250.998 C 312.059 251, 313.106 251.190, 312.948 252.750 C 312.850 253.713, 312.821 255.850, 312.883 257.500 C 312.996 260.478, 313.036 260.498, 318.249 260.201 C 321.137 260.037, 331.375 259.587, 341 259.201 L 358.500 258.500 358.813 255.250 L 359.127 252 504.563 252 L 650 252 650 255.500 L 650 259 668.860 259 C 679.234 259, 689.859 259.293, 692.473 259.651 L 697.225 260.303 696.863 255.855 L 696.500 251.407 702.220 251.822 C 705.366 252.050, 709.977 251.931, 712.465 251.557 C 717.107 250.861, 723 246.914, 723 244.500 C 723 243.773, 721.020 242.220, 718.600 241.048 L 714.200 238.919 508.850 238.549 C 395.908 238.346, 302.375 237.946, 301 237.660 C 299.625 237.374, 296.980 237.513, 295.123 237.969 M 362 269.988 C 345.225 270.402, 324.075 270.517, 315 270.244 L 298.500 269.747 293.500 273.212 C 290.750 275.118, 287.150 278.589, 285.500 280.926 L 282.500 285.175 282.500 308.002 L 282.500 330.830 285.500 335.088 C 287.150 337.430, 290.483 340.394, 292.907 341.673 L 297.315 344 504.223 344 C 654.778 344, 711.726 343.695, 713.316 342.882 C 716.566 341.218, 722.934 334.918, 724.821 331.500 C 727.341 326.933, 727.888 289.614, 725.526 283.428 C 723.740 278.753, 718.508 273.521, 713.573 271.477 C 711.139 270.469, 681.585 270.184, 571.500 270.107 C 495.050 270.054, 423.500 269.836, 412.500 269.623 C 401.500 269.410, 378.775 269.574, 362 269.988 M 440.635 286.073 L 438 288.145 438 307.500 L 438 326.855 440.618 328.914 C 443.265 330.996, 444.090 330.907, 447.250 328.193 C 448.801 326.861, 449 324.560, 449 307.980 C 449 290.566, 448.856 289.087, 446.927 286.635 C 444.430 283.460, 444.004 283.422, 440.635 286.073 M 464.073 286.635 C 462.149 289.081, 462 290.572, 462 307.412 C 462 327.084, 462.697 330, 467.402 330 C 472.489 330, 473 327.931, 473 307.346 C 473 288.781, 472.947 288.299, 470.686 286.174 C 467.687 283.357, 466.591 283.434, 464.073 286.635 M 559.922 286.924 L 557 289.846 557 306.973 C 557 324.834, 557.808 328.945, 561.604 330.402 C 563.747 331.224, 567.981 328.487, 568.061 326.227 C 568.436 315.695, 567.673 288.257, 566.969 286.941 C 565.316 283.853, 562.999 283.847, 559.922 286.924 M 584.455 286.455 C 582.020 288.889, 582 289.067, 582 307.955 C 582 325.667, 582.140 327.140, 584 329 C 586.500 331.500, 587.103 331.493, 590.365 328.927 L 593 326.855 593 308.062 C 593 290.565, 592.857 289.088, 590.927 286.635 C 588.367 283.380, 587.552 283.357, 584.455 286.455 M 609.750 285.611 C 607.999 286.536, 607.007 287.869, 607.019 289.282 C 607.030 290.502, 606.841 299.216, 606.599 308.647 C 606.189 324.632, 606.292 325.937, 608.119 327.897 C 610.286 330.223, 613.947 330.653, 615.800 328.800 C 616.652 327.948, 617 321.905, 617 307.974 C 617 288.909, 616.936 288.289, 614.750 286.253 C 612.687 284.332, 612.271 284.278, 609.750 285.611 M 367.635 287.073 L 365 289.145 365 307.918 C 365 324.834, 365.181 326.854, 366.829 328.345 C 369.258 330.543, 372.293 330.438, 374.425 328.083 C 375.977 326.368, 376.113 324.218, 375.709 307.757 C 375.149 284.973, 374.011 282.057, 367.635 287.073 M 390.655 286.829 C 388.265 289.469, 388.181 324.386, 390.557 327.777 C 392.445 330.473, 396.095 330.658, 398.345 328.171 C 400.735 325.531, 400.819 290.614, 398.443 287.223 C 396.555 284.527, 392.905 284.342, 390.655 286.829 M 414.557 287.223 C 413.291 289.030, 413 292.738, 413 307.088 C 413 323.422, 413.154 324.926, 415.073 327.365 C 417.499 330.450, 420.029 330.730, 422.345 328.171 C 423.763 326.605, 424 323.618, 424 307.326 C 424 290.174, 423.821 288.148, 422.171 286.655 C 419.625 284.350, 416.400 284.591, 414.557 287.223 M 487.872 286.651 C 486.848 287.884, 486.416 292.969, 486.170 306.704 C 485.890 322.287, 486.085 325.481, 487.443 327.553 C 489.304 330.394, 494.016 330.891, 496.033 328.460 C 497.965 326.133, 497.429 290.346, 495.416 287.250 C 493.691 284.595, 489.836 284.289, 487.872 286.651 M 535 287 C 533.146 288.854, 533 290.333, 533 307.277 C 533 327.094, 533.691 330, 538.402 330 C 543.453 330, 544 327.864, 544 308.136 C 544 293.060, 543.722 289.506, 542.385 287.465 C 540.430 284.481, 537.692 284.308, 535 287 M 632.683 286.798 C 631.310 288.315, 631.040 291.531, 630.954 307.388 C 630.866 323.883, 631.065 326.414, 632.582 328.090 C 634.766 330.504, 638.202 330.540, 640.345 328.171 C 641.756 326.612, 642 323.686, 642 308.306 C 642 291.573, 641.850 290.079, 639.927 287.635 C 637.510 284.562, 634.972 284.269, 632.683 286.798 M 511.233 288.250 C 510.676 288.938, 509.905 297.150, 509.519 306.500 L 508.817 323.500 511.807 326.340 C 514.719 329.106, 514.864 329.135, 517.398 327.475 L 520 325.770 520 307.585 C 520 294.774, 519.645 289.045, 518.800 288.200 C 517.228 286.628, 512.521 286.659, 511.233 288.250 M 319.400 299.400 C 316.775 302.025, 316 303.632, 316 306.450 C 316 317.659, 327.203 322.643, 334.961 314.885 C 337.489 312.357, 338 311.051, 338 307.119 C 338 303.085, 337.517 301.924, 334.702 299.196 C 332.032 296.608, 330.587 296, 327.102 296 C 323.543 296, 322.213 296.587, 319.400 299.400 M 678.418 296.922 C 675.161 298.313, 671 303.878, 671 306.845 C 671 314.190, 680.399 320.840, 686.580 317.868 C 690.981 315.752, 694.277 310.213, 693.612 306.050 C 692.546 299.374, 684.291 294.415, 678.418 296.922 M 319.500 360 C 296.760 360.494, 296.455 360.530, 292.500 363.120 C 282.826 369.458, 282 372.103, 282 396.756 C 282 415.322, 282.142 416.859, 284.250 421.038 C 285.704 423.922, 288.220 426.649, 291.363 428.750 L 296.226 432 503.663 432 C 733.214 432, 713.497 432.575, 720.777 425.665 C 725.900 420.803, 727.001 415.387, 726.994 395.068 C 726.988 375.460, 726.273 371.520, 721.797 366.422 C 715.421 359.159, 732.905 359.771, 527.565 359.628 C 425.779 359.558, 332.150 359.725, 319.500 360 M 416.174 374.314 C 414.095 376.528, 414 377.482, 414 396.192 C 414 410.660, 414.326 416.007, 415.250 416.722 C 417.848 418.732, 419.965 418.849, 422.122 417.102 C 424.288 415.348, 424.340 414.819, 424.227 395.543 C 424.127 378.402, 423.885 375.530, 422.401 373.891 C 420.160 371.414, 418.813 371.506, 416.174 374.314 M 440.669 374.046 L 438 376.145 438 395.418 C 438 412.818, 438.178 414.851, 439.829 416.345 C 442.106 418.406, 446.349 418.489, 447.997 416.504 C 448.901 415.415, 449.198 409.908, 449.090 396.254 C 448.961 379.997, 448.704 377.176, 447.160 375.063 C 444.738 371.750, 443.779 371.600, 440.669 374.046 M 464.924 374.578 C 462.566 377.086, 462.492 377.657, 462.187 395.680 C 461.917 411.678, 462.096 414.449, 463.502 416.002 C 465.792 418.533, 468.524 419.022, 470.935 417.333 C 472.903 415.954, 473 414.959, 473 396.118 C 473 376.746, 472.953 376.305, 470.686 374.174 C 467.801 371.465, 467.856 371.461, 464.924 374.578 M 489.189 374.039 C 487.123 375.963, 486.989 377.019, 486.800 392.789 C 486.691 401.980, 486.654 410.830, 486.720 412.455 C 486.851 415.698, 489.241 418.008, 492.441 417.985 C 497.356 417.948, 497.459 417.473, 497.139 396.305 C 496.858 377.812, 496.700 376.351, 494.745 374.250 C 492.184 371.498, 491.926 371.488, 489.189 374.039 M 559.861 373.910 C 557.554 375.776, 557.493 376.251, 557.175 394.680 C 556.864 412.714, 556.944 413.659, 558.998 416.270 C 561.478 419.423, 564.008 419.754, 566.296 417.225 C 567.641 415.740, 567.929 412.333, 568.064 396.361 C 568.203 379.785, 567.997 376.925, 566.497 374.636 C 564.444 371.502, 563.028 371.347, 559.861 373.910 M 584.635 374.073 L 582 376.145 582 395.418 C 582 412.818, 582.178 414.851, 583.829 416.345 C 585.968 418.281, 590.084 418.516, 591.800 416.800 C 592.652 415.948, 593 409.905, 593 395.974 C 593 376.753, 592.952 376.304, 590.686 374.174 C 587.856 371.516, 587.885 371.516, 584.635 374.073 M 609.635 374.073 L 607 376.145 607 396.047 L 607 415.949 610.009 417.505 C 613.383 419.250, 616.483 418.302, 617.379 415.251 C 617.662 414.288, 617.761 405.313, 617.600 395.307 C 617.357 380.318, 617.010 376.664, 615.630 374.557 C 613.602 371.463, 613.013 371.415, 609.635 374.073 M 367.607 375.095 L 365 377.145 365 396.034 C 365 414.177, 365.086 415.003, 367.189 416.961 C 369.816 419.409, 370.862 419.485, 373.777 417.443 C 375.938 415.930, 376 415.371, 376 397.378 C 376 386.674, 375.569 378.062, 374.977 376.957 C 373.117 373.482, 370.498 372.820, 367.607 375.095 M 391 375 C 389.142 376.858, 389 378.333, 389 395.826 L 389 414.651 391.554 417.051 C 393.948 419.300, 394.277 419.355, 396.804 417.937 L 399.500 416.425 399.772 396.565 C 400.010 379.141, 399.838 376.478, 398.367 374.853 C 396.190 372.447, 393.499 372.501, 391 375 M 535.223 374.557 C 533.053 376.076, 533 376.587, 533 395.902 C 533 413.802, 533.174 415.848, 534.829 417.345 C 537.228 419.516, 540.287 419.445, 542.345 417.171 C 544.737 414.528, 544.821 378.617, 542.443 375.223 C 540.614 372.611, 538.304 372.398, 535.223 374.557 M 633 375 C 631.141 376.859, 631 378.333, 631 395.927 L 631 414.855 633.635 416.927 C 636.851 419.457, 637.198 419.470, 640.042 417.167 C 642.264 415.368, 642.302 414.984, 642.096 396.417 C 641.933 381.761, 641.556 376.993, 640.420 375.250 C 638.605 372.465, 635.635 372.365, 633 375 M 511.621 376.250 C 509.769 379.175, 508.352 408.246, 509.869 412.189 C 510.439 413.668, 511.868 415.394, 513.046 416.025 C 514.839 416.984, 515.582 416.802, 517.594 414.911 C 519.959 412.690, 520 412.352, 520 394.981 C 520 379.132, 519.811 377.139, 518.171 375.655 C 515.648 373.372, 513.309 373.584, 511.621 376.250 M 321.314 385.950 C 317.264 388.420, 316 390.818, 316 396.034 C 316 401.725, 321.027 407, 326.450 407 C 331.271 407, 335.611 404.652, 337.483 401.033 C 339.391 397.343, 339.401 394.676, 337.520 391.039 C 334.047 384.322, 327.404 382.237, 321.314 385.950 M 673.882 388.882 C 671.674 391.091, 670 393.734, 670 395.014 C 670 398.554, 673.693 403.627, 677.632 405.495 C 682.331 407.725, 686.520 406.858, 690.723 402.784 C 695.372 398.278, 695.328 393.128, 690.600 388.400 C 687.694 385.494, 686.514 385, 682.482 385 C 678.336 385, 677.295 385.470, 673.882 388.882 M 311 448 C 295.360 448.539, 292.913 449.243, 287.843 454.661 C 282.655 460.205, 282 463.542, 282.006 484.372 C 282.009 494.892, 282.470 505.150, 283.030 507.168 C 284.088 510.976, 288.766 515.793, 294.072 518.537 C 296.814 519.955, 317.692 520.106, 504.601 520.054 C 706.685 519.998, 712.182 519.947, 715.793 518.090 C 720.848 515.490, 724.436 511.306, 725.832 506.384 C 726.543 503.880, 726.996 494.676, 726.990 482.884 C 726.981 464.500, 726.856 463.232, 724.566 458.314 C 722.894 454.723, 720.844 452.264, 717.898 450.314 L 713.644 447.500 519.572 447.500 C 412.832 447.500, 318.975 447.725, 311 448 M 416.263 462.448 L 413.500 464.823 413.186 482.989 C 412.922 498.264, 413.125 501.541, 414.459 503.578 C 416.148 506.155, 418.903 506.657, 422.066 504.965 C 423.877 503.996, 424 502.685, 424 484.399 C 424 473.657, 423.563 464.051, 423.028 463.052 C 421.452 460.108, 419.219 459.908, 416.263 462.448 M 440.189 462.039 C 438.079 464.005, 438 464.793, 438 484.016 L 438 503.954 440.592 505.652 C 442.988 507.222, 443.387 507.229, 445.842 505.740 L 448.500 504.128 448.771 484.725 C 449.027 466.330, 448.933 465.184, 446.948 462.661 C 444.435 459.467, 443.083 459.342, 440.189 462.039 M 465.235 461.996 C 462.270 464.758, 461.867 468.075, 462.205 486.894 L 462.500 503.287 465.193 505.296 C 467.744 507.200, 468.020 507.217, 470.443 505.629 L 473 503.954 473 484.151 C 473 464.745, 472.954 464.305, 470.686 462.174 C 467.865 459.524, 467.887 459.525, 465.235 461.996 M 488.843 461.924 C 486.555 463.775, 486.493 464.268, 486.188 483.013 C 485.912 500.022, 486.072 502.422, 487.593 504.103 C 489.564 506.281, 494.242 506.618, 495.837 504.696 C 496.988 503.310, 496.689 464.924, 495.513 463.020 C 493.940 460.476, 491.191 460.024, 488.843 461.924 M 560 461.963 C 557.513 463.872, 557.498 463.982, 557.187 482.521 C 556.845 502.902, 557.529 506, 562.368 506 C 567.492 506, 568 503.956, 568 483.346 C 568 464.781, 567.947 464.299, 565.686 462.174 C 562.908 459.565, 563.114 459.573, 560 461.963 M 584.493 462.416 C 582.010 464.899, 582 464.986, 582 483.955 C 582 501.667, 582.140 503.140, 584 505 C 586.407 507.407, 587.840 507.501, 590.777 505.443 C 592.942 503.927, 593 503.387, 593 484.878 C 593 465.437, 592.574 462.913, 588.970 460.984 C 587.354 460.119, 586.524 460.385, 584.493 462.416 M 609.223 462.263 C 607.220 464.394, 607.088 465.641, 606.935 483.774 C 606.820 497.517, 607.118 503.437, 607.977 504.472 C 610.009 506.920, 612.984 507.324, 615.072 505.435 C 616.851 503.825, 617 502.177, 617 484.068 C 617 467.926, 616.724 464.051, 615.443 462.223 C 613.470 459.405, 611.898 459.415, 609.223 462.263 M 367.565 463.250 L 365.018 465.500 364.926 483.830 C 364.845 499.916, 365.047 502.394, 366.572 504.080 C 368.580 506.299, 371.737 506.516, 374.250 504.608 C 375.808 503.425, 376 501.204, 376 484.328 C 376 466.639, 375.864 465.231, 373.961 463.189 C 371.411 460.451, 370.725 460.458, 367.565 463.250 M 390.557 463.223 C 389.285 465.038, 389 468.805, 389 483.788 C 389 494.520, 389.430 502.934, 390.035 504.066 C 391.368 506.556, 396.132 506.616, 398.345 504.171 C 399.759 502.609, 400 499.657, 400 483.894 C 400 463.799, 399.328 461, 394.500 461 C 393.167 461, 391.426 461.982, 390.557 463.223 M 534.698 462.781 C 533.223 464.411, 533 467.219, 533 484.174 C 533 501.811, 533.176 503.849, 534.829 505.345 C 537.326 507.605, 539.254 507.423, 541.826 504.686 C 543.893 502.485, 543.999 501.485, 543.985 484.436 C 543.975 472.041, 543.582 465.728, 542.712 464 C 541.123 460.844, 537.017 460.219, 534.698 462.781 M 632.655 462.829 C 631.237 464.395, 631 467.382, 631 483.674 C 631 500.545, 631.197 502.860, 632.750 504.193 C 635.565 506.611, 637.626 506.950, 639.885 505.368 C 641.914 503.947, 642 503.101, 642 484.666 C 642 468.888, 641.721 465.047, 640.443 463.223 C 638.555 460.527, 634.905 460.342, 632.655 462.829 M 512.412 463.440 C 510.217 465.046, 509.124 473.715, 509.051 490.095 C 509.007 500.099, 509.251 501.917, 510.829 503.345 C 513.228 505.516, 516.287 505.445, 518.345 503.171 C 519.752 501.616, 520 498.725, 520 483.862 C 520 465.935, 519.623 464.013, 515.847 462.708 C 514.938 462.394, 513.392 462.724, 512.412 463.440 M 323.500 473.389 C 321.850 474.135, 319.383 475.955, 318.019 477.433 C 313.295 482.551, 315.999 492.100, 322.992 494.997 C 325.564 496.062, 326.739 495.990, 330.560 494.530 C 337.640 491.826, 340.436 485.829, 337.501 479.643 C 334.666 473.670, 328.738 471.021, 323.500 473.389 M 675.973 474.690 C 666.302 481.298, 670.886 495, 682.767 495 C 686.628 495, 687.740 494.495, 690.632 491.429 C 695.448 486.322, 695.298 482.062, 690.118 476.882 C 686.937 473.702, 685.531 473, 682.340 473 C 680.198 473, 677.332 473.760, 675.973 474.690 M 297.748 537.438 C 291.652 539.595, 286.958 543.849, 284.323 549.606 C 281.952 554.785, 281.895 555.480, 282.194 575.794 L 282.500 596.662 285.308 600.340 C 286.852 602.363, 289.898 604.928, 292.076 606.039 C 296.009 608.045, 297.424 608.059, 504.430 608.165 L 712.824 608.272 716.162 606.182 C 726.280 599.846, 727.302 596.332, 726.833 569.500 C 726.442 547.172, 725.626 544.554, 717.488 539.500 L 712.657 536.500 507.079 536.305 C 338.395 536.146, 300.827 536.349, 297.748 537.438 M 440.586 550.250 C 438.070 552.492, 438.060 552.566, 437.874 571.248 C 437.706 588.101, 437.870 590.199, 439.499 591.998 C 441.574 594.291, 444.708 594.538, 447.250 592.608 C 448.811 591.423, 449 589.180, 449 571.814 C 449 552.760, 448.951 552.303, 446.686 550.174 C 443.822 547.484, 443.688 547.486, 440.586 550.250 M 464.861 549.910 C 462.524 551.801, 462.500 552.022, 462.500 571.550 L 462.500 591.279 465.193 593.292 C 467.723 595.184, 468.036 595.206, 470.381 593.670 C 472.873 592.037, 472.876 592.013, 473.205 573.268 C 473.510 555.863, 473.387 554.264, 471.517 551.257 C 469.181 547.501, 468.107 547.284, 464.861 549.910 M 489.107 550.386 C 487.003 552.626, 486.830 553.903, 486.284 571.209 C 485.705 589.592, 485.710 589.652, 488.040 591.823 C 489.326 593.020, 491.362 594, 492.566 594 C 496.879 594, 497.244 592.194, 497.064 571.764 C 496.904 553.650, 496.769 552.383, 494.773 550.258 C 492.132 547.447, 491.862 547.453, 489.107 550.386 M 559.924 550.578 C 557.567 553.085, 557.491 553.663, 557.188 571.562 L 556.877 589.968 559.393 592.484 C 562.378 595.469, 563.118 595.556, 565.855 593.250 C 567.810 591.602, 567.942 590.384, 568.117 572.445 C 568.280 555.717, 568.087 553.062, 566.536 550.695 C 564.333 547.333, 562.998 547.309, 559.924 550.578 M 584.152 550.338 C 582.025 552.602, 581.964 553.288, 582.228 571.981 L 582.500 591.286 585.193 593.296 C 587.744 595.200, 588.020 595.217, 590.443 593.629 L 593 591.954 593 572.881 C 593 556.658, 592.744 553.375, 591.284 550.904 C 589.209 547.391, 587.080 547.222, 584.152 550.338 M 609.543 550.145 L 606.958 552.178 607.229 571.732 L 607.500 591.286 610.238 593.329 L 612.975 595.372 615.488 593.012 C 617.989 590.662, 618 590.574, 618 572.776 C 618 559.044, 617.661 554.245, 616.537 552.072 C 614.561 548.251, 612.628 547.718, 609.543 550.145 M 367 551 C 365.900 552.100, 364.992 554.013, 364.981 555.250 C 364.704 588.781, 364.759 590.076, 366.542 592.046 C 368.746 594.482, 372.184 594.559, 374.301 592.220 C 375.682 590.694, 375.877 587.749, 375.667 571.601 C 375.429 553.237, 375.364 552.713, 373.101 550.880 C 370.179 548.514, 369.472 548.528, 367 551 M 390.655 550.829 C 389.236 552.397, 389 555.393, 389 571.829 C 389 589.667, 389.139 591.139, 391 593 C 393.500 595.500, 394.103 595.493, 397.365 592.927 L 400 590.855 400 572.150 C 400 556.839, 399.718 553.042, 398.443 551.223 C 396.555 548.527, 392.905 548.342, 390.655 550.829 M 416.400 549.765 C 413.547 551.670, 413 555.370, 413 572.760 L 413 590.651 415.554 593.051 C 417.947 595.299, 418.277 595.355, 420.804 593.939 L 423.500 592.428 424 573.964 C 424.558 553.357, 423.823 548.989, 419.801 549.015 C 418.535 549.024, 417.005 549.361, 416.400 549.765 M 535 551 C 533.138 552.862, 533 554.333, 533 572.345 C 533 589.816, 533.177 591.850, 534.829 593.345 C 537.111 595.411, 538.932 595.436, 541.777 593.443 C 543.943 591.926, 544 591.396, 544 572.632 C 544 554.637, 543.867 553.234, 541.961 551.189 C 539.431 548.472, 537.578 548.422, 535 551 M 633.441 550.418 C 631.657 551.721, 631.475 553.384, 631.188 571.021 C 630.912 588.022, 631.072 590.422, 632.593 592.103 C 634.708 594.440, 639.282 594.571, 641.128 592.346 C 643.227 589.817, 642.458 553.217, 640.254 550.750 C 638.360 548.631, 636.042 548.518, 633.441 550.418 M 511 552 C 509.148 553.852, 509 555.333, 509 571.977 C 509 589.953, 509 589.954, 511.451 591.560 C 514.235 593.384, 517.468 592.768, 518.520 590.212 C 518.908 589.270, 519.460 581.015, 519.748 571.867 C 520.225 556.668, 520.107 555.011, 518.385 552.648 C 516.110 549.528, 513.685 549.315, 511 552 M 322.500 561.167 C 313.700 566.034, 312.862 574.813, 320.615 580.912 C 327.602 586.408, 339 580.544, 339 571.454 C 339 563.559, 329.211 557.455, 322.500 561.167 M 673.533 564.533 C 671.219 566.848, 670.001 569.004, 670.004 570.783 C 670.013 577.452, 677.853 583.813, 684.521 582.562 C 688.703 581.778, 694.001 575.991, 693.996 572.215 C 693.991 568.520, 690.558 563.163, 687.434 561.975 C 686.024 561.439, 683.114 561, 680.968 561 C 677.836 561, 676.370 561.696, 673.533 564.533 M 301.174 626.039 C 294.757 627.349, 288.058 632.633, 284.723 639.016 L 281.893 644.433 282.197 665.646 C 282.540 689.649, 282.552 689.689, 291.091 695.500 L 295.500 698.500 326.500 698.685 C 405.901 699.157, 636.759 699.190, 673.180 698.734 L 713.860 698.225 718.529 694.872 C 726.174 689.381, 726.431 688.441, 726.831 664.524 C 727.057 650.954, 726.786 642.231, 726.064 639.819 C 724.597 634.923, 720.727 630.434, 715.624 627.711 L 711.500 625.511 508.500 625.333 C 394.258 625.233, 303.609 625.542, 301.174 626.039 M 391.508 640.401 C 389.008 642.902, 389 642.966, 389 661.800 C 389 678.830, 389.180 680.853, 390.829 682.345 C 393.228 684.516, 396.287 684.445, 398.345 682.171 C 399.763 680.605, 400 677.618, 400 661.326 C 400 644.455, 399.803 642.140, 398.250 640.807 C 394.901 637.931, 394.030 637.879, 391.508 640.401 M 439.565 640.260 C 438.410 642.024, 438.066 646.358, 438 660.010 C 437.953 669.629, 437.934 678.288, 437.958 679.250 C 438.010 681.410, 441.470 685, 443.500 685 C 444.325 685, 445.900 684.100, 447 683 C 448.863 681.137, 449 679.667, 449 661.500 C 449 643.333, 448.863 641.863, 447 640 C 444.362 637.362, 441.396 637.466, 439.565 640.260 M 464.052 640.662 C 462.070 643.181, 461.972 644.335, 462.229 662.305 L 462.500 681.286 465.193 683.296 C 467.744 685.200, 468.020 685.217, 470.443 683.629 L 473 681.954 473 661.632 C 473 643.214, 472.829 641.155, 471.171 639.655 C 468.570 637.301, 466.460 637.600, 464.052 640.662 M 488.405 640.104 C 486.703 641.983, 486.464 644.209, 486.158 661.011 C 485.831 678.996, 485.907 679.907, 487.908 681.908 C 490.226 684.226, 493.953 684.647, 495.800 682.800 C 496.654 681.946, 497 675.790, 497 661.455 C 497 643.209, 496.828 641.154, 495.171 639.655 C 492.720 637.437, 490.699 637.571, 488.405 640.104 M 535.073 640.635 C 533.139 643.093, 533 644.560, 533 662.480 C 533 679.820, 533.178 681.851, 534.829 683.345 C 537.259 685.544, 539.567 685.433, 542 683 C 543.863 681.137, 544 679.667, 544 661.539 C 544 642.807, 543.918 642.002, 541.811 640.039 C 538.922 637.347, 537.565 637.467, 535.073 640.635 M 559.073 640.635 C 557.144 643.087, 557 644.566, 557 661.980 C 557 678.836, 557.181 680.854, 558.829 682.345 C 561.228 684.516, 564.287 684.445, 566.345 682.171 C 567.767 680.600, 568 677.576, 568 660.728 C 568 641.592, 567.946 641.075, 565.777 639.557 C 562.693 637.396, 561.464 637.594, 559.073 640.635 M 583.655 639.829 C 582.231 641.402, 582 644.449, 582 661.629 C 582 683.092, 582.208 684, 587.129 684 C 592.677 684, 593 682.740, 593 661.084 C 593 643.197, 592.825 641.152, 591.171 639.655 C 588.772 637.484, 585.713 637.555, 583.655 639.829 M 608.655 639.829 C 607.233 641.400, 607 644.428, 607 661.329 C 607 679.667, 607.136 681.136, 609 683 C 611.449 685.449, 612.204 685.481, 614.870 683.250 C 616.856 681.587, 616.967 680.487, 617.090 661.234 C 617.183 646.488, 616.883 640.564, 615.987 639.484 C 614.298 637.449, 610.653 637.621, 608.655 639.829 M 633 640 C 631.138 641.862, 631 643.333, 631 661.345 C 631 678.816, 631.177 680.850, 632.829 682.345 C 635.228 684.516, 638.287 684.445, 640.345 682.171 C 641.764 680.603, 642 677.607, 642 661.171 C 642 643.333, 641.861 641.861, 640 640 C 638.900 638.900, 637.325 638, 636.500 638 C 635.675 638, 634.100 638.900, 633 640 M 369.229 639.669 C 365.840 641.033, 365 645.657, 365 662.950 C 365 678.667, 365.156 680.156, 367 682 C 368.100 683.100, 369.675 684, 370.500 684 C 371.325 684, 372.900 683.100, 374 682 C 375.854 680.146, 376 678.667, 376 661.723 C 376 646.798, 375.714 643.037, 374.443 641.223 C 372.906 639.027, 371.710 638.671, 369.229 639.669 M 414.802 641.250 C 413.955 642.754, 413.414 649.394, 413.170 661.277 C 412.859 676.401, 413.047 679.422, 414.425 681.527 C 416.228 684.277, 420.981 684.933, 422.844 682.687 C 424.439 680.766, 424.538 642.353, 422.953 640.444 C 421.061 638.163, 416.275 638.637, 414.802 641.250 M 512.267 641.250 C 510.383 643.288, 510.119 645.212, 509.470 661.646 L 508.753 679.792 511.327 681.479 C 512.743 682.407, 514.708 683.010, 515.693 682.821 C 519.105 682.163, 519.891 678.074, 520.073 660.031 C 520.244 643.112, 520.185 642.569, 518.014 640.810 C 515.164 638.503, 514.782 638.532, 512.267 641.250 M 677.378 652.437 C 673.054 654.319, 671 657.664, 671 662.823 C 671 666.467, 671.569 667.769, 674.400 670.600 C 678.213 674.413, 682.140 675.013, 686.961 672.520 C 696.400 667.639, 696.067 656.433, 686.364 652.379 C 682.342 650.698, 681.359 650.704, 677.378 652.437 M 320.367 653.772 C 317.337 656.227, 316 659.278, 316 663.738 C 316 666.811, 316.686 668.273, 319.335 670.840 C 323.862 675.227, 328.435 675.885, 332.985 672.801 C 339.785 668.195, 340.949 661.289, 335.896 655.535 C 333.091 652.340, 332.298 652.002, 327.646 652.022 C 324.287 652.037, 321.759 652.644, 320.367 653.772 M 329.750 711.748 L 313 712.048 313 717.431 C 313 722.062, 312.756 722.750, 311.250 722.360 C 310.288 722.111, 304.222 722.331, 297.771 722.849 C 277.762 724.456, 276.004 726.625, 276.002 749.703 C 276.001 758.385, 276.459 765.914, 277.071 767.257 C 278.993 771.475, 281.839 772.470, 293.500 773 L 304.500 773.500 304.798 778.092 L 305.097 782.684 291.070 783.323 C 283.356 783.673, 271.408 783.675, 264.521 783.326 C 253.301 782.757, 251.791 782.879, 249.999 784.501 C 247.190 787.043, 247.431 791.568, 250.528 794.439 C 252.954 796.687, 253.880 796.807, 273.278 797.400 C 284.400 797.739, 397.976 797.901, 525.669 797.759 L 757.838 797.500 760.419 795.076 C 763.846 791.857, 763.824 787.793, 760.365 785.073 C 757.854 783.098, 756.517 783, 731.972 783 C 703.754 783, 705 783.279, 705 776.957 L 705 774.077 714.405 774.179 C 722.408 774.265, 724.331 773.958, 727.306 772.120 C 729.229 770.932, 731.081 769.233, 731.421 768.344 C 731.762 767.456, 732.296 759.252, 732.608 750.114 C 733.267 730.778, 732.524 728.261, 724.987 724.275 C 721.212 722.279, 719.235 722, 708.843 722 L 697 722 697 716.686 L 697 711.371 674.503 711.436 L 652.005 711.500 652.003 717.687 L 652 723.874 648.750 723.476 C 646.962 723.258, 641.675 722.857, 637 722.585 C 627.088 722.010, 621.839 721.070, 622.506 719.990 C 623.636 718.161, 612.769 717.736, 549.500 717.136 C 457.525 716.263, 392.686 717.072, 387.980 719.151 C 386.043 720.006, 380.193 721.018, 374.980 721.400 C 369.766 721.782, 363.363 722.356, 360.750 722.676 L 356 723.258 356 717.129 L 356 711 351.250 711.224 C 348.637 711.347, 338.962 711.583, 329.750 711.748 M 502.315 738.488 C 498.987 739.910, 496 744.409, 496 748 C 496 753.147, 502.102 760, 506.685 760 C 512.383 760, 518.005 754.433, 517.996 748.800 C 517.992 745.952, 514.725 740.445, 512.304 739.202 C 508.761 737.384, 505.452 737.147, 502.315 738.488 M 457.616 741.657 C 454.241 745.032, 453.441 748.237, 455.022 752.053 C 457.799 758.756, 464.655 760.921, 469.611 756.658 C 471.853 754.730, 472.333 753.490, 472.333 749.637 C 472.333 740.451, 463.572 735.701, 457.616 741.657 M 544.960 741.040 C 542.146 743.854, 540.801 747.818, 541.532 751.147 C 542.355 754.893, 547.387 759, 551.154 759 C 555.283 759, 560 754.216, 560 750.027 C 560 746.189, 557.637 741.411, 555.055 740.030 C 551.924 738.354, 547.170 738.830, 544.960 741.040 M 345.702 774.036 C 334.857 774.620, 330.249 775.262, 328.452 776.440 C 325.553 778.339, 325.360 779.486, 327.750 780.606 C 330.167 781.738, 683.682 782.072, 686.646 780.944 C 689.417 779.891, 689.790 776.530, 687.250 775.513 C 683.533 774.024, 602.879 772.776, 579 773.838 C 557.375 774.800, 467.666 774.714, 391 773.659 C 374.225 773.428, 353.841 773.598, 345.702 774.036" stroke="none" fill="#000000" fill-rule="evenodd"/>
</svg>