<svg xmlns="http://www.w3.org/2000/svg" width="1024" height="1024" viewBox="0 0 1024 1024" version="1.1">
	<path d="M 529.233 112.105 C 511.337 114.186, 488.051 120.842, 474 127.893 C 454.091 137.884, 431.220 156.409, 418.775 172.626 C 412.539 180.752, 398.778 203.500, 394.049 213.500 C 388.013 226.264, 382.154 244.659, 379.875 258 C 378.571 265.634, 375.834 287.285, 375.272 294.419 C 374.225 307.703, 378.178 336.642, 383.012 351.073 C 388.437 367.269, 399.065 385.409, 407.347 392.607 C 412.032 396.679, 426.528 404.285, 451 415.510 C 458.975 419.168, 472.025 425.234, 480 428.990 C 492.222 434.746, 506.279 439.606, 503.350 437.062 C 502.883 436.656, 499.800 434.282, 496.500 431.787 C 489.548 426.531, 475.855 411.958, 468.184 401.651 C 452.371 380.404, 444.396 347.384, 447.050 314.145 C 450.085 276.139, 459.426 249.145, 480.492 217.500 C 501.396 186.098, 535.894 158.812, 568.218 148.114 C 588.626 141.360, 607 138.478, 624.943 139.217 C 631.541 139.489, 636.756 139.414, 636.531 139.050 C 635.345 137.131, 596.963 119.700, 587.004 116.558 C 570.876 111.469, 549.118 109.792, 529.233 112.105 M 663.500 135.672 C 660.750 135.918, 658.135 136.481, 657.689 136.921 C 655.735 138.851, 666.136 145.787, 678.135 150.554 C 692.576 156.291, 698.417 160.371, 710.376 173.072 C 723.793 187.322, 725.340 189.474, 732.957 204.485 C 740.895 220.131, 742.514 222.238, 747.814 223.826 C 754.731 225.898, 790.325 244.133, 795.941 248.481 C 798.998 250.848, 805.205 256.701, 809.733 261.486 L 817.967 270.188 814.900 274.645 C 813.214 277.096, 808.159 282.841, 803.667 287.411 C 793.108 298.153, 786.054 301.691, 764.594 307.008 C 755.867 309.170, 748.619 311.065, 748.487 311.219 C 746.370 313.684, 742 326.784, 742 330.664 C 742 332.039, 754.539 329.492, 766 325.789 C 799.755 314.882, 818.615 299.341, 833.470 270.193 C 837.688 261.916, 841.978 244.393, 841.991 235.381 C 842.006 225.014, 839.302 212.174, 835.436 204.258 C 824.893 182.671, 808.411 165.990, 786.651 154.884 C 771.135 146.965, 747.851 140.755, 721.482 137.504 C 708.659 135.923, 673.198 134.802, 663.500 135.672 M 482.703 140.792 C 480.666 142.878, 479 145.067, 479 145.656 C 479 146.246, 480.688 147.843, 482.750 149.205 C 486.997 152.010, 505.634 162.313, 508.156 163.250 C 510.051 163.954, 512.382 161.754, 513.860 157.869 C 515.277 154.141, 513.308 151.803, 505.764 148.259 C 502.319 146.640, 496.838 143.445, 493.584 141.158 C 490.331 138.871, 487.384 137, 487.037 137 C 486.690 137, 484.740 138.706, 482.703 140.792 M 604.500 154.740 C 597.522 155.520, 581.494 159.119, 574.278 161.526 C 526.727 177.388, 483.026 224.624, 469.086 275.224 C 463.076 297.044, 461.408 311.183, 462.332 332.484 C 463.863 367.775, 473.253 390.390, 495.444 412.231 C 507.360 423.960, 525.225 433.513, 545 438.729 C 552.756 440.775, 557.665 441.328, 571.740 441.743 C 591.150 442.315, 598.944 441.071, 618.482 434.280 C 637.033 427.831, 645.436 423.363, 664.765 409.670 C 681.986 397.471, 703.604 373.330, 714.432 354.207 C 721.384 341.928, 729.158 318.910, 731.556 303.500 C 734.597 283.967, 733.634 260.218, 728.998 240.383 C 721.961 210.278, 697.906 179.592, 670.500 165.758 C 663.531 162.241, 648.106 157.376, 638 155.508 C 630.354 154.095, 613.689 153.713, 604.500 154.740 M 724.803 166.684 C 724.452 185.926, 725.361 190.227, 729.448 188.658 C 730.842 188.124, 731.015 185.983, 730.776 172.272 L 730.500 156.500 727.750 156.184 L 725 155.867 724.803 166.684 M 746.585 157.863 C 746.253 158.399, 745.812 167.761, 745.603 178.669 C 745.395 189.576, 744.907 199.707, 744.520 201.183 C 743.891 203.585, 744.241 204.082, 747.869 205.933 C 750.097 207.070, 752.163 208, 752.460 208 C 752.757 208, 752.993 197.762, 752.985 185.250 C 752.970 161.772, 752.394 157.892, 748.818 157.203 C 747.921 157.031, 746.916 157.328, 746.585 157.863 M 444.220 166.055 C 438.465 170.922, 427 185.470, 427 187.906 C 427 188.556, 426.249 188.955, 425.332 188.794 C 423.549 188.480, 417 196.132, 417 198.530 C 417 199.286, 418.913 201.210, 421.250 202.805 C 429.308 208.307, 453.230 221, 455.540 221 C 458.251 221, 462 216.698, 462 213.588 C 462 209.749, 459.187 207.278, 449.549 202.651 C 438.266 197.234, 428.596 191, 431.476 191 C 432.665 191, 438.323 185.922, 445.993 177.969 L 458.560 164.938 455.223 162.969 C 453.388 161.886, 451.506 161, 451.041 161 C 450.577 161, 447.507 163.275, 444.220 166.055 M 242.500 164.109 C 227.919 166.212, 211.227 173.260, 199.500 182.266 C 185.888 192.719, 176.223 207.711, 170.301 227.561 C 168.662 233.053, 168.507 241.439, 168.238 339.035 L 167.948 444.570 176.224 442.616 L 184.500 440.662 184.223 342.081 C 183.978 254.841, 184.131 242.581, 185.551 235.516 C 191.143 207.695, 205.899 191.384, 232.703 183.397 L 241.500 180.776 310.148 180.638 L 378.796 180.500 379.331 176.500 C 379.625 174.300, 380.549 170.363, 381.385 167.750 L 382.904 163 315.702 163.122 C 278.741 163.189, 245.800 163.633, 242.500 164.109 M 768.753 180.750 C 769.217 195.646, 769.106 196.907, 766.715 203.997 C 764.312 211.123, 764.140 213, 765.891 213 C 766.316 213, 768.989 208.124, 771.832 202.165 C 776.469 192.444, 777 190.640, 777 184.608 C 777 175.594, 775.329 169.404, 772.240 166.974 C 770.860 165.888, 769.400 165, 768.996 165 C 768.593 165, 768.483 172.088, 768.753 180.750 M 604.500 191.040 C 587.741 193.237, 569.698 200.035, 555.339 209.562 C 545.414 216.146, 529.666 231.406, 522.652 241.234 C 517.226 248.839, 507.363 269.074, 503.513 280.500 C 494.836 306.255, 494.796 331.123, 503.397 352.452 C 507.887 363.587, 512.822 370.858, 522.478 380.563 C 534.320 392.465, 549.576 400.767, 566.541 404.541 C 578.055 407.103, 599.382 406.176, 611.366 402.593 C 627.202 397.857, 644.282 387.561, 657.853 374.568 C 672.416 360.626, 684.557 345.112, 691.035 332.169 C 698.775 316.706, 701.856 304.901, 702.700 287.473 C 703.407 272.876, 702.232 265.315, 697.091 251.376 C 687.464 225.274, 668.007 204.530, 645.097 195.940 C 639.171 193.718, 618.655 189.925, 613.651 190.127 C 611.918 190.197, 607.800 190.608, 604.500 191.040 M 780.667 208.500 C 779.784 215.715, 779.715 216.048, 779.202 215.535 C 778.946 215.280, 777.815 215.564, 776.688 216.167 C 774.672 217.246, 774.670 217.286, 776.570 218.710 C 777.631 219.506, 780.143 221.008, 782.151 222.048 L 785.802 223.939 785.243 219.720 C 784.936 217.399, 783.919 212.800, 782.982 209.500 L 781.278 203.500 780.667 208.500 M 600 206.468 C 577.529 210.720, 563.824 218.095, 547 234.987 C 536.283 245.748, 529.056 256.252, 523.023 269.840 C 514.605 288.798, 511.515 305.534, 513.007 324.083 C 514.105 337.723, 516.189 345.607, 521.301 355.449 C 529.716 371.650, 547.844 385.377, 565.150 388.653 C 576.375 390.777, 596.334 390, 607.500 387.003 C 617.389 384.348, 632.720 377.207, 639.472 372.109 C 645.783 367.344, 661.344 351.492, 667.556 343.500 C 679.404 328.256, 688.018 302.517, 687.971 282.500 C 687.955 275.871, 685.271 262.755, 682.037 253.510 C 676.983 239.058, 663.191 222.357, 650 214.715 C 635.954 206.577, 616.435 203.357, 600 206.468 M 814.621 210.148 C 814.328 212.541, 813.824 219.801, 813.501 226.279 C 812.865 239.062, 812.397 241.356, 810.645 240.295 C 809.313 239.489, 819.228 251.114, 821.433 252.945 C 823.688 254.816, 824.452 250.564, 824.478 236 C 824.496 225.538, 824.128 222.423, 822.216 216.892 C 820.959 213.258, 818.856 209.274, 817.542 208.040 L 815.153 205.795 814.621 210.148 M 405.446 221.684 C 398.766 236.336, 391.033 261.627, 392.505 264.008 C 393.217 265.161, 401.017 269.317, 401.521 268.812 C 401.701 268.633, 403.250 262.864, 404.964 255.993 C 408.782 240.689, 413.643 225.719, 416.207 221.374 L 418.123 218.127 415.811 216.667 C 409.911 212.943, 409.296 213.241, 405.446 221.684 M 798 230.380 C 798 230.588, 800.132 232.501, 802.738 234.630 L 807.475 238.500 805.168 235.248 C 802.689 231.754, 798 228.569, 798 230.380 M 606 237.661 C 584.387 241.023, 568.835 251.210, 554.517 271.386 C 549.048 279.092, 543.585 293.832, 541.965 305.250 C 539.665 321.464, 546.063 339.898, 557.348 349.571 C 573.637 363.533, 602.431 364.810, 623.620 352.510 C 635.429 345.654, 652.306 324.563, 657.822 309.767 C 661.175 300.774, 662.612 287.449, 661.111 279.273 C 658.163 263.213, 646.569 248.204, 632.272 241.942 C 627.573 239.884, 614.349 236.925, 610.792 237.136 C 609.531 237.211, 607.375 237.447, 606 237.661 M 750.501 250.157 C 750.157 251.996, 750.377 258.411, 750.989 264.414 C 751.985 274.191, 751.660 295.390, 750.411 302 C 750.086 303.724, 750.222 304.077, 750.849 303.137 C 751.571 302.054, 751.846 302.038, 752.186 303.058 C 752.686 304.558, 755.774 287.880, 756.968 277.230 C 757.866 269.226, 759.131 267.115, 764.577 264.530 C 770.976 261.494, 770.771 259.858, 763.216 253.677 C 759.504 250.640, 755.265 247.854, 753.796 247.485 C 751.372 246.877, 751.068 247.123, 750.501 250.157 M 489.397 253.745 C 487.164 255.979, 482.677 265.865, 480.504 273.337 C 478.903 278.845, 478.908 279.241, 480.596 281.106 C 481.574 282.186, 483.041 282.814, 483.857 282.501 C 484.673 282.188, 485.689 282.496, 486.115 283.185 C 486.623 284.008, 487.763 282.561, 489.435 278.969 C 490.835 275.961, 491.985 272.925, 491.990 272.221 C 491.996 271.518, 493.350 268.269, 495 265 C 498.737 257.597, 498.847 254.707, 495.453 253.161 C 492.083 251.625, 491.457 251.686, 489.397 253.745 M 599.899 253.390 C 590.179 256.193, 583.807 259.931, 577.112 266.758 C 568.790 275.243, 564.883 281.150, 560.814 291.398 C 557.864 298.828, 557.593 300.455, 557.549 311.010 C 557.502 322.090, 557.625 322.776, 560.850 329.336 C 563.554 334.838, 565.355 337.002, 570.196 340.565 C 579.195 347.190, 592 350.402, 592 346.035 C 592 344.955, 592.788 343.662, 593.750 343.163 C 596.491 341.742, 605.881 341.142, 606.287 342.362 C 606.904 344.213, 614.043 341.317, 621.500 336.189 C 633.065 328.238, 642.468 314.698, 645.044 302.286 C 646.792 293.869, 645.869 278.568, 643.265 272.783 C 640.323 266.248, 632.803 258.540, 626.233 255.325 C 619.672 252.116, 607.438 251.216, 599.899 253.390 M 381.573 279.462 C 381.193 281.486, 380.658 283.728, 380.383 284.444 C 379.670 286.303, 390.533 292.892, 408.872 301.726 L 424.410 309.211 426.253 306.936 C 427.578 305.299, 428.012 303.374, 427.798 300.080 C 427.504 295.567, 427.412 295.456, 421.500 292.500 C 403.909 283.705, 388.629 276.814, 385.639 276.329 C 382.404 275.804, 382.235 275.934, 381.573 279.462 M 603.022 289.615 C 597.810 291.544, 593.364 293.302, 593.143 293.523 C 592.596 294.071, 592.589 331.922, 593.136 332.469 C 593.841 333.175, 605.453 334.840, 606 334.314 C 606.275 334.050, 606.661 326.873, 606.858 318.365 L 607.216 302.897 611.099 301.344 C 614.250 300.083, 615.206 299.044, 616.166 295.842 C 617.500 291.388, 616.413 286.652, 613.979 286.314 C 613.166 286.201, 608.235 287.686, 603.022 289.615 M 843.708 312.090 C 838.897 314.628, 837.709 317.766, 838.557 325.686 C 839.430 333.843, 840.409 334.608, 847.743 332.867 L 853.500 331.500 853.355 322.881 C 853.138 309.975, 851.400 308.030, 843.708 312.090 M 840.479 375.852 C 835.541 378.430, 823.850 385.162, 814.500 390.812 C 731.331 441.067, 727.897 443.231, 732.049 442.761 C 734.064 442.533, 735.620 444.708, 744.427 460.055 C 749.967 469.711, 755.737 479.378, 757.250 481.537 C 760.582 486.295, 760.630 487.078, 757.750 489.701 C 753.992 493.123, 751.228 494.192, 749.092 493.049 C 746.279 491.544, 739.502 480.942, 733.719 469 C 730.922 463.225, 727.366 456.619, 725.817 454.320 C 722.501 449.399, 722.479 449.241, 724.750 446.699 C 727.503 443.618, 717.351 449.049, 705.511 456.991 C 700.005 460.685, 693.475 464.723, 691 465.966 C 688.525 467.209, 681.889 471.148, 676.253 474.720 L 666.006 481.213 670.590 486.311 C 673.111 489.116, 676.324 493.680, 677.730 496.455 C 679.135 499.230, 683.146 506.265, 686.643 512.088 C 690.139 517.912, 693 523.842, 693 525.266 C 693 528.287, 688.865 532, 685.500 532 C 681.360 532, 678.136 527.995, 671.078 514.085 C 667.212 506.465, 662.319 497.250, 660.205 493.606 L 656.362 486.981 648.431 491.811 C 644.069 494.467, 634.650 500.444, 627.500 505.092 C 620.350 509.741, 610.564 515.784, 605.753 518.522 C 597.745 523.080, 595.435 525, 597.960 525 C 599.754 525, 604.042 530.478, 609.698 540 C 612.803 545.225, 617.247 552.650, 619.575 556.500 C 625.582 566.436, 625.662 569.996, 619.954 573.368 C 617.112 575.047, 616.737 575.058, 614.406 573.531 C 611.436 571.584, 607.501 565.562, 599.032 550 C 595.590 543.675, 591.925 537.306, 590.887 535.846 C 589.849 534.386, 589 532.473, 589 531.596 C 589 528.924, 586.841 529.741, 576.971 536.150 C 566.640 542.858, 552.773 551.386, 543.767 556.571 C 540.614 558.387, 536.408 561.112, 534.421 562.628 C 531.165 565.111, 530.999 565.456, 532.746 566.102 C 534.770 566.850, 537.628 570.856, 547.942 587.402 C 555.256 599.136, 558 604.347, 558 606.506 C 558 608.892, 553.409 613, 550.742 613 C 547.845 613, 543.273 608.352, 538.938 601 C 530.494 586.681, 523 572.779, 523 571.435 C 523 569.548, 520.520 570.770, 508.225 578.716 C 503.426 581.817, 493.900 587.693, 487.056 591.774 C 480.212 595.855, 473.156 600.305, 471.377 601.662 L 468.142 604.129 481.120 623.757 C 492.326 640.706, 494.057 643.857, 493.799 646.843 C 493.416 651.270, 489.394 654.567, 485.552 653.602 C 482.571 652.854, 473.505 639.779, 463.467 621.751 C 460.185 615.856, 457.091 611.026, 456.592 611.017 C 456.092 611.008, 449.275 615.269, 441.443 620.487 C 433.610 625.705, 423.219 632.269, 418.351 635.074 C 413.483 637.878, 408.005 641.307, 406.178 642.692 C 402.992 645.108, 402.936 645.267, 404.791 646.566 C 405.855 647.311, 408.653 651.166, 411.009 655.132 C 413.365 659.098, 417.917 666.093, 421.123 670.676 C 430.860 684.594, 431.881 687.884, 427.686 691.826 C 424.475 694.842, 421.907 694.547, 418.334 690.750 C 413.289 685.389, 394 654.746, 394 652.094 C 394 651.527, 393.213 651.347, 392.250 651.694 C 390.457 652.341, 388.536 653.523, 369.500 665.689 C 363.450 669.555, 354 675.542, 348.500 678.993 C 335.163 687.361, 334.772 687.719, 336.633 689.831 C 340.138 693.811, 356.781 719.661, 360.369 726.700 C 362.611 731.099, 362.428 732.699, 359.354 735.548 C 356.480 738.211, 352.330 738.731, 349.763 736.750 C 348.873 736.063, 344.783 729.650, 340.675 722.500 C 336.567 715.350, 331.360 706.703, 329.103 703.284 C 326.846 699.865, 325 696.602, 325 696.034 C 325 695.465, 324.499 695, 323.887 695 C 322.148 695, 304.951 704.882, 300.500 708.440 C 298.300 710.198, 293.898 713.110, 290.717 714.910 C 287.537 716.711, 283.580 719.324, 281.924 720.718 L 278.913 723.251 281.034 724.737 C 282.201 725.554, 285.087 729.210, 287.446 732.861 C 289.806 736.513, 294.966 743.100, 298.913 747.500 C 302.860 751.900, 306.767 756.760, 307.596 758.300 C 309.046 760.995, 308.984 761.213, 305.946 764.050 C 304.209 765.673, 301.777 767, 300.540 767 C 298.031 767, 294.234 763.851, 291.408 759.426 C 290.380 757.817, 287.225 753.338, 284.396 749.474 C 281.567 745.610, 277.343 739.310, 275.008 735.474 C 272.674 731.638, 270.645 728.366, 270.500 728.201 C 270.079 727.725, 257.307 735.749, 242.967 745.500 C 223.362 758.831, 223.249 758.904, 214.546 763.982 C 206.184 768.859, 168.034 793.514, 166.890 794.779 C 166.532 795.175, 166.798 803.375, 167.483 813 C 169.002 834.356, 172.157 845.091, 179.468 853.780 C 182.880 857.835, 191.563 863.513, 196.384 864.842 L 200.269 865.913 199.791 851.036 C 199.198 832.538, 200.192 829.164, 206 829.972 C 210.059 830.537, 210.729 832.679, 211.416 847.291 C 212.412 868.472, 211.728 867, 220.579 867 L 228 867 228 844.557 C 228 822.498, 228.038 822.087, 230.223 820.557 C 232.857 818.711, 239.101 818.501, 240.800 820.200 C 241.663 821.063, 242 827.800, 242 844.200 L 242 867 248.500 867 L 255 867 255 851.455 C 255 836.283, 255.059 835.850, 257.455 833.455 C 260.402 830.507, 262.021 830.387, 265.107 832.885 C 267.322 834.679, 267.453 835.494, 267.797 849.635 C 267.996 857.811, 268.541 864.895, 269.008 865.379 C 269.475 865.862, 273.040 866.320, 276.929 866.396 L 284 866.535 283.974 859.018 C 283.959 854.883, 283.525 842.122, 283.010 830.660 C 282.182 812.273, 282.258 809.535, 283.659 807.398 C 286.674 802.797, 293.934 803.006, 296.355 807.764 C 297.462 809.939, 297.657 815.009, 297.309 832.500 C 297.068 844.600, 297.239 857.200, 297.690 860.500 L 298.509 866.500 307.620 866.578 L 316.730 866.656 317.359 858.578 C 317.705 854.135, 317.991 845.881, 317.994 840.235 L 318 829.971 321.247 827.996 C 324.671 825.914, 327.247 826.136, 330.250 828.773 C 331.794 830.129, 332 832.412, 332 848.155 L 332 866 335.349 866 C 337.191 866, 342.032 866.282, 346.107 866.626 L 353.516 867.253 353.146 838.059 L 352.777 808.866 355.063 806.433 C 358.282 803.006, 362.190 803.249, 365.411 807.077 L 368 810.153 368.015 836.827 C 368.024 851.497, 368.361 863.997, 368.765 864.604 C 369.169 865.211, 373.175 865.954, 377.667 866.254 C 385.740 866.793, 385.841 866.771, 386.462 864.295 C 386.808 862.918, 386.782 855.170, 386.406 847.078 L 385.720 832.365 388.495 830.183 C 392.052 827.385, 393.177 827.437, 396.899 830.569 L 399.952 833.138 400.226 849.819 L 400.500 866.500 409.850 866.500 L 419.199 866.500 418.850 837.355 C 418.519 809.826, 418.606 808.093, 420.405 806.105 C 421.453 804.947, 423.280 804, 424.466 804 C 427.123 804, 430.802 807.292, 431.481 810.278 C 431.759 811.500, 432.370 824.543, 432.838 839.262 C 433.307 853.981, 433.872 866.196, 434.095 866.408 C 434.318 866.619, 438.325 866.951, 443 867.146 L 451.500 867.500 452.500 848.658 C 453.456 830.650, 453.604 829.732, 455.861 827.908 C 458.903 825.449, 461.082 825.496, 463.854 828.079 C 466.015 830.092, 466.079 830.708, 465.874 847.577 C 465.758 857.157, 466.002 865.334, 466.416 865.748 C 466.830 866.162, 473.465 866.500, 481.161 866.500 L 495.152 866.500 494.900 838 C 494.627 807.283, 494.875 805.592, 499.827 804.335 C 502.810 803.578, 506.920 805.769, 507.517 808.433 C 508.499 812.821, 509.992 839.135, 509.996 852.119 L 510 865.738 513.750 866.358 C 518.564 867.154, 528.436 867.154, 533.250 866.358 L 537 865.738 537 847.908 C 537 830.752, 537.084 829.999, 539.230 828 C 542.125 825.303, 545.294 824.552, 547.897 825.945 C 551.950 828.114, 552.830 831.815, 553.579 849.819 L 554.294 867 561.897 866.986 C 566.079 866.979, 570.548 866.692, 571.830 866.349 L 574.160 865.725 573.888 837.221 L 573.617 808.717 576.559 806.363 C 580.265 803.398, 583.644 803.358, 586.056 806.250 C 587.700 808.220, 587.938 810.315, 587.967 823.091 C 587.985 831.116, 588.289 844.391, 588.643 852.591 L 589.286 867.500 597.393 867 L 605.500 866.500 606.205 860 C 607.046 852.240, 608.246 847.751, 609.601 847.300 C 611.134 846.789, 614.010 855.938, 614.005 861.307 L 614 866.115 618.250 865.807 L 622.500 865.500 622.446 860.500 C 622.417 857.750, 622.021 851.611, 621.568 846.858 C 619.969 830.112, 623.093 821, 630.434 821 C 636.785 821, 637.358 822.738, 638.626 845.851 C 639.249 857.208, 639.813 866.500, 639.879 866.500 C 639.945 866.500, 646.637 866.440, 654.750 866.368 L 669.500 866.235 669.787 849.368 C 669.945 840.090, 669.613 827.861, 669.049 822.190 C 668.212 813.785, 668.286 811.252, 669.446 808.476 C 671.830 802.768, 678.670 802.527, 681.526 808.050 C 682.708 810.336, 683.169 816.964, 683.676 838.979 L 684.322 867 690.411 866.991 C 693.760 866.987, 698.930 866.691, 701.900 866.334 L 707.300 865.686 706.646 849.040 C 705.947 831.259, 706.009 830.951, 710.973 827.646 C 714.371 825.383, 717.273 825.584, 719.698 828.250 C 721.518 830.252, 721.818 832.320, 722.413 846.989 C 722.781 856.058, 723.308 864.383, 723.584 865.489 C 724.048 867.345, 724.765 867.476, 732.908 867.183 L 741.729 866.865 742.365 860.786 C 742.714 857.442, 743 844.276, 743 831.528 C 743 808.592, 743.024 808.326, 745.314 806.174 C 748.317 803.354, 752.096 803.409, 754.826 806.314 C 756.956 808.582, 757 809.221, 757 837.964 L 757 867.299 766.250 866.539 C 776.391 865.705, 776.557 865.706, 782.869 866.608 C 786.021 867.059, 787.479 866.852, 788.104 865.866 C 788.580 865.115, 788.976 855.457, 788.985 844.405 C 788.999 826.219, 789.174 824.153, 790.829 822.655 C 793.399 820.329, 796.272 820.596, 798.911 823.405 C 801.019 825.649, 801.246 827.200, 802.282 846.405 L 803.394 867 806.092 867 C 810.580 867, 821.137 863.290, 827.500 859.477 C 835.476 854.697, 842.228 847.932, 845.853 841.092 C 849.399 834.402, 850.599 829.900, 851.405 820.276 L 852.009 813.052 836.792 812.776 L 821.574 812.500 820.087 809.848 C 818.950 807.821, 818.824 806.288, 819.550 803.348 L 820.500 799.500 835.604 799.225 L 850.707 798.949 851.332 790.845 C 851.676 786.387, 851.677 782.287, 851.335 781.732 C 850.923 781.067, 841.938 780.970, 824.894 781.446 L 799.076 782.167 796.476 779.567 C 793.153 776.244, 793.384 771.515, 797 768.866 C 799.376 767.125, 800.769 767.096, 825.125 768.267 L 850.749 769.500 851.336 762 C 851.998 753.550, 851.109 752.011, 845.559 751.987 C 843.876 751.980, 839.647 751.080, 836.161 749.987 C 832.674 748.894, 828.078 748, 825.946 748 C 820.992 748, 819.942 746.140, 819.691 736.924 C 819.551 731.804, 819.880 729.702, 820.922 729.053 C 821.705 728.567, 827.105 727.850, 832.922 727.460 C 838.752 727.069, 845.151 726.041, 847.178 725.170 L 850.856 723.590 851.178 716.197 C 851.355 712.130, 851.275 708.675, 851 708.519 C 850.725 708.363, 839.282 708.661, 825.571 709.181 C 811.861 709.701, 799.675 709.884, 798.492 709.587 C 797.309 709.290, 795.509 707.504, 794.494 705.618 C 792.750 702.381, 792.741 702.044, 794.336 699.610 C 795.265 698.192, 797.032 696.823, 798.263 696.568 C 799.493 696.313, 811.645 695.923, 825.266 695.703 C 838.887 695.482, 850.204 695.121, 850.415 694.901 C 850.625 694.680, 850.955 690.225, 851.149 685 L 851.500 675.500 836.211 675 C 819.755 674.462, 819.047 674.211, 819.015 668.905 C 818.985 663.829, 821.447 662.932, 837.146 662.299 L 851.500 661.719 851.177 653.360 L 850.853 645 824.563 645 L 798.273 645 795.636 642.364 C 792.275 639.002, 792.274 635.716, 795.635 633.073 C 798.148 631.095, 799.478 631, 824.494 631 L 850.718 631 851.279 622.250 C 851.588 617.438, 851.538 613.192, 851.170 612.815 C 850.801 612.438, 843.842 611.809, 835.704 611.418 C 822.304 610.773, 820.770 610.510, 819.454 608.630 C 817.469 605.797, 817.630 602.679, 819.904 599.871 C 822.074 597.190, 824.899 596.979, 841.250 598.270 L 851 599.040 851 589.675 L 851 580.309 838.250 579.658 C 831.237 579.301, 819.503 579.006, 812.173 579.004 L 798.846 579 795.853 576.007 C 792.267 572.421, 792.381 569.533, 796.220 566.678 C 798.870 564.706, 799.581 564.680, 824.220 565.672 C 838.124 566.232, 849.646 566.576, 849.824 566.438 C 850.770 565.702, 851.491 554.973, 850.778 552.225 C 849.464 547.153, 845.471 545.689, 832.667 545.584 C 820.370 545.483, 819 544.711, 819 537.881 C 819 532.044, 821.848 530.439, 833.699 529.595 C 839.089 529.211, 845.075 528.566, 847 528.160 L 850.500 527.423 850.790 519.212 L 851.081 511 846.290 510.988 C 843.656 510.982, 831.638 511.503, 819.585 512.146 L 797.669 513.317 795.335 510.602 C 792.281 507.053, 792.390 505.457, 795.923 501.923 L 798.846 499 824.923 499 L 851 499 851 490 C 851 482.128, 850.781 480.989, 849.250 480.913 C 823.746 479.649, 822.046 479.445, 820.556 477.474 C 819.735 476.388, 819.049 474.063, 819.032 472.307 C 818.977 466.852, 821.421 466, 837.114 466 L 850.783 466 850.908 419.069 C 850.977 393.258, 850.679 371.920, 850.246 371.652 C 849.812 371.384, 845.417 373.274, 840.479 375.852 M 374 393.558 C 357.578 400.322, 349.418 403.870, 338.500 408.992 C 329.582 413.177, 285.535 432.966, 260.500 444.036 C 253.350 447.198, 238.275 453.937, 227 459.011 C 215.725 464.086, 199.300 471.346, 190.500 475.145 C 181.700 478.944, 168.074 485.041, 160.220 488.693 C 135.114 500.368, 134.266 501.604, 135.447 524.790 C 135.859 532.881, 136.490 550.156, 136.848 563.180 C 137.612 590.929, 136.797 588.784, 150.579 599.321 C 155.485 603.072, 167.553 613.197, 177.396 621.821 C 187.239 630.444, 197.139 638.736, 199.396 640.246 C 206.070 644.711, 213.212 643.715, 219 637.510 C 221.495 634.835, 221.500 634.793, 221.500 614.665 C 221.501 596.805, 221.729 593.939, 223.500 589.592 C 225.401 584.927, 225.972 584.443, 235 579.851 C 240.225 577.193, 253.725 570.904, 265 565.874 C 287.484 555.845, 311.964 544.563, 351 526.240 C 365.025 519.657, 377.625 513.919, 379 513.489 C 381.390 512.741, 394.232 506.989, 431.500 489.972 C 467.615 473.481, 472.671 471.257, 478 469.521 C 481.025 468.535, 489.350 465.133, 496.500 461.960 C 503.650 458.788, 514.219 454.746, 519.986 452.980 L 530.472 449.769 524.486 446.733 C 514.604 441.721, 505.078 438.038, 505.614 439.438 C 506.165 440.872, 499.869 443.812, 490.543 446.475 C 487.266 447.411, 482.541 449.211, 480.043 450.476 C 473.685 453.693, 466.997 455.585, 466.171 454.399 C 465.056 452.796, 455.780 446.393, 451.290 444.126 C 445.631 441.269, 443.195 441.375, 442.407 444.513 C 441.626 447.626, 443.111 449.516, 448.433 452.186 C 450.670 453.308, 453.512 455.153, 454.750 456.287 C 458.695 459.901, 457.686 461.482, 449.538 464.454 L 442.076 467.175 430.788 461.111 C 424.580 457.775, 417.644 453.919, 415.375 452.541 L 411.250 450.036 407.125 453.024 C 404.856 454.668, 403 456.645, 403 457.417 C 403 459.554, 407.691 463.028, 417.289 468 C 422.067 470.475, 425.982 473.052, 425.988 473.727 C 426.004 475.375, 422.907 477.290, 414.349 480.925 L 407.198 483.962 395.849 476.358 C 389.607 472.176, 383.452 467.798, 382.172 466.629 L 379.843 464.504 375.233 467.078 C 366.284 472.074, 366.767 474.056, 378.742 481.500 C 383.166 484.250, 387.824 487.215, 389.093 488.089 L 391.400 489.677 389.317 491.460 C 388.172 492.441, 383.920 494.676, 379.867 496.428 L 372.500 499.612 363 493.714 C 357.775 490.470, 351.514 486.283, 349.086 484.408 C 346.658 482.534, 344.226 481, 343.680 481 C 341.702 481, 336 486.148, 336 487.935 C 336 490.194, 341.482 495.207, 349.741 500.500 C 353.174 502.700, 355.986 505.051, 355.991 505.724 C 356 506.949, 351.039 510, 349.039 510 C 348.455 510, 345.903 510.975, 343.367 512.168 C 340.394 513.565, 338.328 514.009, 337.554 513.418 C 335.617 511.939, 324.728 504.845, 317.372 500.270 C 311.335 496.516, 310.346 496.190, 308.569 497.370 C 305.597 499.344, 302.662 503.644, 303.435 504.894 C 303.807 505.496, 308.586 509.184, 314.056 513.089 C 319.525 516.994, 324 520.733, 324 521.398 C 324 522.542, 309.707 529, 307.175 529 C 306.521 529, 300.808 525.412, 294.478 521.027 C 280.015 511.007, 279.431 510.697, 277.250 511.873 C 274.103 513.570, 270.731 517.856, 271.325 519.405 C 271.643 520.234, 275.139 523.519, 279.094 526.706 C 283.049 529.893, 287.383 533.409, 288.725 534.520 L 291.166 536.540 277.333 543.674 C 269.725 547.599, 259.675 552.380, 255 554.301 C 250.325 556.221, 239.975 560.762, 232 564.392 C 224.025 568.022, 216.407 570.994, 215.072 570.996 C 213.420 570.999, 210.213 568.681, 205.043 563.750 C 195.932 555.059, 174.007 535.384, 165.082 527.889 C 159.068 522.840, 150.164 511.878, 150.051 509.384 C 150.023 508.770, 152.813 507.257, 156.250 506.022 C 159.688 504.787, 169.179 500.668, 177.342 496.870 L 192.184 489.964 194.268 492.732 C 195.415 494.254, 198.559 497.623, 201.256 500.218 C 203.952 502.812, 205.899 505.354, 205.583 505.866 C 205.266 506.379, 201.638 507.547, 197.520 508.463 C 191.701 509.758, 186.691 510.027, 175.025 509.672 L 160.017 509.215 161.911 511.858 C 165.141 516.365, 168.238 518.739, 175.685 522.416 C 181.697 525.384, 184.001 527.313, 189.802 534.231 C 193.615 538.779, 199.611 545.538, 203.127 549.250 C 210.614 557.156, 212.241 557.500, 223.500 553.560 C 227.350 552.213, 235 549.693, 240.500 547.961 C 246 546.229, 251.001 544.400, 251.614 543.896 C 253.032 542.731, 255 533.026, 255 527.199 C 255 519.641, 252.990 514.919, 247.528 509.648 C 240.017 502.399, 234.138 499.749, 224.379 499.211 C 216.358 498.768, 216.238 498.722, 214.700 495.498 C 213.844 493.702, 211.726 490.619, 209.994 488.646 C 206.930 485.156, 206.728 483, 209.466 483 C 210.207 483, 214.793 480.972, 219.657 478.494 L 228.500 473.988 238.032 483.744 C 252.519 498.570, 250.945 497.702, 256.391 493.864 C 258.926 492.077, 261 490.312, 261 489.942 C 261 488.753, 256.819 483.688, 249.587 476.117 L 242.535 468.733 250.909 464.867 C 255.514 462.740, 259.569 461, 259.919 461 C 260.269 461, 262.925 463.692, 265.821 466.982 C 268.717 470.272, 272.607 474.124, 274.466 475.542 L 277.845 478.119 281.740 476.133 C 288.771 472.546, 288.765 472.125, 281.562 463.460 C 278 459.176, 275.341 455.258, 275.653 454.753 C 275.965 454.248, 278.247 452.966, 280.725 451.904 C 283.203 450.842, 286.557 449.028, 288.179 447.872 L 291.129 445.772 293.680 448.136 C 295.083 449.436, 300.295 455.357, 305.261 461.293 C 310.228 467.229, 315.150 472.545, 316.199 473.106 C 317.676 473.897, 319.072 473.562, 322.383 471.621 C 329.606 467.388, 329.687 466.930, 324.279 460.862 C 321.651 457.913, 317.037 452.575, 314.026 449 C 311.016 445.425, 308.104 442.187, 307.555 441.804 C 306.192 440.854, 306.282 440.796, 316.735 435.823 L 325.969 431.429 334.735 440.302 C 344.208 449.891, 346.420 451.307, 349.500 449.757 C 352.847 448.072, 356 444.750, 356 442.909 C 356 441.950, 352.590 437.542, 348.423 433.112 C 344.256 428.682, 341.102 424.644, 341.414 424.140 C 341.726 423.635, 343.223 422.915, 344.741 422.541 C 346.258 422.167, 350.133 420.685, 353.350 419.249 C 357.233 417.515, 359.626 416.950, 360.466 417.568 C 361.162 418.081, 365.228 421.313, 369.502 424.750 C 373.775 428.188, 378.125 431, 379.168 431 C 381.726 431, 387.578 428.491, 388.501 426.999 C 388.967 426.244, 386.588 423.119, 382.123 418.623 C 378.205 414.680, 375 411.138, 375 410.752 C 375 409.728, 380.600 407, 382.700 407.001 C 386.237 407.002, 397.150 413.027, 402.280 417.811 C 409.531 424.572, 410.574 424.944, 423.637 425.436 C 428.112 425.604, 432.321 426.080, 432.990 426.494 C 435.265 427.900, 446.009 430.823, 445.424 429.878 C 445.104 429.360, 439.366 426.198, 432.671 422.851 C 413.113 413.071, 390.142 396.874, 387.665 391.117 L 386.500 388.409 374 393.558 M 777.656 430.759 C 773.228 434.061, 770.016 438.668, 770.007 441.730 C 769.995 445.486, 773.031 451.790, 775.689 453.532 C 782.230 457.818, 795.785 449.199, 793.555 442.173 C 792.173 437.819, 784.999 428, 783.200 428 C 782.186 428, 779.691 429.241, 777.656 430.759 M 697.235 464.525 C 695.439 465.290, 693.702 466.613, 693.376 467.464 C 692.596 469.494, 701.698 490.133, 705.323 494.556 C 707.083 496.704, 709.030 498, 710.496 498 C 713.689 498, 719 493.366, 719 490.579 C 719 487.896, 705.353 466.262, 702.500 464.423 C 700.857 463.363, 699.918 463.382, 697.235 464.525 M 521.188 473.491 C 515.304 474.658, 506.151 478.329, 493 484.796 C 488.514 487.002, 487.441 488.019, 487.177 490.315 C 487 491.863, 487.606 494.276, 488.524 495.677 C 490.012 497.948, 490.640 498.153, 494.304 497.567 C 500.522 496.573, 506.385 493.623, 509.969 489.684 C 511.741 487.737, 515.633 484.987, 518.619 483.574 C 522.032 481.958, 524.388 480.110, 524.963 478.598 C 525.466 477.275, 526.890 475.249, 528.127 474.096 C 530.696 471.703, 530.350 471.673, 521.188 473.491 M 468.197 496.964 C 458.728 501.543, 458.156 502.902, 463.368 508.429 C 467.231 512.524, 470.401 512.971, 477.230 510.380 C 482.451 508.400, 486.018 504.784, 485.333 502.167 C 484.649 499.551, 479.140 493, 477.624 493 C 476.948 493, 472.706 494.784, 468.197 496.964 M 628.923 507.923 C 624.925 511.922, 625.187 514.608, 630.598 525.085 C 635.456 534.491, 639.633 539, 643.488 539 C 646.236 539, 651 533.808, 651 530.812 C 651 528.432, 642.038 513.251, 637.749 508.367 C 634.129 504.243, 632.676 504.170, 628.923 507.923 M 443 509.727 C 442.175 510.040, 439.025 511.409, 436 512.769 C 412.201 523.471, 406.212 526.412, 404.204 528.383 L 401.908 530.637 405.204 535.568 C 407.595 539.146, 409.244 540.586, 411.211 540.813 C 415.607 541.320, 427.902 535.995, 430.648 532.395 C 432.593 529.845, 434.808 528.733, 442.613 526.388 C 455.275 522.584, 456.549 520.112, 449.808 512.434 C 446.808 509.018, 445.862 508.641, 443 509.727 M 210.600 518.302 C 206.256 520.611, 201.825 523.677, 200.755 525.116 C 198.916 527.589, 198.899 527.904, 200.453 530.910 C 201.357 532.658, 203.538 534.996, 205.299 536.105 C 208.917 538.385, 214.738 538.208, 228.805 535.393 C 237.472 533.658, 240 531.655, 240 526.524 C 240 522.342, 237.109 518.715, 231.680 516.087 C 224.991 512.849, 219.844 513.390, 210.600 518.302 M 149.413 536 C 150.442 541.414, 151.976 575.373, 151.362 579.157 C 150.840 582.371, 151.198 582.848, 159.140 589.513 C 163.719 593.356, 172.423 600.253, 178.483 604.840 C 184.542 609.427, 192.476 616.104, 196.113 619.678 C 201.163 624.639, 203.291 626.095, 205.113 625.837 C 207.488 625.502, 207.498 625.447, 207.153 614.500 C 206.963 608.450, 207.361 597.714, 208.039 590.642 C 209.448 575.929, 209.496 576.040, 201.750 576.015 L 197 576 196.986 589.250 C 196.972 603.651, 196.486 607, 194.415 607 C 193.672 607, 189.787 604.164, 185.782 600.697 C 181.777 597.231, 175.224 591.801, 171.220 588.631 C 167.217 585.461, 162.776 581.108, 161.353 578.958 C 159.119 575.581, 158.859 574.397, 159.450 570.274 C 159.826 567.648, 161.247 562.679, 162.606 559.232 L 165.078 552.964 163.155 548.732 C 162.098 546.404, 158.424 541.800, 154.990 538.500 L 148.747 532.500 149.413 536 M 385.605 537.568 C 379.844 539.680, 378.732 540.909, 379.429 544.396 C 380.789 551.193, 388.171 554.719, 394.611 551.648 C 399.520 549.308, 399.049 545.031, 393.191 538.750 C 390.267 535.615, 390.735 535.688, 385.605 537.568 M 563.973 546.692 C 562.613 547.623, 561.144 548.860, 560.709 549.442 C 559.301 551.325, 560.676 557.431, 564.223 565.052 C 567.977 573.118, 572.128 578, 575.232 578 C 578.128 578, 583 574.162, 583 571.880 C 583 567.257, 569.880 545, 567.156 545 C 566.765 545, 565.332 545.761, 563.973 546.692 M 355.158 551.764 L 348.816 555.500 349.310 559.968 C 349.683 563.345, 350.563 565.114, 352.917 567.218 C 354.630 568.748, 356.969 570, 358.115 570 C 360.928 570, 365.936 567.534, 369.980 564.158 C 372.768 561.831, 373.200 560.934, 372.630 558.663 C 371.883 555.686, 364.745 547.992, 362.750 548.014 C 362.063 548.021, 358.646 549.709, 355.158 551.764 M 165.416 557.596 C 164.446 562.768, 166.615 568.850, 170.990 573.225 C 175.316 577.551, 178.436 578.018, 182.365 574.927 C 185.515 572.450, 185.664 570.221, 183.023 565.044 C 180.861 560.807, 177.591 558.100, 171.628 555.614 C 166.378 553.426, 166.187 553.487, 165.416 557.596 M 326.451 564.915 C 318.718 569.350, 318.343 570.111, 321.138 575.686 C 322.437 578.276, 324.635 581.218, 326.022 582.223 C 328.472 583.998, 328.711 583.992, 334.452 582.017 C 340.988 579.768, 344 577.557, 344 575.008 C 344 574.083, 342.175 570.777, 339.945 567.663 C 335.192 561.025, 333.745 560.731, 326.451 564.915 M 723.977 576.349 C 715.465 581.491, 700.850 590.503, 691.500 596.375 C 638.675 629.555, 615.672 643.929, 598.500 654.489 C 581.642 664.856, 570.694 671.676, 557.500 680.030 C 552.550 683.164, 545.125 687.745, 541 690.210 C 536.875 692.675, 526.975 698.734, 519 703.674 C 504.605 712.590, 501.050 714.857, 463.446 739.096 C 437.968 755.518, 435.341 759.035, 450.066 757.007 C 466.776 754.706, 486.043 754.241, 529 755.102 C 553.475 755.593, 611.233 756.061, 657.352 756.142 C 725.452 756.261, 741.355 756.043, 742.012 754.981 C 743.005 753.374, 743.274 635.243, 742.374 595.750 C 741.910 575.390, 741.388 567, 740.586 567 C 739.963 567, 732.489 571.207, 723.977 576.349 M 288.750 584.658 C 280.311 589.160, 279.943 591.206, 286.410 597.673 C 291.387 602.650, 291.596 602.657, 302.750 598.254 C 306.435 596.800, 309 595.188, 309 594.328 C 309 590.386, 300.901 580.981, 297.547 581.029 C 296.421 581.045, 292.462 582.678, 288.750 584.658 M 497.250 587.989 C 492.464 590.907, 492.547 592.008, 498.494 604.479 C 503.292 614.540, 506.040 618, 509.234 618 C 511.976 618, 517 613.245, 517 610.650 C 517 608.747, 507.261 591.340, 504.188 587.750 C 502.278 585.519, 501.244 585.554, 497.250 587.989 M 264.929 596.976 C 257.877 600.705, 257.158 604.857, 262.898 608.716 C 271.337 614.389, 276.648 609.489, 274.375 598.125 C 273.862 595.561, 273.279 595.008, 271.125 595.044 C 269.681 595.069, 266.893 595.938, 264.929 596.976 M 433.077 629.589 C 428.981 633.035, 429.117 635.788, 433.862 645.553 C 438.008 654.085, 440.066 656.500, 444 657.445 C 447.441 658.271, 452.250 654.347, 452.250 650.713 C 452.250 646.284, 440.276 627, 437.526 627 C 436.771 627, 434.769 628.165, 433.077 629.589 M 168.667 659.667 C 167.890 660.443, 167.745 744, 168.520 744 C 168.806 744, 170.718 742.944, 172.770 741.654 C 174.821 740.363, 178.124 738.774, 180.108 738.123 L 183.716 736.939 184.354 720.719 C 184.705 711.799, 184.782 695.950, 184.525 685.500 L 184.058 666.500 178.279 662.770 C 172.662 659.144, 170.037 658.297, 168.667 659.667 M 368.734 672.068 C 366.271 674.098, 365 675.982, 365 677.601 C 365 680.833, 370.174 690.990, 374.096 695.457 C 377.910 699.800, 380.860 699.991, 385.135 696.170 C 387.613 693.956, 388.167 692.814, 387.678 690.920 C 386.938 688.048, 374.950 669.809, 373.484 669.325 C 372.926 669.140, 370.788 670.375, 368.734 672.068 M 302.228 711.034 C 298.780 712.427, 298.696 713.933, 301.560 723 C 305.938 736.859, 311.272 740.048, 318.370 733.051 L 321.239 730.222 315.870 723.801 C 312.916 720.269, 309.150 715.745, 307.500 713.748 C 304.951 710.663, 304.158 710.254, 302.228 711.034 M 844.613 734.165 C 839.162 734.955, 836.978 736.378, 838.651 738.051 C 839.593 738.993, 850.160 742.238, 850.576 741.713 C 850.669 741.596, 850.465 739.690, 850.123 737.479 L 849.500 733.458 844.613 734.165 M 253.493 749.022 C 251.838 754.236, 257.124 765.138, 262.564 767.732 C 265.876 769.311, 266.064 769.288, 268.492 767.007 C 269.872 765.712, 271 764.125, 271 763.481 C 271 762.837, 269.226 759.565, 267.058 756.211 C 261.805 748.083, 254.945 744.448, 253.493 749.022 M 227 758.709 C 224.598 759.592, 222 762.191, 222 763.710 C 222 765.359, 229.143 776.264, 232.890 780.336 C 237.256 785.080, 238.587 785.383, 241.940 782.396 C 244.754 779.888, 244.847 779.569, 243.609 776.621 C 241.787 772.278, 231.011 757.983, 229.632 758.079 C 229.010 758.122, 227.825 758.406, 227 758.709" stroke="none" fill="#000000" fill-rule="evenodd"/>
</svg>