<svg xmlns="http://www.w3.org/2000/svg" width="1024" height="1024" viewBox="0 0 1024 1024" version="1.1">
	<path d="M 509.500 108.080 C 504.550 108.522, 489.536 109.606, 476.135 110.488 C 455.101 111.872, 449.769 112.575, 437.135 115.624 C 429.086 117.567, 419.348 120.221, 415.495 121.522 C 411.643 122.823, 403.543 124.779, 397.495 125.868 C 384.013 128.298, 365.197 133.447, 359.210 136.346 L 354.762 138.500 367.631 139 C 374.709 139.275, 406.285 139.325, 437.800 139.111 L 495.100 138.721 501.102 130.111 C 504.402 125.375, 510.567 118.244, 514.801 114.264 C 520.202 109.188, 521.903 107.064, 520.500 107.152 C 519.400 107.220, 514.450 107.638, 509.500 108.080 M 472.010 119.936 C 465.166 120.391, 463.458 120.823, 463.203 122.164 C 462.943 123.530, 464.100 123.959, 469.649 124.553 C 481.989 125.874, 502 123.688, 502 121.019 C 502 119.010, 491.606 118.635, 472.010 119.936 M 567.360 121.476 C 558.314 123.118, 554.429 124.394, 544.500 128.984 C 531.494 134.996, 522.035 144.339, 508.076 164.964 C 497.032 181.282, 492.863 190, 496.105 190 C 496.712 190, 499.449 191.125, 502.187 192.500 C 507.885 195.362, 509 195.547, 509 193.629 C 509 191.189, 525.969 166.676, 531.820 160.663 C 545.161 146.954, 557.050 141.095, 573.250 140.244 C 585.182 139.618, 586.111 141.017, 575.750 144.010 C 551.950 150.885, 540.640 159.765, 521.143 186.885 C 513.117 198.049, 513.070 198.244, 517.430 202.072 C 521.949 206.041, 528.120 210.660, 533.750 214.289 C 537.945 216.993, 538 217, 538 214.849 C 538 212.165, 544.576 199.977, 551.300 190.198 C 558.163 180.219, 564.317 174.890, 571.604 172.621 C 578.805 170.378, 580.155 169.248, 585.490 161 C 587.802 157.425, 592.039 151.704, 594.904 148.286 C 599.719 142.542, 600.354 142.117, 603.306 142.656 C 610.840 144.032, 623.667 151.969, 644.500 168.147 C 659.652 179.912, 661 181.088, 661 182.539 C 661 183.278, 661.441 184.154, 661.979 184.487 C 663.503 185.429, 667 183.129, 667 181.186 C 667 177.954, 654.813 160.565, 646.625 152.113 C 624.910 129.698, 605.568 119.872, 583.590 120.090 C 578.591 120.140, 571.287 120.764, 567.360 121.476 M 697.996 135.275 C 697.994 140.349, 697.699 150.926, 697.339 158.779 L 696.686 173.058 763.093 172.779 C 799.617 172.626, 843.112 172.873, 859.750 173.329 L 890 174.159 890 150.737 L 890 127.314 867.250 126.641 C 854.737 126.270, 811.538 125.986, 771.250 126.008 L 698 126.050 697.996 135.275 M 228.281 127.982 L 191.062 128.500 187.647 131.722 C 180.879 138.107, 172.217 153.650, 168.620 165.864 L 167.040 171.229 173.270 170.627 C 181.747 169.808, 193.437 169.783, 199.584 170.571 C 203.327 171.051, 205.491 170.797, 207.785 169.611 C 211.649 167.613, 216.983 167.548, 221.521 169.444 C 224.809 170.818, 225.129 170.762, 228.048 168.306 L 231.118 165.723 234.357 168.861 C 238.046 172.437, 239.498 172.743, 240.948 170.250 C 244.520 164.112, 244.744 164.092, 249.426 169.480 L 253.753 174.459 256.721 169.778 L 259.690 165.098 263.547 169.049 L 267.405 172.999 270.653 169.852 C 273.706 166.893, 274.038 166.795, 276.212 168.220 C 278.001 169.392, 281.990 169.761, 293.828 169.849 C 302.245 169.912, 309.552 170.223, 310.066 170.541 C 311.528 171.445, 311.175 168.091, 308.968 160.128 C 305.934 149.180, 299.469 137.807, 291.982 130.250 L 288.763 127 277.131 127.232 C 270.734 127.359, 248.751 127.697, 228.281 127.982 M 725.715 137.747 L 714.931 138.068 715.215 148.284 L 715.500 158.500 729.644 158.777 L 743.787 159.054 744.491 151.107 C 744.877 146.736, 744.890 141.774, 744.518 140.080 C 743.900 137.267, 743.523 137.018, 740.171 137.212 C 738.152 137.329, 731.647 137.570, 725.715 137.747 M 376 150.065 C 337.007 150.780, 330.517 151.298, 331.410 153.627 C 331.695 154.369, 332.235 157.294, 332.611 160.128 L 333.295 165.281 343.011 164.645 C 348.354 164.294, 380.610 163.997, 414.690 163.985 L 476.654 163.961 478.950 159.875 C 480.213 157.627, 482.588 154.261, 484.227 152.394 L 487.207 149 450.354 149.189 C 430.084 149.293, 396.625 149.687, 376 150.065 M 601.683 156.250 C 599.785 158.588, 595.896 164.100, 593.040 168.500 C 590.185 172.900, 587.138 177.287, 586.269 178.250 C 584.805 179.873, 584.878 180, 587.280 180 C 588.704 180, 591.029 180.441, 592.446 180.979 C 594.907 181.915, 594.993 182.206, 594.373 187.479 C 593.594 194.111, 594.544 194.462, 602.120 190.338 C 604.809 188.874, 607.319 187.986, 607.697 188.364 C 608.075 188.742, 607.898 191.402, 607.303 194.276 C 606.708 197.149, 606.423 199.838, 606.670 200.250 C 607.464 201.579, 610.978 201.052, 615 199 C 617.156 197.900, 619.163 197, 619.460 197 C 620.373 197, 620.060 201.067, 618.832 205.166 C 616.873 211.706, 619.424 211.907, 628.781 205.952 C 630.783 204.677, 631.178 204.683, 632.020 206 C 632.547 206.825, 632.727 208.175, 632.418 209 C 632.110 209.825, 631.609 212.577, 631.306 215.115 C 630.664 220.478, 631.985 221.962, 635.294 219.593 C 636.507 218.724, 638.534 217.267, 639.797 216.354 C 643.265 213.847, 644.273 215.663, 642.846 221.846 C 640.958 230.024, 644.033 230.919, 651.169 224.269 C 655.819 219.935, 657.363 223.503, 654.453 231.859 C 653.618 234.257, 653.205 237.069, 653.535 238.109 C 654.317 240.576, 657.217 240.522, 659.500 238 C 662.007 235.230, 663.256 235.518, 665 239.272 C 667.009 243.596, 670.679 243.323, 676.682 238.404 C 685.223 231.406, 691.156 220.840, 692.583 210.089 C 693.212 205.342, 693.094 205.026, 689.113 200.837 L 684.992 196.500 682.139 199.912 C 680.089 202.365, 678.789 203.133, 677.516 202.645 C 675.983 202.056, 675.837 201.161, 676.424 195.970 C 676.797 192.672, 676.817 189.513, 676.468 188.948 C 676.073 188.310, 674.118 188.881, 671.291 190.461 C 665.784 193.539, 664.842 193.588, 662.425 190.917 C 661.389 189.772, 659.181 188.262, 657.520 187.563 C 655.859 186.863, 650.900 183.351, 646.500 179.758 C 638.222 172.997, 607.607 152, 606.028 152 C 605.536 152, 603.581 153.912, 601.683 156.250 M 433.917 173.396 C 433.688 173.614, 411.070 173.952, 383.655 174.146 C 356.240 174.341, 333.670 174.725, 333.500 175.001 C 333.330 175.276, 333.440 178.607, 333.744 182.402 L 334.298 189.303 376.090 188.746 L 417.882 188.189 421.837 185.011 C 424.012 183.262, 429.552 179.858, 434.146 177.445 L 442.500 173.058 438.417 173.029 C 436.171 173.013, 434.146 173.178, 433.917 173.396 M 567.797 181.245 C 564.452 184.396, 557.906 193.037, 551.447 202.826 L 540.675 219.151 545.727 224.203 C 548.505 226.982, 551.199 228.995, 551.713 228.677 C 552.228 228.359, 554.787 224.814, 557.401 220.800 C 560.016 216.785, 565.882 207.794, 570.438 200.820 C 574.994 193.845, 579.642 186.280, 580.766 184.009 L 582.809 179.878 580.531 179.012 C 579.279 178.536, 577.409 178.001, 576.377 177.823 C 575.345 177.645, 574.247 177.160, 573.938 176.745 C 573.629 176.330, 570.865 178.355, 567.797 181.245 M 306.500 178.612 C 305.400 178.799, 298.459 179.075, 291.076 179.226 L 277.652 179.500 277.576 192 C 277.505 203.615, 277.300 204.908, 274.672 210.258 C 268.416 222.999, 252.828 230.637, 234.746 229.821 C 226.380 229.444, 224.814 229.042, 218.291 225.600 C 209.967 221.207, 202.708 213.997, 200.955 208.382 C 200.289 206.247, 199.530 199.268, 199.270 192.873 L 198.797 181.246 184.648 180.711 C 176.867 180.417, 169.559 179.878, 168.408 179.513 C 166.361 178.864, 166.302 179.201, 165.658 195.175 C 164.953 212.681, 165.608 219.253, 168.942 228.133 C 173.002 238.948, 188.197 257.708, 196.430 262.068 C 198.955 263.406, 201.309 265.400, 201.661 266.500 C 202.651 269.589, 202.196 478.951, 201.027 558.364 C 200.271 609.726, 200.287 630.366, 201.084 633.364 C 202.822 639.902, 207.942 648.715, 212.279 652.633 C 219.064 658.763, 226.228 661.498, 235.500 661.499 C 242.203 661.500, 244.407 661.054, 249.096 658.752 C 256.216 655.255, 265.254 645.848, 268.763 638.281 L 271.445 632.500 271.585 496.500 C 271.663 421.700, 271.788 338.992, 271.863 312.703 L 272 264.907 275.099 263.203 C 286.518 256.928, 298.371 244.544, 307.336 229.525 L 311.500 222.550 311.819 200.275 C 312.168 175.840, 312.595 177.577, 306.500 178.612 M 745.389 186.781 L 734.278 187.063 733.639 193.178 C 732.831 200.914, 732.823 249.739, 733.630 252.750 C 734.185 254.821, 734.811 255, 741.470 255 L 748.707 255 749.353 247.349 C 749.709 243.141, 750 230.541, 750 219.349 L 750 199 758.875 199 C 763.756 199, 769.156 198.719, 770.875 198.375 L 774 197.750 774.003 209.625 C 774.005 216.156, 774.301 228.597, 774.661 237.270 C 775.280 252.210, 775.425 253.063, 777.407 253.469 C 778.558 253.705, 796.263 254.189, 816.750 254.546 L 854 255.195 854 220.569 L 854 185.944 805.250 186.222 C 778.438 186.375, 751.500 186.627, 745.389 186.781 M 456.896 194.068 C 433.733 197.473, 412.818 216.391, 408.923 237.458 C 407.496 245.179, 408.365 246.871, 416.175 251.570 C 419.654 253.663, 425.875 257.906, 430 260.999 C 434.125 264.092, 444.025 271.059, 452 276.482 C 465.165 285.433, 481.821 297.708, 505 315.541 C 509.675 319.138, 515.879 324.358, 518.786 327.140 L 524.071 332.199 520.235 336.361 C 518.125 338.650, 514.437 343.443, 512.040 347.012 C 501.588 362.574, 491.484 376.292, 489.532 377.571 C 487.102 379.163, 482.286 378.194, 475.526 374.753 C 464.286 369.033, 407.495 328.504, 401.645 322.029 C 396.323 316.137, 396.645 313.279, 403.678 303.995 C 406.801 299.873, 411.589 293.125, 414.318 289 C 417.048 284.875, 421.280 279.135, 423.722 276.245 C 426.165 273.355, 428.014 270.653, 427.832 270.241 C 427.146 268.694, 416.261 259, 415.209 259 C 414.605 259, 412.324 261.137, 410.140 263.750 C 394.224 282.786, 389.931 288.247, 386.538 293.773 C 384.420 297.223, 380.470 302.580, 377.761 305.676 C 373.215 310.871, 371 314.625, 371 317.135 C 371 317.687, 375.500 322.823, 381 328.549 C 386.500 334.274, 391 339.432, 391 340.010 C 391 340.589, 390.212 341.316, 389.250 341.625 C 382.611 343.758, 381.981 344.265, 381.392 347.949 L 380.801 351.648 375.400 351.200 C 370.106 350.761, 370 350.805, 370 353.416 C 370 354.881, 370.901 357.845, 372.002 360.004 L 374.004 363.928 371.980 365.011 C 370.714 365.688, 367.659 365.834, 363.833 365.402 L 357.710 364.709 358.416 367.604 C 358.804 369.197, 360.232 372.197, 361.589 374.271 C 364.615 378.896, 363.690 379.522, 355.001 378.734 C 347.742 378.076, 347.270 378.884, 350.116 387.107 C 351.263 390.421, 351.962 393.371, 351.670 393.664 C 351.377 393.956, 348.835 393.701, 346.020 393.098 C 343.205 392.494, 340.249 392, 339.451 392 C 337.629 392, 337.574 394.931, 339.347 397.527 C 340.087 398.612, 341.536 400.808, 342.565 402.408 L 344.437 405.315 336.703 404.615 C 327.271 403.760, 326.466 404.722, 330.332 412.225 C 331.767 415.009, 332.748 417.599, 332.513 417.979 C 332.278 418.359, 329.073 418.266, 325.390 417.773 C 317.973 416.779, 316.606 417.498, 317.382 421.983 C 317.645 423.503, 316.783 426.216, 315.156 428.983 C 312.760 433.058, 312.500 434.478, 312.500 443.500 C 312.500 451.850, 312.857 454.160, 314.662 457.500 C 319.328 466.131, 327.882 471.496, 338.797 472.637 C 346.295 473.420, 356.488 470.555, 363.866 465.590 C 366.658 463.711, 370.574 461.636, 372.568 460.978 C 375.986 459.849, 376.159 459.588, 375.597 456.391 C 373.474 444.328, 373.103 445.110, 379.739 447.644 C 382.107 448.549, 384.303 449.030, 384.620 448.714 C 384.936 448.397, 384.521 445.182, 383.696 441.569 C 381.998 434.124, 382.071 434.055, 389.055 436.519 C 394.728 438.521, 395.683 437.451, 393.621 431.401 C 392.729 428.784, 392 425.814, 392 424.799 C 392 423.125, 392.209 423.088, 394.250 424.395 C 396.391 425.767, 399.010 426.368, 401.750 426.115 C 403.517 425.952, 403.308 423.884, 400.975 418.441 C 399.861 415.843, 399.128 413.539, 399.345 413.322 C 399.562 413.104, 402.065 413.843, 404.907 414.963 C 407.749 416.084, 410.507 417, 411.037 417 C 412.558 417, 412.168 413.464, 410.024 407.820 C 408.937 404.960, 408.272 402.395, 408.546 402.121 C 408.820 401.847, 411.071 402.608, 413.549 403.811 C 416.026 405.015, 418.716 406, 419.527 406 C 421.436 406, 421.425 402.456, 419.500 397 C 417.771 392.100, 417.547 388, 419.009 388 C 419.563 388, 421.881 389.350, 424.159 391 C 426.436 392.650, 428.683 394, 429.150 394 C 430.467 394, 430.155 388.830, 428.511 383.409 C 426.690 377.406, 426.693 377.500, 428.351 378.876 C 430.073 380.306, 439 381.566, 439 380.379 C 439 379.888, 438.581 378.027, 438.070 376.243 C 436.987 372.467, 438.094 371.939, 439.925 375.359 C 440.619 376.657, 444.562 380.557, 448.688 384.026 C 452.813 387.496, 456.545 391.272, 456.980 392.417 C 458.402 396.154, 457.081 398.452, 428.481 442 C 423.966 448.875, 416.097 461.250, 410.993 469.500 C 405.890 477.750, 398.253 489.675, 394.021 496 C 389.789 502.325, 379.196 518.300, 370.480 531.500 C 361.764 544.700, 351.025 560.900, 346.615 567.500 C 342.205 574.100, 336.066 583.325, 332.973 588 C 315.391 614.572, 266.011 688.242, 254.883 704.500 C 233.985 735.036, 231.274 738.966, 223.850 749.500 C 219.973 755, 213.390 764.675, 209.220 771 C 205.051 777.325, 197.705 787.931, 192.897 794.569 C 180.136 812.184, 176.900 819.221, 175.455 832.500 C 174.058 845.338, 178.993 858.644, 189.198 869.553 C 196.418 877.271, 204.185 881.412, 215.695 883.679 C 223.043 885.127, 224.598 885.129, 233.051 883.704 C 246.113 881.501, 255.357 876.757, 264.454 867.585 C 271.316 860.666, 275.500 854.573, 298.767 817.617 C 303.921 809.432, 315.465 791.657, 324.422 778.117 C 353.131 734.717, 366.072 714.866, 375.999 699 C 390.813 675.323, 401.180 659.156, 413.510 640.500 C 425.295 622.671, 438.449 602.306, 455.495 575.500 C 461.091 566.700, 470.309 552.300, 475.980 543.500 C 481.650 534.700, 490.127 521.200, 494.816 513.500 C 499.506 505.800, 508.966 490.725, 515.840 480 C 547.204 431.065, 551.599 423.500, 558.944 405.810 C 562.244 397.861, 580.826 364.636, 585.590 358.166 C 587.075 356.150, 591.999 350.900, 596.533 346.500 C 601.067 342.100, 605.249 337.600, 605.825 336.500 C 606.836 334.569, 606.986 334.559, 610.186 336.215 C 616.272 339.366, 618.619 339.421, 624.486 336.550 C 634.387 331.706, 642.402 319.569, 641.806 310.323 C 641.512 305.758, 641.241 305.375, 634.879 300.536 C 625.104 293.102, 612.235 283.617, 598.592 273.791 C 591.941 269.001, 584.382 263.039, 581.793 260.541 C 579.204 258.043, 576.857 256, 576.578 256 C 576.299 256, 577.053 258.137, 578.253 260.750 C 580.022 264.602, 580.426 267.296, 580.394 275 C 580.358 283.432, 579.940 285.610, 576.677 294.369 C 572.452 305.709, 572.611 305, 574.300 305 C 576.429 305, 601 327.292, 601 329.223 C 601 329.650, 599.295 330, 597.211 330 C 593.664 330, 593.204 330.366, 589.988 335.750 C 588.099 338.913, 584.991 343.750, 583.081 346.500 C 581.171 349.250, 577.587 354.425, 575.116 358 C 569.944 365.482, 562.885 374.333, 561.669 374.860 C 559.588 375.763, 544.928 394.662, 541.968 400.260 C 540.152 403.692, 535.197 411.675, 530.955 418 C 526.713 424.325, 519.292 436.025, 514.465 444 C 509.637 451.975, 503.987 461.019, 501.910 464.097 C 499.833 467.175, 494.575 475.725, 490.225 483.097 C 485.876 490.469, 479.658 500.607, 476.409 505.628 C 473.159 510.648, 466.675 520.739, 462 528.053 C 457.325 535.367, 446.750 551.615, 438.500 564.160 C 417.700 595.789, 393.724 632.672, 382.372 650.500 C 377.119 658.750, 370.682 668.650, 368.067 672.500 C 365.452 676.350, 359.804 685.125, 355.516 692 C 351.228 698.875, 343.577 710.800, 338.514 718.500 C 315.191 753.970, 292.378 789.911, 277.745 814.235 C 272.110 823.603, 265.556 834.470, 263.180 838.384 C 257.287 848.090, 249.859 855.431, 242.015 859.301 C 236.241 862.149, 234.596 862.498, 227.015 862.481 C 220.642 862.467, 217.619 861.993, 215 860.594 C 207.962 856.837, 204.082 852.913, 200.785 846.215 C 197.803 840.158, 197.501 838.710, 197.512 830.521 C 197.522 822.077, 197.758 821.052, 201.197 814.500 C 203.218 810.650, 207.377 803.900, 210.440 799.500 C 213.503 795.100, 220.281 785.200, 225.504 777.500 C 230.726 769.800, 238.566 758.550, 242.927 752.500 C 263.494 723.964, 267.421 718.396, 278.086 702.648 C 320.647 639.807, 344.534 604.375, 353.694 590.500 C 359.503 581.700, 365.996 572.025, 368.123 569 C 370.250 565.975, 378.855 553.153, 387.245 540.506 C 395.635 527.860, 411.243 504.460, 421.929 488.506 C 432.615 472.553, 445.416 453.425, 450.376 446 C 461.892 428.760, 474.102 412.219, 484.814 399.346 C 491.679 391.097, 494.525 388.501, 499.989 385.506 C 508.725 380.717, 515.575 373.005, 532.500 348.906 C 537.450 341.858, 545.186 330.982, 549.692 324.739 C 558.948 311.912, 569.012 293.416, 571.546 284.572 C 574.863 272.998, 571.525 259.491, 563.396 251.596 C 561.261 249.523, 556.131 245.456, 551.997 242.559 C 547.862 239.661, 542.009 235.063, 538.990 232.340 C 529.384 223.678, 506.754 207.506, 495.326 201.137 C 485.988 195.933, 483.133 194.831, 476.889 194.021 C 468.367 192.915, 464.681 192.923, 456.896 194.068 M 363.250 198.749 L 334 199.030 334 206.662 L 334 214.293 341.651 213.647 C 345.859 213.291, 359.529 213, 372.028 213 L 394.754 213 399.877 205.979 C 402.695 202.117, 405 198.742, 405 198.479 C 405 198.215, 402.188 198.105, 398.750 198.234 C 395.313 198.363, 379.337 198.595, 363.250 198.749 M 457.951 213.061 C 450.582 214.146, 442.164 217.374, 437.057 221.074 C 430.310 225.961, 424.124 237.524, 426.817 240.217 C 427.508 240.908, 430.073 239.309, 434.808 235.235 C 447.217 224.554, 459.844 220.051, 477.481 220.017 L 486.462 220 483.444 216.982 C 479.047 212.586, 470.308 211.241, 457.951 213.061 M 348.750 223.748 L 333 224.051 333 231.025 L 333 238 356.433 238 C 377.917 238, 379.912 237.854, 380.423 236.241 C 380.731 235.274, 382.561 232.084, 384.491 229.154 C 386.421 226.223, 388 223.640, 388 223.413 C 388 223.186, 382.712 223.100, 376.250 223.223 C 369.788 223.345, 357.413 223.582, 348.750 223.748 M 567.803 240.533 C 566.748 242.849, 567.026 243.451, 571.047 247.548 C 575.281 251.862, 581.603 254.797, 583.206 253.194 C 583.627 252.773, 584.091 250.219, 584.236 247.520 L 584.500 242.612 579.750 242.882 C 575.243 243.137, 575 243.019, 575 240.576 C 575 238.376, 574.558 238, 571.979 238 C 569.716 238, 568.667 238.636, 567.803 240.533 M 331.293 249.250 C 330.770 249.938, 329.313 252.975, 328.056 256 C 326.799 259.025, 325.364 262.006, 324.867 262.624 C 324.203 263.450, 329.407 263.716, 344.480 263.624 C 355.763 263.556, 364.996 263.191, 364.998 262.813 C 364.999 262.435, 367.025 259.169, 369.500 255.553 C 371.975 251.938, 374 248.760, 374 248.490 C 374 248.221, 364.605 248, 353.122 248 C 337.595 248, 332.001 248.320, 331.293 249.250 M 589.278 252.304 C 586.956 253.512, 585.050 254.725, 585.043 255 C 585.036 255.275, 587.369 257.216, 590.228 259.314 L 595.426 263.128 596.712 257.467 C 597.419 254.353, 597.747 251.399, 597.440 250.903 C 596.553 249.468, 593.830 249.936, 589.278 252.304 M 602.263 262.312 C 600.483 263.515, 599.020 264.735, 599.013 265.022 C 598.967 266.879, 605.633 273.047, 608.762 274.042 C 610.818 274.696, 614.300 276.927, 616.500 278.999 C 620.222 282.504, 624.918 285.594, 625.365 284.831 C 625.472 284.649, 626.333 282.798, 627.279 280.718 C 628.812 277.345, 628.831 276.872, 627.451 276.343 C 626.601 276.017, 624.095 275.992, 621.882 276.289 L 617.859 276.829 618.155 272.664 L 618.451 268.500 613.725 268.840 L 609 269.180 609 264.590 C 609 259.232, 607.547 258.741, 602.263 262.312 M 242 263.824 C 240.067 264.284, 240.634 264.541, 244.500 264.959 L 249.500 265.500 249.112 407 C 248.898 484.825, 249.067 557.861, 249.486 569.303 C 250.235 589.745, 250.285 590.101, 252.374 589.803 L 254.500 589.500 255.055 430.019 C 255.360 342.304, 255.355 268.954, 255.042 267.019 C 254.485 263.564, 254.385 263.498, 249.487 263.364 C 246.744 263.290, 243.375 263.496, 242 263.824 M 224.667 266.667 C 223.716 267.617, 223.843 278.958, 224.963 293.231 C 227.346 323.589, 228.047 361.129, 228.211 467.296 L 228.387 581.091 233.443 580.796 L 238.500 580.500 239.297 572.500 C 240.299 562.440, 239.286 350.536, 238.049 311.500 C 236.935 276.344, 236.720 274.760, 232.619 271.409 C 224.967 265.158, 225.724 265.609, 224.667 266.667 M 697.570 268.187 C 697.341 268.909, 696.944 281.988, 696.687 297.250 L 696.221 325 792.860 325 L 889.500 325 889.500 295.853 L 889.500 266.707 868.546 267.398 C 843.952 268.209, 700.184 268.232, 698.878 267.425 C 698.387 267.121, 697.799 267.464, 697.570 268.187 M 325.923 273.224 C 325.881 273.376, 325.685 274.361, 325.488 275.413 C 325.291 276.465, 324.008 278.446, 322.638 279.816 C 320.466 281.988, 318.825 282.425, 309.824 283.223 C 291.834 284.818, 292.998 284.363, 293.015 289.795 C 293.024 292.383, 293.371 295.035, 293.787 295.689 C 294.333 296.548, 301.619 296.936, 320.022 297.086 L 345.500 297.293 353.320 286.050 C 357.621 279.866, 360.985 274.652, 360.797 274.464 C 360.384 274.051, 326.033 272.830, 325.923 273.224 M 426.930 291.618 C 422.293 298.007, 417.011 305.246, 415.191 307.703 C 412.035 311.966, 411.956 312.283, 413.473 314.599 C 414.348 315.934, 418.330 319.608, 422.322 322.763 C 436.238 333.761, 480.732 366.018, 481.941 365.985 C 483.863 365.932, 494.881 352.998, 499.005 345.953 C 500.761 342.954, 503.278 339.068, 504.599 337.317 C 505.919 335.566, 507 333.742, 507 333.263 C 507 331.746, 500.792 326.440, 491.754 320.233 C 486.944 316.929, 477.269 309.682, 470.254 304.128 C 457.469 294.006, 437.683 280, 436.168 280 C 435.723 280, 431.566 285.228, 426.930 291.618 M 719.250 280.662 C 718.328 281.034, 718 285.092, 718 296.113 L 718 311.060 730.750 310.780 L 743.500 310.500 743.776 295.250 L 744.052 280 732.276 280.079 C 725.799 280.122, 719.938 280.385, 719.250 280.662 M 634.235 286.250 C 630.428 288.896, 630.452 290.850, 634.318 292.966 C 636.971 294.418, 637.225 294.373, 639.061 292.139 C 642.017 288.540, 641.233 284, 637.654 284 C 637.554 284, 636.015 285.012, 634.235 286.250 M 176.364 307.250 C 172.474 311.329, 168 317.250, 168 318.319 C 168 318.600, 170.903 318.980, 174.451 319.165 C 180.208 319.464, 180.960 319.285, 181.437 317.500 C 182.272 314.381, 182.092 303, 181.208 303 C 180.773 303, 178.593 304.913, 176.364 307.250 M 293.295 312.329 C 293.586 315.535, 294.126 318.460, 294.494 318.829 C 295.361 319.699, 328.301 320.355, 332.383 319.584 C 334.937 319.101, 335.861 318.144, 337.500 314.281 C 338.600 311.688, 339.639 309.246, 339.810 308.854 C 340.345 307.621, 332.151 306.997, 312.133 306.744 L 292.765 306.500 293.295 312.329 M 564.061 317.362 C 560.029 322.058, 553.754 330.162, 550.116 335.371 C 527.002 368.462, 516.101 381.360, 506.112 387.437 C 503.025 389.315, 499.310 392.123, 497.856 393.676 C 493.830 397.977, 474.029 424.598, 468.976 432.502 C 466.516 436.351, 457.488 450.075, 448.912 463 C 430.689 490.466, 417.970 509.944, 412.442 518.850 C 409.006 524.386, 403.547 532.641, 379.285 569 C 376.532 573.125, 363.124 593.375, 349.489 614 C 335.853 634.625, 323.767 652.850, 322.630 654.500 C 321.493 656.150, 316.305 663.800, 311.101 671.500 C 296.058 693.757, 267.857 734.852, 262.377 742.500 C 246.918 764.076, 241 772.443, 235.151 781 C 231.579 786.225, 226.753 792.750, 224.426 795.500 C 220.019 800.709, 207 820.668, 207 822.216 C 207 822.704, 209.243 820.409, 211.984 817.115 C 218.252 809.583, 222.310 806.501, 227.929 805.005 C 239.980 801.798, 253.135 810.439, 256.526 823.792 L 257.722 828.500 261.426 821.145 C 263.464 817.100, 268.078 809, 271.681 803.145 C 275.284 797.290, 281.745 786.650, 286.039 779.500 C 290.333 772.350, 300.607 756.150, 308.870 743.500 C 317.134 730.850, 329.206 712.291, 335.697 702.257 C 342.189 692.224, 354.025 673.960, 362 661.672 C 369.975 649.383, 379.166 635.092, 382.424 629.914 C 389.680 618.385, 396.568 607.855, 424.564 565.500 C 447.079 531.436, 452.498 523.081, 469.474 496.259 C 487.430 467.889, 509.701 433.745, 518.686 420.812 C 523.534 413.834, 530.261 404.159, 533.636 399.312 C 537.010 394.465, 544.818 385.145, 550.986 378.600 C 557.661 371.517, 565.323 362.003, 569.913 355.100 C 578.847 341.661, 588.041 328.825, 589.493 327.764 C 590.528 327.007, 589.351 325.867, 578.628 317.238 C 575.398 314.639, 572.448 311.683, 572.073 310.668 C 571.509 309.143, 570.120 310.304, 564.061 317.362 M 159.041 330.596 C 156.052 335.309, 154.498 338.858, 155.159 339.464 C 155.346 339.636, 161.463 340.103, 168.750 340.500 L 182 341.223 182 334.710 L 182 328.196 175.750 327.557 C 172.313 327.205, 167.826 326.674, 165.780 326.376 C 162.226 325.858, 161.927 326.046, 159.041 330.596 M 670.580 333 L 666.017 339 673.532 339 L 681.046 339 679.635 336.750 C 678.859 335.512, 677.929 332.813, 677.567 330.750 C 677.205 328.688, 676.512 327, 676.026 327 C 675.540 327, 673.090 329.700, 670.580 333 M 293.209 335 L 293.500 341.500 317.500 341.598 C 333.913 341.664, 341.732 341.348, 342.235 340.598 C 342.639 339.994, 342.976 337.847, 342.985 335.828 C 342.999 332.473, 342.679 332.049, 339.289 330.930 C 337.124 330.216, 326.692 329.455, 314.248 329.103 L 292.918 328.500 293.209 335 M 738.750 339.739 L 733 340.100 733 408.971 L 733 477.842 740.750 478.188 C 745.013 478.378, 748.725 478.377, 749 478.184 C 749.275 477.992, 749.725 449.409, 750 414.667 L 750.500 351.500 762.125 351.219 C 773.491 350.945, 773.764 350.990, 774.362 353.219 C 774.698 354.474, 774.979 383.063, 774.986 416.750 L 775 478 814.500 478 L 854 478 853.992 435.750 C 853.987 412.512, 854.168 384.050, 854.393 372.500 C 854.618 360.950, 854.557 348.688, 854.257 345.250 L 853.711 339 799.105 339.189 C 769.072 339.293, 741.913 339.541, 738.750 339.739 M 392.563 348.029 C 390.517 351.344, 387.837 354.716, 386.609 355.521 C 385.380 356.326, 383.104 359.644, 381.551 362.894 C 379.986 366.168, 377.739 369.253, 376.514 369.812 C 375.297 370.366, 373.295 372.098, 372.065 373.660 C 365.667 381.784, 352.978 399.361, 350.679 403.285 C 349.235 405.749, 347.371 408.028, 346.537 408.348 C 345.703 408.668, 343.371 411.533, 341.355 414.715 C 339.339 417.897, 336.248 422.118, 334.486 424.096 C 327.596 431.832, 326.458 440.560, 331.371 447.984 C 336.441 455.645, 347.482 457.128, 357.770 451.529 C 363.257 448.542, 371.635 439.596, 374.854 433.287 C 376.016 431.009, 377.820 428.875, 378.863 428.544 C 379.906 428.212, 382.704 424.917, 385.081 421.221 C 387.458 417.524, 391.691 412.025, 394.487 409 C 400.413 402.591, 404.815 397.065, 411.286 387.913 C 413.966 384.123, 417.845 380.124, 420.423 378.494 C 424.972 375.619, 431 368.351, 431 365.742 C 431 363.473, 427.370 360.691, 425.674 361.660 C 420.847 364.418, 381.444 411.060, 373.432 423.500 C 368.683 430.873, 361.821 439.361, 358.428 442.057 C 354.067 445.523, 347.840 447.418, 343.602 446.570 C 339.556 445.761, 335.165 441.396, 334.424 437.446 C 333.604 433.075, 335.457 429.828, 346.311 416.622 C 351.318 410.529, 357.684 402.336, 360.458 398.414 C 369.026 386.300, 379.417 372.944, 388.399 362.500 C 393.130 357, 398.218 350.762, 399.707 348.638 C 402.330 344.895, 402.355 344.733, 400.516 343.388 C 397.432 341.133, 396.475 341.691, 392.563 348.029 M 654.795 354.637 L 650.350 361.500 654.925 362.162 C 657.441 362.527, 670.638 362.864, 684.250 362.912 L 709 363 709 356.607 C 709 352.411, 708.570 350.052, 707.750 349.742 C 707.063 349.483, 697.950 349.199, 687.500 349.111 C 677.050 349.023, 666.416 348.687, 663.870 348.363 L 659.239 347.774 654.795 354.637 M 148.077 352 C 147.143 353.375, 145.654 356.413, 144.770 358.750 L 143.161 363 162.080 363 L 181 363 181 358.082 C 181 355.377, 181.265 352.474, 181.588 351.630 C 182.099 350.299, 180.045 350.058, 165.976 349.799 L 149.776 349.500 148.077 352 M 293.202 356.549 L 293.500 363.262 312 363.101 C 329.839 362.945, 330.554 362.861, 332 360.743 C 332.825 359.536, 334.734 357.131, 336.242 355.401 L 338.984 352.254 317.742 351.562 C 306.059 351.182, 295.691 350.638, 294.702 350.353 C 293.080 349.885, 292.934 350.488, 293.202 356.549 M 877.639 366.694 C 877.288 367.046, 877 371.758, 877 377.167 C 877 386.087, 877.173 387, 878.860 387 C 879.884 387, 882.855 387.292, 885.463 387.650 C 889.917 388.260, 890.138 388.185, 889.120 386.400 C 888.524 385.355, 886.286 380.625, 884.146 375.888 C 880.324 367.424, 878.909 365.425, 877.639 366.694 M 588.252 372.750 C 585.513 375.183, 582.284 383.441, 581.086 391.076 C 580.532 394.609, 579.765 421.462, 579.382 450.750 L 578.685 504 582.093 503.997 L 585.500 503.994 585.468 461.747 C 585.451 438.511, 585.093 410.950, 584.672 400.500 C 584.252 390.050, 584.273 380.969, 584.720 380.319 C 585.323 379.443, 586.110 379.574, 587.773 380.829 C 591.205 383.417, 591.859 393.200, 592.368 449.500 C 592.616 477, 593.137 500.512, 593.526 501.750 C 594.190 503.861, 594.780 504, 603.117 504 L 612 504 612 440.434 C 612 400.883, 611.630 376.178, 611.021 375.039 C 609.615 372.411, 604.702 371, 596.962 371 C 591.960 371, 589.714 371.451, 588.252 372.750 M 137.874 374.750 C 135.664 380.393, 134 385.279, 134 386.126 C 134 387.105, 173.041 387.342, 177.794 386.391 C 180.751 385.800, 180.849 385.601, 181.169 379.525 L 181.500 373.269 171.094 372.634 C 165.371 372.285, 155.798 372, 149.820 372 L 138.950 372 137.874 374.750 M 642.827 379.114 L 643.154 385.736 672.989 386.467 C 689.399 386.869, 704.215 386.892, 705.913 386.519 C 708.971 385.847, 709 385.782, 709 379.421 L 709 373 700.750 372.808 C 696.212 372.703, 681.250 372.589, 667.500 372.554 L 642.500 372.491 642.827 379.114 M 293 379.500 L 293 386 300.860 386 C 305.184 386, 310.809 386.286, 313.360 386.636 C 317.463 387.198, 318.001 387.054, 318.006 385.386 C 318.013 383.404, 319.419 380.337, 322.427 375.750 L 324.230 373 308.615 373 L 293 373 293 379.500 M 126.915 404.053 C 125.737 407.932, 125.008 411.342, 125.296 411.629 C 125.584 411.917, 137.975 411.828, 152.833 411.431 L 179.847 410.710 180.174 403.853 L 180.500 396.995 154.779 396.998 L 129.058 397 126.915 404.053 M 293.032 405.750 L 293.063 414.500 295.282 411.834 C 296.502 410.367, 299.411 406.430, 301.748 403.084 L 305.995 397 299.498 397 L 293 397 293.032 405.750 M 643 403.858 L 643 410.715 649.147 411.358 C 652.527 411.711, 664.611 412, 676 412 C 687.389 412, 699.473 411.711, 702.853 411.358 L 709 410.715 709 403.858 L 709 397 676 397 L 643 397 643 403.858 M 884.855 397.749 C 877.346 398.130, 877.039 398.503, 877.014 407.250 L 877 412 887.500 412 C 895.265 412, 897.985 411.674, 897.941 410.750 C 897.820 408.221, 893.468 397.647, 892.500 397.532 C 891.950 397.466, 888.510 397.564, 884.855 397.749 M 120.422 424.750 C 120.083 426.262, 119.402 429.075, 118.909 431 C 118.415 432.925, 118.009 434.795, 118.006 435.155 C 117.998 435.988, 165.461 436.193, 173.608 435.396 L 179.716 434.797 179.892 428.399 L 180.068 422 150.553 422 L 121.038 422 120.422 424.750 M 643 428.871 L 643 435.743 668.250 436.166 C 682.138 436.399, 696.987 436.408, 701.250 436.186 L 709 435.781 709 428.891 L 709 422 676 422 L 643 422 643 428.871 M 877.591 422.743 C 877.266 423.067, 876.999 426.296, 876.998 429.917 L 876.997 436.500 891.498 436.199 C 899.474 436.033, 905.984 435.808, 905.965 435.699 C 905.946 435.589, 905.112 432.575, 904.112 429 L 902.294 422.500 890.238 422.326 C 883.607 422.230, 877.916 422.418, 877.591 422.743 M 114.618 447.500 C 114.357 448.600, 113.835 451.637, 113.458 454.250 L 112.773 459 145.798 459 L 178.822 459 179.201 452.750 C 179.409 449.313, 179.412 446.275, 179.206 446 C 179.001 445.725, 164.491 445.500, 146.962 445.500 C 115.916 445.500, 115.079 445.552, 114.618 447.500 M 643 452.311 L 643 458.622 675.098 459.880 C 692.752 460.572, 707.315 460.994, 707.461 460.819 C 707.607 460.643, 708.019 457.526, 708.377 453.891 L 709.027 447.282 703.763 446.650 C 700.869 446.302, 686.013 446.013, 670.750 446.009 L 643 446 643 452.311 M 882.750 446.723 L 877 447.100 877 454.044 L 877 460.987 893.750 460.355 C 902.962 460.007, 910.658 459.589, 910.851 459.427 C 911.044 459.264, 910.590 456.289, 909.842 452.816 L 908.483 446.500 898.491 446.423 C 892.996 446.381, 885.913 446.516, 882.750 446.723 M 547.185 472.250 C 545.556 475.137, 543.918 478.512, 543.544 479.750 C 542.918 481.826, 543.180 482, 546.933 482 L 551 482 551 474.500 C 551 470.375, 550.808 467, 550.573 467 C 550.339 467, 548.814 469.363, 547.185 472.250 M 112.118 468.906 C 110.692 469.809, 108.665 479.649, 109.595 481.154 C 109.883 481.619, 125.616 482, 144.559 482 L 179 482 179 475.660 L 179 469.320 154.838 468.660 C 123.089 467.793, 113.791 467.846, 112.118 468.906 M 293 474.918 L 293 481.836 299.842 482.168 L 306.685 482.500 300.114 475.250 C 296.500 471.262, 293.421 468, 293.271 468 C 293.122 468, 293 471.113, 293 474.918 M 642.835 475.498 L 643.171 482 660.085 482 C 670.612 482, 677.047 481.622, 677.125 481 C 677.194 480.450, 677.362 479.550, 677.500 479 C 677.638 478.450, 677.806 477.585, 677.875 477.077 C 677.944 476.569, 679.122 474.821, 680.492 473.191 L 682.985 470.229 680.742 469.628 C 679.509 469.298, 670.400 469.020, 660.500 469.012 L 642.500 468.996 642.835 475.498 M 903.541 469.933 C 902.428 471.735, 907.845 479.744, 910.655 480.450 C 912.075 480.806, 913.372 480.961, 913.539 480.795 C 913.705 480.628, 913.540 478.019, 913.171 474.996 L 912.500 469.500 908.342 469.197 C 906.055 469.030, 903.895 469.362, 903.541 469.933 M 311.500 490.083 C 309.850 490.457, 305.012 490.817, 300.750 490.882 L 293 491 293 497.940 L 293 504.880 327.750 504.372 C 358.895 503.918, 362.538 503.695, 362.863 502.224 C 363.352 500.016, 365.810 496.123, 368.932 492.611 L 371.500 489.723 368.500 490.276 C 366.850 490.581, 359.425 491.363, 352 492.015 C 338.772 493.176, 327.708 492.602, 318 490.251 C 316.075 489.784, 313.150 489.709, 311.500 490.083 M 910.835 497.422 L 910.500 503.844 913.858 504.234 L 917.216 504.624 916.534 498.597 C 915.735 491.540, 915.486 491, 913.026 491 C 911.446 491, 911.121 491.954, 910.835 497.422 M 107.568 498.105 C 107.188 501.463, 107.038 504.371, 107.235 504.568 C 107.431 504.765, 123.547 505.055, 143.046 505.213 L 178.500 505.500 178.500 498.750 L 178.500 492 143.379 492 L 108.258 492 107.568 498.105 M 537.430 492.765 C 536.842 493.169, 534.465 496.087, 532.149 499.250 L 527.937 505 538.468 505 L 549 505 549 499.125 C 549 493.345, 548.949 493.240, 545.875 492.625 C 541.779 491.806, 538.754 491.856, 537.430 492.765 M 767.250 492.750 L 698 493.014 697.989 519.757 C 697.983 534.466, 697.717 548.075, 697.399 550 L 696.820 553.500 793.160 553.455 C 867.697 553.421, 889.477 553.138, 889.400 552.205 C 889.345 551.542, 889.232 537.725, 889.150 521.500 L 889 492 862.750 492.243 C 848.313 492.377, 805.337 492.605, 767.250 492.750 M 643.835 499.578 L 643.500 506.156 659.767 505.843 C 672.900 505.590, 675.934 505.270, 675.517 504.183 C 675.233 503.442, 675 500.623, 675 497.918 L 675 493 659.585 493 L 644.171 493 643.835 499.578 M 731.400 504.778 L 718.299 505.056 717.736 520.499 C 717.426 528.992, 717.407 536.841, 717.695 537.941 C 718.188 539.827, 719.003 539.933, 732.109 539.808 L 746 539.675 745.882 524.588 C 745.817 516.289, 745.479 508.375, 745.132 507 L 744.500 504.500 731.400 504.778 M 585.750 512.749 L 560 513.034 560 521.017 L 560 529 557.250 529.026 C 552.866 529.067, 542.138 533.123, 533.514 538 C 518.679 546.389, 500.448 567.331, 493.492 583.973 C 487.988 597.142, 483 616.919, 483 625.572 C 483 626.800, 498.120 627, 591.150 627 L 699.301 627 698.658 617.189 C 696.736 587.865, 682.319 560.832, 659.700 544.143 C 651.592 538.160, 640.463 532.333, 633.984 530.678 L 628.500 529.277 628.211 520.638 L 627.922 512 619.711 512.232 C 615.195 512.360, 599.913 512.593, 585.750 512.749 M 911 519.673 L 911 526 914.250 526.002 L 917.500 526.004 917.166 520.103 C 916.846 514.444, 916.713 514.185, 913.916 513.774 L 911 513.346 911 519.673 M 318.250 514.767 L 293 515.034 293 521.517 L 293 528 320.500 528 C 346.017 528, 348.001 527.874, 348.018 526.250 C 348.028 525.288, 349.350 522.117, 350.956 519.203 L 353.876 513.907 348.688 514.203 C 345.835 514.367, 332.137 514.620, 318.250 514.767 M 106.475 520.353 C 105.303 529.731, 102.262 529, 142.469 529 L 178 529 177.998 522.250 L 177.997 515.500 142.587 515.120 L 107.176 514.739 106.475 520.353 M 665.663 520.774 C 675.989 529.218, 675 529.075, 675 522.122 L 675 516 667.413 516 L 659.825 516 665.663 520.774 M 571.528 537.066 C 564.517 538.239, 559.023 540.444, 547.187 546.838 C 538.927 551.300, 535.386 553.967, 529.397 560.236 C 517.137 573.068, 507.941 589.182, 503.903 604.910 C 500.887 616.654, 500.152 615.835, 514.031 616.191 L 526.062 616.500 527.090 612.500 C 528.879 605.546, 529.212 604.644, 532.481 597.912 C 536.339 589.970, 544.840 578.282, 552.143 570.878 C 561.242 561.654, 574.706 553.835, 588.185 549.946 C 594.788 548.041, 596.039 547.320, 597.077 544.815 C 598.542 541.278, 596.951 537.490, 593.626 536.598 C 590.637 535.796, 577.458 536.075, 571.528 537.066 M 910 543 C 910 549.234, 910.210 550, 911.918 550 C 912.973 550, 914.548 550.273, 915.418 550.607 C 916.775 551.128, 917 550.133, 917 543.607 L 917 536 913.500 536 L 910 536 910 543 M 314.750 537.749 L 293 538.039 293 545.041 L 293 552.043 312.237 551.772 C 330.101 551.519, 331.500 551.367, 331.833 549.634 C 332.030 548.607, 333.498 545.707, 335.096 543.188 C 338.003 538.603, 338.656 536.799, 337.250 537.229 C 336.837 537.356, 326.712 537.589, 314.750 537.749 M 106.011 542.250 C 106.017 544.038, 106.301 547.188, 106.642 549.250 L 107.262 553 142.631 553 L 178 553 178 546 L 178 539 142 539 L 106 539 106.011 542.250 M 910.500 560.692 C 909.400 560.923, 907.375 562.941, 906 565.176 C 901.643 572.260, 898.707 573.799, 888.006 574.607 C 874.264 575.645, 879.495 576.846, 898.119 576.930 L 913.738 577 914.358 573.250 C 914.699 571.188, 914.983 567.362, 914.989 564.750 C 915 559.902, 914.862 559.777, 910.500 560.692 M 293 569 L 293 576 301.750 575.986 C 312.920 575.969, 314.642 575.466, 315.900 571.856 C 316.465 570.236, 317.843 567.624, 318.963 566.051 C 320.084 564.478, 321 562.923, 321 562.596 C 321 562.268, 314.700 562, 307 562 L 293 562 293 569 M 108 570.095 L 108 577 143 577 L 178 577 178 569.956 L 178 562.912 143 563.051 L 108 563.190 108 570.095 M 738.343 567.799 L 733.186 568.098 732.726 600.299 C 732.307 629.618, 732.067 633.216, 730.052 640.500 C 726.146 654.615, 721.556 661.941, 706.948 677.374 C 689.808 695.481, 665.314 709.213, 636.758 716.726 L 626.500 719.424 562 719.753 L 497.500 720.081 497.500 783.360 L 497.500 846.638 566 846.447 L 634.500 846.255 649.219 843.663 C 671.425 839.752, 684.273 835.967, 705.500 827.080 C 739.626 812.792, 770.682 789.053, 798.235 756.192 C 824.814 724.495, 844.921 682.270, 851.901 643.500 C 853.475 634.757, 854.004 626.038, 854.478 601 C 854.807 583.675, 854.721 569.050, 854.288 568.500 C 853.571 567.590, 752.479 566.979, 738.343 567.799 M 755.250 580.737 L 750 581.105 749.966 599.802 C 749.892 641.208, 746.235 654.021, 728.021 676.695 C 702.732 708.177, 677.307 723.834, 637.827 732.238 L 622.500 735.500 570.500 735.563 C 511.066 735.635, 510.782 735.642, 513.250 737.080 C 514.742 737.949, 515.002 739.674, 515.015 748.800 C 515.024 754.685, 515.403 760.086, 515.857 760.803 C 517.397 763.231, 529.378 763.721, 583 763.553 C 642.875 763.365, 644.317 763.235, 665.117 756.169 C 694.636 746.142, 715.950 733.389, 737.370 712.938 C 752.649 698.350, 761.446 685.230, 768.350 666.732 C 774.148 651.197, 775 643.914, 775 609.869 L 775 580 767.750 580.185 C 763.763 580.287, 758.138 580.535, 755.250 580.737 M 296.864 585.722 C 293.726 586.054, 293.145 586.527, 292.614 589.179 C 292.276 590.868, 292 594.156, 292 596.486 C 292 600.483, 292.144 600.695, 294.538 600.237 C 296.090 599.941, 297.700 598.537, 298.679 596.626 C 299.560 594.907, 301.590 591.587, 303.189 589.250 L 306.096 585 303.298 585.168 C 301.759 585.261, 298.864 585.510, 296.864 585.722 M 111.506 593.940 C 111.889 597.548, 112.409 600.837, 112.661 601.250 C 112.912 601.663, 127.491 602, 145.059 602 L 177 602 177 599.140 C 177 597.566, 177.291 594.154, 177.647 591.557 L 178.295 586.834 144.551 587.107 L 110.808 587.380 111.506 593.940 M 878 593.939 L 878 600.877 882.649 601.575 C 885.206 601.958, 892.501 601.873, 898.860 601.386 L 910.422 600.500 911.090 597 C 911.457 595.075, 912.026 592.038, 912.354 590.250 L 912.950 587 895.475 587 L 878 587 878 593.939 M 232.264 603.963 C 228.466 604.877, 222.505 609.189, 220.904 612.180 C 216.057 621.237, 219.439 632.024, 228.401 636.095 C 233.741 638.520, 238.377 638.480, 243.573 635.965 C 249.679 633.009, 253.384 627.201, 253.449 620.485 C 253.508 614.326, 251.583 611.057, 245.406 606.823 C 240.903 603.738, 236.861 602.858, 232.264 603.963 M 882.164 611.740 C 877.877 612.038, 876.944 612.411, 877.414 613.637 C 877.736 614.477, 878 618.952, 878 623.582 L 878 632 888.250 631.986 C 893.888 631.979, 899.453 631.717, 900.618 631.404 C 902.268 630.961, 903.318 628.925, 905.380 622.168 C 906.835 617.401, 908.020 612.938, 908.013 612.250 C 908 611.013, 896.043 610.777, 882.164 611.740 M 115.589 615.750 C 115.963 617.813, 117.108 622.250, 118.132 625.612 L 119.995 631.724 127.248 632.340 C 140.907 633.502, 169.659 634.287, 173.330 633.598 L 177 632.909 177 622.455 L 177 612 145.955 612 L 114.909 612 115.589 615.750 M 467.606 638.298 C 465.022 640.188, 464.499 646.143, 466.540 650.443 C 469.947 657.624, 460.174 657.101, 590.148 657.051 L 707.500 657.006 710.690 653.584 C 714.670 649.313, 715.914 643.743, 713.703 640.099 L 712.126 637.500 590.692 637.295 C 497.101 637.137, 468.880 637.367, 467.606 638.298 M 123.341 643.500 C 123.543 644.050, 124.688 647.472, 125.887 651.104 C 129.492 662.031, 127.454 661.239, 153.094 661.668 C 165.417 661.874, 178.013 662.169, 181.085 662.323 L 186.669 662.604 182.184 654.052 C 179.717 649.348, 177.295 645.050, 176.802 644.500 C 175.575 643.132, 122.845 642.146, 123.341 643.500 M 875.563 650.612 C 874.624 655.343, 873.609 659.856, 873.308 660.640 C 872.853 661.826, 874.396 662.019, 882.463 661.786 C 887.800 661.631, 892.505 661.054, 892.920 660.502 C 894.123 658.902, 897.933 648.783, 898.568 645.500 L 899.149 642.500 888.210 642.255 L 877.272 642.010 875.563 650.612 M 433.558 655.710 L 427.859 664.500 438.179 665.011 C 443.856 665.292, 448.648 665.444, 448.830 665.348 C 449.011 665.252, 448.336 663.939, 447.330 662.431 C 446.323 660.923, 444.571 656.974, 443.436 653.656 C 442.300 650.338, 440.895 647.465, 440.314 647.271 C 439.733 647.078, 436.693 650.875, 433.558 655.710 M 134 672.272 C 134 672.697, 135.322 675.959, 136.937 679.522 L 139.875 686 157.187 686.106 C 166.709 686.165, 187.775 686.521, 204 686.898 C 220.225 687.274, 234.063 687.403, 234.750 687.184 C 235.438 686.965, 236 686.336, 236 685.786 C 236 685.236, 235.369 685.028, 234.597 685.324 C 233.826 685.620, 229.141 685.482, 224.187 685.017 C 213.735 684.037, 207.568 681.635, 200.757 675.892 L 196.014 671.893 165.007 671.697 C 147.954 671.588, 134 671.847, 134 672.272 M 869.623 675.250 C 868.123 679.383, 866.017 686.874, 866.006 688.116 C 866.003 688.454, 867.913 688.361, 870.250 687.909 C 872.587 687.457, 876.176 687.068, 878.224 687.044 C 882.311 686.996, 883.012 686.117, 886.964 676.090 L 888.971 671 880.068 671 L 871.165 671 869.623 675.250 M 429.987 691.250 C 429.979 692.487, 429.846 740.188, 429.690 797.250 L 429.407 901 457.087 901 C 482.642 901, 484.795 900.866, 485.133 899.250 C 485.335 898.288, 485.500 850.925, 485.500 794 L 485.500 690.500 479 689.867 C 475.425 689.519, 462.938 689.181, 451.250 689.117 L 430 689 429.987 691.250 M 861.217 698.429 C 859.797 700.668, 857.167 706.025, 855.372 710.333 C 853.577 714.641, 851.521 718.871, 850.804 719.734 C 849.109 721.774, 842.551 734.106, 839.760 740.500 C 838.560 743.250, 834.973 750.572, 831.789 756.772 C 828.605 762.971, 826 768.245, 826 768.491 C 826 768.736, 826.788 768.667, 827.750 768.337 C 830.424 767.419, 836.612 760.137, 839.932 754 C 841.569 750.975, 845.966 745.322, 849.704 741.437 C 854.012 736.961, 858.082 731.377, 860.820 726.187 L 865.140 718 862.635 718 C 858.055 718, 855.103 716.322, 855.696 714.055 C 856.239 711.978, 856.792 711.828, 864.657 711.613 C 867.892 711.525, 869.281 710.908, 870.915 708.832 C 873.575 705.454, 878.201 695.558, 877.231 695.323 C 876.829 695.225, 873.642 694.968, 870.150 694.752 L 863.799 694.358 861.217 698.429 M 145 696.451 C 145 698.006, 151.215 709.139, 152.288 709.505 C 152.954 709.732, 168.699 710.071, 187.276 710.258 L 221.052 710.599 224.776 704.049 C 226.824 700.447, 228.624 697.242, 228.775 696.926 C 228.926 696.611, 210.138 696.238, 187.025 696.098 C 163.911 695.959, 145 696.117, 145 696.451 M 395.285 712.694 C 394.224 714.237, 391.866 718.200, 390.046 721.500 C 388.226 724.800, 383.871 731.818, 380.368 737.095 C 376.866 742.372, 374 746.985, 374 747.345 C 374 747.705, 380.741 748, 388.979 748 L 403.958 748 403.858 731.870 C 403.802 722.998, 403.445 714.560, 403.063 713.120 C 402.036 709.249, 397.815 709.018, 395.285 712.694 M 158 721.162 C 158 722.527, 163.553 731.384, 165.337 732.865 C 166.056 733.461, 174.377 733.959, 185.424 734.066 L 204.283 734.248 209.050 727.124 L 213.817 720 185.909 720 C 165.369 720, 158 720.307, 158 721.162 M 868.500 737.491 C 867.950 737.675, 866.340 738.079, 864.921 738.389 C 860.807 739.288, 858.201 747.096, 861.582 748.393 C 862.452 748.727, 868.704 749, 875.475 749 C 889.278 749, 889 749.156, 889 741.418 L 889 737 879.250 737.079 C 873.888 737.122, 869.050 737.308, 868.500 737.491 M 174 744.597 C 174 745.737, 184.960 762, 185.728 761.998 C 186.499 761.997, 197 745.816, 197 744.628 C 197 744.283, 191.825 744, 185.500 744 C 179.175 744, 174 744.268, 174 744.597 M 363.935 761.388 C 362.767 763.649, 360.890 767.005, 359.765 768.845 L 357.719 772.190 380.859 771.845 L 403.998 771.500 404.013 766.500 C 404.021 763.750, 404.285 760.538, 404.601 759.362 C 405.173 757.231, 405.113 757.225, 385.616 757.250 L 366.058 757.275 363.935 761.388 M 842.482 762.204 C 839.125 766.193, 837.430 769.763, 838.421 770.754 C 839.746 772.080, 884.485 772.346, 886.920 771.043 C 888.801 770.036, 889.059 769.163, 888.800 764.688 L 888.500 759.500 866.855 759.231 L 845.210 758.962 842.482 762.204 M 808.602 786.598 C 805.521 790.333, 803 793.710, 803 794.101 C 803 795.506, 822.058 796.147, 854.287 795.826 C 882.099 795.550, 887.219 795.272, 888.022 794 C 889.164 792.192, 889.278 784.986, 888.192 783.276 C 887.611 782.362, 878.830 781.966, 853.457 781.709 C 834.781 781.521, 818.308 781.015, 816.852 780.586 C 814.448 779.878, 813.689 780.431, 808.602 786.598 M 361.125 781.927 L 349.751 782.500 345.925 789.250 L 342.098 796 373.049 796 L 404 796 404 791.625 C 404 789.219, 404.254 785.956, 404.566 784.375 L 405.131 781.500 388.816 781.427 C 379.842 781.386, 367.381 781.611, 361.125 781.927 M 785.054 808.126 C 783.099 809.570, 779.987 812.344, 778.137 814.290 L 774.774 817.828 780.137 818.460 C 783.087 818.808, 808.450 818.959, 836.500 818.796 L 887.500 818.500 888.399 813.199 C 888.931 810.062, 888.931 807.534, 888.399 807.007 C 887.905 806.516, 865.249 805.977, 838.054 805.808 L 788.607 805.500 785.054 808.126 M 329.722 813.161 L 325.943 820.288 338.222 819.667 C 344.975 819.326, 362.762 819.036, 377.750 819.023 L 405 819 405 812.500 L 405 806 369.250 806.017 L 333.500 806.034 329.722 813.161 M 759 828.227 C 754.875 830.414, 747.514 834.391, 742.641 837.065 C 728.554 844.794, 707.887 851.915, 667.500 862.952 C 653.651 866.737, 651.042 867.126, 633.500 868.012 C 590.786 870.169, 563.183 871.257, 539.211 871.726 L 513.923 872.222 514.211 880.062 L 514.500 887.902 555.500 888.262 C 578.050 888.461, 597.288 888.981, 598.250 889.418 C 605.373 892.656, 591.833 894.668, 546.634 897.086 C 534.608 897.729, 522.354 898.007, 519.403 897.702 L 514.037 897.148 513.083 900.824 C 512.558 902.846, 511.987 906.075, 511.814 908 L 511.500 911.500 527.500 911.791 C 551.883 912.234, 582.654 907.528, 624.500 896.957 C 649.742 890.580, 667.851 884.534, 699 872.085 C 725.217 861.607, 729.930 858.816, 737.596 849.230 C 739.034 847.432, 742.194 844.799, 744.618 843.378 C 749.011 840.804, 749.063 840.799, 760.316 841.898 C 767.075 842.558, 794.749 843, 829.268 843 C 893.533 843, 887.931 843.643, 889.363 836.107 C 890.531 829.956, 890.808 830.011, 858.128 829.889 C 841.832 829.828, 815.522 829.490, 799.660 829.139 C 771.329 828.511, 770.788 828.460, 769 826.250 C 767.999 825.013, 767.027 824.056, 766.840 824.125 C 766.653 824.194, 763.125 826.040, 759 828.227 M 329.094 829.905 L 318.688 830.500 314.869 836 C 309.707 843.435, 309.808 844.435, 315.640 843.636 C 318.191 843.286, 339.116 843, 362.140 843 L 404 843 404 836.194 L 404 829.388 371.750 829.349 C 354.012 829.328, 334.817 829.578, 329.094 829.905 M 316.278 852.781 L 304.055 853.061 301.528 856.375 C 300.137 858.198, 299 859.942, 299 860.251 C 299 860.560, 304.024 862.933, 310.164 865.525 C 320.966 870.084, 321.417 870.185, 324.068 868.619 C 326.431 867.223, 330.994 866.999, 357.154 866.994 C 373.844 866.991, 391.163 866.703, 395.640 866.354 L 403.780 865.721 404.250 859.610 C 404.509 856.250, 404.671 853.444, 404.610 853.375 C 404.327 853.053, 327.068 852.533, 316.278 852.781 M 740.187 854.054 C 737.332 855.200, 727.893 864.017, 728.489 864.982 C 729.069 865.921, 845.585 866.985, 868.833 866.263 L 887.166 865.695 888.182 863.097 C 889.731 859.140, 889.446 855.800, 887.434 854.328 C 885.962 853.252, 872.046 853.012, 814.059 853.063 C 772.573 853.100, 741.528 853.517, 740.187 854.054 M 335.684 877.750 C 336.618 878.438, 337.793 879, 338.295 879 C 338.797 879, 345.349 881.441, 352.854 884.425 C 361.355 887.805, 371.213 890.838, 379 892.469 C 385.875 893.909, 394.137 895.768, 397.361 896.600 C 400.584 897.431, 403.334 897.974, 403.471 897.806 C 403.609 897.638, 404.008 892.611, 404.358 886.635 L 404.995 875.769 369.491 876.135 C 340.782 876.430, 334.311 876.739, 335.684 877.750 M 720.500 876.969 C 714.450 877.396, 708.668 877.803, 707.651 877.873 C 705.067 878.051, 700 883.749, 700 886.477 C 700 888.544, 700.589 888.797, 706.750 889.372 C 715.882 890.225, 884.069 890.373, 886.152 889.530 C 888.087 888.747, 889.346 883.226, 888.426 879.560 L 887.783 877 828.142 876.997 C 795.339 876.996, 760.175 876.814, 750 876.593 C 739.825 876.372, 726.550 876.541, 720.500 876.969 M 391.500 893 C 392.600 893.473, 395.525 893.839, 398 893.815 L 402.500 893.770 398.500 892.943 C 396.300 892.488, 393.375 892.121, 392 892.128 C 389.719 892.139, 389.675 892.216, 391.500 893" stroke="none" fill="#000000" fill-rule="evenodd"/>
</svg>