<svg xmlns="http://www.w3.org/2000/svg" width="1024" height="1024" viewBox="0 0 1024 1024" version="1.1">
	<path d="M 286.428 201.586 C 281.532 203.269, 277.404 206.630, 275.623 210.381 C 273.527 214.798, 273.582 216.801, 275.899 220.602 C 277.309 222.914, 278.773 223.867, 281.645 224.341 C 283.765 224.691, 386.883 224.983, 510.795 224.989 L 736.091 225 738.545 222.545 C 741.421 219.670, 741.817 214.480, 739.501 210.002 C 737.733 206.582, 732.549 202.417, 728.941 201.517 C 724.189 200.332, 289.880 200.399, 286.428 201.586 M 295.182 246.696 C 296.582 251.768, 301.401 258.313, 306.167 261.616 C 314.301 267.253, 304.866 267.004, 508.468 266.956 C 611.886 266.932, 698.442 266.538, 700.816 266.079 C 703.190 265.620, 707.127 263.812, 709.566 262.060 C 712.005 260.309, 714.006 259.241, 714.013 259.688 C 714.020 260.135, 716.045 256.798, 718.513 252.273 C 720.981 247.747, 723 243.922, 723 243.773 C 723 243.623, 626.505 243.365, 508.567 243.199 L 294.133 242.899 295.182 246.696 M 322 471.250 L 322 656 506.418 656 C 607.848 656, 691.436 656.230, 692.168 656.511 C 693.274 656.936, 693.500 625.622, 693.500 471.733 L 693.500 286.443 507.750 286.472 L 322.001 286.500 322 471.250 M 389 304.923 C 381.504 305.625, 375.159 309.102, 371.917 314.285 C 370.023 317.313, 369.923 318.905, 370.203 341.659 L 370.500 365.817 373.593 369.659 C 375.294 371.771, 378.173 374.512, 379.991 375.750 L 383.296 378 507.332 378 C 630.340 378, 631.404 377.983, 635.604 375.950 C 637.933 374.822, 641.113 372.234, 642.670 370.200 L 645.500 366.500 645.500 342 C 645.500 321.039, 645.260 317.067, 643.839 314.500 C 641.147 309.637, 636.810 306.187, 632 305.083 C 627.137 303.966, 400.816 303.817, 389 304.923 M 388.334 334.091 C 388.695 340.366, 388.993 348.650, 388.995 352.500 L 389 359.500 508 359.500 L 627 359.500 627 341.750 L 627 324 509.750 323.986 C 445.262 323.979, 391.415 323.682, 390.088 323.327 L 387.676 322.682 388.334 334.091 M 453.721 415.420 C 447.898 416.986, 444.562 419.963, 442.459 425.467 C 441.043 429.175, 440.903 438.267, 441.184 508.067 C 441.535 595.212, 441.121 590.097, 448.235 595.171 L 451.500 597.500 505.982 597.775 C 543.557 597.965, 561.279 597.713, 563.090 596.963 C 564.534 596.364, 567.363 594.189, 569.375 592.128 L 573.035 588.380 572.767 506.783 L 572.500 425.185 569.429 421.342 C 563.337 413.720, 565.623 413.995, 509 414.069 C 471.185 414.118, 457.300 414.458, 453.721 415.420 M 376.284 418.814 C 375.065 419.191, 372.943 421.029, 371.568 422.897 L 369.069 426.295 369.493 520.117 C 369.863 601.970, 370.113 614.317, 371.453 616.909 C 374.265 622.347, 376.031 622.909, 388.365 622.290 C 394.489 621.982, 400.268 621.336, 401.206 620.853 C 403.468 619.691, 405.139 613.497, 404 610.500 C 402.894 607.592, 400.405 606.776, 393.732 607.135 L 388.500 607.416 387.867 597.458 C 387.520 591.981, 387.182 553.053, 387.117 510.950 C 387.028 452.612, 387.285 434.115, 388.200 433.200 C 388.860 432.540, 391.303 432, 393.629 432 C 398.635 432, 401 430.052, 401 425.929 C 401 421.016, 397.981 419, 390.625 419 C 387.119 419, 382.956 418.804, 381.375 418.564 C 379.794 418.324, 377.503 418.437, 376.284 418.814 M 632.819 423.717 L 630.137 425.380 630.066 489.940 C 630.028 525.448, 629.659 566.502, 629.248 581.171 C 628.507 607.579, 628.476 607.867, 626.064 610.433 L 623.628 613.025 625.656 615.762 C 628.483 619.578, 633.804 623.001, 636.898 622.993 C 639.981 622.986, 644.443 620.236, 646.794 616.894 C 648.257 614.816, 648.567 610.082, 649.151 581 C 650.229 527.245, 650.120 432.974, 648.976 428.853 C 648.419 426.847, 646.862 424.484, 645.517 423.603 C 642.366 421.539, 636.241 421.593, 632.819 423.717 M 459.731 434.750 C 460.154 436.262, 460.500 469.450, 460.500 508.500 L 460.500 579.500 505 579.559 C 529.475 579.591, 550.794 579.952, 552.376 580.360 C 554.788 580.982, 555.152 580.838, 554.626 579.469 C 554.282 578.571, 554 545.023, 554 504.918 L 554 432 506.481 432 L 458.962 432 459.731 434.750 M 480.931 448.130 C 480.075 449.728, 480.084 451.748, 480.965 456.226 C 481.644 459.681, 481.861 464.788, 481.478 468.359 C 480.914 473.625, 481.090 474.771, 482.679 476.209 C 484.187 477.574, 485.293 477.718, 488.520 476.970 C 494.004 475.699, 521.642 475.773, 526.318 477.071 C 531.762 478.583, 532.640 477.422, 533.379 467.731 C 533.724 463.204, 534.280 457.557, 534.614 455.183 C 535.124 451.564, 534.853 450.473, 532.937 448.433 C 531.680 447.095, 530.037 446, 529.286 446 C 526.992 446, 520.704 449.599, 515.536 453.869 C 510.209 458.271, 506.144 459.693, 503.309 458.147 C 502.314 457.604, 498.362 454.649, 494.526 451.580 C 486.840 445.429, 482.910 444.432, 480.931 448.130 M 596.223 489.661 C 584.951 495.217, 584.264 508.769, 594.859 516.545 C 600.481 520.670, 605.770 521.119, 610.438 517.867 C 620.348 510.964, 621.880 500.163, 614.108 491.993 C 610.583 488.287, 609.921 488.002, 604.905 488.023 C 601.932 488.035, 598.025 488.772, 596.223 489.661 M 481.374 494.985 C 478.884 495.991, 475 501.112, 475 503.389 C 475 504.258, 476.312 506.438, 477.916 508.234 L 480.833 511.500 506.946 511.798 L 533.059 512.095 536.029 509.124 C 539.931 505.222, 540.036 500.690, 536.313 496.805 L 533.626 494 508.563 494.063 C 494.778 494.098, 482.543 494.513, 481.374 494.985 M 478.520 528.979 C 474.780 532.883, 474.720 537.175, 478.356 540.811 L 481.046 543.500 507.607 543.356 L 534.169 543.212 537.085 540.419 C 540.949 536.717, 540.946 532.792, 537.077 528.923 L 534.154 526 507.764 526 L 481.374 526 478.520 528.979 M 320.045 675.809 C 316.348 677.710, 310.294 683.858, 308.611 687.421 C 307.401 689.982, 307.253 695.171, 307.731 718.250 L 308.306 746 319.403 746.091 C 325.506 746.141, 415.378 746.254, 519.119 746.341 L 707.737 746.500 708.457 719.434 C 708.941 701.228, 708.828 691.074, 708.112 688.415 C 707.039 684.430, 700.529 677.150, 696.500 675.429 C 695.400 674.960, 610.820 674.558, 508.545 674.538 C 357.226 674.507, 322.117 674.744, 320.045 675.809 M 290.034 764.198 C 285.338 767.363, 280.944 773.871, 279.944 779.144 C 278.564 786.418, 279.957 810.840, 282.026 815.666 C 285.456 823.663, 263.058 822.930, 507.098 823.031 C 675.606 823.101, 726.244 822.846, 728.283 821.917 C 729.738 821.254, 732.181 818.896, 733.714 816.677 C 736.475 812.677, 736.499 812.505, 736.411 797.433 C 736.359 788.523, 735.800 780.358, 735.061 777.718 C 733.418 771.850, 729.101 766.711, 723.560 764.029 C 719.201 761.919, 718.732 761.900, 698.809 763.020 C 677.642 764.210, 319.471 763.716, 301.997 762.472 C 294.199 761.917, 293.206 762.061, 290.034 764.198" stroke="none" fill="#000000" fill-rule="evenodd"/>
</svg>