<svg xmlns="http://www.w3.org/2000/svg" width="1024" height="1024" viewBox="0 0 1024 1024" version="1.1">
	<path d="M 95.606 67.520 C 84.531 70.566, 74.622 80.619, 70.404 93.087 L 67.993 100.213 68.246 513.377 L 68.500 926.542 71.701 933.021 C 75.891 941.504, 82.868 948.507, 91 952.394 L 97.500 955.500 510.941 955.755 L 924.382 956.010 930.675 953.065 C 942.210 947.667, 950.440 938.834, 953.545 928.518 C 954.808 924.322, 955.001 869.162, 955.010 510.345 C 955.020 99.815, 955.006 96.968, 953.023 91.326 C 951.926 88.203, 949.784 83.846, 948.264 81.644 C 945.027 76.957, 935.432 69.601, 930.176 67.778 C 924.567 65.832, 102.665 65.578, 95.606 67.520 M 509.232 79 C 509.232 80.925, 509.438 81.713, 509.689 80.750 C 509.941 79.787, 509.941 78.213, 509.689 77.250 C 509.438 76.287, 509.232 77.075, 509.232 79 M 187.447 102.388 C 187.235 103, 186.932 160.301, 186.773 229.725 L 186.484 355.950 190.992 356.559 C 197.368 357.420, 199.113 358.008, 198.456 359.072 C 198.140 359.582, 198.359 360, 198.941 360 C 199.523 360, 200.032 359.438, 200.070 358.750 C 200.109 358.063, 200.488 358.390, 200.913 359.478 C 202.140 362.618, 199.788 364, 193.218 364 L 187.294 364 186.774 403.815 C 186.488 425.713, 186.542 445.401, 186.893 447.565 L 187.531 451.500 206.016 452.034 C 216.182 452.328, 221.402 452.666, 217.615 452.784 C 211.748 452.968, 210.393 453.362, 208.460 455.448 C 207.049 456.972, 206.627 458.043, 207.345 458.282 C 207.980 458.494, 203.828 458.952, 198.117 459.300 C 192.406 459.648, 187.556 460.110, 187.339 460.327 C 186.970 460.697, 186.756 575.088, 186.925 681.250 L 187 728 346 728 L 505 728 505.157 709.250 C 505.255 697.619, 505.575 692.398, 506 695.500 C 506.377 698.250, 506.756 699.461, 506.843 698.191 C 506.929 696.921, 507.375 696.114, 507.833 696.397 C 508.292 696.680, 508.698 696.369, 508.736 695.706 C 508.774 695.043, 509.112 692.925, 509.487 691 C 509.862 689.073, 509.793 688.005, 509.334 688.624 C 508.780 689.371, 507.694 689.447, 506.094 688.849 L 503.687 687.949 504.287 664.974 L 504.886 642 499.134 642 C 490.917 642, 489.825 640.899, 490.196 632.984 C 490.423 628.152, 490.879 626.470, 492 626.322 C 492.825 626.212, 496.088 625.838, 499.250 625.490 L 505 624.856 505 615.553 C 505 610.436, 504.726 604.881, 504.392 603.208 L 503.783 600.166 373.414 600.697 C 301.711 600.989, 241.969 600.958, 240.655 600.628 C 239.340 600.298, 236.855 598.587, 235.133 596.824 C 230.974 592.571, 230.922 588.366, 234.974 584.028 L 237.947 580.845 312.724 580.821 C 353.851 580.808, 395.375 580.872, 405 580.962 C 414.625 581.053, 426.325 580.810, 431 580.422 L 439.500 579.716 434.500 578.537 C 427.404 576.864, 423.377 574.507, 417.394 568.525 C 413.513 564.643, 411.757 561.922, 410.583 557.966 C 407.346 547.067, 409.021 540.616, 417.261 532.250 L 422.432 527 440.772 527 L 459.113 527 462.102 530.250 C 466.876 535.439, 471.389 545.489, 471.359 550.862 C 471.301 561.158, 463.266 572.083, 452.550 576.438 C 447.316 578.566, 446.990 578.867, 449.132 579.594 C 450.434 580.035, 516.075 580.420, 595 580.448 C 731.452 580.497, 738.630 580.588, 741.149 582.299 C 742.606 583.288, 744.361 585.458, 745.050 587.120 C 746.099 589.654, 746.041 590.690, 744.691 593.523 C 741.848 599.485, 740.630 599.791, 717.500 600.369 L 696.500 600.894 695.868 603.697 C 695.521 605.239, 695.183 610.870, 695.118 616.211 L 695 625.922 703.721 626.211 L 712.442 626.500 713.302 630.860 C 713.774 633.259, 713.891 636.296, 713.562 637.610 C 712.986 639.903, 712.605 640, 704.183 640 L 695.404 640 695.118 683.393 L 694.831 726.785 729.165 727.143 C 748.049 727.339, 770.025 727.275, 778 727 L 792.500 726.500 792.777 599 C 792.930 528.875, 792.777 468.640, 792.436 465.144 L 791.818 458.787 786.227 459.397 C 780.360 460.037, 775 458.556, 775 456.295 C 775 455.607, 772.286 454.519, 768.750 453.789 L 762.500 452.500 777.500 452 L 792.500 451.500 792.808 417.500 C 792.977 398.800, 792.821 378.887, 792.462 373.250 L 791.808 363 781.154 362.930 C 774.270 362.884, 771.208 362.555, 772.500 362 C 774.301 361.226, 774.239 361.134, 771.872 361.070 C 769.171 360.998, 766.504 358.829, 767.675 357.658 C 768.037 357.296, 773.378 357, 779.544 357 C 787.966 357, 791.046 356.650, 791.924 355.591 C 793.520 353.669, 793.017 275.615, 791.399 273.998 C 790.794 273.393, 789.331 272.825, 788.149 272.736 C 785.480 272.535, 785.285 271, 787.929 271 C 788.989 271, 790.564 270.293, 791.429 269.429 C 792.832 268.025, 793 258.985, 793 184.929 L 793 102 744.500 102 L 696 102 696.008 131.750 C 696.020 180.170, 695.034 216.359, 693.680 217.209 C 693.031 217.616, 704.425 218.073, 719 218.225 L 745.500 218.500 745.500 224.500 L 745.500 230.500 734.500 231.124 C 717.056 232.114, 691.695 232.369, 629.750 232.178 C 574.323 232.007, 572 231.926, 572 230.153 C 572 229.137, 572.977 227.869, 574.172 227.336 C 575.367 226.803, 576.415 225.406, 576.501 224.230 C 576.588 223.055, 576.322 222.301, 575.910 222.556 C 575.498 222.810, 574.482 222.339, 573.652 221.509 C 572.822 220.679, 570.648 219.918, 568.821 219.817 C 559.960 219.330, 609.141 218.251, 645.590 218.133 L 686.679 218 687.340 192.338 C 687.703 178.224, 688 152.124, 688 134.338 L 688 102 613.250 101.750 C 523.945 101.451, 513.870 101.604, 512.813 103.269 C 512.383 103.946, 512.024 110.945, 512.015 118.821 C 512.001 131.939, 511.866 133.009, 510.403 131.546 C 509.524 130.667, 509.055 129.300, 509.359 128.506 C 509.664 127.713, 509.482 126.798, 508.956 126.473 C 508.430 126.148, 508 127.034, 508 128.441 C 508 129.848, 507.550 131, 507 131 C 506.439 131, 505.933 134.185, 505.847 138.250 C 505.763 142.238, 505.296 135.846, 504.810 124.046 C 504.323 112.246, 503.828 102.495, 503.710 102.377 C 503.593 102.259, 432.472 101.963, 345.664 101.720 C 230.403 101.396, 187.727 101.576, 187.447 102.388 M 121.388 112.083 C 115.318 113.844, 110 124.986, 110 135.944 C 110 148.459, 114.236 157.628, 122.039 162 C 126.107 164.280, 127.556 164.500, 138.500 164.500 C 145.100 164.500, 151.724 164.157, 153.220 163.738 C 156.798 162.737, 160.211 158.944, 164.197 151.539 C 167.083 146.181, 167.452 144.597, 167.475 137.489 C 167.499 129.949, 167.239 128.969, 163.057 120.838 C 158.949 112.848, 158.347 112.155, 155.057 111.611 C 149.638 110.714, 124.912 111.061, 121.388 112.083 M 885.767 117.250 C 878.780 126.441, 878.396 130.792, 883.952 137.820 C 891.406 147.250, 895.487 148.265, 902.062 142.325 C 907.540 137.376, 909.350 133.678, 908.503 129.163 C 907.416 123.368, 905.194 120.079, 900.249 116.943 C 893.756 112.825, 889.054 112.925, 885.767 117.250 M 813.698 117.636 C 813.314 118.019, 813 121.183, 813 124.667 L 813 131 832.500 131 L 852 131 852 124.500 L 852 118 834.582 118 C 825.002 118, 816.541 117.761, 815.780 117.469 C 815.018 117.177, 814.082 117.252, 813.698 117.636 M 208.393 123.582 C 208.727 124.452, 209 135.252, 209 147.582 L 209 170 216.309 170 C 227.473 170, 227.446 170.042, 226.705 153.644 L 226.088 139.996 237.356 140.640 C 249.595 141.339, 257.585 140.597, 258.236 138.702 C 258.463 138.041, 258.454 134.012, 258.215 129.750 L 257.781 122 232.784 122 C 210.400 122, 207.849 122.165, 208.393 123.582 M 723.793 130.750 C 723.566 135.563, 723.557 139.725, 723.773 140 C 723.989 140.275, 731.324 140.660, 740.073 140.855 L 755.979 141.209 755.775 154.355 C 755.662 161.585, 755.918 168.063, 756.344 168.750 C 756.858 169.580, 759.786 170, 765.059 170 L 773 170 773 146 L 773 122 748.603 122 L 724.205 122 723.793 130.750 M 124.915 125.159 C 123.586 127.642, 123.128 143.171, 124.264 147.232 C 125.528 151.748, 130.006 153.344, 139.714 152.738 C 148.763 152.174, 150.569 151.273, 152.655 146.282 C 154.486 141.903, 154.372 131.620, 152.452 127.907 C 150.347 123.836, 147.540 123, 135.970 123 C 126.851 123, 125.979 123.170, 124.915 125.159 M 892.035 127.934 C 890.490 130.822, 890.778 133.490, 892.838 135.353 C 894.555 136.907, 894.784 136.896, 896.338 135.179 C 899.256 131.955, 897.956 126, 894.335 126 C 893.640 126, 892.605 126.870, 892.035 127.934 M 135.250 130.662 C 134.522 130.956, 134 132.961, 134 135.461 C 134 140.076, 134.967 141.358, 139.210 142.371 C 142.369 143.125, 144 141.003, 144 136.137 C 144 131.307, 139.943 128.768, 135.250 130.662 M 813.211 149.343 C 813.460 156.373, 813.742 157.488, 815.250 157.417 C 816.212 157.371, 824.858 157.258, 834.462 157.167 L 851.925 157 851.334 150.250 C 851.009 146.537, 850.463 143.217, 850.122 142.872 C 849.780 142.526, 841.270 142.006, 831.211 141.715 L 812.922 141.186 813.211 149.343 M 419.070 158.930 C 414.601 163.399, 415.721 170.638, 421.420 174.116 C 424.266 175.852, 426.009 175.945, 444.391 175.335 C 461.554 174.765, 464.159 174.872, 463.391 176.113 C 461.146 179.738, 441.228 196.829, 421 212.485 C 399.255 229.315, 398 230.537, 398 234.876 C 398 239.317, 402.013 243.196, 422.500 258.557 C 443.830 274.549, 462.266 289.291, 462.747 290.739 C 463.070 291.708, 454.057 292.035, 421.330 292.239 L 379.500 292.500 378.619 300.687 C 378.134 305.189, 377.998 309.553, 378.317 310.385 C 378.830 311.720, 390.669 311.897, 479.625 311.898 C 535.026 311.899, 580.616 311.737, 580.938 311.538 C 581.260 311.340, 581.264 307.278, 580.948 302.512 C 580.553 296.574, 579.920 293.562, 578.936 292.939 C 578.138 292.434, 559.838 292.024, 537.750 292.015 C 514.736 292.006, 498 291.619, 498 291.096 C 498 290.599, 499.964 288.686, 502.364 286.846 C 504.764 285.006, 512.039 279, 518.530 273.500 C 525.022 268, 535.096 259.550, 540.916 254.723 C 559.816 239.049, 559 239.955, 559 234.658 C 559 232.081, 558.438 229.024, 557.750 227.863 C 557.063 226.703, 551.550 222.026, 545.500 217.470 C 524.918 201.970, 505.264 185.557, 499.540 179.092 C 497.869 177.204, 497.795 176.742, 499.040 175.954 C 501.252 174.555, 507.994 174.777, 508.032 176.250 C 508.049 176.938, 508.773 178.400, 509.639 179.500 C 511.149 181.417, 511.197 181.365, 510.781 178.255 L 510.348 175.010 523.131 175.657 L 535.914 176.304 538.957 173.046 C 542.613 169.133, 543.090 163.568, 540.089 159.861 L 538.178 157.500 479.634 157.205 C 422.034 156.915, 421.057 156.943, 419.070 158.930 M 893.677 169.750 C 893.434 170.162, 892.922 171.963, 892.538 173.750 C 891.796 177.212, 892.341 177.551, 896.750 176.370 C 898.521 175.895, 899 175.047, 899 172.383 C 899 169.463, 898.666 169, 896.559 169 C 895.216 169, 893.919 169.338, 893.677 169.750 M 887.701 187.732 C 887.460 188.155, 886.694 190.261, 886 192.414 C 884.092 198.326, 878.289 210.703, 877.073 211.455 C 876.483 211.820, 876 215.015, 876 218.556 L 876 224.994 896.500 224.776 L 917 224.559 916.982 219.029 C 916.967 214.626, 916.386 212.648, 914.130 209.320 C 912.571 207.020, 910.259 201.845, 908.991 197.820 C 905.429 186.503, 905.726 186.831, 901.059 189.086 C 896.026 191.517, 893.901 191.496, 890.705 188.982 C 889.294 187.873, 887.942 187.310, 887.701 187.732 M 477 193.605 C 474.907 195.685, 457.841 208.749, 434.338 226.261 C 431.499 228.376, 427.975 231.221, 426.506 232.582 L 423.835 235.058 434.167 243.087 C 453.178 257.859, 468.437 269.465, 473.993 273.380 C 477.022 275.514, 479.801 277.731, 480.169 278.308 C 480.890 279.438, 489.540 272.801, 504.500 259.640 C 509.450 255.285, 518.337 247.914, 524.250 243.259 C 530.163 238.604, 535 234.667, 535 234.509 C 535 233.974, 496.527 203.325, 492 200.253 C 489.525 198.574, 486.178 195.805, 484.563 194.100 C 481.064 190.407, 480.270 190.355, 477 193.605 M 140.667 199.667 C 140.300 200.033, 140 202.252, 140 204.598 L 140 208.863 148 209.560 L 156 210.258 156 215.695 C 156 218.685, 156.466 222.002, 157.035 223.066 C 158.200 225.243, 162.230 225.653, 163.761 223.750 C 166.133 220.802, 167.965 204.677, 166.393 200.582 C 165.885 199.259, 163.786 199, 153.560 199 C 146.835 199, 141.033 199.300, 140.667 199.667 M 844.250 202.662 C 843.549 202.945, 843 204.886, 843 207.083 L 843 211 849 211 C 855.457 211, 855.533 210.917, 854.375 205.125 C 853.793 202.213, 853.468 202.005, 849.625 202.079 C 847.356 202.122, 844.938 202.385, 844.250 202.662 M 826.579 218.250 C 826.254 222.238, 825.878 227.075, 825.744 229 C 825.552 231.752, 825.073 232.500, 823.500 232.500 C 821.766 232.500, 821.500 231.834, 821.502 227.500 C 821.503 224.750, 821.053 222.169, 820.502 221.765 C 819.951 221.361, 817.362 221.024, 814.750 221.015 L 810 221 810 233.500 L 810 246 832.853 246 L 855.707 246 856.353 238.349 C 856.709 234.141, 857 228.741, 857 226.349 L 857 222 851 222 L 845 222 845 227.500 C 845 231.722, 844.652 233, 843.500 233 C 842.306 233, 841.998 231.523, 841.989 225.750 C 841.983 221.762, 841.699 216.813, 841.358 214.750 L 840.738 211 833.954 211 L 827.171 211 826.579 218.250 M 126.455 216.455 C 122.368 220.541, 123.653 226, 128.700 226 C 130.783 226, 131 226.456, 131 230.839 C 131 235.055, 131.328 235.829, 133.547 236.839 C 139.393 239.503, 149 236.456, 149 231.939 C 149 229.149, 141.431 216.301, 139.031 215.017 C 135.407 213.077, 129.113 213.796, 126.455 216.455 M 238.615 218.795 L 230.729 219.089 231.303 224.650 C 231.619 227.708, 232.053 230.386, 232.268 230.601 C 232.483 230.816, 261.607 231.016, 296.989 231.045 C 348.713 231.089, 361.485 230.845, 362.161 229.800 C 362.623 229.085, 363.290 226.774, 363.642 224.665 C 364.081 222.036, 364.946 220.585, 366.391 220.047 C 371.049 218.316, 356.767 217.902, 302.500 218.196 C 271.700 218.363, 242.952 218.633, 238.615 218.795 M 694 240.833 L 694 248 690.380 248 L 686.759 248 687.356 264.250 C 687.684 273.188, 688.032 287.025, 688.129 295 C 688.262 305.957, 688.469 308.034, 688.976 303.500 C 689.345 300.200, 690.208 296.150, 690.894 294.500 C 692.956 289.539, 693.685 293.381, 692.981 305.500 C 692.621 311.715, 692.741 317.025, 693.258 317.706 C 693.761 318.370, 693.966 319.270, 693.714 319.706 C 693.462 320.143, 693.837 324.100, 694.547 328.500 C 695.670 335.460, 695.795 329.891, 695.510 285.674 C 695.329 257.720, 694.916 234.582, 694.591 234.257 C 694.266 233.932, 694 236.892, 694 240.833 M 159.739 243 C 156.405 244.787, 154.097 245, 138.069 245 C 128.101 245, 118.918 244.539, 117.402 243.963 C 115.902 243.392, 114.352 243.280, 113.958 243.713 C 113.565 244.146, 112.953 247.200, 112.600 250.500 L 111.957 256.500 139.477 256.500 L 166.998 256.500 166.999 251.315 C 167 246.008, 165.670 241, 164.260 241 C 163.826 241, 161.791 241.900, 159.739 243 M 689.192 250.075 C 689.389 250.666, 689.977 251.150, 690.500 251.150 C 691.023 251.150, 691.611 250.666, 691.808 250.075 C 692.005 249.484, 691.417 249, 690.500 249 C 689.583 249, 688.995 249.484, 689.192 250.075 M 887.666 255.937 C 877.556 256.418, 875.629 256.779, 874.436 258.414 C 873.247 260.044, 873.120 296.792, 873.578 506.414 C 873.874 641.761, 874.053 756.614, 873.977 761.642 L 873.838 770.784 888.391 771.511 C 903.965 772.290, 916.040 771.509, 917.235 769.646 C 918.009 768.438, 918.296 759.630, 917.584 758.917 C 917.355 758.687, 909.863 758.817, 900.935 759.204 C 891.535 759.611, 883.187 759.513, 881.101 758.970 C 878.011 758.166, 878.346 758.095, 883.471 758.467 C 886.755 758.706, 891.381 758.635, 893.750 758.311 L 898.057 757.720 897.593 745.290 C 897.338 738.454, 896.638 732.269, 896.039 731.547 C 894.383 729.551, 896.882 729, 907.582 729 L 917 729 917.058 646.750 C 917.090 601.513, 917.121 495.937, 917.126 412.137 L 917.137 259.775 914.894 257.387 C 912.423 254.757, 912.459 254.759, 887.666 255.937 M 781.269 270.693 C 782.242 270.947, 783.592 270.930, 784.269 270.656 C 784.946 270.382, 784.150 270.175, 782.500 270.195 C 780.850 270.215, 780.296 270.439, 781.269 270.693 M 831.634 285.511 C 830.923 287.364, 831.925 293.046, 833.263 294.750 C 834.640 296.503, 837.668 296.307, 838.393 294.418 C 838.727 293.548, 839 290.848, 839 288.418 C 839 284.062, 838.952 284, 835.607 284 C 833.503 284, 831.994 284.574, 831.634 285.511 M 158.177 291.954 C 155.426 294.129, 152.881 296.383, 152.523 296.963 C 152.164 297.543, 148.638 300.570, 144.686 303.690 C 140.733 306.810, 130.863 316.113, 122.750 324.365 C 109.731 337.607, 108 339.756, 108 342.684 L 108 346 137.500 346 L 167 346 167 317 C 167 283.706, 167.351 284.703, 158.177 291.954 M 814.035 291.934 C 812.405 294.980, 812.798 296.696, 815.635 298.927 C 819.088 301.644, 820.599 301.542, 822.621 298.455 C 824.234 295.994, 824.196 295.814, 821.457 292.955 C 818.186 289.541, 815.513 289.174, 814.035 291.934 M 850.050 292.176 C 847.316 295.111, 846.584 297.794, 848.040 299.548 C 849.874 301.758, 851.290 301.330, 855.054 297.426 L 858.500 293.852 856.139 291.926 C 853.149 289.486, 852.533 289.512, 850.050 292.176 M 830.196 305.298 C 825.167 310.486, 825.975 317.384, 831.973 320.486 C 840.485 324.888, 848.072 311.918, 841.077 304.923 C 837.251 301.097, 834.165 301.203, 830.196 305.298 M 691 309.833 C 691 311.025, 690.550 312, 690 312 C 689.450 312, 689 312.675, 689 313.500 C 689 314.325, 689.414 315, 689.921 315 C 691.005 315, 692.463 309.130, 691.595 308.262 C 691.268 307.934, 691 308.642, 691 309.833 M 808.750 308.807 C 806.449 309.080, 806 309.612, 806 312.066 C 806 314.989, 806.023 315, 812.066 315 C 818.076 315, 818.130 314.975, 817.816 312.286 C 817.569 310.159, 816.850 309.453, 814.500 309.026 C 812.850 308.726, 810.263 308.627, 808.750 308.807 M 855.189 308.735 C 851.178 309.094, 850.900 309.307, 851.189 311.810 C 851.485 314.372, 851.796 314.514, 857.750 314.798 C 863.726 315.082, 864 314.993, 864 312.748 C 864 310.216, 862.247 307.892, 860.550 308.175 C 859.972 308.271, 857.560 308.523, 855.189 308.735 M 143 320.500 C 137.607 325.725, 132.702 330, 132.100 330 C 130.436 330, 123 337.041, 123 338.616 C 123 339.390, 124.005 340, 125.277 340 C 126.530 340, 128.576 340.715, 129.824 341.589 C 132.989 343.806, 134.998 342.719, 135.011 338.781 C 135.039 330.480, 136.066 328.046, 140.682 325.340 C 143.107 323.920, 145.283 322.949, 145.517 323.184 C 145.752 323.419, 146.359 327.315, 146.865 331.842 C 147.644 338.803, 148.193 340.450, 150.425 342.518 L 153.063 344.963 154.032 342.417 C 155.418 338.770, 155.304 311, 153.902 311 C 153.299 311, 148.393 315.275, 143 320.500 M 687.151 316 C 687.065 319.238, 687.302 320.079, 688 319 C 688.646 318, 688.974 317.917, 688.985 318.750 C 688.993 319.438, 689.408 320, 689.906 320 C 690.405 320, 690.577 319.100, 690.290 318 C 690.002 316.900, 689.401 316, 688.953 316 C 688.505 316, 687.944 314.988, 687.706 313.750 C 687.467 312.512, 687.218 313.525, 687.151 316 M 307.500 325.345 C 299.995 327.301, 294.958 330.268, 289.818 335.763 C 284.784 341.146, 282.616 344.920, 278.104 356.162 C 276.484 360.198, 272.185 369.698, 268.550 377.273 C 261.332 392.318, 254.409 408.751, 249.709 422 L 246.693 430.500 246.596 471.351 L 246.500 512.201 252 511.585 C 255.025 511.246, 363.950 510.929, 494.055 510.880 L 730.611 510.792 730.377 473.077 C 730.158 437.656, 730.015 434.980, 728.025 429.076 C 725.594 421.857, 714.918 400.224, 705.085 382.591 C 701.377 375.941, 695.955 366, 693.037 360.500 C 682.571 340.775, 677.303 334.738, 665.469 328.908 C 658.762 325.604, 658.197 325.503, 647.025 325.585 C 640.686 325.632, 572.950 325.915, 496.500 326.214 C 371.983 326.701, 346.913 326.468, 320 324.571 C 315.347 324.243, 310.602 324.537, 307.500 325.345 M 814.750 327.273 C 812.687 329.048, 811 330.878, 811 331.340 C 811 332.485, 815.221 335.926, 816.677 335.967 C 817.325 335.985, 819.230 334.331, 820.911 332.292 C 823.637 328.984, 823.821 328.363, 822.614 326.542 C 820.615 323.525, 818.922 323.682, 814.750 327.273 M 848.655 325.829 C 846.395 328.326, 846.577 330.254, 849.314 332.826 C 852.310 335.640, 853.079 335.570, 856.317 332.191 L 859.008 329.382 856.199 326.691 C 852.905 323.535, 850.934 323.310, 848.655 325.829 M 833.192 331.839 C 832.312 332.412, 831.985 334.455, 832.192 338.095 C 832.480 343.155, 832.675 343.520, 835.242 343.816 C 838.865 344.233, 840.403 341.042, 839.250 335.500 C 838.397 331.396, 836.052 329.979, 833.192 331.839 M 362.859 355.747 L 349.218 356.055 348.539 376.278 C 348.166 387.400, 348.004 403.644, 348.180 412.376 L 348.500 428.252 367.500 428.087 C 383.871 427.945, 386.673 427.694, 387.750 426.270 C 388.693 425.024, 389 416.315, 389 390.844 C 389 352.615, 389.497 354.778, 380.816 355.219 C 378.442 355.340, 370.362 355.577, 362.859 355.747 M 436.852 355.743 L 427.203 356.070 426.852 359.785 C 426.658 361.828, 426.657 392.413, 426.848 427.750 L 427.196 492 448.098 492 L 469 492 469.188 426.500 C 469.291 390.475, 469.403 359.847, 469.438 358.438 L 469.500 355.876 458 355.646 C 451.675 355.519, 442.158 355.563, 436.852 355.743 M 500.860 355.744 L 491.221 356.070 491.470 420.785 C 491.608 456.378, 491.783 486.962, 491.860 488.750 L 492 492 513 492 L 534 492 534 424.107 C 534 363.120, 533.839 356.152, 532.418 355.607 C 530.890 355.021, 521.011 355.064, 500.860 355.744 M 584 355.673 C 577.562 355.963, 575.197 356.460, 574.250 357.719 C 572.336 360.266, 572.456 425.304, 574.378 426.899 C 575.337 427.694, 581.816 427.960, 595.628 427.772 L 615.500 427.500 615.258 392.091 C 615.125 372.617, 614.783 356.450, 614.499 356.166 C 613.824 355.490, 594.843 355.184, 584 355.673 M 298.153 365.250 C 290.740 379.009, 271 424.260, 271 427.494 C 271 427.790, 283.241 427.912, 298.202 427.766 L 325.404 427.500 325.452 391.751 L 325.500 356.002 314.318 356.001 L 303.137 356 298.153 365.250 M 641.642 362.147 C 640.820 370.013, 640.826 386.868, 641.658 409.840 L 642.316 428 672.658 428 C 695.104 428, 703 427.696, 703 426.834 C 703 426.192, 698.547 417.080, 693.104 406.584 C 679.456 380.264, 676.552 374.812, 670.828 364.750 L 665.850 356 654.067 356 L 642.285 356 641.642 362.147 M 129.146 376.521 C 126.201 377.341, 122.535 378.907, 121 380 C 119.466 381.093, 117.231 382.349, 116.034 382.792 C 113.944 383.565, 111.253 388.822, 107.302 399.852 C 104.928 406.478, 105.968 415.058, 110.109 423.013 C 111.966 426.581, 113.626 429.798, 113.797 430.162 C 113.968 430.526, 112.734 431.635, 111.054 432.627 C 107.477 434.740, 107.176 436.944, 110.103 439.593 C 112.191 441.483, 112.230 441.468, 115.500 437.573 L 118.794 433.649 121.943 436.298 C 125.901 439.629, 131.702 441.229, 139.864 441.241 C 145.226 441.249, 147.342 440.678, 153.311 437.615 L 160.396 433.981 164.018 437.518 C 167.516 440.934, 167.698 440.991, 169.320 439.199 C 171.674 436.598, 171.440 435.489, 167.962 432.767 L 164.923 430.389 168.212 423.445 C 171.138 417.264, 171.497 415.564, 171.475 408 C 171.452 400.242, 171.147 398.933, 167.982 393 C 166.075 389.425, 164.378 386.214, 164.212 385.864 C 164.045 385.514, 165.280 384.750, 166.955 384.166 C 170.426 382.955, 170.616 382.325, 168.443 379.223 C 166.310 376.177, 165.337 376.426, 163.908 380.379 L 162.686 383.757 154.593 379.919 C 144.887 375.317, 137.168 374.286, 129.146 376.521 M 813 404 C 813 428.153, 813.233 433, 814.396 433 C 815.164 433, 819.277 431.345, 823.536 429.323 C 831.005 425.776, 831.752 425.629, 844.640 425.192 L 858 424.739 857.882 420.620 C 857.643 412.321, 856.827 410.584, 852.683 409.559 C 849.363 408.737, 848.953 408.322, 849.462 406.294 C 850.217 403.289, 844.572 397.696, 829.500 386.514 C 823.450 382.025, 817.882 377.599, 817.128 376.677 C 816.373 375.754, 815.135 375, 814.378 375 C 813.239 375, 813 380.035, 813 404 M 128.044 385.665 C 125.044 387.224, 122.433 389.020, 122.242 389.657 C 122.051 390.293, 123.698 391.826, 125.901 393.065 C 129.599 395.143, 131.680 397.654, 130.600 398.734 C 130.353 398.980, 128.094 397.284, 125.579 394.966 C 121.563 391.264, 120.803 390.918, 119.344 392.125 C 117.202 393.898, 114.050 400.828, 114.022 403.828 C 114.003 405.838, 114.445 406.126, 117.250 405.933 C 119.037 405.810, 122.638 405.775, 125.250 405.855 C 129.617 405.988, 130 406.202, 130 408.512 C 130 410.898, 129.787 410.992, 125.750 410.402 C 123.412 410.060, 119.813 409.427, 117.750 408.996 L 114 408.213 114 411.894 C 114 415.625, 117.666 424.156, 119.500 424.693 C 120.050 424.854, 121.267 423.639, 122.204 421.993 C 123.947 418.929, 128.466 416.133, 129.692 417.359 C 130.068 417.734, 128.400 420.054, 125.987 422.514 C 121.745 426.835, 121.663 427.035, 123.549 428.474 C 127.281 431.322, 134.145 434.255, 135.022 433.375 C 135.502 432.894, 136.031 429.575, 136.197 426 C 136.485 419.814, 136.621 419.500, 139 419.500 C 141.428 419.500, 141.498 419.695, 141.421 426.250 C 141.345 432.700, 141.446 433, 143.703 433 C 147.861 433, 152.377 430.418, 157.108 425.338 C 162.775 419.252, 164.425 414.622, 163.715 406.798 C 163.193 401.042, 158.776 390, 156.995 390 C 156.522 390, 155.156 391.376, 153.959 393.058 C 151.052 397.140, 150.205 396.022, 152.901 391.660 L 155.030 388.215 151.300 386.014 C 148.778 384.526, 145.290 383.654, 140.535 383.322 C 134.230 382.881, 132.934 383.124, 128.044 385.665 M 137.131 387.169 C 135.629 391.145, 134.814 397.767, 135.756 398.349 C 137.550 399.458, 141.036 397.703, 141.615 395.399 C 142.375 392.370, 140.831 385.777, 139.237 385.246 C 138.563 385.021, 137.616 385.887, 137.131 387.169 M 133.019 402.703 C 131.304 404.883, 131.021 406.189, 131.555 409.453 C 132.475 415.072, 134.441 417.053, 138.362 416.312 C 142.679 415.495, 145 414.184, 145 412.563 C 145 411.529, 146.860 411.189, 152.632 411.166 C 160.924 411.133, 162.345 410.470, 161.835 406.865 C 161.521 404.651, 160.986 404.468, 153.424 404 C 147.557 403.637, 144.870 403.021, 143.602 401.750 C 140.865 399.005, 135.551 399.483, 133.019 402.703 M 828.157 405.731 C 828.019 407.783, 827.525 411.158, 827.059 413.231 C 826.544 415.525, 826.582 417, 827.156 417 C 829.357 417, 834.010 413.812, 834.128 412.224 C 834.198 411.276, 834.359 409.530, 834.487 408.344 C 834.636 406.951, 833.883 405.740, 832.359 404.925 C 831.062 404.230, 830 403.288, 830 402.831 C 830 402.374, 829.642 402, 829.204 402 C 828.767 402, 828.296 403.679, 828.157 405.731 M 153.086 422 C 153.055 422.825, 153.467 424.175, 154 425 C 155.181 426.828, 155.181 425.249, 154 422.500 C 153.433 421.181, 153.122 421.011, 153.086 422 M 274.875 462.439 C 271.033 465.050, 268 470.262, 268 474.253 C 268 480.792, 278.100 488.590, 285.362 487.657 C 290.150 487.041, 294.634 482.952, 296.181 477.792 C 297.746 472.566, 295.976 467.064, 291.453 463.093 C 286.837 459.040, 280.259 458.780, 274.875 462.439 M 679.139 460.859 C 672.308 461.454, 671.569 461.749, 668.896 464.954 C 663.773 471.093, 664.207 477.136, 670.169 482.702 C 676.316 488.442, 685.878 489.219, 696.179 484.815 C 702.944 481.923, 704.448 479.866, 704.358 473.630 C 704.191 462.079, 698.459 459.176, 679.139 460.859 M 127.627 467.468 C 119.662 470.307, 111.676 478.904, 108.084 488.505 C 104.125 499.087, 106.303 514.059, 112.979 522.158 C 116.678 526.646, 126.788 532.716, 132.853 534.091 C 142.788 536.343, 157.534 531.711, 164.048 524.293 C 173.851 513.127, 175.371 498.489, 168.350 482.846 C 166.157 477.959, 164.799 476.453, 159.437 472.959 C 155.958 470.692, 150.990 468.199, 148.397 467.419 C 142.480 465.638, 132.696 465.661, 127.627 467.468 M 164.785 470.572 C 163.376 473.664, 165.238 475.478, 168.196 473.895 C 170.281 472.779, 170.520 470.920, 168.800 469.200 C 167.008 467.408, 166.083 467.724, 164.785 470.572 M 846.307 474.250 C 845.184 475.488, 843.534 477.653, 842.640 479.063 C 841.065 481.546, 841.120 481.740, 844.392 485.313 C 847.750 488.979, 851.304 489.972, 855.418 488.393 C 858.517 487.204, 857.110 475.109, 853.600 472.765 C 851.504 471.366, 848.339 472.010, 846.307 474.250 M 128.325 476.612 C 126.578 477.473, 124.438 478.963, 123.569 479.923 C 122.105 481.542, 122.437 482.117, 128.130 487.810 C 131.507 491.187, 134.660 493.710, 135.135 493.416 C 135.611 493.122, 136 490.490, 136 487.566 C 136 478.658, 136.866 476, 139.768 476 L 142.286 476 141.745 483.886 C 141.237 491.300, 141.336 491.832, 143.403 492.774 C 145.378 493.674, 146.133 493.071, 150.829 486.855 L 156.056 479.934 150.778 477.477 C 144.410 474.512, 133.439 474.089, 128.325 476.612 M 823.542 482.771 C 819.665 483.674, 816.673 486.506, 814.367 491.458 C 811.541 497.529, 811.357 503.316, 813.837 508.179 C 815.622 511.682, 815.621 511.847, 813.805 514.141 C 812.777 515.438, 811.240 517.783, 810.390 519.352 C 808.934 522.037, 808.975 522.344, 811.096 524.602 C 812.335 525.921, 813.695 527, 814.117 527 C 814.540 527, 817.999 524.314, 821.804 521.031 C 829.070 514.762, 838.652 503.652, 841.319 498.403 C 842.839 495.413, 842.622 491, 840.955 491 C 840.508 491, 838.011 493.813, 835.406 497.250 C 830.252 504.051, 828.436 505.622, 822.750 508.201 L 819 509.902 819 504.566 C 819 496.940, 821.671 489.496, 825.665 485.989 C 827.499 484.379, 829 482.918, 829 482.743 C 829 482.249, 825.713 482.265, 823.542 482.771 M 117.699 485.780 C 116.010 487.646, 113 494.173, 113 495.968 C 113 496.596, 116.324 497, 121.500 497 C 130.385 497, 131.382 497.596, 128.608 501.250 C 127.561 502.629, 125.767 503, 120.140 503 C 116.213 503, 113.003 503.337, 113.006 503.750 C 113.009 504.163, 113.502 506.300, 114.101 508.500 C 116.651 517.861, 120.088 521.768, 121.350 516.741 C 122.015 514.091, 128.251 507, 129.916 507 C 130.547 507, 131.335 507.711, 131.669 508.579 C 132.073 509.632, 130.479 511.978, 126.887 515.615 C 120.916 521.663, 120.882 521.500, 128.833 525.060 C 135.830 528.193, 136 528.050, 136 519.034 C 136 511.533, 135.825 510.890, 133 508 C 129.641 504.563, 129.279 501.913, 131.569 497.500 C 132.425 495.850, 132.606 495.014, 131.971 495.642 C 131.103 496.500, 129.435 495.261, 125.245 490.642 C 122.180 487.264, 119.594 484.385, 119.497 484.244 C 119.400 484.103, 118.591 484.794, 117.699 485.780 M 153.123 490.139 C 150.178 493.419, 147.933 496.259, 148.134 496.451 C 148.335 496.643, 151.988 497.123, 156.250 497.517 L 164 498.235 164 495.578 C 164 492.982, 160.796 485.610, 159.253 484.656 C 158.826 484.392, 156.067 486.860, 153.123 490.139 M 145.327 506.250 C 143.897 508.313, 142.452 510.001, 142.114 510.001 C 141.776 510.002, 141.500 513.868, 141.500 518.592 L 141.500 527.181 144.888 526.631 C 146.751 526.329, 150.018 524.873, 152.148 523.398 L 156.020 520.714 150.884 515.283 C 146.936 511.110, 146.021 509.580, 146.930 508.676 C 147.838 507.773, 149.277 508.719, 153.127 512.750 C 155.885 515.638, 158.470 518, 158.872 518 C 159.945 518, 163.769 509.749, 164.499 505.858 L 165.129 502.500 156.527 502.500 L 147.926 502.500 145.327 506.250 M 844.068 510.904 C 841.315 514.771, 841.452 518.543, 844.455 521.545 C 847.134 524.225, 852.700 524.900, 854.800 522.800 C 855.460 522.140, 856 519.705, 856 517.389 C 856 513.914, 855.462 512.725, 852.923 510.589 C 848.939 507.236, 846.621 507.319, 844.068 510.904 M 165 526.059 C 165 526.641, 165.450 526.840, 166 526.500 C 166.550 526.160, 167 525.684, 167 525.441 C 167 525.198, 166.550 525, 166 525 C 165.450 525, 165 525.477, 165 526.059 M 278.138 526.973 L 253.775 527.500 258.996 535.304 C 264.392 543.369, 273.869 552.212, 279.753 554.670 C 282.211 555.697, 287.311 555.978, 299.775 555.774 L 316.500 555.500 317.061 549 C 317.659 542.070, 321.562 532.159, 325.232 528.253 L 327.349 526 314.924 526.223 C 308.091 526.346, 291.537 526.683, 278.138 526.973 M 357 526.871 C 348.410 527.440, 347.048 527.814, 342.780 530.777 C 327.969 541.062, 327.081 557.475, 340.653 570.103 C 347.084 576.087, 353.856 578.422, 362.900 577.775 C 379.225 576.607, 392.204 565.111, 393.714 550.482 C 394.172 546.049, 393.834 544.467, 391.530 540.232 C 390.031 537.478, 386.860 533.316, 384.484 530.984 C 380.340 526.918, 379.886 526.734, 373.332 526.493 C 369.574 526.354, 362.225 526.524, 357 526.871 M 393.234 526.995 L 389.968 527.500 394.484 534.219 C 396.968 537.914, 399 542.076, 399 543.469 C 399 547.752, 400.725 546.283, 402.565 540.431 C 403.529 537.368, 405.596 533.097, 407.159 530.940 C 408.721 528.782, 409.998 526.901, 409.995 526.759 C 409.985 526.291, 396.571 526.480, 393.234 526.995 M 474.557 533.750 C 477.237 538.443, 479.235 543.374, 479.621 546.250 C 480.169 550.340, 480.574 551, 482.535 551 C 484.528 551, 484.898 550.345, 485.499 545.750 C 485.905 542.647, 487.766 537.536, 490.051 533.250 L 493.917 526 482.024 526 L 470.131 526 474.557 533.750 M 512.868 526.654 C 507.903 527.273, 501.746 532.775, 498.427 539.560 C 496.081 544.355, 495.799 545.913, 496.255 551.588 C 496.897 559.592, 500.297 565.583, 507.549 571.495 C 517.899 579.932, 529.014 580.860, 541.986 574.371 C 549.374 570.675, 553.651 566.387, 557.159 559.159 C 561.911 549.371, 560.426 541.206, 552.231 532.057 L 547.497 526.771 531.999 526.486 C 523.474 526.329, 514.865 526.405, 512.868 526.654 M 559.518 526.971 C 558.731 528.244, 561.545 533.660, 565.139 537.785 C 566.712 539.591, 568 541.755, 568 542.594 C 568 543.432, 568.450 543.840, 569 543.500 C 569.550 543.160, 570 541.847, 570 540.582 C 570 539.317, 571.265 535.774, 572.811 532.708 C 575.572 527.236, 575.585 527.125, 573.561 526.581 C 570.125 525.658, 560.158 525.935, 559.518 526.971 M 588.404 526.974 C 585.715 528.061, 579.407 535.371, 576.813 540.406 C 574.035 545.797, 574.107 554.524, 576.979 560.456 C 578.177 562.931, 581.358 566.935, 584.048 569.354 C 593.894 578.205, 604.932 580.923, 615.239 577.031 C 629.047 571.818, 637 562.583, 637 551.762 C 637 541.838, 633.360 535.891, 623.298 529.371 L 618.096 526 604.298 526.063 C 596.709 526.098, 589.557 526.508, 588.404 526.974 M 644.285 532.239 C 649.367 539.663, 650.755 543.320, 651.215 550.500 L 651.535 555.500 673.410 555.770 C 699.242 556.089, 699.748 555.945, 710.695 545.188 C 716.746 539.241, 723.951 528.618, 722.749 527.416 C 722.502 527.169, 703.735 526.675, 681.044 526.319 L 639.789 525.672 644.285 532.239 M 357.388 540.980 C 354.407 542.184, 351 546.827, 351 549.685 C 351 559.614, 363.152 564.362, 369.440 556.889 C 373.141 552.491, 373.568 549.655, 371.125 545.703 C 368.001 540.647, 362.712 538.829, 357.388 540.980 M 433.272 543.528 C 430.060 546.740, 429.795 547.433, 430.310 551.278 C 431.521 560.306, 441.853 564.301, 448.026 558.128 C 449.605 556.549, 451.211 554.006, 451.595 552.477 C 453.038 546.727, 446.517 540, 439.499 540 C 437.744 540, 435.566 541.234, 433.272 543.528 M 523.388 540.934 C 520.195 542.294, 517 546.913, 517 550.170 C 517 556.328, 523.439 561.703, 529.462 560.573 C 534.510 559.626, 539.688 552.875, 538.622 548.629 C 537.226 543.069, 528.601 538.712, 523.388 540.934 M 599.527 544.273 C 594.036 549.764, 595.119 555.942, 602.215 559.611 C 606.324 561.736, 611.528 560.826, 615.156 557.350 C 621.213 551.547, 616.956 542.313, 607.745 541.275 C 603.396 540.785, 602.797 541.003, 599.527 544.273 M 144 564.075 C 133.825 564.475, 122.290 564.565, 118.366 564.274 L 111.232 563.745 110.499 588.200 C 110.095 601.650, 110.080 614.089, 110.465 615.842 L 111.165 619.029 140.029 618.765 C 167.936 618.509, 168.911 618.434, 169.424 616.500 C 169.717 615.400, 169.668 602.913, 169.317 588.750 L 168.679 563 165.590 563.173 C 163.890 563.268, 154.175 563.674, 144 564.075 M 829.413 572.346 C 827.494 576.386, 825.657 581.336, 825.331 583.346 L 824.738 587 833.869 587 C 844.443 587, 844.228 587.308, 840.524 577.468 C 837.739 570.068, 834.979 565, 833.735 565 C 833.277 565, 831.332 568.306, 829.413 572.346 M 119.654 577.199 C 119.304 580.114, 119.013 588.674, 119.009 596.220 L 119 609.941 139.366 609.843 L 159.732 609.744 160.234 598.385 C 160.509 592.138, 160.517 583.983, 160.251 580.263 L 159.768 573.500 141.634 573.500 C 131.660 573.500, 122.778 573.139, 121.895 572.699 C 120.556 572.030, 120.186 572.773, 119.654 577.199 M 130.607 588.582 C 130.273 589.452, 130 591.493, 130 593.118 L 130 596.072 139.707 595.786 C 149.130 595.508, 149.432 595.427, 150.025 593 C 151.370 587.497, 150.580 587, 140.490 587 C 132.954 587, 131.100 587.297, 130.607 588.582 M 825.246 591.060 C 822.514 591.899, 821.352 593.334, 817.996 600.007 C 813.826 608.302, 812.890 614.176, 815.250 617.241 C 816.552 618.932, 823.693 621.261, 832.841 622.980 C 840.108 624.344, 845.816 622.817, 850.143 618.351 C 853.106 615.291, 853.494 614.270, 853.451 609.639 C 853.393 603.441, 849.865 595.595, 845.816 592.656 C 842.681 590.381, 830.531 589.439, 825.246 591.060 M 831.881 598.512 C 829.290 599.911, 826 605.394, 826 608.312 C 826 609.143, 827.412 611.011, 829.139 612.463 C 833.675 616.281, 838.618 615.718, 841.770 611.025 C 844.456 607.026, 844.121 603.720, 840.689 600.353 C 837.684 597.405, 834.978 596.839, 831.881 598.512 M 514.586 600.899 C 514.394 601.230, 513.918 606.731, 513.528 613.124 L 512.818 624.748 520.659 625.436 C 532.542 626.480, 532 626.069, 532 634.030 L 532 640.925 522.750 641.212 L 513.500 641.500 513.401 663.500 C 513.347 675.600, 512.952 694.950, 512.523 706.500 L 511.743 727.500 599.622 727.158 C 647.955 726.970, 687.641 726.678, 687.814 726.511 C 687.986 726.343, 687.804 706.806, 687.409 683.094 L 686.691 639.982 658.572 640.646 C 626.461 641.404, 627 641.526, 627 633.510 C 627 625.444, 624.735 626, 657.607 626 L 687 626 687 613.082 L 687 600.164 600.967 600.231 C 553.649 600.268, 514.777 600.568, 514.586 600.899 M 270.981 628.550 C 269.395 632.722, 269.748 639.689, 271.582 640.393 C 274.183 641.391, 327.367 641.053, 328.988 640.028 C 330.047 639.359, 330.480 637.268, 330.488 632.794 L 330.500 626.500 301.231 626.235 L 271.962 625.970 270.981 628.550 M 352.615 627.560 C 351.553 630.328, 351.945 637.542, 353.254 639.333 C 354.372 640.862, 356.463 641.018, 372.504 640.774 L 390.500 640.500 390.500 633.500 L 390.500 626.500 371.865 626.228 C 355.529 625.990, 353.155 626.154, 352.615 627.560 M 411.667 626.667 C 410.510 627.824, 410.945 638.545, 412.200 639.800 C 413.468 641.068, 453.269 641.602, 456.418 640.393 C 458.701 639.517, 458.701 627.483, 456.418 626.607 C 454.257 625.778, 412.500 625.834, 411.667 626.667 M 557.607 627.582 C 556.670 630.025, 556.919 638.323, 557.980 640 C 558.784 641.271, 562.382 641.470, 581.548 641.303 C 597.146 641.168, 604.606 640.742, 605.583 639.931 C 607.213 638.578, 607.456 632.329, 606.025 628.565 L 605.050 626 581.632 626 C 561.200 626, 558.137 626.202, 557.607 627.582 M 130.763 654.514 C 125.982 656.270, 118.735 661.250, 116.117 664.579 C 109.790 672.622, 107.909 687.311, 111.994 696.779 C 114.605 702.831, 121.545 709.612, 128.769 713.170 C 135.310 716.391, 144.750 716.386, 151 713.157 C 165.198 705.822, 172.586 689.083, 168.180 674.235 C 164.910 663.214, 151.299 652.932, 140.163 653.070 C 137.048 653.109, 132.818 653.759, 130.763 654.514 M 209 680.979 L 209 709.035 233.750 708.767 L 258.500 708.500 258.815 703.503 C 258.988 700.754, 258.855 697.042, 258.520 695.253 L 257.909 692 241.388 692 L 224.866 692 225.449 681.750 C 225.770 676.112, 226.137 667.450, 226.266 662.500 L 226.500 653.500 217.750 653.211 L 209 652.922 209 680.979 M 752.470 657.692 C 753.675 664.117, 754.964 678.251, 754.982 685.250 L 755 692 738.500 692 L 722 692 722 700.585 L 722 709.170 746.988 708.835 C 762.437 708.628, 772.110 708.118, 772.328 707.500 C 772.521 706.950, 772.470 694.688, 772.213 680.250 L 771.746 654 761.761 654 L 751.777 654 752.470 657.692 M 813.406 662.386 C 813.113 663.148, 813.015 665.735, 813.187 668.136 L 813.500 672.500 821.500 672.169 C 830.276 671.805, 832 670.767, 832 665.844 C 832 662.075, 829.567 661, 821.034 661 C 815.909 661, 813.790 661.385, 813.406 662.386 M 131.500 664.333 C 127.242 666.269, 121.320 673.184, 120.072 677.679 C 117.747 686.052, 119.387 693.738, 124.674 699.246 C 129.321 704.088, 133.490 706, 139.403 706 C 145.131 706, 147.889 704.914, 152.546 700.826 C 163.120 691.542, 162.467 674.847, 151.212 666.694 C 147.712 664.159, 145.789 663.533, 140.714 663.280 C 136.952 663.092, 133.316 663.508, 131.500 664.333 M 690.079 669.583 C 690.127 670.748, 690.364 670.985, 690.683 670.188 C 690.972 669.466, 690.936 668.603, 690.604 668.271 C 690.272 667.939, 690.036 668.529, 690.079 669.583 M 692.079 670.583 C 692.127 671.748, 692.364 671.985, 692.683 671.188 C 692.972 670.466, 692.936 669.603, 692.604 669.271 C 692.272 668.939, 692.036 669.529, 692.079 670.583 M 137 673.288 C 135.288 674.149, 134.404 675.521, 134.196 677.642 C 133.937 680.285, 134.426 681.054, 137.525 682.882 C 141.842 685.429, 141.624 687.312, 136.932 688 C 132.931 688.587, 131.930 691.160, 134.567 694.074 C 137.214 696.999, 142.112 696.565, 145.754 693.085 C 151.283 687.801, 150.887 679.607, 144.857 674.533 C 141.448 671.665, 140.518 671.517, 137 673.288 M 688.607 673.582 C 688.273 674.452, 688.076 677.714, 688.168 680.832 L 688.336 686.500 689 680.500 C 689.509 675.897, 689.703 675.390, 689.832 678.321 C 689.981 681.718, 690.167 681.976, 691.500 680.643 C 692.325 679.818, 692.993 678.098, 692.985 676.821 C 692.972 674.956, 692.779 674.794, 692 676 C 691.245 677.169, 691.027 676.893, 691.015 674.750 C 690.999 671.750, 689.575 671.059, 688.607 673.582 M 826.500 675.168 C 822.194 676.791, 818.897 679.570, 815.750 684.229 C 813.487 687.579, 813 689.394, 813 694.469 C 813 697.861, 813.682 702.934, 814.516 705.741 L 816.031 710.844 822.266 711.482 C 825.695 711.833, 834.575 711.981, 842 711.810 L 855.500 711.500 855.230 709 C 855.081 707.625, 854.631 702, 854.230 696.500 C 853.381 684.875, 851.435 680.737, 845.156 677.208 C 840.503 674.593, 830.831 673.535, 826.500 675.168 M 827.315 683.464 C 823.813 684.987, 821 689.458, 821 693.500 C 821 696.873, 823.501 701.663, 825.945 702.970 C 828.373 704.270, 834.088 704.297, 837.434 703.025 C 840.234 701.961, 843.990 696.594, 843.996 693.651 C 844.004 689.608, 840.878 685.168, 836.903 683.578 C 832.175 681.686, 831.423 681.677, 827.315 683.464 M 689.553 687.645 C 689.188 689.099, 689.275 690.675, 689.746 691.146 C 690.223 691.623, 690.648 690.447, 690.703 688.502 C 690.821 684.323, 690.455 684.050, 689.553 687.645 M 512.972 747.359 C 502.648 749.583, 492.937 757.315, 489.034 766.420 C 480.037 787.411, 487.227 808.089, 506.879 817.739 C 511.752 820.133, 513.698 820.500, 521.500 820.500 C 529.302 820.500, 531.328 820.118, 536.722 817.626 C 543.178 814.644, 551.445 806.998, 554.219 801.442 C 558.929 792.011, 559.162 778.403, 554.778 768.825 C 549.852 758.066, 539.571 749.620, 528.600 747.321 C 521.359 745.802, 520.182 745.805, 512.972 747.359 M 623 747.806 C 607.514 754.104, 598.938 765.663, 598.169 781.275 C 597.527 794.305, 602.434 805.234, 612.367 812.898 C 619.641 818.509, 624.929 820.294, 634.500 820.367 C 641.520 820.421, 643.307 820.038, 649.089 817.240 C 657.033 813.396, 664.060 806.254, 667.804 798.218 C 670.065 793.366, 670.470 791.137, 670.479 783.500 C 670.489 775.437, 670.157 773.795, 667.286 767.725 C 663.560 759.848, 656.380 752.330, 649.314 748.910 C 642.747 745.731, 629.472 745.174, 623 747.806 M 729.299 749.935 C 713.642 757.342, 705.656 772.107, 708.044 789.234 C 709.660 800.821, 717.821 811.683, 728.764 816.812 C 733.592 819.074, 735.846 819.498, 743 819.486 C 752.785 819.470, 757.902 817.381, 766.297 809.978 C 784.875 793.594, 779.808 761.555, 756.821 750.069 C 751.586 747.452, 749.562 747, 743.090 747.001 C 736.772 747.001, 734.461 747.493, 729.299 749.935 M 125.969 751.735 C 123.047 752.359, 116.472 773.435, 115.903 784 C 115.410 793.152, 115.807 794.913, 118.513 795.593 C 121.945 796.454, 124.277 794.343, 123.763 790.839 L 123.356 788.064 133.928 787.782 L 144.500 787.500 144.142 774.500 C 143.785 761.519, 143.789 761.496, 146.505 758.576 C 149.104 755.785, 149.278 755.740, 150.363 757.576 C 151.050 758.739, 151.698 767.013, 152 778.500 L 152.500 797.500 156.227 797.809 L 159.954 798.118 160.227 779.809 L 160.500 761.500 163.750 761.187 L 167 760.873 167 773.790 C 167 780.894, 167.289 789.473, 167.642 792.853 C 168.257 798.737, 168.403 799, 171.035 799 C 172.621 799, 174.043 798.330, 174.393 797.418 C 174.727 796.548, 175 787.125, 175 776.477 C 175 764.106, 175.377 756.885, 176.044 756.473 C 176.618 756.118, 178.148 756.522, 179.443 757.370 C 181.624 758.800, 181.845 759.781, 182.446 770.707 C 183.432 788.628, 182.228 787, 194.500 787 L 204.962 787 204.345 791.500 L 203.728 796 209.007 796 L 214.285 796 213.678 790.197 C 213.006 783.764, 206.894 767.451, 201.529 757.772 L 198.053 751.500 162.776 751.454 C 143.374 751.429, 126.811 751.555, 125.969 751.735 M 245.769 755.972 C 243.458 761.285, 241.238 772.953, 240.806 782.057 L 240.500 788.500 255.607 788.775 C 272.607 789.085, 274.062 788.602, 271.426 783.519 C 270.326 781.399, 270.008 778, 270.217 770.572 L 270.500 760.500 273.500 760.500 L 276.500 760.500 276.245 774.676 C 276.022 787.092, 276.192 788.892, 277.616 789.176 C 278.510 789.354, 284.163 789.359, 290.178 789.187 L 301.114 788.873 300.412 774.437 L 299.710 760 302.273 760 C 307.410 760, 307.520 760.262, 307.210 771.760 C 307.051 777.667, 306.413 783.512, 305.792 784.748 C 305.171 785.985, 304.852 787.181, 305.082 787.406 C 305.797 788.106, 335.373 789.888, 336.341 789.289 C 338.083 788.213, 335.994 776.761, 331.756 764.157 L 327.500 751.500 287.619 751.472 L 247.739 751.444 245.769 755.972 M 372.229 751.743 C 370.139 752.463, 368.076 757.441, 364.961 769.288 C 361.894 780.951, 361.253 787.420, 363.054 788.533 C 364.485 789.418, 422.804 789.529, 423.684 788.649 C 424.069 788.264, 423.847 786.467, 423.192 784.654 C 422.536 782.841, 422 776.552, 422 770.679 L 422 760 425.067 760 L 428.134 760 427.484 770.750 C 427.127 776.663, 426.377 782.993, 425.818 784.817 C 425.258 786.641, 424.958 788.284, 425.150 788.468 C 425.343 788.651, 432.429 789.132, 440.897 789.536 L 456.294 790.270 455.721 776.885 C 455.211 764.948, 453.410 754.076, 451.652 752.318 C 450.948 751.614, 374.217 751.059, 372.229 751.743 M 630.500 757.900 C 609.846 763.106, 602.058 787.124, 616.383 801.431 C 622.084 807.123, 626.513 809.004, 634.151 808.978 C 642.171 808.950, 647.207 806.711, 652.700 800.728 C 662.430 790.131, 661.762 774.302, 651.182 764.773 C 644.731 758.962, 636.775 756.318, 630.500 757.900 M 512.707 759.612 C 503.353 762.487, 496.781 771.850, 496.699 782.419 C 496.602 794.895, 502.872 805.428, 512 808.119 C 522.716 811.279, 532.948 808.953, 539.638 801.838 C 544.881 796.261, 546.448 792.271, 546.444 784.500 C 546.440 776.286, 544.414 771.649, 538.045 765.280 C 531.267 758.503, 522.615 756.567, 512.707 759.612 M 735.215 760.197 C 730.532 761.783, 723.030 768.724, 720.878 773.461 C 717.177 781.611, 719.235 794.324, 725.312 800.849 C 729.321 805.153, 736.362 808, 742.999 808 C 750.212 808, 754.302 806.424, 758.905 801.869 C 763.977 796.850, 766.432 790.693, 766.429 783 C 766.425 773.567, 762.581 767.147, 753.590 761.554 C 750.080 759.371, 739.877 758.617, 735.215 760.197 M 189.389 761.428 C 188.568 763.569, 191.035 778.389, 192.354 779.235 C 192.984 779.639, 195.401 779.976, 197.725 779.985 L 201.950 780 198.978 771.940 C 197.343 767.507, 195.539 763.007, 194.968 761.940 C 193.758 759.679, 190.186 759.352, 189.389 761.428 M 393.250 760.662 C 391.249 761.470, 391.530 781.387, 393.571 783.429 C 397.020 786.877, 397.733 785.441, 398.475 773.558 C 398.868 767.265, 398.896 761.640, 398.536 761.058 C 397.860 759.964, 395.432 759.782, 393.250 760.662 M 127.122 768.541 C 125.330 780.586, 125.080 780, 132 780 L 138 780 138 770.500 L 138 761 133.122 761 L 128.243 761 127.122 768.541 M 251.736 769.750 C 251.358 775.812, 251.545 778.725, 252.345 779.234 C 252.980 779.639, 256.087 779.976, 259.250 779.985 L 265 780 265 771.117 C 265 761.130, 264.925 761.042, 256.391 761.014 L 252.282 761 251.736 769.750 M 313.982 761.622 C 312.755 761.974, 312.527 763.539, 312.792 769.779 C 312.972 774.025, 313.304 778.063, 313.529 778.750 C 314.115 780.543, 327 780.489, 327 778.694 C 327 777.976, 325.940 773.813, 324.644 769.444 C 322.320 761.611, 322.240 761.498, 318.894 761.343 C 317.027 761.257, 314.817 761.382, 313.982 761.622 M 375.392 762.175 C 374.842 763.065, 372.085 776.957, 372.020 779.168 C 372.009 779.535, 375.111 779.985, 378.912 780.168 L 385.824 780.500 386.215 771.500 C 386.430 766.550, 386.582 762.451, 386.553 762.390 C 386.524 762.330, 384.150 762.015, 381.278 761.691 C 378.012 761.322, 375.807 761.503, 375.392 762.175 M 433 767.329 C 433 770.861, 433.281 775.156, 433.625 776.875 C 434.247 779.985, 434.280 780, 440.663 780 L 447.075 780 446.788 770.750 L 446.500 761.500 439.750 761.204 L 433 760.909 433 767.329 M 282.486 770.750 C 282.883 775.563, 283.397 779.812, 283.628 780.193 C 283.859 780.574, 286.287 780.835, 289.024 780.772 L 294 780.659 294 771.329 L 294 762 287.882 762 L 281.763 762 282.486 770.750 M 405 771 L 405 780 410.500 780 L 416 780 416 771 L 416 762 410.500 762 L 405 762 405 771 M 830.550 765.250 C 830.338 765.938, 829.937 769.987, 829.659 774.250 L 829.154 782 834.518 782 C 837.468 782, 840.076 781.663, 840.313 781.250 C 840.551 780.837, 840.519 776.788, 840.244 772.250 L 839.743 764 835.340 764 C 832.691 764, 830.783 764.498, 830.550 765.250 M 739.209 772.675 C 734.683 774.895, 732 778.621, 732 782.685 C 732 788.778, 736.709 795, 741.321 795 C 744.674 795, 750.053 791.798, 751.544 788.915 C 754.044 784.080, 753.416 779.407, 749.750 775.563 C 745.658 771.272, 743.355 770.641, 739.209 772.675 M 628.217 773.561 C 622.034 777.892, 621.758 785.691, 627.581 791.515 C 631.419 795.352, 634.402 795.878, 638.961 793.520 C 645.345 790.219, 647.600 783.996, 644.551 778.099 C 641.599 772.391, 633.213 770.061, 628.217 773.561 M 513.441 775.066 C 511.218 777.521, 510.893 786.185, 512.886 789.835 C 515.837 795.239, 525.933 795.789, 529.471 790.739 C 532.577 786.303, 530.562 776.441, 526.055 774.030 C 522.618 772.190, 515.515 772.774, 513.441 775.066 M 873.831 785.632 C 873.592 786.109, 873.573 789.313, 873.788 792.750 L 874.178 799 887.339 798.994 C 894.577 798.991, 904.212 798.699, 908.750 798.346 L 917 797.704 917 791.852 L 917 786 900.140 786 C 890.866 786, 881.251 785.722, 878.771 785.382 C 876.292 785.042, 874.069 785.155, 873.831 785.632 M 135.343 795.449 C 133.450 796.274, 131.124 798.639, 129.531 801.357 C 127.757 804.384, 126.390 805.703, 125.415 805.329 C 124.613 805.021, 120.591 805.084, 116.478 805.470 C 109.215 806.150, 109 806.247, 109.015 808.835 C 109.044 813.869, 110.068 814.363, 120.821 814.533 C 129.371 814.668, 131.182 814.998, 133.531 816.845 C 137.344 819.845, 141.880 819.594, 146.681 816.116 C 149.614 813.992, 151.100 813.476, 152.323 814.161 C 154.726 815.506, 176.361 815.418, 176.813 814.061 C 177.020 813.439, 178.461 814.052, 180.165 815.485 C 184.126 818.818, 190.243 818.900, 194.938 815.683 C 197.819 813.709, 199 813.478, 202.910 814.123 C 205.434 814.540, 209.585 814.908, 212.133 814.940 C 217.043 815.004, 217.952 813.965, 217.986 808.250 C 217.999 806.084, 217.667 806, 209.108 806 C 200.728 806, 200.183 805.871, 199.630 803.750 C 198.399 799.034, 194.690 795.832, 189.821 795.283 C 185.486 794.795, 184.938 795.016, 180.606 799.009 C 178.073 801.344, 176 803.872, 176 804.627 C 176 805.718, 173.432 806, 163.519 806 C 151.054 806, 151.037 805.997, 150.413 803.511 C 149.806 801.089, 143.820 795, 142.047 795 C 141.561 795, 140.564 794.791, 139.832 794.536 C 139.099 794.282, 137.080 794.692, 135.343 795.449 M 258.943 796.260 C 257.098 797.502, 254.701 800.363, 253.615 802.617 C 251.687 806.617, 251.539 806.702, 247.383 806.234 C 245.041 805.970, 241.495 806.060, 239.503 806.433 C 236.148 807.063, 235.904 807.347, 236.191 810.306 L 236.500 813.500 245.327 813.648 C 252.587 813.770, 254.540 814.147, 256.327 815.773 C 259.452 818.616, 262.477 820, 265.566 820 C 268.584 820, 274.512 816.694, 275.881 814.247 C 276.635 812.902, 278.630 812.690, 288.557 812.903 C 299.172 813.131, 300.644 813.389, 303.424 815.510 C 310.592 820.977, 315.304 820.985, 321.248 815.539 C 323.292 813.666, 325.224 812.554, 325.541 813.067 C 325.859 813.580, 329.495 814, 333.622 814 L 341.127 814 340.813 810.750 L 340.500 807.500 332.754 807.208 C 325.151 806.921, 324.978 806.857, 323.390 803.708 C 320.135 797.254, 317.103 795, 311.681 795 C 307.306 795, 306.348 795.412, 303.368 798.571 C 301.516 800.535, 300 802.560, 300 803.071 C 300 803.586, 295.121 804, 289.043 804 L 278.085 804 275.293 800.431 C 270.098 793.792, 264.663 792.405, 258.943 796.260 M 384.619 795.108 C 381.208 796.042, 377.369 799.424, 375.379 803.250 C 374.082 805.744, 373.436 806, 368.442 806 C 362.809 806, 356 808.122, 356 809.878 C 356 812.730, 359.320 814, 366.821 814.018 C 373.676 814.034, 374.972 814.356, 378.900 817.018 C 384.837 821.041, 388.469 820.899, 395.027 816.387 L 400.279 812.775 411.026 813.203 C 420.911 813.596, 422.028 813.846, 424.963 816.316 C 430.659 821.109, 436.089 821.069, 440.950 816.199 C 443.474 813.669, 444.124 813.518, 451.321 813.792 L 459 814.084 459 811.124 C 459 809.496, 459.273 807.452, 459.607 806.582 C 460.127 805.227, 459.148 805, 452.777 805 L 445.339 805 442.161 800.575 C 436.305 792.421, 427.235 792.188, 422.732 800.076 L 420.500 803.985 410.636 803.992 L 400.772 804 397.136 799.970 C 393.114 795.512, 388.993 793.911, 384.619 795.108 M 830.630 796.250 C 830.299 797.487, 830.021 802.829, 830.014 808.120 L 830 817.740 834.749 818.275 C 837.361 818.570, 839.836 818.602, 840.249 818.346 C 840.662 818.091, 841 812.509, 841 805.941 L 841 794 836.117 794 C 831.898 794, 831.151 794.306, 830.630 796.250 M 135.783 804.578 C 134.353 807.716, 135.668 810.346, 138.907 810.827 C 143.356 811.487, 145.639 806.782, 142.429 803.571 C 140.061 801.204, 137.116 801.650, 135.783 804.578 M 185.200 803.200 C 183.326 805.074, 183.785 808.815, 186.038 810.020 C 190.327 812.316, 194.316 808.327, 192.020 804.038 C 190.815 801.785, 187.074 801.326, 185.200 803.200 M 262.200 803.200 C 260.235 805.165, 260.748 809.795, 263.067 811.036 C 265.504 812.340, 270 809.990, 270 807.411 C 270 802.885, 265.139 800.261, 262.200 803.200 M 308.783 804.578 C 306.463 809.668, 312.621 813.286, 316.434 809.073 C 318.150 807.176, 318.161 806.895, 316.609 804.526 C 314.363 801.098, 310.356 801.125, 308.783 804.578 M 383.571 803.571 C 381.032 806.110, 381.931 810.264, 385.272 811.432 C 387.571 812.236, 388.415 812.030, 390.222 810.222 C 392.030 808.415, 392.236 807.571, 391.432 805.272 C 390.264 801.931, 386.110 801.032, 383.571 803.571 M 428.847 804.436 C 427.432 807.543, 428.277 809.713, 431.468 811.167 C 433.564 812.122, 434.332 812.010, 435.996 810.504 C 438.490 808.246, 438.552 805.810, 436.171 803.655 C 433.479 801.218, 430.152 801.573, 428.847 804.436 M 878.750 815.739 L 873 816.100 873 822.681 L 873 829.262 876.750 828.642 C 878.813 828.301, 888.961 828.017, 899.303 828.011 L 918.106 828 917.895 821.500 L 917.685 815 901.092 815.189 C 891.967 815.293, 881.913 815.541, 878.750 815.739 M 167.500 833.057 C 165.300 833.512, 159.755 833.911, 155.177 833.942 C 147.870 833.993, 146.894 834.210, 147.184 835.715 C 147.689 838.341, 153.853 842, 157.770 842 C 160.848 842, 161.093 842.184, 159.911 843.607 C 159.178 844.490, 158.111 846.140, 157.539 847.272 C 156.961 848.416, 154.743 849.821, 152.544 850.435 L 148.589 851.539 148.885 874.424 C 149.048 887.010, 149.413 897.914, 149.698 898.654 C 150.220 900.015, 157.081 900.585, 158.298 899.369 C 158.645 899.021, 158.534 897.998, 158.051 897.095 C 157.568 896.192, 157.021 887.476, 156.836 877.726 L 156.500 859.998 160.750 859.999 L 165 860 165.244 872.750 C 165.379 879.763, 165.377 888.538, 165.240 892.250 C 165.041 897.658, 165.290 899.025, 166.496 899.125 C 167.323 899.194, 168.781 899.306, 169.737 899.375 C 173.143 899.620, 173.775 895.407, 173.001 877.599 C 172.285 861.124, 172.476 857, 173.956 857 C 174.985 857, 176.987 852.320, 176.266 851.600 C 175.937 851.270, 173.229 851, 170.250 851 C 163.258 851, 163.628 849.819, 172.463 843.941 C 176.231 841.434, 179.688 838.371, 180.146 837.135 C 180.864 835.194, 180.506 834.692, 177.521 833.444 C 173.737 831.863, 173.346 831.848, 167.500 833.057 M 156 838.888 C 154.075 839.232, 152.982 839.825, 153.572 840.205 C 155.640 841.541, 162.534 841.276, 166 839.727 L 169.500 838.163 164.500 838.213 C 161.750 838.241, 157.925 838.544, 156 838.888 M 187.070 851.146 C 182.433 851.631, 178.392 852.275, 178.089 852.578 C 177.786 852.881, 178.317 854.487, 179.269 856.146 C 180.635 858.526, 181 861.585, 181 870.647 C 181 876.963, 181.466 883.002, 182.035 884.066 C 182.948 885.771, 184.202 886, 192.649 886 L 202.227 886 201.650 888.750 C 199.375 899.597, 199.520 899.957, 206.183 899.985 C 210.984 900.005, 211.352 898.709, 210.077 886.283 C 208.480 870.722, 201.038 849.833, 197.199 850.133 C 196.265 850.206, 191.706 850.662, 187.070 851.146 M 617.975 851.530 C 615.896 854.036, 618.321 857.600, 624.466 861.068 C 630.630 864.547, 631.451 866.827, 627.899 870.607 C 626.190 872.427, 625.648 874.758, 624.992 883.101 C 624.009 895.605, 624.690 898, 629.225 898 L 632.500 898 632.434 878.393 L 632.367 858.786 635.934 859.373 C 637.895 859.696, 640.734 860.246, 642.241 860.595 C 644.478 861.113, 645.537 860.637, 647.991 858.009 C 649.646 856.238, 651 853.711, 651 852.394 L 651 850 635.122 850 C 622.092 850, 619.017 850.274, 617.975 851.530 M 127.239 851.733 C 123.428 852.076, 122.808 852.505, 121.367 855.808 C 117.560 864.533, 114.874 875.194, 113.972 885.159 C 113.441 891.021, 112.748 896.493, 112.431 897.318 C 111.679 899.279, 115.138 900.384, 119.477 899.570 C 123.269 898.859, 124.276 896.577, 123.350 890.788 L 122.756 887.075 132.628 886.788 L 142.500 886.500 142.722 869.382 L 142.944 852.264 138.332 851.632 C 135.796 851.284, 133.221 851.079, 132.610 851.175 C 132 851.271, 129.583 851.522, 127.239 851.733 M 518.531 852 L 484.561 852.500 482.603 857.500 C 480.928 861.776, 480.634 865.108, 480.572 880.500 L 480.500 898.500 483.500 898.500 C 486.177 898.500, 486.495 898.177, 486.454 895.500 C 486.428 893.850, 486.060 891.487, 485.636 890.250 C 484.869 888.010, 484.912 888, 495.433 888 L 506 888 506 874.617 L 506 861.233 508.744 860.709 C 510.254 860.420, 511.862 860.414, 512.317 860.696 C 512.773 860.978, 512.828 868.315, 512.439 877 C 511.554 896.748, 511.812 898, 516.769 898.001 L 520.500 898.002 520.169 880.001 L 519.838 862 524.009 862 L 528.181 862 527.987 878.750 C 527.749 899.343, 527.614 898, 529.918 898 C 534.993 898, 534.999 897.977, 535.009 879.143 L 535.018 861.500 542.279 861.360 L 549.540 861.219 552.749 868.860 C 557.278 879.642, 557.294 879.423, 552.001 879.092 C 546.834 878.769, 546.415 878.316, 545.517 872.085 C 544.454 864.703, 543.868 863, 542.392 863 C 541.300 863, 541.025 864.885, 541.118 871.750 C 541.262 882.393, 542.040 886.412, 544.008 886.676 C 544.828 886.787, 548.087 887.162, 551.250 887.510 L 557 888.144 557 893.072 L 557 898 561.433 898 C 566.862 898, 567.436 896.774, 566.481 887.221 C 565.502 877.419, 557.303 854.887, 553.823 852.433 C 553.033 851.876, 538.820 851.701, 518.531 852 M 246.387 852.688 C 245.225 852.916, 243.777 854.193, 243.170 855.526 C 242.563 856.858, 241.755 866.992, 241.375 878.044 L 240.684 898.140 244.592 897.820 C 248.488 897.501, 248.501 897.486, 248.803 892.784 L 249.107 888.069 259.303 887.784 L 269.500 887.500 269.199 881 C 269.033 877.425, 269.184 871.237, 269.534 867.250 C 270.133 860.427, 270.313 860, 272.585 860 L 275 860 275.015 876.750 C 275.024 885.962, 275.457 894.175, 275.978 895 C 276.702 896.145, 279.187 896.532, 286.488 896.637 C 294.857 896.757, 296.174 896.543, 297.042 894.922 C 297.838 893.435, 298.450 882.739, 298.970 861.250 C 299.003 859.874, 302.792 859.581, 304.719 860.805 C 305.549 861.332, 306.027 865.710, 306.219 874.540 L 306.500 887.500 316.817 887.786 L 327.135 888.071 326.445 893.596 L 325.755 899.120 330.627 898.810 L 335.500 898.500 335.182 891 C 334.924 884.934, 333.900 880.919, 329.824 870 C 327.052 862.575, 324.147 855.487, 323.369 854.250 L 321.954 852 285.227 852.136 C 265.027 852.211, 247.549 852.459, 246.387 852.688 M 368.259 852.705 C 363.724 853.579, 362.992 856.313, 363.100 871.973 C 363.155 879.963, 363.510 887.625, 363.889 889 C 364.805 892.320, 369.481 893.091, 370.276 890.054 C 370.775 888.146, 371.562 888, 381.362 888 L 391.911 888 391.706 874.250 L 391.500 860.500 394.500 860.500 L 397.500 860.500 397.500 878.160 C 397.500 887.873, 397.835 896.159, 398.246 896.572 C 399.314 897.650, 406.161 897.239, 407.377 896.023 C 408.076 895.324, 408.011 893.920, 407.173 891.602 C 406.497 889.733, 405.662 882.308, 405.318 875.102 L 404.691 862 409.473 862 L 414.256 862 413.814 879 L 413.371 896 416.063 896 C 417.544 896, 419.249 895.405, 419.852 894.678 C 420.522 893.871, 421.056 886.970, 421.224 876.928 L 421.500 860.500 424.379 860.171 L 427.259 859.842 426.879 873.656 L 426.500 887.471 429.500 888.117 C 431.150 888.473, 435.130 888.817, 438.344 888.882 C 443.285 888.982, 444.268 889.308, 444.709 890.993 C 445.160 892.719, 445.786 892.902, 449.365 892.354 C 451.639 892.006, 453.687 891.560, 453.915 891.362 C 454.144 891.165, 454.526 887.515, 454.764 883.251 C 455.319 873.331, 453.532 857.461, 451.514 854.381 L 449.954 852 410.227 852.136 C 388.377 852.211, 369.491 852.467, 368.259 852.705 M 735 853.904 C 734.046 854.557, 728.987 854.702, 721.112 854.304 L 708.725 853.677 709.544 858.589 C 709.994 861.290, 710.292 875.313, 710.205 889.750 L 710.047 916 716.112 916 L 722.178 916 721.594 909.750 C 721.273 906.313, 720.737 894.678, 720.403 883.896 C 719.891 867.352, 720.021 864.206, 721.238 863.739 C 722.031 863.435, 734.114 863.527, 748.090 863.944 C 762.065 864.361, 774.063 864.496, 774.750 864.244 C 775.520 863.962, 776 861.886, 776 858.842 L 776 853.897 767.750 854.042 C 763.212 854.121, 754.325 853.892, 748 853.532 C 740.686 853.116, 735.954 853.252, 735 853.904 M 831.754 870.250 C 831.467 876.987, 831.293 882.552, 831.366 882.615 C 831.440 882.678, 833.862 883.031, 836.750 883.399 L 842 884.069 842 871.034 L 842 858 837.137 858 L 832.275 858 831.754 870.250 M 189.456 859.669 C 187.503 860.067, 187.452 860.468, 188.300 868.793 C 188.788 873.582, 189.310 877.626, 189.458 877.781 C 189.607 877.936, 192.109 878.344, 195.017 878.688 L 200.306 879.315 199.616 874.998 C 198.605 868.677, 194.736 859.549, 193 859.390 C 192.175 859.314, 190.580 859.440, 189.456 859.669 M 126.982 863.250 C 126.445 864.487, 125.376 868.286, 124.606 871.691 L 123.205 877.882 128.586 878.554 C 135.904 879.468, 137.406 878.778, 136.622 874.860 C 136.280 873.149, 136 869.331, 136 866.375 L 136 861 131.979 861 C 128.764 861, 127.761 861.451, 126.982 863.250 M 312.389 861.765 C 311.657 862.250, 311.442 865.269, 311.760 870.623 L 312.242 878.745 317.838 879.323 C 320.915 879.640, 323.618 879.715, 323.844 879.489 C 324.070 879.264, 322.747 875.011, 320.905 870.039 C 318.188 862.709, 317.172 861.003, 315.528 861.015 C 314.412 861.024, 313 861.361, 312.389 861.765 M 436.500 861.701 L 432.500 862.086 432.821 870.453 L 433.142 878.820 439.132 879.515 C 442.427 879.898, 445.244 880.051, 445.392 879.855 C 445.541 879.660, 445.400 875.450, 445.081 870.500 C 444.436 860.511, 444.816 860.900, 436.500 861.701 M 251.422 863.344 C 251.138 864.083, 251.040 868.020, 251.203 872.094 L 251.500 879.500 258.393 879.799 L 265.285 880.098 264.643 875.409 C 264.289 872.831, 264 868.759, 264 866.360 L 264 862 257.969 862 C 253.842 862, 251.774 862.424, 251.422 863.344 M 282.154 875.848 C 282.513 890.217, 283.299 893, 287 893 C 287.965 893, 289.238 892.418, 289.829 891.707 C 291.447 889.756, 292.345 878.175, 291.542 869.605 L 290.829 862 286.319 862 L 281.808 862 282.154 875.848 M 372 870.500 L 372 879 378.750 879.002 L 385.500 879.005 385.177 870.502 L 384.853 862 378.427 862 L 372 862 372 870.500 M 488.991 865.200 C 488.987 867.015, 488.699 870.862, 488.352 873.750 L 487.721 879 494.111 878.999 L 500.500 878.998 500.410 870.749 L 500.321 862.500 494.660 862.200 L 489 861.900 488.991 865.200 M 639.257 869.250 C 638.658 870.008, 638.465 875.920, 638.766 884.264 C 639.254 897.803, 639.301 898.038, 641.677 898.634 C 643.006 898.967, 644.410 898.924, 644.797 898.538 C 646.054 897.282, 646.287 872.405, 645.062 870.116 C 643.806 867.770, 640.783 867.319, 639.257 869.250 M 765.452 879.602 C 764.917 884.602, 765.164 887.586, 766.469 891.897 C 769.130 900.686, 768.437 902.606, 761.750 904.976 C 759.376 905.817, 759 906.493, 759 909.916 C 759 912.097, 759.465 914.169, 760.033 914.521 C 760.602 914.872, 764.401 915.411, 768.475 915.720 L 775.884 916.280 775.391 897.890 C 775.120 887.775, 774.675 878.038, 774.403 876.250 C 773.944 873.227, 773.638 873, 770.034 873 L 766.159 873 765.452 879.602 M 731.412 878.369 C 731.123 879.122, 731.024 882.160, 731.193 885.119 L 731.500 890.500 742.750 890.783 L 754 891.066 754 884.033 L 754 877 742.969 877 C 734.554 877, 731.813 877.325, 731.412 878.369 M 606.500 883.682 C 596.751 884.308, 595 884.879, 595 887.432 C 595 889.259, 595.647 889.868, 597.947 890.206 C 599.568 890.443, 600.698 890.321, 600.458 889.933 C 599.767 888.813, 603.976 888.028, 610.750 888.014 C 616.746 888.001, 617 887.899, 617 885.500 C 617 883.396, 616.565 883.029, 614.250 883.180 C 612.737 883.279, 609.250 883.505, 606.500 883.682 M 657 885.862 C 657 888.599, 657.250 888.754, 662.708 889.395 C 665.847 889.764, 669.182 890.760, 670.119 891.608 C 671.064 892.463, 673.088 893.005, 674.662 892.825 C 677.284 892.525, 677.523 892.139, 677.805 887.750 L 678.110 883 667.555 883 L 657 883 657 885.862 M 883.649 887.784 L 872.799 888.067 873.515 901.784 C 873.909 909.328, 874.685 916.063, 875.238 916.750 C 876.641 918.492, 914.061 918.539, 915.800 916.800 C 916.622 915.978, 917 911.078, 917 901.253 L 917 886.905 905.750 887.203 C 899.563 887.366, 889.617 887.628, 883.649 887.784 M 834.090 892.392 C 833.321 893.318, 833.029 897.754, 833.217 905.642 L 833.500 917.500 838.390 917.810 C 841.079 917.981, 843.722 917.678, 844.264 917.136 C 844.885 916.515, 844.981 911.500, 844.524 903.575 L 843.799 891 839.522 891 C 837.088 891, 834.747 891.600, 834.090 892.392 M 130.065 898.811 C 127.930 901.056, 125.881 904.267, 125.512 905.946 L 124.841 909 115.921 909 L 107 909 107 913.619 L 107 918.238 116.750 917.517 C 122.112 917.121, 126.647 916.402, 126.826 915.920 C 127.005 915.438, 129.411 916.188, 132.171 917.587 C 136.470 919.765, 137.638 919.973, 140.316 919.040 C 142.036 918.440, 144.653 916.790, 146.132 915.373 L 148.821 912.797 149.978 914.958 C 151.083 917.023, 151.724 917.110, 164.361 916.914 C 172.774 916.783, 178.366 917.126, 179.728 917.854 C 183.891 920.082, 189.629 919.264, 193.465 915.896 C 196.052 913.625, 197 913.218, 197 914.377 C 197 916.263, 198.844 916.701, 209.750 917.405 L 218 917.937 218 914.076 C 218 909.335, 217.270 909, 206.939 909 L 199.041 909 197.112 905.250 C 194.769 900.695, 190.349 896.477, 187.092 895.688 C 185.768 895.367, 183.225 895.715, 181.441 896.460 C 177.943 897.922, 173 904.292, 173 907.339 C 173 908.638, 172.514 909.027, 171.418 908.607 C 170.548 908.273, 165.428 908, 160.040 908 L 150.243 908 149.054 905.131 C 147.197 900.648, 141.787 896.002, 137.639 895.329 C 134.281 894.784, 133.596 895.099, 130.065 898.811 M 258.230 897.599 C 254.723 900.363, 251.999 904.782, 252.002 907.700 C 252.004 909.316, 251.146 909.467, 243.629 909.180 L 235.253 908.860 235.359 912.930 L 235.466 917 244.733 917 C 252.689 917, 254 916.766, 254 915.345 C 254 913.822, 254.142 913.818, 255.780 915.301 C 261.288 920.285, 267.941 920.347, 273.042 915.459 C 275.662 912.949, 275.750 912.935, 276.274 914.940 C 276.777 916.864, 277.546 917, 287.906 917 C 296.609 917, 299 916.706, 299 915.636 C 299 914.633, 300.256 914.913, 303.750 916.696 C 309.282 919.518, 312.701 919.228, 317.558 915.523 C 320.527 913.259, 320.821 913.208, 321.258 914.877 C 321.765 916.818, 327.230 918, 335.694 918 L 340.110 918 339.805 913.278 L 339.500 908.556 331 908.851 L 322.500 909.146 320.707 904.068 C 318.330 897.336, 315.299 895.483, 307.327 895.889 C 303.904 896.064, 299.148 900.696, 298.423 904.560 L 297.777 908 287.357 908 C 278.307 908, 276.866 907.770, 276.395 906.250 C 274.508 900.165, 268.849 894.991, 264.102 895.011 C 262.671 895.017, 260.029 896.182, 258.230 897.599 M 377.898 897.265 C 375.493 898.868, 374.062 900.912, 373 904.260 L 371.500 908.990 364.367 908.995 C 357.817 909, 357.184 909.184, 356.630 911.250 C 355.121 916.880, 355.296 917, 365 917 C 372.708 917, 374 916.762, 374 915.345 C 374 913.819, 374.140 913.816, 375.787 915.307 C 376.769 916.196, 379.261 917.629, 381.324 918.491 C 384.764 919.928, 385.369 919.919, 388.627 918.373 C 390.580 917.446, 392.696 915.858, 393.330 914.844 C 394.823 912.453, 395.711 912.513, 396.519 915.059 C 397.139 917.013, 397.849 917.110, 410.336 916.949 C 418.049 916.850, 424.666 917.239, 426.315 917.890 C 430.732 919.632, 434.413 919.209, 438.405 916.500 C 442.688 913.593, 443 913.520, 443 915.424 C 443 916.511, 444.910 916.925, 451.088 917.174 C 455.536 917.353, 459.254 917.419, 459.351 917.321 C 459.447 917.222, 459.357 915.024, 459.151 912.436 L 458.777 907.731 450.972 908.382 L 443.166 909.033 442.487 905.942 C 442.114 904.242, 440.455 901.310, 438.801 899.426 C 436.157 896.415, 435.209 896, 430.973 896 C 425.216 896, 420.484 899.347, 419.195 904.333 L 418.377 907.500 407.326 907.816 L 396.276 908.131 395.644 904.972 C 395.297 903.234, 393.480 900.280, 391.606 898.406 C 387.465 894.265, 382.961 893.890, 377.898 897.265 M 812 906.631 L 812 918.262 815.750 917.642 C 817.813 917.301, 820.513 917.017, 821.750 917.011 C 823.912 917, 823.999 916.658, 823.986 908.250 C 823.966 895.268, 823.833 895, 817.383 895 L 812 895 812 906.631 M 495.536 898.737 C 494.031 900.242, 491.935 903.167, 490.879 905.237 L 488.959 909 481.980 909 L 475 909 475 913.044 L 475 917.088 482.208 916.794 C 488.963 916.518, 489.454 916.343, 490.019 914 C 490.622 911.503, 490.624 911.503, 491.794 913.653 C 493.086 916.025, 500.491 920, 503.620 920 C 504.713 920, 507.134 918.425, 509 916.500 C 512.923 912.453, 513.575 912.268, 514.290 915 C 514.767 916.825, 515.654 917, 524.406 917 C 530.263 917, 534 916.603, 534 915.980 C 534 915.418, 535.874 915.915, 538.164 917.084 C 543.008 919.555, 547.471 919.225, 551.905 916.068 C 554.344 914.331, 554.880 914.244, 555.364 915.506 C 555.802 916.648, 557.711 917, 563.469 917 L 571 917 571 912.362 L 571 907.724 563.589 908.396 L 556.177 909.067 553.642 903.529 C 551.085 897.944, 548.528 896, 543.739 896 C 540.285 896, 534.201 900.860, 532.965 904.607 L 531.845 908 522.500 908 L 513.155 908 512.032 904.597 C 509.193 895.995, 501.139 893.134, 495.536 898.737 M 608.434 899.250 C 605.703 901.759, 604.707 903.640, 604.066 907.500 C 603.609 910.250, 603.182 911.425, 603.118 910.111 C 603.005 907.825, 602.773 907.749, 597.750 908.352 C 594.862 908.699, 591.263 908.987, 589.750 908.991 C 587.210 908.999, 587 909.305, 587 913 L 587 917 595.500 917 C 603.560 917, 604 916.888, 604 914.826 L 604 912.651 606.264 914.778 C 609.475 917.795, 615.596 920.140, 618.414 919.432 C 619.732 919.101, 621.831 917.744, 623.079 916.415 C 625.702 913.624, 627 913.342, 627 915.564 C 627 916.903, 628.686 917.102, 638.750 916.955 C 647.537 916.826, 651.416 917.179, 654.132 918.355 C 658.421 920.213, 662.988 919.299, 666.660 915.850 C 668.480 914.140, 669 913.993, 669 915.190 C 669 916.260, 670.400 916.920, 673.598 917.358 C 682.230 918.542, 684.387 916.778, 681.997 910.493 C 681.058 908.024, 680.634 907.872, 675.353 908.117 L 669.712 908.378 667.989 903.939 C 665.989 898.783, 663.253 897.035, 657.151 897.015 C 653.590 897.003, 652.291 897.548, 649.975 900.027 C 648.419 901.692, 646.879 904.279, 646.551 905.777 L 645.955 908.500 636.090 908.186 L 626.224 907.872 625.624 904.871 C 625.294 903.221, 623.703 900.549, 622.089 898.935 C 617.945 894.791, 613.166 894.902, 608.434 899.250 M 382.937 903.340 C 379.893 904.851, 379.154 908.908, 381.596 910.694 C 383.981 912.438, 384.648 912.352, 387 910 C 391.105 905.895, 388.009 900.820, 382.937 903.340 M 135.257 904.250 C 132.623 907.582, 133.549 912, 136.880 912 C 138.996 912, 142 908.991, 142 906.871 C 142 903.531, 137.277 901.695, 135.257 904.250 M 183.223 904.557 C 179.026 907.496, 181.495 912.845, 186.472 911.596 C 189.817 910.757, 191.053 906.243, 188.456 904.344 C 186.145 902.654, 185.926 902.663, 183.223 904.557 M 261.626 904.517 C 258.722 907.421, 260.352 911, 264.578 911 C 269.539 911, 270.743 903.760, 265.876 903.196 C 264.424 903.027, 262.525 903.618, 261.626 904.517 M 307.086 904.397 C 306.404 905.218, 305.994 906.927, 306.173 908.195 C 306.428 909.995, 307.134 910.500, 309.391 910.500 C 312.956 910.500, 315.001 907.816, 313.393 905.250 C 311.957 902.960, 308.650 902.512, 307.086 904.397 M 427.571 904.571 C 425.345 906.798, 425.620 908.705, 428.433 910.548 C 431.774 912.737, 435 911.029, 435 907.072 C 435 903.003, 430.615 901.528, 427.571 904.571 M 737 903.965 L 732.500 904.500 732.500 910 L 732.500 915.500 741 915.795 C 745.675 915.957, 750.552 915.826, 751.838 915.504 C 754.036 914.953, 754.134 914.604, 753.475 909.709 C 753.089 906.844, 752.613 904.326, 752.417 904.114 C 751.836 903.484, 741.857 903.387, 737 903.965 M 498.667 904.667 C 497.021 906.312, 498.103 910.090, 500.537 911.199 C 503.941 912.750, 506.560 910.368, 505.611 906.585 C 505.105 904.571, 504.340 904, 502.148 904 C 500.600 904, 499.033 904.300, 498.667 904.667 M 541 906 C 539.613 908.591, 541.325 912, 544.012 912 C 546.409 912, 549.270 907.868, 548.416 905.641 C 547.499 903.253, 542.337 903.503, 541 906 M 613.750 904.689 C 611.119 905.377, 611.426 910.622, 614.183 912.098 C 616.042 913.093, 616.636 912.933, 618.183 911.022 C 620.519 908.137, 620.484 906.329, 618.066 905.035 C 617.002 904.466, 615.989 904.052, 615.816 904.116 C 615.642 904.180, 614.712 904.438, 613.750 904.689 M 655.607 905.882 C 652.836 908.943, 653.882 911.500, 657.905 911.500 C 661.953 911.500, 664.105 908.982, 662.393 906.250 C 660.828 903.754, 657.687 903.583, 655.607 905.882" stroke="none" fill="#000000" fill-rule="evenodd"/>
</svg>