<svg xmlns="http://www.w3.org/2000/svg" width="1024" height="1024" viewBox="0 0 1024 1024" version="1.1">
	<path d="M 412.500 259.950 C 385.550 260.253, 362.938 260.864, 362.250 261.309 C 361.563 261.754, 361 263.441, 361 265.059 L 361 268 327.750 268.033 C 290.829 268.069, 289.993 268.188, 278.447 275.056 C 260.636 285.652, 251.441 303.146, 250.288 328.631 C 249.636 343.045, 250.764 347.679, 258.004 360.316 C 261.870 367.066, 264.160 369.689, 271.070 375.286 C 275.678 379.018, 281.935 383.293, 284.974 384.786 C 290.258 387.381, 291.093 387.489, 304.038 387.259 L 317.575 387.018 323.964 390.759 C 338.112 399.043, 346.877 410.099, 349.581 423.069 C 351.803 433.721, 350.545 441.194, 343.534 459 C 330.343 492.500, 326.677 510.258, 325.334 547.160 L 324.691 564.821 331.595 563.387 C 340.770 561.482, 352.552 555.800, 356.947 551.162 C 361.404 546.458, 363.135 541.537, 367.378 521.500 C 374.059 489.950, 378.389 476.610, 384.658 468.256 C 389.315 462.050, 407.172 451.733, 418.304 448.815 C 422.398 447.742, 423.245 447.774, 424.039 449.028 C 425.106 450.717, 425.297 456.062, 424.375 458.465 C 424.032 459.360, 419.194 462.283, 413.625 464.959 C 401.763 470.661, 395.813 475.443, 392.594 481.862 C 390.273 486.492, 383.517 512.352, 378.450 536 C 376.977 542.875, 374.731 550.525, 373.459 553 C 366.737 566.077, 350.787 575.033, 329.750 577.544 L 324 578.230 324 589.115 L 324 600 321.182 600 C 312.569 600, 298.313 608.525, 291.542 617.724 C 289.609 620.351, 286.671 625.973, 285.013 630.218 C 282.366 636.999, 282 639.170, 282 648.105 L 282 658.275 287.454 657.634 C 290.454 657.282, 351.879 656.976, 423.954 656.955 L 555 656.916 555 650.048 L 555 643.179 547.250 636.753 C 542.987 633.218, 534.100 625.235, 527.500 619.011 C 520.900 612.788, 513.061 605.852, 510.080 603.598 L 504.661 599.500 494.080 599.565 C 488.261 599.600, 470.900 600.097, 455.500 600.669 C 440.100 601.241, 427.401 601.639, 427.281 601.552 C 427.160 601.465, 426.351 596.693, 425.483 590.947 C 422.474 571.029, 423.545 553.573, 429.559 524.500 C 432.763 509.013, 436.754 500.486, 445.152 491.185 L 450.854 484.870 449.292 479.685 C 447.973 475.303, 447.828 470.474, 448.360 448.500 C 449.041 420.349, 449.709 414.246, 453.140 404.835 C 455.506 398.347, 459.316 393.805, 466.233 389.227 C 470.213 386.592, 470.894 386.488, 486.323 386.142 L 502.293 385.784 501.651 374.642 C 501.298 368.514, 501.007 342.193, 501.005 316.152 L 501 268.804 487.499 269.152 L 473.999 269.500 473.999 264.867 C 474 259.638, 472.848 258.871, 465.500 259.214 C 463.300 259.317, 439.450 259.648, 412.500 259.950 M 516.082 323.806 C 516.074 354.438, 516.316 381.075, 516.621 383 L 517.174 386.500 546.837 386 C 575.672 385.514, 576.626 385.434, 581 383.119 C 583.475 381.810, 586.793 379.828, 588.372 378.714 L 591.245 376.690 590.645 347.095 C 590.315 330.818, 590.035 308.903, 590.023 298.395 L 590 279.290 580.945 274.131 L 571.890 268.972 543.994 268.542 L 516.097 268.112 516.082 323.806 M 605.096 330 L 605.212 380 621.856 380.250 C 657.550 380.786, 660.791 380.610, 669.610 377.650 C 678.360 374.714, 684.659 371.119, 692.435 364.623 L 697.369 360.500 707.185 360.156 L 717 359.813 716.999 351.156 L 716.998 342.500 731.022 343.393 C 738.736 343.885, 745.298 344.036, 745.604 343.729 C 746.414 342.919, 744.242 339.149, 740 334 C 737.960 331.525, 735.088 327.576, 733.618 325.225 L 730.943 320.950 724.472 321.613 L 718 322.276 718 313.138 L 718 304 709.548 304 L 701.096 304 694.298 297.945 C 685.100 289.753, 680.120 286.577, 670.885 283.016 L 663.065 280 634.022 280 L 604.980 280 605.096 330 M 534.655 285.829 C 532.307 288.423, 532.598 290.539, 535.632 292.925 C 538.123 294.885, 539.127 294.965, 554.382 294.419 C 571.685 293.801, 575 292.992, 575 289.388 C 575 284.750, 571.998 284, 553.432 284 C 538.114 284, 536.136 284.193, 534.655 285.829 M 623.200 294.200 C 621.424 295.976, 621.740 298.454, 624.002 300.502 C 625.798 302.127, 627.832 302.291, 643.686 302.094 C 665.098 301.827, 668.463 300.601, 662.686 295.174 C 660.486 293.108, 659.475 293, 642.386 293 C 629.730 293, 624.044 293.356, 623.200 294.200 M 334.490 297.605 L 332 300.292 332 327.011 C 332 352.528, 332.093 353.849, 334.073 356.365 C 336.490 359.438, 339.985 359.779, 342.345 357.171 C 343.801 355.563, 344 352.021, 344 327.743 C 344 298.228, 344.078 298.718, 338.912 295.953 C 337.343 295.113, 336.511 295.424, 334.490 297.605 M 284.455 298.455 L 282 300.909 282 327.320 C 282 352.524, 282.095 353.851, 284.073 356.365 C 286.596 359.573, 289.248 359.723, 291.961 356.811 C 293.911 354.718, 294 353.417, 294 326.966 C 294 301.443, 293.859 299.182, 292.171 297.655 C 289.623 295.349, 287.321 295.588, 284.455 298.455 M 309.073 298.635 C 307.093 301.151, 307 302.472, 307 327.989 L 307 354.708 309.452 357.354 C 312.376 360.509, 313.057 360.584, 316.139 358.090 L 318.500 356.179 318.794 328.170 C 319.087 300.294, 319.078 300.150, 316.856 298.080 C 313.867 295.296, 311.570 295.460, 309.073 298.635 M 385.880 306.660 C 380.053 307.035, 378.766 307.509, 375.130 310.621 L 371 314.156 371 322.696 L 371 331.235 374.882 335.118 L 378.765 339 417.132 339.145 C 438.235 339.225, 457.075 339.180, 459 339.045 C 467.649 338.439, 471.615 332.607, 470.504 322.130 C 469.743 314.964, 468.180 311.503, 464.449 308.728 C 462.300 307.130, 458.663 306.922, 427.283 306.596 C 408.153 306.397, 389.521 306.426, 385.880 306.660 M 535.635 309.073 C 532.386 311.628, 532.315 313.406, 535.339 316.430 C 537.639 318.729, 537.984 318.765, 555.352 318.497 C 567.542 318.308, 573.487 317.841, 574.513 316.989 C 576.698 315.176, 576.326 311.655, 573.686 309.174 C 571.502 307.123, 570.437 307, 554.820 307 C 539.591 307, 538.059 307.165, 535.635 309.073 M 623.268 315.845 C 620.802 318.506, 620.662 318.948, 621.765 320.600 C 623.546 323.268, 627.434 323.883, 643.876 324.097 C 660.211 324.310, 661.233 324.211, 663.219 322.226 C 665.212 320.232, 665.233 320.005, 663.645 317.581 C 661.502 314.311, 660.603 314.155, 641.518 313.743 C 625.644 313.400, 625.520 313.414, 623.268 315.845 M 744 321.378 C 744 324.724, 756.300 342.134, 759.544 343.378 C 762.490 344.509, 778 344.087, 778 342.877 C 778 341.485, 769.729 329.813, 765.155 324.750 L 761.767 321 752.884 321 C 747.998 321, 744 321.170, 744 321.378 M 775.016 321.750 C 775.039 322.766, 778.511 328.430, 784.327 336.938 C 788.595 343.183, 789.521 344.001, 792.327 344.007 C 794.072 344.011, 798.538 344.301, 802.250 344.652 C 808.436 345.236, 808.999 345.131, 808.983 343.395 C 808.968 341.668, 795.206 323.495, 792.605 321.765 C 791.147 320.796, 774.995 320.782, 775.016 321.750 M 807.529 323.180 C 808.812 327.385, 817.588 337, 820.144 337 C 823.464 337, 823.034 335.055, 818.220 328.296 C 814.137 322.563, 812.867 321.450, 810.100 321.180 C 807.082 320.885, 806.877 321.044, 807.529 323.180 M 536.077 332.589 C 532.515 335.586, 532.354 336.602, 534.917 339.937 C 536.781 342.362, 536.876 342.373, 554.441 342.300 C 569.853 342.236, 572.339 342.003, 574.046 340.459 C 576.814 337.953, 576.475 335.578, 572.923 332.589 C 569.906 330.050, 569.551 330, 554.500 330 C 539.449 330, 539.094 330.050, 536.077 332.589 M 623.655 336.829 C 621.373 339.350, 621.584 341.684, 624.250 343.412 C 627.401 345.454, 660.067 346.019, 662.413 344.072 C 664.539 342.307, 664.422 338.692, 662.171 336.655 C 660.616 335.248, 657.722 335, 642.826 335 C 627.127 335, 625.138 335.190, 623.655 336.829 M 535.887 356.813 L 532.500 359.843 534.607 362.671 L 536.713 365.500 553.359 365.774 C 566.834 365.996, 570.577 365.753, 573.003 364.499 C 576.642 362.617, 576.790 360.699, 573.545 357.455 C 571.207 355.116, 570.509 354.999, 558.795 354.989 C 552.033 354.983, 544.874 354.709, 542.887 354.380 C 539.822 353.873, 538.761 354.242, 535.887 356.813 M 622.961 359.541 C 620.700 361.948, 620.644 362.276, 622.062 364.804 L 623.575 367.500 641.928 367.773 C 657.129 367.999, 660.686 367.781, 662.640 366.500 C 665.451 364.659, 665.618 362.931, 663.250 360.215 C 661.661 358.393, 659.838 358.152, 643.436 357.592 L 625.372 356.975 622.961 359.541 M 390.357 369.992 C 387.628 371.093, 385 374.819, 385 377.588 C 385 378.766, 385.933 380.916, 387.073 382.365 C 388.914 384.706, 389.838 385, 395.350 385 C 402.930 385, 406 383.226, 406 378.848 C 406 374.414, 403.199 370.290, 399.714 369.593 C 395.812 368.812, 392.980 368.933, 390.357 369.992 M 420.135 372.357 C 418.917 373.653, 417.667 376.274, 417.358 378.183 C 416.494 383.507, 418.632 385, 427.117 385 C 433.188 385, 434.409 384.682, 436.545 382.545 C 439.545 379.546, 439.677 376.130, 436.927 372.635 C 435.083 370.290, 434.166 370, 428.602 370 C 423.326 370, 422.003 370.368, 420.135 372.357 M 470.955 403.048 C 464.988 409.436, 463.774 415.171, 463.237 439.514 L 462.751 461.529 476.126 460.684 C 495.849 459.438, 497.267 458.026, 494.639 442.253 C 492.381 428.694, 492.510 416.207, 495 407.500 C 496.100 403.654, 497 400.392, 497 400.253 C 497 400.114, 491.781 400, 485.401 400 L 473.802 400 470.955 403.048 M 282.732 699.746 C 283.143 720.312, 283.602 727.163, 284.718 729.364 C 287.592 735.034, 294.413 741.257, 301.472 744.650 L 308.444 748 419.044 748 C 541.848 748, 533.916 748.433, 543.500 741.212 C 546.250 739.140, 549.854 735.432, 551.508 732.972 L 554.516 728.499 554.466 700.999 L 554.417 673.500 418.308 673.246 L 282.199 672.993 282.732 699.746" stroke="none" fill="#000000" fill-rule="evenodd"/>
</svg>