<svg xmlns="http://www.w3.org/2000/svg" width="1024" height="1024" viewBox="0 0 1024 1024" version="1.1">
	<path d="M 288 177.987 C 277.165 179.160, 265.531 182.925, 252.186 189.578 C 221.209 205.022, 201.124 228.074, 192.131 258.504 C 186.956 276.018, 187.120 267.378, 187.357 510.500 C 187.600 759.177, 187.093 739.008, 193.560 757.006 C 203.706 785.244, 219.102 803.933, 244.065 818.313 C 254.961 824.589, 264.032 828.054, 277.756 831.182 L 287.500 833.403 510 833.748 C 755.609 834.128, 739.905 834.496, 761.500 827.862 C 773.983 824.027, 781.927 820.451, 790.676 814.730 C 803.339 806.449, 810.564 798.827, 824.322 779.233 C 829.703 771.571, 836.669 755.388, 839.167 744.748 L 841.339 735.500 841.110 508 C 840.964 363.215, 840.520 278.319, 839.888 274.500 C 834.811 243.820, 819.682 217.928, 797.014 201.123 C 787.923 194.382, 772.368 186.359, 761.357 182.731 C 743.007 176.684, 756.340 176.987, 515.119 177.142 C 393.779 177.220, 291.575 177.601, 288 177.987 M 426 222 L 293.500 222.500 285.515 225.322 C 270.488 230.632, 256.011 241.247, 246.403 254 C 242.527 259.145, 238.424 268.551, 235.894 278.092 L 233.664 286.500 233.806 505.188 C 233.962 746.551, 233.515 730.158, 240.373 745.982 C 246.989 761.250, 257.447 772.183, 272.500 779.571 C 283.490 784.965, 290.208 786.736, 304.500 788.006 C 318.779 789.274, 720.813 789.288, 730.566 788.020 C 739.350 786.878, 745.165 784.954, 755.870 779.648 C 771.143 772.078, 784.012 757.548, 791.155 739.809 L 794.500 731.500 794.785 510.500 C 794.988 352.342, 794.755 287.653, 793.963 283.005 C 789.295 255.608, 770.827 235.313, 741.655 225.520 C 727.652 220.819, 730.482 220.851, 426 222 M 570.500 264.941 C 565.507 267.497, 562 272.520, 562 277.116 C 562 279.815, 562.814 281.390, 565.585 284.054 C 570.458 288.738, 572 292.024, 572 297.729 C 572 303.588, 569.717 307.150, 562.225 312.981 C 550.044 322.461, 545.240 335.688, 548.428 350.975 C 550.979 363.211, 557.353 372.022, 567.222 376.953 C 573.864 380.272, 578.294 380.740, 583.298 378.649 C 587.998 376.685, 593 370.601, 593 366.848 C 593 363.718, 592.475 363.085, 581.185 352.621 C 577.484 349.189, 577 348.229, 577 344.305 C 577 338.491, 577.868 337.023, 587.067 327.273 C 597.368 316.357, 600.270 310.385, 600.815 298.983 C 601.106 292.894, 600.750 288.652, 599.622 284.770 C 595.093 269.192, 580.975 259.579, 570.500 264.941 M 442.984 265.852 C 438.349 268.315, 435 273.385, 435 277.940 C 435 280.940, 435.799 282.367, 439.524 286.023 C 448.021 294.362, 447.752 302.796, 438.752 310.221 C 425.776 320.927, 422.423 326.465, 421.324 339 C 420.361 349.979, 424.068 360.943, 431.407 368.820 C 435.169 372.858, 444.691 378.788, 448.699 379.590 C 453.223 380.495, 460.003 378.197, 463.690 374.510 C 469.222 368.978, 467.885 363.854, 459 356.539 C 452.053 350.821, 451.047 349.142, 451.022 343.228 C 451 338.038, 451.118 337.829, 458.453 329.985 C 471.102 316.460, 474.615 307.927, 473.754 292.824 C 473.150 282.223, 469.946 274.710, 464.035 270.028 C 456.307 263.907, 449.271 262.511, 442.984 265.852 M 505.241 265.995 C 501.168 268.478, 498.009 273.542, 498.004 277.594 C 498.001 279.882, 499.303 282.178, 503 286.403 C 507.415 291.448, 508 292.643, 508 296.624 C 508 302.683, 507.048 304.250, 497.980 313.115 C 489.641 321.267, 487.454 324.625, 485.356 332.500 C 480.348 351.292, 491.468 373.498, 508.405 378.528 C 516.322 380.879, 525.122 377.533, 528.572 370.860 C 530.948 366.266, 529.065 362.179, 521.517 355.553 C 510.260 345.669, 510.530 340.804, 523.088 327.283 C 527.431 322.606, 532.164 316.308, 533.693 313.169 C 536.192 308.041, 536.457 306.451, 536.478 296.500 C 536.498 286.703, 536.214 284.891, 533.889 279.933 C 527.703 266.742, 514.528 260.332, 505.241 265.995 M 385.685 325.101 C 380.938 326.384, 376.288 330.680, 374.457 335.474 C 371.278 343.797, 374.517 351.504, 382.470 354.542 C 396.062 359.733, 410.062 345.689, 403.651 333.293 C 400.610 327.412, 391.874 323.428, 385.685 325.101 M 623.594 326.266 C 615.508 330.891, 612.924 339.081, 616.938 347.371 C 619.780 353.243, 625.906 356.496, 632.683 355.732 C 638.420 355.086, 641.875 352.582, 644.815 346.941 C 647.557 341.678, 647.335 335.276, 644.266 331.136 C 641.533 327.449, 635.152 324.033, 631 324.033 C 629.075 324.033, 625.742 325.038, 623.594 326.266 M 682.199 433.982 L 682.269 449.963 687.730 454.086 C 696.927 461.030, 699.356 470.398, 694.606 480.599 C 691.264 487.777, 685.344 491.392, 675.539 492.243 C 673.023 492.461, 672.468 493.035, 671.843 496.065 C 671.439 498.026, 668.620 505.400, 665.579 512.451 C 662.538 519.503, 660.290 525.661, 660.584 526.136 C 660.878 526.611, 664.354 526.992, 668.309 526.983 C 685.292 526.942, 700.301 520.867, 711.500 509.503 C 726.986 493.788, 732.782 475.707, 728.524 456.392 C 726.016 445.013, 722.938 439.218, 715.725 432.291 C 706.881 423.799, 694.630 418.047, 685.315 418.012 L 682.129 418 682.199 433.982 M 364.354 421.519 C 364.034 422.355, 363.986 433.718, 364.250 446.769 C 364.679 468.074, 364.987 471.480, 367.265 480.085 C 374.123 506.003, 386.174 526.506, 405.927 545.861 C 420.813 560.448, 433.491 568.887, 451.802 576.397 C 471.237 584.368, 487.755 587.370, 512.500 587.429 C 531.798 587.476, 538.032 586.457, 558.662 579.886 C 583.533 571.963, 600.558 561.403, 616.529 543.990 C 622.360 537.631, 623.879 535.769, 631.611 525.500 C 636.538 518.955, 645.435 503.506, 647.947 497.136 C 653.858 482.138, 657 461.661, 657 438.131 L 657 420 510.969 420 C 381.257 420, 364.872 420.170, 364.354 421.519 M 314.081 596.929 C 312.871 597.695, 312.924 598.538, 314.443 602.663 C 317.103 609.887, 326.425 626.111, 331.483 632.320 C 341.470 644.580, 359.425 656.006, 377.723 661.747 L 386.500 664.500 510.500 664.500 L 634.500 664.500 645.500 660.699 C 662.302 654.893, 673.865 647.570, 686.175 634.939 C 693.883 627.031, 708.724 603.779, 709.257 598.775 L 709.500 596.500 656 596.830 C 596.410 597.198, 570.196 598.209, 562 600.456 C 545.969 604.850, 535.413 606.403, 522 606.338 C 509.368 606.278, 472.795 603.080, 461.426 601.042 C 458.635 600.542, 452.335 599.863, 447.426 599.533 C 442.517 599.204, 435.350 598.712, 431.500 598.440 C 423.035 597.843, 346.696 596.069, 328.500 596.046 C 321.350 596.038, 314.861 596.435, 314.081 596.929 M 696.365 681.953 C 692.622 682.845, 687.858 686.093, 685.043 689.672 C 680.791 695.078, 683.769 705.840, 690.704 710.126 C 697.998 714.634, 709.953 712.075, 714.779 704.972 C 719.434 698.121, 718.928 692.101, 713.230 686.566 C 708.162 681.643, 703.270 680.305, 696.365 681.953 M 314.366 683.919 C 310.335 686.376, 306.404 691.625, 305.540 695.703 C 303.650 704.627, 315.305 714.479, 325.492 712.568 C 330.467 711.634, 337.631 704.485, 338.561 699.525 C 340.757 687.820, 324.822 677.543, 314.366 683.919 M 643.500 687.141 C 637.431 687.775, 409.547 688.181, 373 687.623 C 364.229 687.489, 361.300 688.460, 358.973 692.277 C 356.495 696.340, 356.461 701.603, 358.886 705.580 C 362.893 712.152, 352.843 711.734, 511 711.897 C 646.545 712.036, 654.693 711.946, 657.980 710.272 C 668.587 704.871, 668.742 689.225, 658.207 687.450 C 656.168 687.106, 653.825 686.708, 653 686.565 C 652.175 686.422, 647.900 686.681, 643.500 687.141" stroke="none" fill="#000000" fill-rule="evenodd"/>
</svg>