<svg xmlns="http://www.w3.org/2000/svg" width="1024" height="1024" viewBox="0 0 1024 1024" version="1.1">
	<path d="M 253 127.875 C 243.525 130.050, 235.124 136.380, 231.597 144 C 229.581 148.356, 229.512 150.055, 229.434 197.055 L 229.354 245.611 297.427 245.422 C 334.867 245.319, 462.025 245.171, 580 245.093 L 794.500 244.952 794.273 199.226 C 794.147 174.077, 793.789 151.633, 793.477 149.352 C 792.360 141.202, 784.612 132.891, 774.956 129.484 C 771.821 128.379, 753.781 128.120, 677.803 128.092 C 626.487 128.074, 510.700 127.836, 420.500 127.565 C 330.300 127.294, 254.925 127.433, 253 127.875 M 697.870 141.005 C 682.343 144.915, 670.594 155.992, 665.868 171.177 C 663.225 179.667, 663.207 192.794, 665.828 200.250 C 672.729 219.884, 694.149 233.119, 713.883 229.942 C 730.512 227.263, 741.986 218.900, 749.237 204.171 C 752.035 198.487, 752.493 196.414, 752.836 187.884 C 753.151 180.044, 752.818 176.760, 751.155 171.284 C 747.332 158.697, 737.144 147.516, 725.344 142.955 C 718.843 140.443, 704.222 139.405, 697.870 141.005 M 325 156.284 C 324.725 156.586, 313.137 156.971, 299.250 157.140 L 274 157.446 274.006 179.473 C 274.009 191.588, 274.293 205.110, 274.637 209.523 L 275.261 217.545 348.258 217.871 L 421.255 218.196 420.592 212.848 C 420.227 209.907, 419.866 196.137, 419.790 182.250 L 419.651 157 406.989 157 C 400.025 157, 378.841 156.715, 359.913 156.367 C 340.986 156.020, 325.275 155.982, 325 156.284 M 610.186 158.671 C 608.914 158.938, 605.953 161.033, 603.607 163.328 C 599.658 167.190, 599.171 168.266, 597.047 177.812 C 595.230 185.982, 594.898 189.590, 595.450 195.189 C 596.550 206.348, 598.796 210.295, 606.210 214.097 C 610.900 216.503, 615.646 216.513, 621.167 214.130 C 628.066 211.152, 629.057 209.398, 630.686 197.292 C 632.632 182.823, 632.062 172.454, 629.051 167.582 C 624.990 161.012, 617.008 157.241, 610.186 158.671 M 699.182 162.519 C 689.410 166.764, 685.012 173.907, 685.032 185.500 C 685.064 203.928, 699.757 214.391, 717.239 208.434 C 723.048 206.455, 731.367 197.943, 732.905 192.405 C 736.097 180.908, 730.823 168.263, 720.734 163.224 C 715.444 160.582, 704.469 160.223, 699.182 162.519 M 535.500 173.503 C 526.569 176.662, 524.059 185.581, 530.148 192.516 C 534.092 197.008, 537.882 199, 542.482 199 C 550.685 199, 557 193.708, 557 186.833 C 557 180.382, 554.650 176.197, 549.788 173.990 C 544.732 171.695, 540.972 171.567, 535.500 173.503 M 294.003 181.103 C 294.001 183.085, 294.277 187.360, 294.615 190.603 L 295.230 196.500 324.865 195.740 C 341.164 195.322, 359.977 195.242, 366.671 195.562 C 373.365 195.882, 383.602 195.825, 389.421 195.436 L 400 194.727 400 186.364 L 400 178 394.250 177.844 C 391.087 177.759, 367.239 177.646, 341.253 177.594 L 294.005 177.500 294.003 181.103 M 229.004 497.972 L 228.992 727.746 511.746 727.260 C 667.261 726.993, 794.500 726.713, 794.500 726.637 C 794.500 726.562, 794.385 623.380, 794.244 497.343 L 793.987 268.187 671.744 268.396 C 604.510 268.512, 548.712 268.968, 547.750 269.410 C 546.701 269.892, 546 271.318, 546 272.970 C 546 275.629, 546.298 275.786, 554.485 277.411 C 582.508 282.977, 612.513 296.361, 634 312.880 C 644.456 320.919, 665.329 341.107, 672.771 350.380 C 684.537 365.040, 696.768 386.160, 704.403 405 L 707.848 413.500 711.924 413.183 C 714.783 412.960, 716.006 413.258, 716.020 414.183 C 716.031 414.907, 716.459 418.425, 716.972 422 C 722.469 460.334, 723.308 488.426, 719.918 520.564 C 718.773 531.420, 717.439 541.347, 716.953 542.623 C 716.111 544.839, 714.450 545.598, 709.086 546.220 C 707.057 546.455, 706.401 547.465, 704.972 552.547 C 698.138 576.852, 682.462 602.165, 659.661 625.712 C 631.225 655.079, 592.425 676.146, 551.325 684.535 C 506.226 693.740, 460.909 687.724, 421.134 667.252 C 370.679 641.283, 333.663 600.913, 316.106 552.710 C 304.882 521.895, 302.730 510.005, 302.675 478.500 C 302.635 455.222, 303.402 448.075, 307.667 432 C 311.581 417.247, 313.688 411.720, 322.031 394.315 C 334.201 368.927, 343.355 355.753, 362.459 336.134 C 393.847 303.900, 429.240 284.513, 472.250 275.997 C 477.295 274.998, 478 274.570, 478 272.509 C 478 270.756, 477.301 270.008, 475.250 269.564 C 473.738 269.237, 417.716 268.796, 350.758 268.584 L 229.017 268.198 229.004 497.972 M 486 297.610 C 437.339 304.119, 395.209 328.917, 364.714 369 C 349.190 389.406, 334.630 419.074, 329.876 439.988 C 323.550 467.821, 323.619 500.354, 330.059 525.775 C 335.937 548.982, 351.076 577.173, 369.215 598.694 C 383.557 615.710, 404.639 632.829, 426 644.807 C 437.325 651.157, 460.876 659.076, 480.467 663.123 C 489.553 665, 492.860 665.146, 515.500 664.676 C 543.014 664.104, 546.710 663.555, 566.500 657.098 C 589.360 649.640, 602.272 643.203, 620.058 630.397 C 639.952 616.073, 659.430 593.808, 673.330 569.500 C 677.937 561.444, 682.600 550.267, 681.722 549.388 C 681.461 549.128, 676.849 549.665, 671.473 550.581 C 665.761 551.555, 658.948 552.050, 655.081 551.774 L 648.465 551.300 641.998 560.734 C 620.013 592.803, 590.961 614.746, 555 626.445 C 529.149 634.854, 506.970 636.103, 482.509 630.526 C 467.897 627.194, 463.166 625.484, 446.500 617.512 C 420.326 604.992, 397.971 585.570, 381.801 561.300 C 364.725 535.671, 357.987 513.384, 358.008 482.591 C 358.028 454.141, 363.993 430.315, 377.186 406 C 391.064 380.423, 418.743 354.768, 446.093 342.132 C 468.555 331.754, 490.235 327.406, 515 328.310 C 533.378 328.980, 544.839 330.867, 558.723 335.509 C 594.446 347.451, 623.656 371.261, 645.629 406.346 C 649.126 411.931, 652.103 416.823, 652.244 417.217 C 652.385 417.612, 654.913 417.226, 657.863 416.359 C 660.812 415.493, 667.422 414.043, 672.552 413.138 L 681.879 411.492 679.036 404.754 C 668.709 380.276, 646.707 352.138, 624.575 335.106 C 599.041 315.457, 576.556 305.582, 541.169 298.476 C 530.873 296.408, 526.171 296.017, 512.669 296.103 C 503.776 296.159, 491.775 296.838, 486 297.610 M 488.840 352.477 C 454.190 358.139, 421.717 379.593, 401.288 410.319 C 398.795 414.069, 396.697 417.875, 396.627 418.777 C 396.448 421.086, 405.925 426.565, 415.148 429.483 C 436.251 436.161, 461.917 437.299, 481.447 432.425 C 490.002 430.289, 503.823 423.442, 516.500 415.057 C 528.336 407.229, 541.664 400.170, 551.864 396.328 C 560.579 393.046, 583.340 388.065, 593.048 387.317 C 600.946 386.708, 601.018 386.677, 599.269 384.699 C 596.747 381.847, 574.714 367.386, 567 363.519 C 558.946 359.483, 547.531 355.524, 537.858 353.411 C 527.577 351.166, 500.070 350.641, 488.840 352.477 M 582.561 411.583 C 564.379 414.409, 549.732 420.858, 526.928 436.078 C 497.519 455.705, 472.644 463.140, 446.218 460.202 C 430.836 458.492, 409.920 452.197, 393.546 444.350 C 388.042 441.712, 386.327 441.269, 385.434 442.252 C 384.235 443.573, 381.985 461.238, 381.994 469.250 C 381.999 472.814, 382.376 474, 383.508 474 C 384.337 474, 389.997 476.248, 396.086 478.995 C 417.892 488.834, 447.143 494.920, 466.500 493.647 C 484.777 492.444, 492.084 489.325, 520.350 470.659 C 531.564 463.254, 544.060 455.396, 548.120 453.197 C 558.015 447.836, 571.965 442.342, 580.511 440.440 C 589.316 438.480, 616.647 437.527, 628.500 438.767 C 633.450 439.284, 637.663 439.573, 637.862 439.409 C 638.744 438.680, 629.545 421.180, 626.752 418.272 C 623.217 414.592, 617.580 412.474, 607.500 411.037 C 598.535 409.760, 593.599 409.868, 582.561 411.583 M 682 436.518 C 677.325 437.244, 670.575 438.133, 667 438.494 L 660.500 439.150 661.150 451.825 C 662.040 469.159, 662.006 508.632, 661.092 519 C 660.680 523.675, 660.479 527.675, 660.645 527.890 C 660.810 528.104, 669.508 527.693, 679.973 526.976 L 699 525.672 698.995 490.086 C 698.992 470.514, 698.699 450.113, 698.344 444.750 L 697.698 435 694.099 435.099 C 692.120 435.153, 686.675 435.792, 682 436.518 M 589 461.554 C 569.372 465.765, 553.756 474.051, 524.728 495.654 C 512.892 504.463, 504.150 509.453, 494.951 512.652 C 486.223 515.687, 462.482 518.344, 452 517.459 C 435.313 516.049, 410.081 509.483, 392.346 501.934 C 387.262 499.771, 382.629 498, 382.051 498 C 380.433 498, 380.773 501.296, 383.586 512.864 C 391.421 545.094, 414.870 574.324, 447.659 592.734 C 458.989 599.095, 466.937 602.226, 481.649 606.120 C 496.925 610.163, 517.126 611.147, 531.971 608.569 C 543.787 606.517, 559.616 601.217, 570.986 595.507 C 591.753 585.077, 612.328 565.052, 626.475 541.500 C 629.118 537.100, 632.509 531.925, 634.011 530 C 636.699 526.555, 636.760 526.154, 637.880 504.500 C 638.506 492.400, 639.244 479.447, 639.520 475.715 C 640.358 464.352, 640.633 464.654, 627.182 462.160 C 613.732 459.666, 598.895 459.431, 589 461.554 M 715.600 748.750 L 642.701 749.013 643.600 766.757 C 644.095 776.515, 644.500 789.379, 644.500 795.341 L 644.500 806.182 648 805.424 C 649.925 805.008, 679.174 804.588, 712.998 804.491 L 774.495 804.316 776.410 800.908 C 781.238 792.316, 787.765 782.209, 790.500 779.090 L 793.500 775.668 793.661 761.834 L 793.821 748 791.161 748.243 C 789.697 748.377, 755.695 748.605, 715.600 748.750 M 229 764.186 L 229 779.104 235.750 786.357 C 239.463 790.346, 244.525 795.980, 247 798.876 L 251.500 804.142 315.376 804.321 L 379.252 804.500 378.649 795 C 378.317 789.775, 377.744 777.268, 377.375 767.208 L 376.704 748.915 302.852 749.092 L 229 749.268 229 764.186 M 397.534 750 C 397.380 750.275, 397.535 762.301, 397.877 776.724 L 398.500 802.949 501 803.019 C 557.375 803.057, 607.888 803.069, 613.250 803.044 L 623 803 623 775.978 L 623 748.956 510.407 749.228 C 448.480 749.377, 397.687 749.725, 397.534 750" stroke="none" fill="#000000" fill-rule="evenodd"/>
</svg>