<svg xmlns="http://www.w3.org/2000/svg" width="1024" height="1024" viewBox="0 0 1024 1024" version="1.1">
	<path d="M 355 132.034 C 249.853 132.562, 248.397 132.596, 240.411 134.731 C 193.763 147.200, 163.691 176.584, 153.657 219.500 C 151.553 228.499, 151.552 228.535, 151.219 474.500 C 150.971 657.749, 151.183 722.413, 152.048 728 C 155.365 749.425, 166.182 770.627, 182.200 787.102 C 195.052 800.320, 206.269 807.503, 221.500 812.268 C 238.779 817.674, 224.051 817.414, 514.500 817.447 L 784.500 817.478 792.748 815.218 C 817.091 808.549, 829.142 801.823, 845.095 786 C 860.371 770.850, 867.693 758.689, 873.094 739.497 L 875.344 731.500 876.179 485.500 C 877.089 217.579, 877.306 230.458, 871.559 210.746 C 866.903 194.778, 861.506 185.224, 849.823 172.272 C 829.728 149.992, 805.132 136.385, 778.928 133.049 C 769.082 131.796, 520.952 131.202, 355 132.034 M 267.500 172.993 C 261.148 173.939, 248.081 177.608, 242.410 180.039 C 220.922 189.249, 205.757 210.511, 201.014 238.076 C 200.231 242.626, 200.007 285.786, 200.245 386 C 200.625 545.756, 199.812 530.388, 208.895 549.500 C 212.859 557.842, 214.898 560.743, 221.191 567 C 234.575 580.306, 246.189 585.441, 266.467 587.018 C 282.924 588.299, 759.100 588.249, 769 586.966 C 774.870 586.205, 778.981 584.779, 787.918 580.400 C 797.858 575.531, 800.383 573.750, 807.418 566.653 C 816.356 557.636, 822.474 547.363, 825.671 536 C 827.405 529.837, 827.499 521.992, 827.474 384.500 C 827.447 239.579, 827.446 239.496, 825.316 232 C 819.372 211.080, 810.386 197.168, 795.894 186.448 C 784.075 177.706, 773.067 174.275, 752.591 172.953 C 735.834 171.871, 274.786 171.909, 267.500 172.993 M 309.549 201.232 C 304.496 202.281, 293.256 208.149, 287.334 212.830 C 280.765 218.023, 274.633 227.458, 271.300 237.500 L 268.646 245.500 268.929 318.448 C 269.160 377.904, 269.478 392.423, 270.649 396.948 C 273.836 409.272, 285.860 423.673, 297.609 429.236 L 304.500 432.500 323 432.404 C 459.828 431.690, 597.204 431.987, 605.099 433.013 C 616.510 434.496, 621.094 433.813, 630.233 429.270 C 645.145 421.856, 656.446 406.052, 658.917 389.155 C 659.574 384.664, 659.874 380.605, 659.584 380.137 C 659.295 379.668, 655.885 378.513, 652.008 377.571 C 648.131 376.629, 639.455 373.832, 632.729 371.356 C 626.003 368.880, 609.401 363.125, 595.835 358.567 L 571.170 350.279 570.512 353.790 C 570.149 355.721, 568.501 358.653, 566.848 360.306 L 563.843 363.311 544.915 362.678 C 524.556 361.997, 521.544 361.286, 518.345 356.404 C 516.859 354.136, 516.662 349.625, 516.586 316.175 C 516.503 279.984, 516.579 278.395, 518.500 275.834 C 522.590 270.383, 524.266 270, 544.036 270 L 562.264 270 565.632 273.571 C 567.484 275.535, 569 277.785, 569 278.571 C 569 280.549, 570.153 280.379, 576.228 277.509 C 582.254 274.663, 633.252 255.169, 645.938 250.864 C 650.578 249.289, 655.389 248, 656.629 248 C 659.961 248, 660.202 246.844, 658.539 238.805 C 655.290 223.096, 645.123 208.757, 633.309 203.222 L 627.500 200.500 470.289 200.500 C 383.822 200.500, 311.489 200.830, 309.549 201.232 M 365.610 218.570 C 343.215 223.601, 321.601 237.514, 308.239 255.500 C 296.071 271.879, 289.218 294.392, 290.280 314.500 C 291.324 334.263, 296.945 353.545, 305.354 366.215 C 326.741 398.435, 368.954 416.810, 404.648 409.438 C 416.390 407.012, 435.649 399.515, 443.500 394.313 C 461.087 382.660, 472.741 367.448, 480.379 346.178 C 485.018 333.261, 486.365 325.462, 486.369 311.500 C 486.372 296.076, 485.003 290.132, 478.080 275.516 C 470.887 260.331, 459.469 246.209, 446.556 236.528 C 439.559 231.281, 419.127 221.254, 411.735 219.439 C 402.345 217.132, 374.354 216.605, 365.610 218.570 M 375.459 237.309 C 369.656 240.078, 365.676 244.388, 362.355 251.500 C 357.716 261.433, 360.044 272.057, 368.821 281.017 C 375.184 287.512, 378.863 288.999, 388.500 288.972 C 399.148 288.943, 408.995 282.782, 413.697 273.208 C 417.434 265.597, 417.601 255.739, 414.107 249 C 408.822 238.806, 403.494 235.769, 390 235.261 C 381.594 234.944, 379.919 235.180, 375.459 237.309 M 748 235.676 C 747.175 235.984, 734.125 240.499, 719 245.708 C 703.875 250.918, 686.325 257.229, 680 259.735 C 660.452 267.477, 579.769 296, 577.416 296 C 576.106 296, 575.941 298.533, 576.200 314.706 L 576.500 333.411 582.500 334.748 C 606.960 340.197, 643.481 352.051, 671 363.475 C 688.450 370.718, 719.730 382.933, 733 387.685 C 741.871 390.862, 747.242 392.210, 751.500 392.331 L 757.500 392.500 757.344 384.500 C 757.259 380.100, 756.912 347.475, 756.573 312 C 756.235 276.525, 755.630 244.800, 755.229 241.500 C 754.565 236.036, 754.277 235.483, 752 235.307 C 750.625 235.201, 748.825 235.367, 748 235.676 M 343.497 246.387 C 338.824 248.424, 329.208 257.753, 324.410 264.905 C 322.016 268.473, 320.175 271.508, 320.317 271.650 C 320.459 271.792, 323.483 271.488, 327.037 270.974 C 335.784 269.710, 342.737 269.766, 343.566 271.107 C 344.845 273.176, 345.968 269.673, 346.006 263.500 C 346.025 260.200, 346.631 254.688, 347.351 251.250 C 348.778 244.444, 348.567 244.178, 343.497 246.387 M 429.405 248.662 C 429.775 250.223, 430.345 255.887, 430.672 261.250 L 431.267 271 440.390 271 C 445.408 271, 450.973 271.419, 452.757 271.930 C 454.540 272.442, 456 272.723, 456 272.556 C 456 272.389, 454.858 270.209, 453.462 267.712 C 450.378 262.192, 438.549 250.831, 432.873 247.935 L 428.733 245.823 429.405 248.662 M 434.951 285.362 C 426.061 287.760, 417.408 295.203, 414.989 302.534 C 413.213 307.913, 414.267 319.623, 417.021 325.119 C 423.248 337.549, 434.482 342.871, 447.373 339.498 C 456.724 337.052, 461.303 333.275, 465.557 324.500 C 468.459 318.513, 468.756 310.934, 466.402 302.932 C 464.107 295.129, 457.399 288.821, 448.461 286.061 C 440.848 283.709, 441.042 283.719, 434.951 285.362 M 326.904 286.323 C 308.757 291.416, 302.587 318.498, 316.307 332.838 C 325.762 342.720, 340.509 343.258, 352.545 334.161 C 359.805 328.674, 363.206 321.487, 363.167 311.712 C 363.133 302.894, 361.130 298.078, 355.412 293.057 C 348.024 286.570, 336.077 283.748, 326.904 286.323 M 536.352 311.250 C 536.715 323.488, 537.281 335.525, 537.608 338 L 538.204 342.500 544.726 342.469 L 551.248 342.439 551.754 315.719 L 552.260 289 543.976 289 L 535.691 289 536.352 311.250 M 681 301.475 C 673.025 302.219, 656.600 303.322, 644.500 303.927 C 621.472 305.077, 602.234 307.312, 598.012 309.327 C 595.175 310.682, 594.540 312.737, 595.454 317.607 C 596.698 324.235, 597.780 324.425, 626.276 323.018 C 640.149 322.333, 666.952 321.486, 685.838 321.136 L 720.177 320.500 722.088 318.139 C 724.083 315.675, 724.446 312.481, 723.352 307.012 C 722.858 304.541, 721.883 303.431, 719.234 302.325 C 714.285 300.256, 697.948 299.893, 681 301.475 M 382.273 305.527 C 379.031 308.769, 378.787 309.422, 379.259 313.603 C 379.857 318.909, 384.008 324, 387.737 324 C 391.873 324, 395.714 321.223, 397.941 316.623 C 400.542 311.249, 399.971 307.995, 395.814 304.497 C 391.363 300.751, 386.693 301.107, 382.273 305.527 M 379.079 338.577 C 365.678 343.468, 359.991 350.965, 360.010 363.718 C 360.033 380.046, 371.633 390.990, 388.932 391.005 C 400.356 391.015, 409.766 385.265, 414.645 375.293 C 421.240 361.814, 416.156 346.712, 402.716 339.855 C 397.183 337.032, 385.101 336.379, 379.079 338.577 M 319 352.886 C 319 354.603, 327.386 366.303, 332.834 372.188 C 338.791 378.621, 345.901 384, 348.449 384 C 350.177 384, 350.087 383.095, 347.371 373.202 C 346.571 370.287, 345.597 365.337, 345.207 362.202 L 344.498 356.500 336.162 355.317 C 331.577 354.667, 326.448 353.654, 324.763 353.067 C 321.036 351.768, 319 351.704, 319 352.886 M 450.500 354.057 C 448.300 354.512, 443.238 354.911, 439.250 354.942 L 432 355 432 359.390 C 432 361.804, 431.298 367.477, 430.441 371.997 C 429.584 376.517, 429.113 380.446, 429.395 380.728 C 430.231 381.564, 442.292 372.526, 446.381 368 C 450.263 363.704, 456 355.236, 456 353.804 C 456 352.908, 456.070 352.905, 450.500 354.057 M 343.892 443.750 C 343.309 445.262, 340.567 452.575, 337.798 460 C 335.029 467.425, 331.743 475.525, 330.495 478 C 329.247 480.475, 326.112 488.350, 323.527 495.500 C 320.943 502.650, 317.553 511.650, 315.995 515.500 C 314.437 519.350, 312.870 523.513, 312.514 524.750 L 311.865 527 328.797 527 L 345.728 527 347.404 522.250 C 349.164 517.262, 353.245 507.109, 358.061 495.739 C 359.636 492.020, 362.495 484.820, 364.415 479.739 C 369.042 467.489, 375.614 451.466, 378.049 446.500 L 380.009 442.500 375.255 441.838 C 372.640 441.473, 364.751 441.136, 357.725 441.088 L 344.950 441 343.892 443.750 M 583 442.048 C 576.125 442.458, 570.163 442.588, 569.750 442.337 C 569.337 442.087, 569 442.814, 569 443.952 C 569 445.934, 570.882 450.754, 583.463 481 C 586.552 488.425, 590.387 497.650, 591.987 501.500 C 601.497 524.392, 602.631 526.503, 605.384 526.438 C 606.823 526.403, 614.717 526.291, 622.926 526.188 L 637.851 526 635.574 520.250 C 634.321 517.087, 632.353 512.475, 631.200 510 C 630.047 507.525, 626.202 498.750, 622.656 490.500 C 619.110 482.250, 613.496 469.309, 610.179 461.741 C 606.863 454.174, 603.631 446.411, 602.997 444.491 C 601.984 441.422, 601.462 441.018, 598.672 441.152 C 596.928 441.235, 589.875 441.638, 583 442.048 M 434.750 442.746 C 427.094 443.002, 425 443.381, 425 444.509 C 425 449.975, 438.731 497.121, 445.744 515.731 L 449.599 525.963 464.299 526.507 C 478.611 527.037, 479 526.997, 479 525.010 C 479 523.887, 476.917 517.238, 474.371 510.234 C 471.826 503.230, 468.032 492.550, 465.940 486.500 C 459.277 467.225, 450.789 444.542, 449.755 443.250 C 449.205 442.563, 447.798 442.094, 446.628 442.209 C 445.457 442.324, 440.113 442.566, 434.750 442.746 M 188.357 612.937 C 185.090 614.338, 183 618.019, 183 622.370 C 183 625.365, 183.818 627.293, 186.457 630.513 C 193.408 638.996, 181.008 638.324, 326.783 638.117 C 397.923 638.016, 457.676 638.224, 459.567 638.579 L 463.004 639.223 460.969 641.862 C 459.849 643.313, 450.036 657.775, 439.161 674 C 428.287 690.225, 416.907 706.705, 413.874 710.622 C 405.908 720.907, 397 734.391, 397 736.164 C 397 739.621, 406.895 744.941, 413.391 744.978 C 416.536 744.996, 417.837 744.377, 420.175 741.750 C 425.657 735.590, 459.776 685.142, 469 669.557 C 471.475 665.375, 476.506 657.935, 480.179 653.024 C 483.852 648.113, 487.002 642.836, 487.179 641.298 C 487.496 638.533, 487.590 638.497, 495.223 638.208 L 502.946 637.917 502.478 665.208 C 500.945 754.808, 500.944 754.710, 502.782 756.978 C 505.031 759.755, 511.464 761.206, 516 759.961 C 522.948 758.054, 522.448 762.672, 522.186 702.810 C 522.055 672.940, 521.683 646.138, 521.359 643.250 L 520.770 638 528.920 638 L 537.071 638 539.080 642.687 C 540.185 645.265, 544.824 653.028, 549.388 659.937 C 553.953 666.847, 560.061 676.550, 562.963 681.500 C 569.459 692.583, 576.421 702.610, 589.346 719.500 C 609.866 746.315, 615.288 749.708, 626.140 742.526 C 632.346 738.419, 631.802 736.924, 616.855 717 C 601.454 696.469, 585.258 673.246, 581.135 665.779 C 579.531 662.876, 577.487 658.223, 576.592 655.439 C 575.697 652.655, 573.391 647.935, 571.467 644.948 L 567.969 639.519 570.390 638.871 C 571.721 638.515, 630.243 638.173, 700.437 638.112 C 839.685 637.991, 831.591 638.341, 837.372 632.191 C 841.922 627.351, 842.758 616.368, 838.768 613.836 C 835.938 612.039, 828.705 612.982, 824.088 615.750 L 819.500 618.500 513.613 618.725 L 207.726 618.951 203.773 615.820 C 199.541 612.469, 192.513 611.155, 188.357 612.937" stroke="none" fill="#000000" fill-rule="evenodd"/>
</svg>