<svg xmlns="http://www.w3.org/2000/svg" width="1024" height="1024" viewBox="0 0 1024 1024" version="1.1">
	<path d="M 493.500 156.112 C 452.995 158.484, 414.339 167.843, 373 185.288 C 352.023 194.140, 323.724 210.201, 306 223.313 C 276.086 245.444, 247.945 274.380, 229.058 302.430 C 216.932 320.438, 200.090 351.926, 193.183 369.500 C 174.240 417.702, 166.069 462.734, 167.326 512 C 168.384 553.502, 174.779 584.605, 190.132 622.935 C 216.481 688.718, 257.639 741.618, 313.500 781.499 C 324.791 789.560, 354.003 806.154, 368.500 812.743 C 411.574 832.318, 454.293 842.214, 502 843.668 C 596.728 846.555, 683.357 813.791, 754.500 748.170 C 775.648 728.663, 801.606 694.112, 818.865 662.500 C 845.425 613.850, 860.558 549.743, 858.642 494 C 857.121 449.722, 849.867 414.240, 834.320 375.027 C 811.471 317.396, 774.813 266.041, 731.997 231.682 C 720.845 222.733, 695.306 205.733, 681.556 198.107 C 646.060 178.419, 601.298 163.892, 559.500 158.497 C 549.424 157.196, 511.745 154.730, 508.500 155.159 C 507.950 155.232, 501.200 155.661, 493.500 156.112 M 484.404 189.088 C 453.681 191.832, 413.309 202.433, 380.050 216.488 C 371.275 220.197, 342.426 236.561, 332 243.744 C 287.935 274.103, 252.048 316.788, 228.794 366.500 C 215.103 395.769, 205.396 429.956, 199.831 468.500 C 197.802 482.551, 198.103 526.660, 200.325 541 C 207.440 586.922, 221.519 625.492, 245.379 664.425 C 269.596 703.942, 304.364 739.467, 342.530 763.692 C 358.699 773.955, 393.219 790.722, 413.172 798.004 C 424.894 802.281, 456.065 809.719, 470.252 811.624 C 488.210 814.035, 533.776 814.096, 552.500 811.734 C 573.006 809.148, 582.396 807.349, 598.668 802.887 C 636.016 792.646, 673.368 773.626, 709.500 746.448 C 730.359 730.758, 761.449 696.330, 776.729 672 C 800.904 633.506, 815.014 596.785, 822.839 552 C 830.268 509.477, 828.685 471.215, 817.637 426.253 C 805.946 378.673, 784.549 336.042, 753.055 297.583 C 725.170 263.530, 686.156 234.239, 642.853 214.844 C 607.348 198.942, 568.772 189.382, 537.514 188.740 C 526.207 188.508, 525.772 188.578, 523.855 190.938 C 522.766 192.279, 521.619 194.653, 521.307 196.213 C 520.619 199.655, 517.513 201.965, 507.294 206.637 C 495.981 211.808, 464.691 224.379, 456.272 227.134 L 449.045 229.500 449.022 243.150 L 449 256.799 461.750 257.182 C 472.563 257.507, 475.148 257.907, 478.763 259.810 C 484.153 262.647, 488.548 268.666, 489.928 275.100 C 491.595 282.874, 491.304 307.886, 489.487 313.037 C 487.395 318.966, 481.852 325.409, 476.694 327.906 C 472.551 329.912, 470.860 330, 436.664 330 L 400.960 330 396.959 327.474 C 394.758 326.085, 390.974 322.253, 388.549 318.959 C 383.223 311.725, 382.590 308.099, 383.186 288.261 C 383.646 272.964, 384.247 271.063, 390.654 264.652 C 397.736 257.566, 399.804 257, 418.596 257 L 435.272 257 434.636 252.360 C 434.286 249.809, 434 245.350, 434 242.453 L 434 237.185 425.750 240.699 C 421.212 242.632, 410.842 246.870, 402.704 250.116 C 394.566 253.362, 385.195 257.387, 381.880 259.061 C 378.564 260.734, 367.673 265.646, 357.676 269.975 C 347.679 274.304, 334.775 279.941, 329 282.502 C 309.613 291.099, 299.790 295.097, 298.834 294.778 C 297.179 294.226, 308.413 279.652, 313.398 275.883 C 320.231 270.717, 328.941 266.276, 352.654 255.868 C 364.119 250.835, 379.350 244.142, 386.500 240.994 C 393.650 237.846, 406.925 232.002, 416 228.006 C 438.049 218.299, 455.470 211.272, 479.303 202.472 C 499.791 194.908, 504.397 192.691, 503.738 190.714 C 502.895 188.184, 498.584 187.821, 484.404 189.088 M 601.259 246.531 C 598.850 248.219, 588.935 260.532, 561 296.527 C 550.825 309.639, 539.099 324.446, 534.943 329.433 C 530.786 334.420, 523.097 343.900, 517.856 350.500 C 512.614 357.100, 503.275 368.575, 497.102 376 C 490.929 383.425, 481.968 394.557, 477.189 400.737 C 472.410 406.917, 466.925 413.917, 465 416.292 C 463.075 418.666, 457.675 425.357, 453 431.161 C 448.325 436.964, 437.525 450.124, 429 460.405 C 420.475 470.686, 409.726 483.688, 405.113 489.299 C 377.572 522.796, 333.965 567.225, 309.984 586.220 C 305.318 589.916, 300.943 593.839, 300.261 594.939 C 299.580 596.038, 297.717 597.612, 296.121 598.437 L 293.220 599.938 291.110 595.034 C 288.649 589.314, 288.406 586, 290.447 586 C 291.243 586, 293.943 587.090, 296.448 588.421 L 301.001 590.842 301.593 588.485 C 302.019 586.787, 301.251 584.823, 298.842 581.455 C 290.240 569.428, 289 567.388, 289 565.269 C 289 562.582, 290.108 562.477, 296.270 564.576 C 298.815 565.443, 301.929 566.006, 303.191 565.826 C 305.198 565.541, 304.723 564.902, 299.388 560.717 C 296.034 558.086, 292.770 554.791, 292.134 553.396 C 291.053 551.023, 291.125 550.903, 293.239 551.552 C 294.483 551.933, 295.950 552.578, 296.500 552.985 C 297.050 553.391, 298.738 554.020, 300.250 554.381 C 305.265 555.579, 303.989 552.309, 293.225 536.378 C 291.424 533.712, 289.465 529.727, 288.871 527.522 C 287.781 523.471, 281.020 511.055, 279.886 511.019 C 279.548 511.009, 278.481 513.138, 277.515 515.750 C 276.549 518.363, 273.375 525, 270.461 530.500 C 263.952 542.788, 260.720 550.827, 261.486 552.824 C 261.928 553.975, 262.343 554.057, 263.233 553.167 C 263.875 552.525, 264.791 552, 265.269 552 C 265.746 552, 263.913 554.587, 261.195 557.750 C 255.791 564.036, 253.489 567.822, 254.471 568.805 C 254.820 569.153, 258.793 568.201, 263.302 566.688 C 267.811 565.176, 271.886 563.953, 272.358 563.970 C 273.990 564.027, 271.979 568.888, 266.897 577.167 C 256.680 593.816, 256.453 595.289, 264.852 590.488 C 267.246 589.120, 269.315 588, 269.451 588 C 269.587 588, 268.857 592.837, 267.829 598.750 C 266.800 604.663, 266.068 611.250, 266.202 613.388 C 266.414 616.784, 265.965 617.691, 262.659 620.549 C 260.578 622.348, 256.429 625.098, 253.440 626.660 C 250.450 628.222, 248.004 629.786, 248.002 630.136 C 248.001 630.486, 250.769 636.111, 254.154 642.636 C 257.539 649.161, 260.979 655.899, 261.799 657.608 L 263.288 660.717 266.711 658.608 C 277.652 651.868, 290.073 643.077, 301.601 633.913 C 308.807 628.186, 318.482 620.509, 323.101 616.852 C 327.721 613.196, 336.225 606.048, 342 600.967 C 347.775 595.886, 356.100 588.817, 360.500 585.257 C 369.280 578.154, 407.658 542.178, 418.028 531.329 C 446.090 501.970, 463.419 482.476, 475.454 466.730 C 480.174 460.553, 487.516 451.141, 491.768 445.814 C 496.021 440.487, 501.611 432.837, 504.192 428.814 C 506.773 424.791, 514.436 414.525, 521.222 406 C 528.007 397.475, 536.501 386.675, 540.097 382 C 558.596 357.947, 572.943 338.934, 575.953 334.481 C 577.804 331.741, 581.667 326.575, 584.538 323 C 590.362 315.745, 606.792 293.074, 607.360 291.508 C 608.639 287.985, 609.018 295.429, 609.043 324.590 C 609.079 365.412, 608.182 373.241, 599.485 408 C 589.906 446.289, 574.352 483.202, 551.240 522.500 C 532.388 554.554, 516.509 576.076, 496.061 597.286 C 481.096 612.809, 463.029 627.586, 462.169 625.006 C 461.741 623.724, 470.552 607.284, 477.982 595.500 C 486.467 582.043, 494.452 568.125, 496.915 562.500 C 499.015 557.702, 502.404 551.450, 518.764 522.191 C 526.762 507.886, 539.224 482.408, 545.782 466.956 C 553.838 447.971, 567.544 410.211, 566.689 409.356 C 566.446 409.113, 564.089 413.096, 561.452 418.207 C 558.814 423.318, 554.796 430.425, 552.522 434 C 550.247 437.575, 545.981 444.775, 543.041 450 C 523.857 484.091, 474.819 544.682, 437.343 580.601 C 416.986 600.112, 395.871 619.020, 384.843 627.616 C 346.056 657.846, 332.802 667.594, 309 683.397 C 301.025 688.692, 293.488 693.714, 292.250 694.559 C 289.495 696.438, 289.344 698.657, 291.916 699.473 C 292.969 699.808, 299.833 706.026, 307.168 713.291 C 328.232 734.153, 351.376 750.324, 355.777 747.254 C 356.725 746.593, 362.900 742.806, 369.500 738.839 C 395.309 723.326, 438.499 693.739, 460.609 676.426 C 498.182 647.005, 532.298 612.040, 557.360 577.268 C 576.825 550.263, 592.400 524.671, 603.779 501 C 615.405 476.812, 620.626 463.834, 628.345 439.937 C 636.352 415.151, 640.907 393.929, 641.715 377.646 C 642.174 368.405, 642.545 366.200, 643.398 367.646 C 644.137 368.898, 644.494 381.508, 644.496 406.500 L 644.500 443.500 641.219 459 C 635.147 487.688, 619.923 529.043, 604.590 558.500 C 590.971 584.665, 569.747 618.208, 554.785 637.213 C 516.544 685.789, 473.001 726.925, 426.500 758.407 C 417.700 764.364, 409.205 770.488, 407.623 772.016 L 404.745 774.793 407.007 776.004 C 410.936 778.106, 453.250 789.998, 459.078 790.637 C 464.322 791.212, 464.925 791.044, 469.130 787.834 C 471.591 785.956, 479.881 780.883, 487.552 776.562 C 515.910 760.586, 546.081 738.874, 571 716.507 C 581.723 706.883, 605.882 681.225, 615.263 669.500 C 661.114 612.187, 687.960 553.946, 697.542 491 C 701.845 462.734, 696.822 423.638, 684.051 386 C 679.425 372.367, 680.865 373.376, 690.333 390.405 C 718.773 441.555, 722.264 502.688, 700.646 571 C 695.890 586.026, 685.765 614.674, 682.796 621.500 C 664.649 663.229, 645.941 694.373, 619.999 726.037 C 607.338 741.491, 580.971 770.047, 572.102 777.910 C 568.140 781.422, 564.198 785.650, 563.343 787.304 L 561.788 790.311 569.340 789.673 C 593.908 787.596, 633.603 772.534, 666.840 752.677 C 678.398 745.772, 703.383 727.390, 714.930 717.297 C 731.533 702.783, 752.122 677.903, 763.333 658.803 C 779.390 631.448, 788.374 610.141, 797.003 578.947 C 803.386 555.875, 805.981 537.695, 807.910 502.520 L 808.732 487.541 805.051 483.020 C 794.178 469.669, 784.548 457.522, 776.603 447.138 C 771.709 440.742, 763.384 430.410, 758.103 424.179 C 752.821 417.948, 743.625 406.471, 737.666 398.675 C 731.708 390.879, 723.361 380.450, 719.118 375.500 C 714.875 370.550, 706.951 360.875, 701.509 354 C 696.067 347.125, 687.981 337.450, 683.540 332.500 C 679.099 327.550, 667.883 314.151, 658.615 302.725 C 649.347 291.299, 638.753 278.699, 635.072 274.725 C 631.390 270.751, 625.639 263.875, 622.292 259.443 C 611.968 245.779, 606.833 242.627, 601.259 246.531 M 404.500 273.403 C 398.415 276.089, 397.915 277.470, 397.531 292.644 L 397.180 306.500 436.590 306.500 L 476.001 306.500 476 292.673 L 476 278.846 473.077 275.923 L 470.154 273 445.577 273 C 424.845 273, 421 273.225, 421 274.441 C 421 277.089, 419.065 277.122, 414.676 274.550 C 409.749 271.663, 408.707 271.545, 404.500 273.403 M 351.009 330.855 C 347.180 332.909, 342.987 339.761, 343.022 343.907 C 343.050 347.199, 346.141 353.989, 348.611 356.180 C 354.175 361.120, 362.048 360.758, 368.107 355.285 C 372.657 351.174, 374.320 346.245, 373.045 340.653 C 370.880 331.166, 359.700 326.194, 351.009 330.855 M 358.111 365.560 C 356.279 367.101, 354.810 369.494, 354.421 371.571 C 354.065 373.469, 353.483 375.202, 353.128 375.421 C 352.773 375.640, 347.086 376.312, 340.491 376.914 C 316.704 379.083, 317.984 378.794, 316.505 382.333 C 314.494 387.146, 315.644 390.953, 319.607 392.609 C 322.365 393.761, 325.536 393.812, 337.994 392.903 C 346.273 392.299, 353.712 392.059, 354.524 392.371 C 355.362 392.693, 356 394.208, 356 395.879 L 356 398.820 347.250 399.407 C 332.070 400.426, 321.923 402.621, 319.041 405.512 L 316.500 408.059 316.703 425.780 C 316.895 442.538, 317.022 443.594, 319.041 445.231 L 321.176 446.963 318.838 447.933 C 299.724 455.861, 294.995 457.225, 288.322 456.731 C 284.479 456.446, 282.194 455.594, 279.459 453.424 C 273.162 448.429, 273.028 448.367, 271.987 450 C 270.709 452.005, 270.739 460.645, 272.033 463.062 C 272.602 464.125, 274.964 466.005, 277.283 467.242 C 280.730 469.080, 283.052 469.483, 290 469.450 C 297.665 469.413, 299.974 468.887, 313.500 464.093 C 330.297 458.141, 384.999 439.890, 400.766 434.977 C 416.071 430.209, 421.628 425.551, 419.449 419.318 C 418.012 415.209, 413.059 415.046, 404.703 418.835 C 401.131 420.455, 393.550 423.226, 387.855 424.994 C 382.160 426.762, 370.793 430.642, 362.596 433.617 C 354.398 436.591, 347.605 438.907, 347.499 438.762 C 347.131 438.260, 345.323 420.497, 345.604 420.140 C 345.760 419.942, 350.787 419.417, 356.775 418.974 C 369.173 418.056, 373.463 416.615, 377.270 412.091 C 381.277 407.329, 382.296 402.061, 381.765 388.872 C 381.387 379.498, 380.859 376.340, 379.041 372.585 C 374.629 363.471, 364.596 360.104, 358.111 365.560 M 329 429.941 C 329 438.647, 329.381 444, 330 444 C 331.834 444, 334.857 440.173, 334.484 438.324 C 334.281 437.321, 333.373 432.113, 332.466 426.752 C 331.558 421.391, 330.407 416.752, 329.908 416.443 C 329.380 416.117, 329 421.773, 329 429.941 M 921.980 619.250 C 919.020 623.237, 914.438 629.113, 911.796 632.306 C 900.333 646.163, 902.239 649.058, 918.837 643 C 923.358 641.350, 928.158 640, 929.503 640 C 930.848 640, 935.384 641.365, 939.583 643.033 C 950.249 647.270, 953.553 645.869, 948.750 639.146 C 947.513 637.414, 944.053 632.510, 941.062 628.248 C 934.400 618.756, 928.994 612, 928.060 612 C 927.676 612, 924.940 615.263, 921.980 619.250 M 915.869 659.110 C 903.082 673.758, 898.784 679.118, 899.363 679.696 C 899.549 679.883, 904.534 679.317, 910.440 678.440 C 916.346 677.563, 921.383 677.050, 921.635 677.301 C 922.135 677.802, 917.448 686.035, 912.894 692.655 C 911.302 694.968, 910 697.004, 910 697.180 C 910 697.356, 917.200 697.500, 926 697.500 C 934.800 697.500, 942 697.364, 942 697.198 C 942 697.032, 940.403 693.811, 938.452 690.041 C 934.733 682.853, 932.947 676, 934.794 676 C 935.374 676, 939.288 677.377, 943.492 679.061 C 947.696 680.744, 951.987 681.981, 953.027 681.811 C 954.781 681.522, 954.812 681.283, 953.447 678.500 C 952.638 676.850, 947.511 670.211, 942.052 663.747 C 936.594 657.284, 931.558 650.421, 930.863 648.497 C 930.167 646.574, 929.281 645, 928.892 645 C 928.504 645, 922.643 651.350, 915.869 659.110" stroke="none" fill="#000000" fill-rule="evenodd"/>
</svg>