<svg xmlns="http://www.w3.org/2000/svg" width="1024" height="1024" viewBox="0 0 1024 1024" version="1.1">
	<path d="M 507.123 138.002 C 505.265 138.441, 502.565 139.669, 501.123 140.732 C 497.770 143.203, 486.843 158.616, 478.772 172.258 C 475.322 178.088, 467.284 190.653, 460.909 200.179 C 454.534 209.706, 448.234 219.501, 446.909 221.946 C 444.600 226.206, 444.229 226.443, 438 227.624 C 429.990 229.142, 424.631 231.010, 405.500 238.952 C 387.750 246.321, 380.425 250.023, 365 259.421 C 321.337 286.021, 289.023 320.060, 261.234 368.721 C 229.491 424.307, 218.195 488.239, 229.004 551.137 C 231.049 563.036, 232.937 567.559, 236.548 569.204 C 237.897 569.818, 239 570.599, 239 570.938 C 239 571.724, 236.936 574.749, 230.428 583.500 C 223.590 592.695, 220.297 598.403, 214.851 610.500 C 210.789 619.524, 207.390 625.649, 190.712 654 C 177.349 676.716, 173.668 684.333, 173.210 690.216 C 172.580 698.296, 173.621 702.499, 177.284 706.670 C 182.971 713.148, 183.657 713.259, 223.500 714.135 C 276.442 715.299, 315.889 716.815, 320.996 717.882 C 324.306 718.574, 326.152 719.697, 327.996 722.141 C 333.324 729.204, 342.694 736.801, 362.055 749.755 C 388.008 767.121, 418.777 779.982, 452 787.351 C 472.333 791.861, 479.723 792.502, 511 792.468 C 536.500 792.440, 542.422 792.133, 554.673 790.206 C 570.034 787.790, 592.888 781.609, 611.052 774.957 C 624.272 770.116, 649.538 757.595, 662.279 749.571 C 672.874 742.899, 688.509 730.594, 692.348 725.908 C 693.883 724.033, 695.778 721.712, 696.560 720.750 C 697.809 719.211, 699.976 719, 714.529 719 C 735.750 719, 764.634 717.268, 768.500 715.763 C 770.460 715, 783.112 714.406, 805 714.048 L 838.500 713.500 843.223 710.723 C 851.752 705.710, 856.213 694.236, 852.481 686.916 C 851.524 685.037, 848.390 679.450, 845.517 674.500 C 842.645 669.550, 837.471 660.325, 834.020 654 C 830.570 647.675, 826.009 640.164, 823.885 637.308 C 819.404 631.284, 817.343 626.957, 816.533 621.871 C 815.928 618.075, 802.196 595.789, 793.073 583.799 C 786.563 575.242, 786.274 574.401, 788.888 571.619 C 793.181 567.050, 798.168 540.164, 799.577 514 C 800.772 491.793, 796.891 456.962, 790.495 432.500 C 777.756 383.777, 737.550 320.857, 698.067 287.854 C 673.635 267.431, 657.309 256.677, 631.500 244.003 C 615.052 235.925, 588.023 226, 582.476 226 C 578.224 226, 577.206 224.920, 571.415 214.271 C 563.462 199.646, 545.321 170.889, 527.518 144.684 C 523.246 138.396, 515.795 135.955, 507.123 138.002 M 507.797 154.750 C 503.463 159.764, 495.832 171.990, 465.196 223 C 455.782 238.675, 446.102 254.650, 443.685 258.500 C 436.407 270.096, 420.256 296.412, 408.924 315.138 C 403.053 324.839, 396.917 334.739, 395.287 337.138 C 393.658 339.537, 389.777 346, 386.663 351.500 C 383.549 357, 378.788 365.100, 376.081 369.500 C 373.375 373.900, 368.046 382.675, 364.239 389 C 360.433 395.325, 354.922 404.325, 351.993 409 C 349.065 413.675, 344.864 420.650, 342.658 424.500 C 340.452 428.350, 334.292 438.700, 328.970 447.500 C 317.555 466.373, 311.928 475.910, 299.471 497.500 C 294.393 506.300, 286.093 520.475, 281.027 529 C 264.251 557.228, 246.451 588.315, 225.200 626.500 C 222.139 632, 215.501 643.475, 210.448 652 C 205.396 660.525, 198.390 672.972, 194.881 679.660 L 188.500 691.820 190.604 694.660 C 192.685 697.469, 192.871 697.511, 207.604 698.461 C 216.565 699.039, 343.289 699.437, 525.677 699.461 L 828.854 699.500 831.677 697.400 C 833.230 696.244, 834.640 694.361, 834.811 693.213 C 834.986 692.040, 832.328 686.180, 828.732 679.814 C 825.218 673.591, 819.959 664, 817.047 658.500 C 811.994 648.957, 806.386 639.104, 795.988 621.500 C 793.389 617.100, 790.251 611.475, 789.014 609 C 787.777 606.525, 783.064 598.200, 778.541 590.500 C 774.018 582.800, 767.690 571.775, 764.479 566 C 761.268 560.225, 751.379 543.350, 742.505 528.500 C 733.630 513.650, 724.848 498.800, 722.988 495.500 C 717.726 486.161, 685.268 432.416, 664.408 398.500 C 662.040 394.650, 658.222 388.350, 655.924 384.500 C 651.795 377.582, 634.177 348.654, 627.606 338 C 625.740 334.975, 619.812 325.300, 614.432 316.500 C 609.053 307.700, 599.935 292.850, 594.171 283.500 C 579.699 260.026, 545.985 204.147, 531.355 179.385 C 524.676 168.079, 517.954 157.518, 516.418 155.915 C 513.255 152.613, 510.022 152.176, 507.797 154.750 M 563.153 178.903 C 563.683 180.295, 564.652 182.077, 565.308 182.862 C 565.964 183.646, 568.789 188.836, 571.586 194.394 C 576.437 204.034, 576.852 204.540, 580.586 205.375 C 620.262 214.243, 657.933 231.371, 689.060 254.694 C 732.558 287.287, 761.511 321.294, 789.043 372.131 C 797.456 387.663, 803.422 401.968, 807.957 417.474 C 823.366 470.172, 824.830 515.027, 813.050 573.500 L 810.229 587.500 812.578 591.174 C 813.870 593.194, 815.856 597.694, 816.992 601.174 C 820.488 611.888, 822.134 616, 822.924 616 C 825.997 616, 835.253 588.026, 839.409 566.180 C 844.100 541.520, 845.256 526.987, 844.714 499.500 C 844.316 479.351, 843.725 471.377, 841.670 458.403 C 836.147 423.534, 826.920 395.121, 809.511 359.379 C 799.290 338.393, 796.078 333.233, 779.746 311.554 C 740.567 259.549, 699.641 225.749, 647 201.922 C 624.353 191.671, 595.718 182.473, 574.345 178.583 L 562.191 176.372 563.153 178.903 M 449.315 178.531 C 427.903 182.447, 379.610 200.281, 358.013 212.247 C 356.081 213.317, 352.025 215.576, 349 217.267 C 337.574 223.652, 312.122 241.086, 302.500 249.120 C 259.193 285.275, 219.379 340.934, 200.901 391.150 C 192.621 413.650, 187.202 435.348, 182.830 463.500 C 180.781 476.688, 180.503 482.003, 180.528 507.500 C 180.559 539.718, 181.458 548.459, 187.536 575.588 C 190.636 589.429, 197.100 608.985, 200.233 614.001 C 202.422 617.507, 203.517 616.961, 203.163 612.541 C 202.753 607.429, 208.004 594.321, 212.327 589.667 L 215.154 586.624 212.619 576.562 C 205.285 547.455, 202.344 510.757, 205 481.500 C 206.658 463.239, 208.894 450.406, 213.711 431.500 C 225.362 385.773, 247.621 343.093, 278.631 307.019 C 303.171 278.472, 325.758 259.268, 357.477 239.981 C 376.704 228.290, 411.156 213.798, 436 206.951 C 442.325 205.208, 448.206 203.409, 449.069 202.953 C 449.932 202.497, 451.406 199.359, 452.346 195.980 C 453.285 192.601, 455.392 187.186, 457.027 183.947 C 458.662 180.707, 460 177.819, 460 177.529 C 460 176.789, 457.608 177.014, 449.315 178.531 M 509.884 187.107 C 509.040 188.423, 508.018 190.400, 507.611 191.500 C 507.204 192.600, 500.079 204.975, 491.777 219 C 478.324 241.727, 470.405 254.947, 450.442 288 C 447.286 293.225, 441.244 302.900, 437.015 309.500 C 422.653 331.912, 409.678 353.289, 374.499 412.500 C 363.062 431.750, 350.314 453.125, 346.170 460 C 342.026 466.875, 336.526 476.100, 333.947 480.500 C 331.369 484.900, 326.388 493.291, 322.879 499.147 C 319.371 505.003, 312 517.530, 306.500 526.985 C 301 536.440, 292.868 550.323, 288.430 557.838 C 283.991 565.352, 278.632 574.650, 276.520 578.500 C 272.807 585.268, 268.090 593.460, 243.983 635 C 237.759 645.725, 229.367 659.784, 225.334 666.242 C 221.300 672.701, 218 678.438, 218 678.992 C 218 679.653, 234.278 680.051, 265.250 680.147 C 337.899 680.373, 806.461 679.824, 806.798 679.513 C 807.224 679.119, 781.968 635.305, 773.933 622.500 C 770.191 616.535, 761.129 601.111, 737.215 560 C 724.253 537.718, 721.438 532.980, 707.219 509.500 C 702.555 501.800, 695.482 489.875, 691.501 483 C 684.931 471.655, 667.063 442.236, 650.202 415 C 646.626 409.225, 640.041 398.200, 635.568 390.500 C 631.095 382.800, 624.389 371.550, 620.665 365.500 C 616.941 359.450, 611.368 350.225, 608.280 345 C 601.712 333.888, 571.961 285.116, 564.664 273.500 C 555.999 259.706, 525.988 210.004, 519.376 198.500 C 515.900 192.450, 512.686 186.873, 512.236 186.107 C 511.591 185.010, 511.092 185.223, 509.884 187.107 M 490 303.979 C 460.838 310.285, 439.755 326.118, 427.635 350.815 C 420.110 366.146, 417.561 377.299, 418.273 391.769 C 418.563 397.671, 419.521 404.975, 420.402 408 C 424.202 421.047, 424.463 423.824, 422.409 429.356 C 420.958 433.267, 420.500 437.137, 420.500 445.500 C 420.500 455.349, 420.781 457.100, 423.188 462.235 C 424.666 465.390, 427.070 469.536, 428.528 471.448 C 432.105 476.138, 440.725 481.708, 448.287 484.218 C 456.614 486.982, 457.247 487.580, 456.502 491.988 C 455.599 497.333, 457.736 519.301, 459.617 524 C 462.253 530.590, 467.887 534.540, 480.432 538.595 C 490.121 541.728, 493.433 542.286, 507.486 543.153 C 525.752 544.281, 534.445 543.722, 543.883 540.814 C 552.627 538.119, 556.825 535.879, 560.707 531.834 C 565.851 526.476, 567.134 521.412, 567.856 503.626 L 568.500 487.752 578.500 483.331 C 590.560 478, 597.396 471.884, 601.667 462.605 C 604.167 457.173, 604.463 455.452, 604.349 447 C 604.278 441.775, 603.543 434.426, 602.715 430.668 C 601.130 423.474, 601.064 424.171, 605.058 406.022 C 606.844 397.906, 605.714 375.445, 603.053 366.174 C 597.372 346.378, 583.927 327.965, 567.464 317.434 C 558.471 311.681, 544.604 305.969, 534.636 303.912 C 522.422 301.391, 501.823 301.422, 490 303.979 M 502.500 318.963 C 487.214 320.753, 469.604 327.618, 459.354 335.783 C 449.589 343.561, 439.849 358.897, 436.577 371.644 C 434.078 381.382, 434.475 395.585, 437.500 404.595 C 440.396 413.223, 440.594 418.731, 438.506 432.587 C 434.766 457.401, 437.266 462.433, 458.364 472.563 C 463.583 475.068, 468.430 477.814, 469.136 478.664 C 469.977 479.677, 470.810 486.710, 471.554 499.066 C 472.248 510.576, 473.155 518.481, 473.883 519.359 C 474.539 520.150, 478.321 522, 482.288 523.471 C 488.162 525.649, 492.269 526.320, 504.426 527.091 C 527.139 528.529, 539.910 526.761, 547.903 521.069 L 550.690 519.085 551.366 503.256 C 551.739 494.551, 552.511 485.733, 553.083 483.662 C 554.230 479.506, 558.485 476.293, 571.534 469.730 C 575.736 467.617, 580.317 464.295, 582.912 461.479 L 587.257 456.766 586.625 444.133 C 586.277 437.185, 585.719 427.434, 585.384 422.463 C 584.883 415.014, 585.147 412.105, 586.888 405.900 C 589.484 396.648, 589.762 380.407, 587.478 371.460 C 582.541 352.122, 569.516 336.844, 549.500 326.912 C 535.014 319.724, 519.057 317.025, 502.500 318.963 M 698.241 349.995 C 688.760 355.775, 689.134 366.967, 698.975 371.987 C 705.892 375.516, 712.014 373.950, 715.903 367.656 C 723.008 356.161, 709.795 342.950, 698.241 349.995 M 312.500 349.945 C 307.381 352.041, 304.478 358.349, 306.012 364.045 C 308.491 373.249, 320.338 377.244, 327.138 371.168 C 329.821 368.771, 330.380 367.467, 330.777 362.674 C 331.235 357.153, 331.146 356.911, 327.241 353.006 C 323.753 349.518, 322.671 349.008, 318.868 349.063 C 316.465 349.098, 313.600 349.495, 312.500 349.945 M 539.792 398.380 C 533.826 400.014, 528.016 404.019, 525.506 408.227 C 522.829 412.715, 522.738 425.636, 525.339 432 C 529.519 442.229, 538.384 449.131, 549.255 450.622 C 556.031 451.550, 560.640 450.320, 564.940 446.435 C 570.673 441.255, 573.349 434.240, 573.305 424.500 C 573.263 414.909, 571.790 410.991, 566.091 405.312 C 559.702 398.945, 548.505 395.994, 539.792 398.380 M 469 399.607 C 462.209 401.428, 456.697 405.143, 453.746 409.889 C 451.790 413.034, 451.500 414.856, 451.500 424 C 451.500 433.757, 451.709 434.877, 454.450 439.825 C 459.749 449.392, 468.419 452.586, 479.745 449.146 C 488.394 446.519, 493.908 441.872, 497.932 433.821 C 500.512 428.657, 501 426.524, 501 420.405 C 501 412.047, 499.962 408.652, 496.186 404.658 C 489.960 398.072, 480.959 396.399, 469 399.607 M 507.280 450.971 C 499.800 455.531, 493.731 468.821, 495.869 475.958 C 496.473 477.972, 498.137 480.718, 499.568 482.060 C 502.013 484.352, 502.753 484.481, 511.806 484.189 C 517.105 484.019, 522.047 483.376, 522.787 482.762 C 525.351 480.634, 527.231 475.630, 527.231 470.933 C 527.231 462.393, 518.336 448.994, 512.673 449.004 C 511.478 449.006, 509.051 449.891, 507.280 450.971 M 634.407 454.031 C 620.451 456.798, 611.827 465.979, 610.074 479.937 C 609.575 483.913, 609.016 487.303, 608.833 487.469 C 608.650 487.635, 605.125 489.191, 601 490.926 C 596.875 492.662, 591.025 495.328, 588 496.851 C 583.093 499.321, 582.469 499.990, 582.213 503.060 C 582.056 504.952, 582.281 508.816, 582.713 511.646 L 583.500 516.792 601 508.402 C 610.625 503.787, 619.625 499.365, 621 498.574 C 623.700 497.021, 624.784 492.863, 624.930 483.500 C 625.110 471.889, 635.186 464.993, 644.802 469.899 C 650.364 472.737, 651.234 474.777, 650.967 484.365 C 650.842 488.839, 650.799 492.995, 650.870 493.600 C 650.942 494.205, 653.933 495.946, 657.517 497.470 C 664.791 500.561, 667.629 503.694, 668.512 509.605 C 669.253 514.572, 666.773 519.604, 662 522.815 C 659.050 524.799, 657.733 525.069, 653.613 524.532 C 650.925 524.181, 646.425 522.716, 643.613 521.276 C 640.801 519.836, 637.322 518.737, 635.883 518.834 C 632.486 519.064, 601.714 529.532, 587.215 535.390 C 581.008 537.897, 573.133 541.933, 569.715 544.358 C 566.297 546.783, 560.350 550.343, 556.500 552.270 C 552.650 554.197, 548.411 556.656, 547.079 557.734 L 544.659 559.695 551.756 562.407 C 555.660 563.899, 559.431 565.815, 560.137 566.665 C 562.468 569.473, 573.053 576.138, 580.838 579.698 C 585.052 581.625, 594.800 585.888, 602.500 589.171 C 610.200 592.454, 618.268 596.293, 620.428 597.702 C 622.922 599.328, 624.785 599.942, 625.529 599.382 C 626.174 598.897, 628.653 597.026, 631.037 595.224 C 633.421 593.422, 637.807 591.240, 640.783 590.375 C 645.761 588.928, 646.544 588.936, 650.586 590.480 C 656.486 592.733, 659 596.106, 659 601.767 C 659 609.257, 656.153 612.659, 646.750 616.404 C 642.436 618.123, 642.265 619.061, 645 626 C 648.050 633.738, 647.681 638.287, 643.645 642.690 C 640.647 645.962, 639.662 646.395, 634.395 646.764 C 624.326 647.469, 619.097 642.282, 616.585 629.097 C 615.839 625.183, 614.652 621.286, 613.948 620.437 C 613.243 619.588, 609.704 617.190, 606.083 615.108 C 584.893 602.923, 564.479 590.957, 557.530 586.648 C 543.568 577.989, 538.477 576.569, 530.060 578.983 C 528.175 579.523, 526.473 579.806, 526.277 579.611 C 526.082 579.415, 529.315 577.141, 533.461 574.557 C 537.607 571.972, 541 569.250, 541 568.506 C 541 566.718, 535.285 561.059, 532.354 559.944 C 531.078 559.460, 522.715 558.787, 513.768 558.451 C 493.524 557.689, 477.773 555.667, 470.826 552.939 C 467.897 551.788, 461.675 548.663, 457 545.994 C 452.325 543.325, 442.200 538.676, 434.500 535.662 C 426.800 532.648, 413.750 527.449, 405.500 524.110 C 397.250 520.770, 389.551 518.029, 388.390 518.019 C 387.230 518.008, 383.517 519.426, 380.139 521.168 C 376.278 523.159, 371.994 524.502, 368.608 524.783 C 363.601 525.198, 362.962 524.992, 359.549 521.864 C 356.822 519.365, 355.749 517.469, 355.380 514.499 C 354.583 508.082, 357.338 504.156, 365.567 499.986 L 372.500 496.472 372.153 486.361 C 371.808 476.318, 371.826 476.226, 374.821 472.874 C 377.660 469.697, 378.216 469.500, 384.337 469.500 C 389.883 469.500, 391.237 469.868, 393.548 472 C 397.170 475.341, 398.727 479.287, 399.485 487.043 C 400.543 497.855, 400.069 497.214, 410.722 502.249 C 428.316 510.564, 443.008 516.797, 443.425 516.122 C 443.649 515.758, 444.151 512.234, 444.540 508.290 L 445.247 501.121 441.873 499.057 C 440.018 497.922, 433.252 494.948, 426.837 492.447 L 415.174 487.899 414.523 482.700 C 413.605 475.371, 408.869 466.033, 404.143 462.235 C 396.371 455.989, 392.300 454.500, 383 454.500 C 375.533 454.500, 373.933 454.833, 369.834 457.243 C 360.113 462.957, 355.046 472.453, 356.509 482.211 C 357.169 486.615, 357.166 486.621, 353.050 488.478 C 347.615 490.928, 342.388 496.850, 340.943 502.193 C 339.288 508.314, 340.224 519.602, 342.803 524.634 C 345.480 529.856, 350.058 534.457, 355.366 537.261 C 358.605 538.973, 361.239 539.452, 367.531 539.473 C 374.518 539.496, 376.369 539.100, 381.781 536.420 L 388.001 533.340 397.251 537.238 C 406.563 541.162, 443.862 556.148, 447.403 557.388 C 449.013 557.952, 448.587 558.510, 444.639 561.014 C 438.204 565.095, 433.242 567.556, 421.545 572.468 C 416.020 574.788, 409.318 577.800, 406.650 579.162 L 401.801 581.637 393.150 578.155 C 382.624 573.918, 377.065 573.258, 369.772 575.378 C 355.797 579.441, 348.483 588.947, 348.520 603 C 348.534 608.315, 349.076 611.520, 350.379 614 C 352.681 618.382, 359.947 626, 361.823 626 C 362.945 626, 363.091 627.114, 362.544 631.498 C 361.423 640.463, 363.941 647.304, 370.833 654.026 C 377.147 660.183, 382.150 662.241, 390.560 662.140 C 398.831 662.042, 406.650 658.569, 413.143 652.112 C 418.894 646.393, 420.983 641.939, 420.994 635.372 C 421.001 631.488, 421.617 630.995, 431.500 626.962 C 435.900 625.166, 439.964 623.342, 440.532 622.907 C 441.100 622.472, 451.225 617.200, 463.032 611.191 C 474.839 605.182, 486.975 598.886, 490 597.200 C 493.025 595.515, 498.551 593.372, 502.279 592.439 C 516.804 588.804, 518.078 582.641, 504.833 580.087 C 501.350 579.416, 496.662 578.409, 494.416 577.850 C 488.223 576.308, 483.584 578.065, 469.799 587.173 C 463.040 591.639, 450.097 599.100, 441.038 603.752 C 420.887 614.100, 410.746 619.804, 409.770 621.338 C 409.363 621.977, 409.021 623.625, 409.010 625 C 408.966 630.230, 406.758 635.124, 402.210 640.068 C 398.125 644.511, 396.878 645.260, 392.810 645.718 C 386.545 646.424, 384.073 645.678, 380.229 641.920 C 376.498 638.272, 376.091 634.748, 378.561 627.471 C 380.891 620.610, 380.278 618.996, 374.025 615.509 C 368.120 612.216, 364 607.179, 364 603.253 C 364 599.655, 366.862 594.234, 369.907 592.066 C 376.289 587.522, 384.311 588.547, 392.770 594.987 C 398.685 599.491, 399.286 599.626, 403.500 597.410 C 408.650 594.700, 427.968 586.384, 440.500 581.481 C 447.100 578.898, 454.750 575.537, 457.500 574.012 C 464.483 570.138, 468.412 569.048, 478.615 568.153 C 487.062 567.412, 487.613 567.487, 489.996 569.698 C 492.804 572.304, 493.290 572.489, 501 573.883 C 504.025 574.430, 509.628 576.169, 513.452 577.748 C 519.437 580.219, 520.516 581.053, 521.214 583.746 C 522.267 587.809, 525.653 590.386, 533.304 592.947 C 540.135 595.233, 551.614 601.472, 571.732 613.831 C 579.010 618.302, 588.588 623.782, 593.018 626.009 C 601.159 630.102, 602.987 632.170, 603.010 637.315 C 603.024 640.605, 607.304 649.137, 611.117 653.480 C 616.446 659.549, 623.771 662.421, 634 662.451 C 640.919 662.471, 643.285 662.059, 646.722 660.232 C 653.239 656.768, 657.707 652.334, 659.554 647.499 C 661.356 642.778, 661.933 634.184, 660.739 629.841 C 660.088 627.473, 660.540 626.800, 664.863 623.694 C 677.504 614.612, 678.606 595.764, 667.165 584.323 C 660.736 577.894, 654.188 575.022, 645.932 575.010 C 638.431 574.999, 630.449 577.072, 626.730 579.998 C 625.330 581.099, 623.728 582, 623.171 582 C 621.496 582, 584.776 564.448, 579.651 561.198 L 574.896 558.183 580.198 556.219 C 583.114 555.139, 586.625 553.930, 588 553.533 C 589.375 553.136, 593.425 551.516, 597 549.933 C 600.575 548.351, 611.249 544.102, 620.721 540.492 L 637.941 533.929 641.850 535.923 C 647.324 538.716, 656.703 540.078, 662.118 538.866 C 675.620 535.846, 684.201 524.928, 684.402 510.512 C 684.538 500.790, 680.916 494.116, 672.761 489.059 L 667.022 485.500 667.011 479.718 C 667.005 476.538, 666.304 472.263, 665.454 470.218 C 663.085 464.521, 655.382 457.287, 649.238 454.988 C 643.619 452.886, 641.026 452.718, 634.407 454.031 M 276.517 738.469 C 295.084 760.201, 342.143 793.438, 378.604 810.570 C 391.638 816.694, 415.368 825.129, 426.162 827.476 C 476.424 838.400, 493.535 839.661, 541.642 835.989 C 563.337 834.333, 595.492 827.866, 619.078 820.416 C 630.153 816.917, 655.071 806.074, 665.856 800.060 C 682.502 790.777, 692.550 784.775, 698.500 780.558 C 701.800 778.220, 707.650 774.144, 711.500 771.502 C 722.591 763.890, 736.677 752.331, 747.313 742.115 L 757.125 732.689 743.313 733.485 C 735.716 733.922, 727.925 734.213, 726 734.131 C 720.587 733.900, 716.163 734.921, 714.246 736.843 C 706.064 745.049, 691.572 755.977, 675.158 766.318 C 610.831 806.847, 534.918 822.227, 460 809.910 C 420.965 803.493, 380.569 787.660, 348 766.011 C 330.997 754.710, 326.602 751.392, 317.210 742.769 C 307.602 733.948, 308.524 734.253, 289.056 733.448 L 271.613 732.728 276.517 738.469 M 508.209 739.068 C 495.929 741.667, 495.303 758.382, 507.315 762.933 C 516.430 766.387, 524 760.775, 524 750.565 C 524 742.562, 516.726 737.265, 508.209 739.068" stroke="none" fill="#000000" fill-rule="evenodd"/>
</svg>