<?xml version="1.0" encoding="UTF-8" standalone="no"?>
<!-- Created with Inkscape (http://www.inkscape.org/) -->

<svg
   version="1.1"
   id="svg1"
   width="879.99768"
   height="877.73517"
   viewBox="0 0 879.99768 877.73517"
   xmlns="http://www.w3.org/2000/svg"
   xmlns:svg="http://www.w3.org/2000/svg">
  <defs
     id="defs1" />
  <g
     id="g1"
     transform="translate(-56.919899,-85.571266)">
    <path
       style="fill:#000000"
       d="m 134.92269,961.62225 c -33.39764,-7.1164 -61.114722,-32.0596 -72.352944,-65.11207 -6.025031,-17.72005 -5.647309,7.12977 -5.644229,-371.32676 0.002,-246.15574 0.321354,-348.71832 1.105738,-355.11901 2.65982,-21.70453 10.065977,-37.82145 24.636016,-53.61171 12.205234,-13.22741 31.747019,-24.909415 48.255419,-28.846905 8.45537,-2.01672 10.37072,-2.0274 364.79216,-2.03437 320.79945,-0.006 357.05392,0.15034 363.93909,1.57251 16.98387,3.50811 31.74804,10.85248 45.34947,22.558865 15.99287,13.76464 27.73749,35.94035 30.83703,58.22521 0.75946,5.46033 1.08049,111.62821 1.07635,355.95876 -0.006,377.41106 0.27,357.91861 -5.30549,374.17764 -10.76274,31.38594 -34.21383,53.11764 -68.18861,63.18924 -5.69649,1.6887 -24.0589,1.7888 -363,1.9792 -341.22828,0.1917 -357.37552,0.1206 -365.5,-1.6106 z m 723,-29.4053 c 11.23503,-3.774 21.1905,-9.8081 29.09305,-17.6336 12.27039,-12.15065 18.90409,-25.58954 20.98818,-42.51894 0.63472,-5.15586 0.8736,-130.83148 0.67192,-353.5 -0.29088,-321.16677 -0.43236,-345.93639 -2.00887,-351.6962 -5.58443,-20.40274 -18.95479,-36.697 -37.35935,-45.52926 -15.052,-7.22339 13.9736,-6.701 -374.47497,-6.73965 -343.4242,-0.0342 -350.74464,0.005 -358.15411,1.89967 -19.15671,4.89947 -34.41917,17.43745 -43.293705,35.56544 C 85.24549,168.6906 85.9227,134.9511 85.9227,523.83859 c 0,245.0782 0.31901,349.10568 1.08339,353.29216 4.981785,27.28506 27.18916,49.7088 55.4166,55.9565 4.93368,1.092 68.55763,1.2969 358,1.1526 339.40806,-0.1692 352.19675,-0.2415 357.5,-2.0229 z M 632.19238,849.08182 c -4.37571,-1.90224 -6.89198,-6.42097 -7.70212,-13.8315 -1.13482,-10.38036 -12.95854,-92.63855 -26.0435,-181.18591 -17.23442,-116.62715 -15.97189,-107.00466 -14.50455,-110.54712 1.88589,-4.55295 5.54999,-6.95288 10.61534,-6.95288 h 4.36514 l 0.0148,-3.75 c 0.0207,-5.25127 2.58018,-15.53574 5.09139,-20.45811 3.44298,-6.7488 11.48771,-14.45037 19.04176,-18.22951 5.78491,-2.89407 7.5122,-4.40381 11.14757,-9.74355 7.85659,-11.54 19.50507,-17.31213 33.64132,-16.67017 l 7.86562,0.3572 2.62577,-4.15045 c 6.45932,-10.20999 18.97525,-17.90805 30.93108,-19.0245 16.31636,-1.52365 33.36021,8.4315 41.13014,24.02372 l 2.48823,4.99324 10.91975,0.0761 10.91976,0.0761 9.09141,4.62972 9.0914,4.62965 v -38.22784 -38.22785 l -3.92678,-1.77073 c -4.86991,-2.19603 -8.49342,-5.89901 -10.52017,-10.7509 -1.35326,-3.2396 -1.55305,-12.61561 -1.55305,-72.88398 0,-50.54198 0.3201,-70.23451 1.1888,-73.13396 1.84415,-6.15521 8.85864,-13.26075 15.6035,-15.80602 4.55586,-1.71921 7.22124,-2.0673 13.2077,-1.72487 8.65325,0.49498 12.68052,2.22928 18.73337,8.06733 7.60348,7.33367 7.35431,4.3635 7.04284,83.95085 l -0.27621,70.57759 -3,4.33547 c -2.0215,2.92138 -4.71122,5.15089 -8.24644,6.83547 l -5.24645,2.5 -0.004,64.72254 -0.004,64.72255 14.25,0.27745 14.25,0.27746 0.25021,152 c 0.23551,143.06513 0.14733,152.20492 -1.5,155.48609 -0.96261,1.91735 -2.87521,4.04821 -4.25021,4.73526 -3.91113,1.95426 -202.2158,1.75864 -206.73031,-0.20394 z m 38.13276,-315.76741 c 0.27119,-1.7875 0.74055,-5.12278 1.04301,-7.41174 0.75504,-5.71375 3.56309,-11.90315 8.08204,-17.81409 l 3.80404,-4.97582 -2.48221,-4.52418 c -4.98228,-9.0809 -15.93045,-11.52892 -23.67403,-5.29352 -4.11986,3.31745 -8.13393,9.66808 -8.15885,12.90806 -0.0129,1.67742 -0.82527,2.2876 -3.76645,2.82902 -13.21024,2.4318 -23.17189,12.41671 -23.22804,23.28227 l -0.022,4.25 h 23.95469 23.95468 z m 63.59755,0.20034 c 0,-3.65898 -2.27006,-8.41728 -5.86416,-12.29192 -10.86869,-11.71706 -28.86128,-7.23903 -34.19285,8.50997 -0.98241,2.90196 -1.56992,5.62624 -1.30558,6.05395 0.26434,0.42771 9.67907,0.77766 20.92161,0.77766 h 20.44098 z m 58.0801,-6.86526 c -0.23246,-10.53614 -1.6338,-14.37155 -7.707,-21.09386 -4.15051,-4.59412 -14.33551,-9.99122 -18.85468,-9.99122 -5.13536,0 -12.148,2.89954 -16.62808,6.87526 l -4.18329,3.71235 3.53836,4.95619 c 4.34401,6.08469 6.75459,12.9812 6.75459,19.32448 0,2.63911 0.30982,5.10821 0.6885,5.48688 0.37867,0.37868 8.76843,0.56618 18.64391,0.41667 l 17.95541,-0.27183 z m -61.15464,-36.63081 3.26449,-4.54573 -2.64606,-5.40837 c -3.09389,-6.32368 -6.6725,-9.62006 -13.11458,-12.08032 -4.02019,-1.53532 -5.27537,-1.60837 -9.27138,-0.5396 -5.49533,1.46977 -10.59685,5.13405 -12.63497,9.07535 -1.39476,2.69716 -1.28089,3.22441 2.09442,9.69831 l 3.56936,6.84609 8.15663,-0.25934 c 4.48615,-0.14263 9.73163,0.1488 11.65663,0.64764 5.42012,1.40455 5.46231,1.38832 8.92546,-3.43403 z M 476.20873,846.171 c -9.25277,-3.01762 -19.51594,-11.48296 -23.88306,-19.69939 -0.99603,-1.87396 -14.46386,-39.8572 -29.92851,-84.4072 l -28.11754,-81 -84.92846,-0.53465 c -93.95299,-0.59146 -89.43597,-0.27556 -103.42847,-7.23326 -8.81446,-4.38294 -19.47829,-15.05627 -24.21052,-24.23209 -5.73809,-11.1262 -7.06946,-17.0731 -6.57569,-29.37207 0.37724,-9.39637 1.19154,-13.29316 7.02713,-33.62793 3.63024,-12.65 15.2314,-53.825 25.78035,-91.5 21.82194,-77.93589 22.98566,-81.09747 33.81647,-91.87222 11.44782,-11.38857 25.77977,-17.29533 42.16226,-17.37673 20.81289,-0.10342 39.16626,9.91592 51.21351,27.95811 2.49394,3.73496 14.19692,21.86584 26.00663,40.29084 11.8097,18.425 25.35691,39.4625 30.1049,46.75 l 8.6327,13.25 32.77113,0.0156 c 35.50446,0.0169 40.45554,0.55825 48.56318,5.30965 8.97442,5.25935 13.82972,13.53794 14.47148,24.67473 0.34997,6.07325 0.004,8.6355 -1.81946,13.46901 -3.03231,8.03849 -10.41124,15.43964 -18.35742,18.41269 -5.77022,2.15891 -6.53249,2.18531 -54.96901,1.90379 l -49.11764,-0.28547 -6.36372,-3.44994 c -10.07652,-5.46274 -9.91201,-5.23825 -48.17965,-65.74448 l -7.71245,-12.19441 -4.08455,15.69441 c -12.4773,47.94261 -21.91334,86.21905 -21.32743,86.51284 0.36729,0.18416 31.48779,0.43504 69.15666,0.55751 40.43947,0.13147 70.28916,0.62611 72.88468,1.20778 12.60245,2.82427 24.88522,12.79781 30.80048,25.00981 1.74571,3.60401 10.13912,26.99484 18.65201,51.97961 8.5129,24.98478 22.98023,67.25187 32.14963,93.92687 10.56246,30.72757 16.87775,50.59584 17.23411,54.21944 1.62744,16.54864 -6.52238,32.11689 -20.38558,38.94173 -5.60399,2.75883 -7.83955,3.27769 -15.19736,3.52719 -5.3848,0.1826 -10.21047,-0.22394 -12.84079,-1.08177 z m -331.36296,-123.52967 -2.92308,-2.92307 v -18.0002 c 0,-17.70206 0.0411,-18.04901 2.47975,-20.94722 1.36387,-1.62086 3.72637,-3.46251 5.25,-4.09256 2.03389,-0.84104 29.67925,-1.07488 104.00377,-0.8797 l 101.23352,0.26583 3.76648,3.76667 3.76648,3.76666 v 18.06537 18.06536 l -3.26578,2.91797 -3.26577,2.91797 H 251.82999 147.76884 Z M 519.2374,365.14842 c -4.20994,-1.89403 -5.78348,-5.33969 -7.11678,-15.58401 -0.98725,-7.5854 -1.97496,-10.22161 -9.17945,-24.5 -9.3005,-18.43241 -10.98266,-24.49299 -11.0037,-39.64466 -0.0182,-13.11075 1.85531,-19.76643 9.10775,-32.35534 14.18011,-24.61409 15.16998,-33.41086 6.11629,-54.35383 -4.99308,-11.54997 -5.1163,-17.07945 -0.47304,-21.2282 4.97661,-4.4466 13.95027,-3.80481 17.08971,1.22225 0.68624,1.09883 3.27789,7.42513 5.75923,14.05842 9.66175,25.82849 8.00603,43.47198 -6.44168,68.64308 -6.36722,11.09312 -8.17304,16.61309 -8.17304,24.98313 0,9.43055 2.18914,16.85357 8.4275,28.57635 8.03632,15.1014 10.71704,23.31835 11.31794,34.69185 0.50048,9.47268 0.47075,9.6331 -2.3693,12.78473 -3.40971,3.78379 -8.37814,4.81321 -13.06143,2.70623 z m 81.99911,-0.53424 c -4.12398,-2.51457 -4.93065,-4.18528 -5.81803,-12.04977 -1.1012,-9.75945 -3.83032,-17.43644 -10.08031,-28.35581 -7.2069,-12.59118 -9.1849,-18.33438 -10.46616,-30.38882 -1.83832,-17.29539 0.23997,-26.16144 10.01415,-42.72066 6.74277,-11.42348 7.71427,-13.68181 9.48995,-22.06009 1.7926,-8.45817 0.51128,-16.05379 -5.0543,-29.96164 -5.4058,-13.50858 -5.47676,-17.20262 -0.41807,-21.76298 2.43363,-2.19389 4.02058,-2.75 7.84764,-2.75 6.51273,0 8.8957,2.72576 14.1008,16.12926 5.76292,14.83992 7.38641,23.23 6.74753,34.87074 -0.6249,11.38604 -3.03216,19.53373 -9.15906,31 -10.39242,19.44904 -10.01796,18.28512 -10.01796,31.13877 v 11.63877 l 7.264,14.36123 c 3.9952,7.89868 8.18709,17.06123 9.31531,20.36123 2.52842,7.39555 3.71838,23.14098 1.99258,26.36566 -1.54624,2.88918 -6.86863,6.12686 -10.07189,6.12686 -1.375,0 -3.93378,-0.87423 -5.68618,-1.94275 z m 83.78258,0.68549 c -4.26005,-2.18932 -5.97427,-5.78318 -7.02852,-14.73526 -0.90697,-7.70147 -1.75645,-10.00312 -9.04231,-24.5 -8.79732,-17.50427 -10.63406,-23.26565 -11.63214,-36.4871 -0.89775,-11.89228 0.73794,-19.82075 6.33657,-30.71443 14.10852,-27.45201 13.55965,-26.13141 14.05248,-33.81074 0.5566,-8.67293 -0.71274,-14.52789 -5.92884,-27.34744 -4.25198,-10.45004 -4.67326,-13.9442 -2.18837,-18.15079 2.03489,-3.44478 5.20727,-4.9895 10.24692,-4.9895 5.9024,0 8.33997,2.67811 12.95156,14.22961 5.82915,14.60135 7.48282,21.78728 7.54132,32.77039 0.0708,13.28827 -1.35332,18.14077 -11.00545,37.5 -7.54751,15.13802 -8.53767,17.7667 -9.04019,24 -0.80557,9.99228 1.47807,18.46401 8.58203,31.83717 7.35863,13.85258 10.94718,24.40694 11.72412,34.48202 0.723,9.37569 -0.92068,13.5538 -6.19988,15.75959 -4.14746,1.73292 -6.23401,1.76776 -9.3693,0.15648 z m -365.5964,-9.81057 c -39.30416,-3.95513 -66.56718,-42.92243 -58.07108,-83.00158 8.95477,-42.24291 57.88464,-64.57824 96.87156,-44.21958 10.92861,5.70683 23.20605,18.30347 28.55409,29.29647 6.12291,12.58573 7.46382,19.08578 6.90407,33.46729 -0.48775,12.53155 -2.78462,21.22921 -8.01181,30.33859 -13.65424,23.79514 -39.01913,36.85871 -66.24683,34.11881 z"
       id="path1" />
  </g>
</svg>
