<?xml version="1.0" encoding="UTF-8" standalone="no"?>
<!-- Created with Inkscape (http://www.inkscape.org/) -->

<svg
   version="1.1"
   id="svg1"
   width="778.84125"
   height="778.62012"
   viewBox="0 0 778.84125 778.62012"
   sodipodi:docname="ChatGPT Image 2 kwi 2025, 19_12_33.png"
   xmlns:inkscape="http://www.inkscape.org/namespaces/inkscape"
   xmlns:sodipodi="http://sodipodi.sourceforge.net/DTD/sodipodi-0.dtd"
   xmlns="http://www.w3.org/2000/svg"
   xmlns:svg="http://www.w3.org/2000/svg">
  <defs
     id="defs1" />
  <sodipodi:namedview
     id="namedview1"
     pagecolor="#ffffff"
     bordercolor="#000000"
     borderopacity="0.25"
     inkscape:showpageshadow="2"
     inkscape:pageopacity="0.0"
     inkscape:pagecheckerboard="0"
     inkscape:deskcolor="#d1d1d1">
    <inkscape:page
       x="0"
       y="0"
       width="778.84125"
       height="778.62012"
       id="page2"
       margin="0"
       bleed="0" />
  </sodipodi:namedview>
  <g
     inkscape:groupmode="layer"
     inkscape:label="Image"
     id="g1"
     transform="translate(-115.49683,-152.63037)">
    <path
       style="fill:#000000"
       d="m 173.97718,929.49516 c -14.06098,-3.01262 -29.66185,-12.14859 -39.65805,-23.22401 -6.85199,-7.59176 -11.41591,-15.19311 -15.28107,-25.45107 l -3.07671,-8.16548 -0.29077,-327.5 c -0.32692,-368.22544 -1.07951,-333.25728 7.55429,-351 3.96616,-8.15057 5.9803,-10.8575 14.17964,-19.05684 8.2103,-8.2103 10.89537,-10.20673 19.05684,-14.16936 5.225,-2.53689 12.65,-5.43631 16.5,-6.44316 6.71454,-1.75599 20.19212,-1.83064 330.5,-1.83064 367.22357,0 329.97428,-0.92779 349.20169,8.69778 8.3918,4.20108 11.45182,6.4409 18.6677,13.66407 9.00222,9.01131 13.61282,15.80492 17.85638,26.31091 5.5882,13.83499 5.32175,-4.4771 5.01765,344.83888 -0.26852,308.449 -0.3599,322.748 -2.09913,328.4523 -8.80876,28.89091 -30.26544,49.10918 -58.45839,55.08434 -10.35173,2.19392 -649.39994,1.9927 -659.67007,-0.20772 z m 657.48417,-36.08831 c 6.50976,-2.66043 12.81188,-7.48274 17.56441,-13.44008 1.89205,-2.37169 4.45157,-6.78717 5.68784,-9.81217 l 2.24775,-5.5 0.30426,-319.5 c 0.23022,-241.74444 0.0186,-320.83852 -0.86955,-325 -2.64922,-12.41319 -10.91986,-22.72941 -22.69396,-28.30687 l -6.74075,-3.19313 -320.7634,-0.25611 -320.76341,-0.25611 -6.19641,2.08742 c -12.80779,4.31463 -21.47944,12.93437 -25.88013,25.7252 -1.8468,5.3678 -1.89665,13.94206 -1.89665,326.1996 0,314.79447 0.0357,320.79052 1.94032,326.32653 2.45207,7.12708 6.87187,13.57972 12.31421,17.97804 5.24991,4.2428 7.75065,5.56963 14.74547,7.82357 5.22279,1.68294 21.62836,1.76218 325.5,1.57206 l 320,-0.2002 z M 208.22392,776.58921 c -6.20664,-3.36768 -5.76257,15.66122 -5.76257,-246.93461 0,-264.01261 -0.50577,-243.63574 6.13243,-247.06848 4.76154,-2.46229 23.79554,-1.70635 26.9035,1.06848 4.93267,4.40396 4.96407,4.79598 4.96407,61.97047 v 53.5347 l 189.75,-0.25259 189.75,-0.25258 0.5,-33 c 0.55556,-36.66681 0.54957,-36.63478 7.45969,-39.91385 7.1743,-3.40443 15.48893,-0.99895 19.54571,5.65471 1.82709,2.99667 1.98739,5.07117 1.99042,25.75914 l 0.003,22.5 34.50044,-0.27542 34.50045,-0.27542 0.002,-21.72458 c 0.002,-24.40826 0.51206,-26.67188 6.99845,-31.04372 2.83194,-1.90873 4.46768,-2.28143 8.56971,-1.95261 5.85738,0.46953 9.57731,2.84175 11.84825,7.55568 1.42775,2.96366 1.58168,24.37035 1.5783,219.5 -0.004,213.98554 -0.0242,216.24969 -1.99086,219.47521 -6.0211,9.8754 -20.11937,9.44047 -25.25385,-0.77907 -1.58574,-3.15624 -1.74859,-7.59769 -1.75,-47.73007 l -0.002,-44.25 h -35 -35 v 45.04966 c 0,38.716 -0.21771,45.47067 -1.54855,48.04422 -4.8299,9.34001 -19.67712,9.14478 -25.45685,-0.33474 -1.88747,-3.09569 -1.98731,-5.10222 -1.99086,-40.00914 l -0.004,-36.75 h -189.5 -189.5 v 37.35212 c 0,37.22529 -0.008,37.3636 -2.28002,40.73543 -1.254,1.86082 -3.3915,3.94573 -4.75,4.63314 -3.59715,1.82018 -21.70431,1.61468 -25.20741,-0.28608 z M 718.46135,618.1546 v -29 h -35 -35 v 29 29 h 35 35 z m -98.55527,-71.5 0.0553,-80 -189.75,-0.25258 -189.75,-0.25259 v 80.50517 80.50517 l 189.69473,-0.25259 189.69472,-0.25258 z m -346.2651,61.81824 c -1.82621,-0.89991 -4.52621,-3.21714 -6,-5.14938 -2.64246,-3.46445 -2.67963,-3.73032 -2.67963,-19.16886 0,-15.45868 0.0339,-15.70012 2.69355,-19.18712 5.15748,-6.76179 5.94611,-6.88968 42.53941,-6.89798 27.4101,-0.006 33.66621,0.25943 38.26704,1.62496 13.60022,4.03656 25.98716,14.12608 32.31063,26.31797 6.1911,11.93666 6.85064,20.37994 1.80298,23.08137 -1.32563,0.70946 -19.14386,1.05326 -53.79787,1.03803 -45.92616,-0.0202 -52.19315,-0.20875 -55.13611,-1.65899 z m 444.82037,-79.8312 v -28.51296 l -34.75,0.26296 -34.75,0.26296 -0.26557,28.25 -0.26558,28.25 h 35.01558 35.01557 z m 0,-89.48704 v -29 h -34.5 -34.5 v 29 29 h 34.5 34.5 z m 56.89327,337.50309 c -1.4337,-0.77926 -3.3462,-2.54541 -4.25,-3.92478 -1.51287,-2.30892 -1.64327,-21.61776 -1.64327,-243.32062 0,-216.60014 0.15692,-241.03671 1.5607,-243.0409 2.82932,-4.03941 6.65237,-5.21679 16.9393,-5.21679 10.28693,0 14.10998,1.17738 16.9393,5.21679 1.40376,2.00416 1.5607,26.3952 1.5607,242.55538 0,264.21664 0.47791,244.37797 -5.96727,247.7109 -3.91929,2.02675 -21.42179,2.04068 -25.13946,0.02 z M 273.29184,380.12781 c -2.01824,-1.06613 -4.71824,-3.40874 -6,-5.20581 -2.08272,-2.92002 -2.36606,-4.58492 -2.66508,-15.65975 -0.40296,-14.925 0.10738,-18.08996 3.58301,-22.22051 5.50265,-6.53953 7.32654,-6.84241 41.25158,-6.8504 23.41699,-0.006 31.95382,0.33559 36.76027,1.46883 18.02958,4.2509 33.07267,18.2571 38.38179,35.73622 1.7636,5.80627 1.88722,7.27331 0.82831,9.82974 -0.68457,1.6527 -2.05337,3.43771 -3.04178,3.96669 -1.08729,0.5819 -22.2632,0.94432 -53.61285,0.91758 -49.29101,-0.042 -51.99454,-0.13864 -55.48525,-1.98259 z"
       id="path1" />
  </g>
</svg>
